G04 ================== begin FILE IDENTIFICATION RECORD ==================*
G04 Layout Name:  G:/github/PLL_FM_HW/PCB/FMDEMOD-57.brd*
G04 Film Name:    BOTTOM*
G04 File Format:  Gerber RS274X*
G04 File Origin:  Cadence Allegro 17.4-S017*
G04 Origin Date:  Thu Oct 21 08:45:56 2021*
G04 *
G04 Layer:  VIA CLASS/BOTTOM*
G04 Layer:  PIN/BOTTOM*
G04 Layer:  ETCH/BOTTOM*
G04 *
G04 Offset:    (0.0000 0.0000)*
G04 Mirror:    No*
G04 Mode:      Positive*
G04 Rotation:  0*
G04 FullContactRelief:  No*
G04 UndefLineWidth:     0.2540*
G04 ================== end FILE IDENTIFICATION RECORD ====================*
%FSLAX25Y25*MOMM*%
%IR0*IPPOS*OFA0.00000B0.00000*MIA0B0*SFA1.00000B1.00000*%
%AMMACRO50*
21,1,2.2,2.2,0.0,0.0,135.*%
%ADD50MACRO50*%
%ADD29R,.3X1.2*%
%AMMACRO51*
21,1,.2,.6,0.0,0.0,135.*%
%ADD51MACRO51*%
%ADD32R,1.X.7*%
%ADD26R,1.5X.2*%
%ADD36R,.6X1.2*%
%ADD30R,.7X1.*%
%ADD41R,.4X1.5*%
%ADD34R,.6X1.3*%
%ADD53R,1.5X.4*%
%ADD37R,1.3X.6*%
%ADD45R,1.4X.7*%
%ADD49R,.8X1.5*%
%ADD21C,.3*%
%ADD13C,.4*%
%ADD19R,1.35X.65*%
%ADD25R,.65X1.35*%
%ADD27R,2.X2.*%
%ADD38R,1.X1.5*%
%ADD55R,1.5X1.*%
%ADD28R,1.2X1.5*%
%ADD54R,2.5X1.2*%
%ADD46R,1.6X1.2*%
%ADD40R,.2X.3*%
%ADD17R,1.5X1.2*%
%ADD39R,.3X.2*%
%AMMACRO52*
21,1,.2,.6,0.0,0.0,45.*%
%ADD52MACRO52*%
%ADD35R,.5X.3*%
%ADD20R,.3X.5*%
%ADD42R,.5X.5*%
%ADD48R,.4X.6*%
%ADD44R,1.8X1.6*%
%ADD43R,.5X.5*%
%ADD33R,.7X.3*%
%ADD16C,2.*%
%ADD15R,.5X.6*%
%ADD47R,.8X.4*%
%ADD22C,1.2*%
%ADD18R,.6X.5*%
%ADD12R,.4X.8*%
%ADD31R,.4X.8*%
%ADD24R,.5X.8*%
%ADD14R,.8X.4*%
%ADD23R,.8X.5*%
%ADD11C,1.7*%
%ADD10C,3.8*%
%ADD56C,.1*%
%ADD57C,.2*%
%ADD58C,.22*%
%ADD59C,.5*%
%ADD60C,.15*%
%ADD61C,.25*%
%ADD62C,.16*%
%ADD63C,.26*%
%ADD64C,.45*%
%ADD65C,.36*%
%ADD66C,.127*%
%ADD67C,.28*%
%ADD68C,.38*%
G75*
%LPD*%
G75*
G36*
G01X141600Y-2964800D02*
X161600D01*
G02X171600Y-2974800I0J-10000D01*
G01Y-3324100D01*
G02X161600Y-3334100I-10000J0D01*
G01X141600D01*
G02X131600Y-3324100I0J10000D01*
G01Y-2974800D01*
G02X141600Y-2964800I10000J0D01*
G37*
G36*
G01X124800Y-1947600D02*
Y-2054400D01*
G03X139800Y-2069400I15000J0D01*
G01X479800D01*
G03X494800Y-2054400I0J15000D01*
G01Y-1947600D01*
G03X479800Y-1932600I-15000J0D01*
G01X139800D01*
G03X124800Y-1947600I0J-15000D01*
G37*
G36*
G01X134500Y-2169400D02*
X484700D01*
G02X494700Y-2179400I0J-10000D01*
G01Y-2199400D01*
G02X484700Y-2209400I-10000J0D01*
G01X134500D01*
G02X124500Y-2199400I0J10000D01*
G01Y-2179400D01*
G02X134500Y-2169400I10000J0D01*
G37*
G36*
G01X135600Y-1792600D02*
X485800D01*
G02X495800Y-1802600I0J-10000D01*
G01Y-1822600D01*
G02X485800Y-1832600I-10000J0D01*
G01X135600D01*
G02X125600Y-1822600I0J10000D01*
G01Y-1802600D01*
G02X135600Y-1792600I10000J0D01*
G37*
G36*
G01X281600Y-2964900D02*
X301600D01*
G02X311600Y-2974900I0J-10000D01*
G01Y-3323100D01*
G02X301600Y-3333100I-10000J0D01*
G01X281600D01*
G02X271600Y-3323100I0J10000D01*
G01Y-2974900D01*
G02X281600Y-2964900I10000J0D01*
G37*
G36*
G01X1056400Y-4758000D02*
X1104400D01*
G02X1124400Y-4778000I0J-20000D01*
G01Y-4843400D01*
G02X1104400Y-4863400I-20000J0D01*
G01X1017100D01*
G03X997100Y-4883400I0J-20000D01*
G01Y-5160900D01*
X996700D01*
Y-5189300D01*
G02X976700Y-5209300I-20000J0D01*
G01X659700D01*
G02X639700Y-5189300I0J20000D01*
G01Y-5076400D01*
X689700D01*
Y-5155000D01*
G03X709700Y-5175000I20000J0D01*
G01X818900D01*
G03X838900Y-5155000I0J20000D01*
G01Y-5075400D01*
X904000D01*
G03X924000Y-5055400I0J20000D01*
G01Y-4811300D01*
X1016400D01*
G03X1036400Y-4791300I0J20000D01*
G01Y-4778000D01*
G02X1056400Y-4758000I20000J0D01*
G37*
G36*
G01X780300Y-3885500D02*
X937300D01*
G03X957300Y-3865500I0J20000D01*
G01Y-3753500D01*
G03X937300Y-3733500I-20000J0D01*
G01X780300D01*
G03X760300Y-3753500I0J-20000D01*
G01Y-3865500D01*
G03X780300Y-3885500I20000J0D01*
G37*
G36*
G01X709400Y-3581600D02*
X1061100D01*
G02X1071100Y-3591600I0J-10000D01*
G01Y-3611600D01*
G02X1061100Y-3621600I-10000J0D01*
G01X709400D01*
G02X699400Y-3611600I0J10000D01*
G01Y-3591600D01*
G02X709400Y-3581600I10000J0D01*
G37*
G36*
G01X708800Y-3441600D02*
X1061400D01*
G02X1071400Y-3451600I0J-10000D01*
G01Y-3471600D01*
G02X1061400Y-3481600I-10000J0D01*
G01X708800D01*
G02X698800Y-3471600I0J10000D01*
G01Y-3451600D01*
G02X708800Y-3441600I10000J0D01*
G37*
G36*
G01X731900Y-1947600D02*
Y-2054400D01*
G03X746900Y-2069400I15000J0D01*
G01X1086400D01*
G03X1101400Y-2054400I0J15000D01*
G01Y-1947600D01*
G03X1086400Y-1932600I-15000J0D01*
G01X746900D01*
G03X731900Y-1947600I0J-15000D01*
G37*
G36*
G01X741300Y-2169400D02*
X1091100D01*
G02X1101100Y-2179400I0J-10000D01*
G01Y-2199400D01*
G02X1091100Y-2209400I-10000J0D01*
G01X741300D01*
G02X731300Y-2199400I0J10000D01*
G01Y-2179400D01*
G02X741300Y-2169400I10000J0D01*
G37*
G36*
G01X731500Y-1807600D02*
Y-1817600D01*
G03X746500Y-1832600I15000J0D01*
G01X1086700D01*
G03X1101700Y-1817600I0J15000D01*
G01Y-1807600D01*
G03X1086700Y-1792600I-15000J0D01*
G01X746500D01*
G03X731500Y-1807600I0J-15000D01*
G37*
G36*
G01X908300Y-4312400D02*
X1183900D01*
G02X1283900Y-4412400I0J-100000D01*
G01Y-4541000D01*
G02X1183900Y-4641000I-100000J0D01*
G01X1144400D01*
G03X1124400Y-4661000I0J-20000D01*
G01Y-4712000D01*
G02X1114400Y-4722000I-10000J0D01*
G01X1046400D01*
G02X1036400Y-4712000I0J10000D01*
G01Y-4691300D01*
G03X1016400Y-4671300I-20000J0D01*
G01X924000D01*
Y-4606740D01*
G03X921070Y-4599670I-10000J-2D01*
G01X920470Y-4599070D01*
G03X906330Y-4593200I-14151J-14123D01*
G01X841670D01*
G03X827530Y-4599070I11J-19993D01*
G01X826930Y-4599670D01*
G03X824000Y-4606740I7070J-7072D01*
G01Y-4671300D01*
X794000D01*
Y-4607480D01*
G02X799860Y-4593340I20001J-5D01*
G01X839940Y-4553260D01*
G02X854080Y-4547400I14144J-14139D01*
G01X858300D01*
G03X908300Y-4497400I0J50000D01*
G01Y-4312400D01*
G37*
G36*
G01X1958100Y-4303300D02*
Y-4243300D01*
X1810500D01*
X1765860Y-4287940D01*
G02X1751720Y-4293800I-14144J14140D01*
G01X1573980D01*
G02X1559840Y-4287940I5J20002D01*
G01X1515200Y-4243300D01*
X1395300D01*
X1370100D01*
Y-4303300D01*
X1506920D01*
G02X1521060Y-4309160I-5J-20001D01*
G01X1556060Y-4344160D01*
G03X1591410Y-4358800I35351J35362D01*
G01X1734290D01*
G03X1769640Y-4344160I-2J50003D01*
G01X1804640Y-4309160D01*
G02X1818780Y-4303300I14145J-14141D01*
G01X1958100D01*
G37*
G36*
G01X1176600Y-2955800D02*
X1196600D01*
G02X1206600Y-2965800I0J-10000D01*
G01Y-3332800D01*
G02X1196600Y-3342800I-10000J0D01*
G01X1176600D01*
G02X1166600Y-3332800I0J10000D01*
G01Y-2965800D01*
G02X1176600Y-2955800I10000J0D01*
G37*
G36*
G01X1316600Y-2955900D02*
X1336600D01*
G02X1346600Y-2965900I0J-10000D01*
G01Y-3332900D01*
G02X1336600Y-3342900I-10000J0D01*
G01X1316600D01*
G02X1306600Y-3332900I0J10000D01*
G01Y-2965900D01*
G02X1316600Y-2955900I10000J0D01*
G37*
G36*
G01X1144700Y-1946600D02*
Y-2053700D01*
G03X1159700Y-2068700I15000J0D01*
G01X1496900D01*
G03X1511900Y-2053700I0J15000D01*
G01Y-1946600D01*
G03X1496900Y-1931600I-15000J0D01*
G01X1159700D01*
G03X1144700Y-1946600I0J-15000D01*
G37*
G36*
G01X1153400Y-2168700D02*
X1501900D01*
G02X1511900Y-2178700I0J-10000D01*
G01Y-2198700D01*
G02X1501900Y-2208700I-10000J0D01*
G01X1153400D01*
G02X1143400Y-2198700I0J10000D01*
G01Y-2178700D01*
G02X1153400Y-2168700I10000J0D01*
G37*
G36*
G01X1144900Y-1806600D02*
Y-1817600D01*
G03X1159900Y-1832600I15000J0D01*
G01X1498100D01*
G03X1513100Y-1817600I0J15000D01*
G01Y-1806600D01*
G03X1498100Y-1791600I-15000J0D01*
G01X1159900D01*
G03X1144900Y-1806600I0J-15000D01*
G37*
G36*
G01X1692700Y-5876000D02*
X1772700D01*
Y-5942520D01*
G02X1766840Y-5956660I-20002J5D01*
G01X1715960Y-6007540D01*
G03X1710100Y-6021680I14143J-14145D01*
G01Y-6063400D01*
X1650100D01*
Y-5976890D01*
G02X1655960Y-5962740I19998J7D01*
G01X1686840Y-5931860D01*
G03X1692700Y-5917720I-14142J14145D01*
G01Y-5876000D01*
G37*
G36*
G01X1450100Y-5013600D02*
X1510600D01*
Y-5713700D01*
X1510800Y-5713900D01*
X1610400Y-5813500D01*
Y-5863500D01*
X1550400D01*
Y-5811980D01*
G03X1544540Y-5797840I-20001J-5D01*
G01X1516460Y-5769760D01*
G03X1502320Y-5763900I-14144J-14140D01*
G01X1450100D01*
Y-5013600D01*
G37*
G36*
G01X1601000Y-4910900D02*
X1707100D01*
Y-4970900D01*
X1646700D01*
G03X1626700Y-4990900I0J-20000D01*
G01Y-5094320D01*
G03X1632560Y-5108460I20005J6D01*
G01X1646000Y-5121900D01*
Y-5201900D01*
X1591000D01*
G02X1581000Y-5191900I0J10000D01*
G01Y-4930900D01*
G02X1601000Y-4910900I20000J0D01*
G37*
G36*
G01X1746770Y-4395200D02*
X1789100D01*
Y-4476300D01*
G02X1786600Y-4478800I-2500J0D01*
G01X1540400D01*
G02X1537900Y-4476300I0J2500D01*
G01Y-4395200D01*
X1583020D01*
G02X1597160Y-4401060I-5J-20003D01*
G01X1624170Y-4428070D01*
G03X1625940Y-4428800I1766J1770D01*
G01X1703860D01*
G03X1705630Y-4428070I4J2500D01*
G01X1732640Y-4401060D01*
G02X1746770Y-4395200I14140J-14130D01*
G37*
G36*
G01X1695400Y-3581900D02*
X2057600D01*
G02X2067600Y-3591900I0J-10000D01*
G01Y-3611900D01*
G02X2057600Y-3621900I-10000J0D01*
G01X1695400D01*
G02X1685400Y-3611900I0J10000D01*
G01Y-3591900D01*
G02X1695400Y-3581900I10000J0D01*
G37*
G36*
G01Y-3441900D02*
X2057600D01*
G02X2067600Y-3451900I0J-10000D01*
G01Y-3471900D01*
G02X2057600Y-3481900I-10000J0D01*
G01X1695400D01*
G02X1685400Y-3471900I0J10000D01*
G01Y-3451900D01*
G02X1695400Y-3441900I10000J0D01*
G37*
G36*
G01X1751700Y-1946600D02*
Y-2054800D01*
G03X1766700Y-2069800I15000J0D01*
G01X2108300D01*
G03X2123300Y-2054800I0J15000D01*
G01Y-1946600D01*
G03X2108300Y-1931600I-15000J0D01*
G01X1766700D01*
G03X1751700Y-1946600I0J-15000D01*
G37*
G36*
G01X1762600Y-2169800D02*
X2113300D01*
G02X2123300Y-2179800I0J-10000D01*
G01Y-2199800D01*
G02X2113300Y-2209800I-10000J0D01*
G01X1762600D01*
G02X1752600Y-2199800I0J10000D01*
G01Y-2179800D01*
G02X1762600Y-2169800I10000J0D01*
G37*
G36*
G01X1753000Y-1806600D02*
Y-1817600D01*
G03X1768000Y-1832600I15000J0D01*
G01X2109300D01*
G03X2124300Y-1817600I0J15000D01*
G01Y-1806600D01*
G03X2109300Y-1791600I-15000J0D01*
G01X1768000D01*
G03X1753000Y-1806600I0J-15000D01*
G37*
G36*
G01X2031000Y-7040300D02*
Y-7540300D01*
X2531000D01*
Y-7040300D01*
X2031000D01*
G37*
G36*
G01X2793900Y-4243300D02*
X2960600D01*
X2977950Y-4260650D01*
G03X3013300Y-4275300I35359J35346D01*
G01X3093400D01*
Y-4322700D01*
G02X3043400Y-4372700I-50000J0D01*
G01X2926000D01*
G03X2916000Y-4382700I0J-10000D01*
G01Y-4443700D01*
G02X2906000Y-4453700I-10000J0D01*
G01X2858000D01*
G02X2848000Y-4443700I0J10000D01*
G01Y-4399400D01*
G03X2838000Y-4389400I-10000J0D01*
G01X2723600D01*
Y-4334800D01*
G03X2703600Y-4314800I-20000J0D01*
G01X2643600D01*
G03X2623600Y-4334800I0J-20000D01*
G01Y-4389400D01*
X2303200D01*
G02X2253200Y-4339400I0J50000D01*
G01Y-4275300D01*
X2312510D01*
G03X2347850Y-4260650I-15J49985D01*
G01X2350560Y-4257940D01*
G02X2385910Y-4243300I35353J-35366D01*
G01X2552600D01*
Y-4247500D01*
G03X2572600Y-4267500I20000J0D01*
G01X2773900D01*
G03X2793900Y-4247500I0J20000D01*
G01Y-4243300D01*
G37*
G36*
G01X2203800Y-2962400D02*
X2223800D01*
G02X2233800Y-2972400I0J-10000D01*
G01Y-3320100D01*
G02X2223800Y-3330100I-10000J0D01*
G01X2203800D01*
G02X2193800Y-3320100I0J10000D01*
G01Y-2972400D01*
G02X2203800Y-2962400I10000J0D01*
G37*
G36*
G01X2173800Y-1947600D02*
Y-2054800D01*
G03X2188800Y-2069800I15000J0D01*
G01X2528400D01*
G03X2543400Y-2054800I0J15000D01*
G01Y-1947600D01*
G03X2528400Y-1932600I-15000J0D01*
G01X2188800D01*
G03X2173800Y-1947600I0J-15000D01*
G37*
G36*
G01X2183700Y-2169800D02*
X2533400D01*
G02X2543400Y-2179800I0J-10000D01*
G01Y-2199800D01*
G02X2533400Y-2209800I-10000J0D01*
G01X2183700D01*
G02X2173700Y-2199800I0J10000D01*
G01Y-2179800D01*
G02X2183700Y-2169800I10000J0D01*
G37*
G36*
G01X2175100Y-1807600D02*
Y-1817600D01*
G03X2190100Y-1832600I15000J0D01*
G01X2526800D01*
G03X2541800Y-1817600I0J15000D01*
G01Y-1807600D01*
G03X2526800Y-1792600I-15000J0D01*
G01X2190100D01*
G03X2175100Y-1807600I0J-15000D01*
G37*
G36*
G01X2857000Y-4489700D02*
X3037190D01*
G02X3072540Y-4504340I-3J-50005D01*
G01X3097800Y-4529600D01*
X3137800D01*
Y-4609600D01*
X3078400D01*
G03X3043060Y-4624240I14J-50008D01*
G01X3042100Y-4625200D01*
X2962100D01*
Y-4595200D01*
G03X2942100Y-4575200I-20000J0D01*
G01X2818800D01*
G03X2798800Y-4595200I0J-20000D01*
G01Y-4702020D01*
G02X2792940Y-4716160I-20001J5D01*
G01X2708400Y-4800700D01*
Y-4832620D01*
G02X2702540Y-4846760I-20003J6D01*
G01X2664500Y-4884800D01*
Y-4924800D01*
X2584500D01*
Y-4884800D01*
X2544480D01*
G02X2530340Y-4878940I5J20002D01*
G01X2462700Y-4811300D01*
Y-4751300D01*
X2512700D01*
Y-4811300D01*
X2538240Y-4836840D01*
G03X2552380Y-4842700I14145J14143D01*
G01X2617720D01*
G03X2631860Y-4836840I-5J20003D01*
G01X2658400Y-4810300D01*
Y-4750300D01*
X2710120D01*
G03X2724260Y-4744440I-4J20000D01*
G01X2742940Y-4725760D01*
G03X2748800Y-4711620I-14141J14145D01*
G01Y-4612890D01*
G03X2742940Y-4598740I-19999J6D01*
G01X2723600Y-4579400D01*
Y-4529400D01*
X2809020D01*
G03X2823160Y-4523540I-5J20002D01*
G01X2857000Y-4489700D01*
G37*
G36*
G01X2593600Y-4579400D02*
X2623600D01*
Y-4511700D01*
G02X2643600Y-4491700I20000J0D01*
G01X2741300D01*
Y-4426700D01*
X2603600D01*
G03X2593600Y-4436700I0J-10000D01*
G01Y-4579400D01*
G37*
G36*
G01X2343800Y-2962000D02*
X2363800D01*
G02X2373800Y-2972000I0J-10000D01*
G01Y-3319700D01*
G02X2363800Y-3329700I-10000J0D01*
G01X2343800D01*
G02X2333800Y-3319700I0J10000D01*
G01Y-2972000D01*
G02X2343800Y-2962000I10000J0D01*
G37*
G36*
G01X2792800Y-7454600D02*
Y-7599000D01*
X2852800D01*
Y-7454600D01*
X2792800D01*
G37*
G36*
G01X2914700Y-5963400D02*
Y-5898280D01*
G02X2920560Y-5884140I20002J-5D01*
G01X2950000Y-5854700D01*
Y-5804700D01*
X2870000D01*
Y-5854700D01*
X2860560Y-5864140D01*
G03X2854700Y-5878280I14141J-14145D01*
G01Y-5963400D01*
X2914700D01*
G37*
G36*
G01X3137800Y-4665500D02*
X3092510D01*
G03X3057160Y-4680140I3J-50005D01*
G01X3042100Y-4695200D01*
X2962100D01*
X2956460Y-4700840D01*
G02X2942320Y-4706700I-14147J14146D01*
G01X2857000D01*
Y-4740300D01*
X2838000Y-4759300D01*
X2809800Y-4787500D01*
X2799800Y-4797500D01*
X2799700D01*
X2792500Y-4804700D01*
X2788700Y-4808500D01*
X2756600D01*
Y-4868500D01*
X2818090D01*
G03X2853450Y-4853850I1J49996D01*
G01X2932460Y-4774840D01*
G02X2967810Y-4760200I35352J-35363D01*
G01X3062380D01*
G03X3097750Y-4745550I15J49985D01*
G01X3097800Y-4745500D01*
X3137800D01*
Y-4665500D01*
G37*
G36*
G01X2847200Y-5065100D02*
X2927200D01*
Y-5023380D01*
G02X2933060Y-5009240I20003J-5D01*
G01X2972840Y-4969460D01*
G02X2986980Y-4963600I14145J-14142D01*
G01X3013800D01*
Y-4913600D01*
X2952840D01*
G03X2945770Y-4916530I2J-10001D01*
G01X2847200Y-5015100D01*
Y-5065100D01*
G37*
G36*
G01X3094500Y-3611900D02*
Y-3591900D01*
G03X3084500Y-3581900I-10000J0D01*
G01X2733800D01*
G03X2723800Y-3591900I0J-10000D01*
G01Y-3611900D01*
G03X2733800Y-3621900I10000J0D01*
G01X3084500D01*
G03X3094500Y-3611900I0J10000D01*
G37*
G36*
G01X3094700Y-3471900D02*
Y-3451900D01*
G03X3084700Y-3441900I-10000J0D01*
G01X2734000D01*
G03X2724000Y-3451900I0J-10000D01*
G01Y-3471900D01*
G03X2734000Y-3481900I10000J0D01*
G01X3084700D01*
G03X3094700Y-3471900I0J10000D01*
G37*
G36*
G01X2780800Y-1947600D02*
Y-2054800D01*
G03X2795800Y-2069800I15000J0D01*
G01X3135200D01*
G03X3150200Y-2054800I0J15000D01*
G01Y-1947600D01*
G03X3135200Y-1932600I-15000J0D01*
G01X2795800D01*
G03X2780800Y-1947600I0J-15000D01*
G37*
G36*
G01X2791500Y-2169800D02*
X3140100D01*
G02X3150100Y-2179800I0J-10000D01*
G01Y-2199800D01*
G02X3140100Y-2209800I-10000J0D01*
G01X2791500D01*
G02X2781500Y-2199800I0J10000D01*
G01Y-2179800D01*
G02X2791500Y-2169800I10000J0D01*
G37*
G36*
G01X2780700Y-1807600D02*
Y-1817600D01*
G03X2795700Y-1832600I15000J0D01*
G01X3134800D01*
G03X3149800Y-1817600I0J15000D01*
G01Y-1807600D01*
G03X3134800Y-1792600I-15000J0D01*
G01X2795700D01*
G03X2780700Y-1807600I0J-15000D01*
G37*
G36*
G01X3152900Y-4243300D02*
X3299600D01*
X3351460Y-4295160D01*
G03X3386810Y-4309800I35351J35360D01*
G01X3527990D01*
G03X3563340Y-4295160I-1J50002D01*
G01X3583200Y-4275300D01*
X3663200D01*
Y-4315300D01*
X3583200D01*
X3553350Y-4345150D01*
G02X3517980Y-4359800I-35359J35345D01*
G01X3376810D01*
G02X3341450Y-4345150I0J49997D01*
G01X3314250Y-4317950D01*
G03X3278890Y-4303300I-35360J-35348D01*
G01X3152900D01*
Y-4243300D01*
G37*
G36*
G01X3200700Y-3590300D02*
Y-3610300D01*
G03X3210700Y-3620300I10000J0D01*
G01X3562400D01*
G03X3572400Y-3610300I0J10000D01*
G01Y-3590300D01*
G03X3562400Y-3580300I-10000J0D01*
G01X3210700D01*
G03X3200700Y-3590300I0J-10000D01*
G37*
G36*
G01X3222900Y-2964500D02*
X3242900D01*
G02X3252900Y-2974500I0J-10000D01*
G01Y-3324400D01*
G02X3242900Y-3334400I-10000J0D01*
G01X3222900D01*
G02X3212900Y-3324400I0J10000D01*
G01Y-2974500D01*
G02X3222900Y-2964500I10000J0D01*
G37*
G36*
G01X3202900Y-3450300D02*
Y-3470300D01*
G03X3212900Y-3480300I10000J0D01*
G01X3564600D01*
G03X3574600Y-3470300I0J10000D01*
G01Y-3450300D01*
G03X3564600Y-3440300I-10000J0D01*
G01X3212900D01*
G03X3202900Y-3450300I0J-10000D01*
G37*
G36*
G01X3211500Y-1932100D02*
X3550400D01*
G02X3565400Y-1947100I0J-15000D01*
G01Y-2054800D01*
G02X3550400Y-2069800I-15000J0D01*
G01X3211500D01*
G02X3196500Y-2054800I0J15000D01*
G01Y-1947100D01*
G02X3211500Y-1932100I15000J0D01*
G37*
G36*
G01X3206200Y-2169800D02*
X3555800D01*
G02X3565800Y-2179800I0J-10000D01*
G01Y-2199800D01*
G02X3555800Y-2209800I-10000J0D01*
G01X3206200D01*
G02X3196200Y-2199800I0J10000D01*
G01Y-2179800D01*
G02X3206200Y-2169800I10000J0D01*
G37*
G36*
G01X3194900Y-1807100D02*
Y-1817100D01*
G03X3209900Y-1832100I15000J0D01*
G01X3551500D01*
G03X3566500Y-1817100I0J15000D01*
G01Y-1807100D01*
G03X3551500Y-1792100I-15000J0D01*
G01X3209900D01*
G03X3194900Y-1807100I0J-15000D01*
G37*
G36*
G01X3572100Y-4479800D02*
G03X3574100Y-4477800I0J2000D01*
G01Y-4395200D01*
X3534100D01*
X3514150Y-4415150D01*
G02X3478780Y-4429800I-35358J35343D01*
G01X3396120D01*
G02X3360750Y-4415150I-12J49993D01*
G01X3340800Y-4395200D01*
X3300800D01*
Y-4477800D01*
G03X3302800Y-4479800I2000J0D01*
G01X3572100D01*
G37*
G36*
G01X3362900Y-2963100D02*
X3382900D01*
G02X3392900Y-2973100I0J-10000D01*
G01Y-3323000D01*
G02X3382900Y-3333000I-10000J0D01*
G01X3362900D01*
G02X3352900Y-3323000I0J10000D01*
G01Y-2973100D01*
G02X3362900Y-2963100I10000J0D01*
G37*
G36*
G01X4055300Y-1795500D02*
X4159300D01*
G02X4174300Y-1810500I0J-15000D01*
G01Y-2054000D01*
G02X4159300Y-2069000I-15000J0D01*
G01X3774500D01*
G02X3759500Y-2054000I0J15000D01*
G01Y-1996500D01*
G03X3744500Y-1981500I-15000J0D01*
G01X3714000D01*
G02X3699000Y-1966500I0J15000D01*
G01Y-1947700D01*
G02X3714000Y-1932700I15000J0D01*
G01X3990300D01*
G03X4040300Y-1882700I0J50000D01*
G01Y-1810500D01*
G02X4055300Y-1795500I15000J0D01*
G37*
G36*
G01X3770100Y-2169000D02*
X4127800D01*
G02X4137800Y-2179000I0J-10000D01*
G01Y-2199000D01*
G02X4127800Y-2209000I-10000J0D01*
G01X3770100D01*
G02X3760100Y-2199000I0J10000D01*
G01Y-2179000D01*
G02X3770100Y-2169000I10000J0D01*
G37*
G36*
G01X3714400Y-1792700D02*
X3927400D01*
G02X3942400Y-1807700I0J-15000D01*
G01Y-1818100D01*
G02X3927400Y-1833100I-15000J0D01*
G01X3714400D01*
G02X3699400Y-1818100I0J15000D01*
G01Y-1807700D01*
G02X3714400Y-1792700I15000J0D01*
G37*
G36*
G01X5008900Y-7588300D02*
Y-7818300D01*
X5108900D01*
Y-7588300D01*
X5008900D01*
G37*
G36*
G01X4839800D02*
Y-7818300D01*
X4939800D01*
Y-7588300D01*
X4839800D01*
G37*
G36*
G01X5073500Y-5964800D02*
Y-6064800D01*
X5303500D01*
Y-5964800D01*
X5073500D01*
G37*
G36*
G01Y-5790200D02*
Y-5890200D01*
X5303500D01*
Y-5790200D01*
X5073500D01*
G37*
G36*
G01X5037000Y-1193400D02*
X5439700D01*
G02X5449700Y-1203400I0J-10000D01*
G01Y-1268900D01*
G02X5429700Y-1288900I-20000J0D01*
G01X5427200D01*
G03X5397200Y-1318900I0J-30000D01*
G01Y-1359800D01*
X5353000D01*
X5336790D01*
G03X5322640Y-1365660I-7J-19997D01*
G01X5303460Y-1384840D01*
G03X5297600Y-1398980I14141J-14145D01*
G01Y-1420620D01*
G03X5303460Y-1434760I20000J4D01*
G01X5322640Y-1453940D01*
G03X5336780Y-1459800I14146J14145D01*
G01X5397200D01*
Y-1500900D01*
G02X5367200Y-1530900I-30000J0D01*
G01X5037000D01*
G02X4987000Y-1480900I0J50000D01*
G01Y-1243400D01*
G02X5037000Y-1193400I50000J0D01*
G37*
G36*
G01X5374500Y-878700D02*
X5563300D01*
G02X5613300Y-928700I0J-50000D01*
G01Y-1032100D01*
G03X5623300Y-1042100I10000J0D01*
G01X5843200D01*
G02X5853200Y-1052100I0J-10000D01*
G01Y-1083400D01*
G02X5843200Y-1093400I-10000J0D01*
G01X5637000D01*
G03X5617000Y-1113400I0J-20000D01*
G01Y-1118200D01*
G02X5597000Y-1138200I-20000J0D01*
G01X5340100D01*
G02X5320100Y-1118200I0J20000D01*
G01Y-1113400D01*
G03X5300100Y-1093400I-20000J0D01*
G01X5093300D01*
G02X5083300Y-1083400I0J10000D01*
G01Y-1052100D01*
G02X5093300Y-1042100I10000J0D01*
G01X5314500D01*
G03X5324500Y-1032100I0J10000D01*
G01Y-928700D01*
G02X5374500Y-878700I50000J0D01*
G37*
G36*
G01X5343400Y-280400D02*
Y-309900D01*
X5296760Y-356540D01*
G03X5290900Y-370680I14141J-14145D01*
G01Y-413700D01*
X5213400D01*
G03X5208400Y-418700I0J-5000D01*
G01Y-508700D01*
G03X5213400Y-513700I5000J0D01*
G01X5290900D01*
Y-543700D01*
X5213400D01*
G03X5208400Y-548700I0J-5000D01*
G01Y-576000D01*
G02X5148400Y-636000I-60000J0D01*
G01X4968100D01*
G02X4868100Y-536000I0J100000D01*
G01Y-369000D01*
G02X4968100Y-269000I100000J0D01*
G01X5240400D01*
X5241500D01*
X5274300D01*
X5283400Y-259900D01*
X5343400D01*
Y-274400D01*
Y-280400D01*
G37*
G36*
G01X5348900Y-7588300D02*
Y-7818300D01*
X5448900D01*
Y-7588300D01*
X5348900D01*
G37*
G36*
G01X5457900Y-4416300D02*
X5497900D01*
Y-4483590D01*
G03X5512550Y-4518950I49997J0D01*
G01X5587500Y-4593900D01*
X5637500D01*
Y-4673900D01*
X5567510D01*
G03X5532150Y-4688550I-1J-49995D01*
G01X5489900Y-4730800D01*
Y-4860800D01*
X5239900D01*
Y-4730800D01*
X5375900D01*
G03X5425900Y-4680800I0J50000D01*
G01Y-4627800D01*
X5443250Y-4610450D01*
G03X5457900Y-4575080I-35346J35359D01*
G01Y-4416300D01*
G37*
G36*
G01X5760400Y-297000D02*
Y-418700D01*
G03X5780400Y-438700I20000J0D01*
G01X5786700D01*
G02X5806700Y-458700I0J-20000D01*
G01Y-591500D01*
G02X5756700Y-641500I-50000J0D01*
G01X5690800D01*
G02X5680800Y-631500I0J10000D01*
G01Y-583900D01*
G02X5690800Y-573900I10000J0D01*
G01X5745800D01*
G03X5765800Y-553900I0J20000D01*
G01Y-484000D01*
G03X5745800Y-464000I-20000J0D01*
G01X5699800D01*
G02X5679800Y-444000I0J20000D01*
G01Y-380900D01*
G03X5659800Y-360900I-20000J0D01*
G01X5560280D01*
G03X5546140Y-366760I5J-20001D01*
G01X5505060Y-407840D01*
G02X5490930Y-413700I-14141J14131D01*
G01X5430900D01*
Y-369680D01*
G03X5425040Y-355540I-20003J-5D01*
G01X5379400Y-309900D01*
Y-259900D01*
X5439400D01*
X5470640Y-291140D01*
G03X5484780Y-297000I14144J14139D01*
G01X5760400D01*
G37*
G36*
G01X5694000Y-7588300D02*
Y-7818300D01*
X5794000D01*
Y-7588300D01*
X5694000D01*
G37*
G36*
G01X5520900D02*
Y-7818300D01*
X5620900D01*
Y-7588300D01*
X5520900D01*
G37*
G36*
G01X5793200Y-4755700D02*
X5923200D01*
Y-4813000D01*
G03X5973200Y-4863000I50000J0D01*
G01X6170000D01*
Y-4923000D01*
X5973200D01*
G03X5923200Y-4973000I0J-50000D01*
G01Y-5005700D01*
X5793200D01*
X5756540Y-5042360D01*
G03X5741900Y-5077710I35363J-35352D01*
G01Y-5181300D01*
X5701900D01*
Y-5057710D01*
G02X5716540Y-5022360I50001J-1D01*
G01X5793200Y-4945700D01*
Y-4755700D01*
G37*
G36*
G01X5537200Y-1459800D02*
Y-1520300D01*
G03X5547200Y-1530300I10000J0D01*
G01X5595500D01*
G03X5605500Y-1520300I0J10000D01*
G01Y-1469800D01*
G03X5595500Y-1459800I-10000J0D01*
G01X5537200D01*
G37*
G36*
G01X5495700Y-1193400D02*
X5838000D01*
X5885400Y-1240800D01*
X5898600Y-1254000D01*
Y-1487100D01*
X5885400Y-1500300D01*
X5848700Y-1537000D01*
X5787700D01*
G02X5777700Y-1527000I0J10000D01*
G01Y-1479000D01*
G02X5787700Y-1469000I10000J0D01*
G01X5838600D01*
X5860500Y-1447100D01*
Y-1360700D01*
X5849600Y-1349800D01*
X5839600Y-1339800D01*
X5786000D01*
X5785700D01*
X5776700Y-1330800D01*
Y-1330500D01*
Y-1296400D01*
Y-1261800D01*
Y-1258500D01*
X5770300Y-1252100D01*
X5635500D01*
X5625600Y-1262000D01*
Y-1283200D01*
Y-1339600D01*
X5605400Y-1359800D01*
X5537200D01*
Y-1318900D01*
G03X5517200Y-1298900I-20000J0D01*
G01X5505700D01*
G02X5485700Y-1278900I0J20000D01*
G01Y-1203400D01*
G02X5495700Y-1193400I10000J0D01*
G37*
G36*
G01X5430900Y-513700D02*
Y-574200D01*
G03X5440900Y-584200I10000J0D01*
G01X5489200D01*
G03X5499200Y-574200I0J10000D01*
G01Y-523700D01*
G03X5489200Y-513700I-10000J0D01*
G01X5430900D01*
G37*
G36*
G01X5813300Y-5689000D02*
Y-5789000D01*
X6043300D01*
Y-5689000D01*
X5813300D01*
G37*
G36*
G01Y-5439000D02*
Y-5539000D01*
X6043300D01*
Y-5439000D01*
X5813300D01*
G37*
G36*
G01X6008300Y-1280800D02*
Y-1429520D01*
G02X6002450Y-1443650I-20011J9D01*
G01X6001900Y-1444200D01*
Y-1474200D01*
X6032520D01*
G03X6046660Y-1468340I-6J20004D01*
G01X6062440Y-1452560D01*
G03X6068300Y-1438420I-14145J14146D01*
G01Y-1330800D01*
Y-1280800D01*
X6008300D01*
G37*
G36*
G01X6037500Y-7589300D02*
Y-7819300D01*
X6137500D01*
Y-7589300D01*
X6037500D01*
G37*
G36*
G01X6212300Y-7588300D02*
Y-7818300D01*
X6312300D01*
Y-7588300D01*
X6212300D01*
G37*
G36*
G01X6626500Y-4808800D02*
Y-4768800D01*
X6146300D01*
Y-4808800D01*
X6626500D01*
G37*
G36*
G01X6226300Y-4668800D02*
Y-4628800D01*
X6212960Y-4615460D01*
G02X6207100Y-4601320I14141J14145D01*
G01Y-4399700D01*
X6179400D01*
X6167100D01*
Y-4599710D01*
G02X6161240Y-4613860I-19998J-7D01*
G01X6146300Y-4628800D01*
Y-4668800D01*
X6226300D01*
G37*
G36*
G01X6386200Y-2245400D02*
X6596900D01*
Y-2427800D01*
X6614100Y-2445000D01*
X6686900D01*
X6707000Y-2424900D01*
Y-2395000D01*
X6917000D01*
Y-2445000D01*
X6876500Y-2485500D01*
X6745500D01*
X6664000Y-2567000D01*
Y-2767500D01*
G02X6644000Y-2787500I-20000J0D01*
G01X6439600D01*
G02X6419600Y-2767500I0J20000D01*
G01Y-2611900D01*
Y-2611700D01*
X6359900Y-2552000D01*
X6359700D01*
X6294900D01*
Y-2502000D01*
X6359900D01*
X6419600Y-2442300D01*
Y-2369400D01*
X6368300Y-2318100D01*
X6225500D01*
Y-2268100D01*
X6275500D01*
X6299200Y-2291800D01*
X6358100D01*
X6386200Y-2263700D01*
Y-2245400D01*
G37*
G36*
G01X6667000Y-1688500D02*
X6237000D01*
Y-1714000D01*
X6240200Y-1717200D01*
Y-1768300D01*
Y-2034900D01*
X6311500D01*
X6317100Y-2029300D01*
X6347100D01*
Y-2009300D01*
X6264600D01*
X6260200Y-2004900D01*
Y-1715300D01*
X6267000Y-1708500D01*
X6667000D01*
Y-1688500D01*
G37*
G36*
G01Y-1533300D02*
X6237000D01*
Y-1553300D01*
X6667000D01*
Y-1533300D01*
G37*
G36*
G01X6385900Y-7588300D02*
X6485900D01*
Y-7818300D01*
X6385900D01*
Y-7588300D01*
G37*
G36*
G01X6561200D02*
Y-7818300D01*
X6661200D01*
Y-7588300D01*
X6561200D01*
G37*
G36*
G01X6407100Y-4399700D02*
X6379200D01*
X6367100D01*
Y-4600420D01*
G02X6361240Y-4614560I-19999J4D01*
G01X6347000Y-4628800D01*
Y-4668800D01*
X6427000D01*
Y-4628800D01*
X6412960Y-4614760D01*
G02X6407100Y-4600610I14139J14144D01*
G01Y-4399700D01*
G37*
G36*
G01X6607100D02*
X6579900D01*
X6567100D01*
Y-4599910D01*
G02X6561240Y-4614060I-19998J-6D01*
G01X6546500Y-4628800D01*
Y-4668800D01*
X6626500D01*
Y-4628800D01*
X6612960Y-4615260D01*
G02X6607100Y-4601120I14140J14144D01*
G01Y-4399700D01*
G37*
G36*
G01X6636900Y-2170900D02*
X6699800D01*
X6757000Y-2228100D01*
Y-2355000D01*
X6688000D01*
X6679700Y-2346700D01*
X6636900D01*
Y-2326700D01*
X6685300D01*
X6707000Y-2305000D01*
Y-2222200D01*
X6675700Y-2190900D01*
X6636900D01*
Y-2170900D01*
G37*
G36*
G01X6641500Y-1844900D02*
X6661500D01*
Y-1951720D01*
G03X6667360Y-1965860I20001J5D01*
G01X6703240Y-2001740D01*
G03X6717390Y-2007600I14143J14138D01*
G01X6749100D01*
Y-2087600D01*
X6709100D01*
Y-2080280D01*
G03X6703240Y-2066140I-20000J-4D01*
G01X6672260Y-2035160D01*
G03X6658120Y-2029300I-14144J-14140D01*
G01X6556900D01*
Y-2009300D01*
X6621500D01*
G03X6641500Y-1989300I0J20000D01*
G01Y-1844900D01*
G37*
G36*
G01X6400200Y-1764900D02*
X6502400D01*
Y-1786620D01*
G03X6508260Y-1800760I20002J5D01*
G01X6524840Y-1817340D01*
G02X6530700Y-1831490I-14130J-14140D01*
G01Y-1888210D01*
G02X6524840Y-1902360I-19997J-7D01*
G01X6508260Y-1918940D01*
G03X6502400Y-1933080I14142J-14145D01*
G01Y-1954800D01*
X6400200D01*
Y-1924800D01*
X6422610D01*
G03X6436760Y-1918940I6J19998D01*
G01X6464840Y-1890860D01*
G03X6470700Y-1876720I-14143J14146D01*
G01Y-1843280D01*
G03X6464840Y-1829140I-20000J-4D01*
G01X6436460Y-1800760D01*
G03X6422320Y-1794900I-14146J-14143D01*
G01X6400200D01*
Y-1764900D01*
G37*
G36*
G01X6736400Y-7588300D02*
Y-7818300D01*
X6836400D01*
Y-7588300D01*
X6736400D01*
G37*
G36*
G01X6912800D02*
Y-7818300D01*
X7012800D01*
Y-7588300D01*
X6912800D01*
G37*
G36*
G01X6833800Y-3705500D02*
Y-3644790D01*
G02X6839660Y-3630640I19997J7D01*
G01X6849040Y-3621260D01*
G02X6863180Y-3615400I14144J-14139D01*
G01X6954210D01*
G02X6968360Y-3621260I8J-19995D01*
G01X6977640Y-3630540D01*
G02X6983500Y-3644680I-14145J-14146D01*
G01Y-3705500D01*
X7043500D01*
Y-3641880D01*
G03X7037640Y-3627740I-20001J-5D01*
G01X6993160Y-3583260D01*
G03X6979010Y-3577400I-14143J-14137D01*
G01X6823490D01*
G03X6809340Y-3583260I-7J-19997D01*
G01X6779560Y-3613040D01*
G03X6773700Y-3627190I14137J-14143D01*
G01Y-3655400D01*
X6773800Y-3655500D01*
Y-3705500D01*
X6833800D01*
G37*
G36*
G01X6917000Y-2355000D02*
Y-2305000D01*
X6855900D01*
X6825600Y-2274700D01*
Y-2164700D01*
X6805600D01*
Y-2293600D01*
X6867000Y-2355000D01*
X6917000D01*
G37*
G36*
G01X7128800Y-7588300D02*
X7156700D01*
X7187500D01*
Y-7818300D01*
X7087500D01*
Y-7588300D01*
X7087800D01*
X7128800D01*
G37*
G36*
G01X7436900D02*
Y-7818300D01*
X7536900D01*
Y-7588300D01*
X7436900D01*
G37*
G36*
G01X7262800D02*
Y-7818300D01*
X7362800D01*
Y-7588300D01*
X7262800D01*
G37*
G36*
G01X7318000Y-5645000D02*
Y-5715000D01*
X7958000D01*
Y-5645000D01*
X7318000D01*
G37*
G36*
G01X7789300Y-7588300D02*
Y-7818300D01*
X7889300D01*
Y-7588300D01*
X7789300D01*
G37*
G36*
G01X7614000D02*
Y-7818300D01*
X7714000D01*
Y-7588300D01*
X7614000D01*
G37*
G36*
G01X7728000Y-2864500D02*
X7578000D01*
Y-2925200D01*
X7728000D01*
Y-2864500D01*
G37*
G36*
G01X7963600Y-7588300D02*
Y-7818300D01*
X8063600D01*
Y-7588300D01*
X7963600D01*
G37*
G54D10*
X300000Y-7700000D03*
Y-4300000D03*
Y-3700000D03*
Y-300000D03*
X4000000Y-7700000D03*
Y-4300000D03*
Y-3700000D03*
Y-300000D03*
X4600000Y-7700000D03*
Y-4300000D03*
Y-3700000D03*
Y-300000D03*
X8300000Y-7700000D03*
Y-4300000D03*
Y-3700000D03*
Y-300000D03*
G54D11*
X245500Y-4827800D03*
G54D20*
X809000Y-4836300D03*
X874000D03*
X939000D03*
X809000Y-4646300D03*
X874000D03*
X939000D03*
X2608600Y-4554400D03*
Y-4364400D03*
X2673600Y-4554400D03*
X2738600D03*
X2673600Y-4364400D03*
X2738600D03*
G54D12*
X151600Y-3277000D03*
Y-3020400D03*
Y-3148200D03*
X291600Y-3277000D03*
Y-3020400D03*
Y-3148200D03*
X788300Y-4486300D03*
Y-4352400D03*
X1031100Y-7563100D03*
Y-7791300D03*
X954400Y-5097600D03*
X1094400D03*
X954400Y-4968000D03*
X1094400D03*
X928300Y-4486300D03*
Y-4352400D03*
X932600Y-832700D03*
X1072600D03*
X932600Y-963700D03*
X1072600D03*
X932600Y-702800D03*
X1072600D03*
X1171100Y-7563100D03*
Y-7791300D03*
X1417900Y-4435200D03*
X1326600Y-3286900D03*
X1186600D03*
X1326600Y-3147900D03*
X1186600D03*
X1326600Y-3011000D03*
X1186600D03*
X1557900Y-4435200D03*
X1769100D03*
X1909100D03*
X1957500Y-832700D03*
Y-963700D03*
Y-702800D03*
X2343400Y-5538600D03*
X2082600D03*
X2222600D03*
X2082600Y-5337300D03*
X2222600D03*
X2343400D03*
X2213200Y-3656100D03*
X2213800Y-3272900D03*
Y-3145300D03*
Y-3017300D03*
X2097500Y-832700D03*
Y-963700D03*
Y-702800D03*
X2483400Y-5538600D03*
Y-5337300D03*
X2353200Y-3656100D03*
X2353800Y-3272900D03*
Y-3145300D03*
Y-3017300D03*
X3180800Y-4435200D03*
X3117800Y-4705500D03*
X3257800D03*
X3117800Y-4569600D03*
X3257800D03*
X3232900Y-3277200D03*
Y-3146900D03*
Y-3019500D03*
X2986500Y-963700D03*
X3126500D03*
X2986500Y-832700D03*
X3126500D03*
X2986500Y-702800D03*
X3126500D03*
X3320800Y-4435200D03*
X3554100D03*
X3372900Y-3277200D03*
Y-3146900D03*
Y-3019500D03*
X3739600Y-5756100D03*
X3879600D03*
X3878600Y-5620900D03*
X3738600D03*
X3694100Y-4435200D03*
X4496500Y-2645300D03*
X4497500Y-2387400D03*
Y-2258800D03*
X4496500Y-2515800D03*
X4636500Y-2645300D03*
X4637500Y-2387400D03*
Y-2258800D03*
X4636500Y-2515800D03*
X4844700Y-2887400D03*
X4984700D03*
X4844700Y-2759600D03*
X4984700D03*
X5337900Y-4456300D03*
X5721900Y-5141300D03*
X5581900D03*
X5477900Y-4456300D03*
X5777600Y-2364100D03*
X5917600D03*
X6869100Y-2047600D03*
X6729100D03*
X7480000Y-6650000D03*
Y-6520000D03*
Y-6390000D03*
Y-6260000D03*
X7620000Y-6650000D03*
Y-6520000D03*
Y-6390000D03*
Y-6260000D03*
G54D21*
G01X764300Y-5010400D02*
X820200D01*
X821200Y-5009400D01*
X863900D01*
G01X1580400Y-5934100D02*
Y-5838500D01*
G01X1936000Y-4276200D02*
X1933100Y-4273300D01*
G01X1936000Y-4276200D02*
X1975400D01*
X1994500Y-4295300D01*
X2051300D01*
G01X3010500Y-6522200D02*
X2965200Y-6476900D01*
X2618600D01*
G01X2585400Y-4685300D02*
X2682400D01*
X2683400Y-4684300D01*
G01X3088700Y-6103500D02*
X3023900Y-6038700D01*
X2680400D01*
G01X2673600Y-4554400D02*
Y-4616800D01*
X2683400Y-4626600D01*
Y-4684300D01*
G01X3010500Y-6618200D02*
Y-6522200D01*
G01X3088700Y-6103500D02*
Y-6284300D01*
X3143000Y-6338600D01*
X3184000D01*
G01Y-6138600D02*
X3123800D01*
X3088700Y-6103500D01*
G01X4493500Y-5964300D02*
X4591100D01*
G01X4475900Y-5130300D02*
X4769900D01*
X4858700Y-5219100D01*
X5033200D01*
G01X4940800Y-4174500D02*
Y-4418500D01*
X4648800Y-4710500D01*
X4474500D01*
G01X4689800Y-5964300D02*
X4786900D01*
G01X5013500Y-6258000D02*
Y-6303000D01*
X5074100Y-6363600D01*
X5147400D01*
G01X4882600Y-5965000D02*
X4932400D01*
X4932900Y-5965500D01*
X4975600D01*
G01X5108500Y-5840200D02*
X5052800D01*
X5052030Y-5839430D01*
X4968860D01*
G01X5136600Y-4732000D02*
X5078700D01*
X5077700Y-4731000D01*
X5035000D01*
G01X5129300Y-5604000D02*
Y-5700300D01*
G01Y-5410900D02*
Y-5508400D01*
G01X5129200Y-5219100D02*
Y-5270540D01*
X5129300Y-5270640D01*
Y-5314700D01*
G01X5700000Y-7230000D02*
Y-7317700D01*
X5608800Y-7408900D01*
Y-7504400D01*
G01X5510000Y-7230000D02*
Y-7317700D01*
X5436000Y-7391700D01*
Y-7504400D01*
G01X5587100Y-5703500D02*
Y-5798600D01*
G01Y-5507700D02*
Y-5409500D01*
G01X5611500Y-4343900D02*
Y-4411600D01*
X5674700Y-4474800D01*
X5740400D01*
X5802500Y-4536900D01*
Y-4633900D01*
G01X5710700Y-1305800D02*
Y-1361700D01*
X5711700Y-1362700D01*
Y-1405400D01*
G01X5562200Y-1409800D02*
X5649600D01*
X5654000Y-1405400D01*
X5711700D01*
G01X5614800Y-511500D02*
Y-459900D01*
X5613800Y-458900D01*
Y-416200D01*
G01X5614800Y-511500D02*
X5557100D01*
X5509300Y-463700D01*
X5455900D01*
G01X6186300Y-4788800D02*
X6090400D01*
X5935500Y-4633900D01*
X5802500D01*
G01X6046200Y-7504400D02*
Y-7391500D01*
X6120000Y-7317700D01*
Y-7230000D01*
G01X6310000D02*
Y-7317700D01*
X6217200Y-7410500D01*
Y-7504400D01*
G01X6274200Y-5689400D02*
X6348700D01*
X6349600Y-5690300D01*
G01X6274200Y-5438800D02*
X6275700Y-5440300D01*
X6353500D01*
G01X6227000Y-5125000D02*
X6228800Y-5126800D01*
Y-5225400D01*
G01X6395600Y-7504400D02*
Y-7432100D01*
X6510000Y-7317700D01*
Y-7230000D01*
G01X6700000D02*
Y-7297500D01*
X6571500Y-7426000D01*
Y-7504400D01*
G01X6650000Y-300000D02*
X6690400Y-340400D01*
Y-343700D01*
G01X7120000Y-7230000D02*
Y-7317700D01*
X7092800Y-7344900D01*
Y-7504400D01*
G01X7310000Y-7230000D02*
Y-7317700D01*
X7273400Y-7354300D01*
Y-7504400D01*
G01X7080000Y-4660000D02*
X7220000D01*
G01X7375000Y-4729000D02*
X7314600D01*
X7296000Y-4710400D01*
Y-4678300D01*
X7277700Y-4660000D01*
X7220000D01*
G01X7034600Y-3422200D02*
Y-3370400D01*
X7035200Y-3369800D01*
Y-3327100D01*
G01X7186600Y-488200D02*
Y-551100D01*
X7188800Y-553300D01*
Y-591000D01*
G01X7311000Y-488200D02*
Y-553100D01*
X7311200Y-553300D01*
Y-591000D01*
G01X7435300Y-488200D02*
Y-551000D01*
X7433000Y-553300D01*
Y-591000D01*
G01X7720000Y-5215000D02*
X7831000D01*
G01Y-5365000D02*
X7720000D01*
G01X7870000Y-4660000D02*
X8010000D01*
G01X7806200Y-488200D02*
Y-590200D01*
G01X7682900Y-488200D02*
Y-550000D01*
X7686200Y-553300D01*
Y-591000D01*
G01X7928500Y-488200D02*
Y-550800D01*
X7926800Y-552500D01*
Y-590200D01*
X849600Y-4755100D03*
X902300Y-4755700D03*
X809000Y-4836300D03*
X826000Y-4727800D03*
X923700Y-4726400D03*
X873800Y-4727700D03*
X1045800Y-1812600D03*
X1281500Y-6438400D03*
X1377500D03*
X1384800Y-6238900D03*
X1383800Y-6138800D03*
X1582200Y-6336100D03*
X1682100D03*
X1480800Y-6238900D03*
X1479800Y-6138800D03*
X1584100Y-6038400D03*
X1582200Y-6240100D03*
X1680100Y-6038400D03*
X1480600Y-5738900D03*
X1580400Y-5838500D03*
X1480600Y-5538800D03*
Y-5438600D03*
X1480100Y-5238600D03*
Y-5038600D03*
X1682100Y-5036900D03*
Y-4940900D03*
X1580000Y-4639000D03*
X1480200Y-4738500D03*
X1795900Y-7492700D03*
X1781800Y-6335100D03*
X1982200D03*
X1781800Y-6239100D03*
X1982200D03*
X1882100Y-6136400D03*
Y-6040400D03*
X1980000Y-5938800D03*
X1884300Y-5739300D03*
X1884000Y-5938800D03*
X1980300Y-5739300D03*
X1884300Y-5638500D03*
Y-5538900D03*
Y-5438900D03*
X1980300Y-5538900D03*
Y-5638500D03*
Y-5438900D03*
X1884300Y-5338800D03*
Y-5238800D03*
Y-5138700D03*
X1741000Y-5161900D03*
X1980300Y-5138700D03*
Y-5238800D03*
Y-5338800D03*
X1984300Y-4938400D03*
X1782100Y-4936300D03*
X1881400D03*
X1884300Y-5039300D03*
X1782100Y-4840300D03*
X1881400D03*
X1980300Y-5039300D03*
X1785800Y-4639000D03*
X1981900Y-4741600D03*
X2082000Y-6335100D03*
X2182200Y-6136500D03*
X2082000Y-6239100D03*
X2182200Y-6040500D03*
X2282100Y-5836400D03*
X2182400D03*
X2082300D03*
X2282100Y-5740400D03*
X2182400D03*
X2082300D03*
X2222600Y-5538600D03*
X2082600D03*
X2222600Y-5337300D03*
X2082600D03*
X2082300Y-5136300D03*
X2280400Y-5038900D03*
X2082300Y-5040300D03*
X2184400Y-5038900D03*
X2284200Y-4939100D03*
X2283200Y-4838400D03*
X2080300Y-4938400D03*
X2182100Y-4536600D03*
X2082100Y-4737000D03*
Y-4641000D03*
X2182100Y-4440400D03*
X2588400Y-7736200D03*
X2481600Y-6335100D03*
X2582200D03*
X2481600Y-6239100D03*
X2582200D03*
X2584400Y-6038700D03*
X2482300Y-5836400D03*
X2381900D03*
X2585400Y-5938400D03*
X2482300Y-5740400D03*
X2381900D03*
X2343400Y-5538600D03*
X2483400D03*
X2584000Y-5438600D03*
Y-5538600D03*
X2584200Y-5638500D03*
X2487300Y-5138600D03*
X2343400Y-5337300D03*
X2483400D03*
X2584000Y-5238600D03*
Y-5338600D03*
X2380200Y-4939100D03*
X2585400Y-4781300D03*
X2390300Y-5039100D03*
X2380200Y-4738700D03*
X2625800Y-4445700D03*
X2612200Y-4486400D03*
X2608600Y-4554400D03*
X2487700Y-4685300D03*
X2781900Y-6335100D03*
Y-6239100D03*
X2883700Y-6138400D03*
X2680400Y-6038700D03*
X2779600Y-5738700D03*
X2681400Y-5938400D03*
X2683600Y-5738700D03*
X2884700Y-5938400D03*
X2680000Y-5438600D03*
Y-5538600D03*
X2680200Y-5638500D03*
X2680000Y-5238600D03*
Y-5338600D03*
X2781600Y-4934500D03*
Y-4838500D03*
X2673800Y-4459200D03*
X2722800Y-4472900D03*
X2882000Y-4640700D03*
Y-4736700D03*
X2673600Y-4364400D03*
X3010500Y-6618200D03*
X2979700Y-6138400D03*
X2980700Y-5938400D03*
X3084200Y-5638700D03*
Y-5438700D03*
X3180200Y-5638700D03*
Y-5438700D03*
X3184300Y-5238900D03*
X3084200Y-5338800D03*
X3180200D03*
X3084000Y-4838600D03*
X3084200Y-5039000D03*
X3180000Y-4838600D03*
X3180200Y-5039000D03*
X3079800Y-4938600D03*
X2983800D03*
X3257800Y-4705500D03*
Y-4569600D03*
X3544600Y-6884500D03*
Y-6684500D03*
Y-6784500D03*
Y-6634500D03*
Y-6734500D03*
Y-6834500D03*
Y-6534500D03*
X3425600Y-6501800D03*
X3544600Y-6334500D03*
Y-6384500D03*
Y-6234500D03*
Y-6284500D03*
X3282300Y-5936800D03*
Y-5840800D03*
X3280300Y-5238900D03*
X3554100Y-4435200D03*
X3320800D03*
X3739600Y-5756100D03*
X3638100D03*
X3738600Y-5620900D03*
X3637100D03*
X3761600Y-5181400D03*
X3637100D03*
X3613500Y-4989300D03*
X4558500Y-6258000D03*
X4883500D03*
X4818500D03*
X4948500D03*
X4968860Y-5839430D03*
X5272400Y-5574600D03*
Y-5624600D03*
X5372200Y-1409800D03*
X5377200Y-515100D03*
X5265900Y-463700D03*
X5344600Y-412400D03*
X5422400Y-5310900D03*
X5719700Y-3352300D03*
X5605000Y-2556600D03*
X5580600Y-1505500D03*
X5562200Y-1474800D03*
Y-1344800D03*
X5474200Y-559400D03*
X5455900Y-528700D03*
X6008300Y-5739000D03*
X5815700Y-3352300D03*
X6013100Y-2406600D03*
X6013150Y-2178850D03*
X6020600Y-2099800D03*
X5860200Y-2260400D03*
Y-2179700D03*
X5930200D03*
Y-2260400D03*
X5932800Y-1842500D03*
X5793400Y-1779000D03*
X5996400Y-1699900D03*
X6011900Y-1459200D03*
X5941900D03*
X6020600Y-1619400D03*
X5969500Y-900400D03*
X5890400Y-819800D03*
X5969500Y-970400D03*
X5960400Y-819800D03*
X5889700Y-740000D03*
X5933800Y-468500D03*
X5889700Y-670000D03*
X6003800Y-468500D03*
X5889500Y-341400D03*
Y-411400D03*
X6270000Y-6004700D03*
X6172000Y-2179500D03*
X6331800D03*
X6250200Y-2099600D03*
X6090600Y-2099800D03*
X6180200Y-2099600D03*
X6331800Y-2249500D03*
X6332100Y-2089300D03*
X6180200Y-2019900D03*
X6172000Y-2249500D03*
X6250200Y-2019900D03*
X6332100Y-2019300D03*
X6092800Y-1940800D03*
X6180200Y-1939900D03*
Y-1859100D03*
Y-1783300D03*
X6340200Y-1939800D03*
Y-1779900D03*
X6092800Y-1844800D03*
X6252000Y-1698500D03*
X6332000D03*
X6250200Y-1783300D03*
Y-1859100D03*
X6252100Y-1543300D03*
X6332000D03*
Y-1473300D03*
X6252000D03*
X6332000Y-1628500D03*
X6252000D03*
X6131800Y-1532000D03*
Y-1462000D03*
X6090600Y-1619400D03*
X6326200Y-1061900D03*
X6338500Y-815700D03*
X6240100Y-915000D03*
X6049800Y-825500D03*
X6170100Y-915000D03*
X6049800Y-895500D03*
X6242500Y-815700D03*
X6330500Y-433900D03*
X6049900Y-259900D03*
X6210000D03*
Y-329900D03*
X6049900D03*
X6328400Y-162900D03*
X6260500Y-433900D03*
X6651900Y-2406700D03*
X6411200Y-2180400D03*
X6412200Y-2100600D03*
X6571900Y-2019300D03*
X6651400D03*
X6571900Y-2180400D03*
X6492200Y-2100600D03*
X6651900Y-2250900D03*
X6651400Y-2089300D03*
X6571900D03*
X6492200Y-2030600D03*
X6412200D03*
X6651900Y-2180900D03*
X6651500Y-1940000D03*
Y-1859900D03*
X6492400Y-1779900D03*
Y-1939800D03*
X6410200Y-1779900D03*
Y-1939800D03*
X6500700Y-1860000D03*
X6562400Y-1779900D03*
Y-1939800D03*
X6412000Y-1698500D03*
X6492100D03*
X6572200D03*
X6652000D03*
X6652200Y-1380900D03*
X6652000Y-1543300D03*
X6572200D03*
X6412000D03*
X6652000Y-1473300D03*
X6572200D03*
X6492100D03*
X6412000D03*
X6652000Y-1628500D03*
X6572200D03*
X6492100D03*
X6412000D03*
X6482200Y-1380200D03*
X6509600Y-1062900D03*
X6447900Y-1061900D03*
X6652200Y-1310900D03*
X6387400Y-1062900D03*
Y-992900D03*
X6492500Y-468500D03*
X6449800Y-740800D03*
X6530300Y-659700D03*
X6562500Y-468500D03*
X6530300Y-589700D03*
X6449800Y-670800D03*
X6608400Y-343700D03*
X6398400Y-162900D03*
X6449300D03*
X6608400Y-413700D03*
X6640200Y-162900D03*
X6519300D03*
X6570200D03*
X6913400Y-2798900D03*
X6816000Y-2589700D03*
X6912600D03*
X6892000Y-2420000D03*
X6732000D03*
X6815600Y-2179700D03*
X6885600Y-2259700D03*
Y-2179700D03*
X6811800Y-1940100D03*
X6817500Y-1819400D03*
X6721500Y-1940000D03*
Y-1859900D03*
X6736600Y-1739400D03*
X6807300Y-1498300D03*
X6889300Y-1420100D03*
X6819300D03*
X6732000Y-1549700D03*
Y-1619700D03*
X6759900Y-1065000D03*
X6812100Y-1301500D03*
X6769800Y-815100D03*
X6889000Y-919200D03*
X6819000D03*
X6769800Y-745100D03*
X6700600Y-994000D03*
X6809700Y-162900D03*
X6770200Y-343600D03*
X6690400Y-343700D03*
X6760000Y-260100D03*
X6770100Y-413700D03*
X6690400D03*
X6739700Y-162900D03*
X6690000Y-260100D03*
X7008700Y-2589700D03*
X7103900D03*
X7196900D03*
X7174700Y-1720000D03*
Y-1820000D03*
X7077000Y-1420000D03*
Y-1620000D03*
Y-1320000D03*
Y-1120000D03*
Y-1220000D03*
Y-1020000D03*
X7122100Y-899800D03*
X7129900Y-837300D03*
X7026500Y-903800D03*
X7024600Y-834600D03*
X7080000Y-870000D03*
X7188800Y-591000D03*
X7050000Y-562500D03*
X7188800Y-671000D03*
X7050000Y-632500D03*
X7009900Y-259900D03*
X7079900D03*
X7575900Y-2520100D03*
X7386300Y-2520500D03*
X7558100Y-621200D03*
X7311200Y-671000D03*
X7433000D03*
X7558100Y-701200D03*
X7311200Y-591000D03*
X7433000D03*
X7886660Y-7049400D03*
X7600000Y-7125000D03*
X7815950Y-6978690D03*
X7851310Y-7014050D03*
X7745240Y-6907980D03*
X7753020Y-6792720D03*
X7703000Y-2798500D03*
X7863200Y-2806000D03*
X7766600Y-2520300D03*
X7671500Y-2521200D03*
X7863200Y-2520500D03*
X7806200Y-670200D03*
X7686200Y-671000D03*
Y-591000D03*
X8073340Y-6650600D03*
X8037980Y-6615240D03*
X8108690Y-6685950D03*
X8179400Y-6756660D03*
X8144050Y-6721310D03*
X8015100Y-3212300D03*
X8141300D03*
X7960800Y-2806000D03*
X8153600D03*
X8152400Y-2589700D03*
X7926800Y-670200D03*
X8249800Y-2806000D03*
X8345000Y-2805000D03*
X8440300Y-2589700D03*
X8249800Y-2588700D03*
G54D30*
X4805200Y-3135700D03*
X5108500Y-6014800D03*
Y-5840200D03*
X4965200Y-3135700D03*
X5268500Y-6014800D03*
Y-5840200D03*
X5750000Y-3113500D03*
X5848300Y-5739000D03*
X6008300D03*
X5848300Y-5489000D03*
X6008300D03*
X5910000Y-3113500D03*
G54D31*
X4772500Y-1842300D03*
X4772600Y-1721800D03*
X4773800Y-1599900D03*
X4772800Y-1422500D03*
X4766800Y-1032200D03*
X4772800Y-1297400D03*
X4766800Y-910900D03*
X4847500Y-7504400D03*
X4927500D03*
X5021900D03*
X5101900D03*
X4852500Y-1842300D03*
X4852600Y-1721800D03*
X4853800Y-1599900D03*
X4852800Y-1422500D03*
X4846800Y-1032200D03*
X4852800Y-1297400D03*
X4846800Y-910900D03*
X5356000Y-7504400D03*
X5436000D03*
X5608800D03*
X5528800D03*
X5704900D03*
X5502000Y-6652000D03*
X5567000D03*
X5632000D03*
X5697000D03*
X5502000Y-6252000D03*
X5567000D03*
X5632000D03*
X5697000D03*
X5784900Y-7504400D03*
X6046200D03*
X6126200D03*
X6217200D03*
X6297200D03*
X6122000Y-6652000D03*
X6187000D03*
X6252000D03*
X6317000D03*
X6122000Y-6252000D03*
X6187000D03*
X6252000D03*
X6317000D03*
X6395600Y-7504400D03*
X6475600D03*
X6571500D03*
X6651500D03*
X6512000Y-6652000D03*
X6577000D03*
X6642000D03*
X6512000Y-6252000D03*
X6577000D03*
X6642000D03*
X6748100Y-7504400D03*
X6828100D03*
X6707000Y-6652000D03*
Y-6252000D03*
X7092800Y-7504400D03*
X7172800D03*
X7273400D03*
X7121600Y-6652000D03*
X7186600D03*
X7251600D03*
X7121600Y-6252000D03*
X7186600D03*
X7251600D03*
X7353400Y-7504400D03*
X7316600Y-6652000D03*
Y-6252000D03*
G54D22*
X1197700Y-6853900D03*
X2612000Y-6681200D03*
X2613200Y-6847600D03*
X2618600Y-6476900D03*
X3288900Y-7449500D03*
X3548300Y-7049600D03*
X3543700Y-6033900D03*
X3870500Y-6271900D03*
X4031700Y-7033600D03*
X3932100Y-6645800D03*
X4036500Y-6812600D03*
X4089900Y-6337300D03*
X4065500Y-6508300D03*
X4018700Y-6156600D03*
G54D40*
X5860200Y-2260400D03*
X5930200D03*
X6020600Y-2099800D03*
X5860200Y-2179700D03*
X5930200D03*
X5941900Y-1459200D03*
X6011900D03*
X6020600Y-1619400D03*
X5960400Y-819800D03*
X5890400D03*
X5933800Y-468500D03*
X6003800D03*
X6180200Y-2099600D03*
X6250200D03*
X6090600Y-2099800D03*
X6180200Y-2019900D03*
X6250200D03*
X6180200Y-1783300D03*
X6250200D03*
X6340200Y-1779900D03*
Y-1939800D03*
X6180200Y-1859100D03*
X6250200D03*
X6180200Y-1939900D03*
X6250200D03*
X6090600Y-1619400D03*
X6170100Y-915000D03*
X6240100D03*
X6260500Y-433900D03*
X6330500D03*
X6328400Y-162900D03*
X6410200Y-1779900D03*
X6562400Y-1939800D03*
X6492400D03*
X6562400Y-1779900D03*
X6492400D03*
X6410200Y-1939800D03*
X6651500Y-1859900D03*
Y-1940000D03*
X6492500Y-468500D03*
X6562500D03*
X6398400Y-162900D03*
X6570200D03*
X6640200D03*
X6519300D03*
X6449300D03*
X6885600Y-2179700D03*
X6815600D03*
X6885600Y-2259700D03*
X6815600D03*
X6721500Y-1859900D03*
Y-1940000D03*
X6806600Y-1739400D03*
X6736600D03*
X6887500Y-1819400D03*
X6817500D03*
X6881800Y-1940100D03*
X6811800D03*
X6819300Y-1420100D03*
X6889300D03*
X6819000Y-919200D03*
X6889000D03*
X6739700Y-162900D03*
X6809700D03*
X6760000Y-260100D03*
X6690000D03*
X7079900Y-259900D03*
X7009900D03*
G54D13*
G01X1149100Y-7676500D02*
X1221900D01*
G01X1171100Y-7563100D02*
Y-7611500D01*
X1149100Y-7633500D01*
Y-7676500D01*
G01X1171100Y-7791300D02*
Y-7739100D01*
X1149100Y-7717100D01*
Y-7676500D01*
G01X5398900Y-7623300D02*
Y-7600560D01*
G01D02*
X5436000Y-7563460D01*
Y-7504400D01*
G01X6046200D02*
Y-7554400D01*
X6087500Y-7595700D01*
G01D02*
Y-7624300D01*
G01X6217200Y-7504400D02*
Y-7551700D01*
X6262300Y-7596800D01*
G01D02*
Y-7623300D01*
G01X6395600Y-7504400D02*
Y-7549600D01*
X6435900Y-7589900D01*
G01D02*
Y-7623300D01*
G01X6571500Y-7504400D02*
Y-7550200D01*
X6611200Y-7589900D01*
G01D02*
Y-7623300D01*
G01X7137500Y-7602410D02*
X7092800Y-7557710D01*
Y-7504400D01*
G01X7137500Y-7623300D02*
Y-7602410D01*
G01X7273400Y-7504400D02*
Y-7560200D01*
X7312800Y-7599600D01*
G01D02*
Y-7623300D01*
X151600Y-3277000D03*
X150900Y-3484700D03*
X151600Y-3148200D03*
Y-3020400D03*
X180300Y-2049400D03*
Y-2189400D03*
Y-1952600D03*
Y-1812600D03*
X164900Y-1285400D03*
X164200Y-538500D03*
X205600Y-6999500D03*
Y-7095500D03*
X331300D03*
Y-6999500D03*
X291600Y-3277000D03*
Y-3020400D03*
Y-3148200D03*
X309400Y-2049400D03*
X439200D03*
X309400Y-2189400D03*
X439200D03*
Y-1952600D03*
X309400D03*
X439200Y-1812600D03*
X309400D03*
X240200Y-1370500D03*
X444200Y-1018000D03*
X444300Y-948000D03*
X444200Y-878300D03*
X482500Y-982600D03*
X482000Y-914800D03*
X482100Y-845000D03*
X481800Y-776000D03*
X444400Y-809000D03*
X445100Y-738900D03*
X482100Y-706300D03*
X444400Y-673800D03*
X250100Y-562500D03*
X349100Y-565000D03*
X451800Y-552500D03*
X713400Y-7096500D03*
X585900D03*
X713400Y-7000500D03*
X585900D03*
X764300Y-5106400D03*
X664700D03*
Y-5010400D03*
X788300Y-4486300D03*
X574100Y-4632100D03*
X788300Y-4352400D03*
X528800Y-3845800D03*
X568500Y-3771900D03*
X575500Y-3690500D03*
X555500Y-3613700D03*
X755200Y-3601600D03*
Y-3461600D03*
X739200Y-3325000D03*
X661400D03*
X739100Y-3255100D03*
X661500Y-3255000D03*
X699700Y-3289600D03*
X699200Y-3221800D03*
X739000Y-3185100D03*
X661400Y-3185300D03*
X699300Y-3152000D03*
X699000Y-3083000D03*
X699300Y-3013300D03*
X739200Y-3115900D03*
X661600Y-3116000D03*
X739100Y-3046100D03*
X662300Y-3045900D03*
X739600Y-2979100D03*
X661600Y-2980800D03*
X786800Y-2049400D03*
Y-2189400D03*
Y-1952600D03*
Y-1812600D03*
X522000Y-1018000D03*
X521900Y-948100D03*
X521800Y-878100D03*
X522000Y-808900D03*
X521900Y-739100D03*
X725100Y-534900D03*
X522400Y-672100D03*
X525300Y-489000D03*
X557900Y-400900D03*
X539500Y-172100D03*
X562500Y-242700D03*
X564300Y-314700D03*
X725000Y-394400D03*
X1031100Y-7791300D03*
Y-7563100D03*
X1053100Y-7676500D03*
X966400Y-7000500D03*
Y-7096500D03*
X1082900Y-6978500D03*
X1094400Y-5097600D03*
X954400D03*
X863900Y-5105400D03*
X1094400Y-4968000D03*
X1080400Y-4788000D03*
X954400Y-4968000D03*
X939000Y-4836300D03*
X874000Y-4646300D03*
X928300Y-4486300D03*
X1107400Y-4467700D03*
X1038100Y-4468000D03*
X1107600Y-4527900D03*
X859300Y-4175500D03*
X811200Y-4142500D03*
X906700Y-4143300D03*
X811100Y-4208100D03*
X903600Y-4205800D03*
X928300Y-4352400D03*
X1106400Y-4405800D03*
X859300Y-3825500D03*
X813600Y-3855900D03*
X905800Y-3858000D03*
X813600Y-3793200D03*
X905500Y-3794100D03*
X884500Y-3601600D03*
X1015900D03*
X884500Y-3461600D03*
X1015900D03*
X1063600Y-2731900D03*
X979900Y-2648000D03*
X916100Y-2049400D03*
X1045800D03*
Y-2189400D03*
X916100D03*
X1045800Y-1952600D03*
X916100D03*
Y-1812600D03*
X1072600Y-963700D03*
Y-832700D03*
X932600Y-963700D03*
Y-832700D03*
X990300Y-534400D03*
X858400D03*
X1072600Y-702800D03*
X932600D03*
X990300Y-394400D03*
X858400D03*
X1221900Y-7676500D03*
X1197700Y-6853900D03*
X1384600Y-5738900D03*
Y-5438600D03*
Y-5538800D03*
Y-5638700D03*
X1383100Y-5138300D03*
X1384100Y-5238600D03*
Y-5339100D03*
Y-5038600D03*
X1384200Y-4738500D03*
X1173700Y-4467200D03*
X1417900Y-4435200D03*
X1395100Y-4177300D03*
Y-4273300D03*
X1186600Y-3286900D03*
X1326600D03*
X1186600Y-3011000D03*
Y-3147900D03*
X1326600D03*
Y-3011000D03*
X1328800Y-2048700D03*
X1199200D03*
X1328800Y-2188700D03*
X1199200D03*
Y-1952600D03*
X1328800D03*
X1199200Y-1812600D03*
X1328800D03*
X1263100Y-1369900D03*
X1180500Y-1285200D03*
X1210000Y-524500D03*
X1287800D03*
X1361900Y-522800D03*
X1210100Y-454500D03*
X1248300Y-489100D03*
X1287700Y-454600D03*
X1362000Y-452800D03*
X1400200Y-487400D03*
X1210200Y-180300D03*
X1210900Y-245400D03*
X1210200Y-315500D03*
X1210000Y-384800D03*
X1288200Y-178600D03*
X1287700Y-245600D03*
X1287800Y-315400D03*
X1247900Y-212800D03*
X1247600Y-282500D03*
X1247900Y-351500D03*
X1247800Y-421300D03*
X1287600Y-384600D03*
X1362100Y-178600D03*
X1362800Y-243700D03*
X1362100Y-313800D03*
X1361900Y-383100D03*
X1399800Y-211100D03*
X1399500Y-280800D03*
X1399800Y-349800D03*
X1399700Y-419600D03*
X1699900Y-7492700D03*
X1484400Y-5838500D03*
Y-5934100D03*
X1480600Y-5638700D03*
X1664900Y-4453800D03*
X1689800Y-4639000D03*
X1484000D03*
X1557900Y-4435200D03*
X1490200Y-4177300D03*
X1665200Y-4175500D03*
X1616000Y-4140600D03*
X1713100Y-4142000D03*
X1618600Y-4206900D03*
X1710200Y-4207300D03*
X1490200Y-4273300D03*
X1664900Y-4333800D03*
X1665200Y-3825500D03*
X1619000Y-3857600D03*
X1710000Y-3856400D03*
X1616800Y-3792400D03*
X1710400Y-3793500D03*
X1681700Y-3317400D03*
X1681800Y-3247400D03*
X1720000Y-3282000D03*
X1719500Y-3214200D03*
X1681700Y-3177700D03*
X1719600Y-3144400D03*
X1719300Y-3075400D03*
X1719600Y-3005700D03*
X1681900Y-3108400D03*
X1682600Y-3038300D03*
X1681900Y-2973200D03*
X1456800Y-2048700D03*
Y-2188700D03*
Y-1951600D03*
Y-1811600D03*
X1469000Y-807400D03*
X1546600Y-807300D03*
X1506400Y-774400D03*
X1506700Y-843400D03*
X1506600Y-913200D03*
X1507100Y-981000D03*
X1468800Y-876700D03*
X1546400Y-876500D03*
X1468900Y-946400D03*
X1546500Y-946500D03*
X1468800Y-1016400D03*
X1546600D03*
X1469000Y-672200D03*
X1547000Y-670500D03*
X1469700Y-737300D03*
X1546500Y-737500D03*
X1506700Y-704700D03*
X1439700Y-522800D03*
X1439600Y-452900D03*
X1440100Y-176900D03*
X1439600Y-243900D03*
X1439700Y-313700D03*
X1439500Y-382900D03*
X1937100Y-7832200D03*
Y-7736200D03*
X1823900Y-7015200D03*
X1727900D03*
X1732700Y-5781000D03*
X1769100Y-4435200D03*
X1909100D03*
X1933100Y-4177300D03*
X1835500D03*
Y-4273300D03*
X1933100D03*
X2012700Y-3862500D03*
X2013100Y-3768600D03*
X1977400Y-3810700D03*
X1975200Y-3726900D03*
X1741500Y-3601900D03*
X1876700D03*
X2012400D03*
X1741500Y-3461900D03*
X1876700D03*
X2012400D03*
X1759500Y-3317400D03*
X1759400Y-3247500D03*
X1759300Y-3177500D03*
X1759500Y-3108300D03*
X1759400Y-3038500D03*
X1759900Y-2971500D03*
X1986500Y-2645500D03*
X1938500Y-2049800D03*
X1807800D03*
X1938500Y-2189800D03*
X1807800D03*
Y-1951600D03*
X1938500D03*
X1807800Y-1811600D03*
X1938500D03*
X1957500Y-963700D03*
Y-832700D03*
X1748500Y-534400D03*
X2012100D03*
X1880400D03*
X1957500Y-702800D03*
X1748500Y-394400D03*
X2012100D03*
X1880400D03*
X2222000Y-7832200D03*
X2124300D03*
Y-7736200D03*
X2222000D03*
X2281000Y-7290300D03*
X2072800Y-7499800D03*
X2281200Y-7499900D03*
X2074700Y-7290500D03*
X2121300Y-7450100D03*
X2193200Y-7259800D03*
X2196100Y-7324500D03*
X2244600Y-7382800D03*
X2320100Y-7383200D03*
X2214500Y-7461300D03*
X2090900Y-7375700D03*
X2077500Y-7086100D03*
X2282000Y-7087500D03*
X2127500Y-7137900D03*
X2245000Y-7201000D03*
X2317200Y-7202200D03*
X2091400Y-7211200D03*
X2207400Y-7129700D03*
X2333700Y-6833000D03*
Y-6737000D03*
X2236200D03*
X2129300D03*
X2082200Y-4440600D03*
X2293200Y-4155300D03*
X2051300D03*
X2293200Y-4295300D03*
X2097000Y-3862600D03*
X2213200Y-3656100D03*
X2055000Y-3810600D03*
X2052000Y-3727100D03*
X2213800Y-3272900D03*
Y-3145300D03*
Y-3017300D03*
X2080100Y-2735900D03*
X2230000Y-2049800D03*
X2067900D03*
X2230000Y-2189800D03*
X2067900D03*
X2228500Y-1952600D03*
X2067900D03*
X2228500Y-1812600D03*
X2067900D03*
X2286900Y-1370500D03*
X2213800Y-1288500D03*
X2097500Y-963700D03*
Y-832700D03*
Y-702800D03*
X2303200Y-515300D03*
X2225400D03*
X2303100Y-445400D03*
X2263700Y-479900D03*
X2225500Y-445300D03*
X2303000Y-375400D03*
X2263200Y-412100D03*
X2263300Y-342300D03*
X2263000Y-273300D03*
X2263300Y-203600D03*
X2303200Y-306200D03*
X2303100Y-236400D03*
X2303600Y-169400D03*
X2225400Y-375600D03*
X2225600Y-306300D03*
X2226300Y-236200D03*
X2225600Y-171100D03*
X2588400Y-7832200D03*
X2491300Y-7501600D03*
X2472800Y-7291100D03*
X2441300Y-7450600D03*
X2367700Y-7259800D03*
X2369000Y-7327500D03*
X2352300Y-7464600D03*
X2473800Y-7375700D03*
X2473000Y-7214500D03*
X2484500Y-7088900D03*
X2440100Y-7132600D03*
X2348600Y-7132200D03*
X2465800Y-6071900D03*
Y-5931900D03*
X2486300Y-5039100D03*
X2624500Y-5044800D03*
X2508600Y-4177300D03*
X2410900D03*
X2626900Y-4143300D03*
X2628600Y-4207800D03*
X2410900Y-4273300D03*
X2508600D03*
X2627300Y-3859100D03*
X2628100Y-3794300D03*
X2353200Y-3656100D03*
X2353800Y-3272900D03*
Y-3145300D03*
Y-3017300D03*
X2359500Y-2049800D03*
X2488800D03*
Y-2189800D03*
X2359500D03*
X2357500Y-1952600D03*
X2485900D03*
Y-1812600D03*
X2357500D03*
X2506000Y-738900D03*
X2505300Y-809000D03*
X2505100Y-878300D03*
X2505200Y-948000D03*
X2505100Y-1018000D03*
X2582800Y-739100D03*
X2582900Y-808900D03*
X2542700Y-776000D03*
X2543000Y-845000D03*
X2542900Y-914800D03*
X2543400Y-982600D03*
X2582700Y-878100D03*
X2582800Y-948100D03*
X2582900Y-1018000D03*
X2505300Y-673800D03*
X2583300Y-672100D03*
X2543000Y-706300D03*
X2455100Y-513600D03*
X2377300D03*
X2455000Y-443700D03*
X2415600Y-478200D03*
X2377400Y-443600D03*
X2454900Y-373700D03*
X2415100Y-410400D03*
X2415200Y-340600D03*
X2414900Y-271600D03*
X2415200Y-201900D03*
X2455100Y-304500D03*
X2455000Y-234700D03*
X2455500Y-167700D03*
X2377300Y-373900D03*
X2377500Y-304600D03*
X2378200Y-234500D03*
X2377500Y-169400D03*
X2822800Y-7574000D03*
X2726800D03*
X2913100Y-7313600D03*
X2726800Y-7479600D03*
X2743500Y-7056300D03*
X2743900Y-6943000D03*
X2743500Y-7152300D03*
X2883500Y-7158200D03*
Y-6618200D03*
X2743900Y-6584900D03*
X2910000Y-5709700D03*
X2887700Y-5357400D03*
X2887200Y-5160100D03*
X2887700Y-5261400D03*
X2935600Y-4177300D03*
X2837900D03*
X2674500Y-4175500D03*
X2722100Y-4142500D03*
X2719800Y-4207000D03*
X2935600Y-4273300D03*
X2837900D03*
X2882000Y-4423700D03*
X2674500Y-3825500D03*
X2721000Y-3857600D03*
X2723000Y-3792500D03*
X2899800Y-3601400D03*
X2780100Y-3601900D03*
X2909300Y-3461900D03*
X2780100D03*
X2743100Y-3221800D03*
X2743600Y-3289600D03*
X2705400Y-3255000D03*
X2783000Y-3255100D03*
X2705300Y-3325000D03*
X2783100D03*
X2705500Y-2980800D03*
X2783500Y-2979100D03*
X2706200Y-3045900D03*
X2783000Y-3046100D03*
X2705500Y-3116000D03*
X2783100Y-3115900D03*
X2743200Y-3013300D03*
X2742900Y-3083000D03*
X2743200Y-3152000D03*
X2705300Y-3185300D03*
X2782900Y-3185100D03*
X2838000Y-2049800D03*
Y-2189800D03*
X2835600Y-1952600D03*
Y-1812600D03*
X2752300Y-534400D03*
X2885600D03*
Y-394400D03*
X2752300D03*
X3192900Y-7313600D03*
X3009100D03*
X3010500Y-7158200D03*
X3137500D03*
X3264500Y-6618200D03*
X3137500D03*
X3184000Y-6238800D03*
X3002100Y-4720200D03*
X3180800Y-4435200D03*
X3053400Y-4155300D03*
X3177900Y-4177300D03*
X3178500Y-4273300D03*
X3053400Y-4295300D03*
X3124500Y-3863500D03*
X3040200Y-3863000D03*
X3040600Y-3769100D03*
X3002700Y-3727400D03*
X3079500Y-3727600D03*
X3082500Y-3811100D03*
X3004900Y-3811200D03*
X3038300Y-3601900D03*
X3258400Y-3600300D03*
X3232900Y-3277200D03*
X3258400Y-3460300D03*
X3038300Y-3461900D03*
X3232900Y-3019500D03*
Y-3146900D03*
X3100300Y-2736700D03*
X3009400Y-2649200D03*
X3252900Y-2049800D03*
X3095000D03*
X2966200D03*
X3252900Y-2189800D03*
X2966200D03*
X3095000D03*
X3251500Y-1952100D03*
X2964400Y-1952600D03*
X3093600D03*
X3251500Y-1812100D03*
X3093600Y-1812600D03*
X2964400D03*
X3233100Y-1289700D03*
X3126500Y-963700D03*
Y-832700D03*
X2986500Y-963700D03*
Y-832700D03*
X3019300Y-534400D03*
X3126500Y-702800D03*
X2986500D03*
X3019300Y-394500D03*
X3542100Y-5756100D03*
X3541100Y-5620900D03*
Y-5181400D03*
X3517500Y-4989300D03*
X3437300Y-4686100D03*
Y-4546100D03*
X3437800Y-4454800D03*
X3274600Y-4177300D03*
X3437800Y-4175500D03*
X3390600Y-4142800D03*
X3484300Y-4143300D03*
X3392900Y-4205700D03*
X3481100Y-4205500D03*
X3437800Y-4334800D03*
X3274600Y-4273300D03*
X3437800Y-3825500D03*
X3389500Y-3858200D03*
X3485000Y-3857700D03*
X3388900Y-3789800D03*
X3485200Y-3789200D03*
X3518900Y-3600300D03*
X3388900D03*
Y-3460300D03*
X3518900D03*
X3372900Y-3277200D03*
Y-3146900D03*
Y-3019500D03*
X3510500Y-2049800D03*
X3381000D03*
Y-2189800D03*
X3510500D03*
X3380600Y-1952100D03*
X3509600D03*
Y-1812100D03*
X3380600D03*
X3318500Y-1369900D03*
X3567100Y-984300D03*
X3566600Y-916500D03*
X3566700Y-846700D03*
X3566400Y-777700D03*
X3528800Y-1019700D03*
X3528900Y-949700D03*
X3528800Y-880000D03*
X3529000Y-810700D03*
X3529700Y-740600D03*
X3289800Y-534400D03*
X3557300D03*
X3423500D03*
X3289800Y-394400D03*
X3557300D03*
X3423500D03*
X3708300Y-7558500D03*
X3764500Y-7528000D03*
X3685800Y-7616100D03*
X3578100Y-7602300D03*
X3709000Y-7496100D03*
X3709600Y-7432400D03*
X3764700Y-7466600D03*
X3832800Y-7424000D03*
X3824800Y-7497500D03*
X3785900Y-7119600D03*
X3720500Y-7056600D03*
X3847400Y-7059300D03*
X3723200Y-7185400D03*
X3847200Y-7183500D03*
X3786470Y-5999600D03*
X3724700Y-6064100D03*
X3842500Y-6059900D03*
X3722000Y-5936900D03*
X3848500Y-5937100D03*
X3879600Y-5756100D03*
X3878600Y-5620900D03*
X3857600Y-5181400D03*
X3830000Y-4788600D03*
X3734000D03*
X3606000Y-4545100D03*
Y-4685100D03*
X3694100Y-4435200D03*
X3623100Y-4153400D03*
X3623200Y-4295300D03*
X3760200Y-3844000D03*
X3737600Y-3763600D03*
X3731400Y-3678000D03*
X3745100Y-3589500D03*
X3775200Y-3228200D03*
X3775700Y-3296000D03*
X3737500Y-3261400D03*
X3815100Y-3261500D03*
X3737400Y-3331400D03*
X3815200D03*
X3786900Y-3505200D03*
X3863900Y-3458600D03*
X3737600Y-2987200D03*
X3815600Y-2985500D03*
X3738300Y-3052300D03*
X3815100Y-3052500D03*
X3737600Y-3122400D03*
X3815200Y-3122300D03*
X3775300Y-3019700D03*
X3775000Y-3089400D03*
X3775300Y-3158400D03*
X3737400Y-3191700D03*
X3815000Y-3191500D03*
X3815300Y-2049000D03*
Y-2189000D03*
X3885200Y-1953100D03*
X3754500Y-1952700D03*
Y-1812700D03*
X3885200Y-1813100D03*
X3606600Y-1019700D03*
X3606500Y-949800D03*
X3606400Y-879800D03*
X3606600Y-810600D03*
X3606500Y-740800D03*
X3762100Y-459200D03*
X3838900Y-506000D03*
X3757100Y-146500D03*
X3733300Y-216200D03*
X3733400Y-298600D03*
X3733700Y-384500D03*
X4125000Y-7366200D03*
X4126800Y-7239100D03*
X4125900Y-5782500D03*
X4124100Y-5507400D03*
X4124600Y-5297000D03*
X4126000Y-5096900D03*
X4124600Y-4877700D03*
X4124500Y-4710500D03*
X3958300Y-3438600D03*
X4057600Y-3437700D03*
X4141200Y-3470900D03*
X4136100Y-2736500D03*
X4044000Y-2649200D03*
X4081900Y-2049000D03*
X3948700D03*
X4081900Y-2189000D03*
X3948700D03*
X4126600Y-1891200D03*
X4124600Y-1650000D03*
X4143700Y-518900D03*
X4473100Y-7239100D03*
X4475700Y-7414300D03*
X4493500Y-6060300D03*
X4474800Y-5779300D03*
X4474500Y-5370430D03*
X4474100Y-5507400D03*
X4475400Y-5093700D03*
X4472800Y-4880100D03*
X4474400Y-4757600D03*
X4496500Y-2645300D03*
Y-2515800D03*
X4497500Y-2387400D03*
Y-2258800D03*
X4476600Y-1891200D03*
X4439300Y-1838600D03*
X4440000Y-1942700D03*
X4474600Y-1650000D03*
X4500200Y-1168600D03*
X4716300Y-7213900D03*
X4522800Y-7117000D03*
X4620500D03*
X4786900Y-6060300D03*
Y-5964300D03*
X4591100D03*
X4732700Y-5390400D03*
X4636700D03*
X4619400Y-3282900D03*
X4524800D03*
X4619400Y-3186900D03*
X4805200Y-3135700D03*
X4524800Y-3073200D03*
X4619400D03*
Y-2977200D03*
X4636500Y-2645300D03*
X4524800Y-2863200D03*
X4619400D03*
Y-2767200D03*
X4637500Y-2387400D03*
X4636500Y-2515800D03*
X4637500Y-2258800D03*
X4772600Y-1721800D03*
X4772500Y-1842300D03*
X4513700Y-1839300D03*
X4512500Y-1942100D03*
X4772800Y-1422500D03*
X4773800Y-1599900D03*
X4772800Y-1297400D03*
X4563900Y-1168300D03*
X4563500Y-1104900D03*
X4562700Y-1235000D03*
X4628500Y-1169400D03*
X4766800Y-910900D03*
Y-1032200D03*
X4915300Y-7391900D03*
X4812900Y-7214700D03*
X4911600Y-7214900D03*
X5101900Y-7504400D03*
X4927600Y-7504200D03*
X5034000Y-7391900D03*
X4819300D03*
X4911600Y-7117900D03*
X4812400D03*
X5009300Y-7117000D03*
X5108500Y-6014800D03*
X4975600Y-6061500D03*
Y-5965500D03*
X5033300Y-5700300D03*
Y-5604000D03*
Y-5508400D03*
Y-5410900D03*
X5033200Y-5219100D03*
X5033300Y-5314700D03*
X5035000Y-4827000D03*
Y-4731000D03*
X4980500Y-3825600D03*
X5089900Y-3310800D03*
X4962700Y-2997800D03*
X4965200Y-3135700D03*
X5089900Y-3190800D03*
X4866700Y-2997800D03*
X4844700Y-2887400D03*
Y-2759600D03*
X4866700Y-2648500D03*
X4962700D03*
X4984700Y-2759600D03*
X4912700Y-2290700D03*
X5067600Y-2462000D03*
X4912700Y-2450700D03*
X5067600Y-2342000D03*
X4852500Y-1842300D03*
X4852600Y-1721800D03*
X4992400Y-1850000D03*
X4992500Y-1738800D03*
X4853800Y-1599900D03*
X4852800Y-1422500D03*
Y-1297400D03*
X4846800Y-1032200D03*
Y-910900D03*
X5017700Y-177000D03*
X5227900Y-7623300D03*
Y-7783300D03*
X5130000Y-7391900D03*
X5152700Y-7291800D03*
X5356000Y-7504400D03*
X5205000Y-7022000D03*
Y-7118000D03*
X5147400Y-6363600D03*
X5243400D03*
X5422400Y-5410900D03*
X5274400Y-5360900D03*
X5136600Y-4828000D03*
X5364900Y-5005800D03*
X5337900Y-4456300D03*
X5359900Y-4652800D03*
Y-4335000D03*
X5329900Y-4174400D03*
X5139300Y-4175600D03*
X5120600Y-3824400D03*
X5329900Y-3825400D03*
X5207400Y-3299500D03*
X5302000D03*
X5207400Y-3203500D03*
X5302000D03*
X5359000Y-2360600D03*
X5222300Y-2298700D03*
X5359000Y-2456600D03*
X5222300Y-2458700D03*
X5270100Y-1073400D03*
X5139200D03*
X5360700Y-463500D03*
X5389300Y-713200D03*
X5409400Y-284900D03*
X5149300Y-177000D03*
X5528800Y-7504400D03*
X5605000Y-7230000D03*
X5704900Y-7431700D03*
X5700000Y-6950000D03*
X5510000D03*
X5605000D03*
X5697000Y-6652000D03*
X5502000D03*
X5697000Y-6252000D03*
X5695100Y-6003100D03*
X5491000Y-6002100D03*
X5567000Y-6252000D03*
X5502000D03*
X5491000Y-5906100D03*
X5695100Y-5907100D03*
X5683100Y-5798600D03*
Y-5703500D03*
X5586100Y-5607100D03*
X5682100D03*
X5683100Y-5409500D03*
Y-5507700D03*
X5581900Y-5141300D03*
X5587100Y-5312900D03*
X5683100D03*
X5648200Y-4880700D03*
X5707500Y-4633900D03*
X5455900Y-4335000D03*
X5644500Y-4190900D03*
X5538600Y-3826800D03*
X5525800Y-3206600D03*
X5688400Y-2895500D03*
X5455700Y-2359600D03*
Y-2455600D03*
X5521600Y-2089200D03*
X5520900Y-2184400D03*
X5702100Y-2023900D03*
X5490700Y-1690800D03*
Y-1897000D03*
X5645600Y-1849000D03*
X5467000Y-1409600D03*
X5711700Y-1503000D03*
X5668000Y-1213400D03*
X5515700Y-1227200D03*
X5668000Y-1073400D03*
X5466900Y-996300D03*
X5710800Y-607500D03*
Y-511500D03*
X5614800Y-607500D03*
X5709800Y-416200D03*
X5700400Y-317000D03*
X5455900Y-398700D03*
X5573600Y-177000D03*
X5700400D03*
X5744000Y-7623300D03*
Y-7783300D03*
X5915800Y-7623300D03*
Y-7783300D03*
X5784900Y-7504400D03*
X5952400Y-7157400D03*
X5857400Y-7024300D03*
X5856400Y-7157400D03*
X5953400Y-7024300D03*
X5969700Y-6003700D03*
X5867000Y-5907700D03*
X5848300Y-5739000D03*
X5969700Y-5907700D03*
X6008300Y-5489000D03*
X5848300D03*
X5819400Y-5147300D03*
X6019400D03*
X5801500Y-4343900D03*
X5981100Y-4193700D03*
X5793700Y-4189300D03*
X5825600Y-3825600D03*
X5910000Y-3113500D03*
X5750000D03*
X5847100Y-2895500D03*
X5777600Y-2364100D03*
X5852300Y-2023200D03*
X5932800Y-1938500D03*
X5807700Y-1405400D03*
X5798000Y-1213400D03*
X5806700Y-1305800D03*
X5798000Y-1073400D03*
X6126200Y-7504400D03*
X6215000Y-7230000D03*
X6297200Y-7504400D03*
X6310000Y-6950000D03*
X6215000D03*
X6120000D03*
X6317000Y-6652000D03*
X6122000D03*
X6317000Y-6252000D03*
X6187000D03*
X6122000D03*
X6072300Y-6003700D03*
X6349600Y-5690300D03*
X6072300Y-5907700D03*
X6270000Y-5908700D03*
X6178200Y-5786700D03*
Y-5689400D03*
Y-5538800D03*
Y-5438800D03*
X6324400Y-5226600D03*
X6131000Y-5125000D03*
X6228800Y-5225400D03*
X6145000Y-4989000D03*
Y-4893000D03*
X6287100Y-4474700D03*
X6087100D03*
X6187100D03*
X6320200Y-2420900D03*
X6134300Y-1305800D03*
X6651500Y-7504400D03*
X6475600D03*
X6605000Y-7230000D03*
Y-6950000D03*
X6510000D03*
X6512000Y-6652000D03*
X6367100Y-6004700D03*
X6653100Y-6003700D03*
X6577000Y-6252000D03*
X6512000D03*
X6367100Y-5908700D03*
X6653100Y-5907700D03*
X6353500Y-5440300D03*
X6487100Y-4474700D03*
X6387100D03*
X6587100D03*
X6596100Y-3717200D03*
X6384100D03*
X6595100Y-3622000D03*
X6480100Y-3717200D03*
X6538000Y-2681000D03*
X6506300Y-2625700D03*
X6506000Y-2736800D03*
X6468600Y-2679600D03*
X6604800Y-2680900D03*
X6404700Y-1860000D03*
X6650000Y-300000D03*
X6786400Y-7623300D03*
Y-7783300D03*
X6962800Y-7623300D03*
Y-7783300D03*
X6748100Y-7504400D03*
X6828200Y-7431700D03*
X6864900Y-6956700D03*
X6959900Y-7157400D03*
X6960900Y-6956700D03*
X6863900Y-7157400D03*
X6700000Y-6950000D03*
X6707000Y-6652000D03*
X6853100Y-6004700D03*
X6707000Y-6252000D03*
X6853100Y-5908700D03*
X6850400Y-5525100D03*
X6750600Y-5408200D03*
X6850400Y-5197000D03*
X6750600Y-5312200D03*
X6696100Y-4193700D03*
X6912100Y-4176500D03*
X6850690Y-4175820D03*
X6883200Y-3826500D03*
X6690900Y-3622000D03*
X6803800Y-3680500D03*
X6899800D03*
X6692100Y-3717200D03*
X6938600Y-3422200D03*
X6939200Y-3327100D03*
X6939100Y-3123100D03*
X6913400Y-2894900D03*
X6912600Y-2685700D03*
X6816000D03*
X6869100Y-2047600D03*
X6897300Y-1591800D03*
X6795500Y-496100D03*
X7215000Y-7230000D03*
X7172800Y-7504400D03*
X7215000Y-6950000D03*
X7120000D03*
X7121600Y-6652000D03*
X7175700Y-6003700D03*
X7121600Y-6252000D03*
X7186600D03*
X7275700Y-5908700D03*
X7080000Y-5081000D03*
X7220000D03*
X7080000Y-4941000D03*
X7220000D03*
Y-4800000D03*
X7080000D03*
X7181000Y-4471000D03*
X7072000Y-4195000D03*
X7013500Y-3680500D03*
X7222500Y-3622000D03*
X7223500Y-3717200D03*
X7109500Y-3680500D03*
X7035200Y-3327100D03*
X7035100Y-3123100D03*
X7196900Y-2685700D03*
X7103900D03*
X7008700D03*
X7136300Y-2417100D03*
X7018000Y-2421200D03*
X7139500Y-2320200D03*
X7020400Y-2320400D03*
X7080000Y-2370000D03*
X7077000Y-1520000D03*
X7486900Y-7623300D03*
X7353400Y-7504400D03*
X7492000Y-7017400D03*
X7310000Y-6950000D03*
X7480000Y-6650000D03*
X7316600Y-6652000D03*
X7480000Y-6520000D03*
Y-6390000D03*
X7375700Y-6004700D03*
X7316600Y-6252000D03*
X7480000Y-6260000D03*
X7375700Y-5908700D03*
X7548000Y-5680000D03*
X7368000D03*
X7548000Y-5520000D03*
X7368000D03*
X7548000Y-5090000D03*
X7368000D03*
X7548000Y-4930000D03*
X7368000D03*
X7381000Y-4471000D03*
X7581000D03*
X7481000D03*
X7281000D03*
X7491700Y-4185100D03*
Y-3828400D03*
X7434100Y-3717200D03*
X7433100Y-3622000D03*
X7318500D03*
X7319500Y-3717200D03*
X7530100D03*
X7529100Y-3622000D03*
X7481300Y-2685700D03*
X7386300D03*
X7575900D03*
X7291400D03*
X7377600Y-185800D03*
X7839300Y-7623300D03*
X7664000D03*
X7587000Y-7235000D03*
X7778400Y-6640500D03*
X7730000Y-6410000D03*
Y-6270000D03*
X7728000Y-5680000D03*
X7600000Y-5365000D03*
X7728000Y-5520000D03*
Y-5090000D03*
X7600000Y-5215000D03*
X7728000Y-4930000D03*
X7870000Y-4800000D03*
X7881000Y-4471000D03*
X7681000D03*
X7725000Y-4729000D03*
X7781000Y-4471000D03*
X7863400Y-3622000D03*
X7642400Y-3717200D03*
X7853900D03*
X7738400D03*
X7863400Y-3502000D03*
X7863200Y-2902000D03*
X7603000Y-2799200D03*
X7863200Y-2685700D03*
X7767100D03*
X7671500D03*
X7603000Y-2895200D03*
X7806200Y-590200D03*
X7882700Y-135300D03*
X7806200Y-281800D03*
X8013600Y-7623300D03*
X8155000Y-7277000D03*
X7979700Y-6938700D03*
X8035150Y-7081930D03*
X8189050Y-7023700D03*
X8105870Y-7011220D03*
X7979700Y-6767600D03*
X7897300Y-6849600D03*
X8056500Y-6847900D03*
X7980000Y-6850000D03*
X7926260Y-6619480D03*
X7908000Y-5680000D03*
X8124000Y-5558000D03*
Y-5458000D03*
X7927000Y-5365000D03*
X7908000Y-5520000D03*
X7927000Y-5215000D03*
X8124000Y-5158000D03*
Y-5058000D03*
X7908000Y-5090000D03*
X8124000Y-5358000D03*
Y-5258000D03*
X8150000Y-4800000D03*
X7908000Y-4930000D03*
X8010000Y-4800000D03*
X8150000Y-4660000D03*
X7989000Y-4195000D03*
X7949900Y-3717200D03*
X8141300Y-3116300D03*
X8015100D03*
X7960800Y-2902000D03*
X8153600D03*
X8057600Y-2684700D03*
X7960800D03*
X8152400Y-2685700D03*
X8123500Y-2422200D03*
X8123300Y-2367900D03*
X7949900Y-2422600D03*
X7949200Y-2366600D03*
X8040000Y-2395000D03*
X8125900Y-872400D03*
X8125100Y-820100D03*
X7959400Y-874100D03*
X7958200Y-816500D03*
X8040000Y-845000D03*
X7926800Y-590200D03*
X8345000Y-7177000D03*
X8211930Y-6905150D03*
X8214760Y-6792020D03*
X8455500Y-5692300D03*
X8405000Y-5667000D03*
X8455100Y-5641000D03*
X8290000Y-4800000D03*
X8405000Y-4952000D03*
X8352700Y-4924300D03*
X8457300Y-4924500D03*
X8353900Y-4978000D03*
X8457300Y-4978500D03*
X8337700Y-4600400D03*
X8345000Y-2901000D03*
X8249800Y-2902000D03*
Y-2684700D03*
X8440300Y-2685700D03*
X8345000D03*
G54D23*
X1732700Y-5781000D03*
Y-5901000D03*
X1664900Y-4453800D03*
Y-4333800D03*
X2910000Y-5709700D03*
Y-5829700D03*
X2887200Y-5160100D03*
Y-5040100D03*
X3002100Y-4720200D03*
Y-4600200D03*
X3437800Y-4454800D03*
Y-4334800D03*
X5089900Y-3310800D03*
Y-3190800D03*
X5067600Y-2462000D03*
Y-2342000D03*
X6019400Y-5147300D03*
X5819400D03*
X7863400Y-3622000D03*
Y-3502000D03*
G54D14*
X180300Y-2189400D03*
Y-2049400D03*
Y-1812600D03*
Y-1952600D03*
X439200Y-2189400D03*
Y-2049400D03*
X309400Y-2189400D03*
Y-2049400D03*
Y-1812600D03*
Y-1952600D03*
X439200Y-1812600D03*
Y-1952600D03*
X755200Y-3601600D03*
Y-3461600D03*
X786800Y-2189400D03*
Y-2049400D03*
Y-1812600D03*
Y-1952600D03*
X725000Y-534400D03*
Y-394400D03*
X1082900Y-6978500D03*
Y-7118500D03*
X1015900Y-3601600D03*
X884500D03*
X1015900Y-3461600D03*
X884500D03*
X1045800Y-2189400D03*
Y-2049400D03*
X916100Y-2189400D03*
Y-2049400D03*
Y-1812600D03*
Y-1952600D03*
X1045800Y-1812600D03*
Y-1952600D03*
X858400Y-534400D03*
X990300D03*
X858400Y-394400D03*
X990300D03*
X1199200Y-2188700D03*
Y-2048700D03*
X1328800Y-2188700D03*
Y-2048700D03*
X1199200Y-1812600D03*
Y-1952600D03*
X1328800Y-1812600D03*
Y-1952600D03*
X1741500Y-3601900D03*
Y-3461900D03*
X1456800Y-2188700D03*
Y-2048700D03*
Y-1951600D03*
Y-1811600D03*
X1748500Y-534400D03*
Y-394400D03*
X2051300Y-4295300D03*
Y-4155300D03*
X1876700Y-3601900D03*
X2012400D03*
X1876700Y-3461900D03*
X2012400D03*
X1938500Y-2189800D03*
Y-2049800D03*
X1807800Y-2189800D03*
Y-2049800D03*
Y-1951600D03*
Y-1811600D03*
X1938500Y-1951600D03*
Y-1811600D03*
X1880400Y-534400D03*
X2012100D03*
X1880400Y-394400D03*
X2012100D03*
X2293200Y-4295300D03*
Y-4155300D03*
X2067900Y-2189800D03*
Y-2049800D03*
X2359500Y-2189800D03*
Y-2049800D03*
X2230000Y-2189800D03*
Y-2049800D03*
X2067900Y-1812600D03*
Y-1952600D03*
X2228500Y-1812600D03*
Y-1952600D03*
X2357500Y-1812600D03*
Y-1952600D03*
X2465800Y-6071900D03*
Y-5931900D03*
X2624500Y-4904800D03*
Y-5044800D03*
X2488800Y-2189800D03*
Y-2049800D03*
X2485900Y-1812600D03*
Y-1952600D03*
X2909300Y-3601900D03*
X2780100D03*
X2909300Y-3461900D03*
X2780100D03*
X2838000Y-2189800D03*
Y-2049800D03*
X2966200Y-2189800D03*
Y-2049800D03*
X2964400Y-1812600D03*
Y-1952600D03*
X2835600Y-1812600D03*
Y-1952600D03*
X2752300Y-534400D03*
X2885600D03*
X2752300Y-394400D03*
X2885600D03*
X3053400Y-4295300D03*
Y-4155300D03*
X3258400Y-3600300D03*
X3038300Y-3601900D03*
X3258400Y-3460300D03*
X3038300Y-3461900D03*
X3095000Y-2189800D03*
Y-2049800D03*
X3252900Y-2189800D03*
Y-2049800D03*
X3093600Y-1812600D03*
Y-1952600D03*
X3251500Y-1812100D03*
Y-1952100D03*
X3019300Y-534400D03*
X3289800D03*
X3019300Y-394400D03*
X3289800D03*
X3437300Y-4546100D03*
Y-4686100D03*
X3388900Y-3600300D03*
X3518900D03*
X3388900Y-3460300D03*
X3518900D03*
X3381000Y-2189800D03*
Y-2049800D03*
X3510500Y-2189800D03*
Y-2049800D03*
X3380600Y-1812100D03*
Y-1952100D03*
X3509600Y-1812100D03*
Y-1952100D03*
X3423500Y-534400D03*
X3557300D03*
X3423500Y-394400D03*
X3557300D03*
X3606000Y-4685100D03*
Y-4545100D03*
X3623200Y-4295300D03*
Y-4155300D03*
X3815300Y-2189000D03*
Y-2049000D03*
X3754500Y-1812700D03*
Y-1952700D03*
X3885200Y-1813100D03*
Y-1953100D03*
X3948700Y-2189000D03*
Y-2049000D03*
X4081900Y-2189000D03*
Y-2049000D03*
X5139200Y-1213400D03*
Y-1073400D03*
X5017700Y-317000D03*
Y-177000D03*
X5270100Y-1213400D03*
Y-1073400D03*
X5149300Y-317000D03*
Y-177000D03*
X5668000Y-1213400D03*
Y-1073400D03*
X5573600Y-317000D03*
Y-177000D03*
X5700400Y-317000D03*
Y-177000D03*
X5798000Y-1213400D03*
Y-1073400D03*
X6186300Y-4788800D03*
Y-4648800D03*
X6586500Y-4788800D03*
X6387000D03*
X6586500Y-4648800D03*
X6387000D03*
X7080000Y-5081000D03*
X7220000D03*
X7080000Y-4800000D03*
X7220000D03*
X7080000Y-4941000D03*
X7220000D03*
X7080000Y-4660000D03*
X7220000D03*
X7730000Y-6410000D03*
Y-6270000D03*
X7870000Y-4800000D03*
Y-4660000D03*
X8010000Y-4800000D03*
X8150000D03*
X8010000Y-4660000D03*
X8150000D03*
X8290000Y-4800000D03*
Y-4660000D03*
G54D41*
X6287100Y-4474700D03*
X6187100D03*
X6087100D03*
X6587100D03*
X6487100D03*
X6387100D03*
X7281000Y-4471000D03*
X7181000D03*
X7581000D03*
X7481000D03*
X7381000D03*
X7881000D03*
X7781000D03*
X7681000D03*
G54D32*
X5058900Y-7783300D03*
Y-7623300D03*
X4889800Y-7783300D03*
Y-7623300D03*
X4912700Y-2450700D03*
Y-2290700D03*
X5227900Y-7783300D03*
Y-7623300D03*
X5398900Y-7783300D03*
Y-7623300D03*
X5222300Y-2458700D03*
Y-2298700D03*
X5570900Y-7783300D03*
Y-7623300D03*
X5744000Y-7783300D03*
Y-7623300D03*
X5915800Y-7783300D03*
Y-7623300D03*
X5793400Y-1939000D03*
Y-1779000D03*
X6262300Y-7783300D03*
Y-7623300D03*
X6087500Y-7624300D03*
Y-7784300D03*
X6435900Y-7783300D03*
Y-7623300D03*
X6611200Y-7783300D03*
Y-7623300D03*
X6786400Y-7783300D03*
Y-7623300D03*
X6962800Y-7783300D03*
Y-7623300D03*
X7137500Y-7783300D03*
Y-7623300D03*
X7486900Y-7783300D03*
Y-7623300D03*
X7312800Y-7783300D03*
Y-7623300D03*
X7548000Y-5680000D03*
X7368000D03*
X7548000Y-5520000D03*
X7368000D03*
Y-5090000D03*
X7548000D03*
X7368000Y-4930000D03*
X7548000D03*
X7839300Y-7783300D03*
Y-7623300D03*
X7664000Y-7783300D03*
Y-7623300D03*
X7908000Y-5680000D03*
X7728000D03*
X7908000Y-5520000D03*
X7728000D03*
Y-5090000D03*
X7908000D03*
X7728000Y-4930000D03*
X7908000D03*
X8013600Y-7783300D03*
Y-7623300D03*
G54D50*
X7980000Y-6850000D03*
G54D60*
G01X3544600Y-6684500D02*
X3366900D01*
X3307600Y-6743800D01*
X2801800D01*
X2743900Y-6685900D01*
Y-6680900D01*
G01X3544600Y-6734500D02*
X3397900D01*
X3324000Y-6808400D01*
X2835600D01*
X2797000Y-6847000D01*
X2743900D01*
G01X3544600Y-6834500D02*
X3449400D01*
X3392000Y-6891900D01*
Y-7258200D01*
X3336600Y-7313600D01*
X3288900D01*
G01X3544600Y-6784500D02*
X3424700D01*
X3264500Y-6944700D01*
Y-7158200D01*
G54D24*
X1621000Y-5161900D03*
X1741000D03*
X5612500Y-4633900D03*
X5707500D03*
X5611500Y-4343900D03*
X5802500Y-4633900D03*
X5801500Y-4343900D03*
G54D15*
X205600Y-7095500D03*
Y-6999500D03*
X331300Y-7095500D03*
Y-6999500D03*
X713400Y-7000500D03*
Y-7096500D03*
X585900Y-7000500D03*
Y-7096500D03*
X664700Y-5106400D03*
X764300D03*
X664700Y-5010400D03*
X764300D03*
X966400Y-7000500D03*
Y-7096500D03*
X863900Y-5105400D03*
X1080400Y-4788000D03*
X863900Y-5009400D03*
X1080400Y-4692000D03*
X1395100Y-4273300D03*
Y-4177300D03*
X1582200Y-6336100D03*
X1682100D03*
X1582200Y-6240100D03*
X1682100D03*
Y-4940900D03*
Y-5036900D03*
X1490200Y-4273300D03*
Y-4177300D03*
X1937100Y-7832200D03*
Y-7736200D03*
X1781800Y-6335100D03*
X1982200D03*
X1882100Y-6040400D03*
Y-6136400D03*
X1781800Y-6239100D03*
X1982200D03*
X1981900Y-4741600D03*
Y-4837600D03*
X1782100Y-4936300D03*
Y-4840300D03*
X1881400Y-4936300D03*
Y-4840300D03*
X1835500Y-4273300D03*
Y-4177300D03*
X1933100Y-4273300D03*
Y-4177300D03*
X2124300Y-7832200D03*
X2222000D03*
X2124300Y-7736200D03*
X2222000D03*
X2236200Y-6833000D03*
Y-6737000D03*
X2129300Y-6833000D03*
Y-6737000D03*
X2333700Y-6833000D03*
Y-6737000D03*
X2082000Y-6335100D03*
X2182200Y-6040500D03*
Y-6136500D03*
X2082000Y-6239100D03*
X2282100Y-5740400D03*
Y-5836400D03*
X2182400Y-5740400D03*
Y-5836400D03*
X2082300Y-5740400D03*
Y-5836400D03*
Y-5136300D03*
Y-5040300D03*
X2082100Y-4737000D03*
Y-4641000D03*
X2082200Y-4536600D03*
Y-4440600D03*
X2182100Y-4536600D03*
Y-4440600D03*
X2588400Y-7832200D03*
Y-7736200D03*
X2582200Y-6335100D03*
X2481600D03*
X2582200Y-6239100D03*
X2481600D03*
X2482300Y-5740400D03*
Y-5836400D03*
X2381900Y-5740400D03*
Y-5836400D03*
X2487700Y-4781300D03*
X2585400D03*
X2487700Y-4685300D03*
X2585400D03*
X2508600Y-4273300D03*
Y-4177300D03*
X2410900Y-4273300D03*
Y-4177300D03*
X2743900Y-6943000D03*
X2743500Y-7056300D03*
Y-7152300D03*
X2743900Y-6584900D03*
Y-6680900D03*
Y-6847000D03*
X2781900Y-6335100D03*
Y-6239100D03*
X2887700Y-5357400D03*
Y-5261400D03*
X2683400Y-4780300D03*
X2781600Y-4934500D03*
Y-4838500D03*
X2882000Y-4736700D03*
Y-4423700D03*
Y-4519700D03*
X2683400Y-4684300D03*
X2882000Y-4640700D03*
X2837900Y-4273300D03*
Y-4177300D03*
X2935600Y-4273300D03*
Y-4177300D03*
X3274600Y-4273300D03*
Y-4177300D03*
X3178500Y-4273300D03*
Y-4177300D03*
X3282300Y-5936800D03*
Y-5840800D03*
X4493500Y-5964300D03*
Y-6060300D03*
X4812400Y-7213900D03*
X4716300D03*
X4812400Y-7117900D03*
X4620500Y-7117000D03*
Y-7021000D03*
X4522800Y-7117000D03*
Y-7021000D03*
X4716300Y-7117900D03*
X4591100Y-5964300D03*
Y-6060300D03*
X4786900Y-5964300D03*
Y-6060300D03*
X4689800Y-5964300D03*
Y-6060300D03*
X4524800Y-3282900D03*
X4619400D03*
X4524800Y-3186900D03*
X4619400D03*
X4524800Y-3073200D03*
Y-2977200D03*
X4619400Y-3073200D03*
Y-2977200D03*
Y-2863200D03*
Y-2767200D03*
X4524800Y-2863200D03*
Y-2767200D03*
X4911600Y-7213900D03*
Y-7117900D03*
X5009300Y-7117000D03*
Y-7021000D03*
X4975600Y-5965500D03*
Y-6061500D03*
X4882600Y-5965000D03*
Y-6061000D03*
X5035000Y-4827000D03*
Y-4731000D03*
X4992500Y-1738800D03*
X4992400Y-1850000D03*
Y-1946000D03*
X4992500Y-1642800D03*
X5205000Y-7022000D03*
Y-7118000D03*
X5142200Y-6688200D03*
Y-6784200D03*
X5136600Y-4732000D03*
Y-4828000D03*
X5207400Y-3299500D03*
Y-3203500D03*
X5302000Y-3299500D03*
Y-3203500D03*
X5359000Y-2360600D03*
Y-2456600D03*
X5591000Y-6003100D03*
X5695100D03*
X5491000Y-6002100D03*
X5591000Y-5907100D03*
X5695100D03*
X5491000Y-5906100D03*
X5455700Y-2455600D03*
Y-2359600D03*
X5645600Y-1739800D03*
Y-1945000D03*
Y-1849000D03*
Y-1643800D03*
X5969700Y-6003700D03*
X5867000D03*
X5969700Y-5907700D03*
X5867000D03*
X5932800Y-1938500D03*
Y-1842500D03*
X6172300Y-6004700D03*
X6270000D03*
X6072300Y-6003700D03*
X6172300Y-5908700D03*
X6270000D03*
X6072300Y-5907700D03*
X6145000Y-4893000D03*
Y-4989000D03*
X6092800Y-1844800D03*
Y-1940800D03*
X6653100Y-6003700D03*
X6367100Y-6004700D03*
X6653100Y-5907700D03*
X6367100Y-5908700D03*
X6753100Y-6004700D03*
X6853100D03*
X6753100Y-5908700D03*
X6853100D03*
X6850400Y-5429100D03*
Y-5525100D03*
X6750600Y-5408200D03*
X6850400Y-5293000D03*
Y-5197000D03*
X6750600Y-5312200D03*
X6913400Y-2894900D03*
Y-2798900D03*
X6912600Y-2589700D03*
Y-2685700D03*
X6816000Y-2589700D03*
Y-2685700D03*
X7275700Y-6004700D03*
X7175700Y-6003700D03*
X7275700Y-5908700D03*
X7175700Y-5907700D03*
X7103900Y-2589700D03*
Y-2685700D03*
X7196900Y-2589700D03*
Y-2685700D03*
X7008700Y-2589700D03*
Y-2685700D03*
X7186600Y-488200D03*
Y-392200D03*
X7375700Y-6004700D03*
Y-5908700D03*
X7291400Y-2589700D03*
Y-2685700D03*
X7575900Y-2589700D03*
Y-2685700D03*
X7481300Y-2589700D03*
Y-2685700D03*
X7386300Y-2589700D03*
Y-2685700D03*
X7311000Y-488200D03*
X7435300D03*
X7311000Y-392200D03*
X7435300D03*
Y-185800D03*
Y-281800D03*
X7863200Y-2902000D03*
X7603000Y-2895200D03*
X7703000Y-2894500D03*
X7863200Y-2589700D03*
Y-2685700D03*
Y-2806000D03*
X7767100Y-2589700D03*
Y-2685700D03*
X7671500Y-2589700D03*
Y-2685700D03*
X7603000Y-2799200D03*
X7703000Y-2798500D03*
X7682900Y-488200D03*
X7806200D03*
X7682900Y-392200D03*
X7806200D03*
Y-185800D03*
Y-281800D03*
X8155000Y-7277000D03*
Y-7181000D03*
X8141300Y-3212300D03*
X8015100D03*
X7960800Y-2902000D03*
X8153600D03*
X8141300Y-3116300D03*
X8015100D03*
X7960800Y-2806000D03*
X8152400Y-2589700D03*
Y-2685700D03*
X8153600Y-2806000D03*
X8057600Y-2684700D03*
Y-2588700D03*
X7960800Y-2684700D03*
Y-2588700D03*
X7928500Y-488200D03*
Y-392200D03*
X8345000Y-7177000D03*
Y-7081000D03*
X8249800Y-2902000D03*
X8345000Y-2901000D03*
X8440300Y-2589700D03*
Y-2685700D03*
X8345000Y-2589700D03*
Y-2685700D03*
X8249800Y-2806000D03*
Y-2684700D03*
Y-2588700D03*
X8345000Y-2805000D03*
G54D33*
X5420400Y-5674600D03*
X5272400D03*
X5422400Y-5410900D03*
X5274400D03*
X5420400Y-5574600D03*
X5272400D03*
X5420400Y-5624600D03*
X5272400D03*
X5422400Y-5310900D03*
X5274400D03*
X5422400Y-5360900D03*
X5274400D03*
G54D42*
X6250500Y-2293100D03*
Y-2203100D03*
X6571900Y-2270400D03*
X6411200D03*
X6571900Y-2180400D03*
X6411200D03*
X6892000Y-2330000D03*
Y-2420000D03*
X6732000Y-2330000D03*
Y-2420000D03*
G54D51*
X7745240Y-6907980D03*
X7780600Y-6943340D03*
X7815950Y-6978690D03*
X7851310Y-7014050D03*
X7886660Y-7049400D03*
X7922020Y-7084760D03*
X8037980Y-6615240D03*
X8073340Y-6650600D03*
X8108690Y-6685950D03*
X8144050Y-6721310D03*
X8179400Y-6756660D03*
X8214760Y-6792020D03*
G54D61*
G01X5857400Y-7024300D02*
X5808340D01*
X5752040Y-7080600D01*
X5644100D01*
X5605000Y-7041500D01*
Y-6950000D01*
G01X5549900Y-6795000D02*
Y-6728160D01*
X5567000Y-6711060D01*
Y-6652000D01*
G01X5645900Y-6795000D02*
Y-6731100D01*
X5632000Y-6717200D01*
Y-6652000D01*
G01X6167800Y-6795000D02*
Y-6730260D01*
X6187000Y-6711060D01*
Y-6652000D01*
G01X6263800Y-6795000D02*
Y-6722860D01*
X6252000Y-6711060D01*
Y-6652000D01*
G01X6561000Y-6795000D02*
Y-6727060D01*
X6577000Y-6711060D01*
Y-6652000D01*
G01X6642000D02*
Y-6711060D01*
X6657000Y-6726060D01*
Y-6795000D01*
G01X7186600Y-6652000D02*
Y-6711060D01*
X7170600Y-6727060D01*
Y-6795000D01*
G01X7251600Y-6652000D02*
Y-6711060D01*
X7266600Y-6726060D01*
Y-6795000D01*
G54D16*
X574100Y-4632100D03*
X1107400Y-4467700D03*
X4563900Y-1168300D03*
X5146000Y-1409000D03*
X5022100Y-505000D03*
X5466900Y-996300D03*
X5389300Y-713200D03*
X6538000Y-2681000D03*
G54D43*
X6229900Y-2527000D03*
X6319900D03*
X6572200Y-1380200D03*
X6482200D03*
X6807300Y-1591800D03*
X6897300D03*
X6807300Y-1498300D03*
X6897300D03*
G54D52*
X7753020Y-6792720D03*
X7784840Y-6760900D03*
X7820190Y-6725550D03*
X7855550Y-6690190D03*
X7890900Y-6654840D03*
X8035150Y-7081930D03*
X8070510Y-7046580D03*
X8105870Y-7011220D03*
X8141220Y-6975870D03*
X8176580Y-6940510D03*
X8211930Y-6905150D03*
X7926260Y-6619480D03*
G54D25*
X2883500Y-7158200D03*
Y-6618200D03*
X3264500Y-7158200D03*
X3137500D03*
X3010500D03*
X3264500Y-6618200D03*
X3137500D03*
X3010500D03*
X5360700Y-463500D03*
X5467000Y-1409600D03*
G54D34*
X5364900Y-5005800D03*
X5269900Y-4795800D03*
X5459900D03*
G54D62*
G01X3544600Y-6584500D02*
X3410500D01*
X3325400Y-6499400D01*
X3033300D01*
X3010500Y-6522200D01*
G01X3280000Y-6238800D02*
X3335800D01*
X3431500Y-6334500D01*
X3544600D01*
G01X3280000Y-6338600D02*
X3340300D01*
X3386200Y-6384500D01*
X3544600D01*
G01X3280000Y-6138600D02*
X3368500D01*
X3405800Y-6175900D01*
Y-6241400D01*
X3448900Y-6284500D01*
X3544600D01*
G01X4623500Y-6808000D02*
Y-6968940D01*
X4620500Y-6971940D01*
Y-7021000D01*
G01X4558500Y-6808000D02*
Y-6925500D01*
X4522800Y-6961200D01*
Y-7021000D01*
G01X4688500Y-6808000D02*
Y-6925600D01*
X4716300Y-6953400D01*
Y-7117900D01*
G01X4753500Y-6808000D02*
Y-6902500D01*
X4809400Y-6958400D01*
Y-7014600D01*
G01X5152700Y-7291800D02*
X4845500D01*
X4812900Y-7259200D01*
Y-7214700D01*
G01X4948500Y-6808000D02*
Y-6892900D01*
X5009300Y-6953700D01*
Y-7021000D01*
G01X4905400Y-7014600D02*
Y-6955200D01*
X4876800Y-6926600D01*
X4845900D01*
X4818500Y-6899200D01*
Y-6808000D01*
G01X7870000Y-4660000D02*
Y-4620940D01*
X7848560Y-4599500D01*
X7410440D01*
X7375000Y-4634940D01*
Y-4729000D01*
G01X7600000Y-7125000D02*
X7881780D01*
X7922020Y-7084760D01*
G54D44*
X7080000Y-2370000D03*
G54D35*
X5372200Y-1474800D03*
Y-1409800D03*
Y-1344800D03*
X5265900Y-528700D03*
Y-463700D03*
Y-398700D03*
X5562200Y-1474800D03*
Y-1409800D03*
Y-1344800D03*
X5455900Y-528700D03*
Y-463700D03*
Y-398700D03*
G54D17*
X859300Y-4175500D03*
Y-3825500D03*
X1665200Y-4175500D03*
Y-3825500D03*
X2674500Y-4175500D03*
Y-3825500D03*
X3437800Y-4175500D03*
Y-3825500D03*
X4940800Y-4174500D03*
X5151600D03*
X4940800Y-3824500D03*
X5151600D03*
X5359800Y-4174500D03*
Y-3824500D03*
X5785900Y-4174500D03*
X5571100Y-4176500D03*
X5785900Y-3824500D03*
X5571100Y-3826500D03*
X6883200Y-4176500D03*
Y-3826500D03*
G54D53*
X8124000Y-5558000D03*
Y-5458000D03*
Y-5358000D03*
Y-5258000D03*
Y-5158000D03*
Y-5058000D03*
G54D26*
X3544600Y-6884500D03*
Y-6834500D03*
Y-6784500D03*
Y-6734500D03*
Y-6684500D03*
Y-6634500D03*
Y-6584500D03*
Y-6534500D03*
Y-6484500D03*
Y-6434500D03*
Y-6384500D03*
Y-6334500D03*
Y-6284500D03*
Y-6234500D03*
G54D63*
G01X5420400Y-5624600D02*
X5500500D01*
X5518000Y-5607100D01*
X5586100D01*
G01X5422400Y-5360900D02*
X5478100D01*
X5526100Y-5312900D01*
X5587100D01*
G01X5852300Y-2023200D02*
Y-2068900D01*
X5736800Y-2184400D01*
X5616900D01*
G01X5617600Y-2089200D02*
X5673300D01*
X5702100Y-2060400D01*
Y-2023900D01*
G01X6013100Y-2336600D02*
Y-2219600D01*
X6013150Y-2219550D01*
Y-2178850D01*
G01X6013100Y-2336600D02*
X5967900D01*
X5940400Y-2364100D01*
X5917600D01*
G01X6224200Y-2420900D02*
Y-2464900D01*
X6229900Y-2470600D01*
Y-2527000D01*
G01X6172000Y-2179500D02*
X6131300D01*
X6111700Y-2199100D01*
Y-2391600D01*
X6141000Y-2420900D01*
X6224200D01*
G54D18*
X1053100Y-7676500D03*
X1149100D03*
X1377500Y-6438400D03*
X1281500D03*
X1383800Y-6138800D03*
X1384800Y-6238900D03*
X1384600Y-5738900D03*
Y-5538800D03*
Y-5438600D03*
Y-5638700D03*
X1384100Y-5238600D03*
X1383100Y-5138300D03*
X1384100Y-5339100D03*
X1384200Y-4738500D03*
X1384100Y-5038600D03*
X1699900Y-7492700D03*
X1727900Y-7015200D03*
X1479800Y-6138800D03*
X1680100Y-6038400D03*
X1584100D03*
X1480800Y-6238900D03*
X1580400Y-5838500D03*
X1484400D03*
X1480600Y-5738900D03*
X1580400Y-5934100D03*
X1484400D03*
X1480600Y-5538800D03*
Y-5438600D03*
Y-5638700D03*
X1480100Y-5238600D03*
X1479100Y-5138300D03*
X1480100Y-5339100D03*
X1480200Y-4738500D03*
X1480100Y-5038600D03*
X1689800Y-4639000D03*
X1484000D03*
X1580000D03*
X1795900Y-7492700D03*
X1823900Y-7015200D03*
X1980300Y-5739300D03*
X1884300D03*
X1980000Y-5938800D03*
X1884000D03*
X1980300Y-5638500D03*
X1884300D03*
X1980300Y-5538900D03*
X1884300D03*
X1980300Y-5438900D03*
X1884300D03*
X1980300Y-5238800D03*
X1884300D03*
X1980300Y-5138700D03*
X1884300D03*
X1980300Y-5338800D03*
X1884300D03*
X1984300Y-4938400D03*
X1980300Y-5039300D03*
X1884300D03*
X1785800Y-4639000D03*
X2283200Y-4838400D03*
X2284200Y-4738700D03*
X2080300Y-4938400D03*
X2284200Y-4939100D03*
X2184400Y-5038900D03*
X2280400D03*
X2584400Y-6038700D03*
X2585400Y-5938400D03*
X2584200Y-5638500D03*
X2584000Y-5538600D03*
Y-5438600D03*
X2391300Y-5138600D03*
X2487300D03*
X2584000Y-5338600D03*
Y-5238600D03*
X2486300Y-5039100D03*
X2390300D03*
X2379200Y-4838400D03*
X2380200Y-4738700D03*
Y-4939100D03*
X2726800Y-7574000D03*
X2822800D03*
X2913100Y-7313600D03*
X2726800Y-7479600D03*
X2822800D03*
X2680400Y-6038700D03*
X2883700Y-6138400D03*
X2681400Y-5938400D03*
X2884700D03*
X2683600Y-5738700D03*
X2779600D03*
X2680200Y-5638500D03*
X2680000Y-5538600D03*
Y-5438600D03*
Y-5338600D03*
Y-5238600D03*
X3192900Y-7313600D03*
X3009100D03*
X3280000Y-6338600D03*
X3184000D03*
X3280000Y-6138600D03*
X3184000D03*
X3280000Y-6238800D03*
X3184000D03*
X2979700Y-6138400D03*
X2980700Y-5938400D03*
X3084200Y-5438700D03*
X3180200D03*
X3084200Y-5638700D03*
X3180200D03*
X3184300Y-5238900D03*
X3280300D03*
X3084200Y-5338800D03*
X3180200D03*
X3084000Y-4838600D03*
X3180000D03*
X3084200Y-5039000D03*
X3180200D03*
X2983800Y-4938600D03*
X3079800D03*
X3288900Y-7313600D03*
X3542100Y-5756100D03*
X3541100Y-5620900D03*
Y-5181400D03*
X3517500Y-4989300D03*
X3638100Y-5756100D03*
X3637100Y-5620900D03*
X3761600Y-5181400D03*
X3857600D03*
X3637100D03*
X3613500Y-4989300D03*
X3734000Y-4788600D03*
X3830000D03*
X4819300Y-7391900D03*
X4809400Y-7014600D03*
X4636700Y-5390400D03*
X4732700D03*
X4915300Y-7391900D03*
X5130000D03*
X5034000D03*
X4905400Y-7014600D03*
X5129300Y-5700300D03*
X5033300D03*
X5129300Y-5604000D03*
X5033300D03*
X5129300Y-5508400D03*
X5033300D03*
X5129300Y-5410900D03*
X5033300D03*
X5129300Y-5314700D03*
X5033300D03*
X5129200Y-5219100D03*
X5033200D03*
X4866700Y-2997800D03*
X4962700D03*
X4866700Y-2648500D03*
X4962700D03*
X5243400Y-6363600D03*
X5147400D03*
X5359900Y-4652800D03*
Y-4335000D03*
X5419700Y-1227200D03*
X5313400Y-284900D03*
X5409400D03*
X5549900Y-6795000D03*
X5645900D03*
X5587100Y-5798600D03*
X5683100D03*
X5587100Y-5703500D03*
X5683100D03*
X5587100Y-5507700D03*
X5683100D03*
X5587100Y-5409500D03*
X5683100D03*
X5682100Y-5607100D03*
X5586100D03*
X5587100Y-5312900D03*
X5683100D03*
X5455900Y-4652800D03*
Y-4335000D03*
X5719700Y-3352300D03*
X5616900Y-2184400D03*
X5520900D03*
X5617600Y-2089200D03*
X5521600D03*
X5711700Y-1503000D03*
Y-1405400D03*
X5515700Y-1227200D03*
X5710700Y-1305800D03*
X5614800Y-511500D03*
X5710800D03*
X5614800Y-607500D03*
X5710800D03*
X5709800Y-416200D03*
X5613800D03*
X5857400Y-7024300D03*
X5953400D03*
X5952400Y-7157400D03*
X5856400D03*
X5815700Y-3352300D03*
X5751100Y-2895500D03*
X5847100D03*
X5996400Y-1699900D03*
X5807700Y-1503000D03*
Y-1405400D03*
X5806700Y-1305800D03*
X6038300D03*
X6167800Y-6795000D03*
X6263800D03*
X6178200Y-5689400D03*
X6274200D03*
X6178200Y-5786700D03*
X6274200D03*
X6178200Y-5438800D03*
X6274200D03*
X6178200Y-5538800D03*
X6274200D03*
X6228400Y-5226600D03*
X6324400D03*
X6227000Y-5125000D03*
X6131000D03*
X6320200Y-2420900D03*
X6224200D03*
X6092400Y-1699900D03*
X6134300Y-1305800D03*
X6338500Y-815700D03*
X6242500D03*
X6561000Y-6795000D03*
X6657000D03*
X6595100Y-3622000D03*
X6596100Y-3717200D03*
X6384100D03*
X6480100D03*
X6404700Y-1860000D03*
X6500700D03*
X6864900Y-6956700D03*
X6960900D03*
X6959900Y-7157400D03*
X6863900D03*
X6691100Y-3622000D03*
X6692100Y-3717200D03*
X6803800Y-3680500D03*
X6899800D03*
X6938600Y-3422200D03*
X6939200Y-3327100D03*
X6939100Y-3123100D03*
X6795500Y-496100D03*
X6891500D03*
X7170600Y-6795000D03*
X7266600D03*
X7223500Y-3717200D03*
X7013500Y-3680500D03*
X7109500D03*
X7222500Y-3622000D03*
X7034600Y-3422200D03*
X7035200Y-3327100D03*
X7035100Y-3123100D03*
X7587000Y-7235000D03*
X7491000D03*
X7492000Y-7017400D03*
X7588000D03*
X7529100Y-3622000D03*
X7433100D03*
X7319500Y-3717200D03*
X7434100D03*
X7530100D03*
X7318500Y-3622000D03*
X7831000Y-5365000D03*
Y-5215000D03*
X7642400Y-3717200D03*
X7738400D03*
X7853900D03*
X7927000Y-5365000D03*
Y-5215000D03*
X7949900Y-3717200D03*
G54D54*
X8040000Y-2395000D03*
Y-845000D03*
G54D27*
X3785900Y-7119600D03*
X3786470Y-5999600D03*
G54D45*
X7077000Y-1820000D03*
Y-1720000D03*
Y-1620000D03*
Y-1520000D03*
Y-1420000D03*
Y-1320000D03*
Y-1220000D03*
Y-1120000D03*
Y-1020000D03*
G54D36*
X5510000Y-7230000D03*
X5605000D03*
X5700000D03*
X5510000Y-6950000D03*
X5605000D03*
X5700000D03*
X6120000Y-7230000D03*
X6215000D03*
X6310000D03*
X6120000Y-6950000D03*
X6215000D03*
X6310000D03*
X6510000Y-7230000D03*
X6605000D03*
X6510000Y-6950000D03*
X6605000D03*
X6700000Y-7230000D03*
Y-6950000D03*
X7120000Y-7230000D03*
X7215000D03*
X7120000Y-6950000D03*
X7215000D03*
X7310000Y-7230000D03*
Y-6950000D03*
G54D64*
G01X6897300Y-1591800D02*
Y-1498300D01*
G01D02*
X6948000D01*
X6969700Y-1520000D01*
X7077000D01*
G54D46*
X7080000Y-870000D03*
G54D28*
X4125000Y-7366200D03*
X4126000Y-5748000D03*
X4125000Y-5336300D03*
X4124400Y-5541500D03*
X4125900Y-5130300D03*
X4124400Y-4921300D03*
X4124500Y-4710500D03*
X4124600Y-1650000D03*
X4126600Y-1891200D03*
X4475000Y-7366200D03*
X4476000Y-5748000D03*
X4475000Y-5336300D03*
X4474400Y-5541500D03*
X4475900Y-5130300D03*
X4474400Y-4921300D03*
X4474500Y-4710500D03*
X4474600Y-1650000D03*
X4476600Y-1891200D03*
X5140700Y-1690800D03*
Y-1897000D03*
X5490700Y-1690800D03*
Y-1897000D03*
G54D55*
X8405000Y-5667000D03*
Y-4952000D03*
G54D19*
X874200Y-4741100D03*
X2673800Y-4459200D03*
G54D37*
X5648200Y-4880700D03*
X5858200Y-4975700D03*
Y-4785700D03*
G54D65*
G01X966400Y-7096500D02*
X1010400D01*
X1032400Y-7118500D01*
X1082900D01*
G01X4524800Y-3186900D02*
X4619400D01*
G01X4524800Y-2977200D02*
X4619400D01*
G01X4524800Y-2767200D02*
X4619400D01*
G01X5021900Y-7504400D02*
Y-7565800D01*
X5058900Y-7602800D01*
G01D02*
Y-7623300D01*
G01X4847500Y-7504400D02*
Y-7567800D01*
X4889800Y-7610100D01*
G01D02*
Y-7623300D01*
G01X5034000Y-7391900D02*
Y-7441300D01*
X5021900Y-7453400D01*
Y-7504400D01*
G01X4819300Y-7391900D02*
Y-7438400D01*
X4847500Y-7466600D01*
Y-7504400D01*
G01X4984700Y-2759600D02*
Y-2887400D01*
G01X5608800Y-7504400D02*
Y-7561700D01*
X5570900Y-7599600D01*
G01D02*
Y-7623300D01*
G01X5697000Y-6252000D02*
Y-6052700D01*
X5695100Y-6050800D01*
Y-6003100D01*
G01X5491000Y-5906100D02*
X5547300D01*
X5548300Y-5907100D01*
X5591000D01*
G01X5751100Y-2895500D02*
X5688400D01*
G01X6317000Y-6252000D02*
Y-6163100D01*
X6367100Y-6113000D01*
Y-6004700D01*
G01X6274200Y-5786700D02*
Y-5689400D01*
G01X6072300Y-5907700D02*
X6127240D01*
X6128240Y-5908700D01*
X6172300D01*
G01X6274200Y-5538800D02*
Y-5438800D01*
G01X6753100Y-5908700D02*
X6696800D01*
X6695800Y-5907700D01*
X6653100D01*
G01X6853100Y-6004700D02*
Y-6085900D01*
X6707000Y-6232000D01*
Y-6252000D01*
G01X6750600Y-5408200D02*
X6802200D01*
X6823100Y-5429100D01*
X6850400D01*
G01X6750600Y-5312200D02*
X6776800D01*
X6795600Y-5293400D01*
X6805940D01*
X6806340Y-5293000D01*
X6850400D01*
G01X7175700Y-5907700D02*
X7230640D01*
X7231640Y-5908700D01*
X7275700D01*
G01X7375700Y-6004700D02*
Y-6127700D01*
X7316600Y-6186800D01*
Y-6252000D01*
G01X7620000Y-6260000D02*
Y-6390000D01*
G01D02*
X7651700D01*
X7671700Y-6410000D01*
X7730000D01*
G01X7863400Y-3622000D02*
Y-3665000D01*
X7853900Y-3674500D01*
Y-3717200D01*
G54D56*
G01X1665200Y-3825500D02*
Y-4175500D01*
G01X4126800Y-7239100D02*
X4473100D01*
G01X4126600Y-1891200D02*
X4476600D01*
G01X7077000Y-1720000D02*
X6986100D01*
X6973500Y-1732600D01*
Y-1756700D01*
X6955700Y-1774500D01*
X6899700D01*
X6887500Y-1786700D01*
Y-1819400D01*
G01X6881800Y-1940100D02*
Y-1882700D01*
X6903600Y-1860900D01*
X6948400D01*
X6989300Y-1820000D01*
X7077000D01*
G01X6806600Y-1739400D02*
Y-1713400D01*
X6817300Y-1702700D01*
X6903800D01*
X6986500Y-1620000D01*
X7077000D01*
G01Y-1420000D02*
X6970000D01*
X6918600Y-1368600D01*
X6766600D01*
X6732600Y-1334600D01*
Y-1285600D01*
X6700600Y-1253600D01*
Y-1064000D01*
G01X7077000Y-1120000D02*
X6951500D01*
X6938300Y-1106800D01*
Y-1084100D01*
X6928300Y-1074100D01*
X6811400D01*
X6801400Y-1064100D01*
Y-1044100D01*
X6811400Y-1034100D01*
X6845600D01*
X6855600Y-1024100D01*
Y-1004700D01*
X6865600Y-994700D01*
X6885600D01*
X6895600Y-1004700D01*
Y-1024100D01*
X6905600Y-1034100D01*
X6928300D01*
X6938300Y-1024100D01*
Y-988900D01*
X6909400Y-960000D01*
X6792600D01*
X6782600Y-950000D01*
Y-902100D01*
X6752200Y-871700D01*
X6689700D01*
X6661900Y-899500D01*
Y-948800D01*
X6671900Y-958800D01*
X6743200D01*
X6759900Y-975500D01*
Y-995000D01*
G01X6812100Y-1231500D02*
Y-1203800D01*
X6801500Y-1193200D01*
X6771600D01*
X6763200Y-1184800D01*
Y-1109400D01*
X6773110Y-1099490D01*
X6787250D01*
X6795130Y-1107370D01*
Y-1156900D01*
X6805130Y-1166900D01*
X6823000D01*
X6829000Y-1160900D01*
Y-1111100D01*
X6839000Y-1101100D01*
X6851300D01*
X6861300Y-1111100D01*
Y-1133800D01*
X6871300Y-1143800D01*
X6887100D01*
X6897100Y-1153800D01*
Y-1173800D01*
X6887100Y-1183800D01*
X6871300D01*
X6861300Y-1193800D01*
Y-1232470D01*
X6871300Y-1242470D01*
X6913800D01*
X6923800Y-1252470D01*
Y-1272470D01*
X6913800Y-1282470D01*
X6871300D01*
X6861300Y-1292470D01*
Y-1316100D01*
X6870800Y-1325600D01*
X6947300D01*
X6957300Y-1315600D01*
Y-1249500D01*
X6986800Y-1220000D01*
X7077000D01*
G01X7174700Y-1720000D02*
X7077000D01*
G01Y-1820000D02*
X7174700D01*
G01X7491700Y-4185100D02*
Y-3828400D01*
G54D47*
X7188800Y-671000D03*
Y-591000D03*
X7558100Y-621200D03*
Y-701200D03*
X7433000Y-671000D03*
Y-591000D03*
X7311200Y-671000D03*
Y-591000D03*
X7806200Y-670200D03*
Y-590200D03*
X7686200Y-671000D03*
Y-591000D03*
X7926800Y-670200D03*
Y-590200D03*
G54D38*
X5981100Y-4193700D03*
X6696100D03*
X7072000Y-4195000D03*
X7989000D03*
G54D29*
X4558500Y-6808000D03*
X4623500D03*
X4688500D03*
X4753500D03*
X4558500Y-6258000D03*
X4623500D03*
X4688500D03*
X4753500D03*
X4818500Y-6808000D03*
X4883500D03*
X4948500D03*
X5013500D03*
X4818500Y-6258000D03*
X4883500D03*
X4948500D03*
X5013500D03*
G54D66*
G01X8141220Y-6975870D02*
X8189050Y-7023700D01*
G01X8337700Y-4600400D02*
X8290000Y-4648100D01*
Y-4660000D01*
G54D57*
G01X1682100Y-6240100D02*
X1582200D01*
G01X2080300Y-4938400D02*
Y-4871800D01*
X2046100Y-4837600D01*
X1981900D01*
G01X2283200Y-4838400D02*
Y-4782400D01*
X2284200Y-4781400D01*
Y-4738700D01*
G01X2082200Y-4536600D02*
Y-4593200D01*
X2082100Y-4593300D01*
Y-4641000D01*
G01X2486300Y-5039100D02*
Y-4910100D01*
X2414600Y-4838400D01*
X2379200D01*
G01X3544600Y-6434500D02*
X3222500D01*
X3183900Y-6395900D01*
Y-6381400D01*
X3184000Y-6381300D01*
Y-6338600D01*
G01X3544600Y-6884500D02*
Y-6917200D01*
X3548300Y-6920900D01*
Y-7049600D01*
G01X3544600Y-6784500D02*
X3640200D01*
X3788900Y-6933200D01*
X3931300D01*
X4031700Y-7033600D01*
G01X3544600Y-6634500D02*
X3642300D01*
X3820400Y-6812600D01*
X4036500D01*
G01X3544600Y-6534500D02*
X3654800D01*
X3766100Y-6645800D01*
X3932100D01*
G01X3544600Y-6484500D02*
X3442900D01*
X3425600Y-6501800D01*
G01X3544600Y-6434500D02*
X3655400D01*
X3729200Y-6508300D01*
X4065500D01*
G01X3544600Y-6334500D02*
X3725000D01*
X3787600Y-6271900D01*
X3870500D01*
G01X4089900Y-6337300D02*
X4012200D01*
X3924100Y-6425400D01*
X3783700D01*
X3742800Y-6384500D01*
X3544600D01*
G01Y-6234500D02*
Y-6201800D01*
X3543700Y-6200900D01*
Y-6033900D01*
G01X3544600Y-6284500D02*
X3642300D01*
X3770200Y-6156600D01*
X4018700D01*
G01X4753500Y-6258000D02*
Y-6178940D01*
X4789540Y-6142900D01*
X4849760D01*
X4882600Y-6110060D01*
Y-6061000D01*
G01X4688500Y-6258000D02*
Y-6110660D01*
X4689800Y-6109360D01*
Y-6060300D01*
G01X4623500Y-6258000D02*
Y-6141760D01*
X4591100Y-6109360D01*
Y-6060300D01*
G01X5013500Y-6808000D02*
X5074340D01*
X5098140Y-6784200D01*
X5142200D01*
G01X4883500Y-6808000D02*
Y-6718700D01*
X4914000Y-6688200D01*
X5142200D01*
G01X5272400Y-5674600D02*
X5218340D01*
X5192640Y-5700300D01*
X5129300D01*
G01X5274400Y-5410900D02*
X5129300D01*
G01X5274400Y-5310900D02*
X5182160D01*
X5178360Y-5314700D01*
X5129300D01*
G01X5591000Y-6003100D02*
Y-6148300D01*
X5632000Y-6189300D01*
Y-6252000D01*
G01X5420400Y-5674600D02*
X5478500D01*
X5507000Y-5703100D01*
X5537640D01*
X5538040Y-5703500D01*
X5587100D01*
G01X5420400Y-5574600D02*
X5475900D01*
X5542800Y-5507700D01*
X5587100D01*
G01X6228800Y-5225400D02*
X6049800D01*
X6019400Y-5195000D01*
Y-5147300D01*
G01X6092400Y-1699900D02*
Y-1747600D01*
X6073900Y-1766100D01*
X6040100D01*
X6009700Y-1796500D01*
Y-1991400D01*
X5930200Y-2070900D01*
Y-2179700D01*
G01X6252000Y-6252000D02*
Y-6189300D01*
X6172300Y-6109600D01*
Y-6004700D01*
G01X6250500Y-2203100D02*
Y-2132600D01*
X6250200Y-2132300D01*
Y-2099600D01*
G01X6331800Y-2179500D02*
X6298300D01*
X6274700Y-2203100D01*
X6250500D01*
G01X6092400Y-1699900D02*
Y-1653900D01*
X6090600Y-1652100D01*
Y-1619400D01*
G01X6038300Y-1305800D02*
Y-1108200D01*
X6154600Y-991900D01*
X6326200D01*
G01D02*
X6386400D01*
X6387400Y-992900D01*
G01X6753100Y-6004700D02*
Y-6057400D01*
X6642000Y-6168500D01*
Y-6252000D01*
G01X6652200Y-1380900D02*
X6615600D01*
X6614900Y-1380200D01*
X6572200D01*
G01X6387400Y-992900D02*
X6388400Y-991900D01*
X6447900D01*
G01D02*
X6508600D01*
X6509600Y-992900D01*
G01X6891500Y-496100D02*
Y-567000D01*
X6844900Y-613600D01*
X6659000D01*
X6602000Y-670600D01*
Y-940500D01*
X6549600Y-992900D01*
X6509600D01*
G01X6732000Y-1619700D02*
X6758500D01*
X6786400Y-1591800D01*
X6807300D01*
G01X6891500Y-496100D02*
Y-374000D01*
X6861200Y-343700D01*
X6770100D01*
G01X7251600Y-6252000D02*
Y-6114600D01*
X7275700Y-6090500D01*
Y-6004700D01*
G01X7491000Y-7235000D02*
Y-7185060D01*
X7480000Y-7174060D01*
Y-7125000D01*
G01X7386300Y-2520500D02*
Y-2589700D01*
G01X7588000Y-7017400D02*
X7666900D01*
X7707230Y-6977070D01*
X7746870D01*
X7780600Y-6943340D01*
G01X7890900Y-6654840D02*
X7756060Y-6520000D01*
X7620000D01*
G01X7784840Y-6760900D02*
X7673940Y-6650000D01*
X7620000D01*
G01Y-6520000D02*
Y-6650000D01*
G01X7778400Y-6640500D02*
Y-6683200D01*
X7786460Y-6691260D01*
Y-6691820D01*
X7820190Y-6725550D01*
G01X7575900Y-2520100D02*
Y-2589700D01*
G01X7766600Y-2520300D02*
Y-2589200D01*
X7767100Y-2589700D01*
G01X7671500Y-2521200D02*
Y-2589700D01*
G01X7863200Y-2520500D02*
Y-2589700D01*
G01X8345000Y-7081000D02*
Y-7028300D01*
X8294470Y-6977770D01*
X8213840D01*
X8176580Y-6940510D01*
G01X8070510Y-7046580D02*
X8155000Y-7131070D01*
Y-7181000D01*
G54D48*
X7480000Y-7125000D03*
X7600000D03*
X7720000Y-5365000D03*
X7600000D03*
X7720000Y-5215000D03*
X7600000D03*
G54D39*
X6013100Y-2406600D03*
Y-2336600D03*
X5969500Y-970400D03*
Y-900400D03*
X5889700Y-670000D03*
Y-740000D03*
X5889500Y-411400D03*
Y-341400D03*
X6331800Y-2249500D03*
Y-2179500D03*
X6332100Y-2089300D03*
Y-2019300D03*
X6172000Y-2249500D03*
Y-2179500D03*
X6252000Y-1698500D03*
X6332000D03*
Y-1473300D03*
Y-1543300D03*
X6252000Y-1473300D03*
Y-1543300D03*
Y-1628500D03*
X6332000D03*
X6131800Y-1462000D03*
Y-1532000D03*
X6326200Y-1061900D03*
Y-991900D03*
X6049800Y-895500D03*
Y-825500D03*
X6049900Y-329900D03*
Y-259900D03*
X6210000Y-329900D03*
Y-259900D03*
X6651900Y-2406700D03*
Y-2336700D03*
X6492200Y-2030600D03*
Y-2100600D03*
X6651900Y-2250900D03*
Y-2180900D03*
X6412200Y-2030600D03*
Y-2100600D03*
X6651400Y-2089300D03*
Y-2019300D03*
X6571900Y-2089300D03*
Y-2019300D03*
X6412000Y-1698500D03*
X6492100D03*
X6572200D03*
X6652000D03*
X6412000Y-1473300D03*
Y-1543300D03*
X6652200Y-1380900D03*
X6412000Y-1628500D03*
X6492100D03*
X6572200D03*
X6652000D03*
X6492100Y-1473300D03*
Y-1543300D03*
X6572200Y-1473300D03*
Y-1543300D03*
X6652000Y-1473300D03*
Y-1543300D03*
X6509600Y-1062900D03*
X6652200Y-1310900D03*
X6387400Y-1062900D03*
X6447900Y-1061900D03*
X6509600Y-992900D03*
X6387400D03*
X6447900Y-991900D03*
X6530300Y-589700D03*
Y-659700D03*
X6449800Y-670800D03*
Y-740800D03*
X6608400Y-413700D03*
Y-343700D03*
X6732000Y-1619700D03*
Y-1549700D03*
X6759900Y-1065000D03*
X6812100Y-1231500D03*
Y-1301500D03*
X6700600Y-1064000D03*
X6769800Y-745100D03*
Y-815100D03*
X6759900Y-995000D03*
X6700600Y-994000D03*
X6770100Y-413700D03*
Y-343700D03*
X6690400Y-413700D03*
Y-343700D03*
X7050000Y-632500D03*
Y-562500D03*
G54D67*
G01X874000Y-4836300D02*
Y-4951600D01*
X863900Y-4961700D01*
Y-5009400D01*
G54D58*
G01X7481300Y-2589700D02*
X7575900D01*
G01X7291400D02*
X7386300D01*
G01X7960800Y-2588700D02*
X7906900D01*
X7905900Y-2589700D01*
X7863200D01*
G01X8057600Y-2588700D02*
X8108700D01*
X8109700Y-2589700D01*
X8152400D01*
G01X8249800Y-2588700D02*
X8301300D01*
X8302300Y-2589700D01*
X8345000D01*
G54D49*
X7375000Y-4729000D03*
X7725000D03*
G54D68*
G01X2390300Y-5039100D02*
Y-5137600D01*
X2391300Y-5138600D01*
G01X5704900Y-7504400D02*
Y-7431700D01*
G01X5867000Y-6003700D02*
X5969700D01*
G01X6828100Y-7504400D02*
Y-7452600D01*
X6828200Y-7452500D01*
Y-7431700D01*
G01X7435300Y-185800D02*
X7377600D01*
G01X7806200D02*
Y-173300D01*
X7844200Y-135300D01*
X7882700D01*
G54D59*
G01X2236200Y-6833000D02*
X2333700D01*
G01X2129300D02*
X2236200D01*
G01X2743900Y-6680900D02*
X2690000D01*
X2689700Y-6681200D01*
X2612000D01*
G01X2743900Y-6847000D02*
X2691500D01*
X2690900Y-6847600D01*
X2613200D01*
G01X3288900Y-7313600D02*
Y-7449500D01*
G01X4992500Y-1642800D02*
X5041300D01*
X5089300Y-1690800D01*
X5140700D01*
G01X4992400Y-1946000D02*
X5041800D01*
X5090800Y-1897000D01*
X5140700D01*
G01X5645600Y-1643800D02*
X5596100D01*
X5549100Y-1690800D01*
X5490700D01*
G01Y-1897000D02*
X5539700D01*
X5587700Y-1945000D01*
X5645600D01*
G01Y-1739800D02*
Y-1849000D01*
G01X5793400Y-1939000D02*
X5889600D01*
X5890100Y-1938500D01*
X5932800D01*
G01X7311000Y-392200D02*
X7186600D01*
G01X7435300Y-281800D02*
Y-392200D01*
G01D02*
X7311000D01*
G01X7435300D02*
X7682900D01*
G01X7806200Y-281800D02*
Y-392200D01*
G01X7682900D02*
X7806200D01*
G01D02*
X7928500D01*
M02*
