M48
METRIC,TZ
T01C.15
T02C.2
T03C1.
T04C3.2
;LEADER: 12 
;HEADER: 
;CODE  : ASCII 
;FILE  : FMDEMOD-57-2-10.drl for board G:/github/PLL_FM_HW/PCB/#Taaaadw10696.tmp ... layers GND-L2 and BOTTOM
;T02 Holesize 1. = 0.200000 Tolerance = +0.000000/-0.000000 PLATED MM Quantity = 27
%
G90
T02
X7989000Y-4195000
X8440300Y-2685700
X8345000
X8249800Y-2902000
X7960800
X7863200Y-2685700
Y-2902000
X7433100Y-3622000
X7318500
X7196900Y-2685700
X7103900
X7008700
X6939200Y-3327100
X6913400Y-2894900
X6912600Y-2685700
X6816000
X6595100Y-3622000
X4524800Y-3282900
X4772500Y-1842300
X4772600Y-1721800
X4773800Y-1599900
X4772800Y-1422500
Y-1297400
X4766800Y-1032200
Y-910900
X5017700Y-177000
X5149300
M30
