M48
METRIC,TZ
T01C.15
T02C.2
T03C1.
T04C3.2
;LEADER: 12 
;HEADER: 
;CODE  : ASCII 
;FILE  : FMDEMOD-57-1-2.drl for board G:/github/PLL_FM_HW/PCB/#Taaaadw10696.tmp ... layers TOP and GND-L2
;T01 Holesize 1. = 0.150000 Tolerance = +0.000000/-0.000000 PLATED MM Quantity = 185
;T02 Holesize 2. = 0.200000 Tolerance = +0.000000/-0.000000 PLATED MM Quantity = 379
%
G90
T01
X560100Y-1306900
X612200Y-1319600
X519900Y-1324300
X513200Y-1364600
X715700Y-2652100
X713000Y-2694400
X616700Y-2697100
X685600Y-2727400
X1581300Y-1306500
X1633000Y-1319600
X1543000Y-1325000
X1534000Y-1364600
X1735000Y-2652100
X1731200Y-2696300
X1636000Y-2697100
X1699300Y-2723200
X1232000Y-4388700
X1832000Y-4588700
X1632000
Y-4788700
X1432000
R02Y-200000
X1932000Y-5288700
Y-5388700
X1732000
X1432000
Y-5488700
Y-5688700
X1532000Y-5788700
X1732000Y-6088700
X1432000
X1932000Y-6288700
X1732000
X1532000
X1832000Y-6388700
X1232000Y-6488700
X1931000Y-7065300
Y-7365300
Y-7565300
X2631000Y-7465300
Y-7415300
Y-7065300
X2256000Y-6940300
X2132000Y-6288700
X2432000
R03X200000
X2832000Y-6088700
X2532000Y-5788700
X2032000Y-5688700
X2632000
X2132000Y-5588700
R03X100000
X2132000Y-5488700
R03X100000
X2632000
X2132000Y-5388700
X2232000
R02X100000
X2132000Y-5288700
R03X100000
X2632000
X2032000Y-5088700
X2232000
X2432000
X2132000Y-4988700
X2932000Y-4788700
X2032000Y-4688700
X2532000
X2232000Y-4588700
X2732000
X2932000
X2717900Y-2723700
X2660500Y-2697100
X2749400Y-2693200
X2759500Y-2652100
X2562500Y-1364600
X2570800Y-1325200
X2661500Y-1319600
X2609800Y-1307200
X3638000Y-1306400
X3684800Y-1319600
X3596000Y-1322000
X3585800Y-1364600
X3792000Y-2652100
X3780100Y-2692700
X3693000Y-2697100
X3749200Y-2724500
X3332000Y-4388700
X3132000Y-4588700
R02Y-200000
Y-5088700
Y-5388700
Y-5488700
Y-5688700
X3769900Y-5890200
X3332000Y-5988700
X3132000Y-6088700
X3232000Y-6388700
X3332000Y-6488700
X5100700Y-4550000
X5812000Y-2460000
X5972000
Y-2380000
X5812000Y-2220000
X5892000
X5972000Y-1980000
Y-1660000
R02Y160000
X5812000Y-1180000
X5930000Y-860000
X6090000
X5930000Y-700000
X6090000Y-300000
X5850000Y-220000
X5930000
X7050000
X6890000
X6730000
X6330000
X6250000
X6330000Y-300000
X6170000
X6490000Y-780000
X6170000
X7050000Y-860000
R02X-160000
X6330000
X6170000
X7092000Y-1180000
X6932000Y-1340000
X6612000
X6292000
X6132000
X6612000Y-1500000
X6452000
X6132000
X6692000Y-1580000
X6932000Y-1660000
X6692000
R07X-80000
X6772000Y-1740000
X6692000
X6212000
X6692000Y-1820000
X6212000
X6692000Y-1900000
X6212000
X6932000Y-1980000
X6772000
X6692000
X6212000
X6692000Y-2060000
X6612000
R05X-80000
X6932000Y-2300000
X6612000
X7092000Y-2460000
X6200700Y-4550000
X6440100Y-4990300
Y-5040300
Y-5490300
X8033740Y-6619480
T02
X1586000Y-7840500
X2117900Y-7771900
X2356000Y-7716100
X2506000
X2821400Y-7663000
X6087300Y-7783400
X6088400Y-7701900
X6087300Y-7623400
X7311800Y-7783400
Y-7623400
X8427000Y-7035000
X8023600Y-6898600
X7979900Y-6967000
X7938400Y-6897700
X7845000Y-7327000
X7655000Y-7167000
X7265700Y-7054600
X7264200Y-6888100
X7265000Y-6972000
X7040500Y-7504300
X6313000Y-7215000
X6215000Y-6968000
X6214500Y-7050000
X6214000Y-6881900
X6164600Y-7504300
X6056800Y-7055100
X6054700Y-6893800
X6055000Y-6972000
X5101800Y-7504300
X5053000Y-7215000
X5024900Y-6875500
X5025000Y-6968000
X5025200Y-7049000
X4927200Y-7504900
X4763900Y-7199100
X4129100Y-7201900
X4128200Y-6992500
X4099400Y-7157400
X4095600Y-7249800
X3760500Y-7054800
X3760700Y-7151400
X3726900Y-7103000
X3692300Y-7055800
X3692500Y-7151800
X3570400Y-7531000
X3459800Y-7165000
X3211000Y-6925000
X2920800Y-7446900
X2904900Y-7171500
X2883600Y-6859600
X2780300Y-7075200
X1786500Y-7025900
X1699300Y-7414400
X1662700Y-6906900
X1641600Y-7155700
X1588000Y-7530500
X1412600Y-7292800
X1326100Y-7252500
X1228800
X839700Y-7239500
X458700
X331700Y-6719500
X349900Y-6383000
X458700Y-6719500
X670400Y-6384600
X669400Y-6256300
X839700Y-6719500
X866500Y-6256300
X888500Y-6498400
X1093700Y-6719500
X1402700Y-6731200
X1647900Y-6811300
X1916400Y-6746800
X2025600Y-6716200
X2650600Y-6697900
X2905700Y-6747400
X3189000Y-6810000
Y-6680000
X3515900Y-6388200
X3529000Y-6680000
X3781900Y-6541300
X3965900Y-6680000
X4127500Y-6786000
Y-6578800
X4642200Y-6789000
X4763900Y-6659100
X5006200Y-6349500
X5179500Y-6634900
X5300000Y-6300000
X5475600Y-6821300
X5476600Y-6708400
X5507900Y-6570700
X5540000Y-6760000
X5590000Y-6819200
X5592100Y-6696000
X5780000Y-6300000
X5880000Y-6690000
R02Y130000
X6133000Y-6300000
X6249000Y-6690000
X6250000Y-6430000
X6360500Y-6406000
X6500000Y-6300000
X6673400Y-6706600
X6678600Y-6820300
X6708000Y-6570700
X6740000Y-6760000
X6795100Y-6821100
X6798200Y-6698900
X6980000Y-6300000
X7080000Y-6690000
R02Y130000
X7449000Y-6690000
X7450000Y-6430000
X7565000Y-6404600
X7868100Y-6849700
X7934600Y-6806100
X7980000Y-6850000
X7979800Y-6736900
X8023600Y-6802800
X8091300Y-6850000
X8188000Y-6260000
X8450000Y-6660000
R02Y130000
X8429000Y-5805000
X8428000Y-5905000
X8085000Y-5970000
X7670000Y-5850000
Y-5980000
X7553000Y-6095000
X7405000Y-5970000
X6872000Y-6085000
X6871000Y-5855000
X6850000Y-5970000
X6748500Y-5855000
X6726500Y-5738600
X6680000Y-5984400
X6182500Y-6008800
X5007000Y-5887700
X4668400Y-5449200
Y-5760100
X4620300Y-5957700
X3561300Y-5470600
X3535000Y-5729000
X1007500Y-5512100
X865700Y-5827300
X746200Y-5563600
Y-5657600
X222700Y-5740300
X209070Y-5535830
X193500Y-5051700
X488020Y-5256880
X951800Y-5298900
X1048700
X3586400Y-5263500
X3626300Y-5085000
X3660900Y-5278500
X3736800Y-5294600
X3735300Y-4653500
X3954100Y-4890400
X4665900Y-4616900
X4668400Y-4924100
X6681000Y-4646300
X6799000Y-4988300
Y-4889600
X6245900Y-4372400
X5711900
X5292100
X4953500
X3533200Y-4352200
X3232000Y-4388700
X3142600Y-4187600
X2979600
X2366800
X2333000Y-3835300
X2283200Y-3819600
X2232500Y-3835900
X1967500Y-4187600
X1357900
X1305500Y-3834900
X1255800Y-3819600
X1206100Y-3835100
X1159200Y-4187600
X683300Y-4370000
X574300Y-4572500
X1028900Y-3677700
X1027700Y-3583000
X1045100Y-3531500
X1063500Y-3479600
X1420400Y-3531000
X1854700Y-3677700
X2021100Y-3584100
X2038900Y-3531500
X2056500Y-3480000
X2451300Y-3531000
X2861600Y-3677700
X3071100Y-3531500
X3088000Y-3583700
X3088600Y-3479000
X3594000Y-3582600
X3611300Y-3531500
X3617500Y-3677700
X3628500Y-3479800
X6508300Y-3249900
X6511600Y-3407200
X6517900Y-3331600
X6583900Y-3259200
X6589400Y-3402700
X6590000Y-3330000
X6660800Y-3331600
X6667800Y-3410200
X6666700Y-3250600
X7035400Y-3123300
X7313900Y-3405500
X7312100Y-3332600
X7833100Y-3516800
X7442400Y-2844400
X7035200Y-3028800
X6614700Y-2861000
X6373500Y-2860000
X6232500Y-2872000
X6229400Y-2779500
X6200100Y-2825900
X6167000Y-2777500
X6167500Y-2871300
X5847100Y-2734500
X4134500Y-2649700
X4035500Y-2295500
X3734400Y-2677500
X3375300Y-2768400
X3355100Y-3002100
X3303000Y-2984500
X3250400Y-2966300
X3241000Y-2382600
X3099300Y-2649700
X2999300Y-2295500
X2701400Y-2677800
X2338100Y-2768400
X2335900Y-3001800
X2284200Y-2984500
X2232000Y-2966700
X2218700Y-2382600
X2080100Y-2649700
X1981700Y-2295500
X1676800Y-2676400
X1317100Y-2768400
X1309900Y-3003000
X1256800Y-2984500
X1203000Y-2965500
X1190300Y-2382600
X1062900Y-2649700
X965400Y-2295500
X662000Y-2685800
X294600Y-2768400
X274300Y-3002500
X221300Y-2984500
X169000Y-2382600
X168800Y-2966700
X171300Y-2171500
X171100Y-2066300
Y-1935200
X171900Y-1830100
X189200Y-2118900
Y-1882500
X260900Y-1710600
X488600Y-2283200
X513600Y-1722400
X712800Y-2283200
X735300Y-1722400
X1035200Y-2119900
Y-1883500
X1052800Y-2173300
X1052200Y-1935200
X1052600Y-1830900
X1053300Y-2066700
X1055800Y-1627800
X1190300Y-2172100
Y-2066100
X1191200Y-1934900
X1190200Y-1829400
X1208300Y-2118900
Y-1882500
X1281800Y-1710600
X1498200Y-2283200
X1534500Y-1722400
X1732000Y-2283200
X1759700Y-1722400
X2057900Y-2119900
Y-1883500
X2076000Y-2172600
X2075800Y-2067200
X2075400Y-1935800
X2075200Y-1831900
X2078900Y-1627800
X2221200Y-2170200
X2221600Y-2066700
X2221300Y-1933600
X2221400Y-1830300
X2238800Y-2118900
Y-1882500
X2311100Y-1710600
X2536200Y-2283200
X2562900Y-1722400
X2756600Y-2283200
X2785100Y-1722400
X3084900Y-2119900
Y-1883500
X3102600Y-2172200
X3102900Y-2067300
X3103400Y-1937500
X3103500Y-1829800
X3104700Y-1627800
X3242600Y-2172600
X3243000Y-2065400
X3242900Y-1935200
X3242800Y-1829200
X3261200Y-2118900
Y-1882500
X3336900Y-1710600
X3560100Y-2283200
X3585900Y-1722400
X3789400Y-2283200
X3808300Y-1722400
X4109600Y-2119900
Y-1883500
X4127600Y-2173100
X4127200Y-2067200
X4127600Y-1936200
Y-1829900
X4130200Y-1627800
X5515900Y-1666500
X5611900Y-1777100
X4133500Y-1011400
X4082500Y-995100
X4030200Y-977500
X4002500Y-1212900
X3645500Y-1348100
X3234900Y-1369600
X3109100Y-1013000
X3056500Y-995100
X3003700Y-977000
X2979600Y-1211600
X2621100Y-1347200
X2212500Y-1369600
X2079900Y-1012800
X2027400Y-995100
X1974400Y-976900
X1950800Y-1211600
X1182400Y-1369600
X1055300Y-1012700
X1003000Y-995100
X951100Y-977400
X928600Y-1213500
X572800Y-1348800
X163400Y-1369600
X679400Y-513200
X694200Y-464400
X710100Y-413200
X915800Y-164900
X1047900
X1702400Y-514200
X1718100Y-464400
X1734000Y-413500
X1938800Y-164900
X2072100
X2708300Y-514400
X2723300Y-464400
X2739300Y-413300
X2944500Y-164900
X3078700
X3245300Y-515300
X3261600Y-464400
X3278000Y-413000
X3476200Y-165000
X3613300
X5000800Y-661300
M30
