M48
METRIC,TZ
T01C.15
T02C.2
T03C1.
T04C3.2
;LEADER: 12 
;HEADER: 
;CODE  : ASCII 
;FILE  : FMDEMOD-57-7-10.drl for board G:/github/PLL_FM_HW/PCB/#Taaaadw10696.tmp ... layers SIGNAL-L7 and BOTTOM
;T01 Holesize 1. = 0.150000 Tolerance = +0.000000/-0.000000 PLATED MM Quantity = 34
;T02 Holesize 2. = 0.200000 Tolerance = +0.000000/-0.000000 PLATED MM Quantity = 30
%
G90
T01
X4818500Y-6258000
X4883500
X7600000Y-7125000
X7745240Y-6907980
X7753020Y-6792720
X7815950Y-6978690
X7851310Y-7014050
X7886660Y-7049400
X8037980Y-6615240
X8073340Y-6650600
X8108690Y-6685950
X8144050Y-6721310
X8179400Y-6756660
X8015100Y-3212300
X8141300
X8249800Y-2588700
X7863200Y-2520500
X7766600Y-2520300
X7703000Y-2798500
X7671500Y-2521200
X7575900Y-2520100
X7386300Y-2520500
X7196900Y-2589700
X7103900
X7008700
X6913400Y-2798900
X6912600Y-2589700
X6816000
X6562500Y-468500
X6492500
X6338500Y-815700
X6242500
X6003800Y-468500
X5933800
T02
X4125000Y-7366200
X4812400Y-7117900
X4911600
X4474800Y-5779300
X4591100Y-5964300
X5033300Y-5314700
X5033200Y-5219100
X5136600Y-4828000
X5422400Y-5410900
X5491000Y-5906100
X5683100Y-5507700
Y-5409500
X5969700Y-6003700
X6072300Y-5907700
X6653100
X7080000Y-4800000
X7220000
X7870000
X8010000
X8214760Y-6792020
X7603000Y-2799200
X5825600Y-3825600
X4980500
X4852500Y-1842300
X4852600Y-1721800
X4853800Y-1599900
X4852800Y-1422500
Y-1297400
X5490700Y-1897000
Y-1690800
M30
