M48
METRIC,TZ
T01C.15
T02C.2
T03C1.
T04C3.2
;LEADER: 12 
;HEADER: 
;CODE  : ASCII 
;FILE  : FMDEMOD-57-3-10.drl for board G:/github/PLL_FM_HW/PCB/#Taaaadw10696.tmp ... layers SIGNAL-L3 and BOTTOM
;T01 Holesize 1. = 0.150000 Tolerance = +0.000000/-0.000000 PLATED MM Quantity = 15
;T02 Holesize 2. = 0.200000 Tolerance = +0.000000/-0.000000 PLATED MM Quantity = 42
%
G90
T01
X1582200Y-6336100
Y-6240100
X2080300Y-4938400
X2283200Y-4838400
X2082100Y-4641000
X2182100Y-4440400
X2673600Y-4364400
X2487700Y-4685300
X2390300Y-5039100
X4558500Y-6258000
X5272400Y-5574600
X5422400Y-5310900
X6811800Y-1940100
X6817500Y-1819400
X6736600Y-1739400
T02
X205600Y-7095500
X331300
X585900Y-7096500
X713400
X966400
X5502000Y-6652000
X7120000Y-6950000
X7310000
X7275700Y-5908700
X6228800Y-5225400
X5033300Y-5604000
X4975600Y-5965500
X4786900Y-5964300
X4732700Y-5390400
X4475400Y-5093700
X4126000Y-5096900
X4124600Y-5297000
X4124100Y-5507400
X4125900Y-5782500
X4124600Y-4877700
X4124500Y-4710500
X4472800Y-4880100
X5139300Y-4175600
X5329900Y-4174400
X6480100Y-3717200
X6690900Y-3622000
X6692100Y-3717200
X6899800Y-3680500
X7035100Y-3123100
X7109500Y-3680500
X7319500Y-3717200
X7529100Y-3622000
X7530100Y-3717200
X7738400
X7949900
X8345000Y-2901000
X8249800Y-2684700
X8057600
X7960800
X4474600Y-1650000
X4846800Y-1032200
Y-910900
M30
