M48
METRIC,TZ
T01C.15
T02C.2
T03C1.
T04C3.2
;LEADER: 12 
;HEADER: 
;CODE  : ASCII 
;FILE  : FMDEMOD-57-1-3.drl for board G:/github/PLL_FM_HW/PCB/#Taaaadw10696.tmp ... layers TOP and SIGNAL-L3
;T01 Holesize 1. = 0.150000 Tolerance = +0.000000/-0.000000 PLATED MM Quantity = 171
;T02 Holesize 2. = 0.200000 Tolerance = +0.000000/-0.000000 PLATED MM Quantity = 90
%
G90
T01
X2631000Y-7115300
R05Y-50000
X1931000Y-7515300
X1632000Y-6188700
X2056000Y-6940300
R03X50000
X2532000Y-6488700
Y-6388700
X2632000Y-6488700
Y-6388700
X2932000
X3032000Y-6488700
Y-6388700
X3132000Y-6488700
Y-6388700
Y-6188700
X3232000Y-6488700
Y-6288700
Y-6188700
X3332000Y-6288700
Y-6188700
X3769900Y-6388200
X3833400
R02X63500
X5507600Y-7111600
X5508100Y-7009000
X5703000Y-7107600
X5702700Y-7007700
X6577700Y-7111200
X6577600Y-7004100
X6707500Y-7108200
X6707400Y-7008800
X6903200Y-7107700
X6902700Y-7009400
X7745240Y-6792020
X7780600Y-6756660
X7851310Y-6685950
X7922020Y-6615240
X8073340Y-7049400
X8108690Y-7014050
X8144050Y-6978690
X8214760Y-6907980
X6441000Y-5789900
X6440100Y-5090300
Y-5290300
Y-5590300
Y-5740300
Y-5840200
Y-5890300
Y-5940300
X4859900Y-5340200
Y-5490200
X3960400Y-5890200
R02X-63500
X3332000Y-5088700
Y-5188700
Y-5688700
R02Y-100000
Y-6088700
X3232000Y-5088700
Y-5188700
Y-6088700
X1332000Y-5088700
X1232000
Y-4988700
R02Y100000
X1332000Y-4988700
R02Y100000
Y-4388700
X2132000Y-4588700
X2232000Y-4888700
Y-4788700
Y-4388700
X2332000Y-4888700
X3232000Y-4988700
Y-4888700
X3332000Y-4988700
R04Y100000
X5150700Y-4550000
R02X50000
X5450700
X5550700
X5850700
X6250700
X6389000Y-3455000
R02Y50000
X6515000Y-3127000
X6665000
X6715000Y-3534000
Y-3127000
X6793000Y-3255000
X7515000Y-3534000
X7593000Y-3255000
X7092000Y-2300000
Y-2380000
X7012000Y-2300000
Y-2460000
X6852000Y-2380000
X6518100Y-2860000
X6052000Y-2300000
X5961800Y-2638600
X3592000Y-2552100
X2559500
X1535000
X1402200Y-2283200
X515700Y-2552100
X713200Y-1464600
X1734000
X2762500
X3785800
X5812000Y-1340000
X5892000Y-1820000
Y-1420000
X5972000Y-1740000
Y-1420000
Y-1260000
X6052000Y-1500000
X6132000Y-1980000
Y-1820000
Y-1180000
X6212000Y-1420000
X6372000Y-1500000
Y-1260000
X6532000Y-1420000
Y-1340000
R02Y80000
X6612000Y-1260000
X6772000Y-1580000
X6852000Y-1660000
Y-1580000
X6932000Y-1260000
X7012000Y-1660000
Y-1180000
X7092000Y-1660000
Y-1260000
X8230000Y-655000
X8180000
R02X-50000
X7930000Y-654800
X7050000Y-700000
X6970000Y-300000
Y-780000
X6890000Y-380000
X6810000Y-300000
X6730000Y-380000
Y-700000
X6650000Y-380000
X6570000Y-860000
X6170000Y-700000
X6010000
Y-780000
X5930000Y-300000
X5850000Y-380000
T02
X204700Y-7239500
X331700
X585700
X712700
X966700
X4126200Y-7442400
X5569800Y-7783400
X5571000Y-7701100
X5569800Y-7623400
X5915200Y-7783400
X5915700Y-7701200
X5915200Y-7623400
X6435000Y-7783400
Y-7623400
X6610300Y-7783400
Y-7623400
X6961900Y-7783400
Y-7623400
X8320000Y-7135000
X8206980Y-6792720
X8085000Y-6065000
X6968000Y-6463000
X6903000Y-7058000
X6708000
X6578000
X5703000
X5508000
X5200300Y-6250600
X5175000Y-6968000
X5150300Y-6222900
X4474300Y-5955300
X4474800Y-6162100
X4474300Y-6371100
X4474000Y-5707200
X4124400Y-5378500
X4124900Y-5578700
X4125000Y-5710100
X4124300Y-5955300
X2632000Y-6088700
X574300Y-5080500
Y-4953500
X574000Y-4826700
X574200Y-4699500
X974300Y-5080500
Y-4953500
Y-4826500
X974200Y-4699500
X1015800Y-4370000
X3545200Y-4455200
X3747300Y-4550700
X4126200Y-5164400
X4124900Y-4957100
X4475700Y-5168000
X4474600Y-4950100
X4475100Y-4680200
X4949900Y-4176500
X4979800Y-3825900
X5220000Y-4171900
X5331300Y-3618700
X5419100Y-4173700
X6033500Y-3823900
X6245200Y-3825900
X6455000Y-3823900
R03X210000
X7293400
X7503400
X7712600
X7922600
X8142100Y-2883400
X8015100
X7542800Y-2940400
X6712400Y-2861000
Y-2957000
X6232000Y-3236700
Y-3332000
X5847100Y-2833400
X3464100Y-2283200
X2440200
X392600
X831300Y-1722400
X1382600Y-1613600
X1593400Y-1349300
X1855700Y-1722400
X2881100
X3007700
X3904300
X4997200Y-1021600
Y-921600
M30
