M48
METRIC,TZ
T01C.15
T02C.2
T03C1.
T04C3.2
;LEADER: 12 
;HEADER: 
;CODE  : ASCII 
;FILE  : FMDEMOD-57-1-10.drl for board G:/github/PLL_FM_HW/PCB/#Taaaadw10696.tmp ... layers TOP and BOTTOM
;T01 Holesize 1. = 0.150000 Tolerance = +0.000000/-0.000000 PLATED MM Quantity = 1
;T02 Holesize 2. = 0.200000 Tolerance = +0.000000/-0.000000 PLATED MM Quantity = 320
;T03 Holesize 3. = 1.000000 Tolerance = +0.000000/-0.000000 PLATED MM Quantity = 1
;T04 Holesize 4. = 3.200000 Tolerance = +0.000000/-0.000000 NON_PLATED MM Quantity = 16
%
G90
T01
X4968860Y-5839430
T02
X3832800Y-7424000
X3824800Y-7497500
X3764700Y-7466600
X3764500Y-7528000
X3709600Y-7432400
X3709000Y-7496100
X3708300Y-7558500
X3685800Y-7616100
X3578100Y-7602300
X2491300Y-7501600
X2473000Y-7214500
X2472800Y-7291100
X2473800Y-7375700
X2440100Y-7132600
X2441300Y-7450600
X2369000Y-7327500
X2367700Y-7259800
X2352300Y-7464600
X2348600Y-7132200
X2320100Y-7383200
X2317200Y-7202200
X2281000Y-7290300
X2281200Y-7499900
X2245000Y-7201000
X2244600Y-7382800
X2214500Y-7461300
X2207400Y-7129700
X2196100Y-7324500
X2193200Y-7259800
X2127500Y-7137900
X2121300Y-7450100
X2091400Y-7211200
X2090900Y-7375700
X2074700Y-7290500
X2072800Y-7499800
X1221900Y-7676500
X2077500Y-7086100
X2282000Y-7087500
X2484500Y-7088900
X6349600Y-5690300
X6353500Y-5440300
X6750600Y-5408200
Y-5312200
X8405000Y-5667000
X8455500Y-5692300
X8455100Y-5641000
X8457300Y-4924500
Y-4978500
X8405000Y-4952000
X8353900Y-4978000
X8352700Y-4924300
X8337700Y-4600400
X5089900Y-3310800
X4141200Y-3470900
X4057600Y-3437700
X3958300Y-3438600
X3863900Y-3458600
X3815100Y-3052500
X3815200Y-3122300
X3815000Y-3191500
X3815100Y-3261500
X3815200Y-3331400
X3786900Y-3505200
X3775000Y-3089400
X3775300Y-3158400
X3775200Y-3228200
X3775700Y-3296000
X3760200Y-3844000
X3745100Y-3589500
X3738300Y-3052300
X3737600Y-3122400
X3737400Y-3191700
X3737500Y-3261400
X3737400Y-3331400
X3737600Y-3763600
X3731400Y-3678000
X3124500Y-3863500
X3082500Y-3811100
X3079500Y-3727600
X3040600Y-3769100
X3040200Y-3863000
X3004900Y-3811200
X3002700Y-3727400
X2783100Y-3115900
X2782900Y-3185100
X2783000Y-3255100
X2783100Y-3325000
X2742900Y-3083000
X2743200Y-3152000
X2743100Y-3221800
X2743600Y-3289600
X2705500Y-3116000
X2705300Y-3185300
X2705400Y-3255000
X2705300Y-3325000
X2097000Y-3862600
X2055000Y-3810600
X2052000Y-3727100
X2013100Y-3768600
X2012700Y-3862500
X1977400Y-3810700
X1975200Y-3726900
X1759500Y-3108300
X1759300Y-3177500
X1759400Y-3247500
X1759500Y-3317400
X1719300Y-3075400
X1719600Y-3144400
X1719500Y-3214200
X1720000Y-3282000
X1681900Y-3108400
X1681700Y-3177700
X1681800Y-3247400
X1681700Y-3317400
X739200Y-3115900
X739000Y-3185100
X739100Y-3255100
X739200Y-3325000
X699000Y-3083000
X699300Y-3152000
X699200Y-3221800
X699700Y-3289600
X661600Y-3116000
X661400Y-3185300
X661500Y-3255000
X661400Y-3325000
X575500Y-3690500
X568500Y-3771900
X555500Y-3613700
X528800Y-3845800
X150900Y-3484700
X661600Y-2980800
X662300Y-3045900
X699300Y-3013300
X739100Y-3046100
X739600Y-2979100
X979900Y-2648000
X1063600Y-2731900
X1682600Y-3038300
X1681900Y-2973200
X1719600Y-3005700
X1759400Y-3038500
X1759900Y-2971500
X1986500Y-2645500
X2080100Y-2735900
X2706200Y-3045900
X2705500Y-2980800
X2743200Y-3013300
X2783000Y-3046100
X2783500Y-2979100
X3009400Y-2649200
X3100300Y-2736700
X3737600Y-2987200
X3775300Y-3019700
X3815600Y-2985500
X4044000Y-2649200
X4136100Y-2736500
X4513700Y-1839300
X4512500Y-1942100
X4476600Y-1891200
X4439300Y-1838600
X4440000Y-1942700
X3606600Y-1019700
X3528800
X3318500Y-1369900
X3233100Y-1289700
X2582900Y-1018000
X2505100
X2286900Y-1370500
X2213800Y-1288500
X1263100Y-1369900
X1180500Y-1285200
X522000Y-1018000
X444200
X240200Y-1370500
X164900Y-1285400
X164200Y-538500
X250100Y-562500
X349100Y-565000
X444300Y-948000
X444200Y-878300
X444400Y-809000
X445100Y-738900
X444400Y-673800
X451800Y-552500
X482500Y-982600
X482000Y-914800
X482100Y-845000
X481800Y-776000
X482100Y-706300
X521900Y-948100
X521800Y-878100
X521900Y-739100
X522000Y-808900
X522400Y-672100
X525300Y-489000
X539500Y-172100
X557900Y-400900
X562500Y-242700
X564300Y-314700
X1210000Y-524500
X1210100Y-454500
X1210000Y-384800
X1210200Y-315500
Y-180300
X1210900Y-245400
X1248300Y-489100
X1247800Y-421300
X1247900Y-351500
X1247600Y-282500
X1247900Y-212800
X1287800Y-524500
X1287700Y-454600
X1287600Y-384600
X1287800Y-315400
X1287700Y-245600
X1288200Y-178600
X1361900Y-522800
X1362000Y-452800
X1361900Y-383100
X1362100Y-313800
Y-178600
X1362800Y-243700
X1400200Y-487400
X1399700Y-419600
X1399800Y-349800
X1399500Y-280800
X1399800Y-211100
X1439700Y-522800
X1439600Y-452900
X1439500Y-382900
X1439700Y-313700
X1439600Y-243900
X1440100Y-176900
X1468800Y-1016400
X1468900Y-946400
X1468800Y-876700
X1469000Y-807400
Y-672200
X1469700Y-737300
X1507100Y-981000
X1506600Y-913200
X1506700Y-843400
X1506400Y-774400
X1506700Y-704700
X1546600Y-1016400
X1546500Y-946500
X1546400Y-876500
X1546600Y-807300
X1546500Y-737500
X1547000Y-670500
X2225400Y-515300
X2225500Y-445300
X2225400Y-375600
X2225600Y-306300
X2226300Y-236200
X2225600Y-171100
X2263700Y-479900
X2263200Y-412100
X2263300Y-342300
X2263000Y-273300
X2263300Y-203600
X2303200Y-515300
X2303100Y-445400
X2303000Y-375400
X2303200Y-306200
X2303100Y-236400
X2303600Y-169400
X2377300Y-513600
X2377400Y-443600
X2377300Y-373900
X2377500Y-304600
X2378200Y-234500
X2377500Y-169400
X2415600Y-478200
X2415100Y-410400
X2415200Y-340600
X2414900Y-271600
X2415200Y-201900
X2454900Y-373700
X2455100Y-513600
X2455000Y-443700
X2455100Y-304500
X2455000Y-234700
X2455500Y-167700
X2505200Y-948000
X2505100Y-878300
X2505300Y-809000
Y-673800
X2506000Y-738900
X2543400Y-982600
X2542900Y-914800
X2543000Y-845000
X2542700Y-776000
X2543000Y-706300
X2582800Y-948100
X2582700Y-878100
X2582900Y-808900
X2582800Y-739100
X2583300Y-672100
X3528900Y-949700
X3528800Y-880000
X3529000Y-810700
X3529700Y-740600
X3567100Y-984300
X3566600Y-916500
X3566700Y-846700
X3566400Y-777700
X3606500Y-949800
X3606400Y-879800
X3606600Y-810600
X3606500Y-740800
X3733700Y-384500
X3733400Y-298600
X3733300Y-216200
X3757100Y-146500
X3762100Y-459200
X3838900Y-506000
X4143700Y-518900
X6650000Y-300000
T03
X245500Y-4827800
T04
X300000Y-300000
Y-3700000
Y-4300000
Y-7700000
X4000000
X4600000
X4000000Y-4300000
X4600000
X4000000Y-3700000
X4600000
X4000000Y-300000
X4600000
X8300000
Y-3700000
Y-4300000
Y-7700000
M30
