M48
METRIC,TZ
T01C.15
T02C.2
T03C1.
T04C3.2
;LEADER: 12 
;HEADER: 
;CODE  : ASCII 
;FILE  : FMDEMOD-57-1-6.drl for board G:/github/PLL_FM_HW/PCB/#Taaaadw10696.tmp ... layers TOP and PWR-L6
;T01 Holesize 1. = 0.150000 Tolerance = +0.000000/-0.000000 PLATED MM Quantity = 212
;T02 Holesize 2. = 0.200000 Tolerance = +0.000000/-0.000000 PLATED MM Quantity = 442
%
G90
T01
X2631000Y-7515300
Y-7565300
X2556000Y-7640300
X2156000
X2106000
X2006000
X1931000Y-7415300
X1232000Y-6388700
X1532000Y-6188700
X1732000
X1931000Y-7015300
X1932000Y-6188700
X2006000Y-6940300
X2132000Y-6188700
X2432000
X2556000Y-6940300
X2631000Y-7015300
X2632000Y-6188700
X2832000
X3032000
X3332000Y-6388700
X6250300Y-6130200
X6440100Y-5690300
X4878300Y-5940200
X3691300Y-5085000
Y-5470600
X3642900Y-5890200
X3232000Y-5988700
X3132000Y-5188700
X3032000Y-5388700
Y-5488700
Y-5688700
Y-6088700
X2832000Y-5988700
X2732000
X2632000Y-5388700
Y-5588700
Y-5788700
X2532000Y-5188700
R05Y-100000
X2432000Y-5188700
Y-5688700
X2332000Y-5088700
Y-5188700
Y-5688700
X2232000Y-5188700
Y-5688700
X2132000Y-5088700
Y-5188700
Y-5688700
X2032000Y-5188700
R04Y-100000
X1932000Y-5688700
X1832000Y-5388700
Y-5988700
X1732000
X1632000Y-5788700
X1532000Y-5188700
Y-5388700
Y-5488700
Y-5688700
Y-6088700
X960700Y-5827300
X770700
X1232000Y-4488700
X1532000Y-4988700
Y-4788700
X1632000Y-4888700
Y-4688700
X1732000Y-4788700
X1832000Y-4688700
X2032000Y-4988700
Y-4588700
X2232000Y-4988700
Y-4688700
X2832000Y-4788700
X2932000Y-4888700
X3032000Y-4988700
Y-4788700
X3332000Y-4488700
X5050700Y-4659300
X6440100Y-4940300
X6615000Y-3127000
X7265000Y-3534000
X7415000Y-3127000
X7593000Y-3455000
X7830000Y-2605000
X6772000Y-2140000
X6692000
X6532000
X6452000
X6292000
X6212000
X6132000Y-2060000
Y-2140000
X6052000Y-2060000
Y-2140000
X5972000Y-2060000
Y-2220000
Y-2300000
X5627800Y-2098200
X5617900Y-2216100
X5593400Y-2388000
X5527900
X5419800Y-2097800
X5326600Y-2581400
X5094600Y-2709400
Y-3009400
X4142400Y-2486500
X4107800Y-2486300
X4073000Y-2527400
X4072800Y-2565300
X4030500Y-2559300
X3986300Y-2564200
X3111900Y-2487400
X3073100Y-2487300
X3038500Y-2523600
X3036300Y-2564300
X2994700Y-2561600
X2950300Y-2562400
X2084800Y-2486800
X2080100Y-2553700
X2047000Y-2486300
X2017600Y-2523800
X2016600Y-2563100
X1970900Y-2563200
X1926500Y-2562900
X1066300Y-2486800
X1028400Y-2486900
X995200Y-2523200
X995400Y-2562200
X951200Y-2561100
X907100Y-2561600
X145100Y-1518600
X182100
X224700Y-1459000
X266700Y-1456800
X304800Y-1458400
X1166600Y-1517000
X1202500Y-1516200
X1242300Y-1460400
X1285900Y-1455900
X1327000Y-1457500
X2193000Y-1522200
X2230800Y-1521500
X2274000Y-1461400
X2314800Y-1456600
X2354200Y-1457800
X3217700Y-1518400
X3254400Y-1521000
X3294900Y-1461400
X3333800Y-1456500
X3374300Y-1456600
X6052000Y-1420000
X6132000Y-1580000
Y-1420000
X6212000Y-1580000
X6292000Y-1980000
Y-1820000
Y-1740000
Y-1580000
X6372000Y-1980000
Y-1900000
R02Y80000
Y-1580000
X6452000Y-1980000
Y-1900000
R02Y80000
Y-1580000
X6532000Y-1980000
Y-1900000
R02Y80000
Y-1580000
X6612000Y-1980000
Y-1900000
R02Y80000
Y-1580000
X6692000Y-1420000
X6772000Y-1660000
X6932000Y-1420000
X6970000Y-220000
Y-860000
X6810000Y-220000
Y-860000
X6730000Y-300000
X6650000Y-220000
X6570000Y-300000
Y-780000
X6410000Y-220000
Y-780000
Y-860000
X6330000Y-380000
X6250000Y-860000
X6170000Y-220000
X6090000
X6010000
Y-860000
X5930000Y-780000
X5850000Y-300000
Y-860000
X5000800Y-513300
T02
X677200Y-3583600
X695100Y-3531500
X712600Y-3477600
X275000Y-3353200
X221300Y-3334500
X167000Y-3315000
X397000Y-3314400
X508300Y-3314700
X450000Y-3267300
X393600Y-3214600
X512600Y-3210800
X454700Y-3158000
X396100Y-3105600
X512600Y-3104800
X450800Y-3043100
X511200Y-2999400
X393500Y-2998000
X147000Y-2594500
X170000Y-2480000
Y-2283200
X666300Y-2173000
X557100Y-2172200
X612100Y-2147600
X685200Y-2119900
X539200Y-2118900
X612300Y-2088800
X666800Y-2066500
X557800Y-2065300
X666300Y-1937200
X557600Y-1936100
X612800Y-1922500
X685200Y-1883500
X539200Y-1882500
X612500Y-1860800
X667200Y-1830300
X556300Y-1829900
X163400Y-1709600
Y-1465600
X683400Y-1020400
X747200Y-976200
X692000Y-927200
X751800Y-848800
X687700Y-758400
X746900Y-717000
X682500Y-678700
X691400Y-318100
X749400Y-243400
X689700Y-176400
X806200Y-175800
X1047900Y-304900
X915800
X802000Y-316000
X1064300Y-409300
X1044200Y-464400
X1064200Y-519400
X1058000Y-625100
X1003000Y-645100
X947800Y-660400
X816000Y-680900
X807900Y-755600
X804100Y-933000
X810500Y-1020400
X1077800Y-1416700
X1182400Y-1465600
X1054800Y-1529200
X1182400Y-1709600
X1054800Y-1722400
X1191300Y-2283200
X1062900Y-2296500
X1191300Y-2480000
X1062900Y-2553700
X1168300Y-2594500
X1411300Y-3005300
X1471500Y-3047100
X1413800Y-3103800
X1474400Y-3158000
X1410900Y-3211100
X1471900Y-3253700
X1414700Y-3307200
X1204100Y-3316500
X1256800Y-3334500
X1308700Y-3351800
X1202700Y-3451100
X1255800Y-3469600
X1308400Y-3487600
X902900Y-4142800
X809400Y-4142100
X858000Y-4175300
X1497900Y-4187600
X1019200
X906700Y-4209200
X810300Y-4209400
X974500Y-4572500
X1048700Y-5394900
X951800
X836900Y-5416900
X842200Y-5563600
Y-5657600
X1007500Y-5672100
X959700Y-6117300
X1006500Y-6256300
Y-6384600
X984500Y-6498400
X1497700Y-6731200
X1307700
X1795300Y-7414400
X1552600Y-7292800
X1641600Y-7251700
X1542600Y-7164800
X1786500Y-6929900
X2025600Y-6812200
X1756400Y-6746800
X1647900Y-6715300
X1711600Y-4208700
X1618300Y-4206700
X1827500Y-4187600
X1663600Y-4175300
X1615000Y-4140700
X1712600Y-4140500
X1670900Y-3584700
X1560400Y-3531000
X1688900Y-3531500
X1706900Y-3477900
X2283200Y-3469600
X2230800Y-3451800
X2284200Y-3334500
X2231800Y-3316800
X1530300Y-3305100
X1537000Y-3205300
X1528700Y-3102200
Y-3007400
X2196700Y-2594500
X2219700Y-2480000
X2080100Y-2296500
X2219700Y-2283200
X1576000Y-2171400
X1689700Y-2172600
X1633200Y-2151600
X1707900Y-2119900
X1558300Y-2118900
X1633500Y-2094000
X1575600Y-2066400
X1690700Y-2067700
X1578300Y-1937400
X1687900Y-1938500
X1633100Y-1919200
X1707900Y-1883500
X1558300Y-1882500
X1633000Y-1860900
X1687800Y-1828500
X1578300Y-1827400
X2077500Y-1722400
X2212500Y-1709600
X2077900Y-1529200
X2212500Y-1465600
X2100900Y-1416700
X1698700Y-1025600
X1843800Y-1022800
X1772200Y-980400
X1713500Y-923500
X1830400Y-924200
X1773500Y-848800
X1715000Y-784200
X1834700Y-779900
X1772400Y-732600
X1839500Y-682000
X1702000Y-680300
X1972200Y-662700
X2027400Y-645100
X2082400Y-625100
X2088200Y-519400
X2068100Y-464400
X2088100Y-409400
X1713700Y-322400
X1821000Y-316500
X1938800Y-304900
X2072100
X1759700Y-244300
X1705800Y-184600
X1817300Y-184200
X2820100Y-171900
X2739500Y-172700
X2777100Y-233700
X2944500Y-304900
X2821700Y-310900
X2739900Y-313000
X3002900Y-663500
X2875400Y-675600
X2729400Y-676900
X2799300Y-724000
X2855500Y-785500
X2742100Y-784500
X2804000Y-848800
X2864900Y-925000
X2738600Y-924000
X2801400Y-976900
X2871700Y-1023100
X2729100Y-1022900
X2608900Y-1827400
X2714800Y-1828500
X2661900Y-1857400
X2588800Y-1882500
X2734900Y-1883500
X2662000Y-1915600
X2714900Y-1938600
X2608800Y-1937500
X2605200Y-2067200
X2719500Y-2069200
X2661700Y-2085100
X2588800Y-2118900
X2734900Y-2119900
X2661900Y-2152300
X2719500Y-2169400
X2605000Y-2170800
X2565400Y-2989500
X2427200Y-2988700
X2494900Y-3040700
X2559200Y-3085100
X2434800Y-3085700
X2498500Y-3158000
X2441100Y-3236700
X2554500Y-3238300
X2495400Y-3280600
X2559200Y-3324200
X2428800Y-3326600
X2336000Y-3351700
X2739000Y-3478700
X2335700Y-3487700
X2721100Y-3531500
X2591300Y-3531000
X2702700Y-3584500
X2721200Y-4139500
X2624500Y-4140200
X2673400Y-4175300
X2839600Y-4187600
X2506800
X2721800Y-4208900
X2624500Y-4208600
X3001700Y-6747400
X2650600Y-6793900
X3023600Y-6859600
X2780300Y-6979200
X2824800Y-7446900
X3440000Y-6910000
Y-6790000
X3329000Y-6680000
X3433000
X3604100Y-4904800
Y-4784800
X3389200Y-4207300
X3483500Y-4207000
X3282600Y-4187600
X3437100Y-4175300
X3387400Y-4140200
X3484700Y-4139900
X3243900Y-3583000
X3261300Y-3531500
X3278900Y-3479300
X3354400Y-3351900
X3303000Y-3334200
X3459800Y-3324200
X3589700Y-3322600
X3250500Y-3316500
X3523300Y-3278700
X3585000Y-3226400
X3472900Y-3222300
X3529300Y-3158000
X3585600Y-3095800
X3465400Y-3092400
X3526300Y-3044600
X3588300Y-2996500
X3466200Y-2993100
X3219000Y-2594500
X3099300Y-2553700
X3242000Y-2480000
X3099300Y-2296500
X3242000Y-2283200
X3629300Y-2172000
X3741800Y-2172500
X3685500Y-2149700
X3759600Y-2119900
X3611200Y-2118900
X3685400Y-2091500
X3741500Y-2066600
X3628800Y-2066100
X3629200Y-1935100
X3741500Y-1936700
X3685400Y-1911700
X3759600Y-1883500
X3611200Y-1882500
X3685400Y-1854900
X3741400Y-1830100
X3628900Y-1829200
X3103700Y-1722400
X3234900Y-1709600
X3103700Y-1529200
X3234900Y-1465600
X3126700Y-1416700
X3757000Y-1022200
X3763600Y-926900
X3764400Y-783100
X3755700Y-675800
X3056500Y-645100
X3110800Y-625500
X3093300Y-519300
X3631600
X3073300Y-464400
X3611600
X3093400Y-409400
X3591700Y-409200
X3274600Y-309600
X3358900Y-310000
X3078700Y-304900
X3478000
X3615100
X3312600Y-238600
X3271700Y-176000
X3353900Y-174700
X4137700Y-625100
X4082500Y-645100
X4027400Y-665100
X3902800Y-673300
X3826400Y-732800
X3890400Y-785100
X3828700Y-848800
X3884900Y-926400
X3823900Y-974500
X3901400Y-1021700
X4152200Y-1416700
X4129200Y-1529200
Y-1722400
X4134500Y-2296500
Y-2553700
X3916900Y-6863000
X5226900Y-7783400
Y-7623400
X4916000Y-7393200
X5130100Y-7392200
X4763900Y-6919100
X4738200Y-6789000
X5019500Y-6634900
X5006200Y-6445500
X4763900Y-6379100
X4620300Y-6060500
Y-5854300
X5049500Y-4372400
X5152100
X5178200Y-2117600
X5281900Y-1342200
X5189400Y-894600
X5203300Y-666200
X5255200Y-518600
X5048800Y-393000
X5255200Y-328600
X5047800Y-289300
X5069800Y-240300
X5466800Y-177100
X5367500
X5545200Y-329600
X5457700Y-678200
X5339800Y-797200
X5346500Y-917900
X5515900Y-1570500
X5767100Y-2021500
X5521900Y-2216100
X5751100Y-2833400
X6024900Y-3539900
Y-3629900
X6014800Y-4372400
X6020000Y-6430000
X5573000Y-6463000
X6020000Y-6560000
Y-6690000
X6261400Y-7783400
Y-7623400
X6297300Y-7504300
X6199000Y-7215000
X6109000Y-6690000
X6110000Y-6560000
X6250000
X6360500Y-6546000
X6773000Y-6463000
X6110000Y-6430000
X6229000Y-6300000
X6680000Y-6144400
X6608500Y-5855000
X6630500Y-5738600
X6811000Y-4776900
X6821000Y-4646300
X6149900Y-4372400
X6138000Y-3627400
X6228000
X6136000Y-3332000
Y-3236700
X6518100Y-2956000
X6614700Y-2957000
X6378600Y-2738000
X6601900
X6825000
X7049000
X7251500Y-2844400
X7154900
X7442400Y-2940400
X6928200Y-3224500
X6939200Y-3516500
X6928200Y-3617300
X7530000Y-5850000
X7405000Y-5875000
X6990000Y-5970000
X7530000Y-5980000
X7115000Y-6064000
X7405000Y-6065000
X6968000Y-6085000
X7556000Y-6194000
X7310000Y-6430000
X7220000
X7565000Y-6544600
X7450000Y-6560000
X7310000
X7220000
X7309000Y-6690000
X7220000
X7100500Y-7320700
X7173200Y-7504300
X7136500Y-7623400
Y-7783400
X8333000Y-7235000
X8201650Y-6628350
X8188000Y-6420000
X8230000Y-6130000
X7726100Y-3620400
X7737100Y-3516800
X7726100Y-3224500
X7740100Y-2787700
X7835400Y-2786900
X7730100Y-493000
X7832900
X7933400
X7626200Y-188500
X7730100
X8429000Y-6005000
X8450000Y-6270000
M30
