M48
METRIC,TZ
T01C.15
T02C.2
T03C1.
T04C3.2
;LEADER: 12 
;HEADER: 
;CODE  : ASCII 
;FILE  : FMDEMOD-57-1-9.drl for board G:/github/PLL_FM_HW/PCB/#Taaaadw10696.tmp ... layers TOP and GND-L9
;T01 Holesize 1. = 0.150000 Tolerance = +0.000000/-0.000000 PLATED MM Quantity = 4
;T02 Holesize 2. = 0.200000 Tolerance = +0.000000/-0.000000 PLATED MM Quantity = 77
%
G90
T01
X7880000Y-2605000
X8430000Y-655000
X7880000
X7280000
T02
X4477940Y-3307030
X5428100Y-3619700
X5527300Y-3618700
Y-3401700
X5623100Y-3618700
X5924100Y-3619700
X5978500Y-3112600
X6010100Y-3065900
X6042400Y-3113400
X6136000Y-3527800
Y-3428700
X7035200Y-3516500
X7312900Y-3256100
X7386200Y-3330600
X7387400Y-3256200
X7390900Y-3407100
X7462000Y-3408900
X7462400Y-3332200
X7463300Y-3257400
X7833100Y-3123100
X7835400Y-2882900
X7833100Y-3028800
X7740100Y-2883700
X7346200Y-2843400
X6040700Y-3020300
X5978500Y-3021600
X5752100Y-2638400
X5751100Y-2958700
X5552900Y-3009400
X5469800Y-2958300
X5465500Y-2716500
X5430000Y-2834800
X5376600Y-2639100
X5351600Y-2834400
X5352800Y-2935300
X5349400Y-2735600
X5269200Y-2836100
X5231900Y-2957400
X5228900Y-2714800
X5176600Y-2639100
X5152300Y-2809400
X4771000Y-2904000
X4477500Y-2204300
X4669200Y-1934900
X4669300Y-1880500
X4721200Y-1907600
X4770500Y-1931400
X4772300Y-1881400
X5018200Y-2117600
X5405100Y-1667200
X5611900Y-1973400
X5500800Y-1354200
X5440500Y-1207900
X5402200Y-1354200
X5189400Y-1095000
X4997200Y-1121600
X4769300Y-815000
X4769400Y-862300
X4721200Y-838600
X4671300Y-814600
X4671700Y-861800
X4929800Y-180200
X4952800Y-393000
X4951800Y-289300
X5227500Y-177100
X5339800Y-657200
X5562800Y-177100
X7331300Y-397000
X7429400
X7525600
Y-188500
X7626200Y-397000
X7730100
X7832900
Y-188500
X7933400Y-397000
Y-188500
M30
