M48
METRIC,TZ
T01C.15
T02C.2
T03C1.
T04C3.2
;LEADER: 12 
;HEADER: 
;CODE  : ASCII 
;FILE  : FMDEMOD-57-1-4.drl for board G:/github/PLL_FM_HW/PCB/#Taaaadw10696.tmp ... layers TOP and SIGNAL-L4
;T01 Holesize 1. = 0.150000 Tolerance = +0.000000/-0.000000 PLATED MM Quantity = 134
;T02 Holesize 2. = 0.200000 Tolerance = +0.000000/-0.000000 PLATED MM Quantity = 68
%
G90
T01
X1931000Y-7465300
X2132000Y-6488700
Y-6388700
X2232000Y-6288700
X2306000Y-6940300
X2356000
X2430600Y-6788600
Y-6690700
X2526600Y-6788600
Y-6690700
X2732000Y-6488700
Y-6388700
X2904900Y-6973300
X5050300Y-6130200
X5150300
X5200300
X5378000Y-7109900
X5377900Y-7003000
X5572800Y-7106700
X5573000Y-7012000
X5600300Y-6130200
R02X50000
X6513000Y-6463000
X6578000
X6903000
X7815950Y-6721310
X7886660Y-6650600
X6440100Y-5540300
Y-5640300
X4859900Y-5140200
Y-5190200
Y-5390200
Y-5440200
Y-5540200
Y-5740200
X2632000Y-5988700
X2532000Y-4788700
X2732000Y-4688700
X2932000
X3132000
X4833200Y-4840200
X4834800Y-4740200
X4877000Y-4890200
X4882100Y-4790200
X5350700Y-4550000
X5400700
X5950700
R03X50000
X5207100Y-3400700
X5226600Y-3084400
X5276600
X5476600
X5623100Y-3304700
X5910600Y-3305700
X6010000Y-3400700
X7189000Y-3455000
Y-3405000
R03Y50000
X7315000Y-3127000
X7465000
X7515000
X8180000Y-2605000
X8130000
R02X-50000
X7630000
X6932000Y-2380000
Y-2460000
X6852000Y-2300000
Y-2460000
X6772000Y-2220000
Y-2300000
R02Y-80000
X6692000Y-2300000
Y-2380000
X6372000Y-2460000
X6292000Y-2380000
X6212000Y-2220000
X6132000
Y-2300000
Y-2380000
X6052000Y-2220000
X5892000Y-2060000
X5812000
X5610600Y-2709400
Y-2759400
R03Y-50000
X5094600Y-2759400
X5404800Y-1570800
X5812000Y-1260000
X5892000Y-1740000
Y-1660000
R02Y80000
X5972000Y-1180000
X6052000Y-1820000
Y-1340000
X6132000Y-1900000
Y-1740000
X6212000Y-1500000
X6292000
Y-1260000
Y-1180000
X6372000
X6852000Y-1740000
Y-1500000
X6932000Y-1740000
Y-1500000
Y-1180000
X7012000Y-1420000
Y-1340000
Y-1260000
X7092000Y-1420000
Y-1340000
X6970000Y-700000
X6890000
Y-780000
X6810000Y-700000
X6490000
X6410000Y-300000
X6330000Y-780000
X6250000
X6170000Y-380000
X6090000
X5850000Y-700000
Y-780000
T02
X1093700Y-7239500
X2021900Y-7771900
X4478800Y-7201800
X5149000Y-7215000
X5397800Y-7783400
Y-7623400
X5399600Y-7699200
X5742900Y-7783400
X5743700Y-7701900
X5742900Y-7623400
X5880000Y-7215000
X6409000
X7486300Y-7783400
X7662900
X7838500
X8012800
X7924850Y-7081930
X7854130Y-7011220
X7761150Y-7033500
X7667000Y-6936500
X6968000Y-7058000
X5703000Y-6463000
X5573000Y-7058000
X5378000
X5313000Y-6463000
X4858900Y-6379100
X4477500Y-6578800
Y-6786000
X4478200Y-6992500
X3000900Y-6973300
X4474000Y-5707200
X4474300Y-5578900
X4475300Y-5298100
X7175000Y-5583000
X7275000
X7475000
X7575000
X7775000
X7875000
X8075000
X8175000
X7346200Y-2939400
X5751100Y-2734500
X5294800Y-2097800
X4771000Y-2304000
R05Y-100000
X3937400Y-2296500
X3471300Y-2768400
X2899500Y-2296500
X2434100Y-2768400
X1884000Y-2296500
X1413100Y-2768400
X870100Y-2296500
X390600Y-2768400
X359800Y-1709600
X832600Y-1213500
X1382600Y-1709600
X1854800Y-1211600
X2410700Y-1709600
X2883600Y-1211600
X3438500Y-1709600
X3906500Y-1212900
X5203300Y-786200
X5545200Y-329600
M30
