M48
METRIC,TZ
T01C.15
T02C.2
T03C1.
T04C3.2
;LEADER: 12 
;HEADER: 
;CODE  : ASCII 
;FILE  : FMDEMOD-57-6-10.drl for board G:/github/PLL_FM_HW/PCB/#Taaaadw10696.tmp ... layers PWR-L6 and BOTTOM
;T01 Holesize 1. = 0.150000 Tolerance = +0.000000/-0.000000 PLATED MM Quantity = 166
;T02 Holesize 2. = 0.200000 Tolerance = +0.000000/-0.000000 PLATED MM Quantity = 265
%
G90
T01
X2588400Y-7736200
X1795900Y-7492700
X3544600Y-6884500
X2979700Y-6138400
X2781900Y-6239100
X2582200
X2481600
X2182200Y-6136500
X2082000Y-6239100
X1982200
X1781800
X1479800Y-6138800
X1480800Y-6238900
X1281500Y-6438400
X1480600Y-5738900
X1580400Y-5838500
X1680100Y-6038400
X1882100Y-6040400
X1884000Y-5938800
X1980300Y-5739300
Y-5638500
X2082300Y-5740400
X2182400
X2282100
X2381900
X2482300
X2584200Y-5638500
X2680400Y-6038700
X2681400Y-5938400
X2683600Y-5738700
X2884700Y-5938400
X3084200Y-5638700
X3282300Y-5936800
X3638100Y-5756100
X3637100Y-5620900
X3739600Y-5756100
X3738600Y-5620900
X6270000Y-6004700
X3761600Y-5181400
X3637100
X3184300Y-5238900
X3084200Y-5338800
Y-5438700
X2584000Y-5238600
Y-5338600
R02Y-100000
X2483400Y-5337300
Y-5538600
X2082300Y-5136300
X2082600Y-5337300
Y-5538600
X1980300Y-5138700
Y-5238800
Y-5338800
Y-5438900
Y-5538900
X1741000Y-5161900
X1480100Y-5238600
X1480600Y-5438600
Y-5538800
X1480100Y-5038600
X1480200Y-4738500
X1580000Y-4639000
X1682100Y-4940900
X1782100Y-4840300
X1785800Y-4639000
X1881400Y-4840300
X1980300Y-5039300
X1981900Y-4741600
X2082100Y-4737000
X2184400Y-5038900
X2284200Y-4939100
X2781600Y-4838500
X2882000Y-4736700
X2983800Y-4938600
X3084200Y-5039000
X3084000Y-4838600
X3613500Y-4989300
X3554100Y-4435200
X3320800
X2182100Y-4536600
X5930200Y-2260400
Y-2179700
X6013150Y-2178850
X6090600Y-2099800
X6172000Y-2179500
X6250200Y-2099600
X6331800Y-2179500
X6411200Y-2180400
X6412200Y-2100600
X6492200
X6571900Y-2180400
X6651900Y-2180900
X6732000Y-2420000
X6815600Y-2179700
X6892000Y-2420000
X7174700Y-1720000
Y-1820000
X7077000Y-1620000
X6732000Y-1619700
X6652000Y-1543300
Y-1698500
X6651500Y-1859900
Y-1940000
X6651400Y-2019300
X6572200Y-1543300
Y-1698500
X6571900Y-2019300
X6500700Y-1860000
X6492100Y-1698500
X6492400Y-1779900
Y-1939800
X6412000Y-1543300
Y-1698500
X6410200Y-1779900
Y-1939800
X6332000Y-1543300
Y-1698500
X6332100Y-2019300
X6252100Y-1543300
X6252000Y-1698500
X6250200Y-1783300
Y-1859100
Y-2019900
X6092800Y-1940800
X6090600Y-1619400
X1045800Y-1812600
X5562200Y-1344800
X6011900Y-1459200
X6131800Y-1462000
X6447900Y-1061900
X6482200Y-1380200
X6509600Y-1062900
X6652200Y-1380900
X6807300Y-1498300
X6889300Y-1420100
X7077000Y-1420000
Y-1220000
Y-1120000
Y-1020000
X7686200Y-591000
X7558100Y-701200
X7433000Y-591000
X7311200
X7188800
X6889000Y-919200
X6769800Y-815100
X6530300Y-659700
X6449800Y-740800
X6387400Y-992900
X6240100Y-915000
X5969500Y-900400
X5889700Y-740000
X5890400Y-819800
X5889500Y-341400
X6049900Y-259900
X6210000
X6330500Y-433900
X6398400Y-162900
X6608400Y-343700
X6690400
X6690000Y-260100
X6770200Y-343600
X6809700Y-162900
X7009900Y-259900
T02
X1937100Y-7736200
X2124300
X2222000
X2726800Y-7574000
Y-7479600
X2822800Y-7574000
X3009100Y-7313600
X3010500Y-7158200
X3192900Y-7313600
X4915300Y-7391900
X5130000
X5744000Y-7783300
Y-7623300
X5784900Y-7504400
X5952400Y-7157400
X6748100Y-7504400
X6786400Y-7783300
Y-7623300
X6959900Y-7157400
X7587000Y-7235000
X7778400Y-6640500
X7730000Y-6410000
X7480000Y-6260000
X7316600Y-6252000
X7215000Y-6950000
X6864900Y-6956700
X6707000Y-6252000
X6605000Y-6950000
X6317000Y-6252000
X6215000Y-6950000
X5857400Y-7024300
X5697000Y-6252000
X5605000Y-6950000
X5205000Y-7022000
X5147400Y-6363600
X3264500Y-6618200
X3137500
X2743900Y-6943000
X2743500Y-7056300
X2333700Y-6833000
X1823900Y-7015200
X1082900Y-6978500
X713400Y-7000500
X585900
X664700Y-5106400
X863900Y-5105400
X954400Y-5097600
X1480600Y-5638700
X1732700Y-5781000
X2465800Y-6071900
X2887700Y-5261400
X2887200Y-5160100
X2910000Y-5709700
X4636700Y-5390400
X5581900Y-5141300
X5586100Y-5607100
X5587100Y-5312900
X5695100Y-6003100
X5848300Y-5489000
X5867000Y-5907700
X6008300Y-5489000
X6324400Y-5226600
X6367100Y-6004700
X6853100
X7368000Y-5520000
Y-5090000
X7375700Y-6004700
X7548000Y-5520000
Y-5090000
X7728000Y-5520000
Y-5090000
X7908000Y-5520000
Y-5090000
X7927000Y-5365000
Y-5215000
X8124000Y-5558000
Y-5458000
Y-5158000
Y-5058000
X6145000Y-4893000
X5801500Y-4343900
X5455900Y-4335000
X5337900Y-4456300
X5035000Y-4731000
X3734000Y-4788600
X3623200Y-4295300
X3606000Y-4685100
X3437800Y-4334800
Y-4454800
X3437300Y-4546100
X3274600Y-4273300
X3178500
X3053400Y-4295300
X3002100Y-4720200
X2935600Y-4273300
X2882000Y-4423700
X2837900Y-4273300
X2508600
X2410900
X2293200Y-4295300
X1933100Y-4273300
X1835500
X1769100Y-4435200
X1664900Y-4333800
Y-4453800
X1557900Y-4435200
X1490200Y-4273300
X1395100
X1173700Y-4467200
X1106400Y-4405800
X1107400Y-4467700
X1107600Y-4527900
X1080400Y-4788000
X1038100Y-4468000
X954400Y-4968000
X939000Y-4836300
X928300Y-4352400
Y-4486300
X291600Y-3277000
Y-3148200
X755200Y-3601600
X884500
X1015900
X1326600Y-3286900
Y-3147900
X1741500Y-3601900
X1876700
X2012400
X2353200Y-3656100
X2353800Y-3272900
Y-3145300
X2780100Y-3601900
X2899800Y-3601400
X3038300Y-3601900
X3258400Y-3600300
X3372900Y-3277200
Y-3146900
X3388900Y-3600300
X3518900
X4619400Y-3282900
X4965200Y-3135700
X5089900Y-3190800
X5525800Y-3206600
X5750000Y-3113500
X6384100Y-3717200
X6596100
X6803800Y-3680500
X6938600Y-3422200
X6939100Y-3123100
X7013500Y-3680500
X7223500Y-3717200
X7222500Y-3622000
X7434100Y-3717200
X7642400
X7853900
X7863400Y-3622000
Y-3502000
X8153600Y-2902000
X7603000Y-2895200
X7575900Y-2685700
X7291400
X6604800Y-2680900
X6538000Y-2681000
X6506300Y-2625700
X6506000Y-2736800
X6468600Y-2679600
X5455700Y-2455600
X5359000Y-2456600
X5222300Y-2458700
X5067600Y-2342000
Y-2462000
X4962700Y-2648500
Y-2997800
X4912700Y-2450700
X4081900Y-2189000
X3948700
X3815300
X3510500Y-2189800
X3381000
X3372900Y-3019500
X3252900Y-2189800
X3095000
X2966200
X2838000
X2488800
X2359500
X2353800Y-3017300
X2230000Y-2189800
X2067900
X1938500
X1807800
X1456800Y-2188700
X1328800
X1326600Y-3011000
X1199200Y-2188700
X1045800Y-2189400
X916100
X786800
X439200
X309400
X291600Y-3020400
X180300Y-2189400
Y-1812600
X309400
X439200
X786800
X916100
X1199200
X1328800
X1456800Y-1811600
X1807800
X1938500
X2067900Y-1812600
X2228500
X2357500
X2485900
X2835600
X2964400
X3093600
X3251500Y-1812100
X3380600
X3509600
X3754500Y-1812700
X3885200Y-1813100
X4500200Y-1168600
X4562700Y-1235000
X4563900Y-1168300
X4563500Y-1104900
X4628500Y-1169400
X5515700Y-1227200
X5645600Y-1849000
X5668000Y-1213400
X5798000
X5806700Y-1305800
X5932800Y-1938500
X7077000Y-1520000
X7926800Y-590200
X7806200Y-281800
Y-590200
X5709800Y-416200
X5710800Y-607500
X5700400Y-317000
X5455900Y-398700
X5409400Y-284900
X3557300Y-394400
X3423500
X3289800
X3019300Y-394500
X2986500Y-702800
Y-832700
Y-963700
X2885600Y-394400
X2752300
X2012100
X1957500Y-702800
Y-832700
Y-963700
X1880400Y-394400
X1748500
X990300
X932600Y-702800
Y-832700
Y-963700
X858400Y-394400
X725000
M30
