M48
METRIC,TZ
T01C.15
T02C.2
T03C1.
T04C3.2
;LEADER: 12 
;HEADER: 
;CODE  : ASCII 
;FILE  : FMDEMOD-57-1-8.drl for board G:/github/PLL_FM_HW/PCB/#Taaaadw10696.tmp ... layers TOP and SIGNAL-L8
;T01 Holesize 1. = 0.150000 Tolerance = +0.000000/-0.000000 PLATED MM Quantity = 78
;T02 Holesize 2. = 0.200000 Tolerance = +0.000000/-0.000000 PLATED MM Quantity = 21
%
G90
T01
X6063500Y-6354800
X5990400Y-6333400
X5800300Y-6130200
X5750300
X5250300
X5100300
X2232000Y-6188700
Y-6388700
Y-6488700
X1832000
X1632000Y-6388700
X1532000Y-6488700
X2132000Y-6088700
Y-5988700
X2232000Y-6088700
X2332000Y-4788700
X4859900Y-5690200
R02Y50000
X6440100Y-4840300
R02Y50000
X5750700Y-4550000
X5800700
X5844400Y-3616100
X6389000Y-3205000
X6465000Y-3127000
X7189000Y-3205000
X7265000Y-3127000
X6932000Y-1900000
Y-2060000
R02Y-80000
X6852000Y-1900000
R03Y-80000
X6772000Y-2060000
X6692000Y-2460000
X6612000Y-2140000
X6532000Y-2380000
Y-2460000
X6452000Y-2300000
Y-2380000
Y-2460000
X6372000Y-2140000
Y-2220000
Y-2380000
X6212000Y-2300000
X6132000Y-2460000
X5812000Y-1740000
X5593400Y-2458000
X5527900
X4950800Y-513300
X5050800Y-661300
X6090000Y-780000
X6132000Y-1260000
X6212000Y-1340000
R02Y80000
X6452000Y-1340000
R02Y80000
X6490000Y-860000
Y-220000
X6570000Y-700000
Y-220000
X6612000Y-1420000
X6650000Y-780000
Y-700000
X6692000Y-1180000
X6730000Y-780000
X6810000
X7050000
X7331300Y-493000
X7429400
X7525600
X7626200
T02
X2905900Y-7069900
X4476100Y-7357300
X4668900Y-6919100
Y-6659100
Y-6379100
X4858900Y-6919100
Y-6659100
X5378000Y-6463000
X5768000
X5905000Y-6972000
X6643000Y-7058000
X6838000
X7975000Y-4633000
R02X-300000
X5574200Y-4190900
X5644800Y-3825700
X5224100Y-3823500
X6185300Y-546800
X4997200Y-1621600
X1981500Y-1722400
M30
