M48
METRIC,TZ
T01C.15
T02C.2
T03C1.
T04C3.2
;LEADER: 12 
;HEADER: 
;CODE  : ASCII 
;FILE  : FMDEMOD-57-9-10.drl for board G:/github/PLL_FM_HW/PCB/#Taaaadw10696.tmp ... layers GND-L9 and BOTTOM
;T01 Holesize 1. = 0.150000 Tolerance = +0.000000/-0.000000 PLATED MM Quantity = 169
;T02 Holesize 2. = 0.200000 Tolerance = +0.000000/-0.000000 PLATED MM Quantity = 402
%
G90
T01
X1377500Y-6438400
X1384800Y-6238900
X1383800Y-6138800
X1682100Y-6336100
X1781800Y-6335100
X1882100Y-6136400
X1982200Y-6335100
X2082000
X2481600
X2582200
X2781900
X2883700Y-6138400
X3425600Y-6501800
X4948500Y-6258000
X6008300Y-5739000
X5272400Y-5624600
X3282300Y-5840800
X3180200Y-5638700
X2980700Y-5938400
X2779600Y-5738700
X2680200Y-5638500
X2585400Y-5938400
X2584400Y-6038700
X2482300Y-5836400
X2381900
X2282100
X2182400
X2082300
X1980000Y-5938800
X1884300Y-5638500
Y-5739300
X1584100Y-6038400
X1884300Y-5538900
Y-5438900
Y-5338800
Y-5238800
Y-5138700
X2222600Y-5538600
Y-5337300
X2343400Y-5538600
Y-5337300
X2487300Y-5138600
X2680000Y-5538600
R03Y100000
X3180200Y-5438700
Y-5338800
X3280300Y-5238900
X3257800Y-4705500
X3180000Y-4838600
X3180200Y-5039000
X3079800Y-4938600
X2882000Y-4640700
X2781600Y-4934500
X2585400Y-4781300
X2380200Y-4738700
Y-4939100
X2280400Y-5038900
X2082300Y-5040300
X1984300Y-4938400
X1884300Y-5039300
X1881400Y-4936300
X1782100
X1682100Y-5036900
X923700Y-4726400
X902300Y-4755700
X873800Y-4727700
X849600Y-4755100
X826000Y-4727800
X809000Y-4836300
X2608600Y-4554400
X2612200Y-4486400
X2625800Y-4445700
X2673800Y-4459200
X2722800Y-4472900
X3257800Y-4569600
X5860200Y-2260400
Y-2179700
X6013100Y-2406600
X6020600Y-2099800
X6172000Y-2249500
X6180200Y-2099600
X6331800Y-2249500
X6332100Y-2089300
X6571900
X6651900Y-2406700
Y-2250900
X6651400Y-2089300
X6885600Y-2259700
Y-2179700
X6732000Y-1549700
X6721500Y-1859900
Y-1940000
X6652000Y-1628500
X6572200
X6562400Y-1779900
Y-1939800
X6492100Y-1628500
X6492200Y-2030600
X6412000Y-1628500
X6412200Y-2030600
X6340200Y-1779900
Y-1939800
X6332000Y-1628500
X6252000
X6180200Y-1783300
Y-1859100
Y-1939900
Y-2019900
X6131800Y-1532000
X6092800Y-1844800
X6020600Y-1619400
X5996400Y-1699900
X5932800Y-1842500
X5793400Y-1779000
X5562200Y-1474800
X5580600Y-1505500
X5941900Y-1459200
X6252000Y-1473300
X6326200Y-1061900
X6332000Y-1473300
X6387400Y-1062900
X6412000Y-1473300
X6492100
X6572200
X6652000
X6652200Y-1310900
X6819300Y-1420100
X7077000Y-1320000
X7926800Y-670200
X7806200
X7686200Y-671000
X7558100Y-621200
X7433000Y-671000
X7311200
X7188800
X7129900Y-837300
X7122100Y-899800
X7080000Y-870000
X7050000Y-562500
X7024600Y-834600
X7026500Y-903800
X6819000Y-919200
X6769800Y-745100
X6530300Y-589700
X6449800Y-670800
X6170100Y-915000
X6049800Y-895500
X5969500Y-970400
X5960400Y-819800
X5889700Y-670000
X5474200Y-559400
X5455900Y-528700
X5377200Y-515100
X5344600Y-412400
X5889500Y-411400
X6049900Y-329900
X6210000
X6260500Y-433900
X6328400Y-162900
X6449300
X6608400Y-413700
X6640200Y-162900
X6690400Y-413700
X6739700Y-162900
X6760000Y-260100
X6770100Y-413700
X7079900Y-259900
T02
X1031100Y-7791300
Y-7563100
X1053100Y-7676500
X1699900Y-7492700
X1937100Y-7832200
X2124300
X2222000
X2588400
X2743500Y-7152300
X2883500Y-7158200
X2913100Y-7313600
X3723200Y-7185400
X3785900Y-7119600
X3847200Y-7183500
X4126800Y-7239100
X4473100
X4716300Y-7213900
X4927600Y-7504200
X5009300Y-7117000
X5101900Y-7504400
X5205000Y-7118000
X5227900Y-7783300
Y-7623300
X5356000Y-7504400
X5528800
X5605000Y-7230000
X5704900Y-7431700
X5856400Y-7157400
X5915800Y-7783300
Y-7623300
X6126200Y-7504400
X6215000Y-7230000
X6297200Y-7504400
X6475600
X6605000Y-7230000
X6651500Y-7504400
X6828200Y-7431700
X6863900Y-7157400
X6962800Y-7783300
Y-7623300
X7172800Y-7504400
X7215000Y-7230000
X7353400Y-7504400
X8155000Y-7277000
X8345000Y-7177000
X8056500Y-6847900
X7979700Y-6767600
X7980000Y-6850000
X7979700Y-6938700
X7926260Y-6619480
X7897300Y-6849600
X7730000Y-6270000
X7492000Y-7017400
X7480000Y-6390000
Y-6520000
Y-6650000
X7316600Y-6652000
X7186600Y-6252000
X7121600
X6960900Y-6956700
X6707000Y-6652000
X6577000Y-6252000
X6512000
X6317000Y-6652000
X6187000Y-6252000
X6122000
X5953400Y-7024300
X5697000Y-6652000
X5567000Y-6252000
X5502000
X5243400Y-6363600
X3847400Y-7059300
X3720500Y-7056600
X3184000Y-6238800
X2743900Y-6584900
X2333700Y-6737000
X2236200
X2129300
X1727900Y-7015200
X966400Y-7000500
X205600Y-6999500
X764300Y-5106400
X1094400Y-5097600
X1384600Y-5738900
Y-5638700
Y-5538800
Y-5438600
X1384100Y-5339100
Y-5238600
X1383100Y-5138300
X1484400Y-5934100
Y-5838500
X2465800Y-5931900
X2887700Y-5357400
X3541100Y-5620900
Y-5181400
X3542100Y-5756100
X3722000Y-5936900
X3724700Y-6064100
X3786470Y-5999600
X3842500Y-6059900
X3848500Y-5937100
X3857600Y-5181400
X3879600Y-5756100
X3878600Y-5620900
X5274400Y-5360900
X5491000Y-6002100
X5682100Y-5607100
X5683100Y-5312900
X5695100Y-5907100
X5819400Y-5147300
X5848300Y-5739000
X5969700Y-5907700
X6072300Y-6003700
X6131000Y-5125000
X6178200Y-5786700
Y-5689400
Y-5538800
Y-5438800
X6270000Y-5908700
X6367100
X6653100Y-6003700
X6850400Y-5525100
Y-5197000
X6853100Y-5908700
X7175700Y-6003700
X7368000Y-5680000
X7375700Y-5908700
X7548000Y-5680000
X7600000Y-5365000
Y-5215000
X7728000Y-5680000
X7908000
X8124000Y-5358000
Y-5258000
X8290000Y-4800000
X8150000
X7908000Y-4930000
X7728000
X7725000Y-4729000
X7548000Y-4930000
X7491700Y-4185100
X7368000Y-4930000
X7220000Y-5081000
X7080000
X7072000Y-4195000
X6912100Y-4176500
X6696100Y-4193700
X6487100Y-4474700
X6287100
X6145000Y-4989000
X6087100Y-4474700
X5981100Y-4193700
X5707500Y-4633900
X5648200Y-4880700
X5364900Y-5005800
X5359900Y-4335000
Y-4652800
X5035000Y-4827000
X3830000Y-4788600
X3694100Y-4435200
X3623100Y-4153400
X3606000Y-4545100
X3517500Y-4989300
X3484300Y-4143300
X3481100Y-4205500
X3437800Y-4175500
X3437300Y-4686100
X3392900Y-4205700
X3390600Y-4142800
X3274600Y-4177300
X3180800Y-4435200
X3177900Y-4177300
X3053400Y-4155300
X2935600Y-4177300
X2837900
X2722100Y-4142500
X2719800Y-4207000
X2674500Y-4175500
X2628600Y-4207800
X2626900Y-4143300
X2624500Y-5044800
X2508600Y-4177300
X2410900
X2293200Y-4155300
X2082200Y-4440600
X2051300Y-4155300
X1933100Y-4177300
X1909100Y-4435200
X1835500Y-4177300
X1713100Y-4142000
X1710200Y-4207300
X1689800Y-4639000
X1665200Y-4175500
X1618600Y-4206900
X1616000Y-4140600
X1490200Y-4177300
X1484000Y-4639000
X1417900Y-4435200
X1395100Y-4177300
X1384200Y-4738500
X1384100Y-5038600
X1094400Y-4968000
X906700Y-4143300
X903600Y-4205800
X859300Y-4175500
X811200Y-4142500
X811100Y-4208100
X788300Y-4352400
Y-4486300
X574100Y-4632100
X151600Y-3277000
Y-3148200
X755200Y-3461600
X813600Y-3855900
Y-3793200
X859300Y-3825500
X884500Y-3461600
X905500Y-3794100
X905800Y-3858000
X1015900Y-3461600
X1186600Y-3286900
Y-3147900
X1619000Y-3857600
X1616800Y-3792400
X1665200Y-3825500
X1710000Y-3856400
X1710400Y-3793500
X1741500Y-3461900
X1876700
X2012400
X2213200Y-3656100
X2213800Y-3272900
Y-3145300
X2627300Y-3859100
X2628100Y-3794300
X2674500Y-3825500
X2721000Y-3857600
X2723000Y-3792500
X2780100Y-3461900
X2909300
X3038300
X3232900Y-3277200
Y-3146900
X3258400Y-3460300
X3389500Y-3858200
X3388900Y-3789800
Y-3460300
X3437800Y-3825500
X3485000Y-3857700
X3485200Y-3789200
X3518900Y-3460300
X4524800Y-3073200
X4619400
X4805200Y-3135700
X5207400Y-3299500
X5302000
X5910000Y-3113500
X7491700Y-3828400
X8015100Y-3116300
X8141300
X8152400Y-2685700
X8123300Y-2367900
X8123500Y-2422200
X8040000Y-2395000
X7949200Y-2366600
X7949900Y-2422600
X7767100Y-2685700
X7671500
X7481300
X7386300
X7139500Y-2320200
X7136300Y-2417100
X7080000Y-2370000
X7020400Y-2320400
X7018000Y-2421200
X6869100Y-2047600
X6320200Y-2420900
X5847100Y-2895500
X5777600Y-2364100
X5688400Y-2895500
X5521600Y-2089200
X5520900Y-2184400
X5455700Y-2359600
X5359000Y-2360600
X5222300Y-2298700
X4912700Y-2290700
X4866700Y-2648500
Y-2997800
X4844700Y-2759600
Y-2887400
X4619400Y-2863200
X4524800
X4497500Y-2258800
Y-2387400
X4496500Y-2515800
Y-2645300
X4081900Y-2049000
X3948700
X3815300
X3510500Y-2049800
X3381000
X3252900
X3232900Y-3019500
X3095000Y-2049800
X2966200
X2838000
X2488800
X2359500
X2230000
X2213800Y-3017300
X2067900Y-2049800
X1938500
X1807800
X1456800Y-2048700
X1328800
X1199200
X1186600Y-3011000
X1045800Y-2049400
X916100
X786800
X439200
X309400
X180300
X151600Y-3020400
X180300Y-1952600
X309400
X439200
X786800
X916100
X1045800
X1199200
X1328800
X1456800Y-1951600
X1807800
X1938500
X2067900Y-1952600
X2228500
X2357500
X2485900
X2835600
X2964400
X3093600
X3251500Y-1952100
X3380600
X3509600
X3754500Y-1952700
X3885200Y-1953100
X4126600Y-1891200
X4992400Y-1850000
X4992500Y-1738800
X5139200Y-1073400
X5270100
X5467000Y-1409600
X5470000Y-1063600
X5668000Y-1073400
X5798000
X5807700Y-1405400
X6134300Y-1305800
X6404700Y-1860000
X8125100Y-820100
X8125900Y-872400
X8040000Y-845000
X7959400Y-874100
X7958200Y-816500
X7882700Y-135300
X7377600Y-185800
X6795500Y-496100
X5710800Y-511500
X5700400Y-177000
X5573600
X5529100Y-994200
X5466900Y-996300
X5464500Y-934600
X5453400Y-710100
X5397900Y-997300
X5389300Y-713200
X5391100Y-777700
X5388400Y-647100
X5360700Y-463500
X5319600Y-711900
X3557300Y-534400
X3423500
X3289800
X3126500Y-702800
Y-832700
Y-963700
X3019300Y-534400
X2885600
X2752300
X2097500Y-702800
Y-832700
Y-963700
X2012100Y-534400
X1880400
X1748500
X1072600Y-702800
Y-832700
Y-963700
X990300Y-534400
X858400
X725100Y-534900
M30
