M48
METRIC,TZ
T01C.15
T02C.2
T03C1.
T04C3.2
;LEADER: 12 
;HEADER: 
;CODE  : ASCII 
;FILE  : FMDEMOD-57-8-10.drl for board G:/github/PLL_FM_HW/PCB/#Taaaadw10696.tmp ... layers SIGNAL-L8 and BOTTOM
;T01 Holesize 1. = 0.150000 Tolerance = +0.000000/-0.000000 PLATED MM Quantity = 21
;T02 Holesize 2. = 0.200000 Tolerance = +0.000000/-0.000000 PLATED MM Quantity = 41
%
G90
T01
X2182200Y-6040500
X3544600Y-6834500
Y-6784500
Y-6734500
Y-6534500
Y-6384500
Y-6334500
R02Y50000
X5372200Y-1409800
X5265900Y-463700
X6049800Y-825500
X6519300Y-162900
X6570200
X7050000Y-632500
X7863200Y-2806000
X7960800
X8249800
X8345000Y-2805000
X8152400Y-2589700
X8440300
T02
X7486900Y-7623300
X7664000
X7839300
X8013600
X8211930Y-6905150
X8189050Y-7023700
X8105870Y-7011220
X8035150Y-7081930
X7121600Y-6652000
X6512000
X6310000Y-6950000
X6122000Y-6652000
X6120000Y-6950000
X5700000
X5510000
X5152700Y-7291800
X5034000Y-7391900
X4819300
X4475700Y-7414300
X2883500Y-6618200
X664700Y-5010400
X874000Y-4646300
X4474400Y-4757600
X4786900Y-6060300
X4975600Y-6061500
X5033300Y-5700300
Y-5410900
X5683100Y-5703500
X7080000Y-4941000
X7220000
X8150000Y-4660000
X6850690Y-4175820
X5793700Y-4189300
X5644500Y-4190900
X5538600Y-3826800
X5329900Y-3825400
X5120600Y-3824400
X4124600Y-1650000
X6897300Y-1591800
X5711700Y-1503000
X5614800Y-607500
M30
