M48
METRIC,TZ
T01C.15
T02C.2
T03C1.
T04C3.2
;LEADER: 12 
;HEADER: 
;CODE  : ASCII 
;FILE  : FMDEMOD-57-4-10.drl for board G:/github/PLL_FM_HW/PCB/#Taaaadw10696.tmp ... layers SIGNAL-L4 and BOTTOM
;T01 Holesize 1. = 0.150000 Tolerance = +0.000000/-0.000000 PLATED MM Quantity = 10
;T02 Holesize 2. = 0.200000 Tolerance = +0.000000/-0.000000 PLATED MM Quantity = 42
%
G90
T01
X3010500Y-6618200
X3544600Y-6634500
Y-6684500
X5719700Y-3352300
X5815700
X5605000Y-2556600
X6700600Y-994000
X6759900Y-1065000
X6812100Y-1301500
X8153600Y-2806000
T02
X6700000Y-6950000
X6510000
X4911600Y-7214900
X4812900Y-7214700
X4620500Y-7117000
X4522800
X3137500Y-7158200
X331300Y-6999500
X1197700Y-6853900
X2486300Y-5039100
X4474100Y-5507400
X4474500Y-5370430
X4493500Y-6060300
X5033300Y-5508400
X5108500Y-6014800
X5683100Y-5798600
X6019400Y-5147300
X7881000Y-4471000
X7781000
R06X-100000
X7035200Y-3327100
X6883200Y-3826500
X6587100Y-4474700
R02X-200000
X5302000Y-3203500
X5207400
X4984700Y-2759600
X4637500Y-2387400
X4636500Y-2515800
Y-2645300
X4619400Y-2767200
Y-2977200
Y-3186900
X4637500Y-2258800
X5702100Y-2023900
X5852300Y-2023200
M30
