M48
METRIC,TZ
T01C.15
T02C.2
T03C1.
T04C3.2
;LEADER: 12 
;HEADER: 
;CODE  : ASCII 
;FILE  : FMDEMOD-57-1-7.drl for board G:/github/PLL_FM_HW/PCB/#Taaaadw10696.tmp ... layers TOP and SIGNAL-L7
;T01 Holesize 1. = 0.150000 Tolerance = +0.000000/-0.000000 PLATED MM Quantity = 129
;T02 Holesize 2. = 0.200000 Tolerance = +0.000000/-0.000000 PLATED MM Quantity = 12
%
G90
T01
X1931000Y-7115300
R03Y-50000
X2406000Y-6940300
R02X50000
X2332000Y-6488700
X2432000
X2832000
X2932000
X2332000Y-6388700
X2432000
X2832000
X2932000Y-6188700
Y-6088700
X3132000Y-6288700
X4859900Y-4990200
Y-4940200
X4997200Y-1821600
Y-1721600
Y-1421600
Y-1321600
X6010000Y-300000
Y-380000
X5930000
X6090000Y-700000
X6052000Y-1180000
X5892000
X6052000Y-1260000
X5892000
Y-1340000
X5812000Y-1420000
Y-1500000
X6052000Y-1580000
X5812000
X6052000Y-1660000
X5812000
X6052000Y-1740000
X5892000Y-1900000
X5812000
X5892000Y-1980000
X5812000
X5892000Y-2140000
X5812000
X5892000Y-2300000
X5812000
X5892000Y-2380000
Y-2460000
X6037100Y-2646800
X5610600Y-2959400
X5526600Y-3084400
X5900700Y-4550000
X6050300Y-6130200
R03X-50000
X5550300
R05X-50000
X6100300
X6150300
X6440100Y-5240300
R02Y50000
X6366600Y-2632800
X6589900
X6813000
X7037000
X6292000Y-2460000
X6612000
X6212000Y-2380000
R02X400000
X6292000Y-2300000
Y-2220000
X6452000
X6532000
X6852000
X7012000
X7092000
X7012000Y-2140000
X7092000
X7012000Y-2060000
X7092000
X7012000Y-1980000
X7092000
X6772000Y-1900000
X7012000
X7092000
X7012000Y-1820000
X7092000
X6932000Y-1580000
R02X80000
X6532000Y-1500000
X6292000Y-1420000
X6372000
X6452000
X6372000Y-1340000
X6612000Y-1180000
X6650000Y-860000
X6250000Y-700000
X6330000
X6250000Y-380000
X6410000
R02X80000
X6810000
X6970000
X7050000
X6250000Y-300000
X6890000
X7050000
X7933400Y-284500
X7730100
X7626200
X7630000Y-655000
X7580000
R02X-50000
X7139700Y-1500000
X7680000Y-2605000
X7580000
X8015100Y-3283400
X8142100
T02
X4124300Y-6371100
Y-6161100
X7375000Y-5583000
R03X300000
X5864700Y-4187700
X5426500Y-3823700
X6133100Y-2646800
X5515900Y-1973400
Y-1777100
X5611900Y-1666500
M30
