G04 ================== begin FILE IDENTIFICATION RECORD ==================*
G04 Layout Name:  G:/github/PLL_FM_HW/PCB/FMDEMOD-57.brd*
G04 Film Name:    GND-L5*
G04 File Format:  Gerber RS274X*
G04 File Origin:  Cadence Allegro 17.4-S017*
G04 Origin Date:  Thu Oct 21 08:45:56 2021*
G04 *
G04 Layer:  VIA CLASS/GND-L5*
G04 Layer:  PIN/GND-L5*
G04 Layer:  ETCH/GND-L5*
G04 *
G04 Offset:    (0.0000 0.0000)*
G04 Mirror:    No*
G04 Mode:      Positive*
G04 Rotation:  0*
G04 FullContactRelief:  No*
G04 UndefLineWidth:     0.2540*
G04 ================== end FILE IDENTIFICATION RECORD ====================*
%FSLAX25Y25*MOMM*%
%IR0*IPPOS*OFA0.00000B0.00000*MIA0B0*SFA1.00000B1.00000*%
%ADD13C,.3*%
%ADD12C,.4*%
%ADD11C,1.7*%
%ADD10C,3.8*%
%ADD15C,.9004*%
%ADD14C,.7504*%
%ADD16C,.8504*%
%ADD23C,.5544*%
%ADD22C,.6544*%
%ADD17C,1.0004*%
%ADD21C,2.0004*%
%ADD20C,1.5004*%
%ADD19C,1.6004*%
%ADD18C,2.1504*%
G75*
%LPD*%
G75*
G36*
G01X3539560Y-4105000D02*
X3875820D01*
G02X3881490Y-4123590I1J-10159D01*
G03X3787480Y-4300000I118512J-176410D01*
G03X4000000Y-4512520I212520J0D01*
G03X4166860Y-4431610I0J212512D01*
G02X4185000Y-4437900I7979J-6291D01*
G01Y-7562100D01*
G02X4166860Y-7568390I-10161J1D01*
G03X4000000Y-7487480I-166860J-131602D01*
G03X3787480Y-7700000I0J-212520D01*
G03X3876130Y-7872680I212517J6D01*
G02X3870200Y-7891100I-5921J-8258D01*
G01X429800D01*
G02X423870Y-7872680I-9J10162D01*
G03X512520Y-7700000I-123867J172686D01*
G03X300000Y-7487480I-212520J0D01*
G03X124740Y-7579800I0J-212517D01*
G02X106200Y-7574050I-8380J5745D01*
G01Y-4425950D01*
G02X124740Y-4420200I10160J5D01*
G03X300000Y-4512520I175260J120197D01*
G03X512520Y-4300000I0J212520D01*
G03X418510Y-4123590I-212522J0D01*
G02X424180Y-4105000I5669J8431D01*
G01X755590D01*
G02X764670Y-4119710I-3J-10159D01*
G03X759380Y-4142100I44738J-22390D01*
G03X772850Y-4176240I50017J7D01*
G03X760280Y-4209400I37453J-33160D01*
G03X810300Y-4259420I50020J0D01*
G03X850420Y-4239270I0J50016D01*
G02X866700Y-4239230I8155J-6061D01*
G03X906700Y-4259220I40000J30025D01*
G03X956720Y-4209200I0J50020D01*
G03X942100Y-4173870I-50017J-8D01*
G03X952920Y-4142800I-39199J31070D01*
G03X947330Y-4119830I-50018J-7D01*
G02X956360Y-4105000I9025J4669D01*
G01X1560510D01*
G02X1569710Y-4119470I-1J-10160D01*
G03X1564980Y-4140700I45279J-21230D01*
G03X1579140Y-4175580I50023J-7D01*
G03X1568280Y-4206700I39158J-31120D01*
G03X1618300Y-4256720I50020J0D01*
G03X1656400Y-4239110I0J50021D01*
G02X1672150Y-4239450I7736J-6586D01*
G03X1711600Y-4258720I39450J30746D01*
G03X1761620Y-4208700I0J50020D01*
G03X1748690Y-4175140I-50018J0D01*
G03X1762620Y-4140500I-36092J34635D01*
G03X1757970Y-4119440I-50016J0D01*
G02X1767180Y-4105000I9214J4280D01*
G01X2569780D01*
G02X2579020Y-4119390I0J-10161D01*
G03X2574480Y-4140200I45477J-20822D01*
G03X2588000Y-4174400I50016J0D01*
G03X2574480Y-4208600I36496J-34200D01*
G03X2624500Y-4258620I50020J0D01*
G03X2664850Y-4238170I0J50032D01*
G02X2681270Y-4238220I8192J-6005D01*
G03X2721800Y-4258920I40530J29328D01*
G03X2771820Y-4208900I0J50020D01*
G03X2757520Y-4173890I-50007J0D01*
G03X2771220Y-4139500I-36313J34390D01*
G03X2766950Y-4119270I-50022J7D01*
G02X2776240Y-4105000I9289J4111D01*
G01X3332680D01*
G02X3341920Y-4119390I0J-10161D01*
G03X3337380Y-4140200I45477J-20822D01*
G03X3351220Y-4174740I50020J0D01*
G03X3342450Y-4189520I37994J-32536D01*
G02X3332620Y-4187700I-4749J1806D01*
G01Y-4187600D01*
G03X3282600Y-4237620I-50020J0D01*
G03X3322950Y-4217160I0J50018D01*
G02X3340950Y-4220480I8199J-6001D01*
G03X3389200Y-4257320I48250J13177D01*
G03X3428490Y-4238260I0J50026D01*
G02X3444410Y-4238210I7980J-6287D01*
G03X3483500Y-4257020I39090J31212D01*
G03X3533520Y-4207000I0J50020D01*
G03X3521190Y-4174110I-50032J0D01*
G03X3534720Y-4139900I-36484J34210D01*
G03X3530300Y-4119340I-50028J0D01*
G02X3539560Y-4105000I9259J4181D01*
G37*
G36*
G01X424190Y-105010D02*
X3875810D01*
G02X3881470Y-123600I-6J-10158D01*
G03X3787480Y-300000I118538J-176400D01*
G03X4000000Y-512520I212520J0D01*
G03X4176410Y-418510I0J212522D01*
G02X4195000Y-424180I8431J-5669D01*
G01Y-587690D01*
G02X4176880Y-594010I-10161J-4D01*
G03X4137700Y-575080I-39180J-31081D01*
G03X4096300Y-597020I0J-50030D01*
G03X4082500Y-595080I-13796J-48081D01*
G03X4041120Y-617000I0J-50018D01*
G03X4027400Y-615080I-13725J-48099D01*
G03Y-715120I0J-50020D01*
G03X4068780Y-693200I0J50018D01*
G03X4082500Y-695120I13725J48099D01*
G03X4123900Y-673180I0J50030D01*
G03X4137700Y-675120I13796J48081D01*
G03X4176880Y-656190I0J50011D01*
G02X4195000Y-662510I7959J-6316D01*
G01Y-1366140D01*
G02X4179330Y-1374680I-10161J-3D01*
G03X4152200Y-1366680I-27135J-42019D01*
G03Y-1466720I0J-50020D01*
G03X4179330Y-1458720I-5J50019D01*
G02X4195000Y-1467260I5509J-8537D01*
G01Y-2451240D01*
G02X4177030Y-2457730I-10159J6D01*
G03X4142400Y-2441480I-34630J-28775D01*
G03X4125340Y-2444840I6J-45019D01*
G03X4107800Y-2441280I-17546J-41459D01*
G03X4062860Y-2483540I0J-45025D01*
G03X4029930Y-2514280I10135J-43865D01*
G03X4004090Y-2522840I575J-45018D01*
G03X3986300Y-2519180I-17781J-41362D01*
G03Y-2609220I0J-45020D01*
G03X4012710Y-2600660I0J45021D01*
G03X4030500Y-2604320I17781J41362D01*
G03X4046080Y-2601540I5J45021D01*
G03X4072800Y-2610320I26712J36243D01*
G03X4106500Y-2595150I0J45017D01*
G03X4134500Y-2603720I28000J41456D01*
G03X4184520Y-2553700I0J50020D01*
G03X4171910Y-2520500I-50010J0D01*
G03X4177030Y-2515270I-29505J34005D01*
G02X4195000Y-2521760I7811J-6496D01*
G01Y-3575820D01*
G02X4176410Y-3581490I-10159J-1D01*
G03X4000000Y-3487480I-176410J-118512D01*
G03X3787480Y-3700000I0J-212520D01*
G03X3881490Y-3876410I212522J0D01*
G02X3875820Y-3895000I-5669J-8431D01*
G01X424180D01*
G02X418510Y-3876410I-1J10159D01*
G03X512520Y-3700000I-118512J176410D01*
G03X300000Y-3487480I-212520J0D01*
G03X123600Y-3581470I0J-212528D01*
G02X105010Y-3575810I-8432J5666D01*
G01Y-2645570D01*
G02X120540Y-2636950I10159J-4D01*
G03X147000Y-2644520I26460J42459D01*
G03Y-2544480I0J50020D01*
G03X120540Y-2552050I0J-50029D01*
G02X105010Y-2543430I-5371J8624D01*
G01Y-1745590D01*
G02X123310Y-1739520I10158J-5D01*
G03X163400Y-1759620I40090J29930D01*
G03Y-1659580I0J50020D01*
G03X123310Y-1679680I0J-50030D01*
G02X105010Y-1673610I-8142J6075D01*
G01Y-1564960D01*
G02X120680Y-1556420I10160J4D01*
G03X145100Y-1563620I24420J37812D01*
G03X163600Y-1559640I-7J45019D01*
G03X182100Y-1563620I18507J41039D01*
G03X227120Y-1518600I0J45020D01*
G03X226870Y-1513870I-45020J-8D01*
G02X234710Y-1502890I10104J1074D01*
G03X247780Y-1497650I-10011J43891D01*
G03X266700Y-1501820I18920J40837D01*
G03X284040Y-1498350I8J45022D01*
G03X304800Y-1503420I20756J39951D01*
G03Y-1413380I0J45020D01*
G03X287460Y-1416850I-8J-45022D01*
G03X266700Y-1411780I-20756J-39951D01*
G03X243620Y-1418150I6J-45018D01*
G03X224700Y-1413980I-18920J-40837D01*
G03X194020Y-1426050I0J-45027D01*
G03X163400Y-1415580I-30620J-39540D01*
G03X123310Y-1435680I0J-50030D01*
G02X105010Y-1429610I-8142J6075D01*
G01Y-424190D01*
G02X123600Y-418530I10158J-6D01*
G03X300000Y-512520I176400J118538D01*
G03X512520Y-300000I0J212520D01*
G03X418530Y-123600I-212528J0D01*
G02X424190Y-105010I5666J8432D01*
G37*
G36*
G01X4736500Y-4113900D02*
X8163500D01*
G02X8169730Y-4132090I5J-10160D01*
G03X8087480Y-4300000I130266J-167910D01*
G03X8300000Y-4512520I212520J0D01*
G03X8462190Y-4437330I0J212522D01*
G02X8480100Y-4443900I7751J-6568D01*
G01Y-5960890D01*
G02X8463030Y-5968340I-10160J-2D01*
G03X8429000Y-5954980I-34030J-36660D01*
G03Y-6055020I0J-50020D01*
G03X8463030Y-6041660I0J50020D01*
G02X8480100Y-6049110I6910J-7448D01*
G01Y-6213220D01*
G02X8466570Y-6222810I-10161J-3D01*
G03X8450000Y-6219980I-16586J-47187D01*
G03Y-6320020I0J-50020D01*
G03X8466570Y-6317190I-16J50017D01*
G02X8480100Y-6326780I3369J-9587D01*
G01Y-7556100D01*
G02X8462190Y-7562670I-10159J-2D01*
G03X8300000Y-7487480I-162190J-137332D01*
G03X8087480Y-7700000I0J-212520D01*
G03X8156490Y-7856750I212527J0D01*
G02X8149630Y-7874400I-6862J-7491D01*
G01X4750370D01*
G02X4743510Y-7856750I2J10159D01*
G03X4812520Y-7700000I-143517J156750D01*
G03X4600000Y-7487480I-212520J0D01*
G03X4432660Y-7569000I0J-212513D01*
G02X4414500Y-7562730I-7999J6265D01*
G01Y-4437270D01*
G02X4432660Y-4431000I10161J5D01*
G03X4600000Y-4512520I167340J130993D01*
G03X4812520Y-4300000I0J212520D01*
G03X4730270Y-4132090I-212516J0D01*
G02X4736500Y-4113900I6225J8030D01*
G37*
G36*
G01X4435700Y-2211820D02*
X4652870D01*
X4762680Y-2321630D01*
Y-2425720D01*
X5062720D01*
Y-2370880D01*
X5127480Y-2306120D01*
X5402870D01*
X5445470Y-2348720D01*
X5493500D01*
Y-2358910D01*
X5492420Y-2360280D01*
G03X5482880Y-2388000I35482J-27713D01*
G03X5492420Y-2415720I45022J-7D01*
G01X5493500Y-2417090D01*
Y-2426300D01*
X5506780Y-2439580D01*
X5504570Y-2443030D01*
G03X5500180Y-2458000I23329J-14970D01*
G03X5527900Y-2485720I27720J0D01*
G03X5551870Y-2471930I0J27728D01*
G02X5569430I8780J-5104D01*
G03X5584270Y-2484170I23962J13936D01*
G01X5587680Y-2485360D01*
Y-2534960D01*
G03Y-2578240I17314J-21640D01*
G01Y-2872820D01*
X5716780D01*
Y-2933600D01*
G03Y-2983800I34315J-25100D01*
G01Y-3072630D01*
X5739980Y-3095830D01*
Y-3267030D01*
X5793800Y-3320850D01*
G02X5794420Y-3334540I-7185J-7184D01*
G03X5787980Y-3352300I21269J-17760D01*
G03X5815700Y-3380020I27720J0D01*
G03X5843410Y-3353090I0J27721D01*
G02X5853560Y-3343220I10155J-289D01*
G01X5862080D01*
Y-3578970D01*
G02X5849900Y-3588930I-10159J-4D01*
G03X5844400Y-3588380I-5495J-27171D01*
G03Y-3643820I0J-27720D01*
G03X5849900Y-3643270I5J27721D01*
G02X5862080Y-3653230I2021J-9956D01*
G01Y-3867900D01*
X5673300D01*
G02X5666550Y-3850150I0J10158D01*
G03X5677520Y-3825700I-21762J24450D01*
G03X5612080I-32720J0D01*
G03X5623050Y-3850150I32732J0D01*
G02X5616300Y-3867900I-6750J-7592D01*
G01X4742950D01*
G02X4736130Y-3850210I2J10160D01*
G03X4802720Y-3700000I-136123J150210D01*
G03X4600000Y-3497280I-202720J0D01*
G03X4453220Y-3560180I0J-202709D01*
G02X4435700Y-3553170I-7359J7006D01*
G01Y-2211820D01*
G37*
G36*
G01X7769320Y-132700D02*
X8142220D01*
G02X8149420Y-150030I3J-10159D01*
G03X8087480Y-300000I150585J-149970D01*
G03X8300000Y-512520I212520J0D01*
G03X8441950Y-458160I0J212517D01*
G02X8458900Y-465720I6790J-7558D01*
G01Y-3534280D01*
G02X8441950Y-3541840I-10160J-2D01*
G03X8300000Y-3487480I-141950J-158157D01*
G03X8087480Y-3700000I0J-212520D01*
G03X8150280Y-3850830I212528J0D01*
G02X8143130Y-3868200I-7156J-7211D01*
G01X6925390D01*
G02X6917260Y-3851960I7J10158D01*
G03X6925720Y-3826500I-34062J25454D01*
G03X6840680I-42520J0D01*
G03X6849140Y-3851960I42522J-6D01*
G02X6841010Y-3868200I-8137J-6082D01*
G01X5962100D01*
Y-3638810D01*
X5962580Y-3637780D01*
G03X5964990Y-3631360I-38472J18104D01*
G02X5974950Y-3632490I4886J-1393D01*
G03X6024900Y-3679920I49950J2587D01*
G03X6074920Y-3629900I0J50020D01*
G03X6058110Y-3592500I-50010J0D01*
G02Y-3577300I6747J7600D01*
G03X6074920Y-3539900I-33200J37400D01*
G03X5974880I-50020J0D01*
G03X5991690Y-3577300I50010J0D01*
G02Y-3592500I-6747J-7600D01*
G03X5981630Y-3604810I33208J-37404D01*
G02X5963440Y-3603570I-8790J5097D01*
G03X5962580Y-3601620I-39320J-16177D01*
G01X5962100Y-3600590D01*
Y-3259000D01*
X5946300Y-3243200D01*
X5857600D01*
X5840000Y-3225600D01*
Y-3054400D01*
X5816800Y-3031200D01*
Y-2795000D01*
X5794600Y-2772800D01*
X5687700D01*
Y-2289100D01*
X5648270Y-2249670D01*
X5651470Y-2246090D01*
G03X5662920Y-2216100I-33567J29997D01*
G03X5617900Y-2171080I-45020J0D01*
G03X5581190Y-2190040I0J-45019D01*
G02X5564290Y-2189550I-8287J5879D01*
G03X5521900Y-2166080I-42390J-26546D01*
G03X5472180Y-2210630I0J-50020D01*
G02X5454900Y-2216700I-10098J1116D01*
G01X5444300Y-2206100D01*
X5035400D01*
X4962700Y-2278800D01*
Y-2325700D01*
X4862700D01*
Y-2280200D01*
X4694300Y-2111800D01*
X4433600D01*
Y-1692710D01*
G02X4449710Y-1684470I10161J3D01*
G03X4474600Y-1692520I24895J34468D01*
G03Y-1607480I0J42520D01*
G03X4449710Y-1615530I5J-42518D01*
G02X4433600Y-1607290I-5949J8237D01*
G01Y-458670D01*
G02X4450890Y-451430I10160J3D01*
G03X4600000Y-512520I149110J151431D01*
G03X4812520Y-300000I0J212520D01*
G03X4750580Y-150030I-212525J0D01*
G02X4757780Y-132700I7197J7171D01*
G01X5318010D01*
G02X5326370Y-148640I3J-10161D01*
G03X5317480Y-177100I41128J-28466D01*
G03X5367500Y-227120I50020J0D01*
G03X5408770Y-205370I0J50029D01*
G02X5425530I8380J-5737D01*
G03X5466800Y-227120I41270J28279D01*
G03X5516820Y-177100I0J50020D01*
G03X5507930Y-148640I-50018J-6D01*
G02X5516290Y-132700I8357J5779D01*
G01X7586980D01*
G02X7593600Y-150560I-6J-10159D01*
G03X7576180Y-188500I32606J-37940D01*
G03X7605940Y-234230I50015J0D01*
G02X7607020Y-252250I-4115J-9289D01*
G03X7588680Y-284500I19185J-32250D01*
G03X7663720I37520J0D01*
G03X7645380Y-252250I-37525J0D01*
G02X7646460Y-234230I5195J8731D01*
G03X7669380Y-213750I-20256J45734D01*
G02X7686920I8770J-5127D01*
G03X7709840Y-234230I43176J25254D01*
G02X7710920Y-252250I-4115J-9289D01*
G03X7692580Y-284500I19185J-32250D01*
G03X7767620I37520J0D01*
G03X7749280Y-252250I-37525J0D01*
G02X7750360Y-234230I5195J8731D01*
G03X7780120Y-188500I-20255J45730D01*
G03X7762700Y-150560I-50026J0D01*
G02X7769320Y-132700I6626J7701D01*
G37*
%LPC*%
G75*
G36*
G01X2668440Y-7540300D02*
G02X2676020Y-7565300I-37437J-25000D01*
G02X2585980I-45020J0D01*
G02X2593560Y-7540300I45017J0D01*
G02X2585980Y-7515300I37437J25000D01*
G02X2676020I45020J0D01*
G02X2668440Y-7540300I-45017J0D01*
G37*
G36*
G01X1577420Y-7249370D02*
G03X1592450Y-7242430I5045J8819D01*
G02X1641600Y-7201680I49150J-9266D01*
G02Y-7301720I0J-50020D01*
G02X1616780Y-7295130I-4J50021D01*
G03X1601750Y-7302070I-5045J-8819D01*
G02X1552600Y-7342820I-49150J9266D01*
G02Y-7242780I0J50020D01*
G02X1577420Y-7249370I4J-50021D01*
G37*
G36*
G01X1903020Y-7190300D02*
G02Y-7140300I27987J25000D01*
G02X1893480Y-7115300I27987J25000D01*
G02X1968520I37520J0D01*
G02X1958980Y-7140300I-37527J0D01*
G02Y-7190300I-27987J-25000D01*
G02Y-7240300I-27987J-25000D01*
G02X1968520Y-7265300I-27987J-25000D01*
G02X1893480I-37520J0D01*
G02X1903020Y-7240300I37527J0D01*
G02Y-7190300I27987J25000D01*
G37*
G36*
G01X2431000Y-6912320D02*
G02X2481000I25000J-27987D01*
G02X2506000Y-6902780I25000J-27987D01*
G02X2524810Y-6907840I-7J-37518D01*
G02X2556000Y-6895280I31190J-32447D01*
G02Y-6985320I0J-45020D01*
G02X2524810Y-6972760I0J45007D01*
G02X2506000Y-6977820I-18817J32458D01*
G02X2481000Y-6968280I0J37527D01*
G02X2431000I-25000J27987D01*
G02X2406000Y-6977820I-25000J27987D01*
G02Y-6902780I0J37520D01*
G02X2431000Y-6912320I0J-37527D01*
G37*
G36*
G01X3572580Y-6659500D02*
G02X3582120Y-6684500I-27987J-25000D01*
G02X3507080I-37520J0D01*
G02X3516620Y-6659500I37527J0D01*
G02X3507080Y-6634500I27987J25000D01*
G02X3582120I37520J0D01*
G02X3572580Y-6659500I-37527J0D01*
G37*
G36*
G01X1594530Y-6390700D02*
G03X1583980Y-6381080I-10146J-532D01*
G02X1582200Y-6381120I-1901J44977D01*
G02X1627220Y-6336100I0J45020D01*
G02X1627020Y-6340340I-45020J-1D01*
G03X1636040Y-6351400I10115J-959D01*
G02X1669520Y-6388700I-4038J-37300D01*
G02X1632000Y-6426220I-37520J0D01*
G02X1594530Y-6390700I0J37524D01*
G37*
G36*
G01X810960Y-5618530D02*
G03Y-5602670I-6345J7930D01*
G02X792180Y-5563600I31251J39070D01*
G02X892220I50020J0D01*
G02X873440Y-5602670I-50031J0D01*
G03Y-5618530I6345J-7930D01*
G02X892220Y-5657600I-31251J-39070D01*
G02X792180I-50020J0D01*
G02X810960Y-5618530I50031J0D01*
G37*
G36*
G01X1008430Y-5424570D02*
G03X992070I-8180J-6026D01*
G02X951800Y-5444920I-40270J29670D01*
G02Y-5344880I0J50020D01*
G02X992070Y-5365230I0J-50020D01*
G03X1008430I8180J6026D01*
G02X1048700Y-5344880I40270J-29670D01*
G02Y-5444920I0J-50020D01*
G02X1008430Y-5424570I0J50020D01*
G37*
G36*
G01X2032710Y-4943690D02*
G03X2042980Y-4934570I161J10161D01*
G02X2080300Y-4900880I37320J-3826D01*
G02X2117820Y-4938400I0J-37520D01*
G02X2085640Y-4975540I-37522J0D01*
G03X2076950Y-4986170I1452J-10054D01*
G02X2077020Y-4988700I-44951J-2510D01*
G02X2032000Y-4943680I-45020J0D01*
G02X2032710Y-4943690I-279J-45016D01*
G37*
G36*
G01X2284120Y-4800890D02*
G03X2294510Y-4790300I241J10155D01*
G02X2294480Y-4788700I37492J1503D01*
G02X2332000Y-4826220I37520J0D01*
G02X2331080Y-4826210I-52J37521D01*
G03X2320690Y-4836800I-241J-10155D01*
G02X2320720Y-4838400I-37492J-1503D01*
G02X2283200Y-4800880I-37520J0D01*
G02X2284120Y-4800890I52J-37521D01*
G37*
G36*
G01X2044650Y-4643220D02*
G03X2034040Y-4633670I-10145J-602D01*
G02X2032000Y-4633720I-2123J44968D01*
G02X2077020Y-4588700I0J45020D01*
G02X2076840Y-4592670I-45018J52D01*
G03X2085930Y-4603680I10123J-900D01*
G02X2119620Y-4641000I-3826J-37320D01*
G02X2082100Y-4678520I-37520J0D01*
G02X2044650Y-4643220I0J37515D01*
G37*
G36*
G01X2065210Y-7621260D02*
G02X2106000Y-7595280I40790J-19031D01*
G02X2131000Y-7602860I0J-45017D01*
G02X2156000Y-7595280I25000J-37437D01*
G02Y-7685320I0J-45020D01*
G02X2131000Y-7677740I0J45017D01*
G02X2106000Y-7685320I-25000J37437D01*
G02X2065210Y-7659340I0J45011D01*
G03X2046790I-9210J-4301D01*
G02X2006000Y-7685320I-40790J19031D01*
G02Y-7595280I0J45020D01*
G02X2046790Y-7621260I0J-45011D01*
G03X2065210I9210J4301D01*
G37*
G36*
G01X3372220Y-6705180D02*
G02X3329000Y-6730020I-43220J25180D01*
G02Y-6629980I0J50020D01*
G02X3372220Y-6654820I0J-50020D01*
G03X3389780I8780J5112D01*
G02X3433000Y-6629980I43220J-25180D01*
G02Y-6730020I0J-50020D01*
G02X3389780Y-6705180I0J50020D01*
G03X3372220I-8780J-5112D01*
G37*
G36*
G01X1512960Y-6129490D02*
G02X1486980Y-6088700I19031J40790D01*
G02X1577020I45020J0D01*
G02X1551040Y-6129490I-45011J0D01*
G03Y-6147910I4301J-9210D01*
G02X1577020Y-6188700I-19031J-40790D01*
G02X1576900Y-6191940I-45018J45D01*
G03X1586010Y-6202770I10134J-722D01*
G02X1619720Y-6240100I-3814J-37330D01*
G02X1582200Y-6277620I-37520J0D01*
G02X1544790Y-6243020I0J37524D01*
G03X1534170Y-6233670I-10126J-796D01*
G02X1532000Y-6233720I-2122J44971D01*
G02X1486980Y-6188700I0J45020D01*
G02X1512960Y-6147910I45011J0D01*
G03Y-6129490I-4301J9210D01*
G37*
G36*
G01X3012960D02*
G02X2986980Y-6088700I19031J40790D01*
G02X3077020I45020J0D01*
G02X3051040Y-6129490I-45011J0D01*
G03Y-6147910I4301J-9210D01*
G02X3077020Y-6188700I-19031J-40790D01*
G02X2986980I-45020J0D01*
G02X3012960Y-6147910I45011J0D01*
G03Y-6129490I-4301J9210D01*
G37*
G36*
G01X1772790Y-6007740D02*
G02X1732000Y-6033720I-40790J19031D01*
G02Y-5943680I0J45020D01*
G02X1772790Y-5969660I0J-45011D01*
G03X1791210I9210J4301D01*
G02X1832000Y-5943680I40790J-19031D01*
G02Y-6033720I0J-45020D01*
G02X1791210Y-6007740I0J45011D01*
G03X1772790I-9210J-4301D01*
G37*
G36*
G01X2772790D02*
G02X2732000Y-6033720I-40790J19031D01*
G02Y-5943680I0J45020D01*
G02X2772790Y-5969660I0J-45011D01*
G03X2791210I9210J4301D01*
G02X2832000Y-5943680I40790J-19031D01*
G02Y-6033720I0J-45020D01*
G02X2791210Y-6007740I0J45011D01*
G03X2772790I-9210J-4301D01*
G37*
G36*
G01X1512960Y-5429490D02*
G02X1486980Y-5388700I19031J40790D01*
G02X1577020I45020J0D01*
G02X1551040Y-5429490I-45011J0D01*
G03Y-5447910I4301J-9210D01*
G02X1577020Y-5488700I-19031J-40790D01*
G02X1486980I-45020J0D01*
G02X1512960Y-5447910I45011J0D01*
G03Y-5429490I-4301J9210D01*
G37*
G36*
G01X3012960D02*
G02X2986980Y-5388700I19031J40790D01*
G02X3077020I45020J0D01*
G02X3051040Y-5429490I-45011J0D01*
G03Y-5447910I4301J-9210D01*
G02X3077020Y-5488700I-19031J-40790D01*
G02X2986980I-45020J0D01*
G02X3012960Y-5447910I45011J0D01*
G03Y-5429490I-4301J9210D01*
G37*
G36*
G01X2352950Y-5035550D02*
G02X2390300Y-5001580I37350J-3548D01*
G02X2422550Y-5019920I0J-37525D01*
G03X2440570Y-5018840I8731J5195D01*
G02X2486300Y-4989080I45730J-20255D01*
G02Y-5089120I0J-50020D01*
G02X2440570Y-5059360I0J50015D01*
G03X2422550Y-5058280I-9289J-4115D01*
G02X2390300Y-5076620I-32250J19185D01*
G02X2387820Y-5076540I-31J37521D01*
G03X2376990Y-5087050I-678J-10136D01*
G02X2377020Y-5088700I-44990J-1643D01*
G02X2351040Y-5129490I-45011J0D01*
G03Y-5147910I4301J-9210D01*
G02X2372790Y-5169660I-19040J-40790D01*
G03X2391210I9210J4301D01*
G02X2472790I40790J-19031D01*
G03X2491210I9210J4301D01*
G02X2532000Y-5143680I40790J-19031D01*
G02X2577020Y-5188700I0J-45020D01*
G02X2551040Y-5229490I-45011J0D01*
G03Y-5247910I4301J-9210D01*
G02Y-5329490I-19031J-40790D01*
G03Y-5347910I4301J-9210D01*
G02X2572790Y-5369660I-19040J-40790D01*
G03X2591210I9210J4301D01*
G02X2632000Y-5343680I40790J-19031D01*
G02Y-5433720I0J-45020D01*
G02X2591210Y-5407740I0J45011D01*
G03X2572790I-9210J-4301D01*
G02X2551040Y-5429490I-40790J19040D01*
G03Y-5447910I4301J-9210D01*
G02Y-5529490I-19031J-40790D01*
G03Y-5547910I4301J-9210D01*
G02X2572790Y-5569660I-19040J-40790D01*
G03X2591210I9210J4301D01*
G02X2632000Y-5543680I40790J-19031D01*
G02Y-5633720I0J-45020D01*
G02X2591210Y-5607740I0J45011D01*
G03X2572790I-9210J-4301D01*
G02X2551040Y-5629490I-40790J19040D01*
G03Y-5647910I4301J-9210D01*
G02X2577020Y-5688700I-19031J-40790D01*
G02X2532000Y-5733720I-45020J0D01*
G02X2491210Y-5707740I0J45011D01*
G03X2472790I-9210J-4301D01*
G02X2391210I-40790J19031D01*
G03X2372790I-9210J-4301D01*
G02X2291210I-40790J19031D01*
G03X2272790I-9210J-4301D01*
G02X2191210I-40790J19031D01*
G03X2172790I-9210J-4301D01*
G02X2132000Y-5733720I-40790J19031D01*
G02Y-5643680I0J45020D01*
G02X2172790Y-5669660I0J-45011D01*
G03X2191210I9210J4301D01*
G02X2272790I40790J-19031D01*
G03X2291210I9210J4301D01*
G02X2372790I40790J-19031D01*
G03X2391210I9210J4301D01*
G02X2472790I40790J-19031D01*
G03X2491210I9210J4301D01*
G02X2512960Y-5647910I40790J-19040D01*
G03Y-5629490I-4301J9210D01*
G02Y-5547910I19031J40790D01*
G03Y-5529490I-4301J9210D01*
G02Y-5447910I19031J40790D01*
G03Y-5429490I-4301J9210D01*
G02Y-5347910I19031J40790D01*
G03Y-5329490I-4301J9210D01*
G02Y-5247910I19031J40790D01*
G03Y-5229490I-4301J9210D01*
G02X2491210Y-5207740I19040J40790D01*
G03X2472790I-9210J-4301D01*
G02X2391210I-40790J19031D01*
G03X2372790I-9210J-4301D01*
G02X2291210I-40790J19031D01*
G03X2272790I-9210J-4301D01*
G02X2191210I-40790J19031D01*
G03X2172790I-9210J-4301D01*
G02X2091210I-40790J19031D01*
G03X2072790I-9210J-4301D01*
G02X2051040Y-5229490I-40790J19040D01*
G03Y-5247910I4301J-9210D01*
G02Y-5329490I-19031J-40790D01*
G03Y-5347910I4301J-9210D01*
G02Y-5429490I-19031J-40790D01*
G03Y-5447910I4301J-9210D01*
G02Y-5529490I-19031J-40790D01*
G03Y-5547910I4301J-9210D01*
G02X2077020Y-5588700I-19031J-40790D01*
G02X1986980I-45020J0D01*
G02X2012960Y-5547910I45011J0D01*
G03Y-5529490I-4301J9210D01*
G02Y-5447910I19031J40790D01*
G03Y-5429490I-4301J9210D01*
G02Y-5347910I19031J40790D01*
G03Y-5329490I-4301J9210D01*
G02Y-5247910I19031J40790D01*
G03Y-5229490I-4301J9210D01*
G02X1986980Y-5188700I19031J40790D01*
G02X2032000Y-5143680I45020J0D01*
G02X2072790Y-5169660I0J-45011D01*
G03X2091210I9210J4301D01*
G02X2112960Y-5147910I40790J-19040D01*
G03Y-5129490I-4301J9210D01*
G02X2086980Y-5088700I19031J40790D01*
G02X2177020I45020J0D01*
G02X2151040Y-5129490I-45011J0D01*
G03Y-5147910I4301J-9210D01*
G02X2172790Y-5169660I-19040J-40790D01*
G03X2191210I9210J4301D01*
G02X2272790I40790J-19031D01*
G03X2291210I9210J4301D01*
G02X2312960Y-5147910I40790J-19040D01*
G03Y-5129490I-4301J9210D01*
G02X2286980Y-5088700I19031J40790D01*
G02X2332000Y-5043680I45020J0D01*
G02X2340840Y-5044560I-18J-45018D01*
G03X2352950Y-5035550I1993J9964D01*
G37*
G36*
G01X3212820Y-3543810D02*
G02X3211280Y-3531500I48479J12316D01*
G02X3230530Y-3492060I50028J0D01*
G02X3228880Y-3479300I48372J12742D01*
G02X3328920I50020J0D01*
G02X3309670Y-3518740I-50028J0D01*
G02X3311320Y-3531500I-48372J-12742D01*
G02X3292380Y-3570690I-50015J0D01*
G02X3293920Y-3583000I-48479J-12316D01*
G02X3193880I-50020J0D01*
G02X3212820Y-3543810I50015J0D01*
G37*
G36*
G01X2672780Y-3544420D02*
G02X2671080Y-3531500I48319J12930D01*
G02X2690720Y-3491770I50017J-6D01*
G02X2688980Y-3478700I48279J13078D01*
G02X2789020I50020J0D01*
G02X2769380Y-3518430I-50017J6D01*
G02X2771120Y-3531500I-48279J-13078D01*
G02X2751020Y-3571580I-50010J0D01*
G02X2752720Y-3584500I-48319J-12930D01*
G02X2652680I-50020J0D01*
G02X2672780Y-3544420I50010J0D01*
G37*
G36*
G01X1640690Y-3544830D02*
G02X1638880Y-3531500I48209J13334D01*
G02X1658780Y-3491560I50030J0D01*
G02X1656880Y-3477900I48121J13655D01*
G02X1756920I50020J0D01*
G02X1737020Y-3517840I-50030J0D01*
G02X1738920Y-3531500I-48121J-13655D01*
G02X1719110Y-3571370I-50027J0D01*
G02X1720920Y-3584700I-48209J-13334D01*
G02X1620880I-50020J0D01*
G02X1640690Y-3544830I50027J0D01*
G37*
G36*
G01X646660Y-3543980D02*
G02X645080Y-3531500I48441J12473D01*
G02X664640Y-3491820I50028J0D01*
G02X662580Y-3477600I47962J14207D01*
G02X762620I50020J0D01*
G02X743060Y-3517280I-50028J0D01*
G02X745120Y-3531500I-47962J-14207D01*
G02X725640Y-3571120I-50031J0D01*
G02X727220Y-3583600I-48441J-12473D01*
G02X627180I-50020J0D01*
G02X646660Y-3543980I50031J0D01*
G37*
G36*
G01X2295890Y-3517980D02*
G02X2283200Y-3519620I-12703J48378D01*
G02X2243600Y-3500160I0J50022D01*
G02X2230800Y-3501820I-12780J48363D01*
G02Y-3401780I0J50020D01*
G02X2270400Y-3421240I0J-50022D01*
G02X2283200Y-3419580I12780J-48363D01*
G02X2323010Y-3439320I0J-50013D01*
G02X2335700Y-3437680I12703J-48378D01*
G02Y-3537720I0J-50020D01*
G02X2295890Y-3517980I0J50013D01*
G37*
G36*
G01X1268640Y-3517950D02*
G02X1255800Y-3519620I-12817J48353D01*
G02X1215640Y-3499420I0J50021D01*
G02X1202700Y-3501120I-12930J48321D01*
G02Y-3401080I0J50020D01*
G02X1242860Y-3421280I0J-50021D01*
G02X1255800Y-3419580I12930J-48321D01*
G02X1295560Y-3439250I0J-50019D01*
G02X1308400Y-3437580I12817J-48353D01*
G02Y-3537620I0J-50020D01*
G02X1268640Y-3517950I0J50019D01*
G37*
G36*
G01X1269510Y-3382880D02*
G02X1256800Y-3384520I-12703J48381D01*
G02X1217020Y-3364820I0J50014D01*
G02X1204100Y-3366520I-12930J48319D01*
G02Y-3266480I0J50020D01*
G02X1243880Y-3286180I0J-50014D01*
G02X1256800Y-3284480I12930J-48319D01*
G02X1295990Y-3303420I0J-50015D01*
G02X1308700Y-3301780I12703J-48381D01*
G02Y-3401820I0J-50020D01*
G02X1269510Y-3382880I0J50015D01*
G37*
G36*
G01X234620Y-3382710D02*
G02X221300Y-3384520I-13334J48208D01*
G02X180340Y-3363210I0J50020D01*
G02X167000Y-3365020I-13334J48211D01*
G02Y-3264980I0J50020D01*
G02X207960Y-3286290I0J-50020D01*
G02X221300Y-3284480I13334J-48211D01*
G02X261680Y-3304990I-6J-50017D01*
G02X275000Y-3303180I13334J-48208D01*
G02Y-3403220I0J-50020D01*
G02X234620Y-3382710I6J50017D01*
G37*
G36*
G01X1384040Y-3063590D02*
G03X1383620Y-3046960I-6041J8168D01*
G02X1361280Y-3005300I27674J41660D01*
G02X1411300Y-2955280I50020J0D01*
G02X1459930Y-2993590I0J-50020D01*
G03X1465480Y-2997440I4937J1192D01*
G02X1471500Y-2997080I5991J-49662D01*
G02X1479620Y-2997740I21J-50022D01*
G02X1528700Y-2957380I49080J-9662D01*
G02X1578720Y-3007400I0J-50020D01*
G02X1559520Y-3046800I-50026J0D01*
G03Y-3062800I6259J-8000D01*
G02X1578720Y-3102200I-30826J-39400D01*
G02X1557640Y-3142990I-50017J6D01*
G03X1559050Y-3160400I5882J-8286D01*
G02X1587020Y-3205300I-22054J-44900D01*
G02X1561970Y-3248640I-50017J0D01*
G03X1560840Y-3265490I5075J-8803D01*
G02X1580320Y-3305100I-30531J-39610D01*
G02X1530300Y-3355120I-50020J0D01*
G02X1480390Y-3308360I0J50016D01*
G03X1475000Y-3303620I-5071J-332D01*
G02X1471900Y-3303720I-3162J49918D01*
G02X1469970Y-3303680I71J50019D01*
G03X1464700Y-3308620I-191J-5077D01*
G02X1414700Y-3357220I-50000J1420D01*
G02X1364680Y-3307200I0J50020D01*
G02X1383070Y-3268450I50021J0D01*
G03X1382430Y-3252230I-6425J7869D01*
G02X1360880Y-3211100I28475J41130D01*
G02X1389490Y-3165900I50010J0D01*
G03X1389970Y-3147780I-4353J9182D01*
G02X1363780Y-3103800I23832J43980D01*
G02X1384040Y-3063590I50032J0D01*
G37*
G36*
G01X372640Y-3061420D02*
G03X372200Y-3043260I-4768J8970D01*
G02X343480Y-2998000I21303J45260D01*
G02X393500Y-2947980I50020J0D01*
G02X442700Y-2989000I0J-50016D01*
G03X447990Y-2993160I4999J913D01*
G02X450800Y-2993080I2828J-49939D01*
G02X456620Y-2993420I-2J-50020D01*
G03X462190Y-2989390I593J5045D01*
G02X511200Y-2949380I49010J-10012D01*
G02X561220Y-2999400I0J-50020D01*
G02X535920Y-3042880I-50012J0D01*
G03X536160Y-3060680I5023J-8834D01*
G02X562620Y-3104800I-23553J-44120D01*
G02X536290Y-3148850I-50013J0D01*
G03Y-3166750I4816J-8950D01*
G02X562620Y-3210800I-23683J-44050D01*
G02X535980Y-3255020I-50021J0D01*
G03X535250Y-3272560I4746J-8983D01*
G02X558320Y-3314700I-26952J-42140D01*
G02X508300Y-3364720I-50020J0D01*
G02X458750Y-3321580I0J50026D01*
G03X453380Y-3317210I-5029J-695D01*
G02X450000Y-3317320I-3316J49912D01*
G02X446940Y-3317230I-60J50022D01*
G02X397000Y-3364420I-49940J2830D01*
G02X346980Y-3314400I0J50020D01*
G02X367680Y-3273880I50009J0D01*
G03X367100Y-3257030I-5957J8230D01*
G02X343580Y-3214600I26512J42430D01*
G02X373460Y-3168820I50010J0D01*
G03X373880Y-3150410I-4091J9303D01*
G02X346080Y-3105600I22214J44810D01*
G02X372640Y-3061420I50025J0D01*
G37*
G36*
G01X2402290Y-3047690D02*
G03X2401000Y-3031310I-6605J7721D01*
G02X2377180Y-2988700I26201J42610D01*
G02X2427200Y-2938680I50020J0D01*
G02X2476810Y-2982350I0J-50014D01*
G03X2488240Y-2991120I10076J1299D01*
G02X2494900Y-2990680I6620J-49583D01*
G02X2503920Y-2991500I0J-50020D01*
G03X2515820Y-2982860I1832J9992D01*
G02X2565400Y-2939480I49580J-6643D01*
G02X2615420Y-2989500I0J-50020D01*
G02X2593040Y-3031190I-50021J0D01*
G03X2591990Y-3047330I5613J-8469D01*
G02X2609220Y-3085100I-32783J-37770D01*
G02X2559200Y-3135120I-50020J0D01*
G02X2557630Y-3135100I-148J50022D01*
G03X2547380Y-3147400I-320J-10154D01*
G02X2548520Y-3158000I-48878J-10618D01*
G02X2545640Y-3174730I-50033J0D01*
G03X2555090Y-3188280I9575J-3392D01*
G02X2604520Y-3238300I-594J-50020D01*
G02X2591380Y-3272090I-50016J0D01*
G03X2592180Y-3286590I7495J-6859D01*
G02X2609220Y-3324200I-32986J-37610D01*
G02X2559200Y-3374220I-50020J0D01*
G02X2510120Y-3333850I0J50020D01*
G03X2504240Y-3329830I-4985J-981D01*
G02X2495400Y-3330620I-8855J49229D01*
G02X2488760Y-3330180I-20J50021D01*
G03X2477520Y-3337940I-1348J-10068D01*
G02X2428800Y-3376620I-48720J11343D01*
G02X2398090Y-3366080I0J50009D01*
G03X2382420Y-3370320I-6238J-8022D01*
G02X2336000Y-3401720I-46420J18612D01*
G02X2296890Y-3382880I0J50014D01*
G02X2284200Y-3384520I-12703J48378D01*
G02X2244660Y-3365140I0J50026D01*
G02X2231800Y-3366820I-12855J48341D01*
G02Y-3266780I0J50020D01*
G02X2271340Y-3286160I0J-50026D01*
G02X2284200Y-3284480I12855J-48341D01*
G02X2323310Y-3303320I0J-50014D01*
G02X2336000Y-3301680I12703J-48378D01*
G02X2366710Y-3312220I0J-50009D01*
G03X2382380Y-3307980I6238J8022D01*
G02X2401350Y-3284780I46430J-18609D01*
G03X2403430Y-3269610I-5574J8492D01*
G02X2391080Y-3236700I37674J32910D01*
G02X2441100Y-3186680I50020J0D01*
G01X2441220D01*
G03X2450910Y-3173390I23J10161D01*
G02X2448480Y-3158000I47588J15401D01*
G02X2449540Y-3147770I50019J-13D01*
G03X2438780Y-3135560I-9946J2082D01*
G02X2434800Y-3135720I-3998J49859D01*
G02X2384780Y-3085700I0J50020D01*
G02X2402290Y-3047690I50010J0D01*
G37*
G36*
G01X2971790Y-2522840D02*
G02X2994030Y-2516580I22910J-38758D01*
G02X3028730Y-2479650I44471J-7018D01*
G02X3073100Y-2442280I44370J-7656D01*
G02X3092600Y-2446720I5J-45021D01*
G02X3111900Y-2442380I19286J-40683D01*
G02X3156920Y-2487400I0J-45020D01*
G02X3139040Y-2523320I-45021J0D01*
G02X3149320Y-2553700I-39750J-30380D01*
G02X3099300Y-2603720I-50020J0D01*
G02X3069950Y-2594210I-7J50022D01*
G02X3036300Y-2609320I-33650J29914D01*
G02X3012920Y-2602770I5J45019D01*
G02X2994700Y-2606620I-18216J41171D01*
G02X2973210Y-2601160I0J45021D01*
G02X2950300Y-2607420I-22902J38762D01*
G02Y-2517380I0J45020D01*
G02X2971790Y-2522840I0J-45021D01*
G37*
G36*
G01X950750Y-2516080D02*
G02X983980Y-2479600I44453J-7118D01*
G02X1028400Y-2441880I44420J-7295D01*
G02X1047240Y-2446010I3J-45021D01*
G02X1066300Y-2441780I19052J-40792D01*
G02X1111320Y-2486800I0J-45020D01*
G02X1098350Y-2518410I-45018J5D01*
G02X1112920Y-2553700I-35453J-35290D01*
G02X1062900Y-2603720I-50020J0D01*
G02X1033320Y-2594030I8J50017D01*
G03X1026770Y-2594490I-3003J-4099D01*
G02X995400Y-2607220I-31370J32287D01*
G02X972320Y-2600860I-10J45023D01*
G02X951200Y-2606120I-21120J39771D01*
G02X929590Y-2600600I-10J45022D01*
G02X907100Y-2606620I-22490J39000D01*
G02Y-2516580I0J45020D01*
G02X928710Y-2522100I10J-45022D01*
G02X950750Y-2516080I22494J-38998D01*
G37*
G36*
G01X1948960Y-2523890D02*
G02X1970900Y-2518180I21940J-39296D01*
G02X1972930Y-2518230I-93J-45018D01*
G02X2002240Y-2481480I44674J-5566D01*
G02X2047000Y-2441280I44760J-4819D01*
G02X2066440Y-2445690I7J-45022D01*
G02X2084800Y-2441780I18352J-41112D01*
G02X2129820Y-2486800I0J-45020D01*
G02X2116060Y-2519200I-45025J0D01*
G03X2115580Y-2525990I3522J-3661D01*
G02X2125120Y-2553700I-35473J-27710D01*
G02X2080100Y-2598720I-45020J0D01*
G02X2052970Y-2589630I0J45031D01*
G02X2016600Y-2608120I-36370J26525D01*
G02X1993830Y-2601940I-4J45021D01*
G02X1970900Y-2608220I-22935J38739D01*
G02X1948440Y-2602210I12J45017D01*
G02X1926500Y-2607920I-21940J39296D01*
G02Y-2517880I0J45020D01*
G02X1948960Y-2523890I-12J-45017D01*
G37*
G36*
G01X2556820Y-2157360D02*
G02X2538780Y-2118900I31977J38460D01*
G02X2556940Y-2080340I50018J0D01*
G02X2555180Y-2067200I48258J13152D01*
G02X2605200Y-2017180I50020J0D01*
G02X2645620Y-2037730I0J-50026D01*
G02X2661700Y-2035080I16065J-47372D01*
G02X2679980Y-2038540I0J-50019D01*
G02X2719500Y-2019180I39520J-30657D01*
G02X2769520Y-2069200I0J-50020D01*
G02X2767800Y-2082220I-50022J-15D01*
G02X2784920Y-2119900I-32906J-37680D01*
G02X2768050Y-2157360I-50025J0D01*
G02X2769520Y-2169400I-48550J-12037D01*
G02X2719500Y-2219420I-50020J0D01*
G02X2679320Y-2199190I0J50017D01*
G02X2661900Y-2202320I-17416J46891D01*
G02X2645850Y-2199670I15J50018D01*
G02X2605000Y-2220820I-40850J28875D01*
G02X2554980Y-2170800I0J50020D01*
G02X2556820Y-2157360I50020J-2D01*
G37*
G36*
G01X1527680Y-2158460D02*
G02X1508280Y-2118900I30623J39554D01*
G02X1527350Y-2079600I50030J0D01*
G02X1525580Y-2066400I48252J13189D01*
G02X1575600Y-2016380I50020J0D01*
G02X1621070Y-2045550I0J-50024D01*
G02X1633500Y-2043980I12434J-48450D01*
G02X1645860Y-2045530I4J-50021D01*
G02X1690700Y-2017680I44840J-22172D01*
G02X1740720Y-2067700I0J-50020D01*
G02X1739000Y-2080720I-50022J-15D01*
G02X1757920Y-2119900I-31107J-39180D01*
G02X1738060Y-2159810I-50031J0D01*
G02X1739720Y-2172600I-48361J-12779D01*
G02X1689700Y-2222620I-50020J0D01*
G02X1647540Y-2199520I0J50023D01*
G02X1633200Y-2201620I-14340J47911D01*
G02X1617630Y-2199130I15J50018D01*
G02X1576000Y-2221420I-41630J27730D01*
G02X1525980Y-2171400I0J50020D01*
G02X1527680Y-2158460I50021J10D01*
G37*
G36*
G01X3581050Y-2158810D02*
G02X3561180Y-2118900I30146J39910D01*
G02X3580570Y-2079360I50010J0D01*
G02X3578780Y-2066100I48219J13260D01*
G02X3628800Y-2016080I50020J0D01*
G02X3673170Y-2043000I0J-50026D01*
G02X3685400Y-2041480I12237J-48499D01*
G02X3697430Y-2042950I-7J-50019D01*
G02X3741500Y-2016580I44070J-23640D01*
G02X3791520Y-2066600I0J-50020D01*
G02X3789700Y-2079950I-50017J20D01*
G02X3809620Y-2119900I-30100J-39950D01*
G02X3790110Y-2159540I-50025J0D01*
G02X3791820Y-2172500I-48309J-12967D01*
G02X3741800Y-2222520I-50020J0D01*
G02X3698730Y-2197940I0J50024D01*
G02X3685500Y-2199720I-13225J48241D01*
G02X3672100Y-2197890I6J50019D01*
G02X3629300Y-2222020I-42800J25893D01*
G02X3579280Y-2172000I0J50020D01*
G02X3581050Y-2158810I50031J0D01*
G37*
G36*
G01X508930Y-2158720D02*
G02X489180Y-2118900I30268J39820D01*
G02X509580Y-2078590I50026J0D01*
G02X507780Y-2065300I48219J13298D01*
G02X557800Y-2015280I50020J0D01*
G02X600990Y-2040070I0J-50019D01*
G02X612300Y-2038780I11287J-48733D01*
G02X624240Y-2040230I-16J-50018D01*
G02X666800Y-2016480I42560J-26259D01*
G02X716820Y-2066500I0J-50020D01*
G02X715030Y-2079750I-50018J11D01*
G02X735220Y-2119900I-29826J-40150D01*
G02X714680Y-2160310I-50021J0D01*
G02X716320Y-2173000I-48378J-12703D01*
G02X666300Y-2223020I-50020J0D01*
G02X622190Y-2196590I0J50023D01*
G02X612100Y-2197620I-10098J48989D01*
G02X600900Y-2196350I0J50021D01*
G02X557100Y-2222220I-43800J24143D01*
G02X507080Y-2172200I0J50020D01*
G02X508930Y-2158720I50020J2D01*
G37*
G36*
G01X509410Y-1922680D02*
G02X489180Y-1882500I29787J40180D01*
G02X508110Y-1843310I50032J0D01*
G02X506280Y-1829900I48191J13406D01*
G02X556300Y-1779880I50020J0D01*
G02X602900Y-1811710I0J-50027D01*
G02X612500Y-1810780I9600J-49083D01*
G02X620850Y-1811480I11J-50021D01*
G02X667200Y-1780280I46350J-18828D01*
G02X717220Y-1830300I0J-50020D01*
G02X715410Y-1843630I-50019J4D01*
G02X735220Y-1883500I-30217J-39870D01*
G02X714550Y-1924010I-50032J0D01*
G02X716320Y-1937200I-48261J-13190D01*
G02X666300Y-1987220I-50020J0D01*
G02X628520Y-1969980I0J50016D01*
G02X612800Y-1972520I-15736J47477D01*
G02X595050Y-1969260I12J50018D01*
G02X557600Y-1986120I-37450J33163D01*
G02X507580Y-1936100I0J50020D01*
G02X509410Y-1922680I50022J14D01*
G37*
G36*
G01X3580850Y-1922260D02*
G02X3561180Y-1882500I30349J39760D01*
G02X3580770Y-1842800I50022J0D01*
G02X3578880Y-1829200I48127J13620D01*
G02X3628900Y-1779180I50020J0D01*
G02X3673390Y-1806340I0J-50019D01*
G02X3685400Y-1804880I11997J-48562D01*
G02X3697380Y-1806340I-17J-50018D01*
G02X3741400Y-1780080I44020J-23766D01*
G02X3791420Y-1830100I0J-50020D01*
G02X3789600Y-1843470I-50019J0D01*
G02X3809620Y-1883500I-30010J-40030D01*
G02X3789730Y-1923430I-50026J0D01*
G02X3791520Y-1936700I-48231J-13262D01*
G02X3741500Y-1986720I-50020J0D01*
G02X3697380Y-1960260I0J50013D01*
G02X3685400Y-1961720I-11997J48558D01*
G02X3672560Y-1960040I15J50018D01*
G02X3629200Y-1985120I-43360J24942D01*
G02X3579180Y-1935100I0J50020D01*
G02X3580850Y-1922260I50023J23D01*
G37*
G36*
G01X1530150Y-1923850D02*
G02X1508280Y-1882500I28156J41350D01*
G02X1530200Y-1841120I50018J0D01*
G02X1528280Y-1827400I48099J13725D01*
G02X1578300Y-1777380I50020J0D01*
G02X1625700Y-1811420I0J-50022D01*
G02X1633000Y-1810880I7330J-49478D01*
G02X1640760Y-1811490I-28J-50018D01*
G02X1687800Y-1778480I47040J-17012D01*
G02X1737820Y-1828500I0J-50020D01*
G02X1735940Y-1842080I-50019J4D01*
G02X1757920Y-1883500I-28037J-41420D01*
G02X1736030Y-1924860I-50019J0D01*
G02X1737920Y-1938500I-48133J-13620D01*
G02X1687900Y-1988520I-50020J0D01*
G02X1646970Y-1967260I0J50029D01*
G02X1633100Y-1969220I-13865J48061D01*
G02X1618570Y-1967060I10J50018D01*
G02X1578300Y-1987420I-40276J29657D01*
G02X1528280Y-1937400I0J50020D01*
G02X1530150Y-1923850I50027J0D01*
G37*
G36*
G01X2560670Y-1923860D02*
G02X2538780Y-1882500I28129J41360D01*
G02X2560780Y-1841060I50029J0D01*
G02X2558880Y-1827400I48121J13655D01*
G02X2608900Y-1777380I50020J0D01*
G02X2654950Y-1807870I0J-50020D01*
G02X2661900Y-1807380I6984J-49528D01*
G02X2669210Y-1807920I-20J-50019D01*
G02X2714800Y-1778480I45590J-20580D01*
G02X2764820Y-1828500I0J-50020D01*
G02X2762940Y-1842080I-50019J4D01*
G02X2784920Y-1883500I-28037J-41420D01*
G02X2763000Y-1924880I-50018J0D01*
G02X2764920Y-1938600I-48099J-13725D01*
G02X2714900Y-1988620I-50020J0D01*
G02X2672160Y-1964580I0J50013D01*
G02X2662000Y-1965620I-10147J48981D01*
G02X2650980Y-1964390I4J50020D01*
G02X2608800Y-1987520I-42180J26895D01*
G02X2558780Y-1937500I0J50020D01*
G02X2560670Y-1923860I50023J20D01*
G37*
G36*
G01X2166680Y-1485670D02*
G02X2162480Y-1465600I45821J20063D01*
G02X2212500Y-1415580I50020J0D01*
G02X2244640Y-1427270I0J-50027D01*
G02X2274000Y-1416380I29360J-34133D01*
G02X2289720Y-1419210I10J-45022D01*
G02X2314800Y-1411580I25076J-37391D01*
G02X2335730Y-1416740I0J-45028D01*
G02X2354200Y-1412780I18463J-41061D01*
G02Y-1502820I0J-45020D01*
G02X2333270Y-1497660I0J45028D01*
G02X2314800Y-1501620I-18463J41061D01*
G02X2299080Y-1498790I-10J45022D01*
G02X2283490Y-1505410I-25078J37390D01*
G03X2275540Y-1516470I2145J-9929D01*
G02X2275820Y-1521500I-44741J-5013D01*
G02X2230800Y-1566520I-45020J0D01*
G02X2212660Y-1562700I8J45018D01*
G02X2193000Y-1567220I-19660J40496D01*
G02X2147980Y-1522200I0J45020D01*
G02X2166680Y-1485670I45030J0D01*
G37*
G36*
G01X3188460Y-1484170D02*
G02X3184880Y-1465600I46438J18583D01*
G02X3234900Y-1415580I50020J0D01*
G02X3266280Y-1426650I0J-50011D01*
G02X3294900Y-1416380I28620J-34744D01*
G02X3309280Y-1418740I-5J-45019D01*
G02X3333800Y-1411480I24515J-37761D01*
G02X3354150Y-1416340I3J-45021D01*
G02X3374300Y-1411580I20150J-40269D01*
G02Y-1501620I0J-45020D01*
G02X3353950Y-1496760I-3J45021D01*
G02X3333800Y-1501520I-20150J40269D01*
G02X3319420Y-1499160I5J45019D01*
G02X3306580Y-1504880I-24516J37761D01*
G03X3299120Y-1515850I2635J-9813D01*
G02X3299420Y-1521000I-44718J-5189D01*
G02X3254400Y-1566020I-45020J0D01*
G02X3233150Y-1560690I0J45025D01*
G02X3217700Y-1563420I-15439J42292D01*
G02X3172680Y-1518400I0J45020D01*
G02X3188460Y-1484170I45016J0D01*
G37*
G36*
G01X1135910Y-1484060D02*
G02X1132380Y-1465600I46503J18460D01*
G02X1182400Y-1415580I50020J0D01*
G02X1213120Y-1426120I6J-50022D01*
G02X1242300Y-1415380I29180J-34270D01*
G02X1260060Y-1419030I0J-45033D01*
G02X1285900Y-1410880I25835J-36872D01*
G02X1308010Y-1416680I6J-45021D01*
G02X1327000Y-1412480I18990J-40831D01*
G02Y-1502520I0J-45020D01*
G02X1304890Y-1496720I-6J45021D01*
G02X1285900Y-1500920I-18990J40831D01*
G02X1268140Y-1497270I0J45033D01*
G02X1251150Y-1504540I-25829J36874D01*
G03X1247120Y-1510200I1004J-4980D01*
G02X1247520Y-1516200I-44621J-5988D01*
G02X1202500Y-1561220I-45020J0D01*
G02X1185470Y-1557870I11J45018D01*
G02X1166600Y-1562020I-18879J40868D01*
G02X1121580Y-1517000I0J45020D01*
G02X1135910Y-1484060I45024J0D01*
G37*
G36*
G01X1685120Y-744080D02*
G03X1682930Y-726540I-6066J8149D01*
G02X1651980Y-680300I19067J46240D01*
G02X1702000Y-630280I50020J0D01*
G02X1751690Y-674540I0J-50023D01*
G03X1763570Y-683370I10092J1172D01*
G02X1772400Y-682580I8855J-49228D01*
G02X1778730Y-682980I17J-50021D01*
G03X1790050Y-674440I1279J10077D01*
G02X1839500Y-631980I49450J-7565D01*
G02X1889520Y-682000I0J-50020D01*
G02X1866500Y-724110I-50025J0D01*
G03X1865690Y-740640I5483J-8554D01*
G02X1884720Y-779900I-30983J-39260D01*
G02X1834700Y-829920I-50020J0D01*
G02X1833320Y-829900I35J50019D01*
G03X1822990Y-841530I-278J-10156D01*
G02X1823520Y-848800I-49491J-7262D01*
G02X1821890Y-861460I-50019J5D01*
G03X1831500Y-874190I9828J-2573D01*
G02X1880420Y-924200I-1102J-50010D01*
G02X1863850Y-961390I-50020J0D01*
G03X1866110Y-978030I6798J-7550D01*
G02X1893820Y-1022800I-22312J-44770D01*
G02X1843800Y-1072820I-50020J0D01*
G02X1795630Y-1036280I0J50021D01*
G03X1783540Y-1029120I-9784J-2734D01*
G02X1772200Y-1030420I-11330J48721D01*
G02X1759920Y-1028890I-3J50020D01*
G03X1747510Y-1036520I-2495J-9850D01*
G02X1698700Y-1075620I-48810J10916D01*
G02X1648680Y-1025600I0J50020D01*
G02X1679350Y-979470I50027J0D01*
G03X1681850Y-962240I-3928J9366D01*
G02X1663480Y-923500I31664J38740D01*
G02X1713500Y-873480I50020J0D01*
G02X1714830Y-873500I-87J-50019D01*
G03X1724960Y-860890I271J10156D01*
G02X1723480Y-848800I48541J12078D01*
G02X1723620Y-845110I50018J-50D01*
G03X1713740Y-834200I-10135J751D01*
G02X1664980Y-784200I1256J50000D01*
G02X1685120Y-744080I50031J0D01*
G37*
G36*
G01X2813150Y-675940D02*
G03X2826000Y-667760I2813J9765D01*
G02X2875400Y-625580I49400J-7838D01*
G02Y-725620I0J-50020D01*
G02X2856280Y-721820I3J50019D01*
G03X2849270Y-726290I-1936J-4696D01*
G02X2848980Y-729830I-49968J2312D01*
G03X2854160Y-735500I5046J-592D01*
G02X2855500Y-735480I1416J-49999D01*
G02X2905520Y-785500I0J-50020D01*
G02X2862620Y-835010I-50019J0D01*
G03X2853920Y-845700I1442J-10058D01*
G02X2854020Y-848800I-49918J-3162D01*
G02X2852200Y-862170I-50019J0D01*
G03X2862480Y-875040I9789J-2722D01*
G02X2864900Y-874980I2449J-49959D01*
G02X2914920Y-925000I0J-50020D01*
G02X2896500Y-963770I-50011J0D01*
G03X2897650Y-980340I6416J-7880D01*
G02X2921720Y-1023100I-25946J-42760D01*
G02X2871700Y-1073120I-50020J0D01*
G02X2822840Y-1033800I0J50017D01*
G03X2810970Y-1026000I-9924J-2171D01*
G02X2801400Y-1026920I-9550J49102D01*
G02X2790210Y-1025650I10J50019D01*
G03X2778000Y-1033420I-2276J-9903D01*
G02X2729100Y-1072920I-48900J10518D01*
G02X2679080Y-1022900I0J50020D01*
G02X2704950Y-979100I50013J0D01*
G03X2706550Y-962400I-4909J8897D01*
G02X2688580Y-924000I32043J38400D01*
G02X2738600Y-873980I50020J0D01*
G02X2744620Y-874340I29J-50022D01*
G03X2755660Y-861650I1221J10085D01*
G02X2753980Y-848800I48339J12855D01*
G02X2754100Y-845350I50020J-13D01*
G03X2743650Y-834500I-10135J696D01*
G02X2742100Y-834520I-1420J50002D01*
G02X2692080Y-784500I0J50020D01*
G02X2715190Y-742340I50012J0D01*
G03X2713050Y-724170I-5464J8567D01*
G02X2679380Y-676900I16347J47270D01*
G02X2729400Y-626880I50020J0D01*
G02X2778400Y-666860I0J-50018D01*
G03X2790200Y-674810I9952J2039D01*
G02X2799300Y-673980I9075J-49192D01*
G02X2813150Y-675940I-15J-50018D01*
G37*
G36*
G01X752270Y-193460D02*
G03X757500Y-187230I286J5070D01*
G02X756180Y-175800I48702J11416D01*
G02X856220I50020J0D01*
G02X808620Y-225760I-50019J0D01*
G03X799030Y-237170I492J-10148D01*
G02X799420Y-243400I-49630J-6234D01*
G02X798290Y-253990I-50022J-18D01*
G03X807170Y-266250I9928J-2155D01*
G02X852020Y-316000I-5168J-49750D01*
G02X751980I-50020J0D01*
G02X753110Y-305410I50022J18D01*
G03X744230Y-293150I-9928J2155D01*
G02X743350Y-293050I5207J49747D01*
G03X738010Y-299940I-608J-5043D01*
G02X741420Y-318100I-46611J-18153D01*
G02X641380I-50020J0D01*
G02X691070Y-268080I50021J0D01*
G03X700860Y-255470I-70J10160D01*
G02X699380Y-243400I48539J12078D01*
G02X699700Y-237730I50021J21D01*
G03X689620Y-226420I-10093J1151D01*
G02X639680Y-176400I80J50020D01*
G02X739720I50020J0D01*
G02X739400Y-182070I-50021J-21D01*
G03X749480Y-193380I10093J-1151D01*
G02X752270Y-193460I-38J-50021D01*
G37*
G36*
G01X3263280Y-230280D02*
G03X3259510Y-224510I-5011J842D01*
G02X3221680Y-176000I12188J48510D01*
G02X3271700Y-125980I50020J0D01*
G02X3305280Y-138930I0J-50012D01*
G03X3319160Y-138710I6822J7528D01*
G02X3353900Y-124680I34740J-35995D01*
G02X3403920Y-174700I0J-50020D01*
G02X3365540Y-223350I-50024J0D01*
G03X3361740Y-229240I1187J-4937D01*
G02X3362620Y-238600I-49142J-9342D01*
G02X3361520Y-249030I-50020J2D01*
G03X3369340Y-261080I9937J-2114D01*
G02X3408920Y-310000I-10442J-48920D01*
G02X3358900Y-360020I-50020J0D01*
G02X3323700Y-345530I7J50017D01*
G03X3309460Y-345470I-7151J-7221D01*
G02X3274600Y-359620I-34860J35866D01*
G02X3224580Y-309600I0J50020D01*
G02X3257620Y-262550I50020J0D01*
G03X3264030Y-250560I-3453J9554D01*
G02X3262580Y-238600I48570J11956D01*
G02X3263280Y-230280I50018J-19D01*
G37*
G36*
G01X2727680Y-225950D02*
G03X2724220Y-220330I-5017J786D01*
G02X2689480Y-172700I15281J47630D01*
G02X2739500Y-122680I50020J0D01*
G02X2772630Y-135220I0J-50034D01*
G03X2786230Y-135090I6728J7611D01*
G02X2820100Y-121880I33870J-36816D01*
G02X2870120Y-171900I0J-50020D01*
G02X2830560Y-220810I-50015J0D01*
G03X2826600Y-226510I1068J-4968D01*
G02X2827120Y-233700I-49500J-7194D01*
G02X2824730Y-248970I-50019J7D01*
G03X2832260Y-262010I9674J-3108D01*
G02X2871720Y-310900I-10557J-48890D01*
G02X2821700Y-360920I-50020J0D01*
G02X2788650Y-348440I6J50018D01*
G03X2774840Y-348800I-6711J-7628D01*
G02X2739900Y-363020I-34935J35802D01*
G02X2689880Y-313000I0J50020D01*
G02X2724300Y-265470I50027J0D01*
G03X2730580Y-252090I-3168J9651D01*
G02X2727080Y-233700I46522J18382D01*
G02X2727680Y-225950I50022J26D01*
G37*
G36*
G01X3437600Y-3034140D02*
G02X3416180Y-2993100I28606J41040D01*
G02X3466200Y-2943080I50020J0D01*
G02X3515700Y-2985890I0J-50023D01*
G03X3525840Y-2994580I10052J1468D01*
G01X3526300D01*
G02X3532910Y-2995020I-10J-50019D01*
G03X3538630Y-2990580I675J5035D01*
G02X3588300Y-2946480I49670J-5922D01*
G02X3638320Y-2996500I0J-50020D01*
G02X3615410Y-3038540I-50027J0D01*
G03X3614960Y-3055300I5509J-8534D01*
G02X3635620Y-3095800I-29366J-40500D01*
G02X3588790Y-3145720I-50022J0D01*
G03X3579290Y-3156220I652J-10138D01*
G02X3579320Y-3158000I-49991J-1733D01*
G02X3578840Y-3164940I-50022J-27D01*
G03X3588240Y-3176490I10062J-1411D01*
G02X3635020Y-3226400I-3235J-49910D01*
G02X3616910Y-3264920I-50021J0D01*
G03X3617710Y-3281160I6486J-7820D01*
G02X3639720Y-3322600I-28006J-41440D01*
G02X3589700Y-3372620I-50020J0D01*
G02X3541410Y-3335650I0J50023D01*
G03X3530200Y-3328240I-9807J-2652D01*
G02X3523300Y-3328720I-6913J49539D01*
G02X3515030Y-3328030I10J50019D01*
G03X3509170Y-3332230I-844J-5010D01*
G02X3459800Y-3374220I-49370J8029D01*
G02X3421390Y-3356250I-6J50023D01*
G03X3403600Y-3360920I-7800J-6508D01*
G02X3354400Y-3401920I-49200J9020D01*
G02X3315030Y-3382750I0J50013D01*
G02X3303000Y-3384220I-12037J48549D01*
G02X3263440Y-3364820I-6J50023D01*
G02X3250500Y-3366520I-12930J48321D01*
G02Y-3266480I0J50020D01*
G02X3290060Y-3285880I6J-50023D01*
G02X3303000Y-3284180I12930J-48321D01*
G02X3342370Y-3303350I0J-50013D01*
G02X3354400Y-3301880I12037J-48549D01*
G02X3392810Y-3319850I6J-50023D01*
G03X3410600Y-3315180I7800J6508D01*
G02X3439400Y-3278530I49200J-9021D01*
G03X3441610Y-3261330I-4145J9275D01*
G02X3422880Y-3222300I31301J39030D01*
G02X3469880Y-3172370I50021J0D01*
G03X3479400Y-3161520I-613J10139D01*
G02X3479280Y-3158000I49902J3463D01*
G02X3479490Y-3153390I50021J31D01*
G03X3468710Y-3142310I-10115J943D01*
G02X3465400Y-3142420I-3315J49910D01*
G02X3415380Y-3092400I0J50020D01*
G02X3437470Y-3050900I50028J0D01*
G03X3437600Y-3034140I-5675J8425D01*
G37*
G36*
G01X2016680Y-1746270D02*
G02X1981500Y-1764920I-35186J23867D01*
G02Y-1679880I0J42520D01*
G02X2016680Y-1698530I-6J-42517D01*
G03X2033940Y-1697810I8407J5708D01*
G02X2077500Y-1672380I43560J-24593D01*
G02Y-1772420I0J-50020D01*
G02X2033940Y-1746990I0J50023D01*
G03X2016680Y-1746270I-8853J-4988D01*
G37*
G36*
G01X647320Y-714260D02*
G02X632480Y-678700I35185J35560D01*
G02X682500Y-628680I50020J0D01*
G02X730480Y-664560I0J-50020D01*
G03X736420Y-668090I4872J1436D01*
G02X746900Y-666980I10480J-48918D01*
G02X761900Y-669280I6J-50021D01*
G03X768270Y-665950I1521J4847D01*
G02X816000Y-630880I47730J-14945D01*
G02X866020Y-680900I0J-50020D01*
G02X848700Y-718750I-50017J0D01*
G03X847950Y-725640I3320J-3847D01*
G02X857920Y-755600I-40048J-29966D01*
G02X807900Y-805620I-50020J0D01*
G02X802920Y-805370I15J50019D01*
G03X793450Y-821110I-1009J-10112D01*
G02X801820Y-848800I-41647J-27699D01*
G02X797640Y-868820I-50033J0D01*
G03X806470Y-883040I9310J-4071D01*
G02X854120Y-933000I-2366J-49960D01*
G02X840960Y-966820I-50022J-6D01*
G03X842040Y-981570I7483J-6867D01*
G02X860520Y-1020400I-31543J-38824D01*
G02X810500Y-1070420I-50020J0D01*
G02X761330Y-1029600I0J50024D01*
G03X755500Y-1025530I-4990J-938D01*
G02X747200Y-1026220I-8280J49332D01*
G02X738460Y-1025450I3J50020D01*
G03X732580Y-1029530I-885J-5002D01*
G02X683400Y-1070420I-49180J9130D01*
G02X633380Y-1020400I0J50020D01*
G02X655660Y-978780I50014J0D01*
G03X657110Y-963040I-5635J8456D01*
G02X641980Y-927200I34884J35840D01*
G02X692000Y-877180I50020J0D01*
G02X694050Y-877220I49J-50021D01*
G03X704140Y-863990I410J10150D01*
G02X701780Y-848800I47661J15183D01*
G02X751800Y-798780I50020J0D01*
G02X756780Y-799030I-15J-50019D01*
G03X766250Y-783290I1009J10112D01*
G02X760000Y-770020I41637J27717D01*
G03X754380Y-766460I-4863J-1461D01*
G02X746900Y-767020I-7464J49461D01*
G02X741680Y-766750I-30J50022D01*
G03X736220Y-770560I-535J-5050D01*
G02X687700Y-808420I-48520J12161D01*
G02X637680Y-758400I0J50020D01*
G02X648200Y-727710I50026J0D01*
G03X647320Y-714260I-8025J6229D01*
G37*
G36*
G01X3852800Y-674590D02*
G02X3852780Y-673300I49998J1420D01*
G02X3902800Y-723320I50020J0D01*
G02X3882790Y-719140I7J50019D01*
G03X3875750Y-724630I-2028J-4658D01*
G02X3876010Y-726380I-49341J-8225D01*
G03X3886810Y-735210I10075J1303D01*
G02X3890400Y-735080I3604J-49889D01*
G02Y-835120I0J-50020D01*
G02X3889050Y-835100I66J50019D01*
G03X3878630Y-845860I-276J-10158D01*
G02X3878720Y-848800I-49928J-3000D01*
G02X3876570Y-863290I-50017J17D01*
G03X3886060Y-876390I9725J-2942D01*
G02X3934920Y-926400I-1164J-50010D01*
G02X3921090Y-960930I-50021J0D01*
G03X3923880Y-977020I7354J-7012D01*
G02X3951420Y-1021700I-22474J-44680D01*
G02X3901400Y-1071720I-50020J0D01*
G02X3852100Y-1030150I0J50019D01*
G03X3839020Y-1022180I-10014J-1716D01*
G02X3823900Y-1024520I-15120J47679D01*
G02X3817320Y-1024080I40J50017D01*
G03X3806020Y-1032140I-1339J-10074D01*
G02X3757000Y-1072220I-49020J9937D01*
G02X3706980Y-1022200I0J50020D01*
G02X3729390Y-980490I50021J0D01*
G03X3730500Y-964400I-5611J8470D01*
G02X3713580Y-926900I33096J37500D01*
G02X3763600Y-876880I50020J0D01*
G02X3770090Y-877300I21J-50021D01*
G03X3781080Y-864120I1320J10071D01*
G02X3778680Y-848800I47622J15308D01*
G02X3778900Y-844080I50022J34D01*
G03X3768050Y-832990I-10112J959D01*
G02X3764400Y-833120I-3604J49892D01*
G02X3714380Y-783100I0J50020D01*
G02X3738490Y-740320I50009J0D01*
G03X3737020Y-722200I-5263J8693D01*
G02X3705680Y-675800I18678J46400D01*
G02X3755700Y-625780I50020J0D01*
G02X3805690Y-673930I0J-50025D01*
G03X3817620Y-683560I10152J372D01*
G02X3826400Y-682780I8799J-49238D01*
G02X3839900Y-684640I-13J-50018D01*
G03X3852800Y-674590I2741J9785D01*
G37*
G36*
G01X1031070Y-352000D02*
G02X997880Y-304900I16825J47100D01*
G02X1097920I50020J0D01*
G02X1078360Y-344570I-50008J0D01*
G03X1081130Y-362200I6189J-8060D01*
G02X1114320Y-409300I-16825J-47100D01*
G02X1092320Y-450740I-50029J0D01*
G02X1094220Y-464400I-48121J-13655D01*
G02X1092330Y-478040I-50023J-20D01*
G02X1114220Y-519400I-28129J-41360D01*
G02X1085370Y-564720I-50021J0D01*
G03X1084320Y-582570I4295J-9209D01*
G02X1108020Y-625100I-26310J-42530D01*
G02X1058000Y-675120I-50020J0D01*
G02X1044360Y-673230I-20J50023D01*
G02X1003000Y-695120I-41360J28129D01*
G02X986350Y-692270I-7J50021D01*
G02X947800Y-710420I-38550J31864D01*
G02Y-610380I0J50020D01*
G02X964450Y-613230I7J-50021D01*
G02X1003000Y-595080I38550J-31864D01*
G02X1016640Y-596970I20J-50023D01*
G02X1036830Y-579780I41362J-28128D01*
G03X1037880Y-561930I-4295J9209D01*
G02X1014180Y-519400I26310J42530D01*
G02X1016070Y-505760I50023J20D01*
G02X994180Y-464400I28129J41360D01*
G02X1016180Y-422960I50029J0D01*
G02X1014280Y-409300I48121J13655D01*
G02X1033840Y-369630I50008J0D01*
G03X1031070Y-352000I-6189J8060D01*
G37*
G36*
G01X2055110Y-351950D02*
G02X2022080Y-304900I16995J47050D01*
G02X2122120I50020J0D01*
G02X2102380Y-344710I-50013J0D01*
G03X2105090Y-362350I6155J-8083D01*
G02X2138120Y-409400I-16995J-47050D01*
G02X2116230Y-450760I-50019J0D01*
G02X2118120Y-464400I-48133J-13620D01*
G02X2116240Y-477980I-50019J4D01*
G02X2138220Y-519400I-28037J-41420D01*
G02X2109560Y-564630I-50020J0D01*
G03X2108580Y-582480I4333J-9190D01*
G02X2132420Y-625100I-26177J-42620D01*
G02X2082400Y-675120I-50020J0D01*
G02X2068760Y-673230I-20J50023D01*
G02X2027400Y-695120I-41360J28129D01*
G02X2012190Y-692750I4J50019D01*
G02X1972200Y-712720I-39990J30055D01*
G02Y-612680I0J50020D01*
G02X1987410Y-615050I-4J-50019D01*
G02X2027400Y-595080I39990J-30055D01*
G02X2041040Y-596970I20J-50023D01*
G02X2061040Y-579870I41361J-28129D01*
G03X2062020Y-562020I-4333J9190D01*
G02X2038180Y-519400I26177J42620D01*
G02X2040060Y-505820I50019J-4D01*
G02X2018080Y-464400I28037J41420D01*
G02X2039970Y-423040I50019J0D01*
G02X2038080Y-409400I48133J13620D01*
G02X2057820Y-369590I50013J0D01*
G03X2055110Y-351950I-6155J8083D01*
G37*
G36*
G01X3060990Y-351680D02*
G02X3028680Y-304900I17710J46780D01*
G02X3128720I50020J0D01*
G02X3108630Y-344980I-50025J0D01*
G03X3111110Y-362620I6079J-8140D01*
G02X3143420Y-409400I-17710J-46780D01*
G02X3121440Y-450820I-50017J0D01*
G02X3123320Y-464400I-48139J-13584D01*
G02X3121450Y-477950I-50027J0D01*
G02X3143320Y-519300I-28156J-41350D01*
G02X3122660Y-559800I-50026J0D01*
G03X3125620Y-577720I5968J-8219D01*
G02X3160820Y-625500I-14828J-47780D01*
G02X3110800Y-675520I-50020J0D01*
G02X3097520Y-673720I18J50018D01*
G02X3056500Y-695120I-41020J28614D01*
G02X3043080Y-693290I-14J50022D01*
G02X3002900Y-713520I-40180J29787D01*
G02Y-613480I0J50020D01*
G02X3016320Y-615310I14J-50022D01*
G02X3056500Y-595080I40180J-29787D01*
G02X3069780Y-596880I-18J-50018D01*
G02X3081440Y-585000I41031J-28609D01*
G03X3078480Y-567080I-5968J8219D01*
G02X3043280Y-519300I14828J47780D01*
G02X3045150Y-505750I50027J0D01*
G02X3023280Y-464400I28156J41350D01*
G02X3045260Y-422980I50017J0D01*
G02X3043380Y-409400I48139J13584D01*
G02X3063470Y-369320I50025J0D01*
G03X3060990Y-351680I-6079J8140D01*
G37*
G36*
G01X3582940Y-343210D02*
G02X3565080Y-304900I32158J38310D01*
G02X3665120I50020J0D01*
G02X3627810Y-353280I-50022J0D01*
G03X3623860Y-370890I2579J-9827D01*
G02X3641720Y-409200I-32158J-38310D01*
G02X3639760Y-423060I-50019J5D01*
G02X3661620Y-464400I-28160J-41340D01*
G02X3659750Y-477950I-50027J0D01*
G02X3681620Y-519300I-28156J-41350D01*
G02X3581580I-50020J0D01*
G02X3583450Y-505750I50027J0D01*
G02X3561580Y-464400I28156J41350D01*
G02X3563540Y-450540I50019J-5D01*
G02X3541680Y-409200I28160J41340D01*
G02X3578990Y-360820I50022J0D01*
G03X3582940Y-343210I-2579J9827D01*
G37*
G36*
G01X1767490Y-188800D02*
G02X1767280Y-184200I49811J4579D01*
G02X1867320I50020J0D01*
G02X1819440Y-234170I-50016J0D01*
G03X1809720Y-244320I441J-10152D01*
G02X1808700Y-254330I-50018J40D01*
G03X1819050Y-266520I9956J-2036D01*
G02X1821000Y-266480I2001J-49979D01*
G02Y-366520I0J-50020D01*
G02X1777640Y-341450I0J50032D01*
G03X1759530Y-342440I-8805J-5064D01*
G02X1713700Y-372420I-45830J20040D01*
G02X1663680Y-322400I0J50020D01*
G02X1704460Y-273240I50021J0D01*
G03X1712230Y-260060I-1875J9986D01*
G02X1709680Y-244430I47469J15767D01*
G03X1700580Y-234350I-10159J-23D01*
G02X1655780Y-184600I5223J49750D01*
G02X1755820I50020J0D01*
G02X1755640Y-188780I-50017J60D01*
G03X1760610Y-194290I5064J-429D01*
G02X1762180Y-194340I-807J-50013D01*
G03X1767490Y-188800I253J5072D01*
G37*
G36*
G01X5189970Y-7712410D02*
G03Y-7694390I-4692J9010D01*
G02X5146880Y-7623400I36932J70990D01*
G02X5306920I80020J0D01*
G02X5263830Y-7694390I-80022J0D01*
G03Y-7712410I4692J-9010D01*
G02X5306920Y-7783400I-36932J-70990D01*
G02X5146880I-80020J0D01*
G02X5189970Y-7712410I80022J0D01*
G37*
G36*
G01X6221850Y-7553840D02*
G03X6225900Y-7540420I-5019J8836D01*
G02X6217280Y-7504300I71398J36128D01*
G02X6377320I80020J0D01*
G02X6336850Y-7573860I-80015J0D01*
G03X6332800Y-7587280I5019J-8836D01*
G02X6341420Y-7623400I-71398J-36128D01*
G02X6298330Y-7694390I-80022J0D01*
G03Y-7712410I4692J-9010D01*
G02X6341420Y-7783400I-36932J-70990D01*
G02X6181380I-80020J0D01*
G02X6224470Y-7712410I80022J0D01*
G03Y-7694390I-4692J9010D01*
G02X6181380Y-7623400I36932J70990D01*
G02X6221850Y-7553840I80015J0D01*
G37*
G36*
G01X7097500Y-7553530D02*
G03X7101640Y-7540110I-4947J8875D01*
G02X7093180Y-7504300I71559J35810D01*
G02X7253220I80020J0D01*
G02X7212200Y-7574170I-80015J0D01*
G03X7208060Y-7587590I4947J-8875D01*
G02X7216520Y-7623400I-71559J-35810D01*
G02X7173430Y-7694390I-80022J0D01*
G03Y-7712410I4692J-9010D01*
G02X7216520Y-7783400I-36932J-70990D01*
G02X7056480I-80020J0D01*
G02X7099570Y-7712410I80022J0D01*
G03Y-7694390I-4692J9010D01*
G02X7056480Y-7623400I36932J70990D01*
G02X7097500Y-7553530I80015J0D01*
G37*
G36*
G01X4699290Y-6871890D02*
G03X4696400Y-6857230I-8202J5998D01*
G02X4658180Y-6789000I41792J68230D01*
G02X4818220I80020J0D01*
G02X4802810Y-6836210I-80021J0D01*
G03X4805700Y-6850870I8202J-5998D01*
G02X4833190Y-6879080I-41800J-68232D01*
G03X4839860Y-6881080I4398J2544D01*
G02X4858900Y-6876580I19040J-38030D01*
G02Y-6961620I0J-42520D01*
G02X4839860Y-6957120I0J42530D01*
G03X4833190Y-6959120I-2272J-4544D01*
G02X4694610I-69290J40014D01*
G03X4687940Y-6957120I-4398J-2544D01*
G02X4668900Y-6961620I-19040J38030D01*
G02Y-6876580I0J42520D01*
G02X4687940Y-6881080I0J-42530D01*
G03X4694610Y-6879080I2272J4544D01*
G02X4699290Y-6871890I69307J-39994D01*
G37*
G36*
G01X7143980Y-6625000D02*
G02Y-6495000I76021J65000D01*
G02X7119980Y-6430000I76021J65000D01*
G02X7220000Y-6329980I100020J0D01*
G02X7265000Y-6340670I9J-100022D01*
G02X7310000Y-6329980I44991J-89332D01*
G02X7410020Y-6430000I0J-100020D01*
G02X7386020Y-6495000I-100021J0D01*
G02X7401160Y-6518850I-76026J-64992D01*
G03X7417100Y-6522320I9258J4184D01*
G02X7450000Y-6509980I32900J-37688D01*
G02Y-6610020I0J-50020D01*
G02X7417100Y-6597680I0J50028D01*
G03X7401160Y-6601150I-6682J-7654D01*
G02X7385520Y-6625580I-91165J41142D01*
G02X7409020Y-6690000I-76523J-64411D01*
G02X7309000Y-6790020I-100020J0D01*
G02X7264500Y-6779580I-9J100022D01*
G02X7220000Y-6790020I-44491J89582D01*
G02X7119980Y-6690000I0J100020D01*
G02X7143980Y-6625000I100021J0D01*
G37*
G36*
G01X4694610Y-6419120D02*
G03X4687940Y-6417120I-4398J-2544D01*
G02X4668900Y-6421620I-19040J38030D01*
G02Y-6336580I0J42520D01*
G02X4687940Y-6341080I0J-42530D01*
G03X4694610Y-6339080I2272J4544D01*
G02X4763900Y-6299080I69290J-40014D01*
G02Y-6459120I0J-80020D01*
G02X4694610Y-6419120I0J80014D01*
G37*
G36*
G01X6139280Y-6334360D02*
G03X6152030Y-6321870I2976J9715D01*
G02X6148980Y-6300000I76968J21882D01*
G02X6229000Y-6380020I80020J0D01*
G02X6214000Y-6378600I8J80019D01*
G03X6202680Y-6392400I-1904J-9981D01*
G02X6210020Y-6430000I-92678J-37608D01*
G02X6186020Y-6495000I-100021J0D01*
G02X6201160Y-6518850I-76026J-64992D01*
G03X6217100Y-6522320I9258J4184D01*
G02X6250000Y-6509980I32900J-37688D01*
G02Y-6610020I0J-50020D01*
G02X6217100Y-6597680I0J50028D01*
G03X6201160Y-6601150I-6682J-7654D01*
G02X6185520Y-6625580I-91165J41142D01*
G02X6209020Y-6690000I-76523J-64411D01*
G02X6109000Y-6790020I-100020J0D01*
G02X6064500Y-6779580I-9J100022D01*
G02X6020000Y-6790020I-44491J89582D01*
G02X5919980Y-6690000I0J100020D01*
G02X5943980Y-6625000I100021J0D01*
G02Y-6495000I76021J65000D01*
G02X5919980Y-6430000I76021J65000D01*
G02X5957680Y-6351770I100016J0D01*
G02X5952880Y-6333400I32722J18362D01*
G02X5990400Y-6295880I37520J0D01*
G02X6027790Y-6330280I0J-37520D01*
G02X6034470Y-6331030I-7814J-99716D01*
G02X6063500Y-6317280I29030J-23770D01*
G02X6092870Y-6331460I0J-37506D01*
G02X6110000Y-6329980I17143J-98539D01*
G02X6139280Y-6334360I5J-100021D01*
G37*
G36*
G01X5425300Y-6102220D02*
G02X5475300I25000J-27987D01*
G02X5525300I25000J-27987D01*
G02X5550300Y-6092680I25000J-27987D01*
G02Y-6167720I0J-37520D01*
G02X5525300Y-6158180I0J37527D01*
G02X5475300I-25000J27987D01*
G02X5425300I-25000J27987D01*
G02X5375300I-25000J27987D01*
G02X5325300I-25000J27987D01*
G02X5275300I-25000J27987D01*
G02X5250300Y-6167720I-25000J27987D01*
G02Y-6092680I0J37520D01*
G02X5275300Y-6102220I0J-37527D01*
G02X5325300I25000J-27987D01*
G02X5375300I25000J-27987D01*
G02X5425300I25000J-27987D01*
G37*
G36*
G01X5775300D02*
G02X5800300Y-6092680I25000J-27987D01*
G02Y-6167720I0J-37520D01*
G02X5775300Y-6158180I0J37527D01*
G02X5750300Y-6167720I-25000J27987D01*
G02Y-6092680I0J37520D01*
G02X5775300Y-6102220I0J-37527D01*
G37*
G36*
G01X6075300D02*
G02X6125300I25000J-27987D01*
G02X6150300Y-6092680I25000J-27987D01*
G02X6170040Y-6098290I4J-37521D01*
G03X6184320Y-6094490I5347J8636D01*
G02X6250300Y-6055180I65980J-35717D01*
G02Y-6205220I0J-75020D01*
G02X6184320Y-6165910I0J75027D01*
G03X6170040Y-6162110I-8933J-4836D01*
G02X6150300Y-6167720I-19736J31911D01*
G02X6125300Y-6158180I0J37527D01*
G02X6075300I-25000J27987D01*
G02X6025300I-25000J27987D01*
G02X5975300I-25000J27987D01*
G02X5925300I-25000J27987D01*
G02X5900300Y-6167720I-25000J27987D01*
G02Y-6092680I0J37520D01*
G02X5925300Y-6102220I0J-37527D01*
G02X5975300I25000J-27987D01*
G02X6025300I25000J-27987D01*
G02X6075300I25000J-27987D01*
G37*
G36*
G01X6921300Y-6020020D02*
G03X6922610Y-6013160I-2966J4121D01*
G02X6909980Y-5970000I67393J43149D01*
G02X7070020I80020J0D01*
G02X7069410Y-5979850I-80019J12D01*
G03X7083490Y-5990440I10081J-1252D01*
G02X7115000Y-5983980I31499J-73562D01*
G02Y-6144020I0J-80020D01*
G02X7056200Y-6118280I0J80031D01*
G03X7039640Y-6120640I-7466J-6891D01*
G02X6968000Y-6165020I-71640J35632D01*
G02X6887980Y-6085000I0J80020D01*
G02X6921300Y-6020020I80021J0D01*
G37*
G36*
G01X4828450Y-5996260D02*
G03X4814990Y-5996220I-6753J-7592D01*
G02X4786900Y-6006820I-28090J31919D01*
G02Y-5921780I0J42520D01*
G02X4795590Y-5922680I-12J-42519D01*
G03X4807290Y-5916010I2081J9946D01*
G02X4878300Y-5865180I71010J-24186D01*
G02X4950030Y-5918240I0J-75015D01*
G03X4962800Y-5924950I9713J2980D01*
G02X4975600Y-5922980I12793J-40551D01*
G02Y-6008020I0J-42520D01*
G02X4944670Y-5994680I0J42527D01*
G03X4930250Y-5994320I-7389J-6973D01*
G02X4878300Y-6015220I-51950J54115D01*
G02X4828450Y-5996260I0J75013D01*
G37*
G36*
G01X6562390Y-5789600D02*
G03X6563700Y-5782660I-2932J4147D01*
G02X6550480Y-5738600I66812J44060D01*
G02X6710520I80020J0D01*
G02X6676610Y-5804000I-80021J0D01*
G03X6675300Y-5810940I2932J-4147D01*
G02X6688520Y-5855000I-66812J-44060D01*
G02X6528480I-80020J0D01*
G02X6562390Y-5789600I80021J0D01*
G37*
G36*
G01X6399130Y-5627450D02*
G02X6440100Y-5615280I40963J-62852D01*
G02Y-5765320I0J-75020D01*
G02X6399130Y-5753150I-7J75022D01*
G02X6349600Y-5770320I-49530J62854D01*
G02Y-5610280I0J80020D01*
G02X6399130Y-5627450I0J-80024D01*
G37*
G36*
G01X4831920Y-5665200D02*
G02Y-5615200I27987J25000D01*
G02X4822380Y-5590200I27987J25000D01*
G02X4897420I37520J0D01*
G02X4887880Y-5615200I-37527J0D01*
G02Y-5665200I-27987J-25000D01*
G02X4897420Y-5690200I-27987J-25000D01*
G02X4822380I-37520J0D01*
G02X4831920Y-5665200I37527J0D01*
G37*
G36*
G01X6412120Y-5215300D02*
G02Y-5165300I27987J25000D01*
G02X6402580Y-5140300I27987J25000D01*
G02X6477620I37520J0D01*
G02X6468080Y-5165300I-37527J0D01*
G02Y-5215300I-27987J-25000D01*
G02X6477620Y-5240300I-27987J-25000D01*
G02X6402580I-37520J0D01*
G02X6412120Y-5215300I37527J0D01*
G37*
G36*
G01X4887880Y-4965200D02*
G02X4897420Y-4990200I-27987J-25000D01*
G02X4822380I-37520J0D01*
G02X4831920Y-4965200I37527J0D01*
G02X4822380Y-4940200I27987J25000D01*
G02X4897420I37520J0D01*
G02X4887880Y-4965200I-37527J0D01*
G37*
G36*
G01X6412120Y-4815300D02*
G02Y-4765300I27987J25000D01*
G02X6402580Y-4740300I27987J25000D01*
G02X6477620I37520J0D01*
G02X6468080Y-4765300I-37527J0D01*
G02Y-4815300I-27987J-25000D01*
G02X6477620Y-4840300I-27987J-25000D01*
G02X6402580I-37520J0D01*
G02X6412120Y-4815300I37527J0D01*
G37*
G36*
G01X6760590Y-4714760D02*
G03X6761710Y-4700040I-6403J7890D01*
G02X6740980Y-4646300I59292J53740D01*
G02X6901020I80020J0D01*
G02X6871410Y-4708440I-80009J0D01*
G03X6870290Y-4723160I6403J-7890D01*
G02X6891020Y-4776900I-59292J-53740D01*
G02X6730980I-80020J0D01*
G02X6760590Y-4714760I80009J0D01*
G37*
G36*
G01X5775700Y-4522020D02*
G02X5800700Y-4512480I25000J-27987D01*
G02Y-4587520I0J-37520D01*
G02X5775700Y-4577980I0J37527D01*
G02X5750700Y-4587520I-25000J27987D01*
G02Y-4512480I0J37520D01*
G02X5775700Y-4522020I0J-37527D01*
G37*
G36*
G01X5100800Y-4310990D02*
G02X5152100Y-4292380I51300J-61401D01*
G02Y-4452420I0J-80020D01*
G02X5100800Y-4433810I0J80011D01*
G02X5049500Y-4452420I-51300J61401D01*
G02Y-4292380I0J80020D01*
G02X5100800Y-4310990I0J-80011D01*
G37*
G36*
G01X6089960Y-4425410D02*
G03X6074740I-7610J-6734D01*
G02X6014800Y-4452420I-59940J53004D01*
G02Y-4292380I0J80020D01*
G02X6074740Y-4319390I0J-80014D01*
G03X6089960I7610J6734D01*
G02X6149900Y-4292380I59940J-53004D01*
G02X6229920Y-4372400I0J-80020D01*
G02X6210080Y-4425140I-80018J0D01*
G03X6211820Y-4440100I7643J-6692D01*
G02X6229620Y-4474700I-24728J-34600D01*
G02X6144580I-42520J0D01*
G02X6145930Y-4464060I42521J11D01*
G03X6137650Y-4451480I-9835J2542D01*
G02X6089960Y-4425410I12257J79076D01*
G37*
G36*
G01X4527580Y-6085720D02*
G02X4493500Y-6102820I-34080J25410D01*
G02Y-6017780I0J42520D01*
G02X4527660Y-6034980I0J-42522D01*
G03X4545340Y-6032490I8164J6046D01*
G02X4620300Y-5980480I74960J-28013D01*
G02Y-6140520I0J-80020D01*
G02X4545250Y-6088270I0J80025D01*
G03X4527580Y-6085720I-9528J-3527D01*
G37*
G36*
G01X6190600Y-3660610D02*
G03X6175400I-7600J-6747D01*
G02X6138000Y-3677420I-37400J33200D01*
G02Y-3577380I0J50020D01*
G02X6175400Y-3594190I0J-50010D01*
G03X6190600I7600J6747D01*
G02X6228000Y-3577380I37400J-33200D01*
G02Y-3677420I0J-50020D01*
G02X6190600Y-3660610I0J50010D01*
G37*
G36*
G01X6105450Y-3292390D02*
G03Y-3276310I-6207J8040D01*
G02X6085980Y-3236700I30557J39610D01*
G02X6186020I50020J0D01*
G02X6166550Y-3276310I-50027J0D01*
G03Y-3292390I6207J-8040D01*
G02X6186020Y-3332000I-30557J-39610D01*
G02X6085980I-50020J0D01*
G02X6105450Y-3292390I50027J0D01*
G37*
G36*
G01X6574250Y-2986420D02*
G03X6557940Y-2986250I-8218J-5973D01*
G02X6518100Y-3006020I-39840J30257D01*
G02Y-2905980I0J50020D01*
G02X6558550Y-2926580I0J-50014D01*
G03X6574860Y-2926750I8218J5973D01*
G02X6614700Y-2906980I39840J-30257D01*
G02Y-3007020I0J-50020D01*
G02X6574250Y-2986420I0J50014D01*
G37*
G36*
G01X7211350Y-2874240D02*
G03X7195050I-8150J-6059D01*
G02X7154900Y-2894420I-40150J29851D01*
G02Y-2794380I0J50020D01*
G02X7195050Y-2814560I0J-50031D01*
G03X7211350I8150J6059D01*
G02X7251500Y-2794380I40150J-29851D01*
G02Y-2894420I0J-50020D01*
G02X7211350Y-2874240I0J50031D01*
G37*
G36*
G01X7796050Y-2817780D02*
G03X7779960Y-2817920I-7991J-6274D01*
G02X7740100Y-2837720I-39860J30222D01*
G02Y-2737680I0J50020D01*
G02X7779450Y-2756820I0J-50020D01*
G03X7795540Y-2756680I7991J6274D01*
G02X7835400Y-2736880I39860J-30222D01*
G02Y-2836920I0J-50020D01*
G02X7796050Y-2817780I0J50020D01*
G37*
G36*
G01X6484640Y-1708990D02*
G03X6499360I7360J7000D01*
G02X6564640I32640J-31017D01*
G03X6579360I7360J7000D01*
G02X6612000Y-1694980I32640J-31017D01*
G02X6657020Y-1740000I0J-45020D01*
G02X6643010Y-1772640I-45027J0D01*
G03Y-1787360I7000J-7360D01*
G02Y-1852640I-31017J-32640D01*
G03Y-1867360I7000J-7360D01*
G02Y-1932640I-31017J-32640D01*
G03Y-1947360I7000J-7360D01*
G02X6657020Y-1980000I-31017J-32640D01*
G02X6612000Y-2025020I-45020J0D01*
G02X6579360Y-2011010I0J45027D01*
G03X6564640I-7360J-7000D01*
G02X6499360I-32640J31017D01*
G03X6484640I-7360J-7000D01*
G02X6419360I-32640J31017D01*
G03X6404640I-7360J-7000D01*
G02X6339360I-32640J31017D01*
G03X6324640I-7360J-7000D01*
G02X6292000Y-2025020I-32640J31017D01*
G02Y-1934980I0J45020D01*
G02X6324640Y-1948990I0J-45027D01*
G03X6339360I7360J7000D01*
G02X6340990Y-1947360I32640J-31010D01*
G03Y-1932640I-7000J7360D01*
G02Y-1867360I31017J32640D01*
G03Y-1852640I-7000J7360D01*
G02X6339360Y-1851010I31010J32640D01*
G03X6324640I-7360J-7000D01*
G02X6292000Y-1865020I-32640J31017D01*
G02X6246980Y-1820000I0J45020D01*
G02X6260990Y-1787360I45027J0D01*
G03Y-1772640I-7000J7360D01*
G02X6246980Y-1740000I31017J32640D01*
G02X6292000Y-1694980I45020J0D01*
G02X6324640Y-1708990I0J-45027D01*
G03X6339360I7360J7000D01*
G02X6404640I32640J-31017D01*
G03X6419360I7360J7000D01*
G02X6484640I32640J-31017D01*
G37*
G36*
G01X6104320Y-1445330D02*
G03X6088570Y-1446260I-7498J-6855D01*
G02X6052000Y-1465020I-36570J26264D01*
G02Y-1374980I0J45020D01*
G02X6088570Y-1393740I0J-45024D01*
G03X6104320Y-1394670I8252J5925D01*
G02X6132000Y-1382480I27680J-25332D01*
G02Y-1457520I0J-37520D01*
G02X6104320Y-1445330I0J37522D01*
G37*
G36*
G01X6378990Y-827360D02*
G03Y-812640I-7000J7360D01*
G02X6364980Y-780000I31017J32640D01*
G02X6455020I45020J0D01*
G02X6441010Y-812640I-45027J0D01*
G03Y-827360I7000J-7360D01*
G02X6446570Y-833740I-31011J-32638D01*
G03X6462320Y-834670I8252J5925D01*
G02X6490000Y-822480I27680J-25332D01*
G02Y-897520I0J-37520D01*
G02X6462320Y-885330I0J37522D01*
G03X6446570Y-886260I-7498J-6855D01*
G02X6410000Y-905020I-36570J26264D01*
G02X6364980Y-860000I0J45020D01*
G02X6378990Y-827360I45027J0D01*
G37*
G36*
G01X6063740Y-743430D02*
G03X6064670Y-727680I-5925J8252D01*
G02X6052480Y-700000I25332J27680D01*
G02X6127520I37520J0D01*
G02X6115330Y-727680I-37522J0D01*
G03X6116260Y-743430I6855J-7498D01*
G02X6135020Y-780000I-26264J-36570D01*
G02X6044980I-45020J0D01*
G02X6063740Y-743430I45024J0D01*
G37*
G36*
G01X7505000Y-627020D02*
G02X7555000I25000J-27987D01*
G02X7605000I25000J-27987D01*
G02X7630000Y-617480I25000J-27987D01*
G02Y-692520I0J-37520D01*
G02X7605000Y-682980I0J37527D01*
G02X7555000I-25000J27987D01*
G02X7505000I-25000J27987D01*
G02X7480000Y-692520I-25000J27987D01*
G02Y-617480I0J37520D01*
G02X7505000Y-627020I0J-37527D01*
G37*
G36*
G01X4969610Y-480840D02*
G02X5000800Y-468280I31190J-32447D01*
G02Y-558320I0J-45020D01*
G02X4969610Y-545760I0J45007D01*
G02X4950800Y-550820I-18817J32458D01*
G02Y-475780I0J37520D01*
G02X4969610Y-480840I-7J-37518D01*
G37*
G36*
G01X6446570Y-246260D02*
G02X6410000Y-265020I-36570J26264D01*
G02Y-174980I0J45020D01*
G02X6446570Y-193740I0J-45024D01*
G03X6462320Y-194670I8252J5925D01*
G02X6490000Y-182480I27680J-25332D01*
G02X6521480Y-199580I0J-37526D01*
G03X6538520I8520J5529D01*
G02X6601480I31480J-20426D01*
G03X6618520I8520J5529D01*
G02X6650000Y-182480I31480J-20426D01*
G02X6687520Y-220000I0J-37520D01*
G02X6673800Y-249010I-37530J0D01*
G03X6674410Y-265180I6441J-7854D01*
G02X6680930Y-270820I-24416J-34814D01*
G03X6695990Y-270500I7385J6975D01*
G02X6730000Y-254980I34010J-29504D01*
G02Y-345020I0J-45020D01*
G02X6695990Y-329500I0J45024D01*
G03X6680930Y-329180I-7675J-6655D01*
G02X6619070I-30930J29187D01*
G03X6604010Y-329500I-7385J-6975D01*
G02X6596260Y-336570I-34010J29499D01*
G03X6595330Y-352320I5925J-8252D01*
G02X6607520Y-380000I-25332J-27680D01*
G02X6570000Y-417520I-37520J0D01*
G02X6538520Y-400420I0J37526D01*
G03X6521480I-8520J-5529D01*
G02X6458520I-31480J20426D01*
G03X6441480I-8520J-5529D01*
G02X6410000Y-417520I-31480J20426D01*
G02X6382320Y-405330I0J37522D01*
G03X6366570Y-406260I-7498J-6855D01*
G02X6293430I-36570J26264D01*
G03X6277680Y-405330I-8252J-5925D01*
G02X6250000Y-417520I-27680J25332D01*
G02X6212480Y-380000I0J37520D01*
G02X6229580Y-348520I37526J0D01*
G03Y-331480I-5529J8520D01*
G02X6212480Y-300000I20426J31480D01*
G02X6287520I37520J0D01*
G02X6270420Y-331480I-37526J0D01*
G03Y-348520I5529J-8520D01*
G02X6277680Y-354670I-20427J-31474D01*
G03X6293430Y-353740I7498J6855D01*
G02X6366570I36570J-26264D01*
G03X6382320Y-354670I8252J5925D01*
G02X6410000Y-342480I27680J-25332D01*
G02X6441480Y-359580I0J-37526D01*
G03X6458520I8520J5529D01*
G02X6521480I31480J-20426D01*
G03X6538520I8520J5529D01*
G02X6544670Y-352320I31474J-20427D01*
G03X6543740Y-336570I-6855J7498D01*
G02Y-263430I26264J36570D01*
G03X6544670Y-247680I-5925J8252D01*
G02X6538520Y-240420I25324J27687D01*
G03X6521480I-8520J-5529D01*
G02X6490000Y-257520I-31480J20426D01*
G02X6462320Y-245330I0J37522D01*
G03X6446570Y-246260I-7498J-6855D01*
G37*
G36*
G01X6122640Y-188990D02*
G03X6137360I7360J7000D01*
G02X6170000Y-174980I32640J-31017D01*
G02Y-265020I0J-45020D01*
G02X6137360Y-251010I0J45027D01*
G03X6122640I-7360J-7000D01*
G02X6057360I-32640J31017D01*
G03X6042640I-7360J-7000D01*
G02X6036260Y-256570I-32638J31011D01*
G03X6035330Y-272320I5925J-8252D01*
G02X6047520Y-300000I-25332J-27680D01*
G02X6030420Y-331480I-37526J0D01*
G03Y-348520I5529J-8520D01*
G02X6047520Y-380000I-20426J-31480D01*
G02X6010000Y-417520I-37520J0D01*
G02X5978520Y-400420I0J37526D01*
G03X5961480I-8520J-5529D01*
G02X5930000Y-417520I-31480J20426D01*
G02Y-342480I0J37520D01*
G02X5961480Y-359580I0J-37526D01*
G03X5978520I8520J5529D01*
G02X5989580Y-348520I31480J-20420D01*
G03Y-331480I-5529J8520D01*
G02X5972480Y-300000I20426J31480D01*
G02X5984670Y-272320I37522J0D01*
G03X5983740Y-256570I-6855J7498D01*
G02X5964980Y-220000I26264J36570D01*
G02X6010000Y-174980I45020J0D01*
G02X6042640Y-188990I0J-45027D01*
G03X6057360I7360J7000D01*
G02X6122640I32640J-31017D01*
G37*
G36*
G01X5020300Y-247520D02*
G02X5019780Y-240300I49502J7194D01*
G02X5119820I50020J0D01*
G02X5097300Y-282080I-50016J0D01*
G02X5097820Y-289300I-49502J-7194D01*
G02X5073600Y-332150I-50015J0D01*
G03X5073770Y-349660I5241J-8705D01*
G02X5098820Y-393000I-24967J-43340D01*
G02X4998780I-50020J0D01*
G02X5023000Y-350150I50015J0D01*
G03X5022830Y-332640I-5241J8705D01*
G02X4997780Y-289300I24967J43340D01*
G02X5020300Y-247520I50016J0D01*
G37*
G36*
G01X7029580Y-331480D02*
G02X7012480Y-300000I20426J31480D01*
G02X7087520I37520J0D01*
G02X7070420Y-331480I-37526J0D01*
G03Y-348520I5529J-8520D01*
G02X7087520Y-380000I-20426J-31480D01*
G02X7050000Y-417520I-37520J0D01*
G02X7018520Y-400420I0J37526D01*
G03X7001480I-8520J-5529D01*
G02X6970000Y-417520I-31480J20426D01*
G02Y-342480I0J37520D01*
G02X7001480Y-359580I0J-37526D01*
G03X7018520I8520J5529D01*
G02X7029580Y-348520I31480J-20420D01*
G03Y-331480I-5529J8520D01*
G37*
G36*
G01X7790180Y-466980D02*
G02X7832900Y-442980I42720J-26021D01*
G02X7874670Y-465480I0J-50022D01*
G03X7891630I8480J5594D01*
G02X7933400Y-442980I41770J-27522D01*
G02Y-543020I0J-50020D01*
G02X7891630Y-520520I0J50022D01*
G03X7874670I-8480J-5594D01*
G02X7832900Y-543020I-41770J27522D01*
G02X7790180Y-519020I0J50021D01*
G03X7772820I-8680J-5279D01*
G02X7730100Y-543020I-42720J26021D01*
G02Y-442980I0J50020D01*
G02X7772820Y-466980I0J-50021D01*
G03X7790180I8680J5279D01*
G37*
G36*
G01X6544670Y-727680D02*
G02X6532480Y-700000I25332J27680D01*
G02X6570000Y-662480I37520J0D01*
G02X6601480Y-679580I0J-37526D01*
G03X6618520I8520J5529D01*
G02X6650000Y-662480I31480J-20426D01*
G02X6687520Y-700000I0J-37520D01*
G02X6670420Y-731480I-37526J0D01*
G03Y-748520I5529J-8520D01*
G02X6681480Y-759580I-20420J-31480D01*
G03X6698520I8520J5529D01*
G02X6761480I31480J-20426D01*
G03X6778520I8520J5529D01*
G02X6810000Y-742480I31480J-20426D01*
G02X6847520Y-780000I0J-37520D01*
G02X6835330Y-807680I-37522J0D01*
G03X6836260Y-823430I6855J-7498D01*
G02X6855020Y-860000I-26264J-36570D01*
G02X6764980I-45020J0D01*
G02X6783740Y-823430I45024J0D01*
G03X6784670Y-807680I-5925J8252D01*
G02X6778520Y-800420I25324J27687D01*
G03X6761480I-8520J-5529D01*
G02X6698520I-31480J20426D01*
G03X6681480I-8520J-5529D01*
G02X6670420Y-811480I-31480J20420D01*
G03Y-828520I5529J-8520D01*
G02X6687520Y-860000I-20426J-31480D01*
G02X6612480I-37520J0D01*
G02X6629580Y-828520I37526J0D01*
G03Y-811480I-5529J8520D01*
G02X6622320Y-805330I20427J31474D01*
G03X6606570Y-806260I-7498J-6855D01*
G02X6570000Y-825020I-36570J26264D01*
G02X6524980Y-780000I0J45020D01*
G02X6543740Y-743430I45024J0D01*
G03X6544670Y-727680I-5925J8252D01*
G37*
G36*
G01X6281480Y-720420D02*
G02X6250000Y-737520I-31480J20426D01*
G02Y-662480I0J37520D01*
G02X6281480Y-679580I0J-37526D01*
G03X6298520I8520J5529D01*
G02X6330000Y-662480I31480J-20426D01*
G02Y-737520I0J-37520D01*
G02X6298520Y-720420I0J37526D01*
G03X6281480I-8520J-5529D01*
G37*
G36*
G01X6643480Y-1200420D02*
G02X6612000Y-1217520I-31480J20426D01*
G02Y-1142480I0J37520D01*
G02X6643480Y-1159580I0J-37526D01*
G03X6660520I8520J5529D01*
G02X6692000Y-1142480I31480J-20426D01*
G02Y-1217520I0J-37520D01*
G02X6660520Y-1200420I0J37526D01*
G03X6643480I-8520J-5529D01*
G37*
G36*
G01X6431580Y-1211480D02*
G02X6414480Y-1180000I20426J31480D01*
G02X6489520I37520J0D01*
G02X6472420Y-1211480I-37526J0D01*
G03Y-1228520I5529J-8520D01*
G02Y-1291480I-20426J-31480D01*
G03Y-1308520I5529J-8520D01*
G02Y-1371480I-20426J-31480D01*
G03Y-1388520I5529J-8520D01*
G02X6489520Y-1420000I-20426J-31480D01*
G02X6452000Y-1457520I-37520J0D01*
G02X6420520Y-1440420I0J37526D01*
G03X6403480I-8520J-5529D01*
G02X6340520I-31480J20426D01*
G03X6323480I-8520J-5529D01*
G02X6292000Y-1457520I-31480J20426D01*
G02Y-1382480I0J37520D01*
G02X6323480Y-1399580I0J-37526D01*
G03X6340520I8520J5529D01*
G02X6351580Y-1388520I31480J-20420D01*
G03Y-1371480I-5529J8520D01*
G02X6334480Y-1340000I20426J31480D01*
G02X6372000Y-1302480I37520J0D01*
G02X6403480Y-1319580I0J-37526D01*
G03X6420520I8520J5529D01*
G02X6431580Y-1308520I31480J-20420D01*
G03Y-1291480I-5529J8520D01*
G02Y-1228520I20426J31480D01*
G03Y-1211480I-5529J8520D01*
G37*
G36*
G01X6191580D02*
G02X6174480Y-1180000I20426J31480D01*
G02X6249520I37520J0D01*
G02X6232420Y-1211480I-37526J0D01*
G03Y-1228520I5529J-8520D01*
G02Y-1291480I-20426J-31480D01*
G03Y-1308520I5529J-8520D01*
G02X6249520Y-1340000I-20426J-31480D01*
G02X6174480I-37520J0D01*
G02X6191580Y-1308520I37526J0D01*
G03Y-1291480I-5529J8520D01*
G02X6180520Y-1280420I20420J31480D01*
G03X6163480I-8520J-5529D01*
G02X6100520I-31480J20426D01*
G03X6083480I-8520J-5529D01*
G02X6052000Y-1297520I-31480J20426D01*
G02X6014480Y-1260000I0J37520D01*
G02X6031580Y-1228520I37526J0D01*
G03Y-1211480I-5529J8520D01*
G02X6014480Y-1180000I20426J31480D01*
G02X6089520I37520J0D01*
G02X6072420Y-1211480I-37526J0D01*
G03Y-1228520I5529J-8520D01*
G02X6083480Y-1239580I-20420J-31480D01*
G03X6100520I8520J5529D01*
G02X6163480I31480J-20426D01*
G03X6180520I8520J5529D01*
G02X6191580Y-1228520I31480J-20420D01*
G03Y-1211480I-5529J8520D01*
G37*
G36*
G01X5871580D02*
G02X5854480Y-1180000I20426J31480D01*
G02X5929520I37520J0D01*
G02X5912420Y-1211480I-37526J0D01*
G03Y-1228520I5529J-8520D01*
G02Y-1291480I-20426J-31480D01*
G03Y-1308520I5529J-8520D01*
G02X5929520Y-1340000I-20426J-31480D01*
G02X5854480I-37520J0D01*
G02X5871580Y-1308520I37526J0D01*
G03Y-1291480I-5529J8520D01*
G02Y-1228520I20426J31480D01*
G03Y-1211480I-5529J8520D01*
G37*
G36*
G01X6643480Y-1440420D02*
G02X6612000Y-1457520I-31480J20426D01*
G02Y-1382480I0J37520D01*
G02X6643480Y-1399580I0J-37526D01*
G03X6660520I8520J5529D01*
G02X6692000Y-1382480I31480J-20426D01*
G02Y-1457520I0J-37520D01*
G02X6660520Y-1440420I0J37526D01*
G03X6643480I-8520J-5529D01*
G37*
G36*
G01X5791580Y-1451480D02*
G02X5774480Y-1420000I20426J31480D01*
G02X5849520I37520J0D01*
G02X5832420Y-1451480I-37526J0D01*
G03Y-1468520I5529J-8520D01*
G02Y-1531480I-20426J-31480D01*
G03Y-1548520I5529J-8520D01*
G02Y-1611480I-20426J-31480D01*
G03Y-1628520I5529J-8520D01*
G02Y-1691480I-20426J-31480D01*
G03Y-1708520I5529J-8520D01*
G02X5849520Y-1740000I-20426J-31480D01*
G02X5774480I-37520J0D01*
G02X5791580Y-1708520I37526J0D01*
G03Y-1691480I-5529J8520D01*
G02Y-1628520I20426J31480D01*
G03Y-1611480I-5529J8520D01*
G02Y-1548520I20426J31480D01*
G03Y-1531480I-5529J8520D01*
G02Y-1468520I20426J31480D01*
G03Y-1451480I-5529J8520D01*
G37*
G36*
G01X6506670Y-1527680D02*
G02X6494480Y-1500000I25332J27680D01*
G02X6569520I37520J0D01*
G02X6557330Y-1527680I-37522J0D01*
G03X6558260Y-1543430I6855J-7498D01*
G02X6564640Y-1548990I-26258J-36571D01*
G03X6579360I7360J7000D01*
G02X6612000Y-1534980I32640J-31017D01*
G02Y-1625020I0J-45020D01*
G02X6579360Y-1611010I0J45027D01*
G03X6564640I-7360J-7000D01*
G02X6499360I-32640J31017D01*
G03X6484640I-7360J-7000D01*
G02X6419360I-32640J31017D01*
G03X6404640I-7360J-7000D01*
G02X6339360I-32640J31017D01*
G03X6324640I-7360J-7000D01*
G02X6259360I-32640J31017D01*
G03X6244640I-7360J-7000D01*
G02X6179360I-32640J31017D01*
G03X6164640I-7360J-7000D01*
G02X6132000Y-1625020I-32640J31017D01*
G02X6095430Y-1606260I0J45024D01*
G03X6079680Y-1605330I-8252J-5925D01*
G02X6072420Y-1611480I-27687J25324D01*
G03Y-1628520I5529J-8520D01*
G02Y-1691480I-20426J-31480D01*
G03Y-1708520I5529J-8520D01*
G02X6089520Y-1740000I-20426J-31480D01*
G02X6014480I-37520J0D01*
G02X6031580Y-1708520I37526J0D01*
G03Y-1691480I-5529J8520D01*
G02Y-1628520I20426J31480D01*
G03Y-1611480I-5529J8520D01*
G02X6014480Y-1580000I20426J31480D01*
G02X6052000Y-1542480I37520J0D01*
G02X6079680Y-1554670I0J-37522D01*
G03X6095430Y-1553740I7498J6855D01*
G02X6132000Y-1534980I36570J-26264D01*
G02X6164640Y-1548990I0J-45027D01*
G03X6179360I7360J7000D01*
G02X6244640I32640J-31017D01*
G03X6259360I7360J7000D01*
G02X6324640I32640J-31017D01*
G03X6339360I7360J7000D01*
G02X6404640I32640J-31017D01*
G03X6419360I7360J7000D01*
G02X6484640I32640J-31017D01*
G03X6499360I7360J7000D01*
G02X6505740Y-1543430I32638J-31011D01*
G03X6506670Y-1527680I-5925J8252D01*
G37*
G36*
G01X6980520Y-1559580D02*
G02X7043480I31480J-20426D01*
G03X7060520I8520J5529D01*
G02X7092000Y-1542480I31480J-20426D01*
G02Y-1617520I0J-37520D01*
G02X7060520Y-1600420I0J37526D01*
G03X7043480I-8520J-5529D01*
G02X6980520I-31480J20426D01*
G03X6963480I-8520J-5529D01*
G02X6932000Y-1617520I-31480J20426D01*
G02Y-1542480I0J37520D01*
G02X6963480Y-1559580I0J-37526D01*
G03X6980520I8520J5529D01*
G37*
G36*
G01X5791580Y-1931480D02*
G02X5774480Y-1900000I20426J31480D01*
G02X5812000Y-1862480I37520J0D01*
G02X5843480Y-1879580I0J-37526D01*
G03X5860520I8520J5529D01*
G02X5892000Y-1862480I31480J-20426D01*
G02X5929520Y-1900000I0J-37520D01*
G02X5912420Y-1931480I-37526J0D01*
G03Y-1948520I5529J-8520D01*
G02X5929520Y-1980000I-20426J-31480D01*
G02X5898940Y-2016870I-37517J0D01*
G03X5894800Y-2022010I940J-4994D01*
G02X5894820Y-2023200I-42498J-1309D01*
G02X5852300Y-2065720I-42520J0D01*
G02X5821330Y-2052330I0J42511D01*
G03X5806020Y-2052920I-7398J-6965D01*
G02X5767100Y-2071520I-38920J31420D01*
G02X5730470Y-2055570I-6J50023D01*
G02X5702100Y-2066420I-28370J31665D01*
G02Y-1981380I0J42520D01*
G02X5728060Y-1990230I-6J-42518D01*
G02X5767100Y-1971480I39040J-31268D01*
G02X5775310Y-1972160I-10J-50019D01*
G02X5791580Y-1948520I36693J-7835D01*
G03Y-1931480I-5529J8520D01*
G37*
G36*
G01X5843480Y-2160420D02*
G02X5812000Y-2177520I-31480J20426D01*
G02Y-2102480I0J37520D01*
G02X5843480Y-2119580I0J-37526D01*
G03X5860520I8520J5529D01*
G02X5892000Y-2102480I31480J-20426D01*
G02Y-2177520I0J-37520D01*
G02X5860520Y-2160420I0J37526D01*
G03X5843480I-8520J-5529D01*
G37*
G36*
G01X5940990Y-2252640D02*
G02X5926980Y-2220000I31017J32640D01*
G02X6017020I45020J0D01*
G02X6003010Y-2252640I-45027J0D01*
G03Y-2267360I7000J-7360D01*
G02X6017020Y-2300000I-31017J-32640D01*
G02X5972000Y-2345020I-45020J0D01*
G02X5935430Y-2326260I0J45024D01*
G03X5919680Y-2325330I-8252J-5925D01*
G02X5912420Y-2331480I-27687J25324D01*
G03Y-2348520I5529J-8520D01*
G02Y-2411480I-20426J-31480D01*
G03Y-2428520I5529J-8520D01*
G02X5929520Y-2460000I-20426J-31480D01*
G02X5854480I-37520J0D01*
G02X5871580Y-2428520I37526J0D01*
G03Y-2411480I-5529J8520D01*
G02Y-2348520I20426J31480D01*
G03Y-2331480I-5529J8520D01*
G02X5860520Y-2320420I20420J31480D01*
G03X5843480I-8520J-5529D01*
G02X5812000Y-2337520I-31480J20426D01*
G02Y-2262480I0J37520D01*
G02X5843480Y-2279580I0J-37526D01*
G03X5860520I8520J5529D01*
G02X5892000Y-2262480I31480J-20426D01*
G02X5919680Y-2274670I0J-37522D01*
G03X5935430Y-2273740I7498J6855D01*
G02X5940990Y-2267360I36571J-26258D01*
G03Y-2252640I-7000J7360D01*
G37*
G36*
G01X6907840Y-3555470D02*
G02X6889180Y-3516500I31363J38970D01*
G02X6989220I50020J0D01*
G02X6961420Y-3561310I-50014J0D01*
G03X6959560Y-3578330I4510J-9105D01*
G02X6978220Y-3617300I-31363J-38970D01*
G02X6944440Y-3664610I-50020J0D01*
G03X6941150Y-3670600I1650J-4805D01*
G02X6942320Y-3680500I-41349J-9906D01*
G02X6857280I-42520J0D01*
G02X6879750Y-3643010I42510J0D01*
G03X6882040Y-3636570I-2398J4480D01*
G02X6878180Y-3617300I46170J19270D01*
G02X6905980Y-3572490I50014J0D01*
G03X6907840Y-3555470I-4510J9105D01*
G37*
G36*
G01X7707620Y-3557210D02*
G02X7687080Y-3516800I29481J40410D01*
G02X7787120I50020J0D01*
G02X7757440Y-3562500I-50023J0D01*
G03X7755580Y-3579990I4127J-9283D01*
G02X7776120Y-3620400I-29481J-40410D01*
G02X7754980Y-3661240I-50019J0D01*
G03X7756510Y-3678730I5861J-8299D01*
G02X7780920Y-3717200I-18109J-38470D01*
G02X7695880I-42520J0D01*
G02X7711240Y-3684480I42530J0D01*
G03X7708360Y-3667170I-6489J7815D01*
G02X7676080Y-3620400I17742J46770D01*
G02X7705760Y-3574700I50023J0D01*
G03X7707620Y-3557210I-4127J9283D01*
G37*
G36*
G01X7043480Y-1799580D02*
G03X7060520I8520J5529D01*
G02X7092000Y-1782480I31480J-20426D01*
G02X7129520Y-1820000I0J-37520D01*
G02X7112420Y-1851480I-37526J0D01*
G03Y-1868520I5529J-8520D01*
G02Y-1931480I-20426J-31480D01*
G03Y-1948520I5529J-8520D01*
G02Y-2011480I-20426J-31480D01*
G03Y-2028520I5529J-8520D01*
G02Y-2091480I-20426J-31480D01*
G03Y-2108520I5529J-8520D01*
G02Y-2171480I-20426J-31480D01*
G03Y-2188520I5529J-8520D01*
G02X7129520Y-2220000I-20426J-31480D01*
G02X7092000Y-2257520I-37520J0D01*
G02X7060520Y-2240420I0J37526D01*
G03X7043480I-8520J-5529D01*
G02X6980520I-31480J20426D01*
G03X6963480I-8520J-5529D01*
G02X6900520I-31480J20426D01*
G03X6883480I-8520J-5529D01*
G02X6852000Y-2257520I-31480J20426D01*
G02X6814480Y-2220000I0J37520D01*
G02X6831580Y-2188520I37526J0D01*
G03Y-2171480I-5529J8520D01*
G02X6820520Y-2160420I20420J31480D01*
G03X6803480I-8520J-5529D01*
G02X6740520I-31480J20426D01*
G03X6723480I-8520J-5529D01*
G02X6660520I-31480J20426D01*
G03X6643480I-8520J-5529D01*
G02X6580520I-31480J20426D01*
G03X6563480I-8520J-5529D01*
G02X6552420Y-2171480I-31480J20420D01*
G03Y-2188520I5529J-8520D01*
G02X6569520Y-2220000I-20426J-31480D01*
G02X6532000Y-2257520I-37520J0D01*
G02X6500520Y-2240420I0J37526D01*
G03X6483480I-8520J-5529D01*
G02X6472420Y-2251480I-31480J20420D01*
G03Y-2268520I5529J-8520D01*
G02Y-2331480I-20426J-31480D01*
G03Y-2348520I5529J-8520D01*
G02X6483480Y-2359580I-20420J-31480D01*
G03X6500520I8520J5529D01*
G02X6563480I31480J-20426D01*
G03X6580520I8520J5529D01*
G02X6612000Y-2342480I31480J-20426D01*
G02X6649520Y-2380000I0J-37520D01*
G02X6632420Y-2411480I-37526J0D01*
G03Y-2428520I5529J-8520D01*
G02X6643480Y-2439580I-20420J-31480D01*
G03X6660520I8520J5529D01*
G02X6692000Y-2422480I31480J-20426D01*
G02Y-2497520I0J-37520D01*
G02X6660520Y-2480420I0J37526D01*
G03X6643480I-8520J-5529D01*
G02X6580520I-31480J20426D01*
G03X6563480I-8520J-5529D01*
G02X6500520I-31480J20426D01*
G03X6483480I-8520J-5529D01*
G02X6452000Y-2497520I-31480J20426D01*
G02X6414480Y-2460000I0J37520D01*
G02X6431580Y-2428520I37526J0D01*
G03Y-2411480I-5529J8520D01*
G02X6420520Y-2400420I20420J31480D01*
G03X6403480I-8520J-5529D01*
G02X6372000Y-2417520I-31480J20426D01*
G02Y-2342480I0J37520D01*
G02X6403480Y-2359580I0J-37526D01*
G03X6420520I8520J5529D01*
G02X6431580Y-2348520I31480J-20420D01*
G03Y-2331480I-5529J8520D01*
G02Y-2268520I20426J31480D01*
G03Y-2251480I-5529J8520D01*
G02X6420520Y-2240420I20420J31480D01*
G03X6403480I-8520J-5529D01*
G02X6340520I-31480J20426D01*
G03X6323480I-8520J-5529D01*
G02X6312420Y-2251480I-31480J20420D01*
G03Y-2268520I5529J-8520D01*
G02X6329520Y-2300000I-20426J-31480D01*
G02X6292000Y-2337520I-37520J0D01*
G02X6260520Y-2320420I0J37526D01*
G03X6243480I-8520J-5529D01*
G02X6232420Y-2331480I-31480J20420D01*
G03Y-2348520I5529J-8520D01*
G02X6249520Y-2380000I-20426J-31480D01*
G02X6174480I-37520J0D01*
G02X6191580Y-2348520I37526J0D01*
G03Y-2331480I-5529J8520D01*
G02X6174480Y-2300000I20426J31480D01*
G02X6212000Y-2262480I37520J0D01*
G02X6243480Y-2279580I0J-37526D01*
G03X6260520I8520J5529D01*
G02X6271580Y-2268520I31480J-20420D01*
G03Y-2251480I-5529J8520D01*
G02X6254480Y-2220000I20426J31480D01*
G02X6266670Y-2192320I37522J0D01*
G03X6265740Y-2176570I-6855J7498D01*
G02X6259360Y-2171010I26258J36571D01*
G03X6244640I-7360J-7000D01*
G02X6179360I-32640J31017D01*
G03X6164640I-7360J-7000D01*
G02X6132000Y-2185020I-32640J31017D01*
G02X6095430Y-2166260I0J45024D01*
G03X6079680Y-2165330I-8252J-5925D01*
G02X6052000Y-2177520I-27680J25332D01*
G02X6014480Y-2140000I0J37520D01*
G02X6026670Y-2112320I37522J0D01*
G03X6025740Y-2096570I-6855J7498D01*
G02X6015430Y-2086260I26260J36570D01*
G03X5999680Y-2085330I-8252J-5925D01*
G02X5972000Y-2097520I-27680J25332D01*
G02Y-2022480I0J37520D01*
G02X5999680Y-2034670I0J-37522D01*
G03X6015430Y-2033740I7498J6855D01*
G02X6088570I36570J-26264D01*
G03X6104320Y-2034670I8252J5925D01*
G02X6132000Y-2022480I27680J-25332D01*
G02X6169520Y-2060000I0J-37520D01*
G02X6157330Y-2087680I-37522J0D01*
G03X6158260Y-2103430I6855J-7498D01*
G02X6164640Y-2108990I-26258J-36571D01*
G03X6179360I7360J7000D01*
G02X6244640I32640J-31017D01*
G03X6259360I7360J7000D01*
G02X6292000Y-2094980I32640J-31017D01*
G02X6328570Y-2113740I0J-45024D01*
G03X6344320Y-2114670I8252J5925D01*
G02X6372000Y-2102480I27680J-25332D01*
G02X6403480Y-2119580I0J-37526D01*
G03X6420520I8520J5529D01*
G02X6483480I31480J-20426D01*
G03X6500520I8520J5529D01*
G02X6563480I31480J-20426D01*
G03X6580520I8520J5529D01*
G02X6643480I31480J-20426D01*
G03X6660520I8520J5529D01*
G02X6723480I31480J-20426D01*
G03X6740520I8520J5529D01*
G02X6751580Y-2108520I31480J-20420D01*
G03Y-2091480I-5529J8520D01*
G02X6734480Y-2060000I20426J31480D01*
G02X6772000Y-2022480I37520J0D01*
G02X6803480Y-2039580I0J-37526D01*
G03X6820520I8520J5529D01*
G02X6831580Y-2028520I31480J-20420D01*
G03Y-2011480I-5529J8520D01*
G02X6814550Y-1982320I20420J31479D01*
G03X6809760Y-1977560I-5071J-313D01*
G02X6774340Y-1942220I2038J37463D01*
G03X6769590Y-1937440I-5072J-290D01*
G02X6734480Y-1900000I2407J37440D01*
G02X6772000Y-1862480I37520J0D01*
G02X6803480Y-1879580I0J-37526D01*
G03X6820520I8520J5529D01*
G02X6883480I31480J-20426D01*
G03X6900520I8520J5529D01*
G02X6963480I31480J-20426D01*
G03X6980520I8520J5529D01*
G02X6991580Y-1868520I31480J-20420D01*
G03Y-1851480I-5529J8520D01*
G02X6974480Y-1820000I20426J31480D01*
G02X7012000Y-1782480I37520J0D01*
G02X7043480Y-1799580I0J-37526D01*
G37*
G54D15*
X2132000Y-6188700D03*
X1932000D03*
X1532000Y-5688700D03*
X2832000Y-4788700D03*
X1532000Y-5188700D03*
X1632000Y-5788700D03*
X3332000Y-6388700D03*
X1632000Y-4888700D03*
X3132000Y-5188700D03*
X2232000Y-4688700D03*
X1532000Y-4788700D03*
Y-4988700D03*
X2632000Y-5788700D03*
X1832000Y-4688700D03*
X3232000Y-5988700D03*
X1732000Y-4788700D03*
X3032000Y-4988700D03*
X1632000Y-4688700D03*
X3032000Y-4788700D03*
Y-5688700D03*
X1232000Y-6388700D03*
X3332000Y-4488700D03*
X1732000Y-6188700D03*
X1932000Y-5688700D03*
X1832000Y-5388700D03*
X1232000Y-4488700D03*
X770700Y-5827300D03*
X960700D03*
X2232000Y-4988700D03*
X1931000Y-7015300D03*
X2006000Y-6940300D03*
X2631000Y-7015300D03*
X1931000Y-7415300D03*
X2832000Y-6188700D03*
X2432000D03*
X2632000D03*
X2932000Y-4888700D03*
X2556000Y-7640300D03*
X5094600Y-3009400D03*
Y-2709400D03*
X5326600Y-2581400D03*
X5526600Y-3084400D03*
X5610600Y-2959400D03*
X6810000Y-220000D03*
X7830000Y-2605000D03*
X7265000Y-3534000D03*
X5850000Y-300000D03*
X5930000Y-780000D03*
X6970000Y-220000D03*
X6010000Y-860000D03*
X5850000D03*
X6250000D03*
X6970000D03*
X5419800Y-2097800D03*
X5627800Y-2098200D03*
X6615000Y-3127000D03*
X7593000Y-3455000D03*
X7415000Y-3127000D03*
G54D14*
X3691300Y-5470600D03*
X2232000Y-6388700D03*
X2832000D03*
X3010500Y-6618200D03*
X2932000Y-6088700D03*
X2432000Y-6388700D03*
X2932000Y-6488700D03*
X2832000D03*
X2332000D03*
X2432000D03*
X2232000Y-6088700D03*
X3132000Y-6288700D03*
X2932000Y-6188700D03*
X2132000Y-6088700D03*
X2232000Y-6188700D03*
Y-6488700D03*
X1532000D03*
X2332000Y-6388700D03*
X2132000Y-5988700D03*
X3691300Y-5085000D03*
X1832000Y-6488700D03*
X2182100Y-4440400D03*
X2673600Y-4364400D03*
X2487700Y-4685300D03*
X3642900Y-5890200D03*
X6440100Y-4940300D03*
X5272400Y-5574600D03*
X4558500Y-6258000D03*
X5422400Y-5310900D03*
X5900700Y-4550000D03*
X5100300Y-6130200D03*
X4968860Y-5839430D03*
X7933400Y-284500D03*
X8142100Y-3283400D03*
X8015100D03*
X6810000Y-380000D03*
X6890000Y-300000D03*
X6389000Y-3205000D03*
X7139700Y-1500000D03*
X7429400Y-493000D03*
X7331300D03*
X7626200D03*
X7012000Y-2380000D03*
X8153600Y-2806000D03*
X7525600Y-493000D03*
X6366600Y-2632800D03*
X6465000Y-3127000D03*
X7189000Y-3205000D03*
X6813000Y-2632800D03*
X7265000Y-3127000D03*
X7037000Y-2632800D03*
X6589900D03*
X6037100Y-2646800D03*
X6292000Y-2460000D03*
X4997200Y-1821600D03*
Y-1721600D03*
Y-1421600D03*
Y-1321600D03*
X5050800Y-661300D03*
X7050000Y-780000D03*
X6132000Y-2460000D03*
X7580000Y-2605000D03*
X7680000D03*
X6700600Y-994000D03*
X6759900Y-1065000D03*
X6812100Y-1301500D03*
X6772000Y-1660000D03*
X6736600Y-1739400D03*
X6817500Y-1819400D03*
X6932000Y-1420000D03*
G54D16*
X1221900Y-7676500D03*
X585900Y-7096500D03*
X4124600Y-4877700D03*
X4126000Y-5096900D03*
X4124600Y-5297000D03*
X966400Y-7096500D03*
X3137500Y-7158200D03*
X4125900Y-5782500D03*
X4124100Y-5507400D03*
X331300Y-7095500D03*
X4124500Y-4710500D03*
X4124300Y-6371100D03*
Y-6161100D03*
X205600Y-7095500D03*
X2905900Y-7069900D03*
X713400Y-7096500D03*
X331300Y-6999500D03*
X1197700Y-6853900D03*
X3604100Y-4904800D03*
X3916900Y-6863000D03*
X3440000Y-6910000D03*
X5905000Y-6972000D03*
X7375000Y-5583000D03*
X7675000D03*
X7681000Y-4471000D03*
X5864700Y-4187700D03*
X4474500Y-5370430D03*
X4474100Y-5507400D03*
X6750600Y-5408200D03*
X5033300Y-5508400D03*
X6750600Y-5312200D03*
X4522800Y-7117000D03*
X4620500D03*
X4911600Y-7214900D03*
X4812900Y-7214700D03*
X5683100Y-5798600D03*
X7120000Y-6950000D03*
X7310000D03*
X4858900Y-6659100D03*
X6838000Y-7058000D03*
X4668900Y-6659100D03*
X5329900Y-4174400D03*
X5768000Y-6463000D03*
X7281000Y-4471000D03*
X7275700Y-5908700D03*
X8275000Y-5583000D03*
X7581000Y-4471000D03*
X7781000D03*
X7381000D03*
X7975000Y-5583000D03*
X7481000Y-4471000D03*
X7181000D03*
X7881000D03*
X6700000Y-6950000D03*
X5574200Y-4190900D03*
X6510000Y-6950000D03*
X7975000Y-4633000D03*
X8337700Y-4600400D03*
X4475400Y-5093700D03*
X5139300Y-4175600D03*
X5502000Y-6652000D03*
X6643000Y-7058000D03*
X5033300Y-5604000D03*
X4732700Y-5390400D03*
X4472800Y-4880100D03*
X6228800Y-5225400D03*
X4476100Y-7357300D03*
X7675000Y-4633000D03*
X7375000D03*
X6019400Y-5147300D03*
X6387100Y-4474700D03*
X5378000Y-6463000D03*
X6587100Y-4474700D03*
X5108500Y-6014800D03*
X7949900Y-3717200D03*
X5515900Y-1777100D03*
X7035200Y-3327100D03*
X7319500Y-3717200D03*
X6185300Y-546800D03*
X8057600Y-2684700D03*
X4997200Y-1621600D03*
X5611900Y-1666500D03*
X6133100Y-2646800D03*
X5515900Y-1973400D03*
X7529100Y-3622000D03*
X6690900D03*
X6480100Y-3717200D03*
X8249800Y-2684700D03*
X4846800Y-910900D03*
X7530100Y-3717200D03*
X8345000Y-2901000D03*
X7960800Y-2684700D03*
X4846800Y-1032200D03*
X6692100Y-3717200D03*
X7109500Y-3680500D03*
X7035100Y-3123100D03*
G54D23*
X5719700Y-3352300D03*
G54D22*
X4637500Y-2258800D03*
X5302000Y-3203500D03*
X5207400D03*
X4636500Y-2645300D03*
Y-2515800D03*
X4984700Y-2759600D03*
X4619400Y-2977200D03*
X4637500Y-2387400D03*
X4619400Y-2767200D03*
Y-3186900D03*
X5224100Y-3823500D03*
X5426500Y-3823700D03*
G54D17*
X1007500Y-5672100D03*
X1307700Y-6731200D03*
X974500Y-4572500D03*
X2824800Y-7446900D03*
X836900Y-5416900D03*
X1827500Y-4187600D03*
X1019200D03*
X2506800D03*
X2839600D03*
X1497900D03*
X1795300Y-7414400D03*
X1006500Y-6256300D03*
X2780300Y-6979200D03*
X3604100Y-4784800D03*
X984500Y-6498400D03*
X1542600Y-7164800D03*
X1006500Y-6384600D03*
X2650600Y-6793900D03*
X1497700Y-6731200D03*
X1647900Y-6715300D03*
X959700Y-6117300D03*
X1756400Y-6746800D03*
X1786500Y-6929900D03*
X2025600Y-6812200D03*
X3001700Y-6747400D03*
X3023600Y-6859600D03*
X3440000Y-6790000D03*
X170000Y-2283200D03*
X1191300Y-2480000D03*
X170000D03*
X1062900Y-2296500D03*
X2080100D03*
X1191300Y-2283200D03*
X1168300Y-2594500D03*
X1560400Y-3531000D03*
X2219700Y-2283200D03*
X3099300Y-2296500D03*
X4134500D03*
X3242000Y-2283200D03*
Y-2480000D03*
X3219000Y-2594500D03*
X2219700Y-2480000D03*
X2196700Y-2594500D03*
X2591300Y-3531000D03*
X4129200Y-1722400D03*
X3234900Y-1709600D03*
X1182400D03*
X1054800Y-1722400D03*
X2212500Y-1709600D03*
X3103700Y-1722400D03*
X1054800Y-1529200D03*
X3478000Y-304900D03*
X4129200Y-1529200D03*
X3126700Y-1416700D03*
X1077800D03*
X2077900Y-1529200D03*
X2100900Y-1416700D03*
X1938800Y-304900D03*
X915800D03*
X2944500D03*
X3103700Y-1529200D03*
X7530000Y-5850000D03*
X8188000Y-6420000D03*
X8201650Y-6628350D03*
X7405000Y-6065000D03*
Y-5875000D03*
X7530000Y-5980000D03*
X7565000Y-6544600D03*
X6360500Y-6546000D03*
X5089900Y-3310800D03*
X5255200Y-518600D03*
Y-328600D03*
X6378600Y-2738000D03*
X7049000D03*
X6601900D03*
X6825000D03*
X5545200Y-329600D03*
X5457700Y-678200D03*
X5203300Y-666200D03*
X5178200Y-2117600D03*
X6928200Y-3224500D03*
X5515900Y-1570500D03*
X5346500Y-917900D03*
X7442400Y-2940400D03*
X5281900Y-1342200D03*
X7726100Y-3224500D03*
X5339800Y-797200D03*
X5189400Y-894600D03*
G54D21*
X5573000Y-6463000D03*
X6773000D03*
G54D20*
X5050700Y-4659300D03*
G54D19*
X6353500Y-5440300D03*
X6199000Y-7215000D03*
X8230000Y-6130000D03*
X5130100Y-7392200D03*
X7556000Y-6194000D03*
X4916000Y-7393200D03*
X8333000Y-7235000D03*
X7100500Y-7320700D03*
X5006200Y-6445500D03*
X5019500Y-6634900D03*
X4620300Y-5854300D03*
X6680000Y-6144400D03*
G54D18*
X245500Y-4827800D03*
%LPD*%
G75*
G54D10*
X300000Y-7700000D03*
Y-4300000D03*
Y-3700000D03*
Y-300000D03*
X4000000Y-7700000D03*
Y-4300000D03*
Y-3700000D03*
Y-300000D03*
X4600000Y-7700000D03*
Y-4300000D03*
Y-3700000D03*
Y-300000D03*
X8300000Y-7700000D03*
Y-4300000D03*
Y-3700000D03*
Y-300000D03*
G54D11*
X245500Y-4827800D03*
G54D12*
X150900Y-3484700D03*
X167000Y-3315000D03*
X147000Y-2594500D03*
X170000Y-2480000D03*
Y-2283200D03*
X163400Y-1709600D03*
Y-1465600D03*
X164900Y-1285400D03*
X164200Y-538500D03*
X205600Y-7095500D03*
X331300D03*
Y-6999500D03*
X275000Y-3353200D03*
X221300Y-3334500D03*
X450000Y-3267300D03*
X397000Y-3314400D03*
X393600Y-3214600D03*
X393500Y-2998000D03*
X450800Y-3043100D03*
X454700Y-3158000D03*
X396100Y-3105600D03*
X240200Y-1370500D03*
X444200Y-1018000D03*
X444300Y-948000D03*
X444200Y-878300D03*
X482500Y-982600D03*
X482000Y-914800D03*
X482100Y-845000D03*
X481800Y-776000D03*
X444400Y-809000D03*
X445100Y-738900D03*
X482100Y-706300D03*
X444400Y-673800D03*
X250100Y-562500D03*
X349100Y-565000D03*
X451800Y-552500D03*
X713400Y-7096500D03*
X585900D03*
X528800Y-3845800D03*
X568500Y-3771900D03*
X575500Y-3690500D03*
X555500Y-3613700D03*
X677200Y-3583600D03*
X695100Y-3531500D03*
X739200Y-3325000D03*
X661400D03*
X739100Y-3255100D03*
X661500Y-3255000D03*
X699700Y-3289600D03*
X699200Y-3221800D03*
X712600Y-3477600D03*
X508300Y-3314700D03*
X512600Y-3210800D03*
X739000Y-3185100D03*
X661400Y-3185300D03*
X699300Y-3152000D03*
X699000Y-3083000D03*
X699300Y-3013300D03*
X739200Y-3115900D03*
X661600Y-3116000D03*
X739100Y-3046100D03*
X662300Y-3045900D03*
X739600Y-2979100D03*
X661600Y-2980800D03*
X511200Y-2999400D03*
X512600Y-3104800D03*
X539200Y-2118900D03*
X685200Y-2119900D03*
X612300Y-2088800D03*
X612100Y-2147600D03*
X666800Y-2066500D03*
X557800Y-2065300D03*
X557100Y-2172200D03*
X666300Y-2173000D03*
X685200Y-1883500D03*
X539200Y-1882500D03*
X612500Y-1860800D03*
X612800Y-1922500D03*
X556300Y-1829900D03*
X557600Y-1936100D03*
X666300Y-1937200D03*
X667200Y-1830300D03*
X522000Y-1018000D03*
X521900Y-948100D03*
X521800Y-878100D03*
X522000Y-808900D03*
X521900Y-739100D03*
X751800Y-848800D03*
X687700Y-758400D03*
X683400Y-1020400D03*
X747200Y-976200D03*
X692000Y-927200D03*
X522400Y-672100D03*
X525300Y-489000D03*
X682500Y-678700D03*
X746900Y-717000D03*
X557900Y-400900D03*
X539500Y-172100D03*
X562500Y-242700D03*
X564300Y-314700D03*
X749400Y-243400D03*
X689700Y-176400D03*
X691400Y-318100D03*
X802000Y-316000D03*
X966400Y-7096500D03*
X1006500Y-6384600D03*
X984500Y-6498400D03*
X1006500Y-6256300D03*
X959700Y-6117300D03*
X1007500Y-5672100D03*
X951800Y-5394900D03*
X836900Y-5416900D03*
X842200Y-5563600D03*
Y-5657600D03*
X1048700Y-5394900D03*
X974500Y-4572500D03*
X858000Y-4175300D03*
X809400Y-4142100D03*
X902900Y-4142800D03*
X810300Y-4209400D03*
X906700Y-4209200D03*
X1019200Y-4187600D03*
X1063600Y-2731900D03*
X979900Y-2648000D03*
X1062900Y-2553700D03*
Y-2296500D03*
X1054800Y-1722400D03*
Y-1529200D03*
X1077800Y-1416700D03*
X807900Y-755600D03*
X810500Y-1020400D03*
X804100Y-933000D03*
X1044200Y-464400D03*
X1003000Y-645100D03*
X1058000Y-625100D03*
X947800Y-660400D03*
X1064200Y-519400D03*
X816000Y-680900D03*
X915800Y-304900D03*
X1047900D03*
X1064300Y-409300D03*
X806200Y-175800D03*
X1221900Y-7676500D03*
X1197700Y-6853900D03*
X1307700Y-6731200D03*
X1414700Y-3307200D03*
X1410900Y-3211100D03*
X1255800Y-3469600D03*
X1202700Y-3451100D03*
X1308400Y-3487600D03*
X1256800Y-3334500D03*
X1204100Y-3316500D03*
X1308700Y-3351800D03*
X1411300Y-3005300D03*
X1413800Y-3103800D03*
X1168300Y-2594500D03*
X1191300Y-2480000D03*
Y-2283200D03*
X1182400Y-1709600D03*
X1263100Y-1369900D03*
X1182400Y-1465600D03*
X1180500Y-1285200D03*
X1210000Y-524500D03*
X1287800D03*
X1361900Y-522800D03*
X1210100Y-454500D03*
X1248300Y-489100D03*
X1287700Y-454600D03*
X1362000Y-452800D03*
X1400200Y-487400D03*
X1210200Y-180300D03*
X1210900Y-245400D03*
X1210200Y-315500D03*
X1210000Y-384800D03*
X1288200Y-178600D03*
X1287700Y-245600D03*
X1287800Y-315400D03*
X1247900Y-212800D03*
X1247600Y-282500D03*
X1247900Y-351500D03*
X1247800Y-421300D03*
X1287600Y-384600D03*
X1362100Y-178600D03*
X1362800Y-243700D03*
X1362100Y-313800D03*
X1361900Y-383100D03*
X1399800Y-211100D03*
X1399500Y-280800D03*
X1399800Y-349800D03*
X1399700Y-419600D03*
X1552600Y-7292800D03*
X1641600Y-7251700D03*
X1542600Y-7164800D03*
X1497700Y-6731200D03*
X1647900Y-6715300D03*
X1663600Y-4175300D03*
X1615000Y-4140700D03*
X1712600Y-4140500D03*
X1618300Y-4206700D03*
X1711600Y-4208700D03*
X1497900Y-4187600D03*
X1688900Y-3531500D03*
X1670900Y-3584700D03*
X1560400Y-3531000D03*
X1681700Y-3317400D03*
X1681800Y-3247400D03*
X1720000Y-3282000D03*
X1719500Y-3214200D03*
X1530300Y-3305100D03*
X1471900Y-3253700D03*
X1537000Y-3205300D03*
X1706900Y-3477900D03*
X1681700Y-3177700D03*
X1719600Y-3144400D03*
X1719300Y-3075400D03*
X1719600Y-3005700D03*
X1681900Y-3108400D03*
X1682600Y-3038300D03*
X1681900Y-2973200D03*
X1528700Y-3007400D03*
X1471500Y-3047100D03*
X1528700Y-3102200D03*
X1474400Y-3158000D03*
X1689700Y-2172600D03*
X1690700Y-2067700D03*
X1576000Y-2171400D03*
X1575600Y-2066400D03*
X1633200Y-2151600D03*
X1633500Y-2094000D03*
X1707900Y-2119900D03*
X1558300Y-2118900D03*
X1707900Y-1883500D03*
X1558300Y-1882500D03*
X1578300Y-1827400D03*
Y-1937400D03*
X1687900Y-1938500D03*
X1687800Y-1828500D03*
X1633000Y-1860900D03*
X1633100Y-1919200D03*
X1469000Y-807400D03*
X1546600Y-807300D03*
X1506400Y-774400D03*
X1506700Y-843400D03*
X1506600Y-913200D03*
X1507100Y-981000D03*
X1468800Y-876700D03*
X1546400Y-876500D03*
X1468900Y-946400D03*
X1546500Y-946500D03*
X1468800Y-1016400D03*
X1546600D03*
X1698700Y-1025600D03*
X1713500Y-923500D03*
X1715000Y-784200D03*
X1469000Y-672200D03*
X1547000Y-670500D03*
X1469700Y-737300D03*
X1546500Y-737500D03*
X1506700Y-704700D03*
X1439700Y-522800D03*
X1439600Y-452900D03*
X1702000Y-680300D03*
X1440100Y-176900D03*
X1439600Y-243900D03*
X1439700Y-313700D03*
X1439500Y-382900D03*
X1705800Y-184600D03*
X1713700Y-322400D03*
X1795300Y-7414400D03*
X1786500Y-6929900D03*
X2025600Y-6812200D03*
X1756400Y-6746800D03*
X1827500Y-4187600D03*
X2012700Y-3862500D03*
X2013100Y-3768600D03*
X1977400Y-3810700D03*
X1975200Y-3726900D03*
X1759500Y-3317400D03*
X1759400Y-3247500D03*
X1759300Y-3177500D03*
X1759500Y-3108300D03*
X1759400Y-3038500D03*
X1759900Y-2971500D03*
X1986500Y-2645500D03*
X1981500Y-1722400D03*
X1773500Y-848800D03*
X1843800Y-1022800D03*
X1772200Y-980400D03*
X1830400Y-924200D03*
X1834700Y-779900D03*
X2027400Y-645100D03*
X1972200Y-662700D03*
X1839500Y-682000D03*
X1772400Y-732600D03*
X1938800Y-304900D03*
X1759700Y-244300D03*
X1817300Y-184200D03*
X1821000Y-316500D03*
X2281000Y-7290300D03*
X2072800Y-7499800D03*
X2281200Y-7499900D03*
X2074700Y-7290500D03*
X2121300Y-7450100D03*
X2193200Y-7259800D03*
X2196100Y-7324500D03*
X2244600Y-7382800D03*
X2320100Y-7383200D03*
X2214500Y-7461300D03*
X2090900Y-7375700D03*
X2077500Y-7086100D03*
X2282000Y-7087500D03*
X2127500Y-7137900D03*
X2245000Y-7201000D03*
X2317200Y-7202200D03*
X2091400Y-7211200D03*
X2207400Y-7129700D03*
X2097000Y-3862600D03*
X2055000Y-3810600D03*
X2052000Y-3727100D03*
X2283200Y-3469600D03*
X2230800Y-3451800D03*
X2335700Y-3487700D03*
X2284200Y-3334500D03*
X2231800Y-3316800D03*
X2336000Y-3351700D03*
X2080100Y-2735900D03*
X2196700Y-2594500D03*
X2219700Y-2480000D03*
Y-2283200D03*
X2080100Y-2296500D03*
X2077500Y-1722400D03*
X2212500Y-1709600D03*
X2286900Y-1370500D03*
X2212500Y-1465600D03*
X2100900Y-1416700D03*
X2077900Y-1529200D03*
X2213800Y-1288500D03*
X2303200Y-515300D03*
X2225400D03*
X2303100Y-445400D03*
X2263700Y-479900D03*
X2225500Y-445300D03*
X2068100Y-464400D03*
X2088200Y-519400D03*
X2082400Y-625100D03*
X2303000Y-375400D03*
X2263200Y-412100D03*
X2263300Y-342300D03*
X2263000Y-273300D03*
X2263300Y-203600D03*
X2303200Y-306200D03*
X2303100Y-236400D03*
X2303600Y-169400D03*
X2225400Y-375600D03*
X2225600Y-306300D03*
X2226300Y-236200D03*
X2225600Y-171100D03*
X2072100Y-304900D03*
X2088100Y-409400D03*
X2491300Y-7501600D03*
X2472800Y-7291100D03*
X2441300Y-7450600D03*
X2367700Y-7259800D03*
X2369000Y-7327500D03*
X2352300Y-7464600D03*
X2473800Y-7375700D03*
X2473000Y-7214500D03*
X2484500Y-7088900D03*
X2440100Y-7132600D03*
X2348600Y-7132200D03*
X2650600Y-6793900D03*
X2486300Y-5039100D03*
X2506800Y-4187600D03*
X2624500Y-4208600D03*
Y-4140200D03*
X2591300Y-3531000D03*
X2428800Y-3326600D03*
X2559200Y-3324200D03*
X2495400Y-3280600D03*
X2441100Y-3236700D03*
X2554500Y-3238300D03*
X2498500Y-3158000D03*
X2427200Y-2988700D03*
X2565400Y-2989500D03*
X2494900Y-3040700D03*
X2434800Y-3085700D03*
X2559200Y-3085100D03*
X2588800Y-2118900D03*
X2605200Y-2067200D03*
X2605000Y-2170800D03*
X2588800Y-1882500D03*
X2608900Y-1827400D03*
X2608800Y-1937500D03*
X2506000Y-738900D03*
X2505300Y-809000D03*
X2505100Y-878300D03*
X2505200Y-948000D03*
X2505100Y-1018000D03*
X2582800Y-739100D03*
X2582900Y-808900D03*
X2542700Y-776000D03*
X2543000Y-845000D03*
X2542900Y-914800D03*
X2543400Y-982600D03*
X2582700Y-878100D03*
X2582800Y-948100D03*
X2582900Y-1018000D03*
X2505300Y-673800D03*
X2583300Y-672100D03*
X2543000Y-706300D03*
X2455100Y-513600D03*
X2377300D03*
X2455000Y-443700D03*
X2415600Y-478200D03*
X2377400Y-443600D03*
X2454900Y-373700D03*
X2415100Y-410400D03*
X2415200Y-340600D03*
X2414900Y-271600D03*
X2415200Y-201900D03*
X2455100Y-304500D03*
X2455000Y-234700D03*
X2455500Y-167700D03*
X2377300Y-373900D03*
X2377500Y-304600D03*
X2378200Y-234500D03*
X2377500Y-169400D03*
X2824800Y-7446900D03*
X2780300Y-6979200D03*
X2905900Y-7069900D03*
X2839600Y-4187600D03*
X2673400Y-4175300D03*
X2721800Y-4208900D03*
X2721200Y-4139500D03*
X2721100Y-3531500D03*
X2702700Y-3584500D03*
X2743100Y-3221800D03*
X2743600Y-3289600D03*
X2705400Y-3255000D03*
X2783000Y-3255100D03*
X2705300Y-3325000D03*
X2783100D03*
X2739000Y-3478700D03*
X2705500Y-2980800D03*
X2783500Y-2979100D03*
X2706200Y-3045900D03*
X2783000Y-3046100D03*
X2705500Y-3116000D03*
X2783100Y-3115900D03*
X2743200Y-3013300D03*
X2742900Y-3083000D03*
X2743200Y-3152000D03*
X2705300Y-3185300D03*
X2782900Y-3185100D03*
X2734900Y-2119900D03*
X2661700Y-2085100D03*
X2661900Y-2152300D03*
X2719500Y-2069200D03*
Y-2169400D03*
X2734900Y-1883500D03*
X2661900Y-1857400D03*
X2662000Y-1915600D03*
X2714800Y-1828500D03*
X2714900Y-1938600D03*
X2804000Y-848800D03*
X2729100Y-1022900D03*
X2871700Y-1023100D03*
X2801400Y-976900D03*
X2738600Y-924000D03*
X2864900Y-925000D03*
X2742100Y-784500D03*
X2855500Y-785500D03*
X2729400Y-676900D03*
X2875400Y-675600D03*
X2799300Y-724000D03*
X2944500Y-304900D03*
X2777100Y-233700D03*
X2739500Y-172700D03*
X2820100Y-171900D03*
X2739900Y-313000D03*
X2821700Y-310900D03*
X3137500Y-7158200D03*
X3001700Y-6747400D03*
X3023600Y-6859600D03*
X3124500Y-3863500D03*
X3040200Y-3863000D03*
X3040600Y-3769100D03*
X3002700Y-3727400D03*
X3079500Y-3727600D03*
X3082500Y-3811100D03*
X3004900Y-3811200D03*
X3261300Y-3531500D03*
X3243900Y-3583000D03*
X3250500Y-3316500D03*
X3100300Y-2736700D03*
X3009400Y-2649200D03*
X3219000Y-2594500D03*
X3242000Y-2480000D03*
X3099300Y-2553700D03*
X3242000Y-2283200D03*
X3099300Y-2296500D03*
X3103700Y-1722400D03*
X3234900Y-1709600D03*
Y-1465600D03*
X3103700Y-1529200D03*
X3126700Y-1416700D03*
X3233100Y-1289700D03*
X3056500Y-645100D03*
X3002900Y-663500D03*
X3110800Y-625500D03*
X3073300Y-464400D03*
X3093300Y-519300D03*
X3093400Y-409400D03*
X3078700Y-304900D03*
X3440000Y-6910000D03*
X3433000Y-6680000D03*
X3329000D03*
X3440000Y-6790000D03*
X3437100Y-4175300D03*
X3282600Y-4187600D03*
X3387400Y-4140200D03*
X3484700Y-4139900D03*
X3389200Y-4207300D03*
X3483500Y-4207000D03*
X3303000Y-3334200D03*
X3459800Y-3324200D03*
X3523300Y-3278700D03*
X3472900Y-3222300D03*
X3278900Y-3479300D03*
X3354400Y-3351900D03*
X3529300Y-3158000D03*
X3466200Y-2993100D03*
X3526300Y-3044600D03*
X3465400Y-3092400D03*
X3318500Y-1369900D03*
X3567100Y-984300D03*
X3566600Y-916500D03*
X3566700Y-846700D03*
X3566400Y-777700D03*
X3528800Y-1019700D03*
X3528900Y-949700D03*
X3528800Y-880000D03*
X3529000Y-810700D03*
X3529700Y-740600D03*
X3478000Y-304900D03*
X3312600Y-238600D03*
X3271700Y-176000D03*
X3353900Y-174700D03*
X3274600Y-309600D03*
X3358900Y-310000D03*
X3708300Y-7558500D03*
X3764500Y-7528000D03*
X3685800Y-7616100D03*
X3578100Y-7602300D03*
X3709000Y-7496100D03*
X3709600Y-7432400D03*
X3764700Y-7466600D03*
X3832800Y-7424000D03*
X3824800Y-7497500D03*
X3604100Y-4904800D03*
Y-4784800D03*
X3760200Y-3844000D03*
X3737600Y-3763600D03*
X3731400Y-3678000D03*
X3745100Y-3589500D03*
X3775200Y-3228200D03*
X3775700Y-3296000D03*
X3737500Y-3261400D03*
X3815100Y-3261500D03*
X3737400Y-3331400D03*
X3815200D03*
X3786900Y-3505200D03*
X3863900Y-3458600D03*
X3589700Y-3322600D03*
X3585000Y-3226400D03*
X3737600Y-2987200D03*
X3815600Y-2985500D03*
X3738300Y-3052300D03*
X3815100Y-3052500D03*
X3737600Y-3122400D03*
X3815200Y-3122300D03*
X3775300Y-3019700D03*
X3775000Y-3089400D03*
X3775300Y-3158400D03*
X3737400Y-3191700D03*
X3815000Y-3191500D03*
X3588300Y-2996500D03*
X3585600Y-3095800D03*
X3611200Y-2118900D03*
X3759600Y-2119900D03*
X3685400Y-2091500D03*
X3685500Y-2149700D03*
X3628800Y-2066100D03*
X3629300Y-2172000D03*
X3741500Y-2066600D03*
X3741800Y-2172500D03*
X3611200Y-1882500D03*
X3759600Y-1883500D03*
X3685400Y-1854900D03*
Y-1911700D03*
X3628900Y-1829200D03*
X3629200Y-1935100D03*
X3741400Y-1830100D03*
X3741500Y-1936700D03*
X3606600Y-1019700D03*
X3606500Y-949800D03*
X3606400Y-879800D03*
X3606600Y-810600D03*
X3606500Y-740800D03*
X3828700Y-848800D03*
X3757000Y-1022200D03*
X3764400Y-783100D03*
X3763600Y-926900D03*
X3884900Y-926400D03*
X3823900Y-974500D03*
X3762100Y-459200D03*
X3838900Y-506000D03*
X3611600Y-464400D03*
X3755700Y-675800D03*
X3826400Y-732800D03*
X3631600Y-519300D03*
X3757100Y-146500D03*
X3733300Y-216200D03*
X3733400Y-298600D03*
X3733700Y-384500D03*
X3615100Y-304900D03*
X3591700Y-409200D03*
X3916900Y-6863000D03*
X4124300Y-6371100D03*
Y-6161100D03*
X4125900Y-5782500D03*
X4124100Y-5507400D03*
X4124600Y-5297000D03*
X4126000Y-5096900D03*
X4124600Y-4877700D03*
X4124500Y-4710500D03*
X3958300Y-3438600D03*
X4057600Y-3437700D03*
X4141200Y-3470900D03*
X4136100Y-2736500D03*
X4044000Y-2649200D03*
X4134500Y-2553700D03*
Y-2296500D03*
X4129200Y-1722400D03*
X4152200Y-1416700D03*
X4129200Y-1529200D03*
X3901400Y-1021700D03*
X3890400Y-785100D03*
X4143700Y-518900D03*
X4082500Y-645100D03*
X3902800Y-673300D03*
X4137700Y-625100D03*
X4027400Y-665100D03*
X4476100Y-7357300D03*
X4493500Y-6060300D03*
X4474500Y-5370430D03*
X4474100Y-5507400D03*
X4475400Y-5093700D03*
X4472800Y-4880100D03*
X4477940Y-3307030D03*
X4477500Y-2204300D03*
X4476600Y-1891200D03*
X4439300Y-1838600D03*
X4440000Y-1942700D03*
X4474600Y-1650000D03*
X4763900Y-6919100D03*
X4522800Y-7117000D03*
X4620500D03*
X4668900Y-6919100D03*
X4738200Y-6789000D03*
X4668900Y-6659100D03*
X4763900Y-6379100D03*
X4668900D03*
X4620300Y-6060500D03*
Y-5854300D03*
X4786900Y-5964300D03*
X4732700Y-5390400D03*
X4524800Y-3282900D03*
X4619400Y-3186900D03*
X4771000Y-2904000D03*
X4619400Y-2977200D03*
X4636500Y-2645300D03*
X4619400Y-2767200D03*
X4637500Y-2387400D03*
X4636500Y-2515800D03*
X4637500Y-2258800D03*
X4721200Y-1907600D03*
X4669300Y-1880500D03*
X4669200Y-1934900D03*
X4772300Y-1881400D03*
X4770500Y-1931400D03*
X4772600Y-1721800D03*
X4772500Y-1842300D03*
X4513700Y-1839300D03*
X4512500Y-1942100D03*
X4772800Y-1422500D03*
X4773800Y-1599900D03*
X4772800Y-1297400D03*
X4721200Y-838600D03*
X4671300Y-814600D03*
X4769300Y-815000D03*
X4671700Y-861800D03*
X4769400Y-862300D03*
X4766800Y-910900D03*
Y-1032200D03*
X4916000Y-7393200D03*
X4812900Y-7214700D03*
X4911600Y-7214900D03*
X4858900Y-6919100D03*
X5019500Y-6634900D03*
X4858900Y-6659100D03*
X5006200Y-6445500D03*
X5108500Y-6014800D03*
X4975600Y-5965500D03*
X5033300Y-5604000D03*
Y-5508400D03*
X5049500Y-4372400D03*
X5089900Y-3310800D03*
X4984700Y-2759600D03*
X5018200Y-2117600D03*
X4997200Y-1621600D03*
Y-1121600D03*
X4846800Y-1032200D03*
Y-910900D03*
X4929800Y-180200D03*
X4951800Y-289300D03*
X4952800Y-393000D03*
X5017700Y-177000D03*
X5048800Y-393000D03*
X5047800Y-289300D03*
X5069800Y-240300D03*
X5226900Y-7623400D03*
Y-7783400D03*
X5130100Y-7392200D03*
X5378000Y-6463000D03*
X5152100Y-4372400D03*
X5329900Y-4174400D03*
X5139300Y-4175600D03*
X5224100Y-3823500D03*
X5426500Y-3823700D03*
X5207400Y-3203500D03*
X5231900Y-2957400D03*
X5352800Y-2935300D03*
X5302000Y-3203500D03*
X5152300Y-2809400D03*
X5176600Y-2639100D03*
X5376600D03*
X5351600Y-2834400D03*
X5228900Y-2714800D03*
X5349400Y-2735600D03*
X5269200Y-2836100D03*
X5178200Y-2117600D03*
X5405100Y-1667200D03*
X5189400Y-1095000D03*
X5402200Y-1354200D03*
X5281900Y-1342200D03*
X5346500Y-917900D03*
X5189400Y-894600D03*
X5339800Y-797200D03*
Y-657200D03*
X5203300Y-666200D03*
X5255200Y-518600D03*
X5227500Y-177100D03*
X5149300Y-177000D03*
X5255200Y-423600D03*
X5367500Y-177100D03*
X5255200Y-328600D03*
X5502000Y-6652000D03*
X5573000Y-6463000D03*
X5683100Y-5798600D03*
X5574200Y-4190900D03*
X5644800Y-3825700D03*
X5428100Y-3619700D03*
X5527300Y-3618700D03*
X5623100D03*
X5527300Y-3401700D03*
X5552900Y-3009400D03*
X5469800Y-2958300D03*
X5465500Y-2716500D03*
X5430000Y-2834800D03*
X5515900Y-1973400D03*
X5611900D03*
X5702100Y-2023900D03*
X5521900Y-2216100D03*
X5515900Y-1777100D03*
X5611900Y-1666500D03*
X5599200Y-1450200D03*
X5515900Y-1570500D03*
X5440500Y-1207900D03*
X5500800Y-1354200D03*
X5556900Y-775200D03*
X5457700Y-678200D03*
X5562800Y-177100D03*
X5545200Y-329600D03*
X5466800Y-177100D03*
X5905000Y-6972000D03*
X6020000Y-6690000D03*
X5768000Y-6463000D03*
X6020000Y-6560000D03*
Y-6430000D03*
X6019400Y-5147300D03*
X6014800Y-4372400D03*
X5864700Y-4187700D03*
X5924100Y-3619700D03*
X6024900Y-3629900D03*
Y-3539900D03*
X5751100Y-2958700D03*
X6010100Y-3065900D03*
X5978500Y-3021600D03*
X6040700Y-3020300D03*
X5978500Y-3112600D03*
X6042400Y-3113400D03*
X5752100Y-2638400D03*
X5751100Y-2833400D03*
X5852300Y-2023200D03*
X5767100Y-2021500D03*
X6261400Y-7623400D03*
Y-7783400D03*
X6297300Y-7504300D03*
X6199000Y-7215000D03*
X6109000Y-6690000D03*
X6229000Y-6300000D03*
X6110000Y-6560000D03*
Y-6430000D03*
X6250000Y-6560000D03*
X6349600Y-5690300D03*
X6228800Y-5225400D03*
X6187100Y-4474700D03*
X6149900Y-4372400D03*
X6228000Y-3627400D03*
X6138000D03*
X6136000Y-3527800D03*
Y-3332000D03*
Y-3236700D03*
Y-3428700D03*
X6133100Y-2646800D03*
X6185300Y-546800D03*
X6643000Y-7058000D03*
X6510000Y-6950000D03*
X6360500Y-6546000D03*
X6608500Y-5855000D03*
X6630500Y-5738600D03*
X6353500Y-5440300D03*
X6387100Y-4474700D03*
X6587100D03*
X6595100Y-3622000D03*
X6480100Y-3717200D03*
X6614700Y-2957000D03*
X6518100Y-2956000D03*
X6601900Y-2738000D03*
X6378600D03*
X6650000Y-300000D03*
X6838000Y-7058000D03*
X6700000Y-6950000D03*
X6773000Y-6463000D03*
X6680000Y-6144400D03*
X6968000Y-6085000D03*
X6750600Y-5408200D03*
Y-5312200D03*
X6811000Y-4776900D03*
X6821000Y-4646300D03*
X6883200Y-3826500D03*
X6690900Y-3622000D03*
X6939200Y-3516500D03*
X6928200Y-3617300D03*
X6899800Y-3680500D03*
X6692100Y-3717200D03*
X6928200Y-3224500D03*
X6939200Y-3327100D03*
X6913400Y-2894900D03*
X6912600Y-2685700D03*
X6816000D03*
X6825000Y-2738000D03*
X7136500Y-7623400D03*
Y-7783400D03*
X7100500Y-7320700D03*
X7173200Y-7504300D03*
X7120000Y-6950000D03*
X7220000Y-6690000D03*
Y-6560000D03*
Y-6430000D03*
X7115000Y-6064000D03*
X7275700Y-5908700D03*
X6990000Y-5970000D03*
X7181000Y-4471000D03*
X7035200Y-3516500D03*
X7109500Y-3680500D03*
X7035200Y-3327100D03*
X7035100Y-3123100D03*
X7154900Y-2844400D03*
X7251500D03*
X7196900Y-2685700D03*
X7103900D03*
X7008700D03*
X7049000Y-2738000D03*
X7310000Y-6950000D03*
X7309000Y-6690000D03*
X7310000Y-6560000D03*
Y-6430000D03*
X7565000Y-6544600D03*
X7450000Y-6560000D03*
X7405000Y-6065000D03*
X7530000Y-5980000D03*
X7556000Y-6194000D03*
X7530000Y-5850000D03*
X7405000Y-5875000D03*
X7375000Y-5583000D03*
Y-4633000D03*
X7381000Y-4471000D03*
X7581000D03*
X7481000D03*
X7281000D03*
X7433100Y-3622000D03*
X7318500D03*
X7319500Y-3717200D03*
X7530100D03*
X7529100Y-3622000D03*
X7386200Y-3330600D03*
X7312900Y-3256100D03*
X7463300Y-3257400D03*
X7462000Y-3408900D03*
X7387400Y-3256200D03*
X7390900Y-3407100D03*
X7462400Y-3332200D03*
X7442400Y-2940400D03*
X7346200Y-2843400D03*
X7429400Y-397000D03*
X7525600Y-188500D03*
Y-397000D03*
X7331300D03*
X7675000Y-5583000D03*
X7881000Y-4471000D03*
X7681000D03*
X7675000Y-4633000D03*
X7781000Y-4471000D03*
X7737100Y-3516800D03*
X7726100Y-3620400D03*
X7738400Y-3717200D03*
X7726100Y-3224500D03*
X7833100Y-3028800D03*
Y-3123100D03*
X7863200Y-2902000D03*
X7835400Y-2882900D03*
X7863200Y-2685700D03*
X7740100Y-2883700D03*
X7835400Y-2786900D03*
X7740100Y-2787700D03*
X7730100Y-493000D03*
X7832900D03*
X7626200Y-397000D03*
X7832900D03*
Y-188500D03*
X7730100Y-397000D03*
X7626200Y-188500D03*
X7730100D03*
X8188000Y-6420000D03*
X7975000Y-5583000D03*
Y-4633000D03*
X7989000Y-4195000D03*
X7949900Y-3717200D03*
X7960800Y-2902000D03*
X8057600Y-2684700D03*
X7960800D03*
X7933400Y-493000D03*
Y-188500D03*
Y-397000D03*
X8333000Y-7235000D03*
X8201650Y-6628350D03*
X8230000Y-6130000D03*
X8450000Y-6270000D03*
X8429000Y-6005000D03*
X8455500Y-5692300D03*
X8405000Y-5667000D03*
X8455100Y-5641000D03*
X8275000Y-5583000D03*
X8405000Y-4952000D03*
X8352700Y-4924300D03*
X8457300Y-4924500D03*
X8353900Y-4978000D03*
X8457300Y-4978500D03*
X8337700Y-4600400D03*
X8345000Y-2901000D03*
X8249800Y-2902000D03*
Y-2684700D03*
X8440300Y-2685700D03*
X8345000D03*
G54D13*
X145100Y-1518600D03*
X182100D03*
X304800Y-1458400D03*
X266700Y-1456800D03*
X224700Y-1459000D03*
X770700Y-5827300D03*
X960700D03*
X995200Y-2523200D03*
X995400Y-2562200D03*
X951200Y-2561100D03*
X907100Y-2561600D03*
X1028400Y-2486900D03*
X1066300Y-2486800D03*
X1232000Y-6388700D03*
Y-4488700D03*
X1327000Y-1457500D03*
X1285900Y-1455900D03*
X1242300Y-1460400D03*
X1202500Y-1516200D03*
X1166600Y-1517000D03*
X1582200Y-6336100D03*
X1532000Y-6488700D03*
X1632000Y-6388700D03*
X1532000Y-6188700D03*
Y-6088700D03*
X1582200Y-6240100D03*
X1532000Y-5688700D03*
X1632000Y-5788700D03*
X1532000Y-5488700D03*
Y-5388700D03*
Y-5188700D03*
Y-4788700D03*
Y-4988700D03*
X1632000Y-4888700D03*
Y-4688700D03*
X2006000Y-7640300D03*
X1931000Y-7415300D03*
Y-7265300D03*
X2006000Y-6940300D03*
X1931000Y-7015300D03*
Y-7115300D03*
Y-7165300D03*
Y-7215300D03*
X1832000Y-6488700D03*
X1732000Y-6188700D03*
X1932000D03*
X1832000Y-5988700D03*
X1732000D03*
X1932000Y-5688700D03*
X1832000Y-5388700D03*
X1732000Y-4788700D03*
X1832000Y-4688700D03*
X1926500Y-2562900D03*
X1970900Y-2563200D03*
X2017600Y-2523800D03*
X2016600Y-2563100D03*
X2106000Y-7640300D03*
X2156000D03*
X2332000Y-6388700D03*
Y-6488700D03*
X2232000D03*
Y-6388700D03*
X2132000Y-6188700D03*
Y-6088700D03*
Y-5988700D03*
X2232000Y-6188700D03*
Y-6088700D03*
X2332000Y-5688700D03*
X2232000D03*
X2132000D03*
X2032000Y-5488700D03*
Y-5588700D03*
Y-5388700D03*
Y-5288700D03*
Y-5188700D03*
X2132000D03*
Y-5088700D03*
X2232000Y-5188700D03*
X2332000D03*
Y-5088700D03*
Y-4788700D03*
X2232000Y-4988700D03*
X2032000D03*
X2283200Y-4838400D03*
X2080300Y-4938400D03*
X2032000Y-4588700D03*
X2232000Y-4688700D03*
X2082100Y-4641000D03*
X2182100Y-4440400D03*
X2047000Y-2486300D03*
X2084800Y-2486800D03*
X2080100Y-2553700D03*
X2230800Y-1521500D03*
X2193000Y-1522200D03*
X2314800Y-1456600D03*
X2274000Y-1461400D03*
X2631000Y-7565300D03*
X2556000Y-7640300D03*
X2631000Y-7515300D03*
Y-7015300D03*
X2556000Y-6940300D03*
X2506000D03*
X2456000D03*
X2406000D03*
X2432000Y-6388700D03*
Y-6488700D03*
Y-6188700D03*
X2632000D03*
X2532000Y-5688700D03*
X2432000D03*
X2632000Y-5788700D03*
X2532000Y-5388700D03*
Y-5488700D03*
X2632000Y-5388700D03*
X2532000Y-5588700D03*
X2632000D03*
X2432000Y-5188700D03*
X2532000D03*
Y-5288700D03*
X2390300Y-5039100D03*
X2487700Y-4685300D03*
X2354200Y-1457800D03*
X2932000Y-6488700D03*
X2832000Y-6388700D03*
Y-6488700D03*
X2932000Y-6188700D03*
Y-6088700D03*
X2832000Y-6188700D03*
X2732000Y-5988700D03*
X2832000D03*
Y-4788700D03*
X2932000Y-4888700D03*
X2673600Y-4364400D03*
X2950300Y-2562400D03*
X3010500Y-6618200D03*
X3132000Y-6288700D03*
X3032000Y-6188700D03*
Y-6088700D03*
X3232000Y-5988700D03*
X3032000Y-5688700D03*
Y-5388700D03*
Y-5488700D03*
X3132000Y-5188700D03*
X3032000Y-4788700D03*
Y-4988700D03*
X3111900Y-2487400D03*
X3073100Y-2487300D03*
X3036300Y-2564300D03*
X3038500Y-2523600D03*
X2994700Y-2561600D03*
X3254400Y-1521000D03*
X3217700Y-1518400D03*
X3544600Y-6684500D03*
Y-6634500D03*
X3332000Y-6388700D03*
Y-4488700D03*
X3374300Y-1456600D03*
X3333800Y-1456500D03*
X3294900Y-1461400D03*
X3642900Y-5890200D03*
X3691300Y-5470600D03*
Y-5085000D03*
X4142400Y-2486500D03*
X4107800Y-2486300D03*
X4072800Y-2565300D03*
X4073000Y-2527400D03*
X4030500Y-2559300D03*
X3986300Y-2564200D03*
X4558500Y-6258000D03*
X5100300Y-6130200D03*
X4878300Y-5940200D03*
X4968860Y-5839430D03*
X4859900Y-5690200D03*
Y-5640200D03*
Y-5590200D03*
Y-4990200D03*
Y-4940200D03*
X5050700Y-4659300D03*
X5094600Y-3009400D03*
Y-2709400D03*
X4997200Y-1821600D03*
Y-1721600D03*
Y-1421600D03*
Y-1321600D03*
X5000800Y-513300D03*
X5050800Y-661300D03*
X4950800Y-513300D03*
X5250300Y-6130200D03*
X5350300D03*
X5300300D03*
X5400300D03*
X5272400Y-5574600D03*
X5326600Y-2581400D03*
X5419800Y-2097800D03*
X5550300Y-6130200D03*
X5500300D03*
X5450300D03*
X5422400Y-5310900D03*
X5719700Y-3352300D03*
X5610600Y-2959400D03*
X5526600Y-3084400D03*
X5605000Y-2556600D03*
X5527900Y-2458000D03*
X5593400D03*
Y-2388000D03*
X5527900D03*
X5617900Y-2216100D03*
X5627800Y-2098200D03*
X5990400Y-6333400D03*
X5900300Y-6130200D03*
X5800300D03*
X6000300D03*
X5750300D03*
X5950300D03*
X5800700Y-4550000D03*
X5900700D03*
X5750700D03*
X5844400Y-3616100D03*
X5815700Y-3352300D03*
X6037100Y-2646800D03*
X5812000Y-2300000D03*
X5892000D03*
Y-2380000D03*
Y-2460000D03*
X5972000Y-2300000D03*
X5892000Y-1980000D03*
X5812000D03*
X5892000Y-2140000D03*
X5812000D03*
X5972000Y-2060000D03*
Y-2220000D03*
X5892000Y-1900000D03*
X5812000Y-1740000D03*
Y-1900000D03*
Y-1660000D03*
Y-1580000D03*
Y-1500000D03*
Y-1420000D03*
X5892000Y-1260000D03*
Y-1180000D03*
Y-1340000D03*
X6010000Y-860000D03*
X5850000D03*
X5930000Y-780000D03*
X6010000Y-300000D03*
X5850000D03*
X6010000Y-220000D03*
X5930000Y-380000D03*
X6010000D03*
X6063500Y-6354800D03*
X6150300Y-6130200D03*
X6250300D03*
X6050300D03*
X6100300D03*
X6212000Y-2300000D03*
X6132000Y-2460000D03*
X6212000Y-2380000D03*
X6292000Y-2300000D03*
Y-2460000D03*
X6132000Y-2140000D03*
X6212000D03*
X6292000D03*
X6052000D03*
Y-2060000D03*
X6132000D03*
X6292000Y-1980000D03*
Y-2220000D03*
Y-1820000D03*
Y-1740000D03*
X6052000D03*
Y-1660000D03*
X6292000Y-1580000D03*
X6212000D03*
X6052000Y-1420000D03*
X6132000D03*
X6052000Y-1580000D03*
X6132000D03*
X6292000Y-1420000D03*
X6132000Y-1260000D03*
X6052000Y-1180000D03*
X6212000D03*
X6052000Y-1260000D03*
X6212000D03*
Y-1340000D03*
X6250000Y-860000D03*
X6090000Y-780000D03*
X6330000Y-700000D03*
X6090000D03*
X6250000D03*
Y-300000D03*
Y-380000D03*
X6330000D03*
X6090000Y-220000D03*
X6170000D03*
X6440100Y-5690300D03*
Y-5140300D03*
Y-5190300D03*
Y-5240300D03*
Y-4840300D03*
Y-4940300D03*
Y-4790300D03*
Y-4740300D03*
X6615000Y-3127000D03*
X6389000Y-3205000D03*
X6465000Y-3127000D03*
X6589900Y-2632800D03*
X6366600D03*
X6612000Y-2380000D03*
Y-2460000D03*
X6452000Y-2300000D03*
X6532000Y-2380000D03*
Y-2460000D03*
X6372000Y-2380000D03*
X6452000D03*
Y-2460000D03*
Y-2140000D03*
X6372000D03*
X6452000Y-2220000D03*
X6612000Y-2140000D03*
X6532000Y-1980000D03*
X6612000D03*
X6532000Y-2140000D03*
Y-2220000D03*
X6452000Y-1980000D03*
X6372000D03*
Y-2220000D03*
X6612000Y-1900000D03*
Y-1820000D03*
X6372000D03*
Y-1900000D03*
X6452000D03*
Y-1820000D03*
X6532000Y-1900000D03*
Y-1820000D03*
X6372000Y-1740000D03*
X6532000D03*
X6452000D03*
X6612000D03*
X6372000Y-1420000D03*
X6452000D03*
X6532000Y-1580000D03*
X6452000D03*
X6612000D03*
X6372000D03*
X6532000Y-1500000D03*
X6612000Y-1420000D03*
X6372000Y-1340000D03*
X6452000Y-1260000D03*
Y-1340000D03*
X6612000Y-1180000D03*
X6452000D03*
X6650000Y-780000D03*
X6410000D03*
X6570000D03*
X6410000Y-860000D03*
X6650000D03*
X6490000D03*
X6570000Y-700000D03*
X6650000D03*
X6490000Y-380000D03*
X6570000Y-300000D03*
X6410000Y-220000D03*
Y-380000D03*
X6570000D03*
X6490000Y-300000D03*
Y-220000D03*
X6650000D03*
X6570000D03*
X6813000Y-2632800D03*
X6692000Y-2460000D03*
X6932000Y-2060000D03*
X6772000Y-2140000D03*
X6932000D03*
X6852000D03*
Y-1980000D03*
X6692000Y-2140000D03*
X6852000Y-2220000D03*
Y-2060000D03*
X6932000Y-2220000D03*
X6772000Y-2060000D03*
X6932000Y-1900000D03*
X6811800Y-1940100D03*
X6817500Y-1819400D03*
X6772000Y-1900000D03*
X6736600Y-1739400D03*
X6852000Y-1900000D03*
X6932000Y-1420000D03*
X6692000D03*
X6932000Y-1580000D03*
X6772000Y-1660000D03*
X6759900Y-1065000D03*
X6812100Y-1301500D03*
X6692000Y-1180000D03*
X6810000Y-860000D03*
X6730000Y-780000D03*
X6810000D03*
X6700600Y-994000D03*
X6890000Y-300000D03*
X6810000Y-220000D03*
X6730000Y-300000D03*
X6810000Y-380000D03*
X7265000Y-3534000D03*
X7189000Y-3205000D03*
X7265000Y-3127000D03*
X7037000Y-2632800D03*
X7012000Y-2380000D03*
X7092000Y-2060000D03*
Y-1980000D03*
X7012000D03*
Y-2140000D03*
Y-2220000D03*
Y-2060000D03*
X7092000Y-2220000D03*
Y-2140000D03*
X7012000Y-1820000D03*
X7092000D03*
Y-1900000D03*
X7012000D03*
X7139700Y-1500000D03*
X7012000Y-1580000D03*
X7092000D03*
X6970000Y-860000D03*
X7050000Y-780000D03*
X6970000Y-380000D03*
X7050000Y-300000D03*
X6970000Y-220000D03*
X7050000Y-380000D03*
X7415000Y-3127000D03*
X7580000Y-2605000D03*
X7480000Y-655000D03*
X7280000D03*
X7331300Y-493000D03*
X7580000Y-655000D03*
X7525600Y-493000D03*
X7530000Y-655000D03*
X7429400Y-493000D03*
X7593000Y-3455000D03*
X7680000Y-2605000D03*
X7880000D03*
X7830000D03*
X7626200Y-493000D03*
X7630000Y-655000D03*
X7880000D03*
X7626200Y-284500D03*
X7730100D03*
X8015100Y-3283400D03*
X8142100D03*
X8153600Y-2806000D03*
X7933400Y-284500D03*
X8430000Y-655000D03*
M02*
