G04 ================== begin FILE IDENTIFICATION RECORD ==================*
G04 Layout Name:  G:/github/PLL_FM_HW/PCB/FMDEMOD-57.brd*
G04 Film Name:    GND-L9*
G04 File Format:  Gerber RS274X*
G04 File Origin:  Cadence Allegro 17.4-S017*
G04 Origin Date:  Thu Oct 21 08:45:56 2021*
G04 *
G04 Layer:  VIA CLASS/GND-L9*
G04 Layer:  PIN/GND-L9*
G04 Layer:  ETCH/GND-L9*
G04 *
G04 Offset:    (0.0000 0.0000)*
G04 Mirror:    No*
G04 Mode:      Positive*
G04 Rotation:  0*
G04 FullContactRelief:  No*
G04 UndefLineWidth:     0.2540*
G04 ================== end FILE IDENTIFICATION RECORD ====================*
%FSLAX25Y25*MOMM*%
%IR0*IPPOS*OFA0.00000B0.00000*MIA0B0*SFA1.00000B1.00000*%
%ADD13C,.3*%
%ADD12C,.4*%
%ADD11C,1.7*%
%ADD10C,3.8*%
%ADD14C,.9004*%
%ADD17C,.7504*%
%ADD15C,.8504*%
%ADD21C,.5544*%
%ADD20C,.6544*%
%ADD16C,1.0004*%
%ADD19C,1.6004*%
%ADD18C,2.1504*%
G75*
%LPD*%
G75*
G36*
G01X438280Y-4115300D02*
X3861720D01*
G02X3868030Y-4133420I-2J-10160D01*
G03X3787480Y-4300000I131971J-166580D01*
G03X4000000Y-4512520I212520J0D01*
G03X4166860Y-4431610I0J212512D01*
G02X4185000Y-4437900I7979J-6291D01*
G01Y-7562100D01*
G02X4166860Y-7568390I-10161J1D01*
G03X4000000Y-7487480I-166860J-131602D01*
G03X3787480Y-7700000I0J-212520D01*
G03X3876130Y-7872680I212517J6D01*
G02X3870200Y-7891100I-5921J-8258D01*
G01X429800D01*
G02X423870Y-7872680I-9J10162D01*
G03X512520Y-7700000I-123867J172686D01*
G03X300000Y-7487480I-212520J0D01*
G03X124740Y-7579800I0J-212517D01*
G02X106200Y-7574050I-8380J5745D01*
G01Y-4425950D01*
G02X124740Y-4420200I10160J5D01*
G03X300000Y-4512520I175260J120197D01*
G03X512520Y-4300000I0J212520D01*
G03X431970Y-4133420I-212521J0D01*
G02X438280Y-4115300I6312J7960D01*
G37*
G36*
G01X424190Y-105010D02*
X3875810D01*
G02X3881470Y-123600I-6J-10158D01*
G03X3787480Y-300000I118538J-176400D01*
G03X4000000Y-512520I212520J0D01*
G03X4176410Y-418510I0J212522D01*
G02X4195000Y-424180I8431J-5669D01*
G01Y-3575820D01*
G02X4176410Y-3581490I-10159J-1D01*
G03X4000000Y-3487480I-176410J-118512D01*
G03X3787480Y-3700000I0J-212520D01*
G03X3881490Y-3876410I212522J0D01*
G02X3875820Y-3895000I-5669J-8431D01*
G01X424180D01*
G02X418510Y-3876410I-1J10159D01*
G03X512520Y-3700000I-118512J176410D01*
G03X300000Y-3487480I-212520J0D01*
G03X123600Y-3581470I0J-212528D01*
G02X105010Y-3575810I-8432J5666D01*
G01Y-424190D01*
G02X123600Y-418530I10158J-6D01*
G03X300000Y-512520I176400J118538D01*
G03X512520Y-300000I0J212520D01*
G03X418530Y-123600I-212528J0D01*
G02X424190Y-105010I5666J8432D01*
G37*
G36*
G01X4736500Y-4113900D02*
X8163500D01*
G02X8169730Y-4132090I5J-10160D01*
G03X8087480Y-4300000I130266J-167910D01*
G03X8300000Y-4512520I212520J0D01*
G03X8462190Y-4437330I0J212522D01*
G02X8480100Y-4443900I7751J-6568D01*
G01Y-7556100D01*
G02X8462190Y-7562670I-10159J-2D01*
G03X8300000Y-7487480I-162190J-137332D01*
G03X8087480Y-7700000I0J-212520D01*
G03X8156490Y-7856750I212527J0D01*
G02X8149630Y-7874400I-6862J-7491D01*
G01X4750370D01*
G02X4743510Y-7856750I2J10159D01*
G03X4812520Y-7700000I-143517J156750D01*
G03X4600000Y-7487480I-212520J0D01*
G03X4432660Y-7569000I0J-212513D01*
G02X4414500Y-7562730I-7999J6265D01*
G01Y-4437270D01*
G02X4432660Y-4431000I10161J5D01*
G03X4600000Y-4512520I167340J130993D01*
G03X4812520Y-4300000I0J212520D01*
G03X4730270Y-4132090I-212516J0D01*
G02X4736500Y-4113900I6225J8030D01*
G37*
G36*
G01X4435700Y-2211720D02*
X4652770D01*
X4762680Y-2321630D01*
Y-2425720D01*
X4854370D01*
G02X4864220Y-2438380I3J-10159D01*
G03X4862680Y-2450700I48480J-12316D01*
G03X4962720I50020J0D01*
G03X4961180Y-2438380I-50020J4D01*
G02X4971030Y-2425720I9847J2501D01*
G01X5013380D01*
G02X5022540Y-2440290I6J-10161D01*
G03X5017580Y-2462000I45059J-21716D01*
G03X5117620I50020J0D01*
G03X5067780Y-2411980I-50020J0D01*
G02X5062720Y-2406900I20J5080D01*
G01Y-2397100D01*
G02X5067780Y-2392020I5080J0D01*
G03X5117620Y-2342000I-180J50020D01*
G03X5099030Y-2303080I-50023J6D01*
G02X5105410Y-2285020I6382J7902D01*
G01X5394370D01*
X5458070Y-2348720D01*
X5493500D01*
Y-2402140D01*
G02X5478670Y-2411170I-10161J-5D01*
G03X5455700Y-2405580I-22977J-44428D01*
G03X5415200Y-2426240I0J-50026D01*
G02X5398880Y-2426410I-8223J5966D01*
G03X5359000Y-2406580I-39880J-30186D01*
G03Y-2506620I0J-50020D01*
G03X5399500Y-2485960I0J50026D01*
G02X5415820Y-2485790I8223J-5966D01*
G03X5455700Y-2505620I39880J30186D01*
G03X5505720Y-2455600I0J50020D01*
G03X5505480Y-2450660I-50022J46D01*
G02X5515590Y-2439500I10109J1002D01*
G01X5587680D01*
Y-2534960D01*
G03Y-2578240I17314J-21640D01*
G01Y-2872820D01*
X5716780D01*
Y-2933600D01*
G03Y-2983800I34315J-25100D01*
G01Y-3076100D01*
G03X5699980Y-3113500I33230J-37400D01*
G03X5736290Y-3161610I50027J0D01*
G01X5739980Y-3162660D01*
Y-3267030D01*
X5793800Y-3320850D01*
G02X5794420Y-3334540I-7185J-7184D01*
G03X5787980Y-3352300I21269J-17760D01*
G03X5815700Y-3380020I27720J0D01*
G03X5843410Y-3353090I0J27721D01*
G02X5853560Y-3343220I10155J-289D01*
G01X5862080D01*
Y-3791750D01*
G02X5845680Y-3799770I-10161J-1D01*
G03X5825600Y-3792880I-20085J-25828D01*
G03X5792880Y-3825600I0J-32720D01*
G03X5803940Y-3850130I32733J0D01*
G02X5797220Y-3867900I-6727J-7612D01*
G01X5568290D01*
G02X5561250Y-3850410I-4J10160D01*
G03X5571320Y-3826800I-22643J23610D01*
G03X5505880I-32720J0D01*
G03X5515950Y-3850410I32713J0D01*
G02X5508910Y-3867900I-7036J-7330D01*
G01X5358060D01*
G02X5351390Y-3850080I-1J10158D01*
G03X5362620Y-3825400I-21492J24675D01*
G03X5297180I-32720J0D01*
G03X5308410Y-3850080I32722J-5D01*
G02X5301740Y-3867900I-6669J-7662D01*
G01X5008880D01*
G02X5002160Y-3850130I7J10158D01*
G03X5013220Y-3825600I-21673J24530D01*
G03X4947780I-32720J0D01*
G03X4958840Y-3850130I32733J0D01*
G02X4952120Y-3867900I-6727J-7612D01*
G01X4742950D01*
G02X4736130Y-3850210I2J10160D01*
G03X4802720Y-3700000I-136123J150210D01*
G03X4600000Y-3497280I-202720J0D01*
G03X4453220Y-3560180I0J-202709D01*
G02X4435700Y-3553170I-7359J7006D01*
G01Y-2211720D01*
G37*
G36*
G01X6861110Y-132700D02*
X8142220D01*
G02X8149420Y-150030I3J-10159D01*
G03X8087480Y-300000I150585J-149970D01*
G03X8300000Y-512520I212520J0D01*
G03X8441950Y-458160I0J212517D01*
G02X8458900Y-465720I6790J-7558D01*
G01Y-2542770D01*
G02X8446940Y-2552770I-10159J-2D01*
G03X8440300Y-2552180I-6628J-36931D01*
G03Y-2627220I0J-37520D01*
G03X8446940Y-2626630I12J37521D01*
G02X8458900Y-2636630I1801J-9998D01*
G01Y-3534280D01*
G02X8441950Y-3541840I-10160J-2D01*
G03X8300000Y-3487480I-141950J-158157D01*
G03X8087480Y-3700000I0J-212520D01*
G03X8150280Y-3850830I212528J0D01*
G02X8143130Y-3868200I-7156J-7211D01*
G01X6925390D01*
G02X6917260Y-3851960I7J10158D01*
G03X6925720Y-3826500I-34062J25454D01*
G03X6840680I-42520J0D01*
G03X6849140Y-3851960I42522J-6D01*
G02X6841010Y-3868200I-8137J-6082D01*
G01X5962100D01*
Y-3638810D01*
X5962580Y-3637780D01*
G03X5966620Y-3619700I-38478J18089D01*
G03X5962580Y-3601620I-42518J-9D01*
G01X5962100Y-3600590D01*
Y-3259000D01*
X5946300Y-3243200D01*
X5857600D01*
X5840000Y-3225600D01*
Y-3054400D01*
X5816800Y-3031200D01*
Y-2795000D01*
X5794600Y-2772800D01*
X5687700D01*
Y-2289100D01*
X5647300Y-2248700D01*
X5499500D01*
X5435800Y-2185000D01*
X5033600D01*
X4962750Y-2255850D01*
Y-2278750D01*
X4962700Y-2278800D01*
Y-2325700D01*
X4862700D01*
Y-2280200D01*
X4694200Y-2111700D01*
X4433600D01*
Y-1692710D01*
G02X4449710Y-1684470I10161J3D01*
G03X4474600Y-1692520I24895J34468D01*
G03Y-1607480I0J42520D01*
G03X4449710Y-1615530I5J-42518D01*
G02X4433600Y-1607290I-5949J8237D01*
G01Y-458670D01*
G02X4450890Y-451430I10160J3D01*
G03X4600000Y-512520I149110J151431D01*
G03X4812520Y-300000I0J212520D01*
G03X4750580Y-150030I-212525J0D01*
G02X4757780Y-132700I7197J7171D01*
G01X6346990D01*
G02X6356450Y-146550I-4J-10158D01*
G03X6353380Y-162900I41952J-16340D01*
G03X6443420I45020J0D01*
G03X6440350Y-146550I-45022J10D01*
G02X6449810Y-132700I9464J3692D01*
G01X6476040D01*
G02X6485260Y-147130I-1J-10161D01*
G03X6481780Y-162900I34038J-15780D01*
G03X6519300Y-200420I37520J0D01*
G03X6544750Y-190470I0J37523D01*
G03X6570200Y-200420I25450J27573D01*
G03X6607720Y-162900I0J37520D01*
G03X6604240Y-147130I-37518J-10D01*
G02X6613460Y-132700I9221J4269D01*
G01X6758290D01*
G02X6767750Y-146550I-4J-10158D01*
G03X6764680Y-162900I41952J-16340D01*
G03X6854720I45020J0D01*
G03X6851650Y-146550I-45022J10D01*
G02X6861110Y-132700I9464J3692D01*
G37*
%LPC*%
G75*
G36*
G01X2181400Y-7765410D02*
G03X2164900I-8250J-5936D01*
G02X2124300Y-7786220I-40600J29200D01*
G02Y-7686180I0J50020D01*
G02X2164900Y-7706990I0J-50010D01*
G03X2181400I8250J5936D01*
G02X2222000Y-7686180I40600J-29200D01*
G02Y-7786220I0J-50020D01*
G02X2181400Y-7765410I0J50010D01*
G37*
G36*
G01X2695770Y-7534770D02*
G03Y-7518830I-6303J7970D01*
G02X2676780Y-7479600I31026J39230D01*
G02X2776820I50020J0D01*
G02X2757830Y-7518830I-50016J0D01*
G03Y-7534770I6303J-7970D01*
G02X2776820Y-7574000I-31026J-39230D01*
G02X2676780I-50020J0D01*
G02X2695770Y-7534770I50016J0D01*
G37*
G36*
G01X3516620Y-6709500D02*
G02Y-6659500I27987J25000D01*
G02X3507080Y-6634500I27987J25000D01*
G02X3582120I37520J0D01*
G02X3572580Y-6659500I-37527J0D01*
G02Y-6709500I-27987J-25000D01*
G02Y-6759500I-27987J-25000D01*
G02Y-6809500I-27987J-25000D01*
G02X3582120Y-6834500I-27987J-25000D01*
G02X3577060Y-6853310I-37518J7D01*
G02X3589620Y-6884500I-32447J-31190D01*
G02X3499580I-45020J0D01*
G02X3512140Y-6853310I45007J0D01*
G02X3507080Y-6834500I32458J18817D01*
G02X3516620Y-6809500I37527J0D01*
G02Y-6759500I27987J25000D01*
G02Y-6709500I27987J25000D01*
G37*
G36*
G01Y-6309500D02*
G02Y-6259500I27987J25000D01*
G02X3507080Y-6234500I27987J25000D01*
G02X3582120I37520J0D01*
G02X3572580Y-6259500I-37527J0D01*
G02Y-6309500I-27987J-25000D01*
G02Y-6359500I-27987J-25000D01*
G02X3582120Y-6384500I-27987J-25000D01*
G02X3507080I-37520J0D01*
G02X3516620Y-6359500I37527J0D01*
G02Y-6309500I27987J25000D01*
G37*
G36*
G01X919610Y-5133540D02*
G03X904330Y-5134850I-7071J-7296D01*
G02X863900Y-5155420I-40430J29447D01*
G02Y-5055380I0J50020D01*
G02X898690Y-5069460I0J-50021D01*
G03X913970Y-5068150I7071J7296D01*
G02X954400Y-5047580I40430J-29447D01*
G02Y-5147620I0J-50020D01*
G02X919610Y-5133540I0J50021D01*
G37*
G36*
G01X3404920Y-4507980D02*
G03X3405000Y-4492560I-6580J7744D01*
G02X3387780Y-4454800I32790J37760D01*
G02X3487820I50020J0D01*
G02X3470180Y-4492920I-50009J0D01*
G03X3470100Y-4508340I6580J-7744D01*
G02X3487320Y-4546100I-32790J-37760D01*
G02X3387280I-50020J0D01*
G02X3404920Y-4507980I50009J0D01*
G37*
G36*
G01X1044900Y-4418440D02*
G03X1056430Y-4407940I1380J10066D01*
G02X1056380Y-4405800I49968J2238D01*
G02X1156420I50020J0D01*
G02X1156400Y-4407170I-50019J45D01*
G03X1167760Y-4417530I10155J-273D01*
G02X1173700Y-4417180I5907J-49672D01*
G02Y-4517220I0J-50020D01*
G02X1168770Y-4516980I-36J50022D01*
G03X1157620Y-4527220I-994J-10108D01*
G01Y-4527900D01*
G02X1057580I-50020J0D01*
G01Y-4527530D01*
G03X1045850Y-4517420I-10158J75D01*
G02X1038100Y-4518020I-7724J49422D01*
G02Y-4417980I0J50020D01*
G02X1044900Y-4418440I32J-50022D01*
G37*
G36*
G01X1450680Y-4303960D02*
G03X1434620I-8030J-6226D01*
G02X1395100Y-4323320I-39520J30657D01*
G02Y-4223280I0J50020D01*
G02X1434620Y-4242640I0J-50017D01*
G03X1450680I8030J6226D01*
G02X1490200Y-4223280I39520J-30657D01*
G02Y-4323320I0J-50020D01*
G02X1450680Y-4303960I0J50017D01*
G37*
G36*
G01X1892540Y-4302570D02*
G03X1876060I-8240J-5946D01*
G02X1835500Y-4323320I-40560J29266D01*
G02Y-4223280I0J50020D01*
G02X1876060Y-4244030I0J-50016D01*
G03X1892540I8240J5946D01*
G02X1933100Y-4223280I40560J-29266D01*
G02Y-4323320I0J-50020D01*
G02X1892540Y-4302570I0J50016D01*
G37*
G36*
G01X2468000Y-4302510D02*
G03X2451500I-8250J-5936D01*
G02X2410900Y-4323320I-40600J29200D01*
G02Y-4223280I0J50020D01*
G02X2451500Y-4244090I0J-50010D01*
G03X2468000I8250J5936D01*
G02X2508600Y-4223280I40600J-29200D01*
G02Y-4323320I0J-50020D01*
G02X2468000Y-4302510I0J50010D01*
G37*
G36*
G01X2895000D02*
G03X2878500I-8250J-5936D01*
G02X2837900Y-4323320I-40600J29200D01*
G02Y-4223280I0J50020D01*
G02X2878500Y-4244090I0J-50010D01*
G03X2895000I8250J5936D01*
G02X2935600Y-4223280I40600J-29200D01*
G02Y-4323320I0J-50020D01*
G02X2895000Y-4302510I0J50010D01*
G37*
G36*
G01X3234660Y-4303420D02*
G03X3218440I-8110J-6112D01*
G02X3178500Y-4323320I-39940J30130D01*
G02Y-4223280I0J50020D01*
G02X3218440Y-4243180I0J-50030D01*
G03X3234660I8110J6112D01*
G02X3274600Y-4223280I39940J-30130D01*
G02Y-4323320I0J-50020D01*
G02X3234660Y-4303420I0J50030D01*
G37*
G36*
G01X561310Y-7044060D02*
G02X535880Y-7000500I24593J43560D01*
G02X635920I50020J0D01*
G02X610490Y-7044060I-50023J0D01*
G03X609770Y-7061320I4988J-8853D01*
G02X628420Y-7096500I-23867J-35186D01*
G02X543380I-42520J0D01*
G02X562030Y-7061320I42517J-6D01*
G03X561310Y-7044060I-5708J8407D01*
G37*
G36*
G01X688810D02*
G02X663380Y-7000500I24593J43560D01*
G02X763420I50020J0D01*
G02X737990Y-7044060I-50023J0D01*
G03X737270Y-7061320I4988J-8853D01*
G02X755920Y-7096500I-23867J-35186D01*
G02X670880I-42520J0D01*
G02X689530Y-7061320I42517J-6D01*
G03X688810Y-7044060I-5708J8407D01*
G37*
G36*
G01X2022910Y-6258320D02*
G02X1982200Y-6284120I-40710J19218D01*
G02Y-6194080I0J45020D01*
G02X2022910Y-6219880I0J-45018D01*
G03X2041290I9190J4334D01*
G02X2082000Y-6194080I40710J-19218D01*
G02Y-6284120I0J-45020D01*
G02X2041290Y-6258320I0J45018D01*
G03X2022910I-9190J-4334D01*
G37*
G36*
G01X1461260Y-6179820D02*
G02X1434780Y-6138800I18532J41020D01*
G02X1524820I45020J0D01*
G02X1499160Y-6179450I-45028J0D01*
G03X1499340Y-6197880I4367J-9173D01*
G02X1525820Y-6238900I-18532J-41020D01*
G02X1435780I-45020J0D01*
G02X1461440Y-6198250I45028J0D01*
G03X1461260Y-6179820I-4367J9173D01*
G37*
G36*
G01X2241430Y-5721100D02*
G02X2282100Y-5695380I40670J-19295D01*
G02X2322810Y-5721180I0J-45018D01*
G03X2341190I9190J4334D01*
G02X2381900Y-5695380I40710J-19218D01*
G02Y-5785420I0J-45020D01*
G02X2341190Y-5759620I0J45018D01*
G03X2322810I-9190J-4334D01*
G02X2282100Y-5785420I-40710J19218D01*
G02X2241430Y-5759700I0J45015D01*
G03X2223070I-9180J-4360D01*
G02X2182400Y-5785420I-40670J19295D01*
G02X2141570Y-5759360I0J45016D01*
G03X2123130I-9220J-4273D01*
G02X2082300Y-5785420I-40830J18956D01*
G02Y-5695380I0J45020D01*
G02X2123130Y-5721440I0J-45016D01*
G03X2141570I9220J4273D01*
G02X2182400Y-5695380I40830J-18956D01*
G02X2223070Y-5721100I0J-45015D01*
G03X2241430I9180J4360D01*
G37*
G36*
G01X1457100Y-5577200D02*
G02X1435580Y-5538800I23500J38400D01*
G02X1525620I45020J0D01*
G02X1504100Y-5577200I-45020J0D01*
G03X1504540Y-5594780I5308J-8663D01*
G02X1530620Y-5638700I-23942J-43920D01*
G02X1504330Y-5682730I-50015J0D01*
G03X1503890Y-5700370I4816J-8946D01*
G02X1525620Y-5738900I-23294J-38530D01*
G02X1435580I-45020J0D01*
G02X1457310Y-5700370I45024J0D01*
G03X1456870Y-5682730I-5256J8694D01*
G02X1430580Y-5638700I23725J44030D01*
G02X1456660Y-5594780I50022J0D01*
G03X1457100Y-5577200I-4868J8917D01*
G37*
G36*
G01X3065070Y-5379550D02*
G02X3039180Y-5338800I19125J40750D01*
G02X3129220I45020J0D01*
G02X3103330Y-5379550I-45015J0D01*
G03Y-5397950I4318J-9200D01*
G02X3129220Y-5438700I-19125J-40750D01*
G02X3039180I-45020J0D01*
G02X3065070Y-5397950I45015J0D01*
G03Y-5379550I-4318J9200D01*
G37*
G36*
G01X2564960Y-5279390D02*
G02X2538980Y-5238600I19031J40790D01*
G02X2629020I45020J0D01*
G02X2603040Y-5279390I-45011J0D01*
G03Y-5297810I4301J-9210D01*
G02Y-5379390I-19031J-40790D01*
G03Y-5397810I4301J-9210D01*
G02Y-5479390I-19031J-40790D01*
G03Y-5497810I4301J-9210D01*
G02X2629020Y-5538600I-19031J-40790D01*
G02X2603210Y-5579310I-45011J0D01*
G03X2603250Y-5597710I4335J-9191D01*
G02X2629220Y-5638500I-19049J-40790D01*
G02X2539180I-45020J0D01*
G02X2564990Y-5597790I45011J0D01*
G03X2564950Y-5579390I-4335J9191D01*
G02X2538980Y-5538600I19049J40790D01*
G02X2564960Y-5497810I45011J0D01*
G03Y-5479390I-4301J9210D01*
G02Y-5397810I19031J40790D01*
G03Y-5379390I-4301J9210D01*
G02Y-5297810I19031J40790D01*
G03Y-5279390I-4301J9210D01*
G37*
G36*
G01X2860400Y-5202330D02*
G02X2837180Y-5160100I26792J42230D01*
G02X2937220I50020J0D01*
G02X2914420Y-5202070I-50029J0D01*
G03X2914500Y-5219170I5528J-8524D01*
G02X2937720Y-5261400I-26792J-42230D01*
G02X2837680I-50020J0D01*
G02X2860480Y-5219430I50029J0D01*
G03X2860400Y-5202330I-5528J8524D01*
G37*
G36*
G01X1960740Y-5079850D02*
G02X1935280Y-5039300I19562J40550D01*
G02X2025320I45020J0D01*
G02X1999860Y-5079850I-45022J0D01*
G03Y-5098150I4413J-9150D01*
G02X2025320Y-5138700I-19562J-40550D01*
G02X1999260Y-5179530I-45016J0D01*
G03Y-5197970I4273J-9220D01*
G02X2025320Y-5238800I-18956J-40830D01*
G02X1999340Y-5279590I-45011J0D01*
G03Y-5298010I4301J-9210D01*
G02X2025320Y-5338800I-19031J-40790D01*
G02X1999260Y-5379630I-45016J0D01*
G03Y-5398070I4273J-9220D01*
G02X2025320Y-5438900I-18956J-40830D01*
G02X1999340Y-5479690I-45011J0D01*
G03Y-5498110I4301J-9210D01*
G02X2025320Y-5538900I-19031J-40790D01*
G02X1999690Y-5579530I-45019J0D01*
G03Y-5597870I4375J-9170D01*
G02X2025320Y-5638500I-19389J-40630D01*
G02X1935280I-45020J0D01*
G02X1960910Y-5597870I45019J0D01*
G03Y-5579530I-4375J9170D01*
G02X1935280Y-5538900I19389J40630D01*
G02X1961260Y-5498110I45011J0D01*
G03Y-5479690I-4301J9210D01*
G02X1935280Y-5438900I19031J40790D01*
G02X1961340Y-5398070I45016J0D01*
G03Y-5379630I-4273J9220D01*
G02X1935280Y-5338800I18956J40830D01*
G02X1961260Y-5298010I45011J0D01*
G03Y-5279590I-4301J9210D01*
G02X1935280Y-5238800I19031J40790D01*
G02X1961340Y-5197970I45016J0D01*
G03Y-5179530I-4273J9220D01*
G02X1935280Y-5138700I18956J40830D01*
G02X1960740Y-5098150I45022J0D01*
G03Y-5079850I-4413J9150D01*
G37*
G36*
G01X2422550Y-5058280D02*
G02X2390300Y-5076620I-32250J19185D01*
G02Y-5001580I0J37520D01*
G02X2422550Y-5019920I0J-37525D01*
G03X2440570Y-5018840I8731J5195D01*
G02X2486300Y-4989080I45730J-20255D01*
G02Y-5089120I0J-50020D01*
G02X2440570Y-5059360I0J50015D01*
G03X2422550Y-5058280I-9289J-4115D01*
G37*
G36*
G01X640830Y-5045580D02*
G02X622180Y-5010400I23867J35186D01*
G02X707220I42520J0D01*
G02X688570Y-5045580I-42517J6D01*
G03X689290Y-5062840I5708J-8407D01*
G02X714720Y-5106400I-24593J-43560D01*
G02X614680I-50020J0D01*
G02X640110Y-5062840I50023J0D01*
G03X640830Y-5045580I-4988J8853D01*
G37*
G36*
G01X1822610Y-4859940D02*
G02X1782100Y-4885320I-40510J19640D01*
G02Y-4795280I0J45020D01*
G02X1822610Y-4820660I0J-45020D01*
G03X1840890I9140J4436D01*
G02X1881400Y-4795280I40510J-19640D01*
G02Y-4885320I0J-45020D01*
G02X1840890Y-4859940I0J45020D01*
G03X1822610I-9140J-4436D01*
G37*
G36*
G01X1624120Y-4424830D02*
G02X1664900Y-4403780I40780J-28976D01*
G02X1704020Y-4422630I0J-50018D01*
G03X1721610Y-4419490I7945J6332D01*
G02X1769100Y-4385180I47490J-15712D01*
G02Y-4485220I0J-50020D01*
G02X1729980Y-4466370I0J50018D01*
G03X1712390Y-4469510I-7945J-6332D01*
G02X1664900Y-4503820I-47490J15712D01*
G02X1616740Y-4467310I0J50019D01*
G03X1598680Y-4464170I-9781J-2747D01*
G02X1557900Y-4485220I-40780J28976D01*
G02Y-4385180I0J50020D01*
G02X1606060Y-4421690I0J-50019D01*
G03X1624120Y-4424830I9781J2747D01*
G37*
G36*
G01X5707900Y-7551890D02*
G03X5712510Y-7538490I-4584J9070D01*
G02X5704880Y-7504400I72388J34101D01*
G02X5864920I80020J0D01*
G02X5821000Y-7575810I-80013J0D01*
G03X5816390Y-7589210I4584J-9070D01*
G02X5824020Y-7623300I-72388J-34101D01*
G02X5780930Y-7694290I-80022J0D01*
G03Y-7712310I4692J-9010D01*
G02X5824020Y-7783300I-36932J-70990D01*
G02X5663980I-80020J0D01*
G02X5707070Y-7712310I80022J0D01*
G03Y-7694290I-4692J9010D01*
G02X5663980Y-7623300I36932J70990D01*
G02X5707900Y-7551890I80013J0D01*
G37*
G36*
G01X6714470Y-7588250D02*
G03X6710150Y-7574850I-9134J4452D01*
G02X6668080Y-7504400I37952J70450D01*
G02X6828120I80020J0D01*
G02X6820030Y-7539450I-80018J10D01*
G03X6824350Y-7552850I9134J-4452D01*
G02X6866420Y-7623300I-37952J-70450D01*
G02X6823330Y-7694290I-80022J0D01*
G03Y-7712310I4692J-9010D01*
G02X6866420Y-7783300I-36932J-70990D01*
G02X6706380I-80020J0D01*
G02X6749470Y-7712310I80022J0D01*
G03Y-7694290I-4692J9010D01*
G02X6706380Y-7623300I36932J70990D01*
G02X6714470Y-7588250I80018J-10D01*
G37*
G36*
G01X5105170Y-7315830D02*
G03X5111790Y-7303400I-3153J9657D01*
G02X5110180Y-7291800I40911J11590D01*
G02X5195220I42520J0D01*
G02X5184600Y-7319910I-42512J0D01*
G03X5185210Y-7333980I7624J-6718D01*
G02X5210020Y-7391900I-55203J-57920D01*
G02X5130000Y-7471920I-80020J0D01*
G02X5060490Y-7431550I0J80027D01*
G03X5053730Y-7429570I-4408J-2520D01*
G02X5034000Y-7434420I-19722J37672D01*
G02X5004310Y-7422340I0J42526D01*
G03X4987990Y-7425360I-7094J-7272D01*
G02X4915300Y-7471920I-72690J33462D01*
G02X4845790Y-7431550I0J80027D01*
G03X4839030Y-7429570I-4408J-2520D01*
G02X4819300Y-7434420I-19722J37672D01*
G02Y-7349380I0J42520D01*
G02X4839030Y-7354230I8J-42522D01*
G03X4845790Y-7352250I2352J4500D01*
G02X4915300Y-7311880I69510J-39657D01*
G02X4987990Y-7358440I0J-80022D01*
G03X5004310Y-7361460I9226J4252D01*
G02X5034000Y-7349380I29690J-30446D01*
G02X5053730Y-7354230I8J-42522D01*
G03X5060490Y-7352250I2352J4500D01*
G02X5105170Y-7315830I69506J-39653D01*
G37*
G36*
G01X7562130Y-7158940D02*
G03X7567710Y-7144110I-3161J9654D01*
G02X7562480Y-7125000I32298J19110D01*
G02X7637520I37520J0D01*
G02X7626940Y-7151110I-37508J0D01*
G03X7628920Y-7166840I7297J-7071D01*
G02X7667020Y-7235000I-41918J-68160D01*
G02X7506980I-80020J0D01*
G02X7562130Y-7158940I80024J0D01*
G37*
G36*
G01X8151680Y-7043990D02*
G03X8135640Y-7041580I-8929J-4845D01*
G02X8105870Y-7053740I-29770J30361D01*
G02Y-6968700I0J42520D01*
G02X8143240Y-6990930I0J-42526D01*
G03X8159280Y-6993340I8929J4845D01*
G02X8189050Y-6981180I29770J-30361D01*
G02Y-7066220I0J-42520D01*
G02X8151680Y-7043990I0J42526D01*
G37*
G36*
G01X7849200Y-7051510D02*
G02X7813850Y-7016150I2111J37460D01*
G02X7778430Y-6978690I2099J37460D01*
G02X7815950Y-6941170I37520J0D01*
G02X7853410Y-6976590I0J-37519D01*
G02X7888770Y-7011940I-2100J-37461D01*
G02X7924180Y-7049400I-2109J-37460D01*
G02X7886660Y-7086920I-37520J0D01*
G02X7849200Y-7051510I0J37519D01*
G37*
G36*
G01X5535710Y-6990020D02*
G03X5529040Y-6988020I-4398J-2544D01*
G02X5510000Y-6992520I-19040J38030D01*
G02Y-6907480I0J42520D01*
G02X5529040Y-6911980I0J-42530D01*
G03X5535710Y-6909980I2272J4544D01*
G02X5674290I69290J-40014D01*
G03X5680960Y-6911980I4398J2544D01*
G02X5700000Y-6907480I19040J-38030D01*
G02Y-6992520I0J-42520D01*
G02X5680960Y-6988020I0J42530D01*
G03X5674290Y-6990020I-2272J-4544D01*
G02X5535710I-69290J40014D01*
G37*
G36*
G01X6145710D02*
G03X6139040Y-6988020I-4398J-2544D01*
G02X6120000Y-6992520I-19040J38030D01*
G02Y-6907480I0J42520D01*
G02X6139040Y-6911980I0J-42530D01*
G03X6145710Y-6909980I2272J4544D01*
G02X6284290I69290J-40014D01*
G03X6290960Y-6911980I4398J2544D01*
G02X6310000Y-6907480I19040J-38030D01*
G02Y-6992520I0J-42520D01*
G02X6290960Y-6988020I0J42530D01*
G03X6284290Y-6990020I-2272J-4544D01*
G02X6145710I-69290J40014D01*
G37*
G36*
G01X6535710D02*
G03X6529040Y-6988020I-4398J-2544D01*
G02X6510000Y-6992520I-19040J38030D01*
G02Y-6907480I0J42520D01*
G02X6529040Y-6911980I0J-42530D01*
G03X6535710Y-6909980I2272J4544D01*
G02X6674290I69290J-40014D01*
G03X6680960Y-6911980I4398J2544D01*
G02X6700000Y-6907480I19040J-38030D01*
G02Y-6992520I0J-42520D01*
G02X6680960Y-6988020I0J42530D01*
G03X6674290Y-6990020I-2272J-4544D01*
G02X6535710I-69290J40014D01*
G37*
G36*
G01X7145710D02*
G03X7139040Y-6988020I-4398J-2544D01*
G02X7120000Y-6992520I-19040J38030D01*
G02Y-6907480I0J42520D01*
G02X7139040Y-6911980I0J-42530D01*
G03X7145710Y-6909980I2272J4544D01*
G02X7284290I69290J-40014D01*
G03X7290960Y-6911980I4398J2544D01*
G02X7310000Y-6907480I19040J-38030D01*
G02Y-6992520I0J-42520D01*
G02X7290960Y-6988020I0J42530D01*
G03X7284290Y-6990020I-2272J-4544D01*
G02X7145710I-69290J40014D01*
G37*
G36*
G01X8071230Y-6688060D02*
G02X8035880Y-6652700I2111J37460D01*
G02X8000460Y-6615240I2099J37460D01*
G02X8037980Y-6577720I37520J0D01*
G02X8075440Y-6613140I0J-37519D01*
G02X8110800Y-6648490I-2100J-37461D01*
G02X8146150Y-6683850I-2111J-37460D01*
G02X8181510Y-6719200I-2100J-37461D01*
G02X8216240Y-6749530I-2107J-37462D01*
G02X8257280Y-6792020I-1476J-42490D01*
G02X8214760Y-6834540I-42520J0D01*
G02X8172270Y-6793500I0J42516D01*
G02X8141940Y-6758770I7132J36837D01*
G02X8106590Y-6723410I2111J37460D01*
G02X8071230Y-6688060I2100J37461D01*
G37*
G36*
G01X4857930Y-6285450D02*
G03X4844070I-6930J-7437D01*
G02X4818500Y-6295520I-25577J27447D01*
G02Y-6220480I0J37520D01*
G02X4844070Y-6230550I-7J-37517D01*
G03X4857930I6930J7437D01*
G02X4883500Y-6220480I25577J-27447D01*
G02Y-6295520I0J-37520D01*
G02X4857930Y-6285450I7J37517D01*
G37*
G36*
G01X6338830Y-6045960D02*
G03X6331770Y-6047270I-2874J-4191D01*
G02X6270000Y-6079720I-61770J42566D01*
G02Y-5929680I0J75020D01*
G02X6331770Y-5962130I0J-75016D01*
G03X6338830Y-5963440I4186J2881D01*
G02X6367100Y-5954680I28277J-41258D01*
G02Y-6054720I0J-50020D01*
G02X6338830Y-6045960I7J50018D01*
G37*
G36*
G01X5937310Y-5525930D02*
G03X5919290I-9010J-4692D01*
G02X5848300Y-5569020I-70990J36932D01*
G02Y-5408980I0J80020D01*
G02X5919290Y-5452070I0J-80022D01*
G03X5937310I9010J4692D01*
G02X6008300Y-5408980I70990J-36932D01*
G02Y-5569020I0J-80020D01*
G02X5937310Y-5525930I0J80022D01*
G37*
G36*
G01X8096160Y-5516440D02*
G03Y-5499560I-5650J8440D01*
G02X8073980Y-5458000I27847J41560D01*
G02X8174020I50020J0D01*
G02X8151840Y-5499560I-50027J0D01*
G03Y-5516440I5650J-8440D01*
G02X8174020Y-5558000I-27847J-41560D01*
G02X8073980I-50020J0D01*
G02X8096160Y-5516440I50027J0D01*
G37*
G36*
G01X4712970Y-5428070D02*
G03X4706210Y-5430050I-2352J-4500D01*
G02X4636700Y-5470420I-69510J39657D01*
G02Y-5310380I0J80020D01*
G02X4706210Y-5350750I0J-80027D01*
G03X4712970Y-5352730I4408J2520D01*
G02X4732700Y-5347880I19722J-37672D01*
G02Y-5432920I0J-42520D01*
G02X4712970Y-5428070I-8J42522D01*
G37*
G36*
G01X6254480Y-5265520D02*
G03X6247780Y-5263450I-4435J-2475D01*
G02X6228800Y-5267920I-18980J38060D01*
G02Y-5182880I0J42520D01*
G02X6248730Y-5187840I0J-42521D01*
G03X6255480Y-5185930I2375J4488D01*
G02X6324400Y-5146580I68920J-40680D01*
G02Y-5306620I0J-80020D01*
G02X6254480Y-5265520I0J80025D01*
G37*
G36*
G01X8096160Y-5116440D02*
G03Y-5099560I-5650J8440D01*
G02X8073980Y-5058000I27847J41560D01*
G02X8174020I50020J0D01*
G02X8151840Y-5099560I-50027J0D01*
G03Y-5116440I5650J-8440D01*
G02X8174020Y-5158000I-27847J-41560D01*
G02X8073980I-50020J0D01*
G02X8096160Y-5116440I50027J0D01*
G37*
G36*
G01X6884310Y-4208680D02*
G03X6877760Y-4208610I-3317J-3848D01*
G02X6850690Y-4218340I-27070J32791D01*
G02Y-4133300I0J42520D01*
G02X6878480Y-4143640I0J-42514D01*
G03X6885030Y-4143710I3317J3848D01*
G02X6912100Y-4133980I27070J-32791D01*
G02Y-4219020I0J-42520D01*
G02X6884310Y-4208680I0J42514D01*
G37*
G36*
G01X5872070Y-7102960D02*
G02X5857400Y-7104320I-14690J78658D01*
G02X5937420Y-7024300I0J80020D01*
G02X5927020Y-7063740I-80018J9D01*
G03X5937730Y-7078740I8841J-5011D01*
G02X5952400Y-7077380I14690J-78658D01*
G02X5872380Y-7157400I0J-80020D01*
G02X5882780Y-7117960I80018J-9D01*
G03X5872070Y-7102960I-8841J5011D01*
G37*
G36*
G01X5664800Y-5741880D02*
G02X5640580Y-5703500I18299J38380D01*
G02X5725620I42520J0D01*
G02X5701400Y-5741880I-42519J0D01*
G03Y-5760220I4375J-9170D01*
G02X5725620Y-5798600I-18299J-38380D01*
G02X5640580I-42520J0D01*
G02X5664800Y-5760220I42519J0D01*
G03Y-5741880I-4375J9170D01*
G37*
G36*
G01X5383710Y-4369520D02*
G02X5375880Y-4335000I72179J34520D01*
G02X5455900Y-4415020I80020J0D01*
G02X5423390Y-4408120I-3J80021D01*
G03X5410090Y-4421780I-4133J-9281D01*
G02X5417920Y-4456300I-72179J-34520D01*
G02X5337900Y-4376280I-80020J0D01*
G02X5370410Y-4383180I3J-80021D01*
G03X5383710Y-4369520I4133J9281D01*
G37*
G36*
G01X6456730Y-2728190D02*
G02X6418580Y-2679600I11868J48590D01*
G02X6456570Y-2631050I50018J0D01*
G02X6456280Y-2625700I49728J5378D01*
G02X6556320I50020J0D01*
G02X6555600Y-2634180I-50022J-23D01*
G02X6571340Y-2643720I-17612J-46813D01*
G02X6604800Y-2630880I33460J-37177D01*
G02Y-2730920I0J-50020D01*
G02X6571460Y-2718180I8J50017D01*
G02X6555230Y-2727960I-33464J37177D01*
G02X6556020Y-2736800I-49229J-8855D01*
G02X6455980I-50020J0D01*
G02X6456730Y-2728190I50018J-19D01*
G37*
G36*
G01X6219060Y-2067090D02*
G03Y-2052410I-7028J7340D01*
G02X6205180Y-2019900I31133J32510D01*
G02X6250200Y-1974880I45020J0D01*
G02X6283390Y-1989480I0J-45025D01*
G03X6298470Y-1989370I7490J6863D01*
G02X6332100Y-1974280I33630J-29929D01*
G02Y-2064320I0J-45020D01*
G02X6298910Y-2049720I0J45025D01*
G03X6283830Y-2049830I-7490J-6863D01*
G02X6281340Y-2052410I-33613J29949D01*
G03Y-2067090I7028J-7340D01*
G02X6295220Y-2099600I-31133J-32510D01*
G02X6205180I-45020J0D01*
G02X6219060Y-2067090I45013J0D01*
G37*
G36*
G01X6620530Y-1907320D02*
G03Y-1892580I-6988J7370D01*
G02X6606480Y-1859900I30981J32680D01*
G02X6696520I45020J0D01*
G02X6682470Y-1892580I-45031J0D01*
G03Y-1907320I6988J-7370D01*
G02X6696520Y-1940000I-30981J-32680D01*
G02X6682770Y-1972390I-45025J0D01*
G03X6682750Y-1986990I7056J-7310D01*
G02X6696420Y-2019300I-31348J-32310D01*
G02X6651400Y-2064320I-45020J0D01*
G02X6618970Y-2050530I0J45028D01*
G03X6604330I-7320J-7042D01*
G02X6571900Y-2064320I-32430J31238D01*
G02Y-1974280I0J45020D01*
G02X6604330Y-1988070I0J-45028D01*
G03X6618970I7320J7042D01*
G02X6620130Y-1986910I32410J-31250D01*
G03X6620150Y-1972310I-7056J7310D01*
G02X6606480Y-1940000I31348J32310D01*
G02X6620530Y-1907320I45031J0D01*
G37*
G36*
G01X6524780Y-1667530D02*
G03X6539520I7370J6988D01*
G02X6572200Y-1653480I32680J-30981D01*
G02X6604750Y-1667400I0J-45017D01*
G03X6619450I7350J7015D01*
G02X6652000Y-1653480I32550J-31097D01*
G02Y-1743520I0J-45020D01*
G02X6619450Y-1729600I0J45017D01*
G03X6604750I-7350J-7015D01*
G02X6572200Y-1743520I-32550J31097D01*
G02X6539520Y-1729470I0J45031D01*
G03X6524780I-7370J-6988D01*
G02X6522620Y-1731590I-32597J31052D01*
G03X6522680Y-1746580I6889J-7468D01*
G02X6537420Y-1779900I-30290J-33320D01*
G02X6526410Y-1809400I-45026J0D01*
G03X6527930Y-1824150I7670J-6663D01*
G02X6545720Y-1860000I-27227J-35850D01*
G02X6528060Y-1895750I-45015J0D01*
G03X6526530Y-1910440I6175J-8068D01*
G02X6537420Y-1939800I-34133J-29360D01*
G02X6492400Y-1984820I-45020J0D01*
G02X6458870Y-1969840I0J45015D01*
G03X6443730I-7570J-6778D01*
G02X6410200Y-1984820I-33530J30035D01*
G02Y-1894780I0J45020D01*
G02X6443730Y-1909760I0J-45015D01*
G03X6458870I7570J6778D01*
G02X6465040Y-1904050I33529J-30042D01*
G03X6466570Y-1889360I-6175J8068D01*
G02X6455680Y-1860000I34133J29360D01*
G02X6466690Y-1830500I45026J0D01*
G03X6465170Y-1815750I-7670J6663D01*
G02X6458870Y-1809940I27232J35849D01*
G03X6443730I-7570J-6778D01*
G02X6410200Y-1824920I-33530J30035D01*
G02X6365180Y-1779900I0J45020D01*
G02X6380550Y-1746020I45026J0D01*
G03X6380880Y-1731030I-6690J7646D01*
G02X6379360Y-1729510I31065J32585D01*
G03X6364640I-7360J-7000D01*
G02X6299360I-32640J31017D01*
G03X6284640I-7360J-7000D01*
G02X6280060Y-1733700I-32605J31042D01*
G03X6279730Y-1749320I6332J-7947D01*
G02X6295220Y-1783300I-29526J-33980D01*
G02X6282920Y-1814220I-45014J0D01*
G03Y-1828180I7385J-6980D01*
G02X6295220Y-1859100I-32714J-30920D01*
G02X6205180I-45020J0D01*
G02X6217480Y-1828180I45014J0D01*
G03Y-1814220I-7385J6980D01*
G02X6205180Y-1783300I32714J30920D01*
G02X6222140Y-1748100I45008J0D01*
G03X6222470Y-1732480I-6332J7947D01*
G02X6206980Y-1698500I29526J33980D01*
G02X6252000Y-1653480I45020J0D01*
G02X6284640Y-1667490I0J-45027D01*
G03X6299360I7360J7000D01*
G02X6364640I32640J-31017D01*
G03X6379360I7360J7000D01*
G02X6412000Y-1653480I32640J-31017D01*
G02X6444680Y-1667530I0J-45031D01*
G03X6459420I7370J6988D01*
G02X6524780I32680J-30981D01*
G37*
G36*
G01X6284690Y-1512250D02*
G03X6299410I7360J7013D01*
G02X6332000Y-1498280I32598J-31047D01*
G02X6364640Y-1512290I0J-45027D01*
G03X6379360I7360J7000D01*
G02X6412000Y-1498280I32640J-31017D01*
G02Y-1588320I0J-45020D01*
G02X6379360Y-1574310I0J45027D01*
G03X6364640I-7360J-7000D01*
G02X6332000Y-1588320I-32640J31017D01*
G02X6299410Y-1574350I8J45017D01*
G03X6284690I-7360J-7013D01*
G02X6252100Y-1588320I-32598J31047D01*
G02Y-1498280I0J45020D01*
G02X6284690Y-1512250I-8J-45017D01*
G37*
G36*
G01X6619450Y-1574400D02*
G03X6604750I-7350J-7015D01*
G02X6572200Y-1588320I-32550J31097D01*
G02Y-1498280I0J45020D01*
G02X6604750Y-1512200I0J-45017D01*
G03X6619450I7350J7015D01*
G02X6652000Y-1498280I32550J-31097D01*
G02Y-1588320I0J-45020D01*
G02X6619450Y-1574400I0J45017D01*
G37*
G36*
G01X5771380Y-1270390D02*
G03X5769910Y-1254790I-7177J7193D01*
G02X5747980Y-1213400I28094J41390D01*
G02X5848020I50020J0D01*
G02X5833320Y-1248810I-50017J8D01*
G03X5834790Y-1264410I7177J-7193D01*
G02X5856720Y-1305800I-28094J-41390D01*
G02X5756680I-50020J0D01*
G02X5771380Y-1270390I50017J-8D01*
G37*
G36*
G01X4502880Y-1118650D02*
G03X4513570Y-1107900I549J10144D01*
G02X4513480Y-1104900I49930J2999D01*
G02X4613520I50020J0D01*
G02X4613380Y-1108660I-50021J-20D01*
G03X4624350Y-1119550I10129J-766D01*
G02X4628500Y-1119380I4121J-49851D01*
G02Y-1219420I0J-50020D01*
G02X4623600Y-1219180I-6J50020D01*
G03X4612490Y-1230250I-994J-10112D01*
G02X4612720Y-1235000I-49788J-4791D01*
G02X4512680I-50020J0D01*
G02X4512950Y-1229780I50022J30D01*
G03X4502400Y-1218570I-10104J1061D01*
G02X4500200Y-1218620I-2236J49969D01*
G02Y-1118580I0J50020D01*
G02X4502880Y-1118650I34J-50021D01*
G37*
G36*
G01X5859020Y-787520D02*
G03X5858890Y-772830I-7083J7283D01*
G02X5844680Y-740000I30819J32830D01*
G02X5934720I45020J0D01*
G02X5921080Y-772280I-45016J0D01*
G03X5921210Y-786970I7083J-7283D01*
G02X5935420Y-819800I-30819J-32830D01*
G02X5845380I-45020J0D01*
G02X5859020Y-787520I45016J0D01*
G37*
G36*
G01X5976260Y-493980D02*
G03X5961340I-7460J-6898D01*
G02X5933800Y-506020I-27540J25477D01*
G02Y-430980I0J37520D01*
G02X5961340Y-443020I0J-37517D01*
G03X5976260I7460J6898D01*
G02X6003800Y-430980I27540J-25477D01*
G02Y-506020I0J-37520D01*
G02X5976260Y-493980I0J37517D01*
G37*
G36*
G01X6534960D02*
G03X6520040I-7460J-6898D01*
G02X6492500Y-506020I-27540J25477D01*
G02Y-430980I0J37520D01*
G02X6520040Y-443020I0J-37517D01*
G03X6534960I7460J6898D01*
G02X6562500Y-430980I27540J-25477D01*
G02Y-506020I0J-37520D01*
G02X6534960Y-493980I0J37517D01*
G37*
G36*
G01X5677960Y-377620D02*
G03X5676380Y-360870I-6463J7840D01*
G02X5650380Y-317000I24011J43870D01*
G02X5750420I50020J0D01*
G02X5732240Y-355580I-50026J0D01*
G03X5733820Y-372330I6463J-7840D01*
G02X5759820Y-416200I-24011J-43870D01*
G02X5659780I-50020J0D01*
G02X5677960Y-377620I50026J0D01*
G37*
G36*
G01X6645690Y-368930D02*
G02X6608400Y-388720I-37290J25237D01*
G02X6563380Y-343700I0J45020D01*
G02X6607500Y-298690I45019J0D01*
G02X6650000Y-257480I42500J-1310D01*
G02X6652570Y-257560I-37J-42519D01*
G02X6690000Y-222580I37430J-2536D01*
G02X6727520Y-260100I0J-37520D01*
G02X6708210Y-292910I-37529J0D01*
G03X6708290Y-310720I4928J-8883D01*
G02X6717960Y-318240I-17889J-32981D01*
G03X6733670Y-317290I7467J6890D01*
G02X6770200Y-298580I36530J-26306D01*
G02Y-388620I0J-45020D01*
G02X6733740Y-370000I0J45006D01*
G03X6718030Y-369090I-8227J-5962D01*
G02X6690400Y-381220I-27630J25403D01*
G02X6661840Y-368030I0J37515D01*
G03X6645690Y-368930I-7733J-6589D01*
G37*
G36*
G01X6427660Y-3741790D02*
G02X6384100Y-3767220I-43560J24593D01*
G02Y-3667180I0J50020D01*
G02X6427660Y-3692610I0J-50023D01*
G03X6444920Y-3693330I8853J4988D01*
G02X6480100Y-3674680I35186J-23867D01*
G02Y-3759720I0J-42520D01*
G02X6444920Y-3741070I6J42517D01*
G03X6427660Y-3741790I-8407J-5708D01*
G37*
G36*
G01X6639660D02*
G02X6596100Y-3767220I-43560J24593D01*
G02Y-3667180I0J50020D01*
G02X6639660Y-3692610I0J-50023D01*
G03X6656920Y-3693330I8853J4988D01*
G02X6692100Y-3674680I35186J-23867D01*
G02Y-3759720I0J-42520D01*
G02X6656920Y-3741070I6J42517D01*
G03X6639660Y-3741790I-8407J-5708D01*
G37*
G36*
G01X7477660D02*
G02X7434100Y-3767220I-43560J24593D01*
G02Y-3667180I0J50020D01*
G02X7477660Y-3692610I0J-50023D01*
G03X7494920Y-3693330I8853J4988D01*
G02X7530100Y-3674680I35186J-23867D01*
G02Y-3759720I0J-42520D01*
G02X7494920Y-3741070I6J42517D01*
G03X7477660Y-3741790I-8407J-5708D01*
G37*
G36*
G01X7685960D02*
G02X7642400Y-3767220I-43560J24593D01*
G02Y-3667180I0J50020D01*
G02X7685960Y-3692610I0J-50023D01*
G03X7703220Y-3693330I8853J4988D01*
G02X7738400Y-3674680I35186J-23867D01*
G02Y-3759720I0J-42520D01*
G02X7703220Y-3741070I6J42517D01*
G03X7685960Y-3741790I-8407J-5708D01*
G37*
G36*
G01X6847360Y-3705090D02*
G02X6803800Y-3730520I-43560J24593D01*
G02Y-3630480I0J50020D01*
G02X6847360Y-3655910I0J-50023D01*
G03X6864620Y-3656630I8853J4988D01*
G02X6899800Y-3637980I35186J-23867D01*
G02Y-3723020I0J-42520D01*
G02X6864620Y-3704370I6J42517D01*
G03X6847360Y-3705090I-8407J-5708D01*
G37*
G36*
G01X7057060D02*
G02X7013500Y-3730520I-43560J24593D01*
G02Y-3630480I0J50020D01*
G02X7057060Y-3655910I0J-50023D01*
G03X7074320Y-3656630I8853J4988D01*
G02X7109500Y-3637980I35186J-23867D01*
G02Y-3723020I0J-42520D01*
G02X7074320Y-3704370I6J42517D01*
G03X7057060Y-3705090I-8407J-5708D01*
G37*
G36*
G01X7192310Y-3661890D02*
G02X7172480Y-3622000I30193J39883D01*
G02X7272520I50020J0D01*
G02X7253520Y-3661240I-50020J0D01*
G03X7253690Y-3677310I6298J-7969D01*
G02X7267060Y-3692610I-30197J-39880D01*
G03X7284320Y-3693330I8853J4988D01*
G02X7319500Y-3674680I35186J-23867D01*
G02Y-3759720I0J-42520D01*
G02X7284320Y-3741070I6J42517D01*
G03X7267060Y-3741790I-8407J-5708D01*
G02X7223500Y-3767220I-43560J24593D01*
G02X7173480Y-3717200I0J50020D01*
G02X7192480Y-3677960I50020J0D01*
G03X7192310Y-3661890I-6298J7969D01*
G37*
G36*
G01X7829250Y-3658550D02*
G02X7813380Y-3622000I34154J36550D01*
G02X7913420I50020J0D01*
G02X7889650Y-3664580I-50022J0D01*
G03X7888050Y-3680650I5334J-8646D01*
G02X7897460Y-3692610I-34149J-36550D01*
G03X7914720Y-3693330I8853J4988D01*
G02X7949900Y-3674680I35186J-23867D01*
G02Y-3759720I0J-42520D01*
G02X7914720Y-3741070I6J42517D01*
G03X7897460Y-3741790I-8407J-5708D01*
G02X7853900Y-3767220I-43560J24593D01*
G02X7803880Y-3717200I0J50020D01*
G02X7827650Y-3674620I50022J0D01*
G03X7829250Y-3658550I-5334J8646D01*
G37*
G36*
G01X6982660Y-3147690D02*
G02X6939100Y-3173120I-43560J24593D01*
G02Y-3073080I0J50020D01*
G02X6982660Y-3098510I0J-50023D01*
G03X6999920Y-3099230I8853J4988D01*
G02X7035100Y-3080580I35186J-23867D01*
G02Y-3165620I0J-42520D01*
G02X6999920Y-3146970I6J42517D01*
G03X6982660Y-3147690I-8407J-5708D01*
G37*
G36*
G01X8134420Y-2838250D02*
G02X8116080Y-2806000I19185J32250D01*
G02X8191120I37520J0D01*
G02X8172780Y-2838250I-37525J0D01*
G03X8173860Y-2856270I5195J-8731D01*
G02X8203620Y-2902000I-20255J-45730D01*
G02X8103580I-50020J0D01*
G02X8133340Y-2856270I50015J0D01*
G03X8134420Y-2838250I-4115J9289D01*
G37*
G36*
G01X7579130Y-2834380D02*
G02X7560480Y-2799200I23867J35186D01*
G02X7645520I42520J0D01*
G02X7626870Y-2834380I-42517J6D01*
G03X7627590Y-2851640I5708J-8407D01*
G02X7653020Y-2895200I-24593J-43560D01*
G02X7552980I-50020J0D01*
G02X7578410Y-2851640I50023J0D01*
G03X7579130Y-2834380I-4988J8853D01*
G37*
G36*
G01X6603250Y-2201020D02*
G02X6571900Y-2217920I-31350J20628D01*
G02Y-2142880I0J37520D01*
G02X6603500Y-2160180I0J-37510D01*
G03X6620550Y-2160280I8557J5477D01*
G02X6651900Y-2143380I31350J-20628D01*
G02Y-2218420I0J-37520D01*
G02X6620300Y-2201120I0J37510D01*
G03X6603250Y-2201020I-8557J-5477D01*
G37*
G36*
G01X5899490Y-2212620D02*
G02X5885180Y-2179700I30711J32920D01*
G02X5930200Y-2134680I45020J0D01*
G02X5967580Y-2154610I0J-45019D01*
G03X5983930Y-2155320I8436J5663D01*
G02X6013150Y-2141330I29220J-23520D01*
G02Y-2216370I0J-37520D01*
G02X5984420Y-2202980I0J37517D01*
G03X5968090Y-2204020I-7782J-6530D01*
G02X5960910Y-2212620I-37881J24329D01*
G03Y-2227480I6929J-7430D01*
G02X5975220Y-2260400I-30711J-32920D01*
G02X5885180I-45020J0D01*
G02X5899490Y-2227480I45021J0D01*
G03Y-2212620I-6929J7430D01*
G37*
G36*
G01X6391270Y-2131740D02*
G02X6374680Y-2100600I20930J31140D01*
G02X6412200Y-2063080I37520J0D01*
G02X6443680Y-2080180I0J-37526D01*
G03X6460720I8520J5529D01*
G02X6492200Y-2063080I31480J-20426D01*
G02Y-2138120I0J-37520D01*
G02X6460720Y-2121020I0J37526D01*
G03X6443680I-8520J-5529D01*
G02X6432340Y-2132260I-31479J20419D01*
G03X6432130Y-2149260I5457J-8569D01*
G02X6448720Y-2180400I-20930J-31140D01*
G02X6411200Y-2217920I-37520J0D01*
G02X6383490Y-2205700I0J37528D01*
G03X6367850Y-2206460I-7506J-6848D01*
G02X6331800Y-2224520I-36050J26950D01*
G02Y-2134480I0J45020D01*
G02X6368450Y-2153360I0J-45013D01*
G03X6384070Y-2154480I8273J5898D01*
G02X6391060Y-2148740I27133J-25916D01*
G03X6391270Y-2131740I-5457J8569D01*
G37*
G36*
G01X6393280Y-1037530D02*
G02X6387400Y-1037920I-5913J44628D01*
G02X6432420Y-992900I0J45020D01*
G02X6430880Y-1004560I-45018J14D01*
G03X6442020Y-1017270I9815J-2634D01*
G02X6447900Y-1016880I5913J-44628D01*
G02X6479280Y-1029620I0J-45016D01*
G02X6509600Y-1017880I30320J-33283D01*
G02Y-1107920I0J-45020D01*
G02X6478220Y-1095180I0J45016D01*
G02X6447900Y-1106920I-30320J33283D01*
G02X6402880Y-1061900I0J45020D01*
G02X6404420Y-1050240I45018J-14D01*
G03X6393280Y-1037530I-9815J2634D01*
G37*
G36*
G01X5649980Y-631370D02*
G02X5614800Y-650020I-35186J23867D01*
G02Y-564980I0J42520D01*
G02X5649980Y-583630I-6J-42517D01*
G03X5667240Y-582910I8407J5708D01*
G02X5710800Y-557480I43560J-24593D01*
G02Y-657520I0J-50020D01*
G02X5667240Y-632090I0J50023D01*
G03X5649980Y-631370I-8853J-4988D01*
G37*
G54D14*
X2882000Y-4736700D03*
X1781800Y-6239100D03*
X1281500Y-6438400D03*
X1980300Y-5739300D03*
X2284200Y-4939100D03*
X2184400Y-5038900D03*
X2482300Y-5740400D03*
X2683600Y-5738700D03*
X2082300Y-5136300D03*
X2082600Y-5538600D03*
Y-5337300D03*
X2483400Y-5538600D03*
X2781900Y-6239100D03*
X2483400Y-5337300D03*
X2481600Y-6239100D03*
X2582200D03*
X1480600Y-5438600D03*
X3084200Y-5039000D03*
X1480100Y-5238600D03*
X1480200Y-4738500D03*
X2979700Y-6138400D03*
X3184300Y-5238900D03*
X2182200Y-6136500D03*
X3282300Y-5936800D03*
X3084200Y-5638700D03*
X2680400Y-6038700D03*
X2681400Y-5938400D03*
X1882100Y-6040400D03*
X2983800Y-4938600D03*
X1480100Y-5038600D03*
X1682100Y-4940900D03*
X1884000Y-5938800D03*
X3084000Y-4838600D03*
X2884700Y-5938400D03*
X2781600Y-4838500D03*
X2082100Y-4737000D03*
X1680100Y-6038400D03*
X1981900Y-4741600D03*
X1582200Y-6336100D03*
X2182100Y-4536600D03*
X1741000Y-5161900D03*
X1785800Y-4639000D03*
X1580000D03*
X3320800Y-4435200D03*
X3554100D03*
X1795900Y-7492700D03*
X2588400Y-7736200D03*
X1580400Y-5838500D03*
X1045800Y-1812600D03*
X5562200Y-1344800D03*
X7009900Y-259900D03*
X6330500Y-433900D03*
X5969500Y-900400D03*
X6049900Y-259900D03*
X6210000D03*
X6240100Y-915000D03*
X6049800Y-825500D03*
X6769800Y-815100D03*
X6889000Y-919200D03*
X6530300Y-659700D03*
X6449800Y-740800D03*
X6011900Y-1459200D03*
X6482200Y-1380200D03*
X6090600Y-1619400D03*
X6892000Y-2420000D03*
X6732000D03*
X6172000Y-2179500D03*
X5889500Y-341400D03*
X6090600Y-2099800D03*
G54D17*
X3544600Y-6534500D03*
X3010500Y-6618200D03*
X1582200Y-6240100D03*
X2080300Y-4938400D03*
X3613500Y-4989300D03*
X2182200Y-6040500D03*
X2283200Y-4838400D03*
X2182100Y-4440400D03*
X2082100Y-4641000D03*
X2673600Y-4364400D03*
X2487700Y-4685300D03*
X3637100Y-5620900D03*
X3738600D03*
X3638100Y-5756100D03*
X3739600D03*
X3637100Y-5181400D03*
X3761600D03*
X7753020Y-6792720D03*
X7745240Y-6907980D03*
X5272400Y-5574600D03*
X4558500Y-6258000D03*
X5422400Y-5310900D03*
X4968860Y-5839430D03*
X6816000Y-2589700D03*
X8345000Y-2805000D03*
X7077000Y-1220000D03*
X7863200Y-2520500D03*
X7008700Y-2589700D03*
X8152400D03*
X7960800Y-2806000D03*
X7671500Y-2521200D03*
X7575900Y-2520100D03*
X7386300Y-2520500D03*
X8249800Y-2588700D03*
X7103900Y-2589700D03*
X7863200Y-2806000D03*
X8249800D03*
X8141300Y-3212300D03*
X6912600Y-2589700D03*
X7766600Y-2520300D03*
X7196900Y-2589700D03*
X6913400Y-2798900D03*
X5372200Y-1409800D03*
X8015100Y-3212300D03*
X7174700Y-1720000D03*
X6242500Y-815700D03*
X7703000Y-2798500D03*
X6338500Y-815700D03*
X7174700Y-1820000D03*
X7077000Y-1020000D03*
X7050000Y-632500D03*
X6700600Y-994000D03*
X6759900Y-1065000D03*
X6812100Y-1301500D03*
X6652200Y-1380900D03*
X6131800Y-1462000D03*
X6736600Y-1739400D03*
X6817500Y-1819400D03*
X6811800Y-1940100D03*
X6889300Y-1420100D03*
X6807300Y-1498300D03*
X6092800Y-1940800D03*
X6815600Y-2179700D03*
X7686200Y-591000D03*
X7077000Y-1620000D03*
Y-1420000D03*
Y-1120000D03*
X7311200Y-591000D03*
X7433000D03*
X7188800D03*
X7558100Y-701200D03*
X5265900Y-463700D03*
X6732000Y-1619700D03*
G54D15*
X2883500Y-6618200D03*
X1221900Y-7676500D03*
X4124600Y-4877700D03*
X4126000Y-5096900D03*
X4124600Y-5297000D03*
X966400Y-7096500D03*
X3137500Y-7158200D03*
X4125900Y-5782500D03*
X4125000Y-7366200D03*
X4124100Y-5507400D03*
X331300Y-7095500D03*
X4124500Y-4710500D03*
X205600Y-7095500D03*
X331300Y-6999500D03*
X874000Y-4646300D03*
X1197700Y-6853900D03*
X4124600Y-1650000D03*
X4493500Y-6060300D03*
X5644500Y-4190900D03*
X7681000Y-4471000D03*
X4474500Y-5370430D03*
X4474100Y-5507400D03*
X6750600Y-5408200D03*
X5033300Y-5508400D03*
X6750600Y-5312200D03*
X6072300Y-5907700D03*
X4786900Y-6060300D03*
X4975600Y-6061500D03*
X4522800Y-7117000D03*
X4620500D03*
X5683100Y-5409500D03*
X4911600Y-7214900D03*
X4812900Y-7214700D03*
X7839300Y-7623300D03*
X7486900D03*
X8211930Y-6905150D03*
X7664000Y-7623300D03*
X8013600D03*
X8035150Y-7081930D03*
X6512000Y-6652000D03*
X5329900Y-4174400D03*
X7870000Y-4800000D03*
X7281000Y-4471000D03*
X7080000Y-4800000D03*
X7275700Y-5908700D03*
X7581000Y-4471000D03*
X7781000D03*
X8010000Y-4800000D03*
X7220000D03*
X7381000Y-4471000D03*
X7481000D03*
X7181000D03*
X7881000D03*
X5033300Y-5700300D03*
X5793700Y-4189300D03*
X8150000Y-4660000D03*
X8337700Y-4600400D03*
X5033300Y-5314700D03*
X5683100Y-5507700D03*
X5136600Y-4828000D03*
X4475400Y-5093700D03*
X7121600Y-6652000D03*
X4591100Y-5964300D03*
X5422400Y-5410900D03*
X5139300Y-4175600D03*
X5502000Y-6652000D03*
X5491000Y-5906100D03*
X6653100Y-5907700D03*
X6187100Y-4474700D03*
X4786900Y-5964300D03*
X4975600Y-5965500D03*
X5033200Y-5219100D03*
X5033300Y-5604000D03*
X4911600Y-7117900D03*
X4812400D03*
X5033300Y-5410900D03*
X4474800Y-5779300D03*
X4472800Y-4880100D03*
X6145000Y-4893000D03*
X4474400Y-4757600D03*
X4475700Y-7414300D03*
X7080000Y-4941000D03*
X7220000D03*
X6019400Y-5147300D03*
X6387100Y-4474700D03*
X6587100D03*
X6122000Y-6652000D03*
X5108500Y-6014800D03*
X5969700Y-6003700D03*
X7035200Y-3327100D03*
X8057600Y-2684700D03*
X7529100Y-3622000D03*
X4853800Y-1599900D03*
X6690900Y-3622000D03*
X8249800Y-2684700D03*
X4852600Y-1721800D03*
X4846800Y-910900D03*
X8345000Y-2901000D03*
X7960800Y-2684700D03*
X4852500Y-1842300D03*
X4852800Y-1297400D03*
X4846800Y-1032200D03*
X4852800Y-1422500D03*
X5932800Y-1938500D03*
X7926800Y-590200D03*
X7806200D03*
X5490700Y-1690800D03*
X5711700Y-1503000D03*
X5490700Y-1897000D03*
X5702100Y-2023900D03*
X5852300Y-2023200D03*
G54D21*
X5719700Y-3352300D03*
G54D20*
X5120600Y-3824400D03*
X4637500Y-2258800D03*
X5302000Y-3203500D03*
X5207400D03*
X4636500Y-2645300D03*
Y-2515800D03*
X4984700Y-2759600D03*
X4619400Y-2977200D03*
X4637500Y-2387400D03*
X4619400Y-2767200D03*
Y-3186900D03*
G54D16*
X3010500Y-7158200D03*
X928300Y-4352400D03*
Y-4486300D03*
X1823900Y-7015200D03*
X2743500Y-7056300D03*
X1937100Y-7736200D03*
X1732700Y-5781000D03*
X2743900Y-6943000D03*
X1082900Y-6978500D03*
X3192900Y-7313600D03*
X939000Y-4836300D03*
X2882000Y-4423700D03*
X1664900Y-4333800D03*
X3734000Y-4788600D03*
X3623200Y-4295300D03*
X3437800Y-4334800D03*
X3606000Y-4685100D03*
X3053400Y-4295300D03*
X3002100Y-4720200D03*
X3137500Y-6618200D03*
X2293200Y-4295300D03*
X3009100Y-7313600D03*
X2465800Y-6071900D03*
X2333700Y-6833000D03*
X3264500Y-6618200D03*
X2910000Y-5709700D03*
X1080400Y-4788000D03*
X954400Y-4968000D03*
X2838000Y-2189800D03*
X291600Y-3148200D03*
Y-3277000D03*
X180300Y-2189400D03*
X755200Y-3601600D03*
X916100Y-2189400D03*
X1456800Y-2188700D03*
X1015900Y-3601600D03*
X1328800Y-2188700D03*
X884500Y-3601600D03*
X309400Y-2189400D03*
X439200D03*
X786800D03*
X1199200Y-2188700D03*
X1045800Y-2189400D03*
X291600Y-3020400D03*
X1876700Y-3601900D03*
X1938500Y-2189800D03*
X1456800Y-1811600D03*
X1807800Y-2189800D03*
X2067900D03*
X1328800Y-1812600D03*
X1741500Y-3601900D03*
X1326600Y-3011000D03*
Y-3147900D03*
X2012400Y-3601900D03*
X1326600Y-3286900D03*
X2966200Y-2189800D03*
X2488800D03*
X3510500D03*
X2230000D03*
X2359500D03*
X3381000D03*
X3095000D03*
X3252900D03*
X2353800Y-3017300D03*
Y-3272900D03*
Y-3145300D03*
X3388900Y-3600300D03*
X3518900D03*
X3372900Y-3019500D03*
Y-3146900D03*
Y-3277200D03*
X3258400Y-3600300D03*
X2353200Y-3656100D03*
X1938500Y-1811600D03*
X786800Y-1812600D03*
X916100D03*
X2067900D03*
X3380600Y-1812100D03*
X3815300Y-2189000D03*
X3948700D03*
X4081900D03*
X2835600Y-1812600D03*
X3754500Y-1812700D03*
X3251500Y-1812100D03*
X3093600Y-1812600D03*
X3509600Y-1812100D03*
X439200Y-1812600D03*
X1807800Y-1811600D03*
X2485900Y-1812600D03*
X2357500D03*
X3885200Y-1813100D03*
X309400Y-1812600D03*
X180300D03*
X1199200D03*
X2964400D03*
X2228500D03*
X2986500Y-963700D03*
X1957500D03*
X2012100Y-394400D03*
X932600Y-832700D03*
X2986500D03*
X3289800Y-394400D03*
X1957500Y-702800D03*
X3423500Y-394400D03*
X1957500Y-832700D03*
X3557300Y-394400D03*
X858400D03*
X990300D03*
X3019300Y-394500D03*
X932600Y-963700D03*
X2885600Y-394400D03*
X2752300D03*
X1748500D03*
X2986500Y-702800D03*
X932600D03*
X1880400Y-394400D03*
X725000D03*
X3038300Y-3601900D03*
X2780100D03*
X2899800Y-3601400D03*
X6707000Y-6252000D03*
X7548000Y-5520000D03*
X7730000Y-6410000D03*
X7778400Y-6640500D03*
X7728000Y-5090000D03*
X7368000Y-5520000D03*
X7908000Y-5090000D03*
X7548000D03*
X7927000Y-5215000D03*
X7908000Y-5520000D03*
X7927000Y-5365000D03*
X7368000Y-5090000D03*
X7728000Y-5520000D03*
X7375700Y-6004700D03*
X6853100D03*
X7480000Y-6260000D03*
X5695100Y-6003100D03*
X5697000Y-6252000D03*
X6317000D03*
X7316600D03*
X5089900Y-3190800D03*
X4962700Y-2997800D03*
X4965200Y-3135700D03*
X5525800Y-3206600D03*
X5089900Y-3310800D03*
X4619400Y-3282900D03*
X5222300Y-2458700D03*
X4962700Y-2648500D03*
X7863400Y-3502000D03*
X5515700Y-1227200D03*
X5668000Y-1213400D03*
X7575900Y-2685700D03*
X7291400D03*
X5455900Y-398700D03*
X5409400Y-284900D03*
X6938600Y-3422200D03*
X7806200Y-281800D03*
X5645600Y-1849000D03*
X6897300Y-1591800D03*
X7077000Y-1520000D03*
G54D19*
X6349600Y-5690300D03*
X6353500Y-5440300D03*
X5035000Y-4731000D03*
X6959900Y-7157400D03*
X6864900Y-6956700D03*
X5801500Y-4343900D03*
X5581900Y-5141300D03*
X5205000Y-7022000D03*
X5587100Y-5312900D03*
X5586100Y-5607100D03*
X5867000Y-5907700D03*
X5147400Y-6363600D03*
G54D18*
X245500Y-4827800D03*
%LPD*%
G75*
G54D10*
X300000Y-7700000D03*
Y-4300000D03*
Y-3700000D03*
Y-300000D03*
X4000000Y-7700000D03*
Y-4300000D03*
Y-3700000D03*
Y-300000D03*
X4600000Y-7700000D03*
Y-4300000D03*
Y-3700000D03*
Y-300000D03*
X8300000Y-7700000D03*
Y-4300000D03*
Y-3700000D03*
Y-300000D03*
G54D11*
X245500Y-4827800D03*
G54D12*
X151600Y-3277000D03*
X150900Y-3484700D03*
X151600Y-3148200D03*
Y-3020400D03*
X180300Y-2049400D03*
Y-2189400D03*
Y-1952600D03*
Y-1812600D03*
X164900Y-1285400D03*
X164200Y-538500D03*
X205600Y-6999500D03*
Y-7095500D03*
X331300D03*
Y-6999500D03*
X291600Y-3277000D03*
Y-3020400D03*
Y-3148200D03*
X309400Y-2049400D03*
X439200D03*
X309400Y-2189400D03*
X439200D03*
Y-1952600D03*
X309400D03*
X439200Y-1812600D03*
X309400D03*
X240200Y-1370500D03*
X444200Y-1018000D03*
X444300Y-948000D03*
X444200Y-878300D03*
X482500Y-982600D03*
X482000Y-914800D03*
X482100Y-845000D03*
X481800Y-776000D03*
X444400Y-809000D03*
X445100Y-738900D03*
X482100Y-706300D03*
X444400Y-673800D03*
X250100Y-562500D03*
X349100Y-565000D03*
X451800Y-552500D03*
X713400Y-7096500D03*
X585900D03*
X713400Y-7000500D03*
X585900D03*
X764300Y-5106400D03*
X664700D03*
Y-5010400D03*
X788300Y-4486300D03*
X574100Y-4632100D03*
X788300Y-4352400D03*
X528800Y-3845800D03*
X568500Y-3771900D03*
X575500Y-3690500D03*
X555500Y-3613700D03*
X755200Y-3601600D03*
Y-3461600D03*
X739200Y-3325000D03*
X661400D03*
X739100Y-3255100D03*
X661500Y-3255000D03*
X699700Y-3289600D03*
X699200Y-3221800D03*
X739000Y-3185100D03*
X661400Y-3185300D03*
X699300Y-3152000D03*
X699000Y-3083000D03*
X699300Y-3013300D03*
X739200Y-3115900D03*
X661600Y-3116000D03*
X739100Y-3046100D03*
X662300Y-3045900D03*
X739600Y-2979100D03*
X661600Y-2980800D03*
X786800Y-2049400D03*
Y-2189400D03*
Y-1952600D03*
Y-1812600D03*
X522000Y-1018000D03*
X521900Y-948100D03*
X521800Y-878100D03*
X522000Y-808900D03*
X521900Y-739100D03*
X725100Y-534900D03*
X522400Y-672100D03*
X525300Y-489000D03*
X557900Y-400900D03*
X539500Y-172100D03*
X562500Y-242700D03*
X564300Y-314700D03*
X725000Y-394400D03*
X1031100Y-7791300D03*
Y-7563100D03*
X1053100Y-7676500D03*
X966400Y-7000500D03*
Y-7096500D03*
X1082900Y-6978500D03*
X1094400Y-5097600D03*
X954400D03*
X863900Y-5105400D03*
X1094400Y-4968000D03*
X1080400Y-4788000D03*
X954400Y-4968000D03*
X939000Y-4836300D03*
X874000Y-4646300D03*
X928300Y-4486300D03*
X1107400Y-4467700D03*
X1038100Y-4468000D03*
X1107600Y-4527900D03*
X859300Y-4175500D03*
X811200Y-4142500D03*
X906700Y-4143300D03*
X811100Y-4208100D03*
X903600Y-4205800D03*
X928300Y-4352400D03*
X1106400Y-4405800D03*
X859300Y-3825500D03*
X813600Y-3855900D03*
X905800Y-3858000D03*
X813600Y-3793200D03*
X905500Y-3794100D03*
X884500Y-3601600D03*
X1015900D03*
X884500Y-3461600D03*
X1015900D03*
X1063600Y-2731900D03*
X979900Y-2648000D03*
X916100Y-2049400D03*
X1045800D03*
Y-2189400D03*
X916100D03*
X1045800Y-1952600D03*
X916100D03*
Y-1812600D03*
X1072600Y-963700D03*
Y-832700D03*
X932600Y-963700D03*
Y-832700D03*
X990300Y-534400D03*
X858400D03*
X1072600Y-702800D03*
X932600D03*
X990300Y-394400D03*
X858400D03*
X1221900Y-7676500D03*
X1197700Y-6853900D03*
X1384600Y-5738900D03*
Y-5438600D03*
Y-5538800D03*
Y-5638700D03*
X1383100Y-5138300D03*
X1384100Y-5238600D03*
Y-5339100D03*
Y-5038600D03*
X1384200Y-4738500D03*
X1173700Y-4467200D03*
X1417900Y-4435200D03*
X1395100Y-4177300D03*
Y-4273300D03*
X1186600Y-3286900D03*
X1326600D03*
X1186600Y-3011000D03*
Y-3147900D03*
X1326600D03*
Y-3011000D03*
X1328800Y-2048700D03*
X1199200D03*
X1328800Y-2188700D03*
X1199200D03*
Y-1952600D03*
X1328800D03*
X1199200Y-1812600D03*
X1328800D03*
X1263100Y-1369900D03*
X1180500Y-1285200D03*
X1210000Y-524500D03*
X1287800D03*
X1361900Y-522800D03*
X1210100Y-454500D03*
X1248300Y-489100D03*
X1287700Y-454600D03*
X1362000Y-452800D03*
X1400200Y-487400D03*
X1210200Y-180300D03*
X1210900Y-245400D03*
X1210200Y-315500D03*
X1210000Y-384800D03*
X1288200Y-178600D03*
X1287700Y-245600D03*
X1287800Y-315400D03*
X1247900Y-212800D03*
X1247600Y-282500D03*
X1247900Y-351500D03*
X1247800Y-421300D03*
X1287600Y-384600D03*
X1362100Y-178600D03*
X1362800Y-243700D03*
X1362100Y-313800D03*
X1361900Y-383100D03*
X1399800Y-211100D03*
X1399500Y-280800D03*
X1399800Y-349800D03*
X1399700Y-419600D03*
X1699900Y-7492700D03*
X1484400Y-5838500D03*
Y-5934100D03*
X1480600Y-5638700D03*
X1664900Y-4453800D03*
X1689800Y-4639000D03*
X1484000D03*
X1557900Y-4435200D03*
X1490200Y-4177300D03*
X1665200Y-4175500D03*
X1616000Y-4140600D03*
X1713100Y-4142000D03*
X1618600Y-4206900D03*
X1710200Y-4207300D03*
X1490200Y-4273300D03*
X1664900Y-4333800D03*
X1665200Y-3825500D03*
X1619000Y-3857600D03*
X1710000Y-3856400D03*
X1616800Y-3792400D03*
X1710400Y-3793500D03*
X1681700Y-3317400D03*
X1681800Y-3247400D03*
X1720000Y-3282000D03*
X1719500Y-3214200D03*
X1681700Y-3177700D03*
X1719600Y-3144400D03*
X1719300Y-3075400D03*
X1719600Y-3005700D03*
X1681900Y-3108400D03*
X1682600Y-3038300D03*
X1681900Y-2973200D03*
X1456800Y-2048700D03*
Y-2188700D03*
Y-1951600D03*
Y-1811600D03*
X1469000Y-807400D03*
X1546600Y-807300D03*
X1506400Y-774400D03*
X1506700Y-843400D03*
X1506600Y-913200D03*
X1507100Y-981000D03*
X1468800Y-876700D03*
X1546400Y-876500D03*
X1468900Y-946400D03*
X1546500Y-946500D03*
X1468800Y-1016400D03*
X1546600D03*
X1469000Y-672200D03*
X1547000Y-670500D03*
X1469700Y-737300D03*
X1546500Y-737500D03*
X1506700Y-704700D03*
X1439700Y-522800D03*
X1439600Y-452900D03*
X1440100Y-176900D03*
X1439600Y-243900D03*
X1439700Y-313700D03*
X1439500Y-382900D03*
X1937100Y-7832200D03*
Y-7736200D03*
X1823900Y-7015200D03*
X1727900D03*
X1732700Y-5781000D03*
X1769100Y-4435200D03*
X1909100D03*
X1933100Y-4177300D03*
X1835500D03*
Y-4273300D03*
X1933100D03*
X2012700Y-3862500D03*
X2013100Y-3768600D03*
X1977400Y-3810700D03*
X1975200Y-3726900D03*
X1741500Y-3601900D03*
X1876700D03*
X2012400D03*
X1741500Y-3461900D03*
X1876700D03*
X2012400D03*
X1759500Y-3317400D03*
X1759400Y-3247500D03*
X1759300Y-3177500D03*
X1759500Y-3108300D03*
X1759400Y-3038500D03*
X1759900Y-2971500D03*
X1986500Y-2645500D03*
X1938500Y-2049800D03*
X1807800D03*
X1938500Y-2189800D03*
X1807800D03*
Y-1951600D03*
X1938500D03*
X1807800Y-1811600D03*
X1938500D03*
X1957500Y-963700D03*
Y-832700D03*
X1748500Y-534400D03*
X2012100D03*
X1880400D03*
X1957500Y-702800D03*
X1748500Y-394400D03*
X2012100D03*
X1880400D03*
X2222000Y-7832200D03*
X2124300D03*
Y-7736200D03*
X2222000D03*
X2281000Y-7290300D03*
X2072800Y-7499800D03*
X2281200Y-7499900D03*
X2074700Y-7290500D03*
X2121300Y-7450100D03*
X2193200Y-7259800D03*
X2196100Y-7324500D03*
X2244600Y-7382800D03*
X2320100Y-7383200D03*
X2214500Y-7461300D03*
X2090900Y-7375700D03*
X2077500Y-7086100D03*
X2282000Y-7087500D03*
X2127500Y-7137900D03*
X2245000Y-7201000D03*
X2317200Y-7202200D03*
X2091400Y-7211200D03*
X2207400Y-7129700D03*
X2333700Y-6833000D03*
Y-6737000D03*
X2236200D03*
X2129300D03*
X2082200Y-4440600D03*
X2293200Y-4155300D03*
X2051300D03*
X2293200Y-4295300D03*
X2097000Y-3862600D03*
X2213200Y-3656100D03*
X2055000Y-3810600D03*
X2052000Y-3727100D03*
X2213800Y-3272900D03*
Y-3145300D03*
Y-3017300D03*
X2080100Y-2735900D03*
X2230000Y-2049800D03*
X2067900D03*
X2230000Y-2189800D03*
X2067900D03*
X2228500Y-1952600D03*
X2067900D03*
X2228500Y-1812600D03*
X2067900D03*
X2286900Y-1370500D03*
X2213800Y-1288500D03*
X2097500Y-963700D03*
Y-832700D03*
Y-702800D03*
X2303200Y-515300D03*
X2225400D03*
X2303100Y-445400D03*
X2263700Y-479900D03*
X2225500Y-445300D03*
X2303000Y-375400D03*
X2263200Y-412100D03*
X2263300Y-342300D03*
X2263000Y-273300D03*
X2263300Y-203600D03*
X2303200Y-306200D03*
X2303100Y-236400D03*
X2303600Y-169400D03*
X2225400Y-375600D03*
X2225600Y-306300D03*
X2226300Y-236200D03*
X2225600Y-171100D03*
X2588400Y-7832200D03*
X2491300Y-7501600D03*
X2472800Y-7291100D03*
X2441300Y-7450600D03*
X2367700Y-7259800D03*
X2369000Y-7327500D03*
X2352300Y-7464600D03*
X2473800Y-7375700D03*
X2473000Y-7214500D03*
X2484500Y-7088900D03*
X2440100Y-7132600D03*
X2348600Y-7132200D03*
X2465800Y-6071900D03*
Y-5931900D03*
X2486300Y-5039100D03*
X2624500Y-5044800D03*
X2508600Y-4177300D03*
X2410900D03*
X2626900Y-4143300D03*
X2628600Y-4207800D03*
X2410900Y-4273300D03*
X2508600D03*
X2627300Y-3859100D03*
X2628100Y-3794300D03*
X2353200Y-3656100D03*
X2353800Y-3272900D03*
Y-3145300D03*
Y-3017300D03*
X2359500Y-2049800D03*
X2488800D03*
Y-2189800D03*
X2359500D03*
X2357500Y-1952600D03*
X2485900D03*
Y-1812600D03*
X2357500D03*
X2506000Y-738900D03*
X2505300Y-809000D03*
X2505100Y-878300D03*
X2505200Y-948000D03*
X2505100Y-1018000D03*
X2582800Y-739100D03*
X2582900Y-808900D03*
X2542700Y-776000D03*
X2543000Y-845000D03*
X2542900Y-914800D03*
X2543400Y-982600D03*
X2582700Y-878100D03*
X2582800Y-948100D03*
X2582900Y-1018000D03*
X2505300Y-673800D03*
X2583300Y-672100D03*
X2543000Y-706300D03*
X2455100Y-513600D03*
X2377300D03*
X2455000Y-443700D03*
X2415600Y-478200D03*
X2377400Y-443600D03*
X2454900Y-373700D03*
X2415100Y-410400D03*
X2415200Y-340600D03*
X2414900Y-271600D03*
X2415200Y-201900D03*
X2455100Y-304500D03*
X2455000Y-234700D03*
X2455500Y-167700D03*
X2377300Y-373900D03*
X2377500Y-304600D03*
X2378200Y-234500D03*
X2377500Y-169400D03*
X2822800Y-7574000D03*
X2726800D03*
X2913100Y-7313600D03*
X2726800Y-7479600D03*
X2743500Y-7056300D03*
X2743900Y-6943000D03*
X2743500Y-7152300D03*
X2883500Y-7158200D03*
Y-6618200D03*
X2743900Y-6584900D03*
X2910000Y-5709700D03*
X2887700Y-5357400D03*
X2887200Y-5160100D03*
X2887700Y-5261400D03*
X2935600Y-4177300D03*
X2837900D03*
X2674500Y-4175500D03*
X2722100Y-4142500D03*
X2719800Y-4207000D03*
X2935600Y-4273300D03*
X2837900D03*
X2882000Y-4423700D03*
X2674500Y-3825500D03*
X2721000Y-3857600D03*
X2723000Y-3792500D03*
X2899800Y-3601400D03*
X2780100Y-3601900D03*
X2909300Y-3461900D03*
X2780100D03*
X2743100Y-3221800D03*
X2743600Y-3289600D03*
X2705400Y-3255000D03*
X2783000Y-3255100D03*
X2705300Y-3325000D03*
X2783100D03*
X2705500Y-2980800D03*
X2783500Y-2979100D03*
X2706200Y-3045900D03*
X2783000Y-3046100D03*
X2705500Y-3116000D03*
X2783100Y-3115900D03*
X2743200Y-3013300D03*
X2742900Y-3083000D03*
X2743200Y-3152000D03*
X2705300Y-3185300D03*
X2782900Y-3185100D03*
X2838000Y-2049800D03*
Y-2189800D03*
X2835600Y-1952600D03*
Y-1812600D03*
X2752300Y-534400D03*
X2885600D03*
Y-394400D03*
X2752300D03*
X3192900Y-7313600D03*
X3009100D03*
X3010500Y-7158200D03*
X3137500D03*
X3264500Y-6618200D03*
X3137500D03*
X3184000Y-6238800D03*
X3002100Y-4720200D03*
X3180800Y-4435200D03*
X3053400Y-4155300D03*
X3177900Y-4177300D03*
X3178500Y-4273300D03*
X3053400Y-4295300D03*
X3124500Y-3863500D03*
X3040200Y-3863000D03*
X3040600Y-3769100D03*
X3002700Y-3727400D03*
X3079500Y-3727600D03*
X3082500Y-3811100D03*
X3004900Y-3811200D03*
X3038300Y-3601900D03*
X3258400Y-3600300D03*
X3232900Y-3277200D03*
X3258400Y-3460300D03*
X3038300Y-3461900D03*
X3232900Y-3019500D03*
Y-3146900D03*
X3100300Y-2736700D03*
X3009400Y-2649200D03*
X3252900Y-2049800D03*
X3095000D03*
X2966200D03*
X3252900Y-2189800D03*
X2966200D03*
X3095000D03*
X3251500Y-1952100D03*
X2964400Y-1952600D03*
X3093600D03*
X3251500Y-1812100D03*
X3093600Y-1812600D03*
X2964400D03*
X3233100Y-1289700D03*
X3126500Y-963700D03*
Y-832700D03*
X2986500Y-963700D03*
Y-832700D03*
X3019300Y-534400D03*
X3126500Y-702800D03*
X2986500D03*
X3019300Y-394500D03*
X3542100Y-5756100D03*
X3541100Y-5620900D03*
Y-5181400D03*
X3517500Y-4989300D03*
X3437300Y-4686100D03*
Y-4546100D03*
X3437800Y-4454800D03*
X3274600Y-4177300D03*
X3437800Y-4175500D03*
X3390600Y-4142800D03*
X3484300Y-4143300D03*
X3392900Y-4205700D03*
X3481100Y-4205500D03*
X3437800Y-4334800D03*
X3274600Y-4273300D03*
X3437800Y-3825500D03*
X3389500Y-3858200D03*
X3485000Y-3857700D03*
X3388900Y-3789800D03*
X3485200Y-3789200D03*
X3518900Y-3600300D03*
X3388900D03*
Y-3460300D03*
X3518900D03*
X3372900Y-3277200D03*
Y-3146900D03*
Y-3019500D03*
X3510500Y-2049800D03*
X3381000D03*
Y-2189800D03*
X3510500D03*
X3380600Y-1952100D03*
X3509600D03*
Y-1812100D03*
X3380600D03*
X3318500Y-1369900D03*
X3567100Y-984300D03*
X3566600Y-916500D03*
X3566700Y-846700D03*
X3566400Y-777700D03*
X3528800Y-1019700D03*
X3528900Y-949700D03*
X3528800Y-880000D03*
X3529000Y-810700D03*
X3529700Y-740600D03*
X3289800Y-534400D03*
X3557300D03*
X3423500D03*
X3289800Y-394400D03*
X3557300D03*
X3423500D03*
X3708300Y-7558500D03*
X3764500Y-7528000D03*
X3685800Y-7616100D03*
X3578100Y-7602300D03*
X3709000Y-7496100D03*
X3709600Y-7432400D03*
X3764700Y-7466600D03*
X3832800Y-7424000D03*
X3824800Y-7497500D03*
X3785900Y-7119600D03*
X3720500Y-7056600D03*
X3847400Y-7059300D03*
X3723200Y-7185400D03*
X3847200Y-7183500D03*
X3786470Y-5999600D03*
X3724700Y-6064100D03*
X3842500Y-6059900D03*
X3722000Y-5936900D03*
X3848500Y-5937100D03*
X3879600Y-5756100D03*
X3878600Y-5620900D03*
X3857600Y-5181400D03*
X3830000Y-4788600D03*
X3734000D03*
X3606000Y-4545100D03*
Y-4685100D03*
X3694100Y-4435200D03*
X3623100Y-4153400D03*
X3623200Y-4295300D03*
X3760200Y-3844000D03*
X3737600Y-3763600D03*
X3731400Y-3678000D03*
X3745100Y-3589500D03*
X3775200Y-3228200D03*
X3775700Y-3296000D03*
X3737500Y-3261400D03*
X3815100Y-3261500D03*
X3737400Y-3331400D03*
X3815200D03*
X3786900Y-3505200D03*
X3863900Y-3458600D03*
X3737600Y-2987200D03*
X3815600Y-2985500D03*
X3738300Y-3052300D03*
X3815100Y-3052500D03*
X3737600Y-3122400D03*
X3815200Y-3122300D03*
X3775300Y-3019700D03*
X3775000Y-3089400D03*
X3775300Y-3158400D03*
X3737400Y-3191700D03*
X3815000Y-3191500D03*
X3815300Y-2049000D03*
Y-2189000D03*
X3885200Y-1953100D03*
X3754500Y-1952700D03*
Y-1812700D03*
X3885200Y-1813100D03*
X3606600Y-1019700D03*
X3606500Y-949800D03*
X3606400Y-879800D03*
X3606600Y-810600D03*
X3606500Y-740800D03*
X3762100Y-459200D03*
X3838900Y-506000D03*
X3757100Y-146500D03*
X3733300Y-216200D03*
X3733400Y-298600D03*
X3733700Y-384500D03*
X4125000Y-7366200D03*
X4126800Y-7239100D03*
X4125900Y-5782500D03*
X4124100Y-5507400D03*
X4124600Y-5297000D03*
X4126000Y-5096900D03*
X4124600Y-4877700D03*
X4124500Y-4710500D03*
X3958300Y-3438600D03*
X4057600Y-3437700D03*
X4141200Y-3470900D03*
X4136100Y-2736500D03*
X4044000Y-2649200D03*
X4081900Y-2049000D03*
X3948700D03*
X4081900Y-2189000D03*
X3948700D03*
X4126600Y-1891200D03*
X4124600Y-1650000D03*
X4143700Y-518900D03*
X4473100Y-7239100D03*
X4475700Y-7414300D03*
X4493500Y-6060300D03*
X4474800Y-5779300D03*
X4474500Y-5370430D03*
X4474100Y-5507400D03*
X4475400Y-5093700D03*
X4472800Y-4880100D03*
X4474400Y-4757600D03*
X4477940Y-3307030D03*
X4496500Y-2645300D03*
Y-2515800D03*
X4497500Y-2387400D03*
Y-2258800D03*
X4477500Y-2204300D03*
X4476600Y-1891200D03*
X4439300Y-1838600D03*
X4440000Y-1942700D03*
X4474600Y-1650000D03*
X4500200Y-1168600D03*
X4716300Y-7213900D03*
X4522800Y-7117000D03*
X4620500D03*
X4786900Y-6060300D03*
Y-5964300D03*
X4591100D03*
X4732700Y-5390400D03*
X4636700D03*
X4619400Y-3282900D03*
X4524800D03*
X4619400Y-3186900D03*
X4805200Y-3135700D03*
X4524800Y-3073200D03*
X4619400D03*
X4771000Y-2904000D03*
X4619400Y-2977200D03*
X4636500Y-2645300D03*
X4524800Y-2863200D03*
X4619400D03*
Y-2767200D03*
X4637500Y-2387400D03*
X4636500Y-2515800D03*
X4637500Y-2258800D03*
X4721200Y-1907600D03*
X4669300Y-1880500D03*
X4669200Y-1934900D03*
X4772300Y-1881400D03*
X4770500Y-1931400D03*
X4772600Y-1721800D03*
X4772500Y-1842300D03*
X4513700Y-1839300D03*
X4512500Y-1942100D03*
X4772800Y-1422500D03*
X4773800Y-1599900D03*
X4772800Y-1297400D03*
X4563900Y-1168300D03*
X4563500Y-1104900D03*
X4562700Y-1235000D03*
X4628500Y-1169400D03*
X4721200Y-838600D03*
X4671300Y-814600D03*
X4769300Y-815000D03*
X4671700Y-861800D03*
X4769400Y-862300D03*
X4766800Y-910900D03*
Y-1032200D03*
X4915300Y-7391900D03*
X4812900Y-7214700D03*
X4911600Y-7214900D03*
X5101900Y-7504400D03*
X4927600Y-7504200D03*
X5034000Y-7391900D03*
X4819300D03*
X4911600Y-7117900D03*
X4812400D03*
X5009300Y-7117000D03*
X5108500Y-6014800D03*
X4975600Y-6061500D03*
Y-5965500D03*
X5033300Y-5700300D03*
Y-5604000D03*
Y-5508400D03*
Y-5410900D03*
X5033200Y-5219100D03*
X5033300Y-5314700D03*
X5035000Y-4827000D03*
Y-4731000D03*
X4980500Y-3825600D03*
X5089900Y-3310800D03*
X4962700Y-2997800D03*
X4965200Y-3135700D03*
X5089900Y-3190800D03*
X4866700Y-2997800D03*
X4844700Y-2887400D03*
Y-2759600D03*
X4866700Y-2648500D03*
X4962700D03*
X4984700Y-2759600D03*
X4912700Y-2290700D03*
X5067600Y-2462000D03*
X4912700Y-2450700D03*
X5067600Y-2342000D03*
X5018200Y-2117600D03*
X4852500Y-1842300D03*
X4852600Y-1721800D03*
X4992400Y-1850000D03*
X4992500Y-1738800D03*
X4853800Y-1599900D03*
X4852800Y-1422500D03*
Y-1297400D03*
X4997200Y-1121600D03*
X4846800Y-1032200D03*
Y-910900D03*
X4929800Y-180200D03*
X4951800Y-289300D03*
X4952800Y-393000D03*
X5017700Y-177000D03*
X5227900Y-7623300D03*
Y-7783300D03*
X5130000Y-7391900D03*
X5152700Y-7291800D03*
X5356000Y-7504400D03*
X5205000Y-7022000D03*
Y-7118000D03*
X5147400Y-6363600D03*
X5243400D03*
X5422400Y-5410900D03*
X5274400Y-5360900D03*
X5136600Y-4828000D03*
X5364900Y-5005800D03*
X5337900Y-4456300D03*
X5359900Y-4652800D03*
Y-4335000D03*
X5329900Y-4174400D03*
X5139300Y-4175600D03*
X5120600Y-3824400D03*
X5329900Y-3825400D03*
X5207400Y-3299500D03*
X5302000D03*
X5207400Y-3203500D03*
X5231900Y-2957400D03*
X5352800Y-2935300D03*
X5302000Y-3203500D03*
X5152300Y-2809400D03*
X5176600Y-2639100D03*
X5376600D03*
X5351600Y-2834400D03*
X5228900Y-2714800D03*
X5349400Y-2735600D03*
X5269200Y-2836100D03*
X5359000Y-2360600D03*
X5222300Y-2298700D03*
X5359000Y-2456600D03*
X5222300Y-2458700D03*
X5405100Y-1667200D03*
X5270100Y-1073400D03*
X5139200D03*
X5189400Y-1095000D03*
X5402200Y-1354200D03*
X5360700Y-463500D03*
X5389300Y-713200D03*
X5339800Y-657200D03*
X5409400Y-284900D03*
X5227500Y-177100D03*
X5149300Y-177000D03*
X5528800Y-7504400D03*
X5605000Y-7230000D03*
X5704900Y-7431700D03*
X5700000Y-6950000D03*
X5510000D03*
X5605000D03*
X5697000Y-6652000D03*
X5502000D03*
X5697000Y-6252000D03*
X5695100Y-6003100D03*
X5491000Y-6002100D03*
X5567000Y-6252000D03*
X5502000D03*
X5491000Y-5906100D03*
X5695100Y-5907100D03*
X5683100Y-5798600D03*
Y-5703500D03*
X5586100Y-5607100D03*
X5682100D03*
X5683100Y-5409500D03*
Y-5507700D03*
X5581900Y-5141300D03*
X5587100Y-5312900D03*
X5683100D03*
X5648200Y-4880700D03*
X5707500Y-4633900D03*
X5455900Y-4335000D03*
X5644500Y-4190900D03*
X5538600Y-3826800D03*
X5428100Y-3619700D03*
X5527300Y-3618700D03*
X5623100D03*
X5525800Y-3206600D03*
X5527300Y-3401700D03*
X5552900Y-3009400D03*
X5469800Y-2958300D03*
X5688400Y-2895500D03*
X5465500Y-2716500D03*
X5430000Y-2834800D03*
X5455700Y-2359600D03*
Y-2455600D03*
X5521600Y-2089200D03*
X5520900Y-2184400D03*
X5611900Y-1973400D03*
X5702100Y-2023900D03*
X5490700Y-1690800D03*
Y-1897000D03*
X5645600Y-1849000D03*
X5467000Y-1409600D03*
X5711700Y-1503000D03*
X5668000Y-1213400D03*
X5515700Y-1227200D03*
X5668000Y-1073400D03*
X5440500Y-1207900D03*
X5500800Y-1354200D03*
X5466900Y-996300D03*
X5710800Y-607500D03*
Y-511500D03*
X5614800Y-607500D03*
X5709800Y-416200D03*
X5700400Y-317000D03*
X5455900Y-398700D03*
X5573600Y-177000D03*
X5562800Y-177100D03*
X5700400Y-177000D03*
X5744000Y-7623300D03*
Y-7783300D03*
X5915800Y-7623300D03*
Y-7783300D03*
X5784900Y-7504400D03*
X5952400Y-7157400D03*
X5857400Y-7024300D03*
X5856400Y-7157400D03*
X5953400Y-7024300D03*
X5969700Y-6003700D03*
X5867000Y-5907700D03*
X5848300Y-5739000D03*
X5969700Y-5907700D03*
X6008300Y-5489000D03*
X5848300D03*
X5819400Y-5147300D03*
X6019400D03*
X5801500Y-4343900D03*
X5981100Y-4193700D03*
X5793700Y-4189300D03*
X5825600Y-3825600D03*
X5924100Y-3619700D03*
X5751100Y-2958700D03*
X5910000Y-3113500D03*
X6010100Y-3065900D03*
X5978500Y-3021600D03*
X6040700Y-3020300D03*
X5978500Y-3112600D03*
X6042400Y-3113400D03*
X5750000Y-3113500D03*
X5847100Y-2895500D03*
X5752100Y-2638400D03*
X5777600Y-2364100D03*
X5852300Y-2023200D03*
X5932800Y-1938500D03*
X5807700Y-1405400D03*
X5798000Y-1213400D03*
X5806700Y-1305800D03*
X5798000Y-1073400D03*
X6126200Y-7504400D03*
X6215000Y-7230000D03*
X6297200Y-7504400D03*
X6310000Y-6950000D03*
X6215000D03*
X6120000D03*
X6317000Y-6652000D03*
X6122000D03*
X6317000Y-6252000D03*
X6187000D03*
X6122000D03*
X6072300Y-6003700D03*
X6349600Y-5690300D03*
X6072300Y-5907700D03*
X6270000Y-5908700D03*
X6178200Y-5786700D03*
Y-5689400D03*
Y-5538800D03*
Y-5438800D03*
X6324400Y-5226600D03*
X6131000Y-5125000D03*
X6228800Y-5225400D03*
X6145000Y-4989000D03*
Y-4893000D03*
X6287100Y-4474700D03*
X6087100D03*
X6187100D03*
X6136000Y-3527800D03*
Y-3428700D03*
X6320200Y-2420900D03*
X6134300Y-1305800D03*
X6651500Y-7504400D03*
X6475600D03*
X6605000Y-7230000D03*
Y-6950000D03*
X6510000D03*
X6512000Y-6652000D03*
X6367100Y-6004700D03*
X6653100Y-6003700D03*
X6577000Y-6252000D03*
X6512000D03*
X6367100Y-5908700D03*
X6653100Y-5907700D03*
X6353500Y-5440300D03*
X6487100Y-4474700D03*
X6387100D03*
X6587100D03*
X6596100Y-3717200D03*
X6384100D03*
X6595100Y-3622000D03*
X6480100Y-3717200D03*
X6538000Y-2681000D03*
X6506300Y-2625700D03*
X6506000Y-2736800D03*
X6468600Y-2679600D03*
X6604800Y-2680900D03*
X6404700Y-1860000D03*
X6650000Y-300000D03*
X6786400Y-7623300D03*
Y-7783300D03*
X6962800Y-7623300D03*
Y-7783300D03*
X6748100Y-7504400D03*
X6828200Y-7431700D03*
X6864900Y-6956700D03*
X6959900Y-7157400D03*
X6960900Y-6956700D03*
X6863900Y-7157400D03*
X6700000Y-6950000D03*
X6707000Y-6652000D03*
X6853100Y-6004700D03*
X6707000Y-6252000D03*
X6853100Y-5908700D03*
X6850400Y-5525100D03*
X6750600Y-5408200D03*
X6850400Y-5197000D03*
X6750600Y-5312200D03*
X6696100Y-4193700D03*
X6912100Y-4176500D03*
X6850690Y-4175820D03*
X6883200Y-3826500D03*
X6690900Y-3622000D03*
X6803800Y-3680500D03*
X6899800D03*
X6692100Y-3717200D03*
X6938600Y-3422200D03*
X6939200Y-3327100D03*
X6939100Y-3123100D03*
X6913400Y-2894900D03*
X6912600Y-2685700D03*
X6816000D03*
X6869100Y-2047600D03*
X6897300Y-1591800D03*
X6795500Y-496100D03*
X7215000Y-7230000D03*
X7172800Y-7504400D03*
X7215000Y-6950000D03*
X7120000D03*
X7121600Y-6652000D03*
X7175700Y-6003700D03*
X7121600Y-6252000D03*
X7186600D03*
X7275700Y-5908700D03*
X7080000Y-5081000D03*
X7220000D03*
X7080000Y-4941000D03*
X7220000D03*
Y-4800000D03*
X7080000D03*
X7181000Y-4471000D03*
X7072000Y-4195000D03*
X7013500Y-3680500D03*
X7222500Y-3622000D03*
X7223500Y-3717200D03*
X7035200Y-3516500D03*
X7109500Y-3680500D03*
X7035200Y-3327100D03*
X7035100Y-3123100D03*
X7196900Y-2685700D03*
X7103900D03*
X7008700D03*
X7136300Y-2417100D03*
X7018000Y-2421200D03*
X7139500Y-2320200D03*
X7020400Y-2320400D03*
X7080000Y-2370000D03*
X7077000Y-1520000D03*
X7486900Y-7623300D03*
X7353400Y-7504400D03*
X7492000Y-7017400D03*
X7310000Y-6950000D03*
X7480000Y-6650000D03*
X7316600Y-6652000D03*
X7480000Y-6520000D03*
Y-6390000D03*
X7375700Y-6004700D03*
X7316600Y-6252000D03*
X7480000Y-6260000D03*
X7375700Y-5908700D03*
X7548000Y-5680000D03*
X7368000D03*
X7548000Y-5520000D03*
X7368000D03*
X7548000Y-5090000D03*
X7368000D03*
X7548000Y-4930000D03*
X7368000D03*
X7381000Y-4471000D03*
X7581000D03*
X7481000D03*
X7281000D03*
X7491700Y-4185100D03*
Y-3828400D03*
X7434100Y-3717200D03*
X7433100Y-3622000D03*
X7318500D03*
X7319500Y-3717200D03*
X7530100D03*
X7529100Y-3622000D03*
X7386200Y-3330600D03*
X7312900Y-3256100D03*
X7463300Y-3257400D03*
X7462000Y-3408900D03*
X7387400Y-3256200D03*
X7390900Y-3407100D03*
X7462400Y-3332200D03*
X7346200Y-2843400D03*
X7481300Y-2685700D03*
X7386300D03*
X7575900D03*
X7291400D03*
X7429400Y-397000D03*
X7525600Y-188500D03*
Y-397000D03*
X7331300D03*
X7377600Y-185800D03*
X7839300Y-7623300D03*
X7664000D03*
X7587000Y-7235000D03*
X7778400Y-6640500D03*
X7730000Y-6410000D03*
Y-6270000D03*
X7728000Y-5680000D03*
X7600000Y-5365000D03*
X7728000Y-5520000D03*
Y-5090000D03*
X7600000Y-5215000D03*
X7728000Y-4930000D03*
X7870000Y-4800000D03*
X7881000Y-4471000D03*
X7681000D03*
X7725000Y-4729000D03*
X7781000Y-4471000D03*
X7863400Y-3622000D03*
X7642400Y-3717200D03*
X7853900D03*
X7738400D03*
X7863400Y-3502000D03*
X7833100Y-3028800D03*
Y-3123100D03*
X7863200Y-2902000D03*
X7603000Y-2799200D03*
X7835400Y-2882900D03*
X7863200Y-2685700D03*
X7767100D03*
X7671500D03*
X7740100Y-2883700D03*
X7603000Y-2895200D03*
X7806200Y-590200D03*
X7626200Y-397000D03*
X7832900D03*
Y-188500D03*
X7882700Y-135300D03*
X7730100Y-397000D03*
X7806200Y-281800D03*
X8013600Y-7623300D03*
X8155000Y-7277000D03*
X7979700Y-6938700D03*
X8035150Y-7081930D03*
X8189050Y-7023700D03*
X8105870Y-7011220D03*
X7979700Y-6767600D03*
X7897300Y-6849600D03*
X8056500Y-6847900D03*
X7980000Y-6850000D03*
X7926260Y-6619480D03*
X7908000Y-5680000D03*
X8124000Y-5558000D03*
Y-5458000D03*
X7927000Y-5365000D03*
X7908000Y-5520000D03*
X7927000Y-5215000D03*
X8124000Y-5158000D03*
Y-5058000D03*
X7908000Y-5090000D03*
X8124000Y-5358000D03*
Y-5258000D03*
X8150000Y-4800000D03*
X7908000Y-4930000D03*
X8010000Y-4800000D03*
X8150000Y-4660000D03*
X7989000Y-4195000D03*
X7949900Y-3717200D03*
X8141300Y-3116300D03*
X8015100D03*
X7960800Y-2902000D03*
X8153600D03*
X8057600Y-2684700D03*
X7960800D03*
X8152400Y-2685700D03*
X8123500Y-2422200D03*
X8123300Y-2367900D03*
X7949900Y-2422600D03*
X7949200Y-2366600D03*
X8040000Y-2395000D03*
X8125900Y-872400D03*
X8125100Y-820100D03*
X7959400Y-874100D03*
X7958200Y-816500D03*
X8040000Y-845000D03*
X7926800Y-590200D03*
X7933400Y-188500D03*
Y-397000D03*
X8345000Y-7177000D03*
X8211930Y-6905150D03*
X8214760Y-6792020D03*
X8455500Y-5692300D03*
X8405000Y-5667000D03*
X8455100Y-5641000D03*
X8290000Y-4800000D03*
X8405000Y-4952000D03*
X8352700Y-4924300D03*
X8457300Y-4924500D03*
X8353900Y-4978000D03*
X8457300Y-4978500D03*
X8337700Y-4600400D03*
X8345000Y-2901000D03*
X8249800Y-2902000D03*
Y-2684700D03*
X8440300Y-2685700D03*
X8345000D03*
G54D13*
X849600Y-4755100D03*
X902300Y-4755700D03*
X809000Y-4836300D03*
X826000Y-4727800D03*
X923700Y-4726400D03*
X873800Y-4727700D03*
X1045800Y-1812600D03*
X1281500Y-6438400D03*
X1377500D03*
X1384800Y-6238900D03*
X1383800Y-6138800D03*
X1582200Y-6336100D03*
X1682100D03*
X1480800Y-6238900D03*
X1479800Y-6138800D03*
X1584100Y-6038400D03*
X1582200Y-6240100D03*
X1680100Y-6038400D03*
X1480600Y-5738900D03*
X1580400Y-5838500D03*
X1480600Y-5538800D03*
Y-5438600D03*
X1480100Y-5238600D03*
Y-5038600D03*
X1682100Y-5036900D03*
Y-4940900D03*
X1580000Y-4639000D03*
X1480200Y-4738500D03*
X1795900Y-7492700D03*
X1781800Y-6335100D03*
X1982200D03*
X1781800Y-6239100D03*
X1982200D03*
X1882100Y-6136400D03*
Y-6040400D03*
X1980000Y-5938800D03*
X1884300Y-5739300D03*
X1884000Y-5938800D03*
X1980300Y-5739300D03*
X1884300Y-5638500D03*
Y-5538900D03*
Y-5438900D03*
X1980300Y-5538900D03*
Y-5638500D03*
Y-5438900D03*
X1884300Y-5338800D03*
Y-5238800D03*
Y-5138700D03*
X1741000Y-5161900D03*
X1980300Y-5138700D03*
Y-5238800D03*
Y-5338800D03*
X1984300Y-4938400D03*
X1782100Y-4936300D03*
X1881400D03*
X1884300Y-5039300D03*
X1782100Y-4840300D03*
X1881400D03*
X1980300Y-5039300D03*
X1785800Y-4639000D03*
X1981900Y-4741600D03*
X2082000Y-6335100D03*
X2182200Y-6136500D03*
X2082000Y-6239100D03*
X2182200Y-6040500D03*
X2282100Y-5836400D03*
X2182400D03*
X2082300D03*
X2282100Y-5740400D03*
X2182400D03*
X2082300D03*
X2222600Y-5538600D03*
X2082600D03*
X2222600Y-5337300D03*
X2082600D03*
X2082300Y-5136300D03*
X2280400Y-5038900D03*
X2082300Y-5040300D03*
X2184400Y-5038900D03*
X2284200Y-4939100D03*
X2283200Y-4838400D03*
X2080300Y-4938400D03*
X2182100Y-4536600D03*
X2082100Y-4737000D03*
Y-4641000D03*
X2182100Y-4440400D03*
X2588400Y-7736200D03*
X2481600Y-6335100D03*
X2582200D03*
X2481600Y-6239100D03*
X2582200D03*
X2584400Y-6038700D03*
X2482300Y-5836400D03*
X2381900D03*
X2585400Y-5938400D03*
X2482300Y-5740400D03*
X2381900D03*
X2343400Y-5538600D03*
X2483400D03*
X2584000Y-5438600D03*
Y-5538600D03*
X2584200Y-5638500D03*
X2487300Y-5138600D03*
X2343400Y-5337300D03*
X2483400D03*
X2584000Y-5238600D03*
Y-5338600D03*
X2380200Y-4939100D03*
X2585400Y-4781300D03*
X2390300Y-5039100D03*
X2380200Y-4738700D03*
X2625800Y-4445700D03*
X2612200Y-4486400D03*
X2608600Y-4554400D03*
X2487700Y-4685300D03*
X2781900Y-6335100D03*
Y-6239100D03*
X2883700Y-6138400D03*
X2680400Y-6038700D03*
X2779600Y-5738700D03*
X2681400Y-5938400D03*
X2683600Y-5738700D03*
X2884700Y-5938400D03*
X2680000Y-5438600D03*
Y-5538600D03*
X2680200Y-5638500D03*
X2680000Y-5238600D03*
Y-5338600D03*
X2781600Y-4934500D03*
Y-4838500D03*
X2673800Y-4459200D03*
X2722800Y-4472900D03*
X2882000Y-4640700D03*
Y-4736700D03*
X2673600Y-4364400D03*
X3010500Y-6618200D03*
X2979700Y-6138400D03*
X2980700Y-5938400D03*
X3084200Y-5638700D03*
Y-5438700D03*
X3180200Y-5638700D03*
Y-5438700D03*
X3184300Y-5238900D03*
X3084200Y-5338800D03*
X3180200D03*
X3084000Y-4838600D03*
X3084200Y-5039000D03*
X3180000Y-4838600D03*
X3180200Y-5039000D03*
X3079800Y-4938600D03*
X2983800D03*
X3257800Y-4705500D03*
Y-4569600D03*
X3544600Y-6884500D03*
Y-6684500D03*
Y-6784500D03*
Y-6634500D03*
Y-6734500D03*
Y-6834500D03*
Y-6534500D03*
X3425600Y-6501800D03*
X3544600Y-6334500D03*
Y-6384500D03*
Y-6234500D03*
Y-6284500D03*
X3282300Y-5936800D03*
Y-5840800D03*
X3280300Y-5238900D03*
X3554100Y-4435200D03*
X3320800D03*
X3739600Y-5756100D03*
X3638100D03*
X3738600Y-5620900D03*
X3637100D03*
X3761600Y-5181400D03*
X3637100D03*
X3613500Y-4989300D03*
X4558500Y-6258000D03*
X4883500D03*
X4818500D03*
X4948500D03*
X4968860Y-5839430D03*
X5272400Y-5574600D03*
Y-5624600D03*
X5372200Y-1409800D03*
X5377200Y-515100D03*
X5265900Y-463700D03*
X5344600Y-412400D03*
X5422400Y-5310900D03*
X5719700Y-3352300D03*
X5605000Y-2556600D03*
X5580600Y-1505500D03*
X5562200Y-1474800D03*
Y-1344800D03*
X5474200Y-559400D03*
X5455900Y-528700D03*
X6008300Y-5739000D03*
X5815700Y-3352300D03*
X6013100Y-2406600D03*
X6013150Y-2178850D03*
X6020600Y-2099800D03*
X5860200Y-2260400D03*
Y-2179700D03*
X5930200D03*
Y-2260400D03*
X5932800Y-1842500D03*
X5793400Y-1779000D03*
X5996400Y-1699900D03*
X6011900Y-1459200D03*
X5941900D03*
X6020600Y-1619400D03*
X5969500Y-900400D03*
X5890400Y-819800D03*
X5969500Y-970400D03*
X5960400Y-819800D03*
X5889700Y-740000D03*
X5933800Y-468500D03*
X5889700Y-670000D03*
X6003800Y-468500D03*
X5889500Y-341400D03*
Y-411400D03*
X6270000Y-6004700D03*
X6172000Y-2179500D03*
X6331800D03*
X6250200Y-2099600D03*
X6090600Y-2099800D03*
X6180200Y-2099600D03*
X6331800Y-2249500D03*
X6332100Y-2089300D03*
X6180200Y-2019900D03*
X6172000Y-2249500D03*
X6250200Y-2019900D03*
X6332100Y-2019300D03*
X6092800Y-1940800D03*
X6180200Y-1939900D03*
Y-1859100D03*
Y-1783300D03*
X6340200Y-1939800D03*
Y-1779900D03*
X6092800Y-1844800D03*
X6252000Y-1698500D03*
X6332000D03*
X6250200Y-1783300D03*
Y-1859100D03*
X6252100Y-1543300D03*
X6332000D03*
Y-1473300D03*
X6252000D03*
X6332000Y-1628500D03*
X6252000D03*
X6131800Y-1532000D03*
Y-1462000D03*
X6090600Y-1619400D03*
X6326200Y-1061900D03*
X6338500Y-815700D03*
X6240100Y-915000D03*
X6049800Y-825500D03*
X6170100Y-915000D03*
X6049800Y-895500D03*
X6242500Y-815700D03*
X6330500Y-433900D03*
X6049900Y-259900D03*
X6210000D03*
Y-329900D03*
X6049900D03*
X6328400Y-162900D03*
X6260500Y-433900D03*
X6651900Y-2406700D03*
X6411200Y-2180400D03*
X6412200Y-2100600D03*
X6571900Y-2019300D03*
X6651400D03*
X6571900Y-2180400D03*
X6492200Y-2100600D03*
X6651900Y-2250900D03*
X6651400Y-2089300D03*
X6571900D03*
X6492200Y-2030600D03*
X6412200D03*
X6651900Y-2180900D03*
X6651500Y-1940000D03*
Y-1859900D03*
X6492400Y-1779900D03*
Y-1939800D03*
X6410200Y-1779900D03*
Y-1939800D03*
X6500700Y-1860000D03*
X6562400Y-1779900D03*
Y-1939800D03*
X6412000Y-1698500D03*
X6492100D03*
X6572200D03*
X6652000D03*
X6652200Y-1380900D03*
X6652000Y-1543300D03*
X6572200D03*
X6412000D03*
X6652000Y-1473300D03*
X6572200D03*
X6492100D03*
X6412000D03*
X6652000Y-1628500D03*
X6572200D03*
X6492100D03*
X6412000D03*
X6482200Y-1380200D03*
X6509600Y-1062900D03*
X6447900Y-1061900D03*
X6652200Y-1310900D03*
X6387400Y-1062900D03*
Y-992900D03*
X6492500Y-468500D03*
X6449800Y-740800D03*
X6530300Y-659700D03*
X6562500Y-468500D03*
X6530300Y-589700D03*
X6449800Y-670800D03*
X6608400Y-343700D03*
X6398400Y-162900D03*
X6449300D03*
X6608400Y-413700D03*
X6640200Y-162900D03*
X6519300D03*
X6570200D03*
X6913400Y-2798900D03*
X6816000Y-2589700D03*
X6912600D03*
X6892000Y-2420000D03*
X6732000D03*
X6815600Y-2179700D03*
X6885600Y-2259700D03*
Y-2179700D03*
X6811800Y-1940100D03*
X6817500Y-1819400D03*
X6721500Y-1940000D03*
Y-1859900D03*
X6736600Y-1739400D03*
X6807300Y-1498300D03*
X6889300Y-1420100D03*
X6819300D03*
X6732000Y-1549700D03*
Y-1619700D03*
X6759900Y-1065000D03*
X6812100Y-1301500D03*
X6769800Y-815100D03*
X6889000Y-919200D03*
X6819000D03*
X6769800Y-745100D03*
X6700600Y-994000D03*
X6809700Y-162900D03*
X6770200Y-343600D03*
X6690400Y-343700D03*
X6760000Y-260100D03*
X6770100Y-413700D03*
X6690400D03*
X6739700Y-162900D03*
X6690000Y-260100D03*
X7008700Y-2589700D03*
X7103900D03*
X7196900D03*
X7174700Y-1720000D03*
Y-1820000D03*
X7077000Y-1420000D03*
Y-1620000D03*
Y-1320000D03*
Y-1120000D03*
Y-1220000D03*
Y-1020000D03*
X7122100Y-899800D03*
X7129900Y-837300D03*
X7026500Y-903800D03*
X7024600Y-834600D03*
X7080000Y-870000D03*
X7188800Y-591000D03*
X7050000Y-562500D03*
X7188800Y-671000D03*
X7050000Y-632500D03*
X7009900Y-259900D03*
X7079900D03*
X7575900Y-2520100D03*
X7386300Y-2520500D03*
X7558100Y-621200D03*
X7311200Y-671000D03*
X7433000D03*
X7280000Y-655000D03*
X7558100Y-701200D03*
X7311200Y-591000D03*
X7433000D03*
X7886660Y-7049400D03*
X7600000Y-7125000D03*
X7815950Y-6978690D03*
X7851310Y-7014050D03*
X7745240Y-6907980D03*
X7753020Y-6792720D03*
X7703000Y-2798500D03*
X7880000Y-2605000D03*
X7863200Y-2806000D03*
X7766600Y-2520300D03*
X7671500Y-2521200D03*
X7863200Y-2520500D03*
X7806200Y-670200D03*
X7686200Y-671000D03*
X7880000Y-655000D03*
X7686200Y-591000D03*
X8073340Y-6650600D03*
X8037980Y-6615240D03*
X8108690Y-6685950D03*
X8179400Y-6756660D03*
X8144050Y-6721310D03*
X8015100Y-3212300D03*
X8141300D03*
X7960800Y-2806000D03*
X8153600D03*
X8152400Y-2589700D03*
X7926800Y-670200D03*
X8249800Y-2806000D03*
X8345000Y-2805000D03*
X8440300Y-2589700D03*
X8249800Y-2588700D03*
X8430000Y-655000D03*
M02*
