G04 ================== begin FILE IDENTIFICATION RECORD ==================*
G04 Layout Name:  G:/github/PLL_FM_HW/PCB/FMDEMOD-57.brd*
G04 Film Name:    PWR-L6*
G04 File Format:  Gerber RS274X*
G04 File Origin:  Cadence Allegro 17.4-S017*
G04 Origin Date:  Tue Oct 26 10:38:27 2021*
G04 *
G04 Layer:  VIA CLASS/PWR-L6*
G04 Layer:  PIN/PWR-L6*
G04 Layer:  ETCH/PWR-L6*
G04 *
G04 Offset:    (0.0000 0.0000)*
G04 Mirror:    No*
G04 Mode:      Positive*
G04 Rotation:  0*
G04 FullContactRelief:  No*
G04 UndefLineWidth:     0.2540*
G04 ================== end FILE IDENTIFICATION RECORD ====================*
%FSLAX25Y25*MOMM*%
%IR0*IPPOS*OFA0.00000B0.00000*MIA0B0*SFA1.00000B1.00000*%
%ADD13C,.3*%
%ADD12C,.4*%
%ADD11C,1.7*%
%ADD10C,3.8*%
%ADD14C,.1*%
%ADD15C,.2*%
%ADD16C,.22*%
%ADD17C,.5*%
%ADD18C,.25*%
%ADD19C,.26*%
%ADD20C,.36*%
%ADD21C,.38*%
%ADD24C,.9004*%
%ADD22C,1.0004*%
%ADD23C,2.3004*%
%ADD26C,1.5004*%
%ADD25C,1.6004*%
G75*
%LPD*%
G75*
G36*
G01X156200Y-5999000D02*
X1004500D01*
X1053300Y-6047800D01*
Y-6858600D01*
X1138400Y-6943700D01*
Y-6962960D01*
X1138380Y-6962980D01*
Y-7339480D01*
X1115980Y-7361880D01*
X1043280D01*
X923280Y-7481880D01*
Y-7846000D01*
X485820D01*
G02X477620Y-7829840I1J10161D01*
G03X520020Y-7700000I-177618J129845D01*
G03X300000Y-7479980I-220020J0D01*
G03X172260Y-7520860I0J-220018D01*
G02X156200Y-7512590I-5900J8271D01*
G01Y-7141130D01*
G02X172980Y-7133420I10160J3D01*
G03X205600Y-7145520I32620J37920D01*
G03Y-7045480I0J50020D01*
G03X172980Y-7057580I0J-50020D01*
G02X156200Y-7049870I-6620J7707D01*
G01Y-5999000D01*
G37*
G36*
G01X136900Y-4574800D02*
X471000D01*
X614300Y-4718100D01*
X896400D01*
X919800Y-4741500D01*
X1133400D01*
X1181300Y-4789400D01*
Y-6546800D01*
X1226500Y-6592000D01*
X1820900D01*
X1836400Y-6607500D01*
Y-6816200D01*
X1792900Y-6859700D01*
X1315200D01*
X1224300Y-6768800D01*
X1121400D01*
X1103320Y-6750720D01*
Y-6027080D01*
X1088300Y-6012060D01*
Y-6007700D01*
X1023900Y-5943300D01*
X141700D01*
X118500Y-5920100D01*
Y-4593200D01*
X136900Y-4574800D01*
G37*
G36*
G01X150000Y-2455000D02*
X190000D01*
G02X200000Y-2465000I0J-10000D01*
G01Y-2513220D01*
G02X194140Y-2527360I-19998J4D01*
G01X172860Y-2548640D01*
G03X167000Y-2562780I14140J-14144D01*
G01Y-2626220D01*
G03X172860Y-2640360I20001J5D01*
G01X211740Y-2679240D01*
G02X217600Y-2693380I-14142J-14145D01*
G01Y-2924500D01*
G03X237600Y-2944500I20000J0D01*
G01X332920D01*
G02X347060Y-2950360I-9J-20011D01*
G01X348840Y-2952140D01*
G03X362970Y-2958000I14142J14134D01*
G01X534700D01*
G02X554700Y-2978000I0J-20000D01*
G01Y-3349720D01*
G03X560560Y-3363860I20000J4D01*
G01X626340Y-3429640D01*
G03X640480Y-3435500I14145J14141D01*
G01X1069900D01*
G02X1089900Y-3455500I0J-20000D01*
G01Y-3865300D01*
G02X1069900Y-3885300I-20000J0D01*
G01X653700D01*
G02X633700Y-3865300I0J20000D01*
G01Y-3606980D01*
G03X627840Y-3592840I-20000J-4D01*
G01X440360Y-3405360D01*
G03X426220Y-3399500I-14144J-14140D01*
G01X151600D01*
G02X131600Y-3379500I0J20000D01*
G01Y-2929930D01*
G03X131010Y-2928510I-2000J2D01*
G01X127590Y-2925090D01*
G02X127000Y-2923670I1410J1418D01*
G01Y-2562780D01*
G02X132860Y-2548640I20008J-7D01*
G01X134150Y-2547350D01*
G03X140000Y-2533230I-14163J14140D01*
G01Y-2465000D01*
G02X150000Y-2455000I10000J0D01*
G37*
G36*
G01X3217100Y-1435600D02*
X3396900D01*
G02X3416900Y-1455600I0J-20000D01*
G01Y-1457100D01*
G02X3396900Y-1477100I-20000J0D01*
G01X3332280D01*
G03X3318140Y-1482960I3J-19998D01*
G01X3284760Y-1516340D01*
G03X3278900Y-1530480I14139J-14144D01*
G01Y-1772600D01*
G03X3298900Y-1792600I20000J0D01*
G01X4079200D01*
G03X4099200Y-1772600I0J20000D01*
G01Y-1707400D01*
G02X4109200Y-1697400I10000J0D01*
G01X4158500D01*
G02X4168500Y-1707400I0J-10000D01*
G01Y-2563700D01*
G02X4148500Y-2583700I-20000J0D01*
G01X3963200D01*
G02X3943200Y-2563700I0J20000D01*
G01Y-2559600D01*
G02X3963200Y-2539600I20000J0D01*
G01X4007220D01*
G03X4021360Y-2533740I-4J19999D01*
G01X4084640Y-2470460D01*
G03X4090500Y-2456320I-14140J14144D01*
G01Y-2229000D01*
G03X4070500Y-2209000I-20000J0D01*
G01X3292000D01*
G03X3272000Y-2229000I0J-20000D01*
G01Y-2298200D01*
G02X3262000Y-2308200I-10000J0D01*
G01X3222000D01*
G02X3212000Y-2298200I0J10000D01*
G01Y-2229000D01*
G03X3192000Y-2209000I-20000J0D01*
G01X3153300D01*
G03X3133300Y-2229000I0J-20000D01*
G01Y-2563700D01*
G02X3113300Y-2583700I-20000J0D01*
G01X2933200D01*
G02X2913200Y-2563700I0J20000D01*
G01Y-2559600D01*
G02X2933200Y-2539600I20000J0D01*
G01X2977320D01*
G03X2991460Y-2533740I-4J19999D01*
G01X3049440Y-2475760D01*
G03X3055300Y-2461620I-14140J14144D01*
G01Y-2229000D01*
G03X3035300Y-2209000I-20000J0D01*
G01X2269700D01*
G03X2249700Y-2229000I0J-20000D01*
G01Y-2298200D01*
G02X2239700Y-2308200I-10000J0D01*
G01X2199700D01*
G02X2189700Y-2298200I0J10000D01*
G01Y-2229000D01*
G03X2169700Y-2209000I-20000J0D01*
G01X2127200D01*
G03X2107200Y-2229000I0J-20000D01*
G01Y-2563700D01*
G02X2087200Y-2583700I-20000J0D01*
G01X1920800D01*
G02X1900800Y-2563700I0J20000D01*
G01Y-2559600D01*
G02X1920800Y-2539600I20000J0D01*
G01X1948920D01*
G03X1963060Y-2533740I-5J20002D01*
G01X2030240Y-2466560D01*
G03X2036100Y-2452420I-14140J14144D01*
G01Y-2229000D01*
G03X2016100Y-2209000I-20000J0D01*
G01X1241300D01*
G03X1221300Y-2229000I0J-20000D01*
G01Y-2298200D01*
G02X1211300Y-2308200I-10000J0D01*
G01X1171300D01*
G02X1161300Y-2298200I0J10000D01*
G01Y-2229000D01*
G03X1141300Y-2209000I-20000J0D01*
G01X1107900D01*
G03X1087900Y-2229000I0J-20000D01*
G01Y-2563700D01*
G02X1067900Y-2583700I-20000J0D01*
G01X894600D01*
G02X884600Y-2573700I0J10000D01*
G01Y-2549600D01*
G02X894600Y-2539600I10000J0D01*
G01X899950D01*
G03X907030Y-2536670I11J9993D01*
G01X968840Y-2474860D01*
G02X982980Y-2469000I14145J-14141D01*
G01X1017900D01*
G03X1037900Y-2449000I0J20000D01*
G01Y-2229000D01*
G03X1017900Y-2209000I-20000J0D01*
G01X220000D01*
G03X200000Y-2229000I0J-20000D01*
G01Y-2298200D01*
G02X190000Y-2308200I-10000J0D01*
G01X150000D01*
G02X140000Y-2298200I0J10000D01*
G01Y-2241350D01*
G03X137070Y-2234270I-9997J9D01*
G01X130630Y-2227830D01*
G02X127700Y-2220760I7071J7073D01*
G01Y-1812500D01*
X124500Y-1809300D01*
Y-1455600D01*
G02X144500Y-1435600I20000J0D01*
G01X310200D01*
G02X330200Y-1455600I0J-20000D01*
G01Y-1457100D01*
G02X310200Y-1477100I-20000J0D01*
G01X268880D01*
G03X254740Y-1482960I4J-20001D01*
G01X203260Y-1534440D01*
G03X197400Y-1548580I14141J-14145D01*
G01Y-1772600D01*
G03X217400Y-1792600I20000J0D01*
G01X1004800D01*
G03X1024800Y-1772600I0J20000D01*
G01Y-1707400D01*
G02X1034800Y-1697400I10000J0D01*
G01X1074800D01*
G02X1084800Y-1707400I0J-10000D01*
G01Y-1772600D01*
G03X1104800Y-1792600I20000J0D01*
G01X1125300D01*
G03X1145300Y-1772600I0J20000D01*
G01Y-1455600D01*
G02X1165300Y-1435600I20000J0D01*
G01X1341200D01*
G02X1361200Y-1455600I0J-20000D01*
G01Y-1457100D01*
G02X1341200Y-1477100I-20000J0D01*
G01X1279280D01*
G03X1265140Y-1482960I4J-19999D01*
G01X1232260Y-1515840D01*
G03X1226400Y-1529980I14138J-14143D01*
G01Y-1772600D01*
G03X1246400Y-1792600I20000J0D01*
G01X2027500D01*
G03X2047500Y-1772600I0J20000D01*
G01Y-1707400D01*
G02X2057500Y-1697400I10000J0D01*
G01X2097500D01*
G02X2107500Y-1707400I0J-10000D01*
G01Y-1772600D01*
G03X2127500Y-1792600I20000J0D01*
G01X2153800D01*
G03X2173800Y-1772600I0J20000D01*
G01Y-1455600D01*
G02X2193800Y-1435600I20000J0D01*
G01X2368200D01*
G02X2388200Y-1455600I0J-20000D01*
G01Y-1457100D01*
G02X2368200Y-1477100I-20000J0D01*
G01X2304180D01*
G03X2290040Y-1482960I5J-20002D01*
G01X2262360Y-1510640D01*
G03X2256500Y-1524780I14141J-14145D01*
G01Y-1772600D01*
G03X2276500Y-1792600I20000J0D01*
G01X3053700D01*
G03X3073700Y-1772600I0J20000D01*
G01Y-1707400D01*
G02X3083700Y-1697400I10000J0D01*
G01X3123700D01*
G02X3133700Y-1707400I0J-10000D01*
G01Y-1772600D01*
G03X3153700Y-1792600I20000J0D01*
G01X3177100D01*
G03X3197100Y-1772600I0J20000D01*
G01Y-1455600D01*
G02X3217100Y-1435600I20000J0D01*
G37*
G36*
G01X549600Y-4115300D02*
X1241900D01*
X1248100Y-4121500D01*
Y-4436200D01*
X1207800D01*
X1183700Y-4460300D01*
Y-4476160D01*
X1129280Y-4530580D01*
X1097240D01*
X1096710Y-4530460D01*
G03X1087560Y-4529480I-9130J-42042D01*
G01X1000020D01*
G03X974500Y-4522480I-25520J-43019D01*
G03Y-4622520I0J-50020D01*
G03X1000020Y-4615520I0J50019D01*
G01X1078980D01*
X1079510Y-4615640D01*
G03X1088660Y-4616620I9130J42042D01*
G01X1147100D01*
G03X1168490Y-4610930I7J43022D01*
G02X1183700Y-4619740I5052J-8813D01*
G01Y-4669400D01*
X1168100Y-4685000D01*
X934400D01*
X917500Y-4668100D01*
X917140D01*
X917120Y-4668080D01*
X678280D01*
X539800Y-4529600D01*
Y-4125100D01*
X549600Y-4115300D01*
G37*
G36*
G01X671800Y-128900D02*
X1079000D01*
G02X1097800Y-142080I0J-19998D01*
G01Y-1433600D01*
X1084800Y-1446600D01*
Y-1456700D01*
Y-1504200D01*
Y-1534200D01*
G02X1064800Y-1554200I-20000J0D01*
G01X1044800D01*
G02X1024800Y-1534200I0J20000D01*
G01Y-1417980D01*
G02X1030660Y-1403840I20000J-4D01*
G01X1051940Y-1382560D01*
G03X1057800Y-1368420I-14138J14144D01*
G01Y-1230310D01*
G03X1043160Y-1194960I-50000J-1D01*
G01X911640Y-1063440D01*
G03X876290Y-1048800I-35351J-35360D01*
G01X671800D01*
G02X651800Y-1028800I0J20000D01*
G01Y-148900D01*
G02X671800Y-128900I20000J0D01*
G37*
G36*
G01X1770300Y-7591800D02*
X2296200D01*
X2297500Y-7590500D01*
X2559700D01*
X2580400Y-7569800D01*
Y-7444000D01*
X2587700Y-7436700D01*
X2693900D01*
X2695400Y-7438200D01*
X2695500D01*
X2770300Y-7363400D01*
X2936500D01*
X3020400Y-7447300D01*
Y-7846000D01*
X973300D01*
Y-7502600D01*
X1064000Y-7411900D01*
X1136700D01*
X1188400Y-7360200D01*
Y-6983700D01*
X1245500Y-6926600D01*
X1699700D01*
X1737200Y-6964100D01*
Y-7558700D01*
X1770300Y-7591800D01*
G37*
G36*
G01X2530380Y-7448820D02*
G02X2515340Y-7457730I-10158J-2D01*
G03X2495810Y-7451780I-24037J-43869D01*
G01X2491200Y-7447080D01*
G03X2488520Y-7434100I-49897J-3536D01*
G02X2494010Y-7421460I9591J3346D01*
G03X2523820Y-7375700I-20217J45760D01*
G03X2508960Y-7340120I-50025J0D01*
G02X2508790Y-7325840I7140J7226D01*
G03X2522820Y-7291100I-35995J34740D01*
G03X2508850Y-7256420I-50031J0D01*
G01X2507430Y-7252900D01*
X2508870Y-7249360D01*
G03X2523020Y-7214500I-35866J34860D01*
G03X2490880Y-7167790I-50013J0D01*
G02X2485330Y-7153960I3637J9488D01*
G03X2489750Y-7138640I-45234J21348D01*
G03X2534520Y-7088900I-5246J49740D01*
G03X2484500Y-7038880I-50020J0D01*
G03X2434850Y-7082860I0J-50015D01*
G03X2402220Y-7099940I5251J-49741D01*
G02X2386770Y-7099870I-7695J6635D01*
G03X2348600Y-7082180I-38170J-32335D01*
G03X2341710Y-7082660I23J-50018D01*
G02X2330460Y-7075110I-1405J10064D01*
G03X2282000Y-7037480I-48460J-12388D01*
G03X2233710Y-7074470I0J-50016D01*
G02X2221110Y-7081600I-9813J2642D01*
G03X2207400Y-7079680I-13725J-48098D01*
G03X2170390Y-7096050I0J-50022D01*
G02X2156900Y-7097430I-7515J6836D01*
G03X2132050Y-7088090I-29392J-40473D01*
G02X2127440Y-7083310I464J5060D01*
G03X2077500Y-7036080I-49940J-2788D01*
G03X2027480Y-7086100I0J-50020D01*
G03X2072950Y-7135910I50017J0D01*
G02X2077560Y-7140690I-464J-5060D01*
G03X2079550Y-7152140I49942J2782D01*
G02X2073450Y-7164510I-9741J-2886D01*
G03X2041380Y-7211200I17952J-46690D01*
G01Y-7211210D01*
G03X2048270Y-7236540I50022J4D01*
G02X2045450Y-7249920I-8761J-5141D01*
G03X2024680Y-7290500I29257J-40580D01*
G03X2047360Y-7332390I50025J0D01*
G02X2050090Y-7346770I-5555J-8504D01*
G03X2040880Y-7375690I40812J-28924D01*
G01Y-7375700D01*
G03X2069070Y-7420700I50012J0D01*
G02X2074200Y-7433260I-4439J-9141D01*
G03X2071280Y-7449800I47099J-16843D01*
G03X2022780Y-7499800I1523J-50000D01*
G01Y-7499820D01*
G03X2030340Y-7526250I50022J12D01*
G02X2021720Y-7541780I-8622J-5372D01*
G01X1791020D01*
X1787220Y-7537980D01*
Y-6943380D01*
X1763170Y-6919330D01*
X1772780Y-6909720D01*
X1813620D01*
X1845040Y-6878300D01*
X1875800D01*
X1965800Y-6788300D01*
Y-6606500D01*
X1927400Y-6568100D01*
X1867740D01*
X1846330Y-6546700D01*
G02X1849560Y-6530160I7186J7182D01*
G03X1877020Y-6488700I-17569J41460D01*
G03X1786980I-45020J0D01*
G03X1803910Y-6523880I45016J0D01*
G02X1797570Y-6541980I-6339J-7940D01*
G01X1566430D01*
G02X1560090Y-6523880I-1J10160D01*
G03X1577020Y-6488700I-28086J35180D01*
G03X1486980I-45020J0D01*
G03X1503910Y-6523880I45016J0D01*
G02X1497570Y-6541980I-6339J-7940D01*
G01X1247220D01*
X1231320Y-6526080D01*
Y-4768680D01*
X1208270Y-4745630D01*
X1233800Y-4720100D01*
Y-4690300D01*
X1292500Y-4631600D01*
Y-4553500D01*
X1251000Y-4512000D01*
X1233720D01*
Y-4486220D01*
X1298120D01*
Y-4376980D01*
G02X1315460Y-4369800I10159J-7D01*
G01X1354480Y-4408820D01*
X1776220D01*
X1825970Y-4359070D01*
X2058670D01*
X2073140Y-4344600D01*
X2152460D01*
X2186000Y-4378130D01*
G02X2179420Y-4395460I-7185J-7186D01*
G03X2137080Y-4440400I2680J-44940D01*
G03X2182100Y-4485420I45020J0D01*
G03X2227040Y-4443080I0J45020D01*
G02X2244370Y-4436500I10144J-605D01*
G01X2270480Y-4462620D01*
X2780680D01*
X2820480Y-4502420D01*
X3029320D01*
X3106640Y-4425100D01*
X3231780D01*
Y-4478020D01*
X3264280Y-4510520D01*
X3327380D01*
Y-4924680D01*
X3217980Y-5034080D01*
X3049820D01*
X3034090Y-5018350D01*
X3100020Y-4952420D01*
Y-4876380D01*
X3056300Y-4832660D01*
G02X3063480Y-4815320I7187J7181D01*
G01X3068320D01*
X3112720Y-4770920D01*
Y-4747210D01*
G03X3113500Y-4737490I-60181J9721D01*
G01Y-4631900D01*
X3032700D01*
X3013700Y-4612900D01*
X2438700D01*
Y-4613800D01*
X2433100Y-4619400D01*
X2323560D01*
X2199160Y-4743800D01*
X1966300D01*
X1965500Y-4744600D01*
X1954540D01*
X1886040Y-4676100D01*
X1612960D01*
X1524910Y-4764150D01*
X1524970Y-4765190D01*
X1508490Y-4781670D01*
X1507450Y-4781610D01*
X1384400Y-4904660D01*
Y-5008200D01*
G03X1385180Y-5017500I55880J4D01*
G01Y-5071750D01*
G03X1384400Y-5081470I60180J-9721D01*
G01Y-5125440D01*
X1459260Y-5200300D01*
X1516280D01*
Y-5716280D01*
X1458700Y-5773860D01*
Y-6022140D01*
X1502880Y-6066320D01*
Y-6113140D01*
X1493120Y-6124270D01*
X1559910Y-6191050D01*
G02X1556350Y-6203240I-9393J-3872D01*
G03X1537180Y-6240100I25852J-36860D01*
G03X1627220I45020J0D01*
G01Y-6240050D01*
G03X1626050Y-6229880I-45023J-27D01*
G02X1632040Y-6218200I9894J2302D01*
G01X1753320D01*
X1769280Y-6234160D01*
X1881990Y-6121450D01*
X2101110D01*
G03X2163700Y-6120670I30892J32757D01*
G01X2200300D01*
G03X2212960Y-6129490I31684J31982D01*
G02Y-6147910I-4301J-9210D01*
G03X2186980Y-6188700I19031J-40790D01*
G03X2277020I45020J0D01*
G03X2251040Y-6147910I-45011J0D01*
G02Y-6129490I4301J9210D01*
G03X2263700Y-6120670I-19024J40802D01*
G01X2269170D01*
X2273240Y-6121450D01*
X2291910D01*
X2354360Y-6183900D01*
X2687140D01*
X2784820Y-6086220D01*
X2886790D01*
X2887040Y-6091040D01*
G03X2912960Y-6129490I44957J2345D01*
G02Y-6147910I-4301J-9210D01*
G03X2886980Y-6188700I19031J-40790D01*
G03X2977020I45020J0D01*
G03X2951040Y-6147910I-45011J0D01*
G02Y-6129490I4301J9210D01*
G03X2977020Y-6088700I-19031J40790D01*
G01Y-6088690D01*
G03X2975110Y-6075720I-45021J-4D01*
G01X2974230Y-6072810D01*
X3029220Y-6017820D01*
Y-5728980D01*
X3028920Y-5728680D01*
Y-5253420D01*
X3078220Y-5204120D01*
X3413920D01*
X3416610Y-5201430D01*
G02X3425280Y-5205020I3590J-3593D01*
G01Y-6454620D01*
X3434900Y-6464240D01*
Y-6469800D01*
X3467300Y-6502200D01*
X3472860D01*
X3473380Y-6502720D01*
X4066420D01*
X4067500Y-6503800D01*
Y-7478200D01*
X4057950Y-7487750D01*
G03X4000000Y-7479980I-57955J-212249D01*
G01X3999990D01*
G03X3889980Y-7509460I5J-220021D01*
G02X3874750Y-7500130I-5085J8795D01*
G03X3874820Y-7497500I-49950J2645D01*
G01Y-7497490D01*
G03X3865310Y-7468150I-50022J-3D01*
G01X3864340Y-7465170D01*
X3866040Y-7461380D01*
G03X3882820Y-7424000I-33245J37380D01*
G03X3832800Y-7373980I-50020J0D01*
G03X3784740Y-7410120I0J-50026D01*
G02X3773250Y-7417320I-9763J2812D01*
G03X3764700Y-7416580I-8572J-49278D01*
G03X3757240Y-7417140I4J-50020D01*
G03X3709600Y-7382380I-47640J-15266D01*
G03X3659580Y-7432400I0J-50020D01*
G01Y-7432410D01*
G03X3670730Y-7463890I50022J3D01*
G03X3658980Y-7496100I38273J-32210D01*
G03X3669560Y-7526860I50018J4D01*
G03X3658280Y-7558500I38735J-31640D01*
G03X3660430Y-7572990I50017J17D01*
G03X3643780Y-7588960I25367J-43112D01*
G02X3625600Y-7586630I-8533J5515D01*
G03X3578100Y-7552280I-47500J-15667D01*
G03Y-7652320I0J-50020D01*
G03X3620120Y-7629440I0J50026D01*
G02X3638300Y-7631770I8533J-5515D01*
G03X3685800Y-7666120I47500J15667D01*
G03X3735820Y-7616100I0J50020D01*
G03X3733670Y-7601610I-50017J-17D01*
G03X3754750Y-7577060I-25370J43109D01*
G03X3764500Y-7578020I9753J49060D01*
G03X3811300Y-7545660I0J50022D01*
G03X3820220Y-7547310I13520J48156D01*
G02X3827270Y-7563720I-928J-10118D01*
G03X3779980Y-7700000I172720J-136280D01*
G03X3861720Y-7871140I220029J0D01*
G02X3855340Y-7889200I-6385J-7901D01*
G01X3089900D01*
X3070420Y-7869720D01*
Y-7426580D01*
X2957220Y-7313380D01*
X2749580D01*
X2691360Y-7371600D01*
X2555700D01*
X2538600Y-7388700D01*
Y-7415060D01*
X2530380Y-7423280D01*
Y-7448820D01*
G37*
G36*
G01X1313100Y-4109000D02*
X2049700D01*
X2098080Y-4157380D01*
Y-4248920D01*
X2037950Y-4309050D01*
X1805250D01*
X1755500Y-4358800D01*
X1375200D01*
X1304900Y-4288500D01*
Y-4117200D01*
X1313100Y-4109000D01*
G37*
G36*
G01X1181300Y-2455000D02*
X1228100D01*
G02X1248100Y-2475000I0J-20000D01*
G01Y-2898620D01*
G03X1253960Y-2912760I19999J4D01*
G01X1279840Y-2938640D01*
G03X1293980Y-2944500I14144J14138D01*
G01X1352630D01*
G02X1366760Y-2950360I-12J-19994D01*
G01X1368540Y-2952140D01*
G03X1382680Y-2958000I14149J14151D01*
G01X1554400D01*
G02X1574400Y-2978000I0J-20000D01*
G01Y-3293720D01*
G03X1580260Y-3307860I20000J4D01*
G01X1708440Y-3436040D01*
G03X1722580Y-3441900I14144J14141D01*
G01X2078900D01*
G02X2098900Y-3461900I0J-20000D01*
G01Y-3617500D01*
G02X2078900Y-3637500I-20000J0D01*
G01X1935700D01*
G03X1915700Y-3657500I0J-20000D01*
G01Y-3865300D01*
G02X1895700Y-3885300I-20000J0D01*
G01X1179800D01*
G02X1159800Y-3865300I0J20000D01*
G01Y-2918640D01*
G03X1156870Y-2911570I-10003J-3D01*
G01X1151230Y-2905930D01*
G02X1148300Y-2898860I7068J7071D01*
G01Y-2574500D01*
G02X1168300Y-2554500I20000J0D01*
G01X1201300D01*
G03X1221300Y-2534500I0J20000D01*
G01Y-2525000D01*
G03X1201300Y-2505000I-20000J0D01*
G01X1181300D01*
G02X1161300Y-2485000I0J20000D01*
G01Y-2475000D01*
G02X1181300Y-2455000I20000J0D01*
G37*
G36*
G01X2344600Y-4670200D02*
X2432740D01*
G02X2442860Y-4681270I1J-10159D01*
G03X2442680Y-4685300I44840J-4022D01*
G03X2487700Y-4730320I45020J0D01*
G03X2532560Y-4689060I0J45017D01*
G01X2532950Y-4684400D01*
X2854700D01*
X2857300Y-4681800D01*
X2887300D01*
X2927400Y-4721900D01*
X2942500D01*
X2981700Y-4682700D01*
X3062700D01*
Y-4737490D01*
G02X3048760Y-4746920I-10161J2D01*
G03X3032000Y-4743680I-16770J-41778D01*
G03X2993540Y-4765300I0J-45018D01*
G01X2973400D01*
X2953020Y-4785680D01*
X2892580D01*
X2873980Y-4804280D01*
X2873680D01*
X2826880Y-4851080D01*
Y-4911820D01*
X2775470Y-4963230D01*
X2382870D01*
X2367620Y-4947980D01*
Y-4913280D01*
X2319440Y-4865110D01*
G03X2328220Y-4838740I-36239J26713D01*
G02X2333170Y-4833700I5081J-39D01*
G03X2377020Y-4788700I-1165J45000D01*
G03X2332000Y-4743680I-45020J0D01*
G03X2286980Y-4788360I0J-45021D01*
G02X2282030Y-4793400I-5081J39D01*
G03X2238180Y-4838400I1165J-45000D01*
G03X2239570Y-4849510I45021J-9D01*
G02X2229730Y-4862180I-9844J-2511D01*
G01X2165520D01*
X2135120Y-4831780D01*
X2029180D01*
X1977780Y-4883180D01*
X1816680D01*
X1748370Y-4951500D01*
G02X1731040Y-4943730I-7186J7184D01*
G03X1731120Y-4940900I-48941J2800D01*
G01Y-4938800D01*
G03X1716760Y-4904140I-49009J0D01*
G01X1666660Y-4854040D01*
G03X1632000Y-4839680I-34660J-34649D01*
G03X1582980Y-4888700I0J-49020D01*
G03X1597340Y-4923360I49009J0D01*
G01X1640010Y-4966030D01*
X1640320Y-4966550D01*
G03X1682100Y-4989920I41780J25661D01*
G03X1684930Y-4989840I30J49021D01*
G02X1692700Y-5007170I586J-10144D01*
G01X1649380Y-5050480D01*
Y-5050820D01*
X1631000Y-5069200D01*
Y-5694900D01*
X1649380Y-5713280D01*
Y-5733990D01*
G02X1637890Y-5744070I-10161J-7D01*
G03X1632000Y-5743680I-5913J-44628D01*
G03X1600170Y-5756870I7J-45017D01*
G01X1556990Y-5800040D01*
X1556500Y-5800340D01*
G03X1535380Y-5838500I23914J-38160D01*
G03X1580400Y-5883520I45020J0D01*
G01X1582200D01*
G03X1614030Y-5870330I-7J45017D01*
G01X1632040Y-5852330D01*
G02X1649380Y-5859520I7181J-7186D01*
G01Y-5921920D01*
X1665050D01*
G02X1672240Y-5939260I2J-10160D01*
G01X1598700Y-6012800D01*
Y-6082700D01*
X1630000Y-6114000D01*
X1762800D01*
X1794100Y-6082700D01*
Y-5921920D01*
X1806220D01*
X1847320Y-5880820D01*
X2730680D01*
X2736080Y-5886220D01*
Y-5904220D01*
X2765280Y-5933420D01*
Y-6011720D01*
X2746100Y-6030900D01*
X2740300D01*
X2740200Y-6031000D01*
Y-6059000D01*
X2666100Y-6133100D01*
X2375400D01*
X2312950Y-6070650D01*
X2273240D01*
G03X2190760I-41240J-18045D01*
G01X2173240D01*
G03X2151040Y-6047910I-41239J-18053D01*
G02Y-6029490I4301J9210D01*
G03X2177020Y-5988700I-19031J40790D01*
G03X2086980I-45020J0D01*
G03X2112960Y-6029490I45011J0D01*
G02Y-6047910I-4301J-9210D01*
G03X2090760Y-6070650I19039J-40793D01*
G01X1860950D01*
X1769280Y-6162320D01*
X1763830Y-6156870D01*
G03X1732000Y-6143680I-31837J-31827D01*
G03X1692340Y-6167400I0J-45016D01*
G01X1608100D01*
X1562690Y-6121990D01*
X1565830Y-6118410D01*
G03X1577020Y-6088700I-33832J29705D01*
G03X1552900Y-6048830I-45012J0D01*
G01Y-6044500D01*
X1509500Y-6001100D01*
Y-5794900D01*
X1566300Y-5738100D01*
Y-5717860D01*
G03Y-5659540I-34300J29160D01*
G01Y-5517860D01*
G03Y-5459540I-34300J29160D01*
G01Y-5417860D01*
G03Y-5359540I-34300J29160D01*
G01Y-5217860D01*
G03X1577020Y-5188700I-34300J29160D01*
G03X1567390Y-5160870I-45028J0D01*
G01X1566300Y-5159490D01*
Y-5158700D01*
X1557100Y-5149500D01*
X1554180D01*
X1553060Y-5148910D01*
G03X1532000Y-5143680I-21060J-39787D01*
G03X1509860Y-5149500I0J-45022D01*
G01X1480300D01*
X1435200Y-5104400D01*
Y-5081470D01*
G02X1451760Y-5073580I10160J-1D01*
G03X1480100Y-5083620I28340J34978D01*
G03X1511930Y-5070430I-7J45017D01*
G01X1554910Y-5027460D01*
X1555430Y-5027150D01*
G03X1577020Y-4988700I-23443J38450D01*
G03X1532000Y-4943680I-45020J0D01*
G01X1530000D01*
G03X1498170Y-4956870I7J-45017D01*
G01X1448270Y-5006770D01*
G03X1444320Y-5011280I31815J-31849D01*
G02X1435200Y-5008200I-4039J3082D01*
G01Y-4925700D01*
X1527360Y-4833540D01*
X1529620Y-4833660D01*
G03X1532000Y-4833720I2324J44961D01*
G03X1577020Y-4788700I0J45020D01*
G03X1576960Y-4786320I-45021J56D01*
G01X1576840Y-4784060D01*
X1627360Y-4733540D01*
X1629620Y-4733660D01*
G03X1632000Y-4733720I2324J44961D01*
G03X1655820Y-4726900I0J45008D01*
G01X1808180D01*
G03X1832000Y-4733720I23820J38188D01*
G03X1854680Y-4727590I0J45021D01*
G01X1855860Y-4726900D01*
X1865000D01*
X1933500Y-4795400D01*
X1965500D01*
X1966300Y-4794600D01*
X2220200D01*
X2344600Y-4670200D01*
G37*
G36*
G01X3285000Y-4385900D02*
X3579200D01*
X3590200Y-4396900D01*
Y-4479200D01*
X3579400Y-4490000D01*
X3527100D01*
X3498700Y-4518400D01*
Y-4821660D01*
X3461580Y-4858780D01*
Y-5085720D01*
X3393200Y-5154100D01*
X3160800D01*
G03X3103200I-28800J-34590D01*
G01X3057500D01*
X2978900Y-5232700D01*
Y-5749400D01*
X2979200Y-5749700D01*
Y-5997100D01*
X2940100Y-6036200D01*
X2865580D01*
G02X2862420Y-6027140I-4J5080D01*
G03X2866660Y-6023360I-30445J38418D01*
G01X2909110Y-5980920D01*
X2909660Y-5980590D01*
G03X2933720Y-5938400I-24961J42190D01*
G03X2884700Y-5889380I-49020J0D01*
G01X2882300D01*
G03X2847640Y-5903740I0J-49009D01*
G01X2832640Y-5918730D01*
G02X2815370Y-5912770I-7184J7184D01*
G01X2786100Y-5883500D01*
Y-5865500D01*
X2751400Y-5830800D01*
X1824300D01*
Y-5833100D01*
X1785500Y-5871900D01*
X1699400D01*
Y-5071200D01*
X1837400Y-4933200D01*
X1998500D01*
X2049900Y-4881800D01*
X2114400D01*
X2144800Y-4912200D01*
X2295800D01*
X2317600Y-4934000D01*
Y-4968700D01*
X2357180Y-5008280D01*
X2354490Y-5011810D01*
G03X2345280Y-5039100I35812J-27285D01*
G03X2390300Y-5084120I45020J0D01*
G03X2427010Y-5065160I0J45019D01*
G02X2443910Y-5065650I8287J-5879D01*
G03X2486300Y-5089120I42390J26546D01*
G03X2536320Y-5039100I0J50020D01*
G03X2534590Y-5026060I-50010J0D01*
G02X2544400Y-5013250I9808J2650D01*
G01X2798950D01*
X2876900Y-4935300D01*
Y-4927200D01*
G02X2894770Y-4920590I10159J-5D01*
G03X2897340Y-4923360I37193J31930D01*
G01X2947240Y-4973260D01*
G03X2979310Y-4987550I34663J34660D01*
G02X2984110Y-4992250I-266J-5073D01*
G03X2984340Y-4994590I47892J3526D01*
G01X2984650Y-4997050D01*
X2982900Y-4998800D01*
Y-5037900D01*
X3029100Y-5084100D01*
X3065790D01*
X3066600Y-5084380D01*
G03X3082300Y-5087020I15703J45380D01*
G01X3084200D01*
G03X3099900Y-5084380I-3J48020D01*
G01X3100710Y-5084100D01*
X3238700D01*
X3377400Y-4945400D01*
Y-4473400D01*
X3371960Y-4467960D01*
G03X3332000Y-4443680I-39960J-20743D01*
G03X3298350Y-4458790I0J-45024D01*
G01X3296830Y-4460500D01*
X3285000D01*
X3281800Y-4457300D01*
Y-4389100D01*
X3285000Y-4385900D01*
G37*
G36*
G01X1693500Y-128900D02*
X2103100D01*
G02X2123100Y-148900I0J-20000D01*
G01Y-1433210D01*
G02X2117240Y-1447360I-19989J-10D01*
G01X2113760Y-1450840D01*
G03X2107900Y-1464990I14136J-14142D01*
G01Y-1544200D01*
G02X2097900Y-1554200I-10000J0D01*
G01X2056900D01*
Y-1554150D01*
G02X2047900Y-1544200I1000J9950D01*
G01Y-1497980D01*
G02X2053760Y-1483840I19998J-4D01*
G01X2075040Y-1462560D01*
G03X2080900Y-1448420I-14140J14144D01*
G01Y-1229010D01*
G03X2066260Y-1193660I-50000J-1D01*
G01X1936050Y-1063450D01*
G03X1900690Y-1048800I-35360J-35349D01*
G01X1693500D01*
G02X1673500Y-1028800I0J20000D01*
G01Y-148900D01*
G02X1693500Y-128900I20000J0D01*
G37*
G36*
G01X2185400Y-4113600D02*
X3111400D01*
X3115900Y-4118100D01*
Y-4345100D01*
X3008600Y-4452400D01*
X2841200D01*
X2801400Y-4412600D01*
X2713570D01*
G02X2706210Y-4395440I2J10159D01*
G03X2718620Y-4364400I-32614J31040D01*
G03X2628580I-45020J0D01*
G03X2640990Y-4395440I45024J0D01*
G02X2633630Y-4412600I-7362J-7001D01*
G01X2291200D01*
X2148100Y-4269500D01*
Y-4150900D01*
X2185400Y-4113600D01*
G37*
G36*
G01X2209700Y-2455000D02*
X2255000D01*
G02X2275000Y-2475000I0J-20000D01*
G01Y-2924500D01*
G03X2295000Y-2944500I20000J0D01*
G01X2376710D01*
G02X2390860Y-2950360I8J-19994D01*
G01X2392640Y-2952140D01*
G03X2406780Y-2958000I14149J14151D01*
G01X2578500D01*
G02X2598500Y-2978000I0J-20000D01*
G01Y-3415500D01*
G03X2618500Y-3435500I20000J0D01*
G01X3105500D01*
G02X3125500Y-3455500I0J-20000D01*
G01Y-3617500D01*
G02X3105500Y-3637500I-20000J0D01*
G01X2942600D01*
G03X2922600Y-3657500I0J-20000D01*
G01Y-3865300D01*
G02X2902600Y-3885300I-20000J0D01*
G01X2207200D01*
G02X2187200Y-3865300I0J20000D01*
G01Y-2918640D01*
G03X2184270Y-2911570I-9997J-1D01*
G01X2179630Y-2906930D01*
G02X2176700Y-2899860I7073J7073D01*
G01Y-2574500D01*
G02X2196700Y-2554500I20000J0D01*
G01X2229700D01*
G03X2249700Y-2534500I0J20000D01*
G01Y-2525000D01*
G03X2229700Y-2505000I-20000J0D01*
G01X2209700D01*
G02X2189700Y-2485000I0J20000D01*
G01Y-2475000D01*
G02X2209700Y-2455000I20000J0D01*
G37*
G36*
G01X2724000Y-128900D02*
X3111500D01*
G02X3131500Y-148900I0J-20000D01*
G01Y-1029910D01*
G03X3146150Y-1065250I49989J16D01*
G01X3146410Y-1065510D01*
G02X3146700Y-1066220I-706J-703D01*
G01Y-1435420D01*
G02X3140840Y-1449560I-20008J7D01*
G01X3136620Y-1453780D01*
G03X3133700Y-1460840I7086J-7065D01*
G01Y-1549200D01*
G02X3128700Y-1554200I-5000J0D01*
G01X3078700D01*
G02X3073700Y-1549200I0J5000D01*
G01Y-1506270D01*
G02X3075160Y-1502740I5000J-1D01*
G01X3092050Y-1485850D01*
G03X3106700Y-1450490I-35348J35360D01*
G01Y-1225710D01*
G03X3092060Y-1190360I-50001J-1D01*
G01X2965140Y-1063440D01*
G03X2929790Y-1048800I-35351J-35362D01*
G01X2709000D01*
G02X2704000Y-1043800I0J5000D01*
G01Y-148900D01*
G02X2724000Y-128900I20000J0D01*
G37*
G36*
G01X3165920Y-4111200D02*
X3685400D01*
X3689900Y-4115700D01*
Y-4312800D01*
X3673400Y-4329300D01*
X3547300D01*
X3540720Y-4335880D01*
X3346380D01*
X3335600Y-4325100D01*
X3304300D01*
X3296700Y-4332700D01*
X3165920D01*
Y-4111200D01*
G37*
G36*
G01X3222000Y-2455000D02*
X3278700D01*
G02X3298700Y-2475000I0J-20000D01*
G01Y-2938000D01*
G03X3318700Y-2958000I20000J0D01*
G01X3609300D01*
G02X3629300Y-2978000I0J-20000D01*
G01Y-3365220D01*
G03X3635160Y-3379360I20000J4D01*
G01X3675440Y-3419640D01*
G02X3681300Y-3433780I-14141J-14145D01*
G01Y-3865500D01*
G02X3661300Y-3885500I-20000J0D01*
G01X3227000D01*
G02X3207000Y-3865500I0J20000D01*
G01Y-2646640D01*
G03X3204070Y-2639570I-9999J-2D01*
G01X3201920Y-2637420D01*
G02X3199000Y-2630360I7088J7065D01*
G01Y-2574500D01*
G02X3219000Y-2554500I20000J0D01*
G01X3252000D01*
G03X3272000Y-2534500I0J20000D01*
G01Y-2525000D01*
G03X3252000Y-2505000I-20000J0D01*
G01X3222000D01*
G02X3212000Y-2495000I0J10000D01*
G01Y-2465000D01*
G02X3222000Y-2455000I10000J0D01*
G37*
G36*
G01X3221600Y-129000D02*
X3656600D01*
G02X3676600Y-149000I0J-20000D01*
G01Y-443090D01*
G03X3691250Y-478450I49999J0D01*
G01X3778260Y-565460D01*
G03X3813610Y-580100I35351J35360D01*
G01X4152200D01*
G02X4172200Y-600100I0J-20000D01*
G01Y-1482920D01*
G02X4166340Y-1497060I-20008J7D01*
G01X4160660Y-1502740D01*
G03X4159200Y-1506270I3543J-3532D01*
G01Y-1549200D01*
G02X4154200Y-1554200I-5000J0D01*
G01X4104200D01*
G02X4099200Y-1549200I0J5000D01*
G01Y-1506270D01*
G02X4100670Y-1502730I4999J-1D01*
G01X4117560Y-1485840D01*
G03X4132200Y-1450490I-35359J35350D01*
G01Y-1238610D01*
G03X4117560Y-1203260I-50001J-1D01*
G01X3977740Y-1063440D01*
G03X3942390Y-1048800I-35351J-35361D01*
G01X3733700D01*
G02X3728700Y-1043800I0J5000D01*
G01Y-797810D01*
G03X3714060Y-762460I-50002J-1D01*
G01X3600400Y-648800D01*
X3600300D01*
X3536550Y-585050D01*
G03X3501190Y-570400I-35360J-35349D01*
G01X3221600D01*
G02X3201600Y-550400I0J20000D01*
G01Y-149000D01*
G02X3221600Y-129000I20000J0D01*
G37*
G36*
G01X3814020Y-4845000D02*
X4065000D01*
Y-6445400D01*
X4057700Y-6452700D01*
X3494100D01*
X3475300Y-6433900D01*
Y-5166000D01*
X3511600Y-5129700D01*
Y-4879500D01*
X3531280Y-4859820D01*
X3623380D01*
X3627180Y-4863620D01*
X3814020D01*
Y-4845000D01*
G37*
G36*
G01X3566000Y-4665100D02*
X3646000D01*
Y-4705100D01*
Y-4705600D01*
X3704000Y-4763600D01*
X3764000D01*
Y-4813600D01*
X3647900D01*
X3644100Y-4809800D01*
X3564100D01*
Y-4744800D01*
X3566000Y-4742900D01*
Y-4705100D01*
Y-4665100D01*
G37*
G36*
G01X5918270Y-4105000D02*
X7947070D01*
G02X7951800Y-4124150I1J-10159D01*
G03X7908980Y-4195000I37204J-70850D01*
G03X7989000Y-4275020I80020J0D01*
G03X8035830Y-4259880I-7J80018D01*
G02X8051860Y-4269370I5947J-8238D01*
G03X8049980Y-4300000I248142J-30603D01*
G03X8260330Y-4546850I250017J0D01*
G02X8267610Y-4561790I-1616J-10031D01*
G03X8257680Y-4600400I70097J-38610D01*
G03X8417720I80020J0D01*
G03X8396070Y-4545660I-80027J0D01*
G02X8399440Y-4529390I7413J6949D01*
G03X8477610Y-4475960I-99445J229389D01*
G02X8494990Y-4483120I7218J-7152D01*
G01Y-4784380D01*
X6986540D01*
X6896980Y-4873940D01*
Y-5671840D01*
X6817740Y-5751080D01*
X6741280D01*
Y-5986360D01*
X6742480Y-5987560D01*
Y-6047640D01*
X6740930Y-6049190D01*
Y-6159790D01*
X6733240Y-6167480D01*
X6625560D01*
X6602460Y-6144380D01*
X6524460D01*
X6505820Y-6125740D01*
Y-5965740D01*
X6442760Y-5902680D01*
X6303040D01*
X6259780Y-5945940D01*
Y-6076640D01*
X6234780Y-6101640D01*
Y-6124720D01*
X6225250D01*
X6224660Y-6120310D01*
G03X6150300Y-6055180I-74360J-9884D01*
G03X6125300Y-6059470I5J-75019D01*
G03X6100300Y-6055180I-25005J-70729D01*
G03X6075300Y-6059470I5J-75019D01*
G03X6050300Y-6055180I-25005J-70729D01*
G03X6025300Y-6059470I5J-75019D01*
G03X6000300Y-6055180I-25005J-70729D01*
G03X5975300Y-6059470I5J-75019D01*
G03X5950300Y-6055180I-25005J-70729D01*
G03X5925300Y-6059470I5J-75019D01*
G03X5900300Y-6055180I-25005J-70729D01*
G03X5850300Y-6074270I0J-75024D01*
G03X5800300Y-6055180I-50000J-55934D01*
G03X5798780Y-6055200I227J-75017D01*
G02X5788420Y-6045040I-199J10159D01*
G01Y-5938240D01*
X5744460Y-5894280D01*
X5628740D01*
X5581780Y-5941240D01*
Y-6047730D01*
G02X5569080Y-6057570I-10160J-2D01*
G03X5550300Y-6055180I-18785J-72629D01*
G03X5525300Y-6059470I5J-75019D01*
G03X5500300Y-6055180I-25005J-70729D01*
G03X5475300Y-6059470I5J-75019D01*
G03X5450300Y-6055180I-25005J-70729D01*
G03X5425300Y-6059470I5J-75019D01*
G03X5400300Y-6055180I-25005J-70729D01*
G03X5375300Y-6059470I5J-75019D01*
G03X5350300Y-6055180I-25005J-70729D01*
G03X5325300Y-6059470I5J-75019D01*
G03X5300300Y-6055180I-25005J-70729D01*
G03X5275300Y-6059470I5J-75019D01*
G03X5250300Y-6055180I-25005J-70729D01*
G03X5184250Y-6094640I0J-75009D01*
G02X5166350I-8950J4820D01*
G03X5158940Y-6083400I-66086J-35505D01*
G02X5159660Y-6076330I3969J3168D01*
G03X5188520Y-6014800I-51161J61530D01*
G03X5108500Y-5934780I-80020J0D01*
G03X5066740Y-5946540I0J-80025D01*
G02X5051770Y-5940980I-5298J8669D01*
G03X5026320Y-5903610I-76169J-24522D01*
G02X5025140Y-5889030I6441J7859D01*
G03X5043880Y-5839430I-56269J49600D01*
G03X4893840I-75020J0D01*
G03X4918190Y-5894750I75015J0D01*
G02X4918570Y-5909370I-6862J-7493D01*
G03X4895580Y-5965500I57026J-56130D01*
G03X4975600Y-6045520I80020J0D01*
G03X5017360Y-6033760I0J80025D01*
G02X5032330Y-6039320I5298J-8669D01*
G03X5049150Y-6068480I76176J24509D01*
G02X5048870Y-6075580I-3765J-3407D01*
G03X5025280Y-6130200I51438J-54620D01*
G03X5100300Y-6205220I75020J0D01*
G03X5166350Y-6165760I0J75009D01*
G02X5184250I8950J-4820D01*
G03X5250300Y-6205220I66050J35549D01*
G03X5275300Y-6200930I-5J75019D01*
G03X5300300Y-6205220I25005J70729D01*
G03X5325300Y-6200930I-5J75019D01*
G03X5350300Y-6205220I25005J70729D01*
G03X5375300Y-6200930I-5J75019D01*
G03X5400300Y-6205220I25005J70729D01*
G03X5425300Y-6200930I-5J75019D01*
G03X5450300Y-6205220I25005J70729D01*
G03X5475300Y-6200930I-5J75019D01*
G03X5500300Y-6205220I25005J70729D01*
G03X5525300Y-6200930I-5J75019D01*
G03X5550300Y-6205220I25005J70729D01*
G03X5569080Y-6202830I-5J75019D01*
G02X5581780Y-6212670I2540J-9838D01*
G01Y-6299680D01*
X5511450D01*
X5453780Y-6357350D01*
Y-6401140D01*
G02X5436230Y-6408110I-10159J-1D01*
G03X5378000Y-6382980I-58230J-54899D01*
G03Y-6543020I0J-80020D01*
G03X5436230Y-6517890I0J80029D01*
G02X5453780Y-6524860I7391J-6969D01*
G01Y-6588140D01*
G03X5421980Y-6652000I48221J-63860D01*
G03X5502000Y-6732020I80020J0D01*
G03X5576300Y-6681720I0J80026D01*
G01X5641450D01*
X5663600Y-6703870D01*
X5690800D01*
X5691950Y-6705020D01*
X5737850D01*
X5755780Y-6722950D01*
Y-6775750D01*
X5807850Y-6827820D01*
X6154750D01*
X6233420Y-6749150D01*
Y-6748260D01*
G02X6242090Y-6744670I5080J-4D01*
G01X6392440Y-6895020D01*
X6431750D01*
G02X6440560Y-6910230I-4J-10159D01*
G03X6429980Y-6950000I69441J-39766D01*
G03X6590020I80020J0D01*
G03X6579440Y-6910230I-80021J4D01*
G02X6588250Y-6895020I8814J5051D01*
G01X6621750D01*
G02X6630560Y-6910230I-4J-10159D01*
G03X6619980Y-6950000I69441J-39766D01*
G03X6622630Y-6970430I80021J-7D01*
G02X6616210Y-6982600I-9822J-2597D01*
G03X6562980Y-7058000I26787J-75400D01*
G03X6723020I80020J0D01*
G03X6720370Y-7037570I-80021J7D01*
G02X6726790Y-7025400I9822J2597D01*
G03X6780020Y-6950000I-26787J75400D01*
G03X6769440Y-6910230I-80021J4D01*
G02X6778250Y-6895020I8814J5051D01*
G01X7041750D01*
G02X7050560Y-6910230I-4J-10159D01*
G03X7039980Y-6950000I69441J-39766D01*
G03X7200020I80020J0D01*
G03X7189440Y-6910230I-80021J4D01*
G02X7198250Y-6895020I8814J5051D01*
G01X7231750D01*
G02X7240560Y-6910230I-4J-10159D01*
G03X7229980Y-6950000I69441J-39766D01*
G03X7390020I80020J0D01*
G03X7379440Y-6910230I-80021J4D01*
G02X7388250Y-6895020I8814J5051D01*
G01X7572060D01*
X7724260Y-6742820D01*
X7798060D01*
X7928520Y-6612360D01*
Y-6565260D01*
X7944460Y-6549320D01*
X8122580D01*
G03X8126630Y-6555750I65422J36716D01*
G01Y-6600490D01*
X8126330Y-6601330D01*
G03X8121630Y-6628350I75318J-27020D01*
G03X8281670I80020J0D01*
G03X8276970Y-6601330I-80018J0D01*
G01X8276670Y-6600490D01*
Y-6549320D01*
X8494990D01*
Y-7516880D01*
G02X8477610Y-7524040I-10162J-8D01*
G03X8300000Y-7449980I-177617J-175957D01*
G03X8049980Y-7700000I0J-250020D01*
G03X8124040Y-7877610I250017J7D01*
G02X8116880Y-7894990I-7152J-7218D01*
G01X4783120D01*
G02X4775960Y-7877610I-8J10162D01*
G03X4850020Y-7700000I-175957J177617D01*
G03X4600000Y-7449980I-250020J0D01*
G03X4422380Y-7524040I0J-250025D01*
G02X4405000Y-7516890I-7221J7146D01*
G01Y-7423770D01*
G02X4422030Y-7416280I10162J1D01*
G03X4476100Y-7437320I54078J58977D01*
G03Y-7277280I0J80020D01*
G03X4422030Y-7298320I8J-80017D01*
G02X4405000Y-7290830I-6868J7489D01*
G01Y-6104970D01*
G02X4423990Y-6099940I10160J4D01*
G03X4493500Y-6140320I69510J39637D01*
G03Y-5980280I0J80020D01*
G03X4423990Y-6020660I0J-80017D01*
G02X4405000Y-6015630I-8830J5026D01*
G01Y-5575650D01*
G02X4421800Y-5567960I10161J-1D01*
G03X4474100Y-5587420I52300J60550D01*
G03X4554120Y-5507400I0J80020D01*
G03X4526340Y-5446780I-80031J0D01*
G02X4526380Y-5431350I6630J7698D01*
G03X4554520Y-5370430I-51873J60920D01*
G03X4474500Y-5290410I-80020J0D01*
G03X4421840Y-5310180I0J-80018D01*
G02X4405000Y-5302520I-6680J7655D01*
G01Y-5160810D01*
G02X4421950Y-5153250I10160J2D01*
G03X4475400Y-5173720I53450J59548D01*
G03Y-5013680I0J80020D01*
G03X4421950Y-5034150I0J-80018D01*
G02X4405000Y-5026590I-6790J7558D01*
G01Y-4949450D01*
G02X4421650Y-4941640I10159J-5D01*
G03X4472800Y-4960120I51150J61548D01*
G03Y-4800080I0J80020D01*
G03X4421650Y-4818560I0J-80028D01*
G02X4405000Y-4810750I-6491J7815D01*
G01Y-4483110D01*
G02X4422380Y-4475960I10159J4D01*
G03X4600000Y-4550020I177620J175965D01*
G03X4850020Y-4300000I0J250020D01*
G03X4775960Y-4122380I-250025J0D01*
G02X4783110Y-4105000I7146J7221D01*
G01X5072370D01*
G02X5079910Y-4121970I2J-10159D01*
G03X5059280Y-4175600I59394J-53630D01*
G03X5219320I80020J0D01*
G03X5198690Y-4121970I-80024J0D01*
G02X5206230Y-4105000I7538J6811D01*
G01X5261910D01*
G02X5269570Y-4121830I-3J-10159D01*
G03X5249880Y-4174400I60333J-52570D01*
G03X5409920I80020J0D01*
G03X5390230Y-4121830I-80023J0D01*
G02X5397890Y-4105000I7663J6671D01*
G01X5525250D01*
G02X5530770Y-4123690I3J-10159D01*
G03X5494180Y-4190900I43432J-67210D01*
G03X5654220I80020J0D01*
G03X5617630Y-4123690I-80022J0D01*
G02X5623150Y-4105000I5517J8531D01*
G01X5811130D01*
G02X5817160Y-4123330I-6J-10159D01*
G03X5784680Y-4187700I47545J-64370D01*
G03X5944720I80020J0D01*
G03X5912240Y-4123330I-80025J0D01*
G02X5918270Y-4105000I6036J8171D01*
G37*
G36*
G01X5527150Y-2929900D02*
X5660000D01*
X5664400Y-2934300D01*
Y-3178900D01*
X5596000Y-3247300D01*
X5351900D01*
G02X5343480Y-3231460I1J10159D01*
G03X5352020Y-3203500I-41482J27954D01*
G03X5302000Y-3153480I-50020J0D01*
G03X5262690Y-3172580I7J-50017D01*
G02X5246710I-7990J6286D01*
G03X5207400Y-3153480I-39317J-30917D01*
G03X5157380Y-3203500I0J-50020D01*
G03X5165920Y-3231460I50022J-6D01*
G02X5157500Y-3247300I-8421J-5681D01*
G01X4867200D01*
X4758200Y-3356300D01*
Y-3431500D01*
X4736000Y-3453700D01*
X4457200D01*
Y-3366270D01*
G02X4469150Y-3356270I10160J-1D01*
G03X4477940Y-3357050I8799J49239D01*
G03X4520830Y-3332760I0J50011D01*
G03X4524800Y-3332920I3998J49859D01*
G03Y-3232880I0J50020D01*
G03X4481910Y-3257170I0J-50011D01*
G03X4477940Y-3257010I-3998J-49859D01*
G03X4469150Y-3257790I9J-50019D01*
G02X4457200Y-3247790I-1790J10001D01*
G01Y-3000300D01*
X4497300Y-2960200D01*
X4559610D01*
G02X4569700Y-2971510I-3J-10158D01*
G03X4569380Y-2977200I49702J-5649D01*
G03X4669420I50020J0D01*
G03X4669100Y-2971510I-50022J41D01*
G02X4679190Y-2960200I10093J1152D01*
G01X5100400D01*
X5130700Y-2929900D01*
X5174270D01*
G02X5184000Y-2942990I2J-10159D01*
G03X5181880Y-2957400I47914J-14410D01*
G03X5281920I50020J0D01*
G03X5279800Y-2942990I-50034J0D01*
G02X5289530Y-2929900I9728J2931D01*
G01X5302780D01*
Y-2935010D01*
Y-2935300D01*
G03X5402820I50020J0D01*
G01Y-2929900D01*
X5412450D01*
G02X5422130Y-2943140I0J-10159D01*
G03X5419780Y-2958300I47671J-15152D01*
G03X5469800Y-3008320I50020J0D01*
G03X5488990Y-3004490I-6J50019D01*
G02X5503020Y-3013120I3897J-9384D01*
G03X5552900Y-3059420I49880J3718D01*
G03Y-2959380I0J50020D01*
G03X5533710Y-2963210I6J-50019D01*
G02X5519680Y-2954580I-3897J9384D01*
G03X5517470Y-2943140I-49883J-3703D01*
G02X5527150Y-2929900I9680J3081D01*
G37*
G36*
G01X5018200Y-2415500D02*
X5491800D01*
X5494630Y-2418330D01*
X5494700Y-2418410D01*
G03X5495690Y-2419450I33099J30516D01*
G02Y-2426550I-3637J-3550D01*
G03X5482880Y-2458000I32202J-31450D01*
G03X5501700Y-2494610I45018J0D01*
G01Y-2653900D01*
X5485190Y-2670410D01*
X5482170Y-2669340D01*
G03X5465500Y-2666480I-16670J-47152D01*
G03X5415480Y-2716500I0J-50020D01*
G03X5418340Y-2733170I50012J0D01*
G01X5419410Y-2736190D01*
X5416640Y-2738960D01*
G02X5399320Y-2732420I-7181J7186D01*
G03X5387340Y-2703000I-49920J-3179D01*
G02X5391930Y-2686710I7707J6620D01*
G03X5426620Y-2639100I-15326J47610D01*
G03X5326580I-50020J0D01*
G03X5338660Y-2671700I50028J0D01*
G02X5334070Y-2687990I-7707J-6620D01*
G03X5299380Y-2735600I15326J-47610D01*
G03X5306300Y-2760980I50019J5D01*
G02X5297550Y-2776300I-8753J-5159D01*
G01X5189800D01*
G03X5152300Y-2759380I-37500J-33096D01*
G03X5102280Y-2809400I0J-50020D01*
G03X5108620Y-2833780I50022J-6D01*
G01X5033400Y-2909000D01*
X4821030D01*
X4821020Y-2903930D01*
G03X4720980I-50020J-70D01*
G01X4720970Y-2909000D01*
X4457200D01*
Y-2606900D01*
X4583360D01*
G02X4592330Y-2621830I-1J-10160D01*
G03X4586480Y-2645300I44169J-23473D01*
G03X4686520I50020J0D01*
G03X4680670Y-2621830I-50019J-3D01*
G02X4689640Y-2606900I8971J4770D01*
G01X4911200D01*
X5002500Y-2515600D01*
Y-2431200D01*
X5018200Y-2415500D01*
G37*
G36*
G01X4737190Y-105010D02*
X5237810D01*
X5243130Y-110330D01*
G02X5234520Y-127580I-7181J-7190D01*
G03X5227500Y-127080I-7055J-49518D01*
G03X5192050Y-141810I0J-50023D01*
G02X5184840Y-141800I-3600J3583D01*
G03X5149300Y-126980I-35540J-35204D01*
G03Y-227020I0J-50020D01*
G03X5184750Y-212290I0J50023D01*
G02X5191960Y-212300I3600J-3583D01*
G03X5227500Y-227120I35540J35204D01*
G03X5277520Y-177100I0J50020D01*
G03X5277020Y-170080I-50018J-35D01*
G02X5294270Y-161470I10060J1429D01*
G01X5312510Y-179710D01*
X5312660Y-181570D01*
G03X5328080Y-215480I54838J4475D01*
G01Y-370220D01*
X5367380Y-409520D01*
Y-599600D01*
G02X5354280Y-609320I-10159J4D01*
G03X5339800Y-607180I-14474J-47881D01*
G03Y-707220I0J-50020D01*
G03X5389810Y-658340I0J50023D01*
G02X5407150Y-651390I10156J-232D01*
G01X5427480Y-671720D01*
X5498580D01*
X5597500Y-770640D01*
Y-1007600D01*
X5483320Y-1121780D01*
X5460480D01*
X5419980Y-1162280D01*
G03X5390480Y-1207900I20524J-45620D01*
G03X5390640Y-1211930I50021J-32D01*
G01X5390830Y-1214270D01*
X5336600Y-1268500D01*
Y-1950700D01*
X5236200Y-2051100D01*
Y-2099670D01*
G02X5227530Y-2103260I-5079J3D01*
G01X5225470Y-2101200D01*
X5225080Y-2100160D01*
G03X5178200Y-2067580I-46880J-17438D01*
G03X5128180Y-2117600I0J-50020D01*
G03X5160760Y-2164480I50018J0D01*
G01X5161800Y-2164870D01*
X5236200Y-2239270D01*
Y-2280100D01*
X5236300Y-2280200D01*
Y-2365480D01*
X4997480D01*
X4952480Y-2410480D01*
Y-2494880D01*
X4890480Y-2556880D01*
X4688130D01*
G02X4679410Y-2541500I-3J10160D01*
G03X4686520Y-2515800I-42909J25704D01*
G03X4586480I-50020J0D01*
G03X4593590Y-2541500I50019J4D01*
G02X4584870Y-2556880I-8717J-5220D01*
G01X4493780D01*
X4405000Y-2468100D01*
Y-1997510D01*
G02X4419350Y-1988260I10159J-5D01*
G03X4440000Y-1992720I20647J45561D01*
G03X4473220Y-1980100I0J50033D01*
G02X4479900Y-1980040I3374J-3795D01*
G03X4512500Y-1992120I32600J37948D01*
G03X4562520Y-1942100I0J50020D01*
G03X4539010Y-1899680I-50025J0D01*
G02X4539210Y-1882330I5383J8614D01*
G03X4563720Y-1839300I-25517J43030D01*
G03X4513700Y-1789280I-50020J0D01*
G03X4480280Y-1802090I7J-50017D01*
G02X4473420Y-1802020I-3392J3783D01*
G03X4439300Y-1788580I-34120J-36590D01*
G03X4419240Y-1792780I3J-50019D01*
G02X4405000Y-1783470I-4080J9305D01*
G01Y-437170D01*
G02X4423320Y-431120I10160J-3D01*
G03X4600000Y-520020I176680J131117D01*
G03X4820020Y-300000I0J220020D01*
G03X4731130Y-123330I-220012J0D01*
G02X4737190Y-105010I6055J8159D01*
G37*
G36*
G01X7211100Y-157800D02*
X7469040D01*
G02X7478580Y-171430I-7J-10159D01*
G03X7475580Y-188480I47021J-17062D01*
G01Y-188500D01*
G03X7575620I50020J0D01*
G01Y-188480D01*
G03X7572620Y-171430I-50021J-12D01*
G02X7582160Y-157800I9547J3471D01*
G01X7776340D01*
G02X7785880Y-171430I-7J-10159D01*
G03X7782880Y-188480I47021J-17062D01*
G01Y-188500D01*
G03X7832900Y-238520I50020J0D01*
G03X7874670Y-216020I0J50022D01*
G02X7891630I8480J-5594D01*
G03X7906850Y-230890I41766J27525D01*
G02X7907340Y-247790I-5389J-8613D01*
G03X7888380Y-284500I26059J-36710D01*
G03X7978420I45020J0D01*
G03X7959460Y-247790I-45019J0D01*
G02X7959950Y-230890I5879J8287D01*
G03X7983420Y-188500I-26546J42390D01*
G01Y-188480D01*
G03X7980420Y-171430I-50021J-12D01*
G02X7989960Y-157800I9547J3471D01*
G01X8036200D01*
X8078800Y-200400D01*
Y-415200D01*
X8187800Y-524200D01*
X8405300D01*
X8442100Y-561000D01*
Y-599860D01*
G02X8431580Y-610010I-10160J4D01*
G03X8430000Y-609980I-1645J-44989D01*
G03Y-700020I0J-45020D01*
G03X8431580Y-699990I-65J45019D01*
G02X8442100Y-710140I360J-10154D01*
G01Y-2630700D01*
G02X8437320Y-2635770I-5080J1D01*
G03X8400690Y-2655150I2976J-49932D01*
G02X8384610I-8040J6207D01*
G03X8345000Y-2635680I-39610J-30557D01*
G03X8305760Y-2654680I0J-50020D01*
G02X8289690Y-2654510I-7969J6298D01*
G03X8249800Y-2634680I-39890J-30206D01*
G03Y-2734720I0J-50020D01*
G03X8289040Y-2715720I0J50020D01*
G02X8305110Y-2715890I7969J-6298D01*
G03X8345000Y-2735720I39890J30206D01*
G03X8384610Y-2716250I0J50027D01*
G02X8400690I8040J-6207D01*
G03X8437320Y-2735630I39606J30552D01*
G02X8442100Y-2740700I-300J-5071D01*
G01Y-3465000D01*
X8034800D01*
X8029220Y-3459420D01*
Y-3326280D01*
X8032350Y-3324980D01*
G03Y-3241820I-17244J41580D01*
G01X8029220Y-3240520D01*
Y-3113280D01*
X7880220Y-2964280D01*
G02X7883320Y-2947800I7186J7180D01*
G03X7903760Y-2931270I-20129J45792D01*
G02X7920240I8240J-5946D01*
G03X7960800Y-2952020I40560J29266D01*
G03Y-2851980I0J50020D01*
G03X7920240Y-2872730I0J-50016D01*
G02X7903760I-8240J5946D01*
G03X7875970Y-2853640I-40559J-29271D01*
G03X7835400Y-2832880I-40570J-29262D01*
G03X7795540Y-2852680I0J-50022D01*
G02X7779450Y-2852820I-8099J6134D01*
G03X7740100Y-2833680I-39350J-30880D01*
G03Y-2933720I0J-50020D01*
G03X7779960Y-2913920I0J50022D01*
G02X7796050Y-2913780I8099J-6134D01*
G03X7822630Y-2931260I39347J30882D01*
G03X7824630Y-2933850I40569J29260D01*
G02X7816800Y-2950480I-7832J-6471D01*
G01X7576120D01*
X7548820Y-2923180D01*
Y-2843380D01*
X7427520Y-2722080D01*
X7251060D01*
G02X7241920Y-2707490I5J10161D01*
G03X7246920Y-2685700I-45018J21799D01*
G03X7196900Y-2635680I-50020J0D01*
G03X7158250Y-2653950I0J-50017D01*
G02X7142550I-7850J6451D01*
G03X7103900Y-2635680I-38650J-31747D01*
G01X7103860D01*
G03X7093880Y-2636690I21J-50022D01*
G02X7081750Y-2627860I-2034J9952D01*
G03X7037000Y-2587780I-44750J-4942D01*
G03X6991980Y-2632800I0J-45020D01*
G01Y-2632850D01*
G03X6992330Y-2638430I45022J23D01*
G03X6968760Y-2655580I16369J-47269D01*
G02X6952540I-8110J6112D01*
G03X6912600Y-2635680I-39940J-30130D01*
G03X6872450Y-2655860I0J-50031D01*
G02X6856150I-8150J6059D01*
G03X6853460Y-2652550I-40130J-29865D01*
G03X6858020Y-2632810I-40462J19743D01*
G01Y-2632800D01*
G03X6767980I-45020J0D01*
G03X6775040Y-2657000I45006J0D01*
G03X6765980Y-2685700I40957J-28709D01*
G03X6816000Y-2735720I50020J0D01*
G03X6856150Y-2715540I0J50031D01*
G02X6872450I8150J-6059D01*
G03X6912600Y-2735720I40150J29851D01*
G03X6952540Y-2715820I0J50030D01*
G02X6968760I8110J-6112D01*
G03X7008700Y-2735720I39940J30130D01*
G03X7048260Y-2716310I0J50019D01*
G02X7064340I8040J-6212D01*
G03X7068200Y-2720730I39540J30635D01*
G02X7068130Y-2735030I-7254J-7115D01*
G01X6984380Y-2818780D01*
X6335880D01*
X6077340Y-3077320D01*
X6073790Y-3074460D01*
G03X6073380Y-3074130I-31566J-38798D01*
G02X6073090Y-3058410I6293J7979D01*
G03X6090720Y-3020300I-32387J38116D01*
G03X6040700Y-2970280I-50020J0D01*
G03X6008780Y-2981790I0J-50016D01*
G03X5978500Y-2971580I-30280J-39796D01*
G03X5928480Y-3021600I0J-50020D01*
G03X5945760Y-3059420I50028J0D01*
G02Y-3074780I-6647J-7680D01*
G03X5928480Y-3112600I32748J-37820D01*
G03X5970080Y-3161910I50024J0D01*
G02X5975560Y-3179110I-1706J-10016D01*
G01X5924880Y-3229780D01*
Y-3435620D01*
X5934500Y-3445240D01*
Y-3473600D01*
X5961600Y-3500700D01*
X5989960D01*
X6006880Y-3517620D01*
Y-3546380D01*
X5963780D01*
X5938460Y-3571700D01*
X5935700Y-3571040D01*
G03X5924130Y-3569680I-11585J-48662D01*
G01X5924100D01*
G03X5889540Y-3583540I0J-50018D01*
G02X5875500Y-3583550I-7025J7340D01*
G03X5844400Y-3571080I-31100J-32546D01*
G03Y-3661120I0J-45020D01*
G03X5872440Y-3651320I0J45014D01*
G02X5886420Y-3652590I6325J-7953D01*
G03X5924100Y-3669720I37680J32876D01*
G01X5924280D01*
Y-3844900D01*
X5704290D01*
G02X5694250Y-3833210I5J10161D01*
G03X5694820Y-3825700I-49449J7530D01*
G03X5594780I-50020J0D01*
G03X5595350Y-3833210I50019J20D01*
G02X5585310Y-3844900I-10045J-1529D01*
G01X5485660D01*
G02X5475670Y-3832880I-2J10160D01*
G03X5476520Y-3823700I-49170J9182D01*
G03X5376480I-50020J0D01*
G03X5377330Y-3832880I50020J2D01*
G02X5367340Y-3844900I-9988J-1860D01*
G01X5283220D01*
G02X5273240Y-3832840I0J10160D01*
G03X5274120Y-3823500I-49140J9341D01*
G03X5174080I-50020J0D01*
G03X5174960Y-3832840I50020J1D01*
G02X5164980Y-3844900I-9980J-1900D01*
G01X4845800D01*
X4830750Y-3829850D01*
Y-3583950D01*
X4782500Y-3535700D01*
Y-3477940D01*
X4808220Y-3452220D01*
Y-3377280D01*
X4888180Y-3297320D01*
X5616720D01*
X5628040Y-3286000D01*
X5682140D01*
G03X5685730Y-3277330I-4J5080D01*
G01X5684400Y-3276000D01*
Y-3229640D01*
X5714420Y-3199620D01*
Y-3012720D01*
G02X5729060Y-3003600I10160J0D01*
G03X5751100Y-3008720I22045J44899D01*
G03Y-2908680I0J50020D01*
G03X5723540Y-2916960I0J-50007D01*
G01X5720080Y-2919240D01*
X5680720Y-2879880D01*
X5583880D01*
X5508200Y-2804200D01*
Y-2742550D01*
G03X5515520Y-2716500I-42693J26050D01*
G03X5515420Y-2713350I-50020J-11D01*
G01X5515280Y-2711060D01*
X5551720Y-2674620D01*
Y-2591030D01*
G02X5569820Y-2584690I10160J1D01*
G03X5605000Y-2601620I35180J28086D01*
G03X5650020Y-2556600I0J45020D01*
G03X5619790Y-2514080I-45018J0D01*
G02X5617660Y-2495930I3344J9592D01*
G03X5638420Y-2458000I-24270J37930D01*
G03X5593400Y-2412980I-45020J0D01*
G03X5563970Y-2423930I0J-45024D01*
G01X5560650Y-2425170D01*
X5557330Y-2423930D01*
G03X5551720Y-2419800I-29415J-34081D01*
G01Y-2404680D01*
X5512520Y-2365480D01*
X5466180D01*
X5379160Y-2278460D01*
G02X5386350Y-2261120I7188J7180D01*
G01X5500070D01*
X5501080Y-2261580D01*
G03X5521900Y-2266120I20820J45469D01*
G03X5564290Y-2242650I0J50016D01*
G02X5581190Y-2242160I8613J-5389D01*
G03X5617900Y-2261120I36710J26059D01*
G03X5662920Y-2216100I0J45020D01*
G01Y-2159070D01*
G03X5672820Y-2130900I-35128J28170D01*
G01Y-2098200D01*
G03X5670240Y-2083190I-45018J-11D01*
G02X5683580Y-2070370I9580J3382D01*
G03X5702080Y-2073920I18508J46472D01*
G01X5702100D01*
G03X5732650Y-2063510I0J50032D01*
G01X5736140Y-2060810D01*
G03X5736470Y-2061070I31132J39174D01*
G01X5743700Y-2068300D01*
X5749390D01*
G03X5767100Y-2071540I17713J46799D01*
G03X5773550Y-2071120I-20J50039D01*
G01X5774630Y-2071010D01*
X5789760Y-2086140D01*
G02X5787990Y-2101920I-7186J-7183D01*
G03X5766980Y-2140000I24004J-38080D01*
G03X5812000Y-2185020I45020J0D01*
G03X5844640Y-2171010I0J45027D01*
G02X5859360I7360J-7000D01*
G03X5885440Y-2184540I32638J31011D01*
G03X5899490Y-2212620I44759J4841D01*
G02Y-2227480I-6929J-7430D01*
G03X5885450Y-2255460I30709J-32922D01*
G03X5859360Y-2268990I6546J-44542D01*
G02X5844640I-7360J7000D01*
G03X5812000Y-2254980I-32640J-31017D01*
G03Y-2345020I0J-45020D01*
G03X5844640Y-2331010I0J45027D01*
G02X5859360I7360J-7000D01*
G03X5860990Y-2332640I32640J31010D01*
G02Y-2347360I-7000J-7360D01*
G03Y-2412640I31017J-32640D01*
G02Y-2427360I-7000J-7360D01*
G03X5846980Y-2460000I31017J-32640D01*
G03X5937020I45020J0D01*
G03X5923010Y-2427360I-45027J0D01*
G02Y-2412640I7000J7360D01*
G03Y-2347360I-31017J32640D01*
G02Y-2332640I7000J7360D01*
G03X5924640Y-2331010I-31010J32640D01*
G02X5939360I7360J-7000D01*
G03X5972000Y-2345020I32640J31017D01*
G03X6017020Y-2300000I0J45020D01*
G03X6003010Y-2267360I-45027J0D01*
G02Y-2252640I7000J7360D01*
G03X6016870Y-2223720I-31008J32642D01*
G03X6037200Y-2216910I-3724J44868D01*
G01X6040640Y-2214740D01*
X6076200Y-2250300D01*
Y-2339600D01*
X6134440Y-2397840D01*
G02X6128130Y-2415150I-7183J-7187D01*
G03X6086980Y-2460000I3866J-44850D01*
G03X6132000Y-2505020I45020J0D01*
G03X6176850Y-2463870I0J45016D01*
G02X6194160Y-2457560I10123J-873D01*
G01X6218900Y-2482300D01*
X6238760D01*
X6243380Y-2486920D01*
X6243780D01*
X6281880Y-2525020D01*
X6389420D01*
X6421250Y-2493180D01*
X6424780Y-2495860D01*
G03X6452000Y-2505020I27220J35864D01*
G03X6484640Y-2491010I0J45027D01*
G02X6499360I7360J-7000D01*
G03X6564640I32640J31017D01*
G02X6579360I7360J-7000D01*
G03X6644640I32640J31017D01*
G02X6659360I7360J-7000D01*
G03X6692000Y-2505020I32640J31017D01*
G03Y-2414980I0J45020D01*
G03X6659360Y-2428990I0J-45027D01*
G02X6644640I-7360J7000D01*
G03X6643010Y-2427360I-32640J-31010D01*
G02Y-2412640I7000J7360D01*
G03X6657020Y-2380000I-31017J32640D01*
G03X6612000Y-2334980I-45020J0D01*
G03X6579360Y-2348990I0J-45027D01*
G02X6564640I-7360J7000D01*
G03X6499360I-32640J-31017D01*
G02X6484640I-7360J7000D01*
G03X6483010Y-2347360I-32640J-31010D01*
G02Y-2332640I7000J7360D01*
G03Y-2267360I-31017J32640D01*
G02Y-2252640I7000J7360D01*
G03X6484640Y-2251010I-31010J32640D01*
G02X6499360I7360J-7000D01*
G03X6532000Y-2265020I32640J31017D01*
G03X6574880Y-2233730I0J45027D01*
G01X6576010Y-2230200D01*
X6800550D01*
X6803900Y-2226850D01*
X6808420Y-2231360D01*
X6808780Y-2232610D01*
G03X6852000Y-2265020I43220J12613D01*
G03X6884640Y-2251010I0J45027D01*
G02X6899360I7360J-7000D01*
G03X6964640I32640J31017D01*
G02X6979360I7360J-7000D01*
G03X7044640I32640J31017D01*
G02X7059360I7360J-7000D01*
G03X7092000Y-2265020I32640J31017D01*
G03X7137020Y-2220000I0J45020D01*
G03X7123010Y-2187360I-45027J0D01*
G02Y-2172640I7000J7360D01*
G03Y-2107360I-31017J32640D01*
G02Y-2092640I7000J7360D01*
G03Y-2027360I-31017J32640D01*
G02Y-2012640I7000J7360D01*
G03Y-1947360I-31017J32640D01*
G02Y-1932640I7000J7360D01*
G03Y-1867360I-31017J32640D01*
G02Y-1852640I7000J7360D01*
G03X7125740Y-1849810I-31006J32643D01*
G02X7140960I7610J-6727D01*
G03X7174700Y-1865020I33740J29817D01*
G01X7174730D01*
G03X7192330Y-1861430I-17J45023D01*
G01X7193280Y-1861020D01*
X7383620D01*
G03X7412610Y-1849010I-12J41023D01*
G01X7955810Y-1305810D01*
G03X7967820Y-1276820I-29013J29002D01*
G01Y-704090D01*
G03X7977020Y-678200I-31829J25890D01*
G01Y-631800D01*
G03X7971870Y-611900I-41023J0D01*
G03X7976820Y-590210I-45071J21696D01*
G01Y-590200D01*
G03X7876780I-50020J0D01*
G03X7877630Y-599360I50018J22D01*
G02X7869910Y-611120I-9988J-1857D01*
G03X7867960Y-611620I10204J-43850D01*
G02X7855280Y-599870I-2712J9790D01*
G03X7856220Y-590240I-49082J9652D01*
G01Y-590200D01*
G03X7756180I-50020J0D01*
G03X7765180Y-618820I50019J4D01*
G01Y-1178710D01*
X7264910Y-1678980D01*
X7193280D01*
X7192330Y-1678570D01*
G03X7174730Y-1674980I-17617J-41433D01*
G01X7174700D01*
G03X7129680Y-1720000I0J-45020D01*
G03X7155660Y-1760790I45011J0D01*
G02Y-1779210I-4301J-9210D01*
G03X7140960Y-1790190I19025J-40801D01*
G02X7125740I-7610J6727D01*
G03X7092000Y-1774980I-33740J-29817D01*
G03X7059360Y-1788990I0J-45027D01*
G02X7044640I-7360J7000D01*
G03X7012000Y-1774980I-32640J-31017D01*
G03X6966980Y-1820000I0J-45020D01*
G03X6980990Y-1852640I45027J0D01*
G02Y-1867360I-7000J-7360D01*
G03X6979360Y-1868990I31010J-32640D01*
G02X6964640I-7360J7000D01*
G03X6899360I-32640J-31017D01*
G02X6884640I-7360J7000D01*
G03X6870990Y-1859180I-32637J-31011D01*
G01X6868050Y-1857810D01*
Y-1815550D01*
X6861270Y-1808770D01*
X6860910Y-1807470D01*
G03X6829430Y-1775990I-43410J-11930D01*
G01X6828130Y-1775630D01*
X6780050Y-1727550D01*
X6779680Y-1726330D01*
G03X6776370Y-1718300I-43083J-13062D01*
G02X6782890Y-1703680I8976J4761D01*
G03X6817020Y-1660000I-10886J43680D01*
G03X6793660Y-1620530I-45025J0D01*
G01X6793020Y-1620180D01*
X6772140Y-1599300D01*
X6771780Y-1598630D01*
G03X6740000Y-1575400I-39782J-21070D01*
G01X6735820Y-1574640D01*
Y-1489620D01*
X6744940Y-1480500D01*
G02X6762280Y-1487680I7181J-7187D01*
G01Y-1498300D01*
G03X6852320I45020J0D01*
G01Y-1468750D01*
X6855950Y-1465120D01*
X6931900D01*
G03X6963730Y-1451930I-7J45017D01*
G01X6963830Y-1451830D01*
G03X6977020Y-1420000I-31827J31837D01*
G03X6932000Y-1374980I-45020J0D01*
G03X6929160Y-1375070I5J-45020D01*
G01X6929000Y-1375080D01*
X6837300D01*
G03X6805470Y-1388270I7J-45017D01*
G01X6789160Y-1404570D01*
G02X6771820Y-1397390I-7181J7186D01*
G01Y-1369680D01*
X6705640Y-1303500D01*
X6727540Y-1281600D01*
X6757790D01*
G02X6767790Y-1293550I-2J-10161D01*
G03X6767080Y-1301500I44309J-7964D01*
G03X6857120I45020J0D01*
G03X6827170Y-1259080I-45016J0D01*
G02X6823380Y-1242320I3396J9576D01*
G01X7023260Y-1042440D01*
G02X7039020Y-1044170I7187J-7182D01*
G03X7057960Y-1060790I37976J24175D01*
G02Y-1079210I-4301J-9210D01*
G03Y-1160790I19031J-40790D01*
G02Y-1179210I-4301J-9210D01*
G03X7031980Y-1220000I19031J-40790D01*
G03X7077000Y-1265020I45020J0D01*
G01X7077030D01*
G03X7094630Y-1261430I-17J45023D01*
G01X7095580Y-1261020D01*
X7233520D01*
G03X7262510Y-1249010I-12J41023D01*
G01X7462010Y-1049510D01*
G03X7474020Y-1020520I-29013J29002D01*
G01Y-710020D01*
G02X7483410Y-699890I10160J-1D01*
G03X7505000Y-692440I-3410J44890D01*
G03X7513290Y-696810I25026J37426D01*
G03X7513080Y-701200I44812J-4344D01*
G03X7516670Y-718830I45023J-13D01*
G01X7517080Y-719780D01*
Y-1036510D01*
X7174610Y-1378980D01*
X7095580D01*
X7094630Y-1378570D01*
G03X7077030Y-1374980I-17617J-41433D01*
G01X7077000D01*
G03Y-1465020I0J-45020D01*
G01X7077030D01*
G03X7094630Y-1461430I-17J45023D01*
G01X7095580Y-1461020D01*
X7107890D01*
Y-1468080D01*
X7106550Y-1469540D01*
G03X7094680Y-1500000I33147J-30460D01*
G03X7099500Y-1520270I45032J0D01*
G02X7090720Y-1535000I-9072J-4574D01*
G03X7059360Y-1548990I1275J-45002D01*
G02X7044640I-7360J7000D01*
G03X6979360I-32640J-31017D01*
G02X6964640I-7360J7000D01*
G03X6932000Y-1534980I-32640J-31017D01*
G03Y-1625020I0J-45020D01*
G03X6964640Y-1611010I0J45027D01*
G02X6979360I7360J-7000D01*
G03X7012000Y-1625020I32640J31017D01*
G03X7021470Y-1624010I-12J45019D01*
G02X7033440Y-1631380I2138J-9932D01*
G03X7077000Y-1665020I43560J11383D01*
G01X7077030D01*
G03X7094630Y-1661430I-17J45023D01*
G01X7095580Y-1661020D01*
X7178920D01*
G03X7207910Y-1649010I-12J41023D01*
G01X7715210Y-1141710D01*
G03X7727220Y-1112720I-29013J29002D01*
G01Y-609580D01*
X7727630Y-608630D01*
G03X7731220Y-591030I-41433J17617D01*
G01Y-591000D01*
G03X7641180I-45020J0D01*
G01Y-591030D01*
G03X7641760Y-598220I45021J13D01*
G02X7631410Y-610000I-10027J-1627D01*
G03X7630000Y-609980I-1343J-45001D01*
G03X7605000Y-617560I0J-45017D01*
G03X7555000I-25000J-37437D01*
G03X7505000I-25000J-37437D01*
G03X7486030Y-610390I-24992J-37444D01*
G02X7477370Y-598600I1356J10072D01*
G03X7478020Y-591000I-44368J7622D01*
G03X7452170Y-550260I-45028J0D01*
G02X7451500Y-532220I4323J9193D01*
G03X7468640Y-515060I-22104J39218D01*
G02X7486360I8860J-4980D01*
G03X7525600Y-538020I39240J22052D01*
G03X7570620Y-493000I0J45020D01*
G03X7551660Y-456290I-45019J0D01*
G02X7552150Y-439390I5879J8287D01*
G03X7567410Y-424460I-26545J42395D01*
G02X7584390I8490J-5578D01*
G03X7599650Y-439390I41805J27465D01*
G02X7600140Y-456290I-5389J-8613D01*
G03X7581180Y-493000I26059J-36710D01*
G03X7671220I45020J0D01*
G03X7652260Y-456290I-45019J0D01*
G02X7652750Y-439390I5879J8287D01*
G03X7669380Y-422250I-26546J42394D01*
G02X7686920I8770J-5127D01*
G03X7730100Y-447020I43180J25252D01*
G03X7772820Y-423020I0J50021D01*
G02X7790180I8680J-5279D01*
G03X7832900Y-447020I42720J26021D01*
G03X7874670Y-424520I0J50022D01*
G02X7891630I8480J-5594D01*
G03X7933400Y-447020I41770J27522D01*
G03Y-346980I0J50020D01*
G03X7891630Y-369480I0J-50022D01*
G02X7874670I-8480J5594D01*
G03X7832900Y-346980I-41770J-27522D01*
G03X7790180Y-370980I0J-50021D01*
G02X7772820I-8680J5279D01*
G03X7730100Y-346980I-42720J-26021D01*
G03X7686920Y-371750I0J-50022D01*
G02X7669380I-8770J5127D01*
G03X7626200Y-346980I-43180J-25252D01*
G03X7584390Y-369540I0J-50023D01*
G02X7567410I-8490J5578D01*
G03X7525600Y-346980I-41810J-27463D01*
G03X7485620Y-366940I0J-50020D01*
G02X7469380I-8120J6106D01*
G03X7429400Y-346980I-39980J-30060D01*
G03X7388630Y-368020I0J-50021D01*
G02X7372070I-8280J5887D01*
G03X7331300Y-346980I-40770J-28981D01*
G03X7281280Y-397000I0J-50020D01*
G03X7304750Y-439390I50016J0D01*
G02X7305240Y-456290I-5389J-8613D01*
G03X7286280Y-493000I26059J-36710D01*
G03X7304480Y-529160I45022J0D01*
G02X7300780Y-547200I-6054J-8158D01*
G03X7266180Y-591000I10423J-43800D01*
G03X7268710Y-605870I45018J9D01*
G01X7269000Y-607550D01*
X7265540Y-612360D01*
G03X7247350Y-624010I14477J-42629D01*
G02X7229820Y-617020I-7369J6996D01*
G01Y-609580D01*
X7230230Y-608630D01*
G03X7233820Y-591030I-41433J17617D01*
G01Y-591000D01*
G03X7188800Y-545980I-45020J0D01*
G01X7188780D01*
G03X7175880Y-547870I8J-45022D01*
G02X7162800Y-538140I-2922J9729D01*
G01Y-206100D01*
X7211100Y-157800D01*
G37*
G36*
G01X5349600Y-2103200D02*
X5357620Y-2095180D01*
G02X5374930Y-2101520I7186J-7180D01*
G03X5419800Y-2142820I44870J3724D01*
G01X5572880D01*
Y-2171880D01*
G02X5555830Y-2179350I-10160J-2D01*
G03X5521900Y-2166080I-33930J-36743D01*
G03X5501080Y-2170620I0J-50009D01*
G01X5500070Y-2171080D01*
X5349600D01*
Y-2103200D01*
G37*
G36*
G01X5622310Y-158000D02*
X7092800D01*
Y-255510D01*
G02X7076630Y-263700I-10160J1D01*
G03X7050000Y-254980I-26630J-36303D01*
G03X7004980Y-300000I0J-45020D01*
G03X7018990Y-332640I45027J0D01*
G02Y-347360I-7000J-7360D01*
G03X7017360Y-348990I31010J-32640D01*
G02X7002640I-7360J7000D01*
G03X6970000Y-334980I-32640J-31017D01*
G03Y-425020I0J-45020D01*
G03X7002640Y-411010I0J45027D01*
G02X7017360I7360J-7000D01*
G03X7050000Y-425020I32640J31017D01*
G03X7076630Y-416300I0J45023D01*
G02X7092800Y-424490I6010J-8191D01*
G01Y-735510D01*
G02X7076630Y-743700I-10160J1D01*
G03X7050000Y-734980I-26630J-36303D01*
G03Y-825020I0J-45020D01*
G03X7076630Y-816300I0J45023D01*
G02X7092800Y-824490I6010J-8191D01*
G01Y-848600D01*
X6817200Y-1124200D01*
X6814200D01*
X6745720Y-1192680D01*
X6736440D01*
Y-1187210D01*
X6736500Y-1186830D01*
G03X6737020Y-1180000I-44501J6823D01*
G03X6692000Y-1134980I-45020J0D01*
G03X6659360Y-1148990I0J-45027D01*
G02X6644640I-7360J7000D01*
G03X6612000Y-1134980I-32640J-31017D01*
G03X6566980Y-1180000I0J-45020D01*
G03X6567030Y-1182060I45018J62D01*
G02X6556880Y-1192680I-10150J-459D01*
G01X6551200D01*
G03X6520780Y-1205280I0J-43021D01*
G01X6498050Y-1228010D01*
G02X6483710Y-1228040I-7185J7182D01*
G03X6483010Y-1227360I-31718J-31951D01*
G02Y-1212640I7000J7360D01*
G03X6497020Y-1180000I-31017J32640D01*
G03X6406980I-45020J0D01*
G03X6420990Y-1212640I45027J0D01*
G02Y-1227360I-7000J-7360D01*
G03X6406980Y-1260000I31017J-32640D01*
G03X6413180Y-1282800I45023J0D01*
G02X6404420Y-1298100I-8763J-5140D01*
G01X6388490D01*
X6387640Y-1297780D01*
G03X6372000Y-1294980I-15630J-42222D01*
G03X6326980Y-1340000I0J-45020D01*
G03X6340990Y-1372640I45027J0D01*
G02Y-1387360I-7000J-7360D01*
G03X6339360Y-1388990I31010J-32640D01*
G02X6324640I-7360J7000D01*
G03X6292000Y-1374980I-32640J-31017D01*
G03Y-1465020I0J-45020D01*
G03X6324640Y-1451010I0J45027D01*
G02X6339360I7360J-7000D01*
G03X6372000Y-1465020I32640J31017D01*
G03X6378700Y-1464520I9J45021D01*
G01X6381240Y-1464140D01*
X6401500Y-1484400D01*
X6477090D01*
G02X6487200Y-1495560I-1J-10160D01*
G03X6486980Y-1500000I44800J-4445D01*
G03X6577020I45020J0D01*
G03X6576800Y-1495560I-45020J-5D01*
G02X6586910Y-1484400I10111J1000D01*
G01X6673600D01*
X6685800Y-1496600D01*
Y-1578700D01*
X6664500Y-1600000D01*
X6190600D01*
X6186200Y-1595600D01*
Y-1456500D01*
X6176820Y-1447120D01*
Y-1424240D01*
X6176840Y-1424020D01*
G03X6177020Y-1420000I-44840J4022D01*
G03X6132000Y-1374980I-45020J0D01*
G03X6113370Y-1379010I-12J-45023D01*
G01X6110170Y-1380470D01*
X6051640Y-1321940D01*
G02X6057570Y-1304670I7183J7187D01*
G03X6084640Y-1291010I-5562J44674D01*
G02X6099360I7360J-7000D01*
G03X6164640I32640J31017D01*
G02X6179360I7360J-7000D01*
G03X6180990Y-1292640I32640J31010D01*
G02Y-1307360I-7000J-7360D01*
G03X6166980Y-1340000I31017J-32640D01*
G03X6257020I45020J0D01*
G03X6243010Y-1307360I-45027J0D01*
G02Y-1292640I7000J7360D01*
G03Y-1227360I-31017J32640D01*
G02Y-1212640I7000J7360D01*
G03X6257020Y-1180000I-31017J32640D01*
G03X6166980I-45020J0D01*
G03X6180990Y-1212640I45027J0D01*
G02Y-1227360I-7000J-7360D01*
G03X6179360Y-1228990I31010J-32640D01*
G02X6164640I-7360J7000D01*
G03X6099360I-32640J-31017D01*
G02X6084640I-7360J7000D01*
G03X6083010Y-1227360I-32640J-31010D01*
G02Y-1212640I7000J7360D01*
G03X6097020Y-1180000I-31017J32640D01*
G03X6006980I-45020J0D01*
G03X6020990Y-1212640I45027J0D01*
G02Y-1227360I-7000J-7360D01*
G03X6007330Y-1254430I31014J-32632D01*
G02X5990060Y-1260360I-10083J1253D01*
G01X5931530Y-1201830D01*
X5932990Y-1198630D01*
G03X5937020Y-1180000I-40993J18618D01*
G03X5892000Y-1134980I-45020J0D01*
G03X5873370Y-1139010I-12J-45023D01*
G01X5870170Y-1140470D01*
X5851600Y-1121900D01*
X5848440D01*
X5848320Y-1121780D01*
X5703280D01*
X5663600Y-1082100D01*
Y-766000D01*
X5519300Y-621700D01*
X5448200D01*
X5417400Y-590900D01*
Y-388800D01*
X5378100Y-349500D01*
Y-232120D01*
X5411780D01*
Y-251200D01*
G03X5427890Y-290110I55024J-9D01*
G01X5506290Y-368510D01*
G03X5545200Y-384620I38901J38914D01*
G03X5600220Y-329600I0J55020D01*
G03X5584110Y-290690I-55024J9D01*
G01X5521820Y-228410D01*
Y-213820D01*
X5528780D01*
X5530210Y-215050D01*
G03X5562800Y-227120I32590J37963D01*
G03X5612820Y-177100I0J50020D01*
G03X5612260Y-169670I-50017J-34D01*
G02X5622310Y-158000I10049J1509D01*
G37*
G36*
G01X5544600Y-6379700D02*
X5595500D01*
X5605200Y-6389400D01*
Y-6488100D01*
X5671110D01*
X5672190Y-6491720D01*
G03X5768000Y-6563020I95810J28723D01*
G03X5868020Y-6463000I0J100020D01*
G03X5859530Y-6422680I-100019J-7D01*
G02X5868830Y-6408420I9297J4099D01*
G01X5932080D01*
G03X5990400Y-6428420I58320J75031D01*
G03X6002490Y-6427650I18J95021D01*
G03X6063500Y-6449820I61010J72862D01*
G03X6140470Y-6410520I0J95024D01*
G01X6141990Y-6408420D01*
X6153400D01*
Y-6534060D01*
X6153230Y-6534690D01*
G03X6149980Y-6560000I96773J-25290D01*
G03X6153230Y-6585310I100023J-20D01*
G01X6153400Y-6585940D01*
Y-6716000D01*
X6121600Y-6747800D01*
X5841000D01*
X5835800Y-6742600D01*
Y-6689800D01*
X5771000Y-6625000D01*
X5725100D01*
X5723950Y-6623850D01*
X5696750D01*
X5674600Y-6601700D01*
X5588450D01*
G03X5533800Y-6557170I-86452J-50299D01*
G01Y-6390500D01*
X5544600Y-6379700D01*
G37*
G36*
G01X7011400Y-4844400D02*
X8478400D01*
X8489900Y-4855900D01*
Y-4868660D01*
G02X8475950Y-4878090I-10161J-2D01*
G03X8457300Y-4874480I-18657J-46409D01*
G03X8412370Y-4902530I0J-50009D01*
G03X8405000Y-4901980I-7397J-49468D01*
G03X8397730Y-4902510I-8J-50021D01*
G03X8352700Y-4874280I-45030J-21799D01*
G03X8302680Y-4924300I0J-50020D01*
G03X8311110Y-4952090I50021J0D01*
G03X8303880Y-4978000I42792J-25904D01*
G03X8353900Y-5028020I50020J0D01*
G03X8398040Y-5001530I0J50020D01*
G03X8405000Y-5002020I6984J49528D01*
G03X8412830Y-5001400I-21J50018D01*
G03X8457300Y-5028520I44470J22900D01*
G03X8475950Y-5024910I-7J50019D01*
G02X8489900Y-5034340I3789J-9428D01*
G01Y-5256800D01*
X8483400Y-5263300D01*
X8049800D01*
X8049100Y-5262600D01*
X8020400D01*
X8016900Y-5266100D01*
X7543800D01*
X7511800Y-5234100D01*
X7195900D01*
X7143600Y-5286400D01*
Y-5725600D01*
X7213300Y-5795300D01*
X7214400Y-5794200D01*
X7835100D01*
X7896400Y-5855500D01*
Y-6089300D01*
X7824600Y-6161100D01*
X7628940D01*
G03X7483060I-72940J-32894D01*
G01X7409000D01*
X7354800Y-6215300D01*
Y-6273100D01*
X7340150Y-6287750D01*
X7340050D01*
X7332700Y-6295100D01*
X7169300D01*
X7136000Y-6328400D01*
X6317320D01*
G02X6307370Y-6316190I-1J10158D01*
G03X6309020Y-6300000I-78372J16166D01*
G03X6148980I-80020J0D01*
G03X6150630Y-6316190I80022J-24D01*
G02X6140680Y-6328400I-9949J-2052D01*
G01X6099970D01*
G03X6063500Y-6309780I-36470J-26406D01*
G03X6042830Y-6314800I-10J-45022D01*
G02X6029370Y-6310860I-4665J9024D01*
G03X5990400Y-6288380I-38970J-22538D01*
G03X5946300Y-6324340I0J-45021D01*
G01X5945470Y-6328400D01*
X5668800D01*
X5641800Y-6301400D01*
Y-5966100D01*
X5653600Y-5954300D01*
X5719600D01*
X5728400Y-5963100D01*
Y-6090870D01*
G03Y-6169530I21893J-39330D01*
G01Y-6191300D01*
X5730700Y-6193600D01*
X6210190D01*
G03X6250300Y-6205220I40106J63401D01*
G03X6325320Y-6130200I0J75020D01*
G03X6320640Y-6104110I-75021J7D01*
G01X6320320Y-6103260D01*
Y-6086130D01*
X6321650Y-6084670D01*
G03X6340020Y-6037400I-51648J47276D01*
G01Y-6031640D01*
X6340340Y-6030790D01*
G03X6345020Y-6004700I-70341J26083D01*
G03X6339580Y-5976660I-75019J-7D01*
G02X6349000Y-5962700I9423J3799D01*
G01X6417900D01*
X6445800Y-5990600D01*
Y-6150600D01*
X6499600Y-6204400D01*
X6577600D01*
X6600700Y-6227500D01*
X6758100D01*
X6800950Y-6184650D01*
Y-6074050D01*
X6802500Y-6072500D01*
Y-5962700D01*
X6801300Y-5961500D01*
Y-5811100D01*
X6842600D01*
X6957000Y-5696700D01*
Y-4898800D01*
X7011400Y-4844400D01*
G37*
G36*
G01X5499680Y-1463720D02*
X5653620D01*
X5679780Y-1489880D01*
Y-1790120D01*
X5707000Y-1817340D01*
Y-1968800D01*
G02X5701940Y-1973880I-5080J0D01*
G03X5677130Y-1980560I163J-50019D01*
G02X5661900Y-1972030I-5073J8803D01*
G03X5611900Y-1923380I-50000J-1369D01*
G03X5572000Y-1943230I0J-50026D01*
G02X5555800I-8100J6129D01*
G03X5515900Y-1923380I-39900J-30176D01*
G03Y-2023420I0J-50020D01*
G03X5555800Y-2003570I0J50026D01*
G02X5572000I8100J-6129D01*
G03X5611900Y-2023420I39900J30176D01*
G03X5636870Y-2016740I0J50009D01*
G02X5652100Y-2025270I5073J-8803D01*
G03X5655630Y-2042420I50003J1354D01*
G02X5642810Y-2055760I-9438J-3760D01*
G03X5627800Y-2053180I-15021J-42438D01*
G01X5600700D01*
X5600380Y-2053140D01*
G03X5594700Y-2052780I-5682J-44660D01*
G01X5419800D01*
G03X5412440Y-2053390I26J-45018D01*
G01X5409860Y-2053810D01*
X5404430Y-2048370D01*
X5454800Y-1998000D01*
Y-1672860D01*
X5454830Y-1672580D01*
G03X5455120Y-1667200I-49730J5378D01*
G03X5454830Y-1661820I-50020J2D01*
G01X5454800Y-1661540D01*
Y-1508600D01*
X5499680Y-1463720D01*
G37*
G36*
G01X5494800Y-1171800D02*
X5827600D01*
X5848920Y-1193120D01*
X5849300Y-1194250D01*
G03X5851490Y-1199640I42714J14215D01*
G01X5852000Y-1200690D01*
Y-1239310D01*
X5851490Y-1240360D01*
G03Y-1279640I40509J-19640D01*
G01X5852000Y-1280690D01*
Y-1319310D01*
X5851490Y-1320360D01*
G03X5846980Y-1340000I40509J-19640D01*
G03X5892000Y-1385020I45020J0D01*
G03X5923020Y-1372630I0J45026D01*
G01X5926610Y-1369210D01*
X5954500Y-1397100D01*
Y-1397500D01*
X5973300Y-1416300D01*
Y-1435990D01*
X5972650Y-1437150D01*
G03X5966880Y-1459200I39247J-22050D01*
G03X5973300Y-1482370I45021J0D01*
G01Y-1513100D01*
X6012350Y-1552150D01*
Y-1558640D01*
X6011810Y-1559720D01*
G03X6006980Y-1580000I40188J-20287D01*
G03X6012350Y-1601320I45007J0D01*
G01Y-1638680D01*
G03X6006980Y-1660000I39637J-21320D01*
G03X6020990Y-1692640I45027J0D01*
G02Y-1707360I-7000J-7360D01*
G03X6006980Y-1740000I31017J-32640D01*
G03X6052000Y-1785020I45020J0D01*
G03X6096940Y-1742730I0J45023D01*
G02X6114260Y-1736160I10140J-617D01*
G01X6121200Y-1743100D01*
Y-1786800D01*
X6196500Y-1862100D01*
X6205070D01*
X6205770Y-1866360D01*
G03X6250200Y-1904120I44430J7259D01*
G03X6291060Y-1878000I0J45019D01*
G01X6316900D01*
X6328600Y-1866300D01*
Y-1846500D01*
X6333500Y-1841600D01*
Y-1837480D01*
X6333860Y-1836580D01*
G03X6337020Y-1820000I-41862J16570D01*
G03X6333860Y-1803420I-45022J10D01*
G01X6333500Y-1802520D01*
Y-1785900D01*
X6344080Y-1775320D01*
G03X6372000Y-1785020I27920J35332D01*
G03X6401620Y-1773900I0J45009D01*
G01X6422380D01*
G03X6481620I29620J33889D01*
G01X6502380D01*
G03X6532000Y-1785020I29620J33889D01*
G03X6557740Y-1776940I5J45022D01*
G01X6575060Y-1794260D01*
G03X6566980Y-1820000I36942J-25735D01*
G03X6580900Y-1852550I45017J0D01*
G01Y-1867450D01*
G03X6566980Y-1900000I31097J-32550D01*
G03X6574780Y-1925320I45018J7D01*
G01X6558600Y-1941500D01*
X6555340D01*
G03X6532000Y-1934980I-23336J-38501D01*
G03X6508660Y-1941500I-4J-45021D01*
G01X6475340D01*
G03X6452000Y-1934980I-23336J-38501D01*
G03X6434370Y-1938570I-13J-45023D01*
G01X6433420Y-1938980D01*
X6390580D01*
X6389630Y-1938570D01*
G03X6372000Y-1934980I-17617J-41433D01*
G03X6348660Y-1941500I-4J-45021D01*
G01X6315340D01*
G03X6292000Y-1934980I-23336J-38501D01*
G03X6268660Y-1941500I-4J-45021D01*
G01X6138050D01*
X6137650Y-1936860D01*
G03X6092800Y-1895780I-44850J-3943D01*
G03X6085630Y-1896350I-28J-45022D01*
G01X6083070Y-1896770D01*
X6031000Y-1844700D01*
X5805100D01*
X5729800Y-1769400D01*
Y-1451800D01*
X5691700Y-1413700D01*
X5535250D01*
G02X5529440Y-1395210I5J10159D01*
G03X5550820Y-1354200I-28642J41010D01*
G03X5500800Y-1304180I-50020J0D01*
G03X5464110Y-1320200I0J-50025D01*
G02X5446500Y-1313290I-7451J6906D01*
G01Y-1257730D01*
X5450560Y-1256900D01*
G03X5490520Y-1207900I-10063J49000D01*
G03X5485630Y-1186340I-50018J-10D01*
G02X5494800Y-1171800I9169J4379D01*
G37*
G36*
G01X6855370Y-2868800D02*
G02X6865170Y-2881650I2J-10161D01*
G03X6863380Y-2894900I48228J-13261D01*
G03X6963420I50020J0D01*
G03X6961630Y-2881650I-50018J-11D01*
G02X6971430Y-2868800I9798J2689D01*
G01X7005100D01*
X7101800Y-2772100D01*
X7406800D01*
X7498800Y-2864100D01*
Y-2943900D01*
X7555400Y-3000500D01*
X7775720D01*
G02X7785410Y-3013720I1J-10161D01*
G03X7783080Y-3028800I47689J-15088D01*
G03X7802020Y-3067990I50015J0D01*
G02Y-3083910I-6316J-7960D01*
G03X7783080Y-3123100I31075J-39190D01*
G03X7883120I50020J0D01*
G03X7864180Y-3083910I-50015J0D01*
G02Y-3067990I6316J7960D01*
G03X7877730Y-3051380I-31083J39188D01*
G02X7893980Y-3048780I9067J-4586D01*
G01X7979200Y-3134000D01*
Y-3256230D01*
G03Y-3310570I35912J-27170D01*
G01Y-3544300D01*
X7868700D01*
X7863000Y-3550000D01*
X7852500D01*
X7799800Y-3602700D01*
Y-3640380D01*
X7682520D01*
Y-3595770D01*
X7773370D01*
X7827020Y-3542120D01*
Y-3443480D01*
X7744320Y-3360780D01*
X7519690D01*
G02X7510020Y-3347510I2J10159D01*
G03X7512420Y-3332200I-47633J15310D01*
G03X7499540Y-3298690I-50032J0D01*
G01X7498230Y-3295280D01*
X7499620Y-3291790D01*
G03X7513320Y-3257400I-36313J34390D01*
G03X7463300Y-3207380I-50020J0D01*
G03X7429420Y-3220600I0J-50024D01*
G02X7422420Y-3220490I-3442J3737D01*
G03X7387400Y-3206180I-35020J-35696D01*
G03X7353630Y-3219300I0J-50021D01*
G01X7350210Y-3220630D01*
X7346770Y-3219290D01*
G03X7312900Y-3206080I-33870J-36816D01*
G03Y-3306120I0J-50020D01*
G03X7325680Y-3304460I0J50025D01*
G02X7338050Y-3317040I2593J-9822D01*
G03X7336180Y-3330580I48151J-13549D01*
G01Y-3330600D01*
G03X7339030Y-3347240I50019J3D01*
G02X7329450Y-3360780I-9581J-3380D01*
G01X7190680D01*
Y-3432680D01*
X7179680Y-3443680D01*
Y-3596150D01*
G03X7172780Y-3616540I42820J-25853D01*
G01X7172580Y-3618320D01*
X7145320Y-3645580D01*
G03X7109510Y-3630480I-35814J-34922D01*
G01X7109500D01*
G03X7066890Y-3654300I0J-50021D01*
G01X7056110D01*
G03X6970890I-42610J-26201D01*
G01X6962520D01*
X6938740Y-3630520D01*
X6929940Y-3639280D01*
X6928180D01*
X6926920Y-3638470D01*
G03X6919200Y-3634400I-27097J-42042D01*
G01Y-3602600D01*
X7035100D01*
Y-3571300D01*
X7083600D01*
X7108000Y-3546900D01*
Y-3495500D01*
X7082000Y-3469500D01*
X7052340D01*
X7051530Y-3469220D01*
G03X7035200Y-3466480I-16330J-47292D01*
G03X7032670Y-3466550I118J-50016D01*
G01X6992120Y-3426000D01*
X6347580D01*
X6227030Y-3546550D01*
X6211330D01*
X6146300Y-3611580D01*
Y-3844900D01*
X5974300D01*
Y-3606600D01*
X5984500Y-3596400D01*
X6045300D01*
X6056900Y-3584800D01*
Y-3578410D01*
X6058560Y-3576900D01*
G03Y-3502900I-33660J37000D01*
G01X6056900Y-3501390D01*
Y-3496900D01*
X5974900Y-3414900D01*
Y-3250500D01*
X6070870Y-3154530D01*
X6071230Y-3154280D01*
G03X6083280Y-3142230I-28830J40880D01*
G01X6083530Y-3141870D01*
X6356600Y-2868800D01*
X6855370D01*
G37*
G36*
G01X7265600Y-5318200D02*
X8494990D01*
Y-5588680D01*
G02X8479810Y-5597510I-10160J3D01*
G03X8455100Y-5590980I-24710J-43487D01*
G03X8411030Y-5617340I0J-50019D01*
G03X8405000Y-5616980I-5991J-49662D01*
G03Y-5717020I0J-50020D01*
G03X8411760Y-5716560I-8J50019D01*
G03X8455500Y-5742320I43740J24255D01*
G03X8479880Y-5735980I6J50022D01*
G02X8494990Y-5744850I4951J-8870D01*
G01Y-6471610D01*
X8477300Y-6489300D01*
X8233020D01*
Y-6441830D01*
X8233480Y-6440820D01*
G03X8238020Y-6420000I-45469J20820D01*
G03X8137980I-50020J0D01*
G03X8142520Y-6440820I50009J0D01*
G01X8142980Y-6441830D01*
Y-6489300D01*
X7919600D01*
X7868500Y-6540400D01*
Y-6587500D01*
X7829330Y-6626670D01*
X7825020Y-6622360D01*
X7824640Y-6621420D01*
G03X7823880Y-6619680I-46210J-19148D01*
G01X7823420Y-6618670D01*
Y-6592000D01*
G03X7810230Y-6560170I-45001J0D01*
G01X7775020Y-6524950D01*
Y-6431830D01*
X7775480Y-6430820D01*
G03X7780020Y-6410000I-45469J20820D01*
G03X7679980I-50020J0D01*
G03X7684520Y-6430820I50009J0D01*
G01X7684980Y-6431830D01*
Y-6543600D01*
G03X7698170Y-6575430I45001J0D01*
G01X7733380Y-6610650D01*
Y-6618670D01*
X7732920Y-6619680D01*
G03X7728380Y-6640500I45469J-20820D01*
G03X7736110Y-6667210I50011J0D01*
G02X7727520Y-6682800I-8587J-5430D01*
G01X7699400D01*
X7547200Y-6835000D01*
X6417300D01*
X6251100Y-6668800D01*
Y-6658300D01*
X6233420Y-6640620D01*
Y-6503300D01*
X6476600D01*
X6761200Y-6787900D01*
X7070930D01*
X7081000Y-6797970D01*
X7414020D01*
Y-6785780D01*
X7425800Y-6774000D01*
Y-6620100D01*
X7419400Y-6613700D01*
Y-6245800D01*
X7454080Y-6211120D01*
X7477740D01*
X7478750Y-6214870D01*
G03X7556000Y-6274020I77250J20869D01*
G03X7621960Y-6239300I0J80014D01*
G01X7861600D01*
X7967200Y-6133700D01*
Y-5803100D01*
X7909900Y-5745800D01*
X7857440D01*
X7855820Y-5744180D01*
X7294080D01*
X7226900Y-5677000D01*
Y-5356900D01*
X7265600Y-5318200D01*
G37*
G36*
G01X6371600Y-3484000D02*
X6968100D01*
X6977100Y-3493000D01*
Y-3544600D01*
X6904600D01*
X6903200Y-3543200D01*
X6861200Y-3585200D01*
Y-3648690D01*
G03X6849780Y-3680500I38593J-31810D01*
G03X6899800Y-3730520I50020J0D01*
G03X6935040Y-3716000I0J50024D01*
G01X6938630Y-3712430D01*
X6946400Y-3720200D01*
X7065600D01*
Y-3844900D01*
X6942810D01*
G02X6932750Y-3833350I4J10159D01*
G03X6933220Y-3826500I-49551J6841D01*
G03X6833180I-50020J0D01*
G03X6833650Y-3833350I50021J-9D01*
G02X6823590Y-3844900I-10064J-1391D01*
G01X6204300D01*
Y-3635600D01*
X6235350Y-3604550D01*
X6251050D01*
X6371600Y-3484000D01*
G37*
G36*
G01X6199100Y-2067500D02*
X6288800D01*
X6335150Y-2113850D01*
X6333160Y-2117230D01*
G03X6326980Y-2140000I38841J-22766D01*
G03X6340990Y-2172640I45027J0D01*
G02Y-2187360I-7000J-7360D01*
G03X6339360Y-2188990I31010J-32640D01*
G02X6324640I-7360J7000D01*
G03X6292000Y-2174980I-32640J-31017D01*
G03X6251560Y-2200220I0J-45017D01*
G02X6235250Y-2202950I-9130J4459D01*
G01X6216800Y-2184500D01*
X6216940Y-2182220D01*
G03X6217020Y-2179500I-44941J2683D01*
G03X6186110Y-2136750I-45018J0D01*
G01X6184970Y-2136370D01*
X6174880Y-2126280D01*
G03X6174500Y-2125150I-42858J-13784D01*
G01Y-2092100D01*
X6199100Y-2067500D01*
G37*
G36*
G01X6221380Y-1650020D02*
X6680920D01*
X6704100Y-1673200D01*
Y-1708250D01*
G03X6691580Y-1739400I32491J-31150D01*
G03X6695900Y-1758640I45019J3D01*
G01X6697430Y-1761870D01*
X6683200Y-1776100D01*
X6627640D01*
X6575420Y-1723880D01*
X6324780D01*
X6283480Y-1765180D01*
Y-1820880D01*
X6276380Y-1827980D01*
X6245420D01*
X6229520Y-1812080D01*
X6217220D01*
X6206200Y-1801060D01*
Y-1665200D01*
X6221380Y-1650020D01*
G37*
G36*
G01X6742140Y-1787900D02*
X6763400D01*
X6776350Y-1800850D01*
X6775230Y-1803900D01*
G03X6772480Y-1819400I42271J-15494D01*
G03X6777590Y-1840230I45010J0D01*
G02X6769210Y-1855070I-9010J-4698D01*
G03X6726980Y-1900000I2786J-44930D01*
G03X6767020Y-1944740I45016J0D01*
G03X6793760Y-1981350I44781J4638D01*
G01X6796800Y-1982680D01*
Y-2006800D01*
G02X6783940Y-2016590I-10159J3D01*
G03X6772000Y-2014980I-11932J-43411D01*
G03X6726980Y-2060000I0J-45020D01*
G03X6730280Y-2076920I45027J0D01*
G02X6720870Y-2090900I-9414J-3820D01*
G01X6668000D01*
X6650900Y-2073800D01*
X6528370D01*
G03X6497840Y-2055940I-36169J-26803D01*
G01X6493400Y-2055370D01*
Y-1997710D01*
X6493770Y-1996800D01*
G03X6494480Y-1994920I-41753J16842D01*
G01X6495670Y-1991520D01*
X6579320D01*
X6630920Y-1939920D01*
Y-1826120D01*
X6703920D01*
X6742140Y-1787900D01*
G37*
G36*
G01X6554000Y-1330100D02*
X6554400Y-1329700D01*
X6661100D01*
X6721800Y-1390400D01*
Y-1432900D01*
X6708800Y-1445900D01*
X6705840D01*
X6694320Y-1434380D01*
X6649640D01*
G02X6639550Y-1423090I6J10159D01*
G03X6639720Y-1420000I-27551J3065D01*
G03X6584280I-27720J0D01*
G03X6584450Y-1423090I27721J-25D01*
G02X6574360Y-1434380I-10096J-1131D01*
G01X6556480D01*
X6537900Y-1415800D01*
Y-1385340D01*
X6541400Y-1381840D01*
G03X6554000Y-1351420I-30421J30420D01*
G01Y-1330100D01*
G37*
G36*
G01X7202480Y-6375120D02*
X7328720D01*
X7334000Y-6380400D01*
Y-6717950D01*
X7114150D01*
X7013600Y-6617400D01*
X6754100D01*
X6747600Y-6610900D01*
Y-6413800D01*
X6752980Y-6408420D01*
X7169150D01*
X7169170Y-6408400D01*
X7169200D01*
X7202480Y-6375120D01*
G37*
G36*
G01X7512180Y-3410800D02*
X7723600D01*
X7777000Y-3464200D01*
Y-3521400D01*
X7752650Y-3545750D01*
X7660550D01*
X7660000Y-3545200D01*
X7632500Y-3572700D01*
Y-3661300D01*
X7661600Y-3690400D01*
X7680570D01*
G02X7690330Y-3703370I-3J-10160D01*
G03X7688380Y-3717200I48068J-13830D01*
G03X7788420I50020J0D01*
G03X7786470Y-3703370I-50018J0D01*
G02X7796230Y-3690400I9763J2810D01*
G01X7892070D01*
G02X7901830Y-3703370I-3J-10160D01*
G03X7899880Y-3717200I48068J-13830D01*
G03X7999920I50020J0D01*
G03X7997970Y-3703370I-50018J0D01*
G02X8007730Y-3690400I9763J2810D01*
G01X8069820D01*
G02X8079980Y-3700530I1J-10159D01*
G03X8088800Y-3761660I220018J544D01*
G01X8089000Y-3762360D01*
Y-3844900D01*
X7159200D01*
Y-3721500D01*
X7229700Y-3651000D01*
Y-3464400D01*
X7240700Y-3453400D01*
Y-3410800D01*
X7340830D01*
X7341520Y-3415070D01*
G03X7390900Y-3457120I49380J7969D01*
G03X7425560Y-3443170I0J50033D01*
G03X7462000Y-3458920I36440J34280D01*
G03X7511620Y-3415240I0J50024D01*
G01X7512180Y-3410800D01*
G37*
%LPC*%
G75*
G36*
G01X301130Y-7055600D02*
G03Y-7039400I-6129J8100D01*
G02X281280Y-6999500I30176J39900D01*
G02X381320I50020J0D01*
G02X361470Y-7039400I-50026J0D01*
G03Y-7055600I6129J-8100D01*
G02X381320Y-7095500I-30176J-39900D01*
G02X281280I-50020J0D01*
G02X301130Y-7055600I50026J0D01*
G37*
G36*
G01X1893560Y-7190300D02*
G02Y-7140300I37437J25000D01*
G02X1885980Y-7115300I37437J25000D01*
G02X1976020I45020J0D01*
G02X1968440Y-7140300I-45017J0D01*
G02Y-7190300I-37437J-25000D01*
G02Y-7240300I-37437J-25000D01*
G02X1976020Y-7265300I-37437J-25000D01*
G02X1885980I-45020J0D01*
G02X1893560Y-7240300I45017J0D01*
G02Y-7190300I37437J25000D01*
G37*
G36*
G01X2406000Y-6895280D02*
G02X2431000Y-6902860I0J-45017D01*
G02X2481000I25000J-37437D01*
G02X2506000Y-6895280I25000J-37437D01*
G02Y-6985320I0J-45020D01*
G02X2481000Y-6977740I0J45017D01*
G02X2431000I-25000J37437D01*
G02X2406000Y-6985320I-25000J37437D01*
G02Y-6895280I0J45020D01*
G37*
G36*
G01X3916900Y-6812980D02*
G02X3966920Y-6863000I0J-50020D01*
G02X3944920Y-6904440I-50029J0D01*
G01X3944520Y-6904710D01*
X3864960Y-6984260D01*
G02X3830300Y-6998620I-34660J34649D01*
G01X3479600D01*
G02X3444940Y-6984260I0J49009D01*
G01X3412370Y-6951700D01*
G02X3389980Y-6910000I27637J41700D01*
G02X3440000Y-6859980I50020J0D01*
G02X3481440Y-6881980I0J-50029D01*
G01X3481710Y-6882380D01*
X3499900Y-6900580D01*
X3810000D01*
X3875190Y-6835380D01*
X3875460Y-6834980D01*
G02X3916900Y-6812980I41440J-28029D01*
G37*
G36*
G01X3499580Y-6684500D02*
G02X3507160Y-6659500I45017J0D01*
G02X3499580Y-6634500I37437J25000D01*
G02X3589620I45020J0D01*
G02X3582040Y-6659500I-45017J0D01*
G02X3589620Y-6684500I-37437J-25000D01*
G02X3499580I-45020J0D01*
G37*
G36*
G01X2291210Y-6369660D02*
G02X2372790I40790J-19031D01*
G03X2391210I9210J4301D01*
G02X2432000Y-6343680I40790J-19031D01*
G02X2477020Y-6388700I0J-45020D01*
G02X2451040Y-6429490I-45011J0D01*
G03Y-6447910I4301J-9210D01*
G02X2477020Y-6488700I-19031J-40790D01*
G02X2432000Y-6533720I-45020J0D01*
G02X2391210Y-6507740I0J45011D01*
G03X2372790I-9210J-4301D01*
G02X2291210I-40790J19031D01*
G03X2272790I-9210J-4301D01*
G02X2232000Y-6533720I-40790J19031D01*
G02X2186980Y-6488700I0J45020D01*
G02X2212960Y-6447910I45011J0D01*
G03Y-6429490I-4301J9210D01*
G02X2186980Y-6388700I19031J40790D01*
G02X2232000Y-6343680I45020J0D01*
G02X2272790Y-6369660I0J-45011D01*
G03X2291210I9210J4301D01*
G37*
G36*
G01X2812960Y-6429490D02*
G02X2786980Y-6388700I19031J40790D01*
G02X2877020I45020J0D01*
G02X2851040Y-6429490I-45011J0D01*
G03Y-6447910I4301J-9210D01*
G02X2872790Y-6469660I-19040J-40790D01*
G03X2891210I9210J4301D01*
G02X2932000Y-6443680I40790J-19031D01*
G02Y-6533720I0J-45020D01*
G02X2891210Y-6507740I0J45011D01*
G03X2872790I-9210J-4301D01*
G02X2832000Y-6533720I-40790J19031D01*
G02X2786980Y-6488700I0J45020D01*
G02X2812960Y-6447910I45011J0D01*
G03Y-6429490I-4301J9210D01*
G37*
G36*
G01X4862380Y-7151810D02*
G02X4911600Y-7134880I49220J-63083D01*
G02Y-7294920I0J-80020D01*
G02X4862120Y-7277790I0J80026D01*
G02X4812900Y-7294720I-49220J63083D01*
G02Y-7134680I0J80020D01*
G02X4862380Y-7151810I0J-80026D01*
G37*
G36*
G01X4571650Y-7053620D02*
G02X4620500Y-7036980I48850J-63384D01*
G02Y-7197020I0J-80020D01*
G02X4571650Y-7180380I0J80024D01*
G02X4522800Y-7197020I-48850J63384D01*
G02Y-7036980I0J80020D01*
G02X4571650Y-7053620I0J-80024D01*
G37*
G36*
G01X4789170Y-5665200D02*
G02X4784880Y-5640200I70729J25005D01*
G02X4789170Y-5615200I75019J-5D01*
G02X4784880Y-5590200I70729J25005D01*
G02X4934920I75020J0D01*
G02X4930630Y-5615200I-75019J5D01*
G02X4934920Y-5640200I-70729J-25005D01*
G02X4930630Y-5665200I-75019J5D01*
G02X4934920Y-5690200I-70729J-25005D01*
G02X4784880I-75020J0D01*
G02X4789170Y-5665200I75019J-5D01*
G37*
G36*
G01X5097470Y-5556200D02*
G02X5113320Y-5604000I-64168J-47805D01*
G02X4953280I-80020J0D01*
G02X4969130Y-5556200I80018J-5D01*
G02X4953280Y-5508400I64168J47805D01*
G02X5113320I80020J0D01*
G02X5097470Y-5556200I-80018J5D01*
G37*
G36*
G01X6814620Y-5360200D02*
G02X6830620Y-5408200I-64018J-48006D01*
G02X6670580I-80020J0D01*
G02X6686580Y-5360200I80018J-6D01*
G02X6670580Y-5312200I64018J48006D01*
G02X6830620I80020J0D01*
G02X6814620Y-5360200I-80018J6D01*
G37*
G36*
G01X6369370Y-5215300D02*
G02X6365080Y-5190300I70729J25005D01*
G02X6369370Y-5165300I75019J-5D01*
G02X6365080Y-5140300I70729J25005D01*
G02X6515120I75020J0D01*
G02X6510830Y-5165300I-75019J5D01*
G02X6515120Y-5190300I-70729J-25005D01*
G02X6510830Y-5215300I-75019J5D01*
G02X6515120Y-5240300I-70729J-25005D01*
G02X6365080I-75020J0D01*
G02X6369370Y-5215300I75019J-5D01*
G37*
G36*
G01X4930630Y-4965200D02*
G02X4934920Y-4990200I-70729J-25005D01*
G02X4784880I-75020J0D01*
G02X4789170Y-4965200I75019J-5D01*
G02X4784880Y-4940200I70729J25005D01*
G02X4934920I75020J0D01*
G02X4930630Y-4965200I-75019J5D01*
G37*
G36*
G01X6369370Y-4815300D02*
G02X6365080Y-4790300I70729J25005D01*
G02X6369370Y-4765300I75019J-5D01*
G02X6365080Y-4740300I70729J25005D01*
G02X6515120I75020J0D01*
G02X6510830Y-4765300I-75019J5D01*
G02X6515120Y-4790300I-70729J-25005D01*
G02X6510830Y-4815300I-75019J5D01*
G02X6515120Y-4840300I-70729J-25005D01*
G02X6496030Y-4890300I-75024J0D01*
G02X6515120Y-4940300I-55934J-50000D01*
G02X6440100Y-5015320I-75020J0D01*
G01X6275000D01*
G02X6221950Y-4993350I0J75034D01*
G01X6196630Y-4968020D01*
X6172860D01*
X6172020Y-4968320D01*
G02X6145000Y-4973020I-27020J75318D01*
G02Y-4812980I0J80020D01*
G02X6172020Y-4817680I0J-80018D01*
G01X6172860Y-4817980D01*
X6227700D01*
G02X6280750Y-4839950I0J-75034D01*
G01X6306070Y-4865280D01*
X6356220D01*
G03X6366220Y-4853350I-3J10158D01*
G02X6365080Y-4840300I73882J13029D01*
G02X6369370Y-4815300I75019J-5D01*
G37*
G36*
G01X5775700Y-4620730D02*
G02X5750700Y-4625020I-25005J70729D01*
G02Y-4474980I0J75020D01*
G02X5775700Y-4479270I-5J-75019D01*
G02X5800700Y-4474980I25005J-70729D01*
G02X5850700Y-4494070I0J-75024D01*
G02X5900700Y-4474980I50000J-55934D01*
G02Y-4625020I0J-75020D01*
G02X5850700Y-4605930I0J75024D01*
G02X5800700Y-4625020I-50000J55934D01*
G02X5775700Y-4620730I5J75019D01*
G37*
G36*
G01X4585220Y-6328100D02*
G02X4558500Y-6333020I-26720J70097D01*
G02X4633520Y-6258000I0J75020D01*
G02X4625840Y-6291070I-75021J-4D01*
G03X4638780Y-6304970I9116J-4486D01*
G02X4668900Y-6299080I30132J-74128D01*
G02X4588880Y-6379100I0J-80020D01*
G02X4597860Y-6342270I80016J0D01*
G03X4585220Y-6328100I-9019J4677D01*
G37*
G36*
G01X7731000Y-4408520D02*
G02X7781000Y-4390980I49995J-62482D01*
G02X7831000Y-4408520I5J-80022D01*
G02X7881000Y-4390980I49995J-62482D01*
G02Y-4551020I0J-80020D01*
G02X7831000Y-4533480I-5J80022D01*
G02X7781000Y-4551020I-49995J62482D01*
G02X7731000Y-4533480I-5J80022D01*
G02X7713390Y-4544170I-49984J62490D01*
G03X7712710Y-4562420I4110J-9291D01*
G02X7755020Y-4633000I-37714J-70580D01*
G02X7594980I-80020J0D01*
G02X7642610Y-4559830I80017J0D01*
G03X7643290Y-4541580I-4110J9291D01*
G02X7631000Y-4533480I37705J70582D01*
G02X7581000Y-4551020I-49995J62482D01*
G02X7531000Y-4533480I-5J80022D01*
G02X7481000Y-4551020I-49995J62482D01*
G02X7431000Y-4533480I-5J80022D01*
G02X7413390Y-4544170I-49984J62490D01*
G03X7412710Y-4562420I4110J-9291D01*
G02X7455020Y-4633000I-37714J-70580D01*
G02X7294980I-80020J0D01*
G02X7342610Y-4559830I80017J0D01*
G03X7343290Y-4541580I-4110J9291D01*
G02X7331000Y-4533480I37705J70582D01*
G02X7281000Y-4551020I-49995J62482D01*
G02X7231000Y-4533480I-5J80022D01*
G02X7181000Y-4551020I-49995J62482D01*
G02Y-4390980I0J80020D01*
G02X7231000Y-4408520I5J-80022D01*
G02X7281000Y-4390980I49995J-62482D01*
G02X7331000Y-4408520I5J-80022D01*
G02X7381000Y-4390980I49995J-62482D01*
G02X7431000Y-4408520I5J-80022D01*
G02X7481000Y-4390980I49995J-62482D01*
G02X7531000Y-4408520I5J-80022D01*
G02X7581000Y-4390980I49995J-62482D01*
G02X7631000Y-4408520I5J-80022D01*
G02X7681000Y-4390980I49995J-62482D01*
G02X7731000Y-4408520I5J-80022D01*
G37*
G36*
G01X5180630Y-2701670D02*
G03X5171800Y-2688890I-9801J2668D01*
G02X5126580Y-2639100I4801J49790D01*
G02X5226620I50020J0D01*
G02X5224870Y-2652230I-50022J-15D01*
G03X5233700Y-2665010I9801J-2668D01*
G02X5278920Y-2714800I-4801J-49790D01*
G02X5178880I-50020J0D01*
G02X5180630Y-2701670I50022J15D01*
G37*
G36*
G01X4718630Y-1857650D02*
G03X4723360Y-1851630I-263J5075D01*
G02X4722480Y-1842300I49139J9341D01*
G02X4822520I50020J0D01*
G02X4818440Y-1862090I-50021J-3D01*
G02X4822320Y-1881400I-46139J-19316D01*
G02X4814690Y-1907960I-50022J-6D01*
G02X4820520Y-1931400I-44191J-23436D01*
G02X4770500Y-1981420I-50020J0D01*
G02X4727650Y-1957200I0J50015D01*
G02X4721200Y-1957620I-6468J49599D01*
G02X4714020Y-1957100I14J50019D01*
G02X4669200Y-1984920I-44820J22194D01*
G02X4619180Y-1934900I0J50020D01*
G02X4627270Y-1907620I50022J5D01*
G02X4619280Y-1880500I42031J27120D01*
G02X4669300Y-1830480I50020J0D01*
G02X4714020Y-1858100I0J-50013D01*
G02X4718630Y-1857650I7159J-49503D01*
G37*
G36*
G01X4813550Y-1069570D02*
G03X4800050I-6750J-7592D01*
G02X4766800Y-1082220I-33250J37373D01*
G02Y-982180I0J50020D01*
G02X4800050Y-994830I0J-50023D01*
G03X4813550I6750J7592D01*
G02X4846800Y-982180I33250J-37373D01*
G02Y-1082220I0J-50020D01*
G02X4813550Y-1069570I0J50023D01*
G37*
G36*
G01X4700730Y-902540D02*
G02X4671700Y-911820I-29022J40742D01*
G02X4621680Y-861800I0J50020D01*
G02X4627400Y-838570I50031J0D01*
G02X4621280Y-814600I43899J23974D01*
G02X4671300Y-764580I50020J0D01*
G02X4714310Y-789060I0J-50023D01*
G02X4721200Y-788580I6913J-49538D01*
G02X4726640Y-788880I-30J-50018D01*
G02X4769300Y-764980I42660J-26123D01*
G02X4819320Y-815000I0J-50020D01*
G02X4813430Y-838560I-50023J-11D01*
G02X4818870Y-854930I-44036J-23723D01*
G03X4831940Y-863140I10051J1493D01*
G02X4846800Y-860880I14865J-47759D01*
G02Y-960920I0J-50020D01*
G02X4813550Y-948270I0J50023D01*
G03X4800050I-6750J-7592D01*
G02X4766800Y-960920I-33250J37373D01*
G02X4716780Y-910900I0J50020D01*
G01Y-910830D01*
G03X4700730Y-902540I-10158J15D01*
G37*
G36*
G01X4982410Y-212450D02*
G03X4967570Y-212990I-7168J-7201D01*
G02X4929800Y-230220I-37770J32783D01*
G02Y-130180I0J50020D01*
G02X4965090Y-144750I0J-50023D01*
G03X4979930Y-144210I7168J7201D01*
G02X5017700Y-126980I37770J-32783D01*
G02Y-227020I0J-50020D01*
G02X4982410Y-212450I0J50023D01*
G37*
G36*
G01X4973330Y-1665560D02*
G02X4947180Y-1621600I23875J43960D01*
G02X5047220I50020J0D01*
G02X5021070Y-1665560I-50025J0D01*
G03X5020630Y-1683160I4851J-8927D01*
G02X5042220Y-1721600I-23425J-38440D01*
G02X5016240Y-1762390I-45011J0D01*
G03Y-1780810I4301J-9210D01*
G02X5042220Y-1821600I-19031J-40790D01*
G02X4952180I-45020J0D01*
G02X4978160Y-1780810I45011J0D01*
G03Y-1762390I-4301J9210D01*
G02X4952180Y-1721600I19031J40790D01*
G02X4973770Y-1683160I45015J0D01*
G03X4973330Y-1665560I-5291J8673D01*
G37*
G36*
G01X4978160Y-1362390D02*
G02X4952180Y-1321600I19031J40790D01*
G02X5042220I45020J0D01*
G02X5016240Y-1362390I-45011J0D01*
G03Y-1380810I4301J-9210D01*
G02X5042220Y-1421600I-19031J-40790D01*
G02X4952180I-45020J0D01*
G02X4978160Y-1380810I45011J0D01*
G03Y-1362390I-4301J9210D01*
G37*
G36*
G01X4926830Y-332640D02*
G02X4901780Y-289300I24967J43340D01*
G02X5001820I50020J0D01*
G02X4977600Y-332150I-50015J0D01*
G03X4977770Y-349660I5241J-8705D01*
G02X4992700Y-362830I-24963J-43346D01*
G03X5008900I8100J6129D01*
G02X5048800Y-342980I39900J-30176D01*
G02X5098820Y-393000I0J-50020D01*
G02X5066240Y-439880I-50018J0D01*
G01X5065200Y-440270D01*
X5045820Y-459650D01*
Y-513300D01*
G02X5000800Y-558320I-45020J0D01*
G02X4975800Y-550740I0J45017D01*
G02X4950800Y-558320I-25000J37437D01*
G02X4905780Y-513300I0J45020D01*
G02X4950710Y-468280I45020J0D01*
G03X4955780Y-463200I-10J5080D01*
G01Y-448060D01*
G03X4950890Y-442980I-5081J3D01*
G02X4902780Y-393000I1906J49980D01*
G02X4927000Y-350150I50015J0D01*
G03X4926830Y-332640I-5241J8705D01*
G37*
G36*
G01X5469040Y-3590960D02*
G03X5485790Y-3590790I8317J5835D01*
G02X5527300Y-3568680I41510J-27911D01*
G02X5567110Y-3588420I0J-50013D01*
G03X5583290I8090J6151D01*
G02X5623100Y-3568680I39810J-30273D01*
G02Y-3668720I0J-50020D01*
G02X5583290Y-3648980I0J50013D01*
G03X5567110I-8090J-6151D01*
G02X5527300Y-3668720I-39810J30273D01*
G02X5486360Y-3647440I0J50022D01*
G03X5469610Y-3647610I-8317J-5835D01*
G02X5428100Y-3669720I-41510J27911D01*
G02Y-3569680I0J50020D01*
G02X5469040Y-3590960I0J-50022D01*
G37*
G36*
G01X8305760Y-2932020D02*
G03X8289690Y-2932190I-7969J-6298D01*
G02X8249800Y-2952020I-39890J30206D01*
G02Y-2851980I0J50020D01*
G02X8289040Y-2870980I0J-50020D01*
G03X8305110Y-2870810I7969J6298D01*
G02X8345000Y-2850980I39890J-30206D01*
G02Y-2951020I0J-50020D01*
G02X8305760Y-2932020I0J50020D01*
G37*
G36*
G01X7838000Y-2642490D02*
G03X7841560Y-2628430I-5118J8777D01*
G02X7834980Y-2605000I38439J23434D01*
G02X7925020I45020J0D01*
G02X7905900Y-2641820I-45013J0D01*
G03X7903550Y-2656140I5844J-8312D01*
G02X7907260Y-2662030I-40364J-29538D01*
G03X7916260Y-2661930I4474J2407D01*
G02X7960800Y-2634680I44540J-22775D01*
G02X8001030Y-2654970I0J-50028D01*
G03X8017370I8170J6034D01*
G02X8057600Y-2634680I40230J-29738D01*
G02Y-2734720I0J-50020D01*
G02X8017370Y-2714430I0J50028D01*
G03X8001030I-8170J-6034D01*
G02X7960800Y-2734720I-40230J29738D01*
G02X7920540Y-2714380I0J50014D01*
G03X7904060Y-2714550I-8179J-6029D01*
G02X7863200Y-2735720I-40860J28847D01*
G02X7813180Y-2685700I0J50020D01*
G02X7838000Y-2642490I50023J0D01*
G37*
G36*
G01X5758860Y-3374510D02*
G02X5719700Y-3397320I-39160J22210D01*
G02Y-3307280I0J45020D01*
G02X5758860Y-3330090I0J-45020D01*
G03X5776540I8840J5008D01*
G02X5815700Y-3307280I39160J-22210D01*
G02Y-3397320I0J-45020D01*
G02X5776540Y-3374510I0J45020D01*
G03X5758860I-8840J-5008D01*
G37*
G36*
G01X6073810Y-2672860D02*
G02X6037100Y-2691820I-36710J26059D01*
G02Y-2601780I0J45020D01*
G02X6073810Y-2620740I0J-45019D01*
G03X6090710Y-2620250I8287J5879D01*
G02X6133100Y-2596780I42390J-26546D01*
G02Y-2696820I0J-50020D01*
G02X6090710Y-2673350I0J50016D01*
G03X6073810Y-2672860I-8613J-5389D01*
G37*
G36*
G01X7620790Y-2624040D02*
G02X7580000Y-2650020I-40790J19031D01*
G02Y-2559980I0J45020D01*
G02X7620790Y-2585960I0J-45011D01*
G03X7639210I9210J4301D01*
G02X7680000Y-2559980I40790J-19031D01*
G02Y-2650020I0J-45020D01*
G02X7639210Y-2624040I0J45011D01*
G03X7620790I-9210J-4301D01*
G37*
G36*
G01X6368980Y-893910D02*
Y-878580D01*
X6368570Y-877630D01*
G02X6364980Y-860000I41433J17617D01*
G02X6410000Y-814980I45020J0D01*
G02X6442640Y-828990I0J-45027D01*
G03X6457360I7360J7000D01*
G02X6490000Y-814980I32640J-31017D01*
G02Y-905020I0J-45020D01*
G02X6466490Y-898390I6J45018D01*
G03X6451020Y-907060I-5309J-8663D01*
G01Y-910900D01*
G02X6439010Y-939910I-41023J-8D01*
G01X6428420Y-950490D01*
Y-974320D01*
X6428830Y-975270D01*
G02X6432420Y-992900I-41433J-17617D01*
G02X6342380I-45020J0D01*
G02X6345970Y-975270I45023J13D01*
G01X6346380Y-974320D01*
Y-933500D01*
G02X6358390Y-904490I41023J8D01*
G01X6368980Y-893910D01*
G37*
G36*
G01X6297360Y-731010D02*
G03X6282640I-7360J-7000D01*
G02X6250000Y-745020I-32640J31017D01*
G02Y-654980I0J45020D01*
G02X6282640Y-668990I0J-45027D01*
G03X6297360I7360J7000D01*
G02X6330000Y-654980I32640J-31017D01*
G02Y-745020I0J-45020D01*
G02X6297360Y-731010I0J45027D01*
G37*
G36*
G01X6617360D02*
G03X6602640I-7360J-7000D01*
G02X6570000Y-745020I-32640J31017D01*
G02Y-654980I0J45020D01*
G02X6602640Y-668990I0J-45027D01*
G03X6617360I7360J7000D01*
G02X6650000Y-654980I32640J-31017D01*
G02X6695020Y-700000I0J-45020D01*
G02X6681010Y-732640I-45027J0D01*
G03Y-747360I7000J-7360D01*
G02X6682640Y-748990I-31010J-32640D01*
G03X6697360I7360J7000D01*
G02X6762640I32640J-31017D01*
G03X6777360I7360J7000D01*
G02X6810000Y-734980I32640J-31017D01*
G02Y-825020I0J-45020D01*
G02X6777360Y-811010I0J45027D01*
G03X6762640I-7360J-7000D01*
G02X6697360I-32640J31017D01*
G03X6682640I-7360J-7000D01*
G02X6681010Y-812640I-32640J31010D01*
G03Y-827360I7000J-7360D01*
G02X6695020Y-860000I-31017J-32640D01*
G02X6604980I-45020J0D01*
G02X6618990Y-827360I45027J0D01*
G03Y-812640I-7000J7360D01*
G02Y-747360I31017J32640D01*
G03Y-732640I-7000J7360D01*
G02X6617360Y-731010I31010J32640D01*
G37*
G36*
G01X6442640Y-348990D02*
G03X6457360I7360J7000D01*
G02X6522640I32640J-31017D01*
G03X6537360I7360J7000D01*
G02X6570000Y-334980I32640J-31017D01*
G02Y-425020I0J-45020D01*
G02X6537360Y-411010I0J45027D01*
G03X6522640I-7360J-7000D01*
G02X6457360I-32640J31017D01*
G03X6442640I-7360J-7000D01*
G02X6410000Y-425020I-32640J31017D01*
G02Y-334980I0J45020D01*
G02X6442640Y-348990I0J-45027D01*
G37*
G36*
G01X5978990Y-347360D02*
G03Y-332640I-7000J7360D01*
G02X5964980Y-300000I31017J32640D01*
G02X6055020I45020J0D01*
G02X6041010Y-332640I-45027J0D01*
G03Y-347360I7000J-7360D01*
G02X6055020Y-380000I-31017J-32640D01*
G02X6010000Y-425020I-45020J0D01*
G02X5977360Y-411010I0J45027D01*
G03X5962640I-7360J-7000D01*
G02X5930000Y-425020I-32640J31017D01*
G02Y-334980I0J45020D01*
G02X5962640Y-348990I0J-45027D01*
G03X5977360I7360J7000D01*
G02X5978990Y-347360I32640J-31010D01*
G37*
G36*
G01X6218990D02*
G03Y-332640I-7000J7360D01*
G02X6204980Y-300000I31017J32640D01*
G02X6295020I45020J0D01*
G02X6281010Y-332640I-45027J0D01*
G03Y-347360I7000J-7360D01*
G02X6295020Y-380000I-31017J-32640D01*
G02X6204980I-45020J0D01*
G02X6218990Y-347360I45027J0D01*
G37*
G36*
G01X6522640Y-188990D02*
G03X6537360I7360J7000D01*
G02X6602640I32640J-31017D01*
G03X6617360I7360J7000D01*
G02X6650000Y-174980I32640J-31017D01*
G02X6683480Y-189900I0J-45024D01*
G01X6683570Y-190000D01*
X6721830Y-228270D01*
G02X6734760Y-255230I-31824J-31843D01*
G02X6770050Y-279440I-4763J-44768D01*
G01X6770410Y-280150D01*
X6802030Y-311770D01*
G02X6814430Y-335200I-31826J-31840D01*
G02X6855020Y-380000I-4428J-44800D01*
G02X6810000Y-425020I-45020J0D01*
G02X6765770Y-388400I0J45021D01*
G02X6738370Y-375430I4436J44799D01*
G01X6737520Y-374590D01*
G03X6722990Y-374760I-7182J-7185D01*
G02X6690400Y-388720I-32590J31061D01*
G02X6645800Y-349840I0J45021D01*
G02X6599980Y-300000I4196J49840D01*
G02X6618980Y-260760I50020J0D01*
G01X6619210Y-260580D01*
X6623010Y-256780D01*
X6618170Y-251930D01*
G02X6617330Y-251070I31781J31882D01*
G03X6602600Y-251050I-7375J-6990D01*
G02X6570000Y-265020I-32600J31052D01*
G02X6537360Y-251010I0J45027D01*
G03X6522640I-7360J-7000D01*
G02X6490000Y-265020I-32640J31017D01*
G02Y-174980I0J45020D01*
G02X6522640Y-188990I0J-45027D01*
G37*
G36*
G01X6705950Y-1038700D02*
G02X6700600Y-1039020I-5358J44700D01*
G02X6745620Y-994000I0J45020D01*
G02X6743630Y-1007230I-45019J7D01*
G03X6754550Y-1020300I9714J-2981D01*
G02X6759900Y-1019980I5358J-44700D01*
G02X6714880Y-1065000I0J-45020D01*
G02X6716870Y-1051770I45019J-7D01*
G03X6705950Y-1038700I-9714J2981D01*
G37*
G36*
G01X6892980Y-6029700D02*
G02X6910770Y-5981200I75007J0D01*
G02X6909980Y-5970000I79229J11216D01*
G02X7070020I80020J0D01*
G02X7069640Y-5977830I-80022J-41D01*
G03X7079750Y-5988980I10110J-992D01*
G01X7087140D01*
X7087980Y-5988680D01*
G02X7115000Y-5983980I27020J-75318D01*
G02Y-6144020I0J-80020D01*
G02X7087980Y-6139320I0J80018D01*
G01X7087140Y-6139020D01*
X7057760D01*
G02X7005700Y-6160020I-52060J54030D01*
G01X6995860D01*
X6995020Y-6160320D01*
G02X6968000Y-6165020I-27020J75318D01*
G02X6887980Y-6085000I0J80020D01*
G02X6892680Y-6057980I80018J0D01*
G01X6892980Y-6057140D01*
Y-6029700D01*
G37*
G36*
G01X5780990Y-1467360D02*
G03Y-1452640I-7000J7360D01*
G02X5766980Y-1420000I31017J32640D01*
G02X5857020I45020J0D01*
G02X5843010Y-1452640I-45027J0D01*
G03Y-1467360I7000J-7360D01*
G02Y-1532640I-31017J-32640D01*
G03Y-1547360I7000J-7360D01*
G02Y-1612640I-31017J-32640D01*
G03Y-1627360I7000J-7360D01*
G02Y-1692640I-31017J-32640D01*
G03Y-1707360I7000J-7360D01*
G02X5857020Y-1740000I-31017J-32640D01*
G02X5766980I-45020J0D01*
G02X5780990Y-1707360I45027J0D01*
G03Y-1692640I-7000J7360D01*
G02Y-1627360I31017J32640D01*
G03Y-1612640I-7000J7360D01*
G02Y-1547360I31017J32640D01*
G03Y-1532640I-7000J7360D01*
G02Y-1467360I31017J32640D01*
G37*
G36*
G01X6107610Y-3486620D02*
G03Y-3469880I-5762J8370D01*
G02X6085980Y-3428700I28385J41180D01*
G02X6186020I50020J0D01*
G02X6164390Y-3469880I-50015J0D01*
G03Y-3486620I5762J-8370D01*
G02X6186020Y-3527800I-28385J-41180D01*
G02X6085980I-50020J0D01*
G02X6107610Y-3486620I50015J0D01*
G37*
G36*
G01X6995300Y-3357270D02*
G03X6979100I-8100J-6129D01*
G02X6939200Y-3377120I-39900J30176D01*
G02Y-3277080I0J50020D01*
G02X6979100Y-3296930I0J-50026D01*
G03X6995300I8100J6129D01*
G02X7035200Y-3277080I39900J-30176D01*
G02Y-3377120I0J-50020D01*
G02X6995300Y-3357270I0J50026D01*
G37*
G36*
G01X6651090Y-3652280D02*
G03X6634910I-8090J-6151D01*
G02X6595100Y-3672020I-39810J30273D01*
G02Y-3571980I0J50020D01*
G02X6634910Y-3591720I0J-50013D01*
G03X6651090I8090J6151D01*
G02X6690900Y-3571980I39810J-30273D01*
G02X6740920Y-3622000I0J-50020D01*
G02X6722000Y-3661180I-50027J0D01*
G03X6722200Y-3677250I6315J-7958D01*
G02X6742120Y-3717200I-30100J-39950D01*
G02X6642080I-50020J0D01*
G02X6661000Y-3678020I50027J0D01*
G03X6660800Y-3661950I-6315J7958D01*
G02X6651090Y-3652280I30108J39943D01*
G37*
G36*
G01X7288480Y-3677960D02*
G03X7288310Y-3661890I-6298J7969D01*
G02X7268480Y-3622000I30193J39883D01*
G02X7368520I50020J0D01*
G02X7349520Y-3661240I-50020J0D01*
G03X7349690Y-3677310I6298J-7969D01*
G02X7369520Y-3717200I-30193J-39883D01*
G02X7269480I-50020J0D01*
G02X7288480Y-3677960I50020J0D01*
G37*
G36*
G01X7489200Y-3652170D02*
G03X7473000I-8100J-6129D01*
G02X7433100Y-3672020I-39900J30176D01*
G02Y-3571980I0J50020D01*
G02X7473000Y-3591830I0J-50026D01*
G03X7489200I8100J6129D01*
G02X7529100Y-3571980I39900J-30176D01*
G02X7579120Y-3622000I0J-50020D01*
G02X7560120Y-3661240I-50020J0D01*
G03X7560290Y-3677310I6298J-7969D01*
G02X7580120Y-3717200I-30193J-39883D01*
G02X7480080I-50020J0D01*
G02X7499080Y-3677960I50020J0D01*
G03X7498910Y-3661890I-6298J7969D01*
G02X7489200Y-3652170I30201J39879D01*
G37*
G54D24*
X3010500Y-6618200D03*
X3132000Y-6288700D03*
X1632000Y-6388700D03*
X2082100Y-4641000D03*
X2080300Y-4938400D03*
X5050800Y-661300D03*
X8142100Y-3283400D03*
X7730100Y-284500D03*
X7012000Y-2380000D03*
X7626200Y-284500D03*
X8153600Y-2806000D03*
X6366600Y-2632800D03*
X6589900D03*
X6090000Y-700000D03*
X6890000Y-300000D03*
X6389000Y-3205000D03*
X6465000Y-3127000D03*
X7189000Y-3205000D03*
X7265000Y-3127000D03*
G54D22*
X585900Y-7096500D03*
X966400D03*
X713400D03*
X1221900Y-7676500D03*
X2822800Y-7574000D03*
X3137500Y-7158200D03*
X2905900Y-7069900D03*
X4619400Y-3186900D03*
X4984700Y-2759600D03*
X4619400Y-2767200D03*
X4637500Y-2258800D03*
Y-2387400D03*
X4474600Y-1650000D03*
X4772800Y-1297400D03*
X5189400Y-1095000D03*
X4772600Y-1721800D03*
X4772800Y-1422500D03*
X4477500Y-2204300D03*
X5018200Y-2117600D03*
X4997200Y-1121600D03*
X4773800Y-1599900D03*
X5752100Y-2638400D03*
X5527300Y-3401700D03*
X6185300Y-546800D03*
X7275700Y-5908700D03*
X5515900Y-1777100D03*
X5611900Y-1666500D03*
X7346200Y-2843400D03*
X7035100Y-3123100D03*
X7375000Y-5583000D03*
X7675000D03*
X8275000D03*
X7975000D03*
X6480100Y-3717200D03*
G54D23*
X245500Y-4827800D03*
G54D26*
X5272400Y-5574600D03*
X5422400Y-5310900D03*
G54D25*
X5905000Y-6972000D03*
X5683100Y-5798600D03*
X4858900Y-6659100D03*
X6838000Y-7058000D03*
X4668900Y-6659100D03*
X7975000Y-4633000D03*
X4668900Y-6919100D03*
X4858900D03*
X6187100Y-4474700D03*
X4786900Y-5964300D03*
X4732700Y-5390400D03*
X6228800Y-5225400D03*
X6019400Y-5147300D03*
X6387100Y-4474700D03*
X6587100D03*
X8230000Y-6130000D03*
%LPD*%
G75*
G54D10*
X300000Y-7700000D03*
Y-4300000D03*
Y-3700000D03*
Y-300000D03*
X4000000Y-7700000D03*
Y-4300000D03*
Y-3700000D03*
Y-300000D03*
X4600000Y-7700000D03*
Y-4300000D03*
Y-3700000D03*
Y-300000D03*
X8300000Y-7700000D03*
Y-4300000D03*
Y-3700000D03*
Y-300000D03*
G54D20*
G01X3084200Y-5039000D02*
X3082300D01*
X3032000Y-4988700D01*
G54D11*
X245500Y-4827800D03*
G54D21*
G01X1680100Y-6038400D02*
X1682300D01*
X1732000Y-5988700D01*
G01X1682100Y-4940900D02*
Y-4938800D01*
X1632000Y-4888700D01*
G01X1832000Y-5988700D02*
X1834100D01*
X1884000Y-5938800D01*
G01X1882100Y-6040400D02*
X1832000Y-5990300D01*
Y-5988700D01*
G01X1782100Y-4840300D02*
Y-4838800D01*
X1732000Y-4788700D01*
G01X1881400Y-4840300D02*
X1782100D01*
G01X2680400Y-6038700D02*
X2682000D01*
X2732000Y-5988700D01*
G01X2884700Y-5938400D02*
X2882300D01*
X2832000Y-5988700D01*
G01X2882000Y-4736700D02*
Y-4738700D01*
X2832000Y-4788700D01*
G01X2781600Y-4838500D02*
X2782200D01*
X2832000Y-4788700D01*
G01X2983800Y-4938600D02*
X2981900D01*
X2932000Y-4888700D01*
G01X3440000Y-6910000D02*
X3479600Y-6949600D01*
X3830300D01*
X3916900Y-6863000D01*
G01X5959600Y-3523100D02*
X5976400Y-3539900D01*
G01D02*
X6024900D01*
G54D12*
X150900Y-3484700D03*
X167000Y-3315000D03*
X147000Y-2594500D03*
X170000Y-2480000D03*
Y-2283200D03*
X163400Y-1709600D03*
Y-1465600D03*
X164900Y-1285400D03*
X164200Y-538500D03*
X205600Y-7095500D03*
X331300D03*
Y-6999500D03*
X275000Y-3353200D03*
X221300Y-3334500D03*
X450000Y-3267300D03*
X397000Y-3314400D03*
X393600Y-3214600D03*
X291600Y-3277000D03*
X393500Y-2998000D03*
X450800Y-3043100D03*
X454700Y-3158000D03*
X396100Y-3105600D03*
X291600Y-3020400D03*
Y-3148200D03*
X309400Y-2189400D03*
X180300D03*
X439200D03*
Y-1812600D03*
X309400D03*
X180300D03*
X240200Y-1370500D03*
X444200Y-1018000D03*
X444300Y-948000D03*
X444200Y-878300D03*
X482500Y-982600D03*
X482000Y-914800D03*
X482100Y-845000D03*
X481800Y-776000D03*
X444400Y-809000D03*
X482100Y-706300D03*
X445100Y-738900D03*
X444400Y-673800D03*
X250100Y-562500D03*
X349100Y-565000D03*
X451800Y-552500D03*
X713400Y-7096500D03*
X585900D03*
X713400Y-7000500D03*
X585900D03*
X664700Y-5106400D03*
X528800Y-3845800D03*
X568500Y-3771900D03*
X575500Y-3690500D03*
X555500Y-3613700D03*
X677200Y-3583600D03*
X695100Y-3531500D03*
X755200Y-3601600D03*
X739200Y-3325000D03*
X661400D03*
X739100Y-3255100D03*
X661500Y-3255000D03*
X699700Y-3289600D03*
X699200Y-3221800D03*
X712600Y-3477600D03*
X508300Y-3314700D03*
X512600Y-3210800D03*
X739000Y-3185100D03*
X661400Y-3185300D03*
X699300Y-3152000D03*
X699000Y-3083000D03*
X699300Y-3013300D03*
X739200Y-3115900D03*
X661600Y-3116000D03*
X739100Y-3046100D03*
X662300Y-3045900D03*
X739600Y-2979100D03*
X661600Y-2980800D03*
X511200Y-2999400D03*
X512600Y-3104800D03*
X539200Y-2118900D03*
X685200Y-2119900D03*
X612300Y-2088800D03*
X612100Y-2147600D03*
X666800Y-2066500D03*
X557800Y-2065300D03*
X557100Y-2172200D03*
X666300Y-2173000D03*
X786800Y-2189400D03*
X685200Y-1883500D03*
X539200Y-1882500D03*
X612500Y-1860800D03*
X612800Y-1922500D03*
X556300Y-1829900D03*
X557600Y-1936100D03*
X666300Y-1937200D03*
X667200Y-1830300D03*
X786800Y-1812600D03*
X522000Y-1018000D03*
X521900Y-948100D03*
X521800Y-878100D03*
X522000Y-808900D03*
X751800Y-848800D03*
X687700Y-758400D03*
X683400Y-1020400D03*
X747200Y-976200D03*
X692000Y-927200D03*
X521900Y-739100D03*
X522400Y-672100D03*
X525300Y-489000D03*
X682500Y-678700D03*
X746900Y-717000D03*
X557900Y-400900D03*
X539500Y-172100D03*
X562500Y-242700D03*
X564300Y-314700D03*
X749400Y-243400D03*
X689700Y-176400D03*
X691400Y-318100D03*
X725000Y-394400D03*
X966400Y-7096500D03*
X1082900Y-6978500D03*
X1006500Y-6384600D03*
X984500Y-6498400D03*
X1006500Y-6256300D03*
X959700Y-6117300D03*
X1007500Y-5672100D03*
X951800Y-5394900D03*
X836900Y-5416900D03*
X842200Y-5563600D03*
Y-5657600D03*
X1048700Y-5394900D03*
X954400Y-5097600D03*
X863900Y-5105400D03*
X1080400Y-4788000D03*
X954400Y-4968000D03*
X939000Y-4836300D03*
X974500Y-4572500D03*
X928300Y-4486300D03*
X1038100Y-4468000D03*
X928300Y-4352400D03*
X858000Y-4175300D03*
X809400Y-4142100D03*
X902900Y-4142800D03*
X810300Y-4209400D03*
X906700Y-4209200D03*
X1019200Y-4187600D03*
X884500Y-3601600D03*
X1015900D03*
X1063600Y-2731900D03*
X979900Y-2648000D03*
X1062900Y-2553700D03*
Y-2296500D03*
X1045800Y-2189400D03*
X916100D03*
Y-1812600D03*
X1054800Y-1722400D03*
Y-1529200D03*
X1077800Y-1416700D03*
X807900Y-755600D03*
X810500Y-1020400D03*
X804100Y-933000D03*
X932600Y-963700D03*
Y-832700D03*
X1044200Y-464400D03*
X1003000Y-645100D03*
X1058000Y-625100D03*
X947800Y-660400D03*
X1064200Y-519400D03*
X816000Y-680900D03*
X932600Y-702800D03*
X915800Y-304900D03*
X1047900D03*
X1064300Y-409300D03*
X806200Y-175800D03*
X802000Y-316000D03*
X990300Y-394400D03*
X858400D03*
X1221900Y-7676500D03*
X1197700Y-6853900D03*
X1307700Y-6731200D03*
X1107400Y-4467700D03*
X1173700Y-4467200D03*
X1107600Y-4527900D03*
X1395100Y-4273300D03*
X1106400Y-4405800D03*
X1410900Y-3211100D03*
X1255800Y-3469600D03*
X1202700Y-3451100D03*
X1308400Y-3487600D03*
X1256800Y-3334500D03*
X1204100Y-3316500D03*
X1308700Y-3351800D03*
X1326600Y-3286900D03*
X1411300Y-3005300D03*
X1326600Y-3147900D03*
Y-3011000D03*
X1168300Y-2594500D03*
X1191300Y-2480000D03*
Y-2283200D03*
X1328800Y-2188700D03*
X1199200D03*
X1182400Y-1709600D03*
X1199200Y-1812600D03*
X1328800D03*
X1263100Y-1369900D03*
X1182400Y-1465600D03*
X1180500Y-1285200D03*
X1210000Y-524500D03*
X1287800D03*
X1361900Y-522800D03*
X1210100Y-454500D03*
X1248300Y-489100D03*
X1287700Y-454600D03*
X1362000Y-452800D03*
X1400200Y-487400D03*
X1210200Y-180300D03*
X1210900Y-245400D03*
X1210200Y-315500D03*
X1210000Y-384800D03*
X1288200Y-178600D03*
X1287700Y-245600D03*
X1287800Y-315400D03*
X1247900Y-212800D03*
X1247600Y-282500D03*
X1247900Y-351500D03*
X1247800Y-421300D03*
X1287600Y-384600D03*
X1362100Y-178600D03*
X1362800Y-243700D03*
X1362100Y-313800D03*
X1361900Y-383100D03*
X1399800Y-211100D03*
X1399500Y-280800D03*
X1399800Y-349800D03*
X1399700Y-419600D03*
X1552600Y-7292800D03*
X1641600Y-7251700D03*
X1542600Y-7164800D03*
X1497700Y-6731200D03*
X1647900Y-6715300D03*
X1480600Y-5638700D03*
X1664900Y-4453800D03*
X1557900Y-4435200D03*
X1490200Y-4273300D03*
X1664900Y-4333800D03*
X1663600Y-4175300D03*
X1615000Y-4140700D03*
X1712600Y-4140500D03*
X1618300Y-4206700D03*
X1711600Y-4208700D03*
X1497900Y-4187600D03*
X1688900Y-3531500D03*
X1670900Y-3584700D03*
X1560400Y-3531000D03*
X1681700Y-3317400D03*
X1681800Y-3247400D03*
X1720000Y-3282000D03*
X1719500Y-3214200D03*
X1414700Y-3307200D03*
X1530300Y-3305100D03*
X1471900Y-3253700D03*
X1706900Y-3477900D03*
X1681700Y-3177700D03*
X1719600Y-3144400D03*
X1719300Y-3075400D03*
X1719600Y-3005700D03*
X1681900Y-3108400D03*
X1682600Y-3038300D03*
X1681900Y-2973200D03*
X1528700Y-3007400D03*
X1471500Y-3047100D03*
X1413800Y-3103800D03*
X1528700Y-3102200D03*
X1474400Y-3158000D03*
X1537000Y-3205300D03*
X1689700Y-2172600D03*
X1690700Y-2067700D03*
X1576000Y-2171400D03*
X1575600Y-2066400D03*
X1633200Y-2151600D03*
X1633500Y-2094000D03*
X1707900Y-2119900D03*
X1558300Y-2118900D03*
X1456800Y-2188700D03*
X1707900Y-1883500D03*
X1558300Y-1882500D03*
X1578300Y-1827400D03*
Y-1937400D03*
X1687900Y-1938500D03*
X1687800Y-1828500D03*
X1633000Y-1860900D03*
X1633100Y-1919200D03*
X1456800Y-1811600D03*
X1469000Y-807400D03*
X1546600Y-807300D03*
X1506400Y-774400D03*
X1506700Y-843400D03*
X1506600Y-913200D03*
X1507100Y-981000D03*
X1468800Y-876700D03*
X1546400Y-876500D03*
X1468900Y-946400D03*
X1546500Y-946500D03*
X1468800Y-1016400D03*
X1546600D03*
X1698700Y-1025600D03*
X1713500Y-923500D03*
X1715000Y-784200D03*
X1469000Y-672200D03*
X1547000Y-670500D03*
X1469700Y-737300D03*
X1546500Y-737500D03*
X1506700Y-704700D03*
X1439700Y-522800D03*
X1439600Y-452900D03*
X1702000Y-680300D03*
X1440100Y-176900D03*
X1439600Y-243900D03*
X1439700Y-313700D03*
X1439500Y-382900D03*
X1705800Y-184600D03*
X1713700Y-322400D03*
X1937100Y-7736200D03*
X1795300Y-7414400D03*
X1823900Y-7015200D03*
X1786500Y-6929900D03*
X2025600Y-6812200D03*
X1756400Y-6746800D03*
X1732700Y-5781000D03*
X1769100Y-4435200D03*
X1835500Y-4273300D03*
X1933100D03*
X1827500Y-4187600D03*
X2012700Y-3862500D03*
X2013100Y-3768600D03*
X1977400Y-3810700D03*
X1975200Y-3726900D03*
X1741500Y-3601900D03*
X1876700D03*
X2012400D03*
X1759500Y-3317400D03*
X1759400Y-3247500D03*
X1759300Y-3177500D03*
X1759500Y-3108300D03*
X1759400Y-3038500D03*
X1759900Y-2971500D03*
X1986500Y-2645500D03*
X1938500Y-2189800D03*
X1807800D03*
Y-1811600D03*
X1938500D03*
X1981500Y-1722400D03*
X1773500Y-848800D03*
X1843800Y-1022800D03*
X1772200Y-980400D03*
X1830400Y-924200D03*
X1834700Y-779900D03*
X1957500Y-963700D03*
Y-832700D03*
X2027400Y-645100D03*
X1972200Y-662700D03*
X1839500Y-682000D03*
X1772400Y-732600D03*
X1957500Y-702800D03*
X1938800Y-304900D03*
X1759700Y-244300D03*
X1817300Y-184200D03*
X1821000Y-316500D03*
X1748500Y-394400D03*
X2012100D03*
X1880400D03*
X2124300Y-7736200D03*
X2222000D03*
X2090900Y-7375700D03*
X2214500Y-7461300D03*
X2320100Y-7383200D03*
X2244600Y-7382800D03*
X2196100Y-7324500D03*
X2193200Y-7259800D03*
X2121300Y-7450100D03*
X2074700Y-7290500D03*
X2281200Y-7499900D03*
X2072800Y-7499800D03*
X2281000Y-7290300D03*
X2207400Y-7129700D03*
X2091400Y-7211200D03*
X2317200Y-7202200D03*
X2245000Y-7201000D03*
X2127500Y-7137900D03*
X2282000Y-7087500D03*
X2077500Y-7086100D03*
X2333700Y-6833000D03*
X2293200Y-4295300D03*
X2097000Y-3862600D03*
X2055000Y-3810600D03*
X2052000Y-3727100D03*
X2283200Y-3469600D03*
X2230800Y-3451800D03*
X2335700Y-3487700D03*
X2284200Y-3334500D03*
X2231800Y-3316800D03*
X2336000Y-3351700D03*
X2080100Y-2735900D03*
X2196700Y-2594500D03*
X2219700Y-2480000D03*
X2080100Y-2296500D03*
X2230000Y-2189800D03*
X2219700Y-2283200D03*
X2067900Y-2189800D03*
X2077500Y-1722400D03*
X2212500Y-1709600D03*
X2228500Y-1812600D03*
X2067900D03*
X2286900Y-1370500D03*
X2212500Y-1465600D03*
X2100900Y-1416700D03*
X2077900Y-1529200D03*
X2213800Y-1288500D03*
X2303200Y-515300D03*
X2225400D03*
X2303100Y-445400D03*
X2263700Y-479900D03*
X2225500Y-445300D03*
X2068100Y-464400D03*
X2088200Y-519400D03*
X2082400Y-625100D03*
X2303000Y-375400D03*
X2263200Y-412100D03*
X2263300Y-342300D03*
X2263000Y-273300D03*
X2263300Y-203600D03*
X2303200Y-306200D03*
X2303100Y-236400D03*
X2303600Y-169400D03*
X2225400Y-375600D03*
X2225600Y-306300D03*
X2226300Y-236200D03*
X2225600Y-171100D03*
X2072100Y-304900D03*
X2088100Y-409400D03*
X2473800Y-7375700D03*
X2352300Y-7464600D03*
X2369000Y-7327500D03*
X2367700Y-7259800D03*
X2441300Y-7450600D03*
X2472800Y-7291100D03*
X2491300Y-7501600D03*
X2348600Y-7132200D03*
X2473000Y-7214500D03*
X2440100Y-7132600D03*
X2484500Y-7088900D03*
X2465800Y-6071900D03*
X2486300Y-5039100D03*
X2506800Y-4187600D03*
X2624500Y-4208600D03*
Y-4140200D03*
X2410900Y-4273300D03*
X2508600D03*
X2591300Y-3531000D03*
X2353200Y-3656100D03*
X2428800Y-3326600D03*
X2559200Y-3324200D03*
X2495400Y-3280600D03*
X2441100Y-3236700D03*
X2554500Y-3238300D03*
X2353800Y-3272900D03*
X2498500Y-3158000D03*
X2427200Y-2988700D03*
X2565400Y-2989500D03*
X2494900Y-3040700D03*
X2434800Y-3085700D03*
X2559200Y-3085100D03*
X2353800Y-3145300D03*
Y-3017300D03*
X2488800Y-2189800D03*
X2359500D03*
X2588800Y-2118900D03*
X2605200Y-2067200D03*
X2605000Y-2170800D03*
X2485900Y-1812600D03*
X2357500D03*
X2588800Y-1882500D03*
X2608900Y-1827400D03*
X2608800Y-1937500D03*
X2505300Y-809000D03*
X2505100Y-878300D03*
X2505200Y-948000D03*
X2505100Y-1018000D03*
X2582900Y-808900D03*
X2542700Y-776000D03*
X2543000Y-845000D03*
X2542900Y-914800D03*
X2543400Y-982600D03*
X2582700Y-878100D03*
X2582800Y-948100D03*
X2582900Y-1018000D03*
X2505300Y-673800D03*
X2506000Y-738900D03*
X2583300Y-672100D03*
X2582800Y-739100D03*
X2543000Y-706300D03*
X2455100Y-513600D03*
X2377300D03*
X2455000Y-443700D03*
X2415600Y-478200D03*
X2377400Y-443600D03*
X2454900Y-373700D03*
X2415100Y-410400D03*
X2415200Y-340600D03*
X2414900Y-271600D03*
X2415200Y-201900D03*
X2455100Y-304500D03*
X2455000Y-234700D03*
X2455500Y-167700D03*
X2377300Y-373900D03*
X2377500Y-304600D03*
X2378200Y-234500D03*
X2377500Y-169400D03*
X2822800Y-7574000D03*
X2726800D03*
Y-7479600D03*
X2824800Y-7446900D03*
X2743500Y-7056300D03*
X2780300Y-6979200D03*
X2743900Y-6943000D03*
X2905900Y-7069900D03*
X2650600Y-6793900D03*
X2910000Y-5709700D03*
X2887200Y-5160100D03*
X2887700Y-5261400D03*
X2839600Y-4187600D03*
X2673400Y-4175300D03*
X2721800Y-4208900D03*
X2721200Y-4139500D03*
X2935600Y-4273300D03*
X2837900D03*
X2882000Y-4423700D03*
X2721100Y-3531500D03*
X2702700Y-3584500D03*
X2899800Y-3601400D03*
X2780100Y-3601900D03*
X2743100Y-3221800D03*
X2743600Y-3289600D03*
X2705400Y-3255000D03*
X2783000Y-3255100D03*
X2705300Y-3325000D03*
X2783100D03*
X2739000Y-3478700D03*
X2705500Y-2980800D03*
X2783500Y-2979100D03*
X2706200Y-3045900D03*
X2783000Y-3046100D03*
X2705500Y-3116000D03*
X2783100Y-3115900D03*
X2743200Y-3013300D03*
X2742900Y-3083000D03*
X2743200Y-3152000D03*
X2705300Y-3185300D03*
X2782900Y-3185100D03*
X2838000Y-2189800D03*
X2734900Y-2119900D03*
X2661700Y-2085100D03*
X2661900Y-2152300D03*
X2719500Y-2069200D03*
Y-2169400D03*
X2734900Y-1883500D03*
X2661900Y-1857400D03*
X2662000Y-1915600D03*
X2714800Y-1828500D03*
X2714900Y-1938600D03*
X2835600Y-1812600D03*
X2804000Y-848800D03*
X2729100Y-1022900D03*
X2871700Y-1023100D03*
X2801400Y-976900D03*
X2738600Y-924000D03*
X2864900Y-925000D03*
X2742100Y-784500D03*
X2855500Y-785500D03*
X2729400Y-676900D03*
X2875400Y-675600D03*
X2799300Y-724000D03*
X2944500Y-304900D03*
X2777100Y-233700D03*
X2739500Y-172700D03*
X2820100Y-171900D03*
X2739900Y-313000D03*
X2821700Y-310900D03*
X2885600Y-394400D03*
X2752300D03*
X3192900Y-7313600D03*
X3009100D03*
X3010500Y-7158200D03*
X3137500D03*
X3001700Y-6747400D03*
X3023600Y-6859600D03*
X3137500Y-6618200D03*
X3002100Y-4720200D03*
X3178500Y-4273300D03*
X3053400Y-4295300D03*
X3124500Y-3863500D03*
X3040200Y-3863000D03*
X3040600Y-3769100D03*
X3002700Y-3727400D03*
X3079500Y-3727600D03*
X3082500Y-3811100D03*
X3004900Y-3811200D03*
X3038300Y-3601900D03*
X3261300Y-3531500D03*
X3243900Y-3583000D03*
X3258400Y-3600300D03*
X3250500Y-3316500D03*
X3100300Y-2736700D03*
X3009400Y-2649200D03*
X3219000Y-2594500D03*
X3242000Y-2480000D03*
X3099300Y-2553700D03*
Y-2296500D03*
X3242000Y-2283200D03*
X3252900Y-2189800D03*
X2966200D03*
X3095000D03*
X3103700Y-1722400D03*
X3234900Y-1709600D03*
X3251500Y-1812100D03*
X3093600Y-1812600D03*
X2964400D03*
X3234900Y-1465600D03*
X3103700Y-1529200D03*
X3126700Y-1416700D03*
X3233100Y-1289700D03*
X2986500Y-963700D03*
Y-832700D03*
X3056500Y-645100D03*
X3002900Y-663500D03*
X3110800Y-625500D03*
X3073300Y-464400D03*
X3093300Y-519300D03*
X2986500Y-702800D03*
X3093400Y-409400D03*
X3078700Y-304900D03*
X3019300Y-394500D03*
X3440000Y-6910000D03*
X3264500Y-6618200D03*
X3433000Y-6680000D03*
X3329000D03*
X3440000Y-6790000D03*
X3437300Y-4546100D03*
X3437800Y-4454800D03*
Y-4334800D03*
X3274600Y-4273300D03*
X3437100Y-4175300D03*
X3282600Y-4187600D03*
X3387400Y-4140200D03*
X3484700Y-4139900D03*
X3389200Y-4207300D03*
X3483500Y-4207000D03*
X3518900Y-3600300D03*
X3388900D03*
X3303000Y-3334200D03*
X3459800Y-3324200D03*
X3523300Y-3278700D03*
X3472900Y-3222300D03*
X3278900Y-3479300D03*
X3354400Y-3351900D03*
X3372900Y-3277200D03*
X3529300Y-3158000D03*
X3466200Y-2993100D03*
X3526300Y-3044600D03*
X3465400Y-3092400D03*
X3372900Y-3146900D03*
Y-3019500D03*
X3381000Y-2189800D03*
X3510500D03*
X3509600Y-1812100D03*
X3380600D03*
X3318500Y-1369900D03*
X3567100Y-984300D03*
X3566600Y-916500D03*
X3566700Y-846700D03*
X3566400Y-777700D03*
X3528800Y-1019700D03*
X3528900Y-949700D03*
X3528800Y-880000D03*
X3529000Y-810700D03*
X3529700Y-740600D03*
X3478000Y-304900D03*
X3312600Y-238600D03*
X3271700Y-176000D03*
X3353900Y-174700D03*
X3274600Y-309600D03*
X3358900Y-310000D03*
X3289800Y-394400D03*
X3557300D03*
X3423500D03*
X3708300Y-7558500D03*
X3764500Y-7528000D03*
X3685800Y-7616100D03*
X3578100Y-7602300D03*
X3709000Y-7496100D03*
X3709600Y-7432400D03*
X3764700Y-7466600D03*
X3832800Y-7424000D03*
X3824800Y-7497500D03*
X3604100Y-4904800D03*
Y-4784800D03*
X3734000Y-4788600D03*
X3606000Y-4685100D03*
X3623200Y-4295300D03*
X3760200Y-3844000D03*
X3737600Y-3763600D03*
X3731400Y-3678000D03*
X3745100Y-3589500D03*
X3775200Y-3228200D03*
X3775700Y-3296000D03*
X3737500Y-3261400D03*
X3815100Y-3261500D03*
X3737400Y-3331400D03*
X3815200D03*
X3786900Y-3505200D03*
X3863900Y-3458600D03*
X3589700Y-3322600D03*
X3585000Y-3226400D03*
X3737600Y-2987200D03*
X3815600Y-2985500D03*
X3738300Y-3052300D03*
X3815100Y-3052500D03*
X3737600Y-3122400D03*
X3815200Y-3122300D03*
X3775300Y-3019700D03*
X3775000Y-3089400D03*
X3775300Y-3158400D03*
X3737400Y-3191700D03*
X3815000Y-3191500D03*
X3588300Y-2996500D03*
X3585600Y-3095800D03*
X3611200Y-2118900D03*
X3759600Y-2119900D03*
X3685400Y-2091500D03*
X3685500Y-2149700D03*
X3628800Y-2066100D03*
X3629300Y-2172000D03*
X3741500Y-2066600D03*
X3741800Y-2172500D03*
X3815300Y-2189000D03*
X3611200Y-1882500D03*
X3759600Y-1883500D03*
X3685400Y-1854900D03*
Y-1911700D03*
X3628900Y-1829200D03*
X3629200Y-1935100D03*
X3741400Y-1830100D03*
X3741500Y-1936700D03*
X3754500Y-1812700D03*
X3606600Y-1019700D03*
X3606500Y-949800D03*
X3606400Y-879800D03*
X3606600Y-810600D03*
X3828700Y-848800D03*
X3757000Y-1022200D03*
X3764400Y-783100D03*
X3763600Y-926900D03*
X3823900Y-974500D03*
X3606500Y-740800D03*
X3762100Y-459200D03*
X3838900Y-506000D03*
X3611600Y-464400D03*
X3755700Y-675800D03*
X3826400Y-732800D03*
X3631600Y-519300D03*
X3757100Y-146500D03*
X3733300Y-216200D03*
X3733400Y-298600D03*
X3733700Y-384500D03*
X3615100Y-304900D03*
X3591700Y-409200D03*
X3916900Y-6863000D03*
X4124300Y-6371100D03*
Y-6161100D03*
X4125900Y-5782500D03*
X4124100Y-5507400D03*
X4124600Y-5297000D03*
X4126000Y-5096900D03*
X4124600Y-4877700D03*
X4124500Y-4710500D03*
X3958300Y-3438600D03*
X4057600Y-3437700D03*
X4141200Y-3470900D03*
X4136100Y-2736500D03*
X4044000Y-2649200D03*
X4134500Y-2553700D03*
Y-2296500D03*
X4081900Y-2189000D03*
X3948700D03*
X3885200Y-1813100D03*
X4129200Y-1722400D03*
X4152200Y-1416700D03*
X4129200Y-1529200D03*
X3901400Y-1021700D03*
X3890400Y-785100D03*
X3884900Y-926400D03*
X4143700Y-518900D03*
X4082500Y-645100D03*
X3902800Y-673300D03*
X4137700Y-625100D03*
X4027400Y-665100D03*
X4476100Y-7357300D03*
X4493500Y-6060300D03*
X4474500Y-5370430D03*
X4474100Y-5507400D03*
X4475400Y-5093700D03*
X4472800Y-4880100D03*
X4477940Y-3307030D03*
X4477500Y-2204300D03*
X4476600Y-1891200D03*
X4439300Y-1838600D03*
X4440000Y-1942700D03*
X4474600Y-1650000D03*
X4763900Y-6919100D03*
X4522800Y-7117000D03*
X4620500D03*
X4668900Y-6919100D03*
X4738200Y-6789000D03*
X4668900Y-6659100D03*
X4763900Y-6379100D03*
X4668900D03*
X4620300Y-6060500D03*
Y-5854300D03*
X4786900Y-5964300D03*
X4732700Y-5390400D03*
X4636700D03*
X4619400Y-3282900D03*
X4524800D03*
X4619400Y-3186900D03*
X4771000Y-2904000D03*
X4619400Y-2977200D03*
X4636500Y-2645300D03*
X4619400Y-2767200D03*
X4637500Y-2387400D03*
X4636500Y-2515800D03*
X4637500Y-2258800D03*
X4721200Y-1907600D03*
X4669300Y-1880500D03*
X4669200Y-1934900D03*
X4772300Y-1881400D03*
X4770500Y-1931400D03*
X4772600Y-1721800D03*
X4772500Y-1842300D03*
X4513700Y-1839300D03*
X4512500Y-1942100D03*
X4772800Y-1422500D03*
X4773800Y-1599900D03*
X4772800Y-1297400D03*
X4563900Y-1168300D03*
X4563500Y-1104900D03*
X4562700Y-1235000D03*
X4500200Y-1168600D03*
X4628500Y-1169400D03*
X4721200Y-838600D03*
X4671300Y-814600D03*
X4769300Y-815000D03*
X4671700Y-861800D03*
X4769400Y-862300D03*
X4766800Y-910900D03*
Y-1032200D03*
X4916000Y-7393200D03*
X4915300Y-7391900D03*
X4858900Y-6919100D03*
X4812900Y-7214700D03*
X4911600Y-7214900D03*
X5019500Y-6634900D03*
X4858900Y-6659100D03*
X5006200Y-6445500D03*
X5108500Y-6014800D03*
X4975600Y-5965500D03*
X5033300Y-5604000D03*
Y-5508400D03*
X5035000Y-4731000D03*
X5049500Y-4372400D03*
X5089900Y-3310800D03*
X4962700Y-2997800D03*
X4965200Y-3135700D03*
X5089900Y-3190800D03*
X4962700Y-2648500D03*
X4984700Y-2759600D03*
X5067600Y-2462000D03*
X4912700Y-2450700D03*
X5067600Y-2342000D03*
X5018200Y-2117600D03*
X4997200Y-1621600D03*
Y-1121600D03*
X4846800Y-1032200D03*
Y-910900D03*
X4929800Y-180200D03*
X4951800Y-289300D03*
X4952800Y-393000D03*
X5017700Y-177000D03*
X5048800Y-393000D03*
X5047800Y-289300D03*
X5069800Y-240300D03*
X5226900Y-7623400D03*
Y-7783400D03*
X5130100Y-7392200D03*
X5130000Y-7391900D03*
X5205000Y-7022000D03*
X5147400Y-6363600D03*
X5378000Y-6463000D03*
X5337900Y-4456300D03*
X5152100Y-4372400D03*
X5329900Y-4174400D03*
X5139300Y-4175600D03*
X5224100Y-3823500D03*
X5207400Y-3203500D03*
X5231900Y-2957400D03*
X5352800Y-2935300D03*
X5302000Y-3203500D03*
X5152300Y-2809400D03*
X5176600Y-2639100D03*
X5376600D03*
X5351600Y-2834400D03*
X5228900Y-2714800D03*
X5349400Y-2735600D03*
X5269200Y-2836100D03*
X5359000Y-2456600D03*
X5222300Y-2458700D03*
X5178200Y-2117600D03*
X5405100Y-1667200D03*
X5189400Y-1095000D03*
X5402200Y-1354200D03*
X5281900Y-1342200D03*
X5346500Y-917900D03*
X5189400Y-894600D03*
X5339800Y-797200D03*
Y-657200D03*
X5203300Y-666200D03*
X5255200Y-518600D03*
X5409400Y-284900D03*
X5227500Y-177100D03*
X5149300Y-177000D03*
X5367500Y-177100D03*
X5255200Y-328600D03*
X5605000Y-6950000D03*
X5502000Y-6652000D03*
X5573000Y-6463000D03*
X5697000Y-6252000D03*
X5695100Y-6003100D03*
X5683100Y-5798600D03*
X5586100Y-5607100D03*
X5581900Y-5141300D03*
X5587100Y-5312900D03*
X5455900Y-4335000D03*
X5574200Y-4190900D03*
X5426500Y-3823700D03*
X5428100Y-3619700D03*
X5527300Y-3618700D03*
X5623100D03*
X5644800Y-3825700D03*
X5527300Y-3401700D03*
X5525800Y-3206600D03*
X5552900Y-3009400D03*
X5469800Y-2958300D03*
X5465500Y-2716500D03*
X5430000Y-2834800D03*
X5455700Y-2455600D03*
X5702100Y-2023900D03*
X5521900Y-2216100D03*
X5515900Y-1777100D03*
Y-1973400D03*
X5611900D03*
X5645600Y-1849000D03*
X5611900Y-1666500D03*
X5515900Y-1570500D03*
X5668000Y-1213400D03*
X5515700Y-1227200D03*
X5440500Y-1207900D03*
X5500800Y-1354200D03*
X5710800Y-607500D03*
X5457700Y-678200D03*
X5709800Y-416200D03*
X5700400Y-317000D03*
X5455900Y-398700D03*
X5562800Y-177100D03*
X5545200Y-329600D03*
X5466800Y-177100D03*
X5744000Y-7623300D03*
Y-7783300D03*
X5784900Y-7504400D03*
X5952400Y-7157400D03*
X5857400Y-7024300D03*
X5905000Y-6972000D03*
X6020000Y-6690000D03*
X5768000Y-6463000D03*
X6020000Y-6560000D03*
Y-6430000D03*
X5867000Y-5907700D03*
X6008300Y-5489000D03*
X5848300D03*
X6019400Y-5147300D03*
X6014800Y-4372400D03*
X5801500Y-4343900D03*
X5864700Y-4187700D03*
X5924100Y-3619700D03*
X6024900Y-3629900D03*
Y-3539900D03*
X5751100Y-2958700D03*
X6010100Y-3065900D03*
X5978500Y-3021600D03*
Y-3112600D03*
X5750000Y-3113500D03*
X5752100Y-2638400D03*
X5751100Y-2833400D03*
X5852300Y-2023200D03*
X5767100Y-2021500D03*
X5932800Y-1938500D03*
X5798000Y-1213400D03*
X5806700Y-1305800D03*
X6261400Y-7623400D03*
Y-7783400D03*
X6297300Y-7504300D03*
X6215000Y-6950000D03*
X6199000Y-7215000D03*
X6109000Y-6690000D03*
X6229000Y-6300000D03*
X6110000Y-6560000D03*
Y-6430000D03*
X6250000Y-6560000D03*
X6317000Y-6252000D03*
X6324400Y-5226600D03*
X6228800Y-5225400D03*
X6145000Y-4893000D03*
X6187100Y-4474700D03*
X6149900Y-4372400D03*
X6228000Y-3627400D03*
X6138000D03*
X6136000Y-3527800D03*
Y-3332000D03*
Y-3236700D03*
Y-3428700D03*
X6040700Y-3020300D03*
X6042400Y-3113400D03*
X6133100Y-2646800D03*
X6185300Y-546800D03*
X6605000Y-6950000D03*
X6643000Y-7058000D03*
X6510000Y-6950000D03*
X6360500Y-6546000D03*
X6367100Y-6004700D03*
X6349600Y-5690300D03*
X6608500Y-5855000D03*
X6630500Y-5738600D03*
X6353500Y-5440300D03*
X6387100Y-4474700D03*
X6587100D03*
X6596100Y-3717200D03*
X6384100D03*
X6595100Y-3622000D03*
X6480100Y-3717200D03*
X6614700Y-2957000D03*
X6518100Y-2956000D03*
X6601900Y-2738000D03*
X6378600D03*
X6538000Y-2681000D03*
X6506300Y-2625700D03*
X6506000Y-2736800D03*
X6468600Y-2679600D03*
X6604800Y-2680900D03*
X6650000Y-300000D03*
X6786400Y-7623300D03*
Y-7783300D03*
X6748100Y-7504400D03*
X6864900Y-6956700D03*
X6959900Y-7157400D03*
X6838000Y-7058000D03*
X6700000Y-6950000D03*
X6773000Y-6463000D03*
X6853100Y-6004700D03*
X6707000Y-6252000D03*
X6680000Y-6144400D03*
X6750600Y-5408200D03*
Y-5312200D03*
X6811000Y-4776900D03*
X6821000Y-4646300D03*
X6883200Y-3826500D03*
X6690900Y-3622000D03*
X6803800Y-3680500D03*
X6928200Y-3617300D03*
X6899800Y-3680500D03*
X6692100Y-3717200D03*
X6939200Y-3516500D03*
X6938600Y-3422200D03*
X6928200Y-3224500D03*
X6939200Y-3327100D03*
X6939100Y-3123100D03*
X6913400Y-2894900D03*
X6912600Y-2685700D03*
X6816000D03*
X6825000Y-2738000D03*
X7136500Y-7623400D03*
Y-7783400D03*
X7100500Y-7320700D03*
X7173200Y-7504300D03*
X7215000Y-6950000D03*
X7120000D03*
X7220000Y-6690000D03*
Y-6560000D03*
Y-6430000D03*
X7115000Y-6064000D03*
X6968000Y-6085000D03*
X6990000Y-5970000D03*
X7181000Y-4471000D03*
X7013500Y-3680500D03*
X7222500Y-3622000D03*
X7223500Y-3717200D03*
X7109500Y-3680500D03*
X7035200Y-3327100D03*
Y-3516500D03*
X7035100Y-3123100D03*
X7154900Y-2844400D03*
X7251500D03*
X7196900Y-2685700D03*
X7103900D03*
X7008700D03*
X7049000Y-2738000D03*
X7077000Y-1520000D03*
X7310000Y-6950000D03*
X7309000Y-6690000D03*
X7310000Y-6560000D03*
Y-6430000D03*
X7565000Y-6544600D03*
X7450000Y-6560000D03*
X7405000Y-6065000D03*
X7375700Y-6004700D03*
X7316600Y-6252000D03*
X7556000Y-6194000D03*
X7480000Y-6260000D03*
X7530000Y-5980000D03*
Y-5850000D03*
X7405000Y-5875000D03*
X7275700Y-5908700D03*
X7375000Y-5583000D03*
X7548000Y-5520000D03*
X7368000D03*
X7548000Y-5090000D03*
X7368000D03*
X7375000Y-4633000D03*
X7381000Y-4471000D03*
X7481000D03*
X7281000D03*
X7434100Y-3717200D03*
X7433100Y-3622000D03*
X7318500D03*
X7319500Y-3717200D03*
X7530100D03*
X7529100Y-3622000D03*
X7386200Y-3330600D03*
X7312900Y-3256100D03*
X7463300Y-3257400D03*
X7462000Y-3408900D03*
X7387400Y-3256200D03*
X7390900Y-3407100D03*
X7462400Y-3332200D03*
X7442400Y-2940400D03*
X7346200Y-2843400D03*
X7575900Y-2685700D03*
X7291400D03*
X7429400Y-397000D03*
X7525600Y-188500D03*
Y-397000D03*
X7331300D03*
X7587000Y-7235000D03*
X7778400Y-6640500D03*
X7730000Y-6410000D03*
X7675000Y-5583000D03*
X7728000Y-5520000D03*
Y-5090000D03*
X7881000Y-4471000D03*
X7681000D03*
X7581000D03*
X7675000Y-4633000D03*
X7781000Y-4471000D03*
X7863400Y-3622000D03*
X7642400Y-3717200D03*
X7853900D03*
X7726100Y-3620400D03*
X7738400Y-3717200D03*
X7737100Y-3516800D03*
X7726100Y-3224500D03*
X7863400Y-3502000D03*
X7833100Y-3028800D03*
Y-3123100D03*
X7863200Y-2902000D03*
X7835400Y-2882900D03*
X7863200Y-2685700D03*
X7740100Y-2883700D03*
X7603000Y-2895200D03*
X7835400Y-2786900D03*
X7740100Y-2787700D03*
X7730100Y-493000D03*
X7832900D03*
X7806200Y-590200D03*
X7626200Y-397000D03*
X7832900D03*
Y-188500D03*
X7730100Y-397000D03*
X7626200Y-188500D03*
X7730100D03*
X7806200Y-281800D03*
X8188000Y-6420000D03*
X7975000Y-5583000D03*
X8124000Y-5558000D03*
Y-5458000D03*
X7908000Y-5520000D03*
X7927000Y-5215000D03*
X8124000Y-5158000D03*
X7908000Y-5090000D03*
X7927000Y-5365000D03*
X8124000Y-5058000D03*
X7975000Y-4633000D03*
X7989000Y-4195000D03*
X7949900Y-3717200D03*
X7960800Y-2902000D03*
X8153600D03*
X8057600Y-2684700D03*
X7960800D03*
X7933400Y-493000D03*
X7926800Y-590200D03*
X7933400Y-188500D03*
Y-397000D03*
X8333000Y-7235000D03*
X8201650Y-6628350D03*
X8230000Y-6130000D03*
X8450000Y-6270000D03*
X8429000Y-6005000D03*
X8455500Y-5692300D03*
X8405000Y-5667000D03*
X8455100Y-5641000D03*
X8275000Y-5583000D03*
X8405000Y-4952000D03*
X8352700Y-4924300D03*
X8457300Y-4924500D03*
X8353900Y-4978000D03*
X8457300Y-4978500D03*
X8337700Y-4600400D03*
X8249800Y-2902000D03*
Y-2684700D03*
X8345000Y-2901000D03*
X8440300Y-2685700D03*
X8345000D03*
G54D13*
G01X1281500Y-6438400D02*
Y-6438200D01*
X1232000Y-6388700D01*
G01X1480800Y-6238900D02*
X1481800D01*
X1532000Y-6188700D01*
G01Y-6088700D02*
X1481900Y-6138800D01*
G01D02*
X1479800D01*
G01X1580400Y-5838500D02*
X1582200D01*
X1632000Y-5788700D01*
G01X1532000Y-5688700D02*
X1481800Y-5738900D01*
G01D02*
X1480600D01*
G01X1532000Y-5488700D02*
X1481900Y-5538800D01*
G01X1532000Y-5388700D02*
X1482100Y-5438600D01*
G01X1481900Y-5538800D02*
X1480600D01*
G01X1482100Y-5438600D02*
X1480600D01*
G01X1532000Y-5188700D02*
X1482100Y-5238600D01*
G01D02*
X1480100D01*
G01X1532000Y-4988700D02*
X1530000D01*
X1480100Y-5038600D01*
G01X1532000Y-4788700D02*
X1481800Y-4738500D01*
G01X1632000Y-4688700D02*
X1582300Y-4639000D01*
G01X1481800Y-4738500D02*
X1480200D01*
G01X1582300Y-4639000D02*
X1580000D01*
G01X1982200Y-6239100D02*
Y-6238900D01*
X1932000Y-6188700D01*
G01X1732000D02*
X1781800Y-6238500D01*
G01D02*
Y-6239100D01*
G01X1785800Y-4639000D02*
X1832000Y-4685200D01*
Y-4688700D01*
G01X2082000Y-6239100D02*
Y-6238700D01*
X2132000Y-6188700D01*
G01X2182200Y-6136500D02*
Y-6138500D01*
X2132000Y-6188700D01*
G01X2481600Y-6239100D02*
Y-6238300D01*
X2432000Y-6188700D01*
G01X2582200Y-6239100D02*
Y-6238500D01*
X2632000Y-6188700D01*
G01X2781900Y-6239100D02*
Y-6238800D01*
X2832000Y-6188700D01*
G01X2981700Y-6138400D02*
X2982300D01*
X3032000Y-6088700D01*
G01X2979700Y-6138400D02*
X2981700D01*
G01X3282300Y-5936800D02*
Y-5938400D01*
X3232000Y-5988700D01*
G01X2981700Y-6138400D02*
X3032000Y-6188700D01*
G01X3084200Y-5638700D02*
X3082000D01*
X3032000Y-5688700D01*
G01X3084200Y-5338800D02*
X3081900D01*
X3032000Y-5388700D01*
G01X3084200Y-5438700D02*
X3082000D01*
X3032000Y-5488700D01*
G01X3132000Y-5188700D02*
X3182200Y-5238900D01*
G01D02*
X3184300D01*
G01X3032000Y-4788700D02*
X3081900Y-4838600D01*
G01D02*
X3084000D01*
G01X3280000Y-6438700D02*
X3282000D01*
X3332000Y-6388700D01*
G01X4738200Y-6789000D02*
Y-6836700D01*
X4763900Y-6862400D01*
Y-6919100D01*
G01X5035000Y-4731000D02*
Y-4703700D01*
X5050700Y-4688000D01*
Y-4659300D01*
G01X5048800Y-393000D02*
X5000800Y-441000D01*
Y-513300D01*
G01X5521900Y-2216100D02*
X5276700D01*
X5178200Y-2117600D01*
G01X5573000Y-6463000D02*
Y-6544800D01*
G01X5617900Y-2216100D02*
Y-2140800D01*
X5627800Y-2130900D01*
Y-2098200D01*
G01X5419800Y-2097800D02*
X5594700D01*
X5595100Y-2098200D01*
X5627800D01*
G01X6011900Y-1459200D02*
X6012800D01*
X6052000Y-1420000D01*
G01X5969500Y-900400D02*
X5969600D01*
X6010000Y-860000D01*
G01X5890400Y-819800D02*
X5890200D01*
X5850000Y-860000D01*
G01X5930000Y-780000D02*
X5929700D01*
X5889700Y-740000D01*
G01X5806100Y-343700D02*
X5806300D01*
X5850000Y-300000D01*
G01X6145000Y-4893000D02*
X6227700D01*
X6275000Y-4940300D01*
X6440100D01*
G01X6372000Y-1980000D02*
X6352000Y-2000000D01*
X6347140D01*
X6336940Y-2010200D01*
X6327060D01*
X6316860Y-2000000D01*
X6312000D01*
X6292000Y-1980000D01*
G01Y-1740000D02*
Y-1737700D01*
X6252700Y-1698400D01*
G01X6291500Y-1820000D02*
X6292000D01*
G01X6131800Y-1462000D02*
Y-1420200D01*
X6132000Y-1420000D01*
G01X6240100Y-915000D02*
Y-890800D01*
X6250000Y-880900D01*
Y-860000D01*
G01X6260000Y-606800D02*
X6347800D01*
G01X6260000D02*
X6159730D01*
G01X6330500Y-433900D02*
Y-380500D01*
X6330000Y-380000D01*
G01X6090000Y-220000D02*
X6089800D01*
X6049900Y-259900D01*
G01X6210000D02*
X6209900D01*
G01D02*
X6170000Y-220000D01*
G01X6608500Y-5855000D02*
Y-5798300D01*
X6630500Y-5776300D01*
Y-5738600D01*
G01D02*
X6567200D01*
X6518900Y-5690300D01*
X6440100D01*
G01X6632400Y-1720000D02*
X6612400Y-1740000D01*
X6612000D01*
G01X6372000D02*
X6350800Y-1718800D01*
G01D02*
Y-1699000D01*
G01X6692000Y-1420000D02*
X6691300D01*
X6652200Y-1380900D01*
G01X6410000Y-780000D02*
X6410600D01*
X6449800Y-740800D01*
G01X6771140Y-522640D02*
X6634460D01*
G01X6417000Y-606800D02*
X6501160Y-522640D01*
X6634460D01*
G01X6347800Y-606800D02*
X6417000D01*
G01X6398400Y-162900D02*
Y-185200D01*
X6410000Y-196800D01*
Y-220000D01*
G01X6608400Y-343700D02*
X6606000Y-341300D01*
G01D02*
X6570000Y-305300D01*
Y-300000D01*
G01X6650000Y-220000D02*
Y-220100D01*
X6690000Y-260100D01*
G01X6889300Y-1420100D02*
X6931900D01*
X6932000Y-1420000D01*
G01X6889300Y-1420100D02*
X6837300D01*
X6807300Y-1450100D01*
Y-1498300D01*
G01X6810000Y-860000D02*
X6769800Y-819800D01*
Y-815100D01*
G01X6970000Y-860000D02*
X6910800Y-919200D01*
X6889000D01*
G01X6809700Y-162900D02*
X6810000Y-163200D01*
Y-220000D01*
G01X6770200Y-343600D02*
X6730000Y-303400D01*
Y-300000D01*
G01X6968000Y-6085000D02*
Y-6029700D01*
X6990000Y-6007700D01*
Y-5970000D01*
G01X7115000Y-6064000D02*
X7026700D01*
X7005700Y-6085000D01*
X6968000D01*
G01X7009900Y-259900D02*
X6970000Y-220000D01*
G01X7778400Y-6640500D02*
Y-6592000D01*
X7730000Y-6543600D01*
Y-6410000D01*
G01X8188000Y-6420000D02*
Y-6512600D01*
X8201650Y-6526250D01*
Y-6628350D01*
X145100Y-1518600D03*
X182100D03*
X304800Y-1458400D03*
X266700Y-1456800D03*
X224700Y-1459000D03*
X770700Y-5827300D03*
X960700D03*
X995200Y-2523200D03*
X995400Y-2562200D03*
X951200Y-2561100D03*
X907100Y-2561600D03*
X1028400Y-2486900D03*
X1066300Y-2486800D03*
X1045800Y-1812600D03*
X1281500Y-6438400D03*
X1232000Y-6388700D03*
Y-4488700D03*
X1327000Y-1457500D03*
X1285900Y-1455900D03*
X1242300Y-1460400D03*
X1202500Y-1516200D03*
X1166600Y-1517000D03*
X1582200Y-6336100D03*
X1532000Y-6488700D03*
X1632000Y-6388700D03*
X1480800Y-6238900D03*
X1532000Y-6188700D03*
X1479800Y-6138800D03*
X1532000Y-6088700D03*
X1582200Y-6240100D03*
X1680100Y-6038400D03*
X1480600Y-5738900D03*
X1532000Y-5688700D03*
X1580400Y-5838500D03*
X1632000Y-5788700D03*
X1480600Y-5538800D03*
X1532000Y-5488700D03*
X1480600Y-5438600D03*
X1532000Y-5388700D03*
X1480100Y-5238600D03*
X1532000Y-5188700D03*
Y-4788700D03*
Y-4988700D03*
X1480100Y-5038600D03*
X1682100Y-4940900D03*
X1632000Y-4888700D03*
X1580000Y-4639000D03*
X1632000Y-4688700D03*
X1480200Y-4738500D03*
X2006000Y-7640300D03*
X1795900Y-7492700D03*
X1931000Y-7415300D03*
Y-7265300D03*
X2006000Y-6940300D03*
X1931000Y-7015300D03*
Y-7115300D03*
Y-7165300D03*
Y-7215300D03*
X1832000Y-6488700D03*
X1781800Y-6239100D03*
X1732000Y-6188700D03*
X1982200Y-6239100D03*
X1932000Y-6188700D03*
X1882100Y-6040400D03*
X1832000Y-5988700D03*
X1732000D03*
X1884000Y-5938800D03*
X1980300Y-5739300D03*
X1932000Y-5688700D03*
X1980300Y-5538900D03*
Y-5638500D03*
Y-5438900D03*
X1832000Y-5388700D03*
X1741000Y-5161900D03*
X1980300Y-5138700D03*
Y-5238800D03*
Y-5338800D03*
X1732000Y-4788700D03*
X1782100Y-4840300D03*
X1881400D03*
X1980300Y-5039300D03*
X1785800Y-4639000D03*
X1832000Y-4688700D03*
X1981900Y-4741600D03*
X1926500Y-2562900D03*
X1970900Y-2563200D03*
X2017600Y-2523800D03*
X2016600Y-2563100D03*
X2106000Y-7640300D03*
X2156000D03*
X2332000Y-6388700D03*
Y-6488700D03*
X2232000D03*
Y-6388700D03*
X2182200Y-6136500D03*
X2082000Y-6239100D03*
X2132000Y-6188700D03*
Y-6088700D03*
Y-5988700D03*
X2232000Y-6188700D03*
Y-6088700D03*
X2282100Y-5740400D03*
X2332000Y-5688700D03*
X2182400Y-5740400D03*
X2232000Y-5688700D03*
X2082300Y-5740400D03*
X2132000Y-5688700D03*
X2082600Y-5538600D03*
X2032000Y-5488700D03*
Y-5588700D03*
Y-5388700D03*
X2082600Y-5337300D03*
X2032000Y-5288700D03*
Y-5188700D03*
X2082300Y-5136300D03*
X2132000Y-5188700D03*
Y-5088700D03*
X2232000Y-5188700D03*
X2332000D03*
Y-5088700D03*
Y-4788700D03*
X2184400Y-5038900D03*
X2284200Y-4939100D03*
X2232000Y-4988700D03*
X2032000D03*
X2283200Y-4838400D03*
X2080300Y-4938400D03*
X2182100Y-4536600D03*
X2082100Y-4737000D03*
X2032000Y-4588700D03*
X2232000Y-4688700D03*
X2082100Y-4641000D03*
X2182100Y-4440400D03*
X2047000Y-2486300D03*
X2084800Y-2486800D03*
X2080100Y-2553700D03*
X2230800Y-1521500D03*
X2193000Y-1522200D03*
X2314800Y-1456600D03*
X2274000Y-1461400D03*
X2631000Y-7565300D03*
X2556000Y-7640300D03*
X2588400Y-7736200D03*
X2631000Y-7515300D03*
Y-7015300D03*
X2556000Y-6940300D03*
X2506000D03*
X2456000D03*
X2406000D03*
X2432000Y-6388700D03*
Y-6488700D03*
X2481600Y-6239100D03*
X2432000Y-6188700D03*
X2582200Y-6239100D03*
X2632000Y-6188700D03*
X2482300Y-5740400D03*
X2532000Y-5688700D03*
X2381900Y-5740400D03*
X2432000Y-5688700D03*
X2632000Y-5788700D03*
X2532000Y-5388700D03*
X2483400Y-5538600D03*
X2532000Y-5488700D03*
X2632000Y-5388700D03*
X2584000Y-5438600D03*
Y-5538600D03*
X2532000Y-5588700D03*
X2632000D03*
X2584200Y-5638500D03*
X2483400Y-5337300D03*
X2432000Y-5188700D03*
X2584000Y-5238600D03*
X2532000Y-5188700D03*
X2584000Y-5338600D03*
X2532000Y-5288700D03*
X2390300Y-5039100D03*
X2487700Y-4685300D03*
X2354200Y-1457800D03*
X2932000Y-6488700D03*
X2832000Y-6388700D03*
Y-6488700D03*
X2932000Y-6188700D03*
Y-6088700D03*
X2781900Y-6239100D03*
X2832000Y-6188700D03*
X2680400Y-6038700D03*
X2732000Y-5988700D03*
X2832000D03*
X2681400Y-5938400D03*
X2683600Y-5738700D03*
X2884700Y-5938400D03*
X2832000Y-4788700D03*
X2781600Y-4838500D03*
X2932000Y-4888700D03*
X2882000Y-4736700D03*
X2673600Y-4364400D03*
X3010500Y-6618200D03*
X3132000Y-6288700D03*
X2979700Y-6138400D03*
X3032000Y-6188700D03*
Y-6088700D03*
X3232000Y-5988700D03*
X3032000Y-5688700D03*
X3084200Y-5638700D03*
X3032000Y-5388700D03*
X3084200Y-5438700D03*
X3032000Y-5488700D03*
X3184300Y-5238900D03*
X3132000Y-5188700D03*
X3084200Y-5338800D03*
X3084000Y-4838600D03*
X3032000Y-4788700D03*
Y-4988700D03*
X3084200Y-5039000D03*
X2983800Y-4938600D03*
X3111900Y-2487400D03*
X3073100Y-2487300D03*
X3036300Y-2564300D03*
X3038500Y-2523600D03*
X2994700Y-2561600D03*
X2950300Y-2562400D03*
X3254400Y-1521000D03*
X3217700Y-1518400D03*
X3544600Y-6884500D03*
Y-6684500D03*
Y-6634500D03*
X3332000Y-6388700D03*
X3282300Y-5936800D03*
X3332000Y-4488700D03*
X3554100Y-4435200D03*
X3320800D03*
X3374300Y-1456600D03*
X3333800Y-1456500D03*
X3294900Y-1461400D03*
X3642900Y-5890200D03*
X3739600Y-5756100D03*
X3638100D03*
X3691300Y-5470600D03*
X3738600Y-5620900D03*
X3637100D03*
X3761600Y-5181400D03*
X3637100D03*
X3691300Y-5085000D03*
X3613500Y-4989300D03*
X4142400Y-2486500D03*
X4107800Y-2486300D03*
X4072800Y-2565300D03*
X4073000Y-2527400D03*
X4030500Y-2559300D03*
X3986300Y-2564200D03*
X4558500Y-6258000D03*
X5100300Y-6130200D03*
X4878300Y-5940200D03*
X4968860Y-5839430D03*
X4859900Y-5690200D03*
Y-5640200D03*
Y-5590200D03*
Y-4990200D03*
Y-4940200D03*
X5050700Y-4659300D03*
X5094600Y-3009400D03*
Y-2709400D03*
X4997200Y-1821600D03*
Y-1721600D03*
Y-1421600D03*
Y-1321600D03*
X5000800Y-513300D03*
X5050800Y-661300D03*
X4950800Y-513300D03*
X5250300Y-6130200D03*
X5350300D03*
X5300300D03*
X5400300D03*
X5272400Y-5574600D03*
X5326600Y-2581400D03*
X5550300Y-6130200D03*
X5500300D03*
X5450300D03*
X5422400Y-5310900D03*
X5719700Y-3352300D03*
X5610600Y-2959400D03*
X5526600Y-3084400D03*
X5605000Y-2556600D03*
X5527900Y-2458000D03*
X5593400D03*
Y-2388000D03*
X5527900D03*
X5617900Y-2216100D03*
X5627800Y-2098200D03*
X5419800Y-2097800D03*
X5562200Y-1344800D03*
X5990400Y-6333400D03*
X5900300Y-6130200D03*
X5800300D03*
X6000300D03*
X5750300D03*
X5950300D03*
X5800700Y-4550000D03*
X5900700D03*
X5750700D03*
X5844400Y-3616100D03*
X5815700Y-3352300D03*
X5812000Y-2300000D03*
X5892000D03*
Y-2380000D03*
Y-2460000D03*
X5972000Y-2300000D03*
X5892000Y-2140000D03*
X5812000D03*
X6013150Y-2178850D03*
X5972000Y-2060000D03*
X5930200Y-2179700D03*
Y-2260400D03*
X5972000Y-2220000D03*
X5892000Y-1900000D03*
Y-1980000D03*
X5812000D03*
Y-1740000D03*
Y-1900000D03*
Y-1660000D03*
Y-1580000D03*
Y-1500000D03*
Y-1420000D03*
X6011900Y-1459200D03*
X5892000Y-1260000D03*
Y-1180000D03*
Y-1340000D03*
X5969500Y-900400D03*
X6010000Y-860000D03*
X5850000D03*
X5890400Y-819800D03*
X5930000Y-780000D03*
X5889700Y-740000D03*
X6010000Y-300000D03*
X5850000D03*
X6010000Y-220000D03*
X5889500Y-341400D03*
X5930000Y-380000D03*
X6010000D03*
X6063500Y-6354800D03*
X6150300Y-6130200D03*
X6270000Y-6004700D03*
X6250300Y-6130200D03*
X6050300D03*
X6100300D03*
X6037100Y-2646800D03*
X6212000Y-2300000D03*
X6132000Y-2460000D03*
X6212000Y-2380000D03*
X6292000Y-2300000D03*
Y-2460000D03*
X6172000Y-2179500D03*
X6132000Y-2140000D03*
X6212000D03*
X6331800Y-2179500D03*
X6292000Y-2140000D03*
X6250200Y-2099600D03*
X6052000Y-2140000D03*
X6090600Y-2099800D03*
X6052000Y-2060000D03*
X6132000D03*
X6250200Y-2019900D03*
X6332100Y-2019300D03*
X6292000Y-2220000D03*
X6092800Y-1940800D03*
X6292000Y-1980000D03*
Y-1820000D03*
Y-1740000D03*
X6252000Y-1698500D03*
X6332000D03*
X6250200Y-1783300D03*
Y-1859100D03*
X6052000Y-1740000D03*
Y-1660000D03*
X6292000Y-1580000D03*
X6212000D03*
X6252100Y-1543300D03*
X6332000D03*
X6052000Y-1420000D03*
X6131800Y-1462000D03*
X6132000Y-1420000D03*
X6052000Y-1580000D03*
X6090600Y-1619400D03*
X6132000Y-1580000D03*
X6292000Y-1420000D03*
X6132000Y-1260000D03*
X6052000Y-1180000D03*
X6212000D03*
X6052000Y-1260000D03*
X6212000D03*
Y-1340000D03*
X6250000Y-860000D03*
X6240100Y-915000D03*
X6090000Y-780000D03*
X6330000Y-700000D03*
X6090000D03*
X6250000D03*
Y-300000D03*
Y-380000D03*
X6330500Y-433900D03*
X6330000Y-380000D03*
X6049900Y-259900D03*
X6090000Y-220000D03*
X6210000Y-259900D03*
X6170000Y-220000D03*
X6440100Y-5690300D03*
Y-5140300D03*
Y-5190300D03*
Y-5240300D03*
Y-4840300D03*
Y-4940300D03*
Y-4790300D03*
Y-4740300D03*
X6615000Y-3127000D03*
X6389000Y-3205000D03*
X6465000Y-3127000D03*
X6589900Y-2632800D03*
X6366600D03*
X6612000Y-2380000D03*
Y-2460000D03*
X6452000Y-2300000D03*
X6532000Y-2380000D03*
Y-2460000D03*
X6372000Y-2380000D03*
X6452000D03*
Y-2460000D03*
X6411200Y-2180400D03*
X6412200Y-2100600D03*
X6452000Y-2140000D03*
X6372000D03*
X6452000Y-2220000D03*
X6612000Y-2140000D03*
X6571900Y-2019300D03*
Y-2180400D03*
X6492200Y-2100600D03*
X6532000Y-2140000D03*
Y-2220000D03*
X6372000D03*
X6532000Y-1980000D03*
X6612000Y-1900000D03*
Y-1820000D03*
Y-1980000D03*
X6492400Y-1779900D03*
Y-1939800D03*
X6410200Y-1779900D03*
Y-1939800D03*
X6500700Y-1860000D03*
X6372000Y-1820000D03*
Y-1900000D03*
X6452000D03*
Y-1820000D03*
X6532000Y-1900000D03*
Y-1820000D03*
X6452000Y-1980000D03*
X6372000D03*
Y-1740000D03*
X6532000D03*
X6452000D03*
X6612000D03*
X6412000Y-1698500D03*
X6492100D03*
X6572200D03*
X6372000Y-1420000D03*
X6452000D03*
X6532000Y-1580000D03*
X6452000D03*
X6612000D03*
X6372000D03*
X6572200Y-1543300D03*
X6412000D03*
X6532000Y-1500000D03*
X6612000Y-1420000D03*
X6482200Y-1380200D03*
X6372000Y-1340000D03*
X6509600Y-1062900D03*
X6447900Y-1061900D03*
X6452000Y-1260000D03*
Y-1340000D03*
X6612000Y-1180000D03*
X6452000D03*
X6410000Y-780000D03*
X6570000D03*
X6387400Y-992900D03*
X6410000Y-860000D03*
X6490000D03*
X6449800Y-740800D03*
X6530300Y-659700D03*
X6570000Y-700000D03*
X6490000Y-380000D03*
X6570000Y-300000D03*
X6608400Y-343700D03*
X6398400Y-162900D03*
X6410000Y-220000D03*
Y-380000D03*
X6570000D03*
X6490000Y-220000D03*
X6570000D03*
X6813000Y-2632800D03*
X6692000Y-2460000D03*
X6892000Y-2420000D03*
X6732000D03*
X6932000Y-2060000D03*
X6772000Y-2140000D03*
X6815600Y-2179700D03*
X6932000Y-2140000D03*
X6651400Y-2019300D03*
X6852000Y-2140000D03*
X6651900Y-2180900D03*
X6692000Y-2140000D03*
X6852000Y-2220000D03*
Y-2060000D03*
X6932000Y-2220000D03*
X6772000Y-2060000D03*
X6932000Y-1900000D03*
X6811800Y-1940100D03*
X6817500Y-1819400D03*
X6651500Y-1940000D03*
Y-1859900D03*
X6772000Y-1900000D03*
X6852000Y-1980000D03*
X6652000Y-1698500D03*
X6736600Y-1739400D03*
X6852000Y-1900000D03*
X6807300Y-1498300D03*
X6889300Y-1420100D03*
X6932000Y-1420000D03*
X6692000D03*
X6652200Y-1380900D03*
X6652000Y-1543300D03*
X6932000Y-1580000D03*
X6732000Y-1619700D03*
X6772000Y-1660000D03*
X6759900Y-1065000D03*
X6812100Y-1301500D03*
X6692000Y-1180000D03*
X6650000Y-780000D03*
X6810000Y-860000D03*
X6769800Y-815100D03*
X6889000Y-919200D03*
X6730000Y-780000D03*
X6650000Y-860000D03*
X6810000Y-780000D03*
X6700600Y-994000D03*
X6650000Y-700000D03*
X6890000Y-300000D03*
X6809700Y-162900D03*
X6810000Y-220000D03*
X6770200Y-343600D03*
X6730000Y-300000D03*
X6690400Y-343700D03*
X6650000Y-220000D03*
X6690000Y-260100D03*
X6810000Y-380000D03*
X7189000Y-3205000D03*
X7037000Y-2632800D03*
X7012000Y-2380000D03*
X7092000Y-2060000D03*
X7012000Y-2140000D03*
Y-2220000D03*
Y-2060000D03*
X7092000Y-2220000D03*
Y-2140000D03*
X7012000Y-1820000D03*
X7092000Y-1980000D03*
Y-1820000D03*
Y-1900000D03*
X7012000Y-1980000D03*
X7174700Y-1720000D03*
X7012000Y-1900000D03*
X7174700Y-1820000D03*
X7139700Y-1500000D03*
X7012000Y-1580000D03*
X7092000D03*
X7077000Y-1420000D03*
Y-1620000D03*
Y-1120000D03*
Y-1220000D03*
Y-1020000D03*
X6970000Y-860000D03*
X7050000Y-780000D03*
X7188800Y-591000D03*
X6970000Y-380000D03*
X7050000Y-300000D03*
X7009900Y-259900D03*
X6970000Y-220000D03*
X7050000Y-380000D03*
X7265000Y-3534000D03*
X7415000Y-3127000D03*
X7265000D03*
X7480000Y-655000D03*
X7280000D03*
X7331300Y-493000D03*
X7525600D03*
X7530000Y-655000D03*
X7558100Y-701200D03*
X7429400Y-493000D03*
X7311200Y-591000D03*
X7433000D03*
X7593000Y-3455000D03*
X7580000Y-2605000D03*
X7680000D03*
X7830000D03*
X7626200Y-493000D03*
X7630000Y-655000D03*
X7580000D03*
X7686200Y-591000D03*
X7626200Y-284500D03*
X7730100D03*
X8015100Y-3283400D03*
X8142100D03*
X8153600Y-2806000D03*
X7880000Y-2605000D03*
Y-655000D03*
X7933400Y-284500D03*
X8430000Y-655000D03*
G54D14*
G01X6090600Y-2099800D02*
Y-2098600D01*
X6052000Y-2060000D01*
G54D15*
G01X5930200Y-2260400D02*
X5932400D01*
X5972000Y-2300000D01*
G01X5932800Y-1938500D02*
Y-2020800D01*
X5972000Y-2060000D01*
G01X5930200Y-2179700D02*
X5931700D01*
X5972000Y-2220000D01*
G01X6270000Y-6004700D02*
Y-6037400D01*
X6250300Y-6057100D01*
G01D02*
Y-6130200D01*
G01X6172000Y-2179500D02*
X6171500D01*
X6132000Y-2140000D01*
G01X6292000D02*
X6331500Y-2179500D01*
X6331800D01*
G01X6252200D02*
X6251500D01*
X6212000Y-2140000D01*
G01X6083200Y-2100000D02*
Y-2094000D01*
X6052000Y-2062800D01*
Y-2060000D01*
G01X6092800Y-1940800D02*
Y-2020800D01*
X6132000Y-2060000D01*
G01X6350800Y-1699000D02*
X6313100D01*
X6312500Y-1698400D01*
X6252700D01*
G01D02*
Y-1702910D01*
X6267000Y-1717210D01*
Y-1762790D01*
X6252700Y-1777090D01*
Y-1781200D01*
G01D02*
X6291500Y-1820000D01*
G01X6090600Y-1619400D02*
X6092600D01*
X6132000Y-1580000D01*
G01X6330500Y-433900D02*
Y-536300D01*
X6260000Y-606800D01*
G01X6412200Y-2100600D02*
X6412600D01*
X6452000Y-2140000D01*
G01X6411200Y-2180400D02*
X6411600D01*
X6452000Y-2140000D01*
G01X6492200Y-2100600D02*
X6492600D01*
X6532000Y-2140000D01*
G01X6571900Y-2180400D02*
Y-2179900D01*
X6532000Y-2140000D01*
G01X6491800Y-1693300D02*
X6560440D01*
X6587140Y-1720000D01*
X6632400D01*
G01X6452000Y-1740000D02*
Y-1733100D01*
X6491800Y-1693300D01*
G01D02*
X6532000Y-1733500D01*
Y-1740000D01*
G01X6350800Y-1699000D02*
X6408100D01*
X6413800Y-1693300D01*
X6491800D01*
G01X6570000Y-780000D02*
X6530300Y-740300D01*
Y-659700D01*
G01X6772000Y-2140000D02*
X6775900D01*
X6815600Y-2179700D01*
G01X6651900Y-2180900D02*
Y-2180100D01*
X6692000Y-2140000D01*
G01X7009900Y-259900D02*
Y-453300D01*
X6940560Y-522640D01*
X6771140D01*
G01X7405000Y-6065000D02*
X7445000D01*
X7530000Y-5980000D01*
G01D02*
Y-5850000D01*
G01D02*
X7467700D01*
X7442700Y-5875000D01*
X7405000D01*
G54D16*
G01X6159730Y-606800D02*
X6129730Y-576800D01*
Y-283570D01*
X6106060Y-259900D01*
X6049900D01*
G01X6330000Y-380000D02*
X6371700Y-338300D01*
G01X6209900Y-259900D02*
X6153400D01*
X6141250Y-272050D01*
X6146000Y-276800D01*
Y-283570D01*
G01X6452000Y-1980000D02*
X6372000D01*
G01X6387400Y-992900D02*
Y-933500D01*
X6410000Y-910900D01*
Y-860000D01*
G01X6449800Y-740800D02*
X6422430Y-713430D01*
X6392230D01*
X6375900Y-697100D01*
Y-634900D01*
X6347800Y-606800D01*
G01X6634460Y-522640D02*
X6689600Y-577780D01*
G01X6606000Y-341300D02*
X6551260D01*
X6528700Y-363860D01*
Y-396040D01*
X6506040Y-418700D01*
X6473960D01*
X6451300Y-396040D01*
Y-363960D01*
X6428640Y-341300D01*
X6374700D01*
G01X6371700Y-338300D02*
Y-337500D01*
X6386000Y-323200D01*
Y-276800D01*
X6371700Y-262500D01*
Y-258300D01*
X6410000Y-220000D01*
G01X6374700Y-341300D02*
X6371700Y-338300D01*
G01X6771140Y-522640D02*
X6850900Y-602400D01*
Y-819900D01*
X6834000Y-836800D01*
Y-883200D01*
X6866800Y-916000D01*
X6885800D01*
X6889000Y-919200D01*
G01X6766200Y-818700D02*
X6769800Y-815100D01*
G01X6689600Y-577780D02*
Y-796100D01*
X6712200Y-818700D01*
X6766200D01*
G01X6809700Y-162900D02*
X6912900D01*
X6970000Y-220000D01*
G01X7174700Y-1720000D02*
X7281900D01*
X7806200Y-1195700D01*
Y-590200D01*
G01X7926800D02*
Y-622600D01*
X7936000Y-631800D01*
Y-678200D01*
X7926800Y-687400D01*
Y-1276800D01*
X7383600Y-1820000D01*
X7174700D01*
G01X7558100Y-701200D02*
Y-1053500D01*
X7191600Y-1420000D01*
X7077000D01*
G01X7686200Y-591000D02*
Y-1112700D01*
X7178900Y-1620000D01*
X7077000D01*
G01X7311200Y-591000D02*
Y-607000D01*
X7336000Y-631800D01*
Y-678200D01*
X7311200Y-703000D01*
Y-947500D01*
X7138700Y-1120000D01*
X7077000D01*
G01X7433000Y-591000D02*
Y-1020500D01*
X7233500Y-1220000D01*
X7077000D01*
G01X7188800Y-591000D02*
Y-941800D01*
X7110600Y-1020000D01*
X7077000D01*
G54D17*
G01X5466800Y-177100D02*
X5367500D01*
G01X5466800D02*
Y-251200D01*
X5545200Y-329600D01*
G54D18*
G01X6417000Y-606800D02*
X6477400D01*
X6530300Y-659700D01*
G54D19*
G01X684900Y-5142200D02*
X664700Y-5122000D01*
Y-5106400D01*
G01X974500Y-4572500D02*
X1087560D01*
X1088660Y-4573600D01*
X1147100D01*
X1232000Y-4488700D01*
G01X1504400D02*
X1232000D01*
G01X1557900Y-4435200D02*
X1504400Y-4488700D01*
G01X1980300Y-5739300D02*
Y-5737000D01*
X1932000Y-5688700D01*
G01X1980300Y-5538900D02*
X1981800D01*
X2032000Y-5488700D01*
G01X1980300Y-5638500D02*
X1982200D01*
X2032000Y-5588700D01*
G01X1980300Y-5438900D02*
X1981800D01*
X2032000Y-5388700D01*
G01X1980300Y-5338800D02*
X1981900D01*
X2032000Y-5288700D01*
G01X1981900Y-5238800D02*
X1982100D01*
X2032000Y-5288700D01*
G01Y-5188700D02*
X1981900Y-5238800D01*
G01X1980300Y-5138700D02*
X1982000D01*
X2032000Y-5188700D01*
G01X1981900Y-5238800D02*
X1980300D01*
G01Y-5039300D02*
X1981400D01*
X2032000Y-4988700D01*
G01X2282100Y-5740400D02*
Y-5738600D01*
X2332000Y-5688700D01*
G01X2182400Y-5740400D02*
Y-5738300D01*
X2232000Y-5688700D01*
G01X2082300Y-5740400D02*
Y-5738400D01*
X2132000Y-5688700D01*
G01X2082600Y-5538600D02*
X2081900D01*
X2032000Y-5488700D01*
G01X2082600Y-5337300D02*
X2080600D01*
X2032000Y-5288700D01*
G01X2082300Y-5136300D02*
Y-5139000D01*
X2132000Y-5188700D01*
G01X2184400Y-5038900D02*
X2181800D01*
X2132000Y-5088700D01*
G01X2284200Y-4939100D02*
X2281600D01*
X2232000Y-4988700D01*
G01X2482300Y-5740400D02*
Y-5738400D01*
X2532000Y-5688700D01*
G01X2381900Y-5740400D02*
Y-5738800D01*
X2432000Y-5688700D01*
G01X2683600Y-5738700D02*
X2682000D01*
X2632000Y-5788700D01*
G01X2483400Y-5337300D02*
Y-5340100D01*
X2532000Y-5388700D01*
G01X2483400Y-5538600D02*
Y-5537300D01*
X2532000Y-5488700D01*
G01X2632000Y-5388700D02*
Y-5390600D01*
X2584000Y-5438600D01*
G01Y-5538600D02*
X2582100D01*
X2532000Y-5588700D01*
G01X2632000D02*
Y-5590700D01*
X2584200Y-5638500D01*
G01X2584000Y-5238600D02*
X2581900D01*
X2532000Y-5188700D01*
G01X2584000Y-5338600D02*
X2581900D01*
X2532000Y-5288700D01*
G01X2681400Y-5938400D02*
X2681700D01*
X2732000Y-5988700D01*
G01X3032000Y-4788700D02*
Y-4988700D01*
G01X3332000Y-4488700D02*
X3132000Y-4688700D01*
G01X5089900Y-3190800D02*
X5020300D01*
X4965200Y-3135700D01*
G01X5353940Y-3190800D02*
X5292540Y-3129400D01*
X5148900D01*
X5122900Y-3155400D01*
Y-3157800D01*
X5089900Y-3190800D01*
G01X5379100Y-2132700D02*
Y-2013200D01*
X5563900Y-1828400D01*
G01X5530600Y-2158700D02*
X5405100D01*
X5379100Y-2132700D01*
G01X5346500Y-917900D02*
Y-1044490D01*
X5281900Y-1109090D01*
Y-1342200D01*
G01X5456400Y-3154600D02*
X5526600Y-3084400D01*
G01X5610600Y-2959400D02*
Y-3080500D01*
X5601700Y-3089400D01*
X5596700Y-3084400D01*
X5526600D01*
G01X5527900Y-2388000D02*
X5573900Y-2342000D01*
G01D02*
Y-2202000D01*
X5530600Y-2158700D01*
G01X5515900Y-1570500D02*
X5563900Y-1618500D01*
Y-1825400D01*
G01D02*
X5587500Y-1849000D01*
X5645600D01*
G01X5563900Y-1828400D02*
Y-1825400D01*
G01X6013150Y-2178850D02*
X6052000Y-2140000D01*
G01Y-2060000D02*
X6008500Y-2103500D01*
X5938100D01*
X5898500Y-2063900D01*
X5876240D01*
X5871240Y-2068900D01*
X5833360D01*
X5806600Y-2042140D01*
Y-2035060D01*
X5793040Y-2021500D01*
X5767100D01*
G01X6332000Y-1543300D02*
X6328700D01*
X6292000Y-1580000D01*
G01X6252100Y-1543300D02*
X6248700D01*
X6212000Y-1580000D01*
G01X6612000Y-1980000D02*
X6612100D01*
X6651400Y-2019300D01*
G01X6532000Y-1980000D02*
X6532600D01*
X6571900Y-2019300D01*
G01X6612000Y-1820000D02*
Y-1820400D01*
X6651500Y-1859900D01*
G01X6612000Y-1900000D02*
Y-1900500D01*
X6651500Y-1940000D01*
G01X6410200Y-1939800D02*
X6412200D01*
X6452000Y-1900000D01*
G01X6492400Y-1939800D02*
X6491800D01*
X6452000Y-1900000D01*
G01X6372000Y-1820000D02*
Y-1818100D01*
X6410200Y-1779900D01*
G01X6492400D02*
Y-1780400D01*
X6532000Y-1820000D01*
G01X6612000Y-1580000D02*
X6615300D01*
X6652000Y-1543300D01*
G01X6532000Y-1580000D02*
X6535500D01*
X6572200Y-1543300D01*
G01X6412000D02*
X6408700D01*
X6372000Y-1580000D01*
G01X6492100Y-1543300D02*
X6455400Y-1580000D01*
X6452000D01*
G01X6482200Y-1380200D02*
X6510980Y-1351420D01*
Y-1275920D01*
X6551200Y-1235700D01*
X6835140D01*
G01X6732000Y-1619700D02*
Y-1620000D01*
X6772000Y-1660000D01*
G01X6835140Y-1235700D02*
X7060140Y-1460700D01*
X7068700D01*
X7077000Y-1469000D01*
G01X7265000Y-3579500D02*
X7222500Y-3622000D01*
G01X7077000Y-1469000D02*
Y-1520000D01*
G01X7265000Y-3534000D02*
Y-3579500D01*
M02*
