G04 ================== begin FILE IDENTIFICATION RECORD ==================*
G04 Layout Name:  G:/github/PLL_FM_HW/PCB/FMDEMOD-57.brd*
G04 Film Name:    SIGNAL-L7*
G04 File Format:  Gerber RS274X*
G04 File Origin:  Cadence Allegro 17.4-S017*
G04 Origin Date:  Tue Oct 26 10:38:27 2021*
G04 *
G04 Layer:  VIA CLASS/SIGNAL-L7*
G04 Layer:  PIN/SIGNAL-L7*
G04 Layer:  ETCH/SIGNAL-L7*
G04 *
G04 Offset:    (0.0000 0.0000)*
G04 Mirror:    No*
G04 Mode:      Positive*
G04 Rotation:  0*
G04 FullContactRelief:  No*
G04 UndefLineWidth:     0.2540*
G04 ================== end FILE IDENTIFICATION RECORD ====================*
%FSLAX25Y25*MOMM*%
%IR0*IPPOS*OFA0.00000B0.00000*MIA0B0*SFA1.00000B1.00000*%
%ADD13C,.3*%
%ADD12C,.4*%
%ADD11C,1.7*%
%ADD10C,3.8*%
%ADD14C,.1*%
%ADD15C,.2*%
%ADD16C,.26*%
%ADD17C,.127*%
G75*
%LPD*%
G75*
G54D10*
X300000Y-7700000D03*
Y-4300000D03*
Y-3700000D03*
Y-300000D03*
X4000000Y-7700000D03*
Y-4300000D03*
Y-3700000D03*
Y-300000D03*
X4600000Y-7700000D03*
Y-4300000D03*
Y-3700000D03*
Y-300000D03*
X8300000Y-7700000D03*
Y-4300000D03*
Y-3700000D03*
Y-300000D03*
G54D11*
X245500Y-4827800D03*
G54D12*
X150900Y-3484700D03*
X164900Y-1285400D03*
X164200Y-538500D03*
X205600Y-7095500D03*
X331300D03*
Y-6999500D03*
X291600Y-3277000D03*
Y-3020400D03*
Y-3148200D03*
X309400Y-2189400D03*
X180300D03*
X439200D03*
Y-1812600D03*
X309400D03*
X180300D03*
X240200Y-1370500D03*
X444200Y-1018000D03*
X444300Y-948000D03*
X444200Y-878300D03*
X482500Y-982600D03*
X482000Y-914800D03*
X482100Y-845000D03*
X481800Y-776000D03*
X444400Y-809000D03*
X482100Y-706300D03*
X445100Y-738900D03*
X444400Y-673800D03*
X250100Y-562500D03*
X349100Y-565000D03*
X451800Y-552500D03*
X713400Y-7096500D03*
X585900D03*
X713400Y-7000500D03*
X585900D03*
X664700Y-5106400D03*
X528800Y-3845800D03*
X568500Y-3771900D03*
X575500Y-3690500D03*
X555500Y-3613700D03*
X755200Y-3601600D03*
X739200Y-3325000D03*
X661400D03*
X739100Y-3255100D03*
X661500Y-3255000D03*
X699700Y-3289600D03*
X699200Y-3221800D03*
X739000Y-3185100D03*
X661400Y-3185300D03*
X699300Y-3152000D03*
X699000Y-3083000D03*
X699300Y-3013300D03*
X739200Y-3115900D03*
X661600Y-3116000D03*
X739100Y-3046100D03*
X662300Y-3045900D03*
X739600Y-2979100D03*
X661600Y-2980800D03*
X786800Y-2189400D03*
Y-1812600D03*
X522000Y-1018000D03*
X521900Y-948100D03*
X521800Y-878100D03*
X522000Y-808900D03*
X521900Y-739100D03*
X522400Y-672100D03*
X525300Y-489000D03*
X557900Y-400900D03*
X539500Y-172100D03*
X562500Y-242700D03*
X564300Y-314700D03*
X725000Y-394400D03*
X966400Y-7096500D03*
X1082900Y-6978500D03*
X954400Y-5097600D03*
X863900Y-5105400D03*
X1080400Y-4788000D03*
X954400Y-4968000D03*
X939000Y-4836300D03*
X928300Y-4486300D03*
X1038100Y-4468000D03*
X928300Y-4352400D03*
X884500Y-3601600D03*
X1015900D03*
X1063600Y-2731900D03*
X979900Y-2648000D03*
X1045800Y-2189400D03*
X916100D03*
Y-1812600D03*
X932600Y-963700D03*
Y-832700D03*
Y-702800D03*
X990300Y-394400D03*
X858400D03*
X1221900Y-7676500D03*
X1197700Y-6853900D03*
X1107400Y-4467700D03*
X1173700Y-4467200D03*
X1107600Y-4527900D03*
X1395100Y-4273300D03*
X1106400Y-4405800D03*
X1326600Y-3286900D03*
Y-3147900D03*
Y-3011000D03*
X1328800Y-2188700D03*
X1199200D03*
Y-1812600D03*
X1328800D03*
X1263100Y-1369900D03*
X1180500Y-1285200D03*
X1210000Y-524500D03*
X1287800D03*
X1361900Y-522800D03*
X1210100Y-454500D03*
X1248300Y-489100D03*
X1287700Y-454600D03*
X1362000Y-452800D03*
X1400200Y-487400D03*
X1210200Y-180300D03*
X1210900Y-245400D03*
X1210200Y-315500D03*
X1210000Y-384800D03*
X1288200Y-178600D03*
X1287700Y-245600D03*
X1287800Y-315400D03*
X1247900Y-212800D03*
X1247600Y-282500D03*
X1247900Y-351500D03*
X1247800Y-421300D03*
X1287600Y-384600D03*
X1362100Y-178600D03*
X1362800Y-243700D03*
X1362100Y-313800D03*
X1361900Y-383100D03*
X1399800Y-211100D03*
X1399500Y-280800D03*
X1399800Y-349800D03*
X1399700Y-419600D03*
X1480600Y-5638700D03*
X1664900Y-4453800D03*
X1557900Y-4435200D03*
X1490200Y-4273300D03*
X1664900Y-4333800D03*
X1681700Y-3317400D03*
X1681800Y-3247400D03*
X1720000Y-3282000D03*
X1719500Y-3214200D03*
X1681700Y-3177700D03*
X1719600Y-3144400D03*
X1719300Y-3075400D03*
X1719600Y-3005700D03*
X1681900Y-3108400D03*
X1682600Y-3038300D03*
X1681900Y-2973200D03*
X1456800Y-2188700D03*
Y-1811600D03*
X1469000Y-807400D03*
X1546600Y-807300D03*
X1506400Y-774400D03*
X1506700Y-843400D03*
X1506600Y-913200D03*
X1507100Y-981000D03*
X1468800Y-876700D03*
X1546400Y-876500D03*
X1468900Y-946400D03*
X1546500Y-946500D03*
X1468800Y-1016400D03*
X1546600D03*
X1469000Y-672200D03*
X1547000Y-670500D03*
X1469700Y-737300D03*
X1546500Y-737500D03*
X1506700Y-704700D03*
X1439700Y-522800D03*
X1439600Y-452900D03*
X1440100Y-176900D03*
X1439600Y-243900D03*
X1439700Y-313700D03*
X1439500Y-382900D03*
X1937100Y-7736200D03*
X1823900Y-7015200D03*
X1732700Y-5781000D03*
X1769100Y-4435200D03*
X1835500Y-4273300D03*
X1933100D03*
X2012700Y-3862500D03*
X2013100Y-3768600D03*
X1977400Y-3810700D03*
X1975200Y-3726900D03*
X1741500Y-3601900D03*
X1876700D03*
X2012400D03*
X1759500Y-3317400D03*
X1759400Y-3247500D03*
X1759300Y-3177500D03*
X1759500Y-3108300D03*
X1759400Y-3038500D03*
X1759900Y-2971500D03*
X1986500Y-2645500D03*
X1938500Y-2189800D03*
X1807800D03*
Y-1811600D03*
X1938500D03*
X1981500Y-1722400D03*
X1957500Y-963700D03*
Y-832700D03*
Y-702800D03*
X1748500Y-394400D03*
X2012100D03*
X1880400D03*
X2124300Y-7736200D03*
X2222000D03*
X2090900Y-7375700D03*
X2214500Y-7461300D03*
X2320100Y-7383200D03*
X2244600Y-7382800D03*
X2196100Y-7324500D03*
X2193200Y-7259800D03*
X2121300Y-7450100D03*
X2074700Y-7290500D03*
X2281200Y-7499900D03*
X2072800Y-7499800D03*
X2281000Y-7290300D03*
X2207400Y-7129700D03*
X2091400Y-7211200D03*
X2317200Y-7202200D03*
X2245000Y-7201000D03*
X2127500Y-7137900D03*
X2282000Y-7087500D03*
X2077500Y-7086100D03*
X2333700Y-6833000D03*
X2293200Y-4295300D03*
X2097000Y-3862600D03*
X2055000Y-3810600D03*
X2052000Y-3727100D03*
X2080100Y-2735900D03*
X2230000Y-2189800D03*
X2067900D03*
X2228500Y-1812600D03*
X2067900D03*
X2286900Y-1370500D03*
X2213800Y-1288500D03*
X2303200Y-515300D03*
X2225400D03*
X2303100Y-445400D03*
X2263700Y-479900D03*
X2225500Y-445300D03*
X2303000Y-375400D03*
X2263200Y-412100D03*
X2263300Y-342300D03*
X2263000Y-273300D03*
X2263300Y-203600D03*
X2303200Y-306200D03*
X2303100Y-236400D03*
X2303600Y-169400D03*
X2225400Y-375600D03*
X2225600Y-306300D03*
X2226300Y-236200D03*
X2225600Y-171100D03*
X2473800Y-7375700D03*
X2352300Y-7464600D03*
X2369000Y-7327500D03*
X2367700Y-7259800D03*
X2441300Y-7450600D03*
X2472800Y-7291100D03*
X2491300Y-7501600D03*
X2348600Y-7132200D03*
X2473000Y-7214500D03*
X2440100Y-7132600D03*
X2484500Y-7088900D03*
X2465800Y-6071900D03*
X2486300Y-5039100D03*
X2410900Y-4273300D03*
X2508600D03*
X2353200Y-3656100D03*
X2353800Y-3272900D03*
Y-3145300D03*
Y-3017300D03*
X2488800Y-2189800D03*
X2359500D03*
X2485900Y-1812600D03*
X2357500D03*
X2505300Y-809000D03*
X2505100Y-878300D03*
X2505200Y-948000D03*
X2505100Y-1018000D03*
X2582900Y-808900D03*
X2542700Y-776000D03*
X2543000Y-845000D03*
X2542900Y-914800D03*
X2543400Y-982600D03*
X2582700Y-878100D03*
X2582800Y-948100D03*
X2582900Y-1018000D03*
X2505300Y-673800D03*
X2506000Y-738900D03*
X2583300Y-672100D03*
X2582800Y-739100D03*
X2543000Y-706300D03*
X2455100Y-513600D03*
X2377300D03*
X2455000Y-443700D03*
X2415600Y-478200D03*
X2377400Y-443600D03*
X2454900Y-373700D03*
X2415100Y-410400D03*
X2415200Y-340600D03*
X2414900Y-271600D03*
X2415200Y-201900D03*
X2455100Y-304500D03*
X2455000Y-234700D03*
X2455500Y-167700D03*
X2377300Y-373900D03*
X2377500Y-304600D03*
X2378200Y-234500D03*
X2377500Y-169400D03*
X2822800Y-7574000D03*
X2726800D03*
Y-7479600D03*
X2743500Y-7056300D03*
X2743900Y-6943000D03*
X2905900Y-7069900D03*
X2910000Y-5709700D03*
X2887200Y-5160100D03*
X2887700Y-5261400D03*
X2935600Y-4273300D03*
X2837900D03*
X2882000Y-4423700D03*
X2899800Y-3601400D03*
X2780100Y-3601900D03*
X2743100Y-3221800D03*
X2743600Y-3289600D03*
X2705400Y-3255000D03*
X2783000Y-3255100D03*
X2705300Y-3325000D03*
X2783100D03*
X2705500Y-2980800D03*
X2783500Y-2979100D03*
X2706200Y-3045900D03*
X2783000Y-3046100D03*
X2705500Y-3116000D03*
X2783100Y-3115900D03*
X2743200Y-3013300D03*
X2742900Y-3083000D03*
X2743200Y-3152000D03*
X2705300Y-3185300D03*
X2782900Y-3185100D03*
X2838000Y-2189800D03*
X2835600Y-1812600D03*
X2885600Y-394400D03*
X2752300D03*
X3192900Y-7313600D03*
X3009100D03*
X3010500Y-7158200D03*
X3137500D03*
Y-6618200D03*
X3002100Y-4720200D03*
X3178500Y-4273300D03*
X3053400Y-4295300D03*
X3124500Y-3863500D03*
X3040200Y-3863000D03*
X3040600Y-3769100D03*
X3002700Y-3727400D03*
X3079500Y-3727600D03*
X3082500Y-3811100D03*
X3004900Y-3811200D03*
X3038300Y-3601900D03*
X3258400Y-3600300D03*
X3100300Y-2736700D03*
X3009400Y-2649200D03*
X3252900Y-2189800D03*
X2966200D03*
X3095000D03*
X3251500Y-1812100D03*
X3093600Y-1812600D03*
X2964400D03*
X3233100Y-1289700D03*
X2986500Y-963700D03*
Y-832700D03*
Y-702800D03*
X3019300Y-394500D03*
X3264500Y-6618200D03*
X3437300Y-4546100D03*
X3437800Y-4454800D03*
Y-4334800D03*
X3274600Y-4273300D03*
X3518900Y-3600300D03*
X3388900D03*
X3372900Y-3277200D03*
Y-3146900D03*
Y-3019500D03*
X3381000Y-2189800D03*
X3510500D03*
X3509600Y-1812100D03*
X3380600D03*
X3318500Y-1369900D03*
X3567100Y-984300D03*
X3566600Y-916500D03*
X3566700Y-846700D03*
X3566400Y-777700D03*
X3528800Y-1019700D03*
X3528900Y-949700D03*
X3528800Y-880000D03*
X3529000Y-810700D03*
X3529700Y-740600D03*
X3289800Y-394400D03*
X3557300D03*
X3423500D03*
X3708300Y-7558500D03*
X3764500Y-7528000D03*
X3685800Y-7616100D03*
X3578100Y-7602300D03*
X3709000Y-7496100D03*
X3709600Y-7432400D03*
X3764700Y-7466600D03*
X3832800Y-7424000D03*
X3824800Y-7497500D03*
X3734000Y-4788600D03*
X3606000Y-4685100D03*
X3623200Y-4295300D03*
X3760200Y-3844000D03*
X3737600Y-3763600D03*
X3731400Y-3678000D03*
X3745100Y-3589500D03*
X3775200Y-3228200D03*
X3775700Y-3296000D03*
X3737500Y-3261400D03*
X3815100Y-3261500D03*
X3737400Y-3331400D03*
X3815200D03*
X3786900Y-3505200D03*
X3863900Y-3458600D03*
X3737600Y-2987200D03*
X3815600Y-2985500D03*
X3738300Y-3052300D03*
X3815100Y-3052500D03*
X3737600Y-3122400D03*
X3815200Y-3122300D03*
X3775300Y-3019700D03*
X3775000Y-3089400D03*
X3775300Y-3158400D03*
X3737400Y-3191700D03*
X3815000Y-3191500D03*
X3815300Y-2189000D03*
X3754500Y-1812700D03*
X3606600Y-1019700D03*
X3606500Y-949800D03*
X3606400Y-879800D03*
X3606600Y-810600D03*
X3606500Y-740800D03*
X3762100Y-459200D03*
X3838900Y-506000D03*
X3757100Y-146500D03*
X3733300Y-216200D03*
X3733400Y-298600D03*
X3733700Y-384500D03*
X4125000Y-7366200D03*
X4124300Y-6371100D03*
Y-6161100D03*
X4125900Y-5782500D03*
X4124100Y-5507400D03*
X4124600Y-5297000D03*
X4126000Y-5096900D03*
X4124600Y-4877700D03*
X4124500Y-4710500D03*
X3958300Y-3438600D03*
X4057600Y-3437700D03*
X4141200Y-3470900D03*
X4136100Y-2736500D03*
X4044000Y-2649200D03*
X4081900Y-2189000D03*
X3948700D03*
X3885200Y-1813100D03*
X4143700Y-518900D03*
X4476100Y-7357300D03*
X4493500Y-6060300D03*
X4474800Y-5779300D03*
X4474500Y-5370430D03*
X4474100Y-5507400D03*
X4475400Y-5093700D03*
X4472800Y-4880100D03*
X4477940Y-3307030D03*
X4477500Y-2204300D03*
X4476600Y-1891200D03*
X4439300Y-1838600D03*
X4440000Y-1942700D03*
X4474600Y-1650000D03*
X4522800Y-7117000D03*
X4620500D03*
X4668900Y-6919100D03*
Y-6659100D03*
Y-6379100D03*
X4786900Y-5964300D03*
X4591100D03*
X4732700Y-5390400D03*
X4636700D03*
X4619400Y-3282900D03*
X4524800D03*
X4619400Y-3186900D03*
X4771000Y-2904000D03*
X4619400Y-2977200D03*
X4636500Y-2645300D03*
X4619400Y-2767200D03*
X4637500Y-2387400D03*
X4636500Y-2515800D03*
X4637500Y-2258800D03*
X4721200Y-1907600D03*
X4669300Y-1880500D03*
X4669200Y-1934900D03*
X4772300Y-1881400D03*
X4770500Y-1931400D03*
X4772600Y-1721800D03*
X4772500Y-1842300D03*
X4513700Y-1839300D03*
X4512500Y-1942100D03*
X4772800Y-1422500D03*
X4773800Y-1599900D03*
X4772800Y-1297400D03*
X4563900Y-1168300D03*
X4563500Y-1104900D03*
X4562700Y-1235000D03*
X4500200Y-1168600D03*
X4628500Y-1169400D03*
X4721200Y-838600D03*
X4671300Y-814600D03*
X4769300Y-815000D03*
X4671700Y-861800D03*
X4769400Y-862300D03*
X4766800Y-910900D03*
Y-1032200D03*
X4915300Y-7391900D03*
X4911600Y-7117900D03*
X4858900Y-6919100D03*
X4812400Y-7117900D03*
X4812900Y-7214700D03*
X4911600Y-7214900D03*
X4858900Y-6659100D03*
X5108500Y-6014800D03*
X4975600Y-5965500D03*
X5033300Y-5604000D03*
Y-5508400D03*
X5033200Y-5219100D03*
X5033300Y-5314700D03*
X5035000Y-4731000D03*
X4980500Y-3825600D03*
X5089900Y-3310800D03*
X4962700Y-2997800D03*
X4965200Y-3135700D03*
X5089900Y-3190800D03*
X4962700Y-2648500D03*
X4984700Y-2759600D03*
X5067600Y-2462000D03*
X4912700Y-2450700D03*
X5067600Y-2342000D03*
X5018200Y-2117600D03*
X4852500Y-1842300D03*
X4852600Y-1721800D03*
X4853800Y-1599900D03*
X4997200Y-1621600D03*
X4852800Y-1422500D03*
Y-1297400D03*
X4997200Y-1121600D03*
X4846800Y-1032200D03*
Y-910900D03*
X4929800Y-180200D03*
X4951800Y-289300D03*
X4952800Y-393000D03*
X5017700Y-177000D03*
X5130000Y-7391900D03*
X5205000Y-7022000D03*
X5147400Y-6363600D03*
X5378000Y-6463000D03*
X5136600Y-4828000D03*
X5337900Y-4456300D03*
X5329900Y-4174400D03*
X5139300Y-4175600D03*
X5224100Y-3823500D03*
X5207400Y-3203500D03*
X5231900Y-2957400D03*
X5352800Y-2935300D03*
X5302000Y-3203500D03*
X5152300Y-2809400D03*
X5176600Y-2639100D03*
X5376600D03*
X5351600Y-2834400D03*
X5228900Y-2714800D03*
X5349400Y-2735600D03*
X5269200Y-2836100D03*
X5359000Y-2456600D03*
X5222300Y-2458700D03*
X5405100Y-1667200D03*
X5189400Y-1095000D03*
X5402200Y-1354200D03*
X5339800Y-657200D03*
X5409400Y-284900D03*
X5227500Y-177100D03*
X5149300Y-177000D03*
X5605000Y-6950000D03*
X5502000Y-6652000D03*
X5697000Y-6252000D03*
X5695100Y-6003100D03*
X5491000Y-5906100D03*
X5683100Y-5798600D03*
X5586100Y-5607100D03*
X5422400Y-5410900D03*
X5683100Y-5409500D03*
Y-5507700D03*
X5581900Y-5141300D03*
X5587100Y-5312900D03*
X5455900Y-4335000D03*
X5574200Y-4190900D03*
X5426500Y-3823700D03*
X5428100Y-3619700D03*
X5527300Y-3618700D03*
X5623100D03*
X5644800Y-3825700D03*
X5527300Y-3401700D03*
X5525800Y-3206600D03*
X5552900Y-3009400D03*
X5469800Y-2958300D03*
X5465500Y-2716500D03*
X5430000Y-2834800D03*
X5455700Y-2455600D03*
X5702100Y-2023900D03*
X5490700Y-1690800D03*
X5515900Y-1777100D03*
Y-1973400D03*
X5611900D03*
X5490700Y-1897000D03*
X5645600Y-1849000D03*
X5611900Y-1666500D03*
X5668000Y-1213400D03*
X5515700Y-1227200D03*
X5440500Y-1207900D03*
X5500800Y-1354200D03*
X5710800Y-607500D03*
X5709800Y-416200D03*
X5700400Y-317000D03*
X5455900Y-398700D03*
X5562800Y-177100D03*
X5744000Y-7623300D03*
Y-7783300D03*
X5784900Y-7504400D03*
X5952400Y-7157400D03*
X5857400Y-7024300D03*
X5905000Y-6972000D03*
X5768000Y-6463000D03*
X5969700Y-6003700D03*
X5867000Y-5907700D03*
X6008300Y-5489000D03*
X5848300D03*
X6019400Y-5147300D03*
X5801500Y-4343900D03*
X5864700Y-4187700D03*
X5825600Y-3825600D03*
X5924100Y-3619700D03*
X5751100Y-2958700D03*
X6010100Y-3065900D03*
X5978500Y-3021600D03*
Y-3112600D03*
X5750000Y-3113500D03*
X5752100Y-2638400D03*
X5852300Y-2023200D03*
X5932800Y-1938500D03*
X5798000Y-1213400D03*
X5806700Y-1305800D03*
X6215000Y-6950000D03*
X6317000Y-6252000D03*
X6072300Y-5907700D03*
X6324400Y-5226600D03*
X6228800Y-5225400D03*
X6145000Y-4893000D03*
X6187100Y-4474700D03*
X6136000Y-3527800D03*
Y-3428700D03*
X6040700Y-3020300D03*
X6042400Y-3113400D03*
X6133100Y-2646800D03*
X6185300Y-546800D03*
X6605000Y-6950000D03*
X6643000Y-7058000D03*
X6510000Y-6950000D03*
X6367100Y-6004700D03*
X6349600Y-5690300D03*
X6353500Y-5440300D03*
X6387100Y-4474700D03*
X6587100D03*
X6596100Y-3717200D03*
X6384100D03*
X6595100Y-3622000D03*
X6480100Y-3717200D03*
X6538000Y-2681000D03*
X6506300Y-2625700D03*
X6506000Y-2736800D03*
X6468600Y-2679600D03*
X6604800Y-2680900D03*
X6650000Y-300000D03*
X6786400Y-7623300D03*
Y-7783300D03*
X6748100Y-7504400D03*
X6864900Y-6956700D03*
X6959900Y-7157400D03*
X6838000Y-7058000D03*
X6700000Y-6950000D03*
X6853100Y-6004700D03*
X6707000Y-6252000D03*
X6653100Y-5907700D03*
X6750600Y-5408200D03*
Y-5312200D03*
X6883200Y-3826500D03*
X6690900Y-3622000D03*
X6803800Y-3680500D03*
X6899800D03*
X6692100Y-3717200D03*
X6938600Y-3422200D03*
X6939200Y-3327100D03*
X6939100Y-3123100D03*
X6913400Y-2894900D03*
X6912600Y-2685700D03*
X6816000D03*
X7215000Y-6950000D03*
X7120000D03*
X7220000Y-4800000D03*
X7080000D03*
X7181000Y-4471000D03*
X7013500Y-3680500D03*
X7222500Y-3622000D03*
X7223500Y-3717200D03*
X7109500Y-3680500D03*
X7035200Y-3327100D03*
Y-3516500D03*
X7035100Y-3123100D03*
X7196900Y-2685700D03*
X7103900D03*
X7008700D03*
X7077000Y-1520000D03*
X7310000Y-6950000D03*
X7375700Y-6004700D03*
X7316600Y-6252000D03*
X7480000Y-6260000D03*
X7275700Y-5908700D03*
X7375000Y-5583000D03*
X7548000Y-5520000D03*
X7368000D03*
X7548000Y-5090000D03*
X7368000D03*
X7375000Y-4633000D03*
X7381000Y-4471000D03*
X7481000D03*
X7281000D03*
X7434100Y-3717200D03*
X7433100Y-3622000D03*
X7318500D03*
X7319500Y-3717200D03*
X7530100D03*
X7529100Y-3622000D03*
X7386200Y-3330600D03*
X7312900Y-3256100D03*
X7463300Y-3257400D03*
X7462000Y-3408900D03*
X7387400Y-3256200D03*
X7390900Y-3407100D03*
X7462400Y-3332200D03*
X7346200Y-2843400D03*
X7575900Y-2685700D03*
X7291400D03*
X7429400Y-397000D03*
X7525600Y-188500D03*
Y-397000D03*
X7331300D03*
X7587000Y-7235000D03*
X7778400Y-6640500D03*
X7730000Y-6410000D03*
X7675000Y-5583000D03*
X7728000Y-5520000D03*
Y-5090000D03*
X7870000Y-4800000D03*
X7881000Y-4471000D03*
X7681000D03*
X7581000D03*
X7675000Y-4633000D03*
X7781000Y-4471000D03*
X7863400Y-3622000D03*
X7642400Y-3717200D03*
X7853900D03*
X7738400D03*
X7863400Y-3502000D03*
X7833100Y-3028800D03*
Y-3123100D03*
X7863200Y-2902000D03*
X7603000Y-2799200D03*
X7835400Y-2882900D03*
X7863200Y-2685700D03*
X7740100Y-2883700D03*
X7603000Y-2895200D03*
X7806200Y-590200D03*
X7626200Y-397000D03*
X7832900D03*
Y-188500D03*
X7730100Y-397000D03*
X7806200Y-281800D03*
X7975000Y-5583000D03*
X8124000Y-5558000D03*
Y-5458000D03*
X7908000Y-5520000D03*
X7927000Y-5215000D03*
X8124000Y-5158000D03*
X7908000Y-5090000D03*
X7927000Y-5365000D03*
X8124000Y-5058000D03*
X8010000Y-4800000D03*
X7975000Y-4633000D03*
X7989000Y-4195000D03*
X7949900Y-3717200D03*
X7960800Y-2902000D03*
X8153600D03*
X8057600Y-2684700D03*
X7960800D03*
X7926800Y-590200D03*
X7933400Y-188500D03*
Y-397000D03*
X8214760Y-6792020D03*
X8455500Y-5692300D03*
X8405000Y-5667000D03*
X8455100Y-5641000D03*
X8275000Y-5583000D03*
X8405000Y-4952000D03*
X8352700Y-4924300D03*
X8457300Y-4924500D03*
X8353900Y-4978000D03*
X8457300Y-4978500D03*
X8337700Y-4600400D03*
X8249800Y-2902000D03*
Y-2684700D03*
X8345000Y-2901000D03*
X8440300Y-2685700D03*
X8345000D03*
G54D13*
X1045800Y-1812600D03*
X1281500Y-6438400D03*
X1582200Y-6336100D03*
X1532000Y-6488700D03*
X1632000Y-6388700D03*
X1480800Y-6238900D03*
X1479800Y-6138800D03*
X1582200Y-6240100D03*
X1680100Y-6038400D03*
X1480600Y-5738900D03*
X1580400Y-5838500D03*
X1480600Y-5538800D03*
Y-5438600D03*
X1480100Y-5238600D03*
Y-5038600D03*
X1682100Y-4940900D03*
X1580000Y-4639000D03*
X1480200Y-4738500D03*
X1795900Y-7492700D03*
X1931000Y-7265300D03*
Y-7115300D03*
Y-7165300D03*
Y-7215300D03*
X1832000Y-6488700D03*
X1781800Y-6239100D03*
X1982200D03*
X1882100Y-6040400D03*
X1884000Y-5938800D03*
X1980300Y-5739300D03*
Y-5538900D03*
Y-5638500D03*
Y-5438900D03*
X1741000Y-5161900D03*
X1980300Y-5138700D03*
Y-5238800D03*
Y-5338800D03*
X1782100Y-4840300D03*
X1881400D03*
X1980300Y-5039300D03*
X1785800Y-4639000D03*
X1981900Y-4741600D03*
X2332000Y-6388700D03*
Y-6488700D03*
X2232000D03*
Y-6388700D03*
X2182200Y-6136500D03*
X2082000Y-6239100D03*
X2132000Y-6088700D03*
Y-5988700D03*
X2232000Y-6188700D03*
Y-6088700D03*
X2282100Y-5740400D03*
X2182400D03*
X2082300D03*
X2082600Y-5538600D03*
Y-5337300D03*
X2082300Y-5136300D03*
X2332000Y-4788700D03*
X2184400Y-5038900D03*
X2284200Y-4939100D03*
X2283200Y-4838400D03*
X2080300Y-4938400D03*
X2182100Y-4536600D03*
X2082100Y-4737000D03*
Y-4641000D03*
X2182100Y-4440400D03*
X2588400Y-7736200D03*
X2506000Y-6940300D03*
X2456000D03*
X2406000D03*
X2432000Y-6388700D03*
Y-6488700D03*
X2481600Y-6239100D03*
X2582200D03*
X2482300Y-5740400D03*
X2381900D03*
X2483400Y-5538600D03*
X2584000Y-5438600D03*
Y-5538600D03*
X2584200Y-5638500D03*
X2483400Y-5337300D03*
X2584000Y-5238600D03*
Y-5338600D03*
X2390300Y-5039100D03*
X2487700Y-4685300D03*
X2932000Y-6488700D03*
X2832000Y-6388700D03*
Y-6488700D03*
X2932000Y-6188700D03*
Y-6088700D03*
X2781900Y-6239100D03*
X2680400Y-6038700D03*
X2681400Y-5938400D03*
X2683600Y-5738700D03*
X2884700Y-5938400D03*
X2781600Y-4838500D03*
X2882000Y-4736700D03*
X2673600Y-4364400D03*
X3010500Y-6618200D03*
X3132000Y-6288700D03*
X2979700Y-6138400D03*
X3084200Y-5638700D03*
Y-5438700D03*
X3184300Y-5238900D03*
X3084200Y-5338800D03*
X3084000Y-4838600D03*
X3084200Y-5039000D03*
X2983800Y-4938600D03*
X3544600Y-6884500D03*
Y-6684500D03*
Y-6634500D03*
X3282300Y-5936800D03*
X3554100Y-4435200D03*
X3320800D03*
X3739600Y-5756100D03*
X3638100D03*
X3738600Y-5620900D03*
X3637100D03*
X3761600Y-5181400D03*
X3637100D03*
X3613500Y-4989300D03*
X4558500Y-6258000D03*
X4883500D03*
X4818500D03*
X5100300Y-6130200D03*
X4968860Y-5839430D03*
X4859900Y-5690200D03*
Y-5640200D03*
Y-5590200D03*
Y-4990200D03*
Y-4940200D03*
X4997200Y-1821600D03*
Y-1721600D03*
Y-1421600D03*
Y-1321600D03*
X5050800Y-661300D03*
X4950800Y-513300D03*
X5250300Y-6130200D03*
X5350300D03*
X5300300D03*
X5400300D03*
X5272400Y-5574600D03*
X5550300Y-6130200D03*
X5500300D03*
X5450300D03*
X5422400Y-5310900D03*
X5719700Y-3352300D03*
X5610600Y-2959400D03*
X5526600Y-3084400D03*
X5605000Y-2556600D03*
X5527900Y-2458000D03*
X5593400D03*
X5562200Y-1344800D03*
X5990400Y-6333400D03*
X5900300Y-6130200D03*
X5800300D03*
X6000300D03*
X5750300D03*
X5950300D03*
X5800700Y-4550000D03*
X5900700D03*
X5750700D03*
X5844400Y-3616100D03*
X5815700Y-3352300D03*
X5812000Y-2300000D03*
X5892000D03*
Y-2380000D03*
Y-2460000D03*
Y-2140000D03*
X5812000D03*
X6013150Y-2178850D03*
X5930200Y-2179700D03*
Y-2260400D03*
X5892000Y-1900000D03*
Y-1980000D03*
X5812000D03*
Y-1740000D03*
Y-1900000D03*
Y-1660000D03*
Y-1580000D03*
Y-1500000D03*
Y-1420000D03*
X6011900Y-1459200D03*
X5892000Y-1260000D03*
Y-1180000D03*
Y-1340000D03*
X5969500Y-900400D03*
X5890400Y-819800D03*
X5889700Y-740000D03*
X5933800Y-468500D03*
X6003800D03*
X6010000Y-300000D03*
X5889500Y-341400D03*
X5930000Y-380000D03*
X6010000D03*
X6063500Y-6354800D03*
X6150300Y-6130200D03*
X6270000Y-6004700D03*
X6050300Y-6130200D03*
X6100300D03*
X6037100Y-2646800D03*
X6212000Y-2300000D03*
X6132000Y-2460000D03*
X6212000Y-2380000D03*
X6292000Y-2300000D03*
Y-2460000D03*
X6172000Y-2179500D03*
X6331800D03*
X6250200Y-2099600D03*
X6090600Y-2099800D03*
X6250200Y-2019900D03*
X6332100Y-2019300D03*
X6292000Y-2220000D03*
X6092800Y-1940800D03*
X6252000Y-1698500D03*
X6332000D03*
X6250200Y-1783300D03*
Y-1859100D03*
X6052000Y-1740000D03*
Y-1660000D03*
X6252100Y-1543300D03*
X6332000D03*
X6131800Y-1462000D03*
X6052000Y-1580000D03*
X6090600Y-1619400D03*
X6292000Y-1420000D03*
X6132000Y-1260000D03*
X6052000Y-1180000D03*
X6212000D03*
X6052000Y-1260000D03*
X6212000D03*
Y-1340000D03*
X6338500Y-815700D03*
X6240100Y-915000D03*
X6090000Y-780000D03*
X6242500Y-815700D03*
X6330000Y-700000D03*
X6090000D03*
X6250000D03*
Y-300000D03*
Y-380000D03*
X6330500Y-433900D03*
X6049900Y-259900D03*
X6210000D03*
X6440100Y-5140300D03*
Y-5190300D03*
Y-5240300D03*
Y-4840300D03*
Y-4790300D03*
Y-4740300D03*
X6389000Y-3205000D03*
X6465000Y-3127000D03*
X6589900Y-2632800D03*
X6366600D03*
X6612000Y-2380000D03*
Y-2460000D03*
X6452000Y-2300000D03*
X6532000Y-2380000D03*
Y-2460000D03*
X6372000Y-2380000D03*
X6452000D03*
Y-2460000D03*
X6411200Y-2180400D03*
X6412200Y-2100600D03*
X6372000Y-2140000D03*
X6452000Y-2220000D03*
X6612000Y-2140000D03*
X6571900Y-2019300D03*
Y-2180400D03*
X6492200Y-2100600D03*
X6532000Y-2220000D03*
X6372000D03*
X6492400Y-1779900D03*
Y-1939800D03*
X6410200Y-1779900D03*
Y-1939800D03*
X6500700Y-1860000D03*
X6412000Y-1698500D03*
X6492100D03*
X6572200D03*
X6372000Y-1420000D03*
X6452000D03*
X6572200Y-1543300D03*
X6412000D03*
X6532000Y-1500000D03*
X6612000Y-1420000D03*
X6482200Y-1380200D03*
X6372000Y-1340000D03*
X6509600Y-1062900D03*
X6447900Y-1061900D03*
X6452000Y-1260000D03*
Y-1340000D03*
X6612000Y-1180000D03*
X6452000D03*
X6387400Y-992900D03*
X6490000Y-860000D03*
X6492500Y-468500D03*
X6449800Y-740800D03*
X6530300Y-659700D03*
X6570000Y-700000D03*
X6562500Y-468500D03*
X6490000Y-380000D03*
X6608400Y-343700D03*
X6398400Y-162900D03*
X6410000Y-380000D03*
X6570000D03*
X6490000Y-220000D03*
X6570000D03*
X6913400Y-2798900D03*
X6813000Y-2632800D03*
X6692000Y-2460000D03*
X6816000Y-2589700D03*
X6912600D03*
X6892000Y-2420000D03*
X6732000D03*
X6932000Y-2060000D03*
X6815600Y-2179700D03*
X6932000Y-2140000D03*
X6651400Y-2019300D03*
X6852000Y-2140000D03*
X6651900Y-2180900D03*
X6852000Y-2220000D03*
Y-2060000D03*
X6932000Y-2220000D03*
X6772000Y-2060000D03*
X6932000Y-1900000D03*
X6811800Y-1940100D03*
X6817500Y-1819400D03*
X6651500Y-1940000D03*
Y-1859900D03*
X6772000Y-1900000D03*
X6852000Y-1980000D03*
X6652000Y-1698500D03*
X6736600Y-1739400D03*
X6852000Y-1900000D03*
X6807300Y-1498300D03*
X6889300Y-1420100D03*
X6652200Y-1380900D03*
X6652000Y-1543300D03*
X6932000Y-1580000D03*
X6732000Y-1619700D03*
X6759900Y-1065000D03*
X6812100Y-1301500D03*
X6692000Y-1180000D03*
X6650000Y-780000D03*
X6769800Y-815100D03*
X6889000Y-919200D03*
X6730000Y-780000D03*
X6650000Y-860000D03*
X6810000Y-780000D03*
X6700600Y-994000D03*
X6650000Y-700000D03*
X6890000Y-300000D03*
X6809700Y-162900D03*
X6770200Y-343600D03*
X6690400Y-343700D03*
X6690000Y-260100D03*
X6810000Y-380000D03*
X7189000Y-3205000D03*
X7037000Y-2632800D03*
X7012000Y-2380000D03*
X7008700Y-2589700D03*
X7103900D03*
X7196900D03*
X7092000Y-2060000D03*
X7012000Y-2140000D03*
Y-2220000D03*
Y-2060000D03*
X7092000Y-2220000D03*
Y-2140000D03*
X7012000Y-1820000D03*
X7092000Y-1980000D03*
Y-1820000D03*
Y-1900000D03*
X7012000Y-1980000D03*
X7174700Y-1720000D03*
X7012000Y-1900000D03*
X7174700Y-1820000D03*
X7139700Y-1500000D03*
X7012000Y-1580000D03*
X7092000D03*
X7077000Y-1420000D03*
Y-1620000D03*
Y-1120000D03*
Y-1220000D03*
Y-1020000D03*
X7050000Y-780000D03*
X7188800Y-591000D03*
X6970000Y-380000D03*
X7050000Y-300000D03*
X7009900Y-259900D03*
X7050000Y-380000D03*
X7265000Y-3127000D03*
X7386300Y-2520500D03*
X7480000Y-655000D03*
X7280000D03*
X7331300Y-493000D03*
X7525600D03*
X7530000Y-655000D03*
X7558100Y-701200D03*
X7429400Y-493000D03*
X7311200Y-591000D03*
X7433000D03*
X7600000Y-7125000D03*
X7815950Y-6978690D03*
X7851310Y-7014050D03*
X7745240Y-6907980D03*
X7753020Y-6792720D03*
X7580000Y-2605000D03*
X7703000Y-2798500D03*
X7680000Y-2605000D03*
X7575900Y-2520100D03*
X7766600Y-2520300D03*
X7671500Y-2521200D03*
X7863200Y-2520500D03*
X7626200Y-493000D03*
X7630000Y-655000D03*
X7580000D03*
X7686200Y-591000D03*
X7626200Y-284500D03*
X7730100D03*
X7886660Y-7049400D03*
X8073340Y-6650600D03*
X8037980Y-6615240D03*
X8108690Y-6685950D03*
X8179400Y-6756660D03*
X8144050Y-6721310D03*
X8015100Y-3283400D03*
X8142100D03*
X8015100Y-3212300D03*
X8141300D03*
X8153600Y-2806000D03*
X7880000Y-2605000D03*
Y-655000D03*
X7933400Y-284500D03*
X8249800Y-2588700D03*
X8430000Y-655000D03*
G54D14*
G01X1931000Y-7265300D02*
X1849500D01*
X1692200Y-7108000D01*
Y-6819700D01*
X1889200Y-6622700D01*
X1927010D01*
X1937010Y-6612700D01*
Y-6606300D01*
X1947010Y-6596300D01*
X1967010D01*
X1977010Y-6606300D01*
Y-6612700D01*
X1987010Y-6622700D01*
X2007010D01*
X2017010Y-6612700D01*
Y-6606300D01*
X2027010Y-6596300D01*
X2047010D01*
X2057010Y-6606300D01*
Y-6612700D01*
X2067010Y-6622700D01*
X2087010D01*
X2097010Y-6612700D01*
Y-6606300D01*
X2107010Y-6596300D01*
X2127010D01*
X2137010Y-6606300D01*
Y-6612700D01*
X2147010Y-6622700D01*
X2226500D01*
X2332000Y-6517200D01*
Y-6488700D01*
G01X2432000Y-6388700D02*
X2481400Y-6438100D01*
Y-6690100D01*
X2377400Y-6794100D01*
Y-6871400D01*
X2333200Y-6915600D01*
X2068100D01*
X2058100Y-6905600D01*
Y-6866600D01*
X2048100Y-6856600D01*
X2028100D01*
X2018100Y-6866600D01*
Y-6905600D01*
X2008100Y-6915600D01*
X1988100D01*
X1978100Y-6905600D01*
Y-6866600D01*
X1968100Y-6856600D01*
X1948100D01*
X1938100Y-6866600D01*
Y-6905600D01*
X1928100Y-6915600D01*
X1905400D01*
X1873100Y-6947900D01*
Y-7090100D01*
X1898300Y-7115300D01*
X1931000D01*
G01X2432000Y-6488700D02*
Y-6659300D01*
X2303900Y-6787400D01*
X2279230D01*
X2269230Y-6777400D01*
Y-6737100D01*
X2259230Y-6727100D01*
X2239230D01*
X2229230Y-6737100D01*
Y-6777400D01*
X2219230Y-6787400D01*
X2199230D01*
X2189230Y-6777400D01*
Y-6737100D01*
X2179230Y-6727100D01*
X2159230D01*
X2149230Y-6737100D01*
Y-6777400D01*
X2139230Y-6787400D01*
X1873800D01*
X1779500Y-6881700D01*
Y-7067600D01*
X1877200Y-7165300D01*
X1931000D01*
G01Y-7215300D02*
X1865900D01*
X1735900Y-7085300D01*
Y-6858400D01*
X1911700Y-6682600D01*
X2261600D01*
X2382700Y-6561500D01*
Y-6439400D01*
X2332000Y-6388700D01*
G01X2506000Y-6940300D02*
Y-6907600D01*
X2538800Y-6874800D01*
X2662000D01*
X2694800Y-6907600D01*
Y-6972600D01*
X2733900Y-7011700D01*
X2889900D01*
X2955200Y-6946400D01*
Y-6870900D01*
X2965200Y-6860900D01*
X3020200D01*
X3030200Y-6850900D01*
Y-6830900D01*
X3020200Y-6820900D01*
X2965200D01*
X2955200Y-6810900D01*
Y-6790900D01*
X2965200Y-6780900D01*
X3020200D01*
X3030200Y-6770900D01*
Y-6750900D01*
X3020200Y-6740900D01*
X2965200D01*
X2955200Y-6730900D01*
Y-6710900D01*
X2965200Y-6700900D01*
X3020200D01*
X3030200Y-6690900D01*
Y-6670900D01*
X3020200Y-6660900D01*
X2965200D01*
X2955200Y-6650900D01*
Y-6511900D01*
X2932000Y-6488700D01*
G01X2832000Y-6388700D02*
X2882200Y-6438900D01*
Y-6562800D01*
X2837900Y-6607100D01*
Y-6629800D01*
X2827900Y-6639800D01*
X2799700D01*
X2789700Y-6649800D01*
Y-6669800D01*
X2799700Y-6679800D01*
X2827900D01*
X2837900Y-6689800D01*
Y-6709800D01*
X2827900Y-6719800D01*
X2799700D01*
X2789700Y-6729800D01*
Y-6749800D01*
X2799700Y-6759800D01*
X2827900D01*
X2850000Y-6781900D01*
Y-6808620D01*
X2840000Y-6818620D01*
X2796600D01*
X2786600Y-6828620D01*
Y-6848620D01*
X2796600Y-6858620D01*
X2840000D01*
X2850000Y-6868620D01*
Y-6916100D01*
X2840000Y-6926100D01*
X2789900D01*
X2736100Y-6872300D01*
Y-6818300D01*
X2704900Y-6787100D01*
X2592800D01*
X2546850Y-6833050D01*
X2505650D01*
X2456000Y-6882700D01*
Y-6940300D01*
G01X2406000D02*
Y-6885100D01*
X2429130Y-6861970D01*
Y-6826070D01*
X2472250Y-6782950D01*
X2516650D01*
X2563500Y-6736100D01*
X2701100D01*
X2711100Y-6726100D01*
Y-6706100D01*
X2701100Y-6696100D01*
X2563500D01*
X2553500Y-6686100D01*
Y-6586400D01*
X2589200Y-6550700D01*
X2611900D01*
X2621900Y-6560700D01*
Y-6653400D01*
X2631900Y-6663400D01*
X2651900D01*
X2661900Y-6653400D01*
Y-6560700D01*
X2671900Y-6550700D01*
X2691900D01*
X2701900Y-6560700D01*
Y-6653400D01*
X2711900Y-6663400D01*
X2731900D01*
X2741900Y-6653400D01*
Y-6560700D01*
X2751900Y-6550700D01*
X2770000D01*
X2832000Y-6488700D01*
G01X2932000Y-6188700D02*
X2978400Y-6235100D01*
X3813700D01*
X3884500Y-6305900D01*
X4059100D01*
X4124300Y-6371100D01*
G01X2932000Y-6088700D02*
X3020200D01*
X3069400Y-6137900D01*
X3892100D01*
X3962500Y-6208300D01*
X4077100D01*
X4124300Y-6161100D01*
G01X3132000Y-6288700D02*
X3084700Y-6336000D01*
Y-7266500D01*
X3184400Y-7366200D01*
X4125000D01*
G01X5864700Y-4187700D02*
Y-4283700D01*
X6026100Y-4445100D01*
Y-4821400D01*
X5916800Y-4930700D01*
Y-5209800D01*
X5789600Y-5337000D01*
Y-5468300D01*
X5759500Y-5498400D01*
Y-5622300D01*
X5682900Y-5698900D01*
X5562200D01*
X5189500Y-6071600D01*
X4596300D01*
X4513300Y-5988600D01*
Y-5817800D01*
X4474800Y-5779300D01*
G01X4472800Y-4880100D02*
X4557000D01*
X4673700Y-4996800D01*
Y-5232000D01*
X4756300Y-5314600D01*
X4899200D01*
X4975400Y-5390800D01*
X5079000D01*
X5112400Y-5357400D01*
X5492900D01*
X5545000Y-5409500D01*
X5683100D01*
G01X4818500Y-6258000D02*
X4785740Y-6290760D01*
Y-7091240D01*
X4812400Y-7117900D01*
G01X4591100Y-5964300D02*
X4661400D01*
X4821400Y-5804300D01*
X5194400D01*
X5422400Y-5576300D01*
Y-5410900D01*
G01X4859900Y-4940200D02*
X4796900D01*
X4734900Y-5002200D01*
Y-5170700D01*
X4814300Y-5250100D01*
X4968700D01*
X5033300Y-5314700D01*
G01X4911600Y-7117900D02*
X4947200Y-7082300D01*
Y-6321700D01*
X4883500Y-6258000D01*
G01X4859900Y-4990200D02*
X5600400D01*
X5739400Y-5129200D01*
Y-5451400D01*
X5683100Y-5507700D01*
G01X6612000Y-2460000D02*
X6685000Y-2387000D01*
Y-2109910D01*
X6612700Y-2037610D01*
Y-1986010D01*
X6528190Y-1901500D01*
X6379500D01*
X6351500Y-1929500D01*
X6172700D01*
X5972700Y-2129500D01*
Y-2299900D01*
X5929500Y-2343100D01*
X5866480D01*
X5816600Y-2392980D01*
Y-3199400D01*
X5718100Y-3297900D01*
X5470500D01*
X4980500Y-3787900D01*
Y-3825600D01*
G01X5812000Y-2300000D02*
X5753020Y-2241020D01*
X5213330D01*
X5123780Y-2151470D01*
Y-1854070D01*
X5051770Y-1782060D01*
X5007200D01*
X4997200Y-1792060D01*
Y-1821600D01*
G01Y-1721600D02*
Y-1751140D01*
X5007200Y-1761140D01*
X5060440D01*
X5144700Y-1845400D01*
Y-2142800D01*
X5222000Y-2220100D01*
X5766400D01*
X5798200Y-2251900D01*
X5843900D01*
X5892000Y-2300000D01*
G01X5812000Y-2140000D02*
X5835130Y-2116870D01*
Y-2103310D01*
X5811120Y-2079300D01*
X5743980D01*
X5730600Y-2092680D01*
X5377290D01*
X5265280Y-1980670D01*
Y-1456070D01*
X5191270Y-1382060D01*
X5007200D01*
X4997200Y-1392060D01*
Y-1421600D01*
G01X5892000Y-2140000D02*
X5861900Y-2109900D01*
Y-2100490D01*
X5819310Y-2057900D01*
X5735790D01*
X5721930Y-2071760D01*
X5385960D01*
X5286200Y-1972000D01*
Y-1447400D01*
X5199940Y-1361140D01*
X5007200D01*
X4997200Y-1351140D01*
Y-1321600D01*
G01X5350300Y-6130200D02*
Y-6293000D01*
X5842400Y-6785100D01*
X7243700D01*
X7382900Y-6924300D01*
Y-7000700D01*
X7444000Y-7061800D01*
X7594000D01*
X7652700Y-7120500D01*
X7815560D01*
X7886660Y-7049400D01*
G01X5300300Y-6130200D02*
Y-6319200D01*
X5831300Y-6850200D01*
X6960000D01*
X7049300Y-6939500D01*
Y-7045300D01*
X7129000Y-7125000D01*
X7600000D01*
G01X7851310Y-7014050D02*
X7789960Y-7075400D01*
X7686000D01*
X7623000Y-7012400D01*
X7589100D01*
X7186600Y-6609900D01*
X5745700D01*
X5400300Y-6264500D01*
Y-6130200D01*
G01X5900700Y-4550000D02*
Y-4720000D01*
X5792700Y-4828000D01*
X5136600D01*
G01X7815950Y-6978690D02*
X7653090D01*
X7193100Y-6518700D01*
X6032200D01*
X5909300Y-6395800D01*
X5589800D01*
X5450300Y-6256300D01*
Y-6130200D01*
G01X8037980Y-6615240D02*
X8072400Y-6580820D01*
Y-6514800D01*
X7911900Y-6354300D01*
X6277000D01*
X6176800Y-6254100D01*
X5826700D01*
X5769400Y-6196800D01*
X5581890D01*
X5550300Y-6165210D01*
Y-6130200D01*
G01X5500300D02*
Y-6225200D01*
X5574300Y-6299200D01*
X6127690D01*
X6246090Y-6417600D01*
X7312300D01*
X7687420Y-6792720D01*
X7753020D01*
G01X5426500Y-3823700D02*
X5570300Y-3679900D01*
X6083500D01*
X6202100Y-3561300D01*
Y-2600490D01*
X6072500Y-2470890D01*
Y-2204190D01*
X6138000Y-2138690D01*
Y-2027800D01*
X6197500Y-1968300D01*
X6355590D01*
X6390690Y-2003400D01*
X6481710D01*
X6546300Y-2067990D01*
Y-2115510D01*
X6532000Y-2129810D01*
Y-2220000D01*
G01X5892000Y-1900000D02*
X5728400Y-1736400D01*
X5695520D01*
X5674220Y-1715100D01*
X5569300D01*
X5545000Y-1690800D01*
X5490700D01*
G01X5515900Y-1777100D02*
X5542560Y-1803760D01*
X5661560D01*
X5794500Y-1936700D01*
X5848700D01*
X5892000Y-1980000D01*
G01X5812000D02*
X5704490D01*
X5642890Y-1918400D01*
X5533200D01*
X5515900Y-1935700D01*
Y-1973400D01*
G01X6052000Y-1740000D02*
X6008900Y-1696900D01*
X5715000D01*
X5684600Y-1666500D01*
X5611900D01*
G01X5490700Y-1897000D02*
X5435500Y-1841800D01*
Y-1774700D01*
X5478200Y-1732000D01*
X5541800D01*
X5561700Y-1751900D01*
X5663900D01*
X5812000Y-1900000D01*
G01Y-1660000D02*
X5759400D01*
X5631600Y-1532200D01*
Y-1360500D01*
X5578700Y-1307600D01*
Y-1169500D01*
X5602300Y-1145900D01*
Y-284000D01*
X5693600Y-192700D01*
X6234100D01*
X6273130Y-231730D01*
Y-276870D01*
X6250000Y-300000D01*
G01X5812000Y-1580000D02*
X5762000D01*
X5681700Y-1499700D01*
Y-1349300D01*
X5624000Y-1291600D01*
Y-1175700D01*
X5636500Y-1163200D01*
Y-302090D01*
X5715290Y-223300D01*
X6111900D01*
X6160300Y-271700D01*
Y-364180D01*
X6170300Y-374180D01*
X6186710D01*
X6196700Y-364190D01*
Y-348200D01*
X6208400Y-336500D01*
X6283700D01*
X6294080Y-346880D01*
Y-361020D01*
X6275100Y-380000D01*
X6250000D01*
G01X5812000Y-1500000D02*
X5761210D01*
X5716400Y-1455190D01*
Y-1190900D01*
X5680800Y-1155300D01*
Y-674600D01*
X5668900Y-662700D01*
Y-374500D01*
X5681400Y-362000D01*
X5761300D01*
X5778200Y-345100D01*
Y-292300D01*
X5813000Y-257500D01*
X5967500D01*
X6010000Y-300000D01*
G01X8073340Y-6650600D02*
X8117680Y-6606260D01*
Y-6487890D01*
X7942090Y-6312300D01*
X6584200D01*
X6472900Y-6201000D01*
X5938400D01*
X5900300Y-6162900D01*
Y-6130200D01*
G01X8214760Y-6792020D02*
X8253820D01*
X8336300Y-6709540D01*
Y-6224400D01*
X8184900Y-6073000D01*
X6826400D01*
X6716700Y-5963300D01*
X6092400D01*
X6000300Y-6055400D01*
Y-6130200D01*
G01X5950300D02*
Y-6060800D01*
X5969700Y-6041400D01*
Y-6003700D01*
G01X5825600Y-3825600D02*
X5928500Y-3722700D01*
X6105790D01*
X6250000Y-3578490D01*
Y-2574890D01*
X6186900Y-2511790D01*
Y-2444700D01*
X6160300Y-2418100D01*
Y-2267710D01*
X6369410Y-2058600D01*
X6431290D01*
X6452500Y-2079810D01*
Y-2148700D01*
X6490500Y-2186700D01*
Y-2234600D01*
X6524500Y-2268600D01*
X6571500D01*
X6612000Y-2309100D01*
Y-2380000D01*
G01X6037100Y-2646800D02*
X5892000Y-2501700D01*
Y-2460000D01*
G01X6133100Y-2646800D02*
X6016800Y-2530500D01*
Y-2454200D01*
X5942600Y-2380000D01*
X5892000D01*
G01X6052000Y-1660000D02*
X6099500D01*
X6113700Y-1674200D01*
Y-1772000D01*
X6093900Y-1791800D01*
X5956190D01*
X5937600Y-1810390D01*
Y-1874410D01*
X5964490Y-1901300D01*
X6167410D01*
X6213600Y-1855110D01*
Y-1828300D01*
X6224700Y-1817200D01*
X6267900D01*
X6288200Y-1796900D01*
Y-1775050D01*
X6267000Y-1753850D01*
Y-1731800D01*
X6290500Y-1708300D01*
Y-1674900D01*
X6214300Y-1598700D01*
Y-1495700D01*
X6235420Y-1474580D01*
Y-1377200D01*
X6254860Y-1357760D01*
Y-1322240D01*
X6241500Y-1308880D01*
Y-1291120D01*
X6254860Y-1277760D01*
Y-1242240D01*
X6237500Y-1224880D01*
Y-1206400D01*
X6245500Y-1198400D01*
Y-1164200D01*
X6210050Y-1128750D01*
X6185590D01*
X6151290Y-1094450D01*
Y-1039420D01*
X6201710Y-989000D01*
X6313510D01*
X6334700Y-967810D01*
Y-916870D01*
X6302160Y-884330D01*
Y-833360D01*
X6319820Y-815700D01*
X6338500D01*
G01X6052000Y-1580000D02*
X6108700D01*
X6136400Y-1607700D01*
Y-1786800D01*
X6101200Y-1822000D01*
X5970300D01*
X5960300Y-1832000D01*
Y-1865000D01*
X5973900Y-1878600D01*
X6158000D01*
X6190900Y-1845700D01*
Y-1796350D01*
X6235200Y-1752050D01*
Y-1734600D01*
X6219300Y-1718700D01*
Y-1652100D01*
X6186100Y-1618900D01*
Y-1479800D01*
X6198400Y-1467500D01*
Y-1389000D01*
X6179020Y-1369620D01*
Y-1326730D01*
X6190500Y-1315250D01*
Y-1289710D01*
X6172830Y-1272040D01*
Y-1247560D01*
X6193550Y-1226840D01*
Y-1207800D01*
X6170400Y-1184650D01*
Y-1151000D01*
X6126400Y-1107000D01*
Y-1032200D01*
X6192300Y-966300D01*
X6302700D01*
X6312000Y-957000D01*
Y-926280D01*
X6279460Y-893740D01*
Y-835140D01*
X6260020Y-815700D01*
X6242500D01*
G01X6410000Y-380000D02*
X6475600Y-314400D01*
Y-283700D01*
X6427700Y-235800D01*
X6379900D01*
X6354400Y-261300D01*
Y-341300D01*
X6274700Y-421000D01*
X6129200D01*
X6103850Y-395650D01*
Y-381510D01*
X6123660Y-361700D01*
Y-347560D01*
X6109510Y-333410D01*
X6095370D01*
X6075560Y-353220D01*
X6061420D01*
X6045340Y-337140D01*
X5964530D01*
X5925090Y-297700D01*
X5861110D01*
X5831000Y-327810D01*
Y-413410D01*
X5724100Y-520310D01*
Y-553000D01*
X5754500Y-583400D01*
Y-655500D01*
X5719800Y-690200D01*
Y-1139690D01*
X5750100Y-1169990D01*
Y-1390800D01*
X5779300Y-1420000D01*
X5812000D01*
G01X6090000Y-700000D02*
X6036900Y-753100D01*
Y-895700D01*
X5929100Y-1003500D01*
Y-1156480D01*
X5943300Y-1170680D01*
Y-1588900D01*
X5911900Y-1620300D01*
X5872700D01*
X5848900Y-1596500D01*
Y-1548090D01*
X5858900Y-1538090D01*
X5887300D01*
X5897300Y-1528090D01*
Y-1508090D01*
X5887300Y-1498090D01*
X5858900D01*
X5848900Y-1488090D01*
Y-1468090D01*
X5858900Y-1458090D01*
X5887300D01*
X5897300Y-1448090D01*
Y-1428090D01*
X5887300Y-1418090D01*
X5858900D01*
X5848900Y-1408090D01*
Y-1383100D01*
X5892000Y-1340000D01*
G01X6052000Y-1180000D02*
Y-1164100D01*
X6068980Y-1147120D01*
Y-1106750D01*
X6058980Y-1096750D01*
X5984750D01*
X5962500Y-1074500D01*
Y-1037160D01*
X5984750Y-1014910D01*
X6027930D01*
X6047580Y-995260D01*
Y-958140D01*
X6074940Y-930780D01*
X6113260D01*
X6126860Y-917180D01*
Y-917160D01*
X6134020Y-910000D01*
X6150900D01*
X6174670Y-886230D01*
Y-723770D01*
X6102520Y-651620D01*
X6044930D01*
X6011580Y-618270D01*
Y-521730D01*
X6072210Y-461100D01*
X6103690D01*
X6137820Y-495230D01*
Y-560640D01*
X6190080Y-612900D01*
X6223820D01*
X6233820Y-602900D01*
Y-476780D01*
X6251220Y-459380D01*
X6289470D01*
X6311720Y-481630D01*
Y-622120D01*
X6322400Y-632800D01*
X6347800D01*
X6357080Y-623520D01*
Y-472880D01*
X6379330Y-450630D01*
X6410830D01*
X6439230Y-479020D01*
Y-669680D01*
X6394720Y-714190D01*
Y-765130D01*
X6427190Y-797600D01*
X6467200D01*
X6499600Y-765200D01*
Y-744350D01*
X6476680Y-721430D01*
Y-632720D01*
X6515800Y-593600D01*
Y-524500D01*
X6492500Y-501200D01*
Y-468500D01*
G01X5892000Y-1260000D02*
X5845860Y-1213860D01*
Y-1193570D01*
X5839440Y-1187150D01*
Y-1119370D01*
X5856130Y-1102680D01*
X5864380D01*
X5874380Y-1092680D01*
Y-1055470D01*
X5864360Y-1045450D01*
X5833840D01*
X5812570Y-1066720D01*
X5778630D01*
X5756380Y-1044470D01*
Y-987130D01*
X5778630Y-964880D01*
X5817630D01*
X5837660Y-944850D01*
X5869140D01*
X5879170Y-954880D01*
X5901130D01*
X5911130Y-944880D01*
Y-930720D01*
X5895130Y-914720D01*
X5779530D01*
X5757280Y-892470D01*
Y-825930D01*
X5782660Y-800550D01*
X5808180D01*
X5818180Y-790550D01*
Y-682830D01*
X5840430Y-660580D01*
X5886230D01*
X5902780Y-644030D01*
Y-618920D01*
X5892780Y-608920D01*
X5826500D01*
X5782080Y-564500D01*
Y-523230D01*
X5809130Y-496180D01*
X5867870D01*
X5886170Y-514480D01*
X5935630D01*
X5952780Y-497330D01*
Y-487480D01*
X5933800Y-468500D01*
G01X6052000Y-1260000D02*
Y-1227300D01*
X6076010Y-1203290D01*
X6076600D01*
X6089900Y-1189990D01*
Y-1098080D01*
X6067650Y-1075830D01*
X5993420D01*
X5983420Y-1065830D01*
Y-1045830D01*
X5993420Y-1035830D01*
X6036600D01*
X6068500Y-1003930D01*
Y-966810D01*
X6083610Y-951700D01*
X6121930D01*
X6142710Y-930920D01*
X6163370D01*
X6195600Y-898690D01*
Y-715110D01*
X6111190Y-630700D01*
X6053600D01*
X6032500Y-609600D01*
Y-530400D01*
X6080880Y-482020D01*
X6095020D01*
X6116900Y-503900D01*
Y-569310D01*
X6181410Y-633820D01*
X6232490D01*
X6254740Y-611570D01*
Y-485450D01*
X6259890Y-480300D01*
X6280800D01*
X6290800Y-490300D01*
Y-635690D01*
X6311510Y-656400D01*
X6358570D01*
X6378000Y-636970D01*
Y-481550D01*
X6388000Y-471550D01*
X6402160D01*
X6418310Y-487690D01*
Y-661010D01*
X6373800Y-705520D01*
Y-773800D01*
X6418520Y-818520D01*
X6475870D01*
X6520520Y-773870D01*
Y-735680D01*
X6497600Y-712760D01*
Y-641390D01*
X6536720Y-602270D01*
Y-494280D01*
X6562500Y-468500D01*
G01X5892000Y-1180000D02*
X5860360Y-1148360D01*
Y-1128040D01*
X5864800Y-1123600D01*
X5873050D01*
X5895300Y-1101350D01*
Y-1046800D01*
X5873030Y-1024530D01*
X5825170D01*
X5803900Y-1045800D01*
X5787300D01*
X5777300Y-1035800D01*
Y-995800D01*
X5787300Y-985800D01*
X5826300D01*
X5846330Y-965770D01*
X5860470D01*
X5870500Y-975800D01*
X5910000D01*
X5932250Y-953550D01*
Y-922060D01*
X5903990Y-893800D01*
X5788200D01*
X5778200Y-883800D01*
Y-834600D01*
X5791330Y-821470D01*
X5816850D01*
X5839100Y-799220D01*
Y-691500D01*
X5849100Y-681500D01*
X5898700D01*
X5923700Y-656500D01*
Y-610250D01*
X5901450Y-588000D01*
X5835170D01*
X5803000Y-555830D01*
Y-531900D01*
X5817800Y-517100D01*
X5859200D01*
X5877500Y-535400D01*
X5944300D01*
X5980670Y-499030D01*
Y-491630D01*
X6003800Y-468500D01*
G01X5930000Y-380000D02*
X5957590Y-407590D01*
Y-444710D01*
X5933800Y-468500D01*
G01X6010000Y-380000D02*
X5980300Y-409700D01*
Y-445000D01*
X6003800Y-468500D01*
G01X6063500Y-6354800D02*
X6172500Y-6463800D01*
X7237900D01*
X7682080Y-6907980D01*
X7745240D01*
G01X8108690Y-6685950D02*
X8156100Y-6638540D01*
Y-6370200D01*
X7991700Y-6205800D01*
X6752000D01*
X6676400Y-6130200D01*
X6150300D01*
G01X8179400Y-6756660D02*
X8288500Y-6647560D01*
Y-6279100D01*
X8124000Y-6114600D01*
X6796500D01*
X6728000Y-6046100D01*
X6081500D01*
X6050300Y-6077300D01*
Y-6130200D01*
G01X6100300D02*
Y-6097500D01*
X6119700Y-6078100D01*
X6693700D01*
X6776400Y-6160800D01*
X8031400D01*
X8231600Y-6361000D01*
Y-6633760D01*
X8144050Y-6721310D01*
G01X6212000Y-2380000D02*
X6236200Y-2404200D01*
Y-2493490D01*
X6299500Y-2556790D01*
Y-2739300D01*
X6369600Y-2809400D01*
X6610400D01*
X6685100Y-2734700D01*
Y-2679100D01*
X6638800Y-2632800D01*
X6589900D01*
G01X6366600D02*
Y-2534600D01*
X6292000Y-2460000D01*
G01Y-2220000D02*
X6253000Y-2259000D01*
Y-2333410D01*
X6500190Y-2580600D01*
X6653290D01*
X6734700Y-2662010D01*
Y-2801500D01*
X6776000Y-2842800D01*
X6985900D01*
X7060130Y-2768570D01*
Y-2655930D01*
X7037000Y-2632800D01*
G01X6813000D02*
X6761600D01*
X6675800Y-2547000D01*
X6545500D01*
X6493400Y-2494900D01*
Y-2365590D01*
X6467010Y-2339200D01*
X6392200D01*
X6353000Y-2300000D01*
X6292000D01*
G01X6970000Y-380000D02*
Y-245300D01*
X7007300Y-208000D01*
X7097700D01*
X7243800Y-354100D01*
Y-620480D01*
X7221100Y-643180D01*
Y-722600D01*
X6983300Y-960400D01*
Y-1229700D01*
X6843900Y-1369100D01*
Y-1612300D01*
X6800300Y-1655900D01*
X6341600D01*
X6294500Y-1608800D01*
Y-1482100D01*
X6326500Y-1450100D01*
Y-1408330D01*
X6364700Y-1370130D01*
Y-1347300D01*
X6372000Y-1340000D01*
G01X6810000Y-380000D02*
Y-232500D01*
X6800000Y-222500D01*
X6740800D01*
X6730800Y-232500D01*
Y-386050D01*
X6720800Y-396050D01*
X6618100D01*
X6608100Y-406050D01*
Y-426050D01*
X6618100Y-436050D01*
X6720800D01*
X6730800Y-446050D01*
Y-498490D01*
X6714710Y-514580D01*
X6700570D01*
X6666120Y-480130D01*
X6651980D01*
X6637830Y-494280D01*
Y-508420D01*
X6672280Y-542870D01*
Y-557010D01*
X6658130Y-571160D01*
X6643990D01*
X6609540Y-536710D01*
X6595400D01*
X6581250Y-550860D01*
Y-565000D01*
X6610300Y-594050D01*
Y-720400D01*
X6552200Y-778500D01*
Y-867900D01*
X6509900Y-910200D01*
X6462100D01*
X6415070Y-863170D01*
X6400930D01*
X6386780Y-877320D01*
Y-891460D01*
X6405000Y-909680D01*
Y-923820D01*
X6397480Y-931340D01*
Y-945480D01*
X6411630Y-959630D01*
X6425770D01*
X6433290Y-952110D01*
X6447430D01*
X6461230Y-965910D01*
Y-980070D01*
X6374760Y-1066540D01*
X6360620D01*
X6327410Y-1033330D01*
X6313260D01*
X6299110Y-1047480D01*
Y-1061610D01*
X6318800Y-1081300D01*
Y-1154690D01*
X6328800Y-1164690D01*
X6391400D01*
X6401400Y-1174690D01*
Y-1194690D01*
X6391400Y-1204690D01*
X6328800D01*
X6318800Y-1214690D01*
Y-1234690D01*
X6328800Y-1244690D01*
X6391400D01*
X6401400Y-1254690D01*
Y-1274690D01*
X6391400Y-1284690D01*
X6328800D01*
X6318800Y-1294690D01*
Y-1360500D01*
X6292000Y-1387300D01*
Y-1420000D01*
G01X6338500Y-815700D02*
X6299830Y-777030D01*
Y-730170D01*
X6330000Y-700000D01*
G01X6242500Y-815700D02*
X6275900Y-782300D01*
Y-725900D01*
X6250000Y-700000D01*
G01X6452000Y-2220000D02*
Y-2253750D01*
X6564700Y-2366450D01*
Y-2367600D01*
X6570600Y-2373500D01*
Y-2492100D01*
X6592700Y-2514200D01*
X6737100D01*
X6774200Y-2477100D01*
Y-2349100D01*
X6726100Y-2301000D01*
Y-1815170D01*
X6882000Y-1659270D01*
Y-1548900D01*
X7032200Y-1398700D01*
Y-1064800D01*
X7077000Y-1020000D01*
G01X6890000Y-300000D02*
X6850800Y-339200D01*
Y-361900D01*
X6860800Y-371900D01*
X6910060D01*
X6920060Y-381900D01*
Y-401900D01*
X6910060Y-411900D01*
X6860800D01*
X6850800Y-421900D01*
Y-441900D01*
X6860800Y-451900D01*
Y-473400D01*
X6842100Y-492100D01*
Y-506240D01*
X6860160Y-524300D01*
Y-538440D01*
X6846010Y-552590D01*
X6831870D01*
X6813810Y-534530D01*
X6799670D01*
X6755260Y-578940D01*
X6719360D01*
X6687900Y-610400D01*
Y-633100D01*
X6697900Y-643100D01*
X6799300D01*
X6809300Y-653100D01*
Y-673100D01*
X6799300Y-683100D01*
X6697900D01*
X6687900Y-693100D01*
Y-796400D01*
X6751900Y-860400D01*
Y-1005590D01*
X6662490Y-1095000D01*
X6607310D01*
X6572100Y-1130210D01*
Y-1209000D01*
X6598900Y-1235800D01*
X6669500D01*
X6695300Y-1261600D01*
Y-1549410D01*
X6659410Y-1585300D01*
X6494500D01*
X6475000Y-1565800D01*
Y-1469590D01*
X6523700Y-1420890D01*
Y-1337410D01*
X6493590Y-1307300D01*
X6420900D01*
X6406600Y-1321600D01*
Y-1385400D01*
X6372000Y-1420000D01*
G01X6452000D02*
X6374600Y-1497400D01*
Y-1566010D01*
X6421990Y-1613400D01*
X6680700D01*
X6745800Y-1548300D01*
Y-1443120D01*
X6728800Y-1426120D01*
Y-1406120D01*
X6738800Y-1396120D01*
X6780400D01*
X6793320Y-1383200D01*
Y-1369040D01*
X6780400Y-1356120D01*
X6769600D01*
X6759600Y-1346120D01*
Y-1244900D01*
X6787300Y-1217200D01*
X6819500D01*
X6835580Y-1201120D01*
X6849720D01*
X6888910Y-1240310D01*
X6903050D01*
X6917200Y-1226160D01*
Y-1212020D01*
X6878010Y-1172830D01*
Y-1158690D01*
X6929600Y-1107100D01*
Y-868400D01*
X7009600Y-788400D01*
Y-749500D01*
X7034500Y-724600D01*
X7112100D01*
X7122100Y-714600D01*
Y-683700D01*
X7132100Y-673700D01*
X7157800D01*
X7165200Y-666300D01*
Y-641100D01*
X7157800Y-633700D01*
X7132100D01*
X7122100Y-623700D01*
Y-534800D01*
X7132100Y-524800D01*
X7191700D01*
X7201700Y-514800D01*
Y-494800D01*
X7191700Y-484800D01*
X7132100D01*
X7122100Y-474800D01*
Y-454800D01*
X7132100Y-444800D01*
X7191700D01*
X7201700Y-434800D01*
Y-414800D01*
X7191700Y-404800D01*
X7132100D01*
X7122100Y-394800D01*
Y-313600D01*
X7108500Y-300000D01*
X7050000D01*
G01X6650000Y-860000D02*
X6682000Y-892000D01*
X6708720D01*
X6715800Y-884920D01*
Y-871100D01*
X6667700Y-823000D01*
X6631700D01*
X6617300Y-808600D01*
Y-796600D01*
X6607300Y-786600D01*
X6592100D01*
X6582100Y-796600D01*
Y-822200D01*
X6605100Y-845200D01*
Y-869000D01*
X6595100Y-879000D01*
X6581660D01*
X6571420Y-889240D01*
Y-903380D01*
X6578500Y-910460D01*
X6623820D01*
X6649860Y-936500D01*
X6668100D01*
X6683350Y-921250D01*
X6713450D01*
X6720530Y-928330D01*
Y-942470D01*
X6712700Y-950300D01*
Y-951300D01*
X6702700Y-961300D01*
X6687050D01*
X6667900Y-980450D01*
X6644650D01*
X6614900Y-950700D01*
X6600750D01*
X6593620Y-957830D01*
Y-979420D01*
X6650100Y-1035900D01*
Y-1050050D01*
X6636680Y-1063470D01*
X6615680D01*
X6562100Y-1009890D01*
Y-984700D01*
X6538050Y-960650D01*
X6523900D01*
X6506370Y-978180D01*
Y-1000870D01*
X6557130Y-1051630D01*
Y-1083380D01*
X6542680Y-1097830D01*
X6422390D01*
X6417260Y-1092700D01*
X6403100D01*
X6393100Y-1102700D01*
Y-1116850D01*
X6403100Y-1126850D01*
X6527100D01*
X6537100Y-1136850D01*
Y-1151000D01*
X6527100Y-1161000D01*
X6504140D01*
X6489300Y-1175840D01*
Y-1185840D01*
X6499300Y-1195840D01*
X6529800D01*
X6539800Y-1205840D01*
Y-1215840D01*
X6494090Y-1261550D01*
Y-1275690D01*
X6504200Y-1285800D01*
X6536200D01*
X6556900Y-1265100D01*
X6647800D01*
X6670700Y-1288000D01*
Y-1327980D01*
X6661850Y-1336830D01*
X6649330D01*
X6626300Y-1313800D01*
Y-1309900D01*
X6615000Y-1298600D01*
X6571800D01*
X6554200Y-1316200D01*
Y-1331300D01*
X6564200Y-1341300D01*
X6585600D01*
X6595600Y-1351300D01*
Y-1378200D01*
X6564800Y-1409000D01*
Y-1448200D01*
X6574800Y-1458200D01*
X6654400D01*
X6664400Y-1468200D01*
Y-1490000D01*
X6654400Y-1500000D01*
X6532000D01*
G01X6612000Y-1180000D02*
X6650100Y-1141900D01*
X6735700D01*
X6745700Y-1131900D01*
Y-1113900D01*
X6755700Y-1103900D01*
X6775700D01*
X6785700Y-1113900D01*
Y-1131900D01*
X6795700Y-1141900D01*
X6818400D01*
X6838800Y-1121500D01*
Y-1095920D01*
X6848800Y-1085920D01*
X6873900D01*
X6883900Y-1075920D01*
Y-1055920D01*
X6873900Y-1045920D01*
X6803700D01*
X6793700Y-1035920D01*
Y-1015920D01*
X6803700Y-1005920D01*
X6873900D01*
X6883900Y-995920D01*
Y-975920D01*
X6868380Y-960400D01*
X6804210D01*
X6792260Y-948450D01*
Y-928500D01*
X6802260Y-918500D01*
X6846500D01*
X6856500Y-908500D01*
Y-897220D01*
X6843480Y-884200D01*
X6791010D01*
X6784500Y-877690D01*
Y-860700D01*
X6794500Y-850700D01*
X6884900D01*
X6960430Y-775170D01*
Y-757730D01*
X6943270Y-740570D01*
X6929130D01*
X6893200Y-776500D01*
X6861600D01*
X6830600Y-745500D01*
Y-724800D01*
X6841820Y-713580D01*
X6901920D01*
X6916230Y-699270D01*
Y-685130D01*
X6882950Y-651850D01*
X6857950D01*
X6846100Y-640000D01*
Y-617300D01*
X6864880Y-598520D01*
X6879020D01*
X6974930Y-694420D01*
X6989070D01*
X7003220Y-680270D01*
Y-666130D01*
X6907310Y-570230D01*
Y-556090D01*
X6921460Y-541940D01*
X6935600D01*
X7031510Y-637840D01*
X7045650D01*
X7059800Y-623690D01*
Y-609550D01*
X7022560Y-572320D01*
Y-558180D01*
X7073590Y-507140D01*
Y-493000D01*
X7059440Y-478850D01*
X7045300D01*
X6994270Y-529890D01*
X6980130D01*
X6963890Y-513650D01*
Y-499510D01*
X7011700Y-451700D01*
Y-418300D01*
X7050000Y-380000D01*
G01X6490000D02*
X6518390Y-408390D01*
Y-442610D01*
X6492500Y-468500D01*
G01X6570000Y-380000D02*
X6542400Y-407600D01*
Y-444200D01*
X6562500Y-464300D01*
Y-468500D01*
G01X6913400Y-2798900D02*
X6961600Y-2750700D01*
Y-2430400D01*
X7012000Y-2380000D01*
G01X6816000Y-2589700D02*
Y-2256000D01*
X6852000Y-2220000D01*
G01X7012000D02*
Y-2272700D01*
X6998000Y-2286700D01*
X6912600D01*
X6855900Y-2343400D01*
Y-2500300D01*
X6912600Y-2557000D01*
Y-2589700D01*
G01X7933400Y-284500D02*
Y-318010D01*
X7999800Y-384410D01*
Y-1577200D01*
X7736600Y-1840400D01*
X7237100D01*
X7217000Y-1860500D01*
X6811500D01*
X6772000Y-1900000D01*
G01X6932000Y-1580000D02*
Y-1639880D01*
X6977420Y-1685300D01*
Y-1685310D01*
X6998910Y-1706800D01*
X7112610D01*
X7149910Y-1669500D01*
X7211510D01*
X7245410Y-1703400D01*
X7542500D01*
X7613870Y-1632030D01*
Y-1617890D01*
X7593460Y-1597480D01*
Y-1583340D01*
X7607610Y-1569190D01*
X7621750D01*
X7676710Y-1624150D01*
X7690850D01*
X7705000Y-1610000D01*
Y-1595860D01*
X7650040Y-1540900D01*
Y-1526760D01*
X7664190Y-1512610D01*
X7678330D01*
X7698740Y-1533020D01*
X7712880D01*
X7752300Y-1493600D01*
Y-1428290D01*
X7762300Y-1418290D01*
X7806800D01*
X7816800Y-1408290D01*
Y-1388290D01*
X7806800Y-1378290D01*
X7762300D01*
X7752300Y-1368290D01*
Y-1348290D01*
X7762300Y-1338290D01*
X7806800D01*
X7816800Y-1328290D01*
Y-1308290D01*
X7806800Y-1298290D01*
X7762300D01*
X7752300Y-1288290D01*
Y-1268290D01*
X7762300Y-1258290D01*
X7806800D01*
X7816800Y-1248290D01*
Y-1228290D01*
X7806800Y-1218290D01*
X7762300D01*
X7752300Y-1208290D01*
Y-1188290D01*
X7762300Y-1178290D01*
X7806800D01*
X7816800Y-1168290D01*
Y-1148290D01*
X7806800Y-1138290D01*
X7762300D01*
X7752300Y-1128290D01*
Y-1108290D01*
X7762300Y-1098290D01*
X7806800D01*
X7816800Y-1088290D01*
Y-1068290D01*
X7806800Y-1058290D01*
X7773100D01*
X7763100Y-1048290D01*
Y-1028290D01*
X7773100Y-1018290D01*
X7806800D01*
X7816800Y-1008290D01*
Y-988290D01*
X7806800Y-978290D01*
X7776000D01*
X7766000Y-968290D01*
Y-948290D01*
X7776000Y-938290D01*
X7794300D01*
X7804300Y-928290D01*
Y-908290D01*
X7794300Y-898290D01*
X7762300D01*
X7752300Y-888290D01*
Y-854900D01*
X7720650Y-823250D01*
Y-745550D01*
X7696500Y-721400D01*
X7663700D01*
X7630000Y-687700D01*
Y-655000D01*
G01X7012000Y-2140000D02*
X7050900Y-2178900D01*
Y-2299510D01*
X7103300Y-2351910D01*
Y-2408800D01*
X7008700Y-2503400D01*
Y-2589700D01*
G01X7092000Y-2220000D02*
X7163800D01*
X7209500Y-2265700D01*
Y-2428100D01*
X7103900Y-2533700D01*
Y-2589700D01*
G01X7092000Y-2140000D02*
X7183200D01*
X7307200Y-2264000D01*
Y-2428500D01*
X7196900Y-2538800D01*
Y-2589700D01*
G01X7575900Y-2520100D02*
Y-2397100D01*
X7238800Y-2060000D01*
X7092000D01*
G01X7671500Y-2521200D02*
Y-2422100D01*
X7268500Y-2019100D01*
X7051100D01*
X7012000Y-1980000D01*
G01X7386300Y-2520500D02*
Y-2284800D01*
X7202700Y-2101200D01*
X7053200D01*
X7012000Y-2060000D01*
G01Y-1820000D02*
X7077700Y-1754300D01*
X7663910D01*
X7900700Y-1517510D01*
Y-886110D01*
X7818800Y-804210D01*
Y-753700D01*
X7752300Y-687200D01*
Y-518990D01*
X7675800Y-442490D01*
Y-334100D01*
X7626200Y-284500D01*
G01X7766600Y-2520300D02*
Y-2449100D01*
X7297500Y-1980000D01*
X7092000D01*
G01X7730100Y-284500D02*
X7788600Y-343000D01*
X7855300D01*
X7881600Y-369300D01*
Y-588100D01*
X7830000Y-639700D01*
Y-699300D01*
X7952300Y-821600D01*
Y-1545200D01*
X7698400Y-1799100D01*
X7246800D01*
X7230800Y-1783100D01*
X7128900D01*
X7092000Y-1820000D01*
G01X8249800Y-2588700D02*
Y-2540100D01*
X8178400Y-2468700D01*
X7940900D01*
X7372200Y-1900000D01*
X7092000D01*
G01X7863200Y-2520500D02*
Y-2487800D01*
X7315500Y-1940100D01*
X7052100D01*
X7012000Y-1900000D01*
G01X7139700Y-1500000D02*
X7226200D01*
X7304000Y-1422200D01*
Y-1357220D01*
X7294000Y-1347220D01*
X7189700D01*
X7179700Y-1337220D01*
Y-1317220D01*
X7189700Y-1307220D01*
X7294000D01*
X7304000Y-1297220D01*
Y-1277220D01*
X7294000Y-1267220D01*
X7189700D01*
X7179700Y-1257220D01*
Y-1237220D01*
X7189700Y-1227220D01*
X7294000D01*
X7304000Y-1217220D01*
Y-1197220D01*
X7294000Y-1187220D01*
X7189700D01*
X7179700Y-1177220D01*
Y-1157220D01*
X7189700Y-1147220D01*
X7294000D01*
X7304000Y-1137220D01*
Y-1117220D01*
X7294000Y-1107220D01*
X7189700D01*
X7179700Y-1097220D01*
Y-1077220D01*
X7189700Y-1067220D01*
X7294000D01*
X7304000Y-1057220D01*
Y-1037220D01*
X7294000Y-1027220D01*
X7189700D01*
X7179700Y-1017220D01*
Y-997220D01*
X7189700Y-987220D01*
X7294000D01*
X7304000Y-977220D01*
Y-957220D01*
X7294000Y-947220D01*
X7189700D01*
X7179700Y-937220D01*
Y-917220D01*
X7189700Y-907220D01*
X7294000D01*
X7304000Y-897220D01*
Y-877220D01*
X7294000Y-867220D01*
X7189700D01*
X7179700Y-857220D01*
Y-837220D01*
X7189700Y-827220D01*
X7294000D01*
X7304000Y-817220D01*
Y-764800D01*
X7336400Y-732400D01*
X7435300D01*
X7480000Y-687700D01*
Y-655000D01*
G01X7012000Y-1580000D02*
Y-1641200D01*
X7028800Y-1658000D01*
X7109010D01*
X7147310Y-1619700D01*
X7455800D01*
X7580000Y-1495500D01*
Y-1447980D01*
X7590000Y-1437980D01*
X7663900D01*
X7673900Y-1427980D01*
Y-1407980D01*
X7663900Y-1397980D01*
X7590000D01*
X7580000Y-1387980D01*
Y-1367980D01*
X7590000Y-1357980D01*
X7663900D01*
X7673900Y-1347980D01*
Y-1327980D01*
X7663900Y-1317980D01*
X7590000D01*
X7580000Y-1307980D01*
Y-1287980D01*
X7590000Y-1277980D01*
X7663900D01*
X7673900Y-1267980D01*
Y-1247980D01*
X7663900Y-1237980D01*
X7590000D01*
X7580000Y-1227980D01*
Y-1207980D01*
X7590000Y-1197980D01*
X7663900D01*
X7673900Y-1187980D01*
Y-1167980D01*
X7663900Y-1157980D01*
X7590000D01*
X7580000Y-1147980D01*
Y-1127980D01*
X7590000Y-1117980D01*
X7663900D01*
X7673900Y-1107980D01*
Y-1087980D01*
X7663900Y-1077980D01*
X7590000D01*
X7580000Y-1067980D01*
Y-1047980D01*
X7590000Y-1037980D01*
X7663900D01*
X7673900Y-1027980D01*
Y-1007980D01*
X7663900Y-997980D01*
X7590000D01*
X7580000Y-987980D01*
Y-967980D01*
X7590000Y-957980D01*
X7663900D01*
X7673900Y-947980D01*
Y-927980D01*
X7663900Y-917980D01*
X7590000D01*
X7580000Y-907980D01*
Y-887980D01*
X7590000Y-877980D01*
X7663900D01*
X7673900Y-867980D01*
Y-847980D01*
X7663900Y-837980D01*
X7590000D01*
X7580000Y-827980D01*
Y-746910D01*
X7601700Y-725210D01*
Y-698550D01*
X7580000Y-676850D01*
Y-655000D01*
G01X7092000Y-1580000D02*
X7115130Y-1556870D01*
X7300530D01*
X7367900Y-1489500D01*
Y-1459890D01*
X7377900Y-1449890D01*
X7463600D01*
X7473600Y-1439890D01*
Y-1419890D01*
X7463600Y-1409890D01*
X7377900D01*
X7367900Y-1399890D01*
Y-1379890D01*
X7377900Y-1369890D01*
X7463600D01*
X7473600Y-1359890D01*
Y-1339890D01*
X7463600Y-1329890D01*
X7377900D01*
X7367900Y-1319890D01*
Y-1299890D01*
X7377900Y-1289890D01*
X7463600D01*
X7473600Y-1279890D01*
Y-1259890D01*
X7463600Y-1249890D01*
X7377900D01*
X7367900Y-1239890D01*
Y-1219890D01*
X7377900Y-1209890D01*
X7463600D01*
X7473600Y-1199890D01*
Y-1179890D01*
X7463600Y-1169890D01*
X7377900D01*
X7367900Y-1159890D01*
Y-1139890D01*
X7377900Y-1129890D01*
X7463600D01*
X7473600Y-1119890D01*
Y-1099890D01*
X7463600Y-1089890D01*
X7377900D01*
X7367900Y-1079890D01*
Y-1059890D01*
X7377900Y-1049890D01*
X7463600D01*
X7473600Y-1039890D01*
Y-1019890D01*
X7463600Y-1009890D01*
X7377900D01*
X7367900Y-999890D01*
Y-979890D01*
X7377900Y-969890D01*
X7463600D01*
X7473600Y-959890D01*
Y-939890D01*
X7463600Y-929890D01*
X7377900D01*
X7367900Y-919890D01*
Y-899890D01*
X7377900Y-889890D01*
X7463600D01*
X7473600Y-879890D01*
Y-859890D01*
X7463600Y-849890D01*
X7377900D01*
X7367900Y-839890D01*
Y-804800D01*
X7394700Y-778000D01*
X7465800D01*
X7512100Y-731700D01*
Y-700950D01*
X7530000Y-683050D01*
Y-655000D01*
G01X7580000Y-2605000D02*
X7632000Y-2657000D01*
Y-2723600D01*
X7603000Y-2752600D01*
Y-2799200D01*
G01X7680000Y-2605000D02*
Y-2637700D01*
X7703000Y-2660700D01*
Y-2798500D01*
G01X8015100Y-3212300D02*
Y-3283400D01*
G01X8141300Y-3212300D02*
Y-3249900D01*
X8142100Y-3250700D01*
Y-3283400D01*
G54D15*
G01X5491000Y-5906100D02*
X5524400Y-5872700D01*
X5749700D01*
X5929500Y-5692900D01*
Y-5394500D01*
X6183700Y-5140300D01*
X6440100D01*
G01X6072300Y-5907700D02*
Y-5806400D01*
X6164800Y-5713900D01*
Y-5393700D01*
X6222100Y-5336400D01*
X6329990D01*
X6382600Y-5283790D01*
Y-5210100D01*
X6402400Y-5190300D01*
X6440100D01*
G01X6653100Y-5907700D02*
X6683300Y-5877500D01*
Y-5436500D01*
X6487100Y-5240300D01*
X6440100D01*
G54D16*
G01X5526600Y-3084400D02*
X5129600D01*
X5089900Y-3124100D01*
Y-3190800D01*
G01X4997200Y-1821600D02*
X4919500D01*
X4898800Y-1842300D01*
X4852500D01*
G01X4852600Y-1721800D02*
X4964300D01*
X4964500Y-1721600D01*
X4997200D01*
G01Y-1621600D02*
X4913200D01*
X4891500Y-1599900D01*
X4853800D01*
G01X4852800Y-1422500D02*
X4963600D01*
X4964500Y-1421600D01*
X4997200D01*
G01Y-1321600D02*
X4914700D01*
X4890500Y-1297400D01*
X4852800D01*
G01X5610600Y-2959400D02*
X5639380Y-2988180D01*
Y-3029920D01*
X5584900Y-3084400D01*
X5526600D01*
G54D17*
G01X7080000Y-4800000D02*
X7150700Y-4870700D01*
Y-5128200D01*
X7440200Y-5417700D01*
Y-5517800D01*
X7375000Y-5583000D01*
G01X7220000Y-4800000D02*
X7290800Y-4870800D01*
Y-5100600D01*
X7520500Y-5330300D01*
Y-5387800D01*
X7675000Y-5542300D01*
Y-5583000D01*
G01X7870000Y-4800000D02*
Y-4956600D01*
X8017800Y-5104400D01*
Y-5540200D01*
X7975000Y-5583000D01*
G01X8010000Y-4800000D02*
Y-4850900D01*
X8275000Y-5115900D01*
Y-5583000D01*
M02*
