G04 ================== begin FILE IDENTIFICATION RECORD ==================*
G04 Layout Name:  G:/github/PLL_FM_HW/PCB/FMDEMOD-57.brd*
G04 Film Name:    SILKSCREEN_BOTTOM*
G04 File Format:  Gerber RS274X*
G04 File Origin:  Cadence Allegro 17.4-S017*
G04 Origin Date:  Thu Oct 21 08:45:56 2021*
G04 *
G04 Layer:  PACKAGE GEOMETRY/SILKSCREEN_BOTTOM*
G04 Layer:  BOARD GEOMETRY/SILKSCREEN_BOTTOM*
G04 *
G04 Offset:    (0.0000 0.0000)*
G04 Mirror:    No*
G04 Mode:      Positive*
G04 Rotation:  0*
G04 FullContactRelief:  No*
G04 UndefLineWidth:     0.2540*
G04 ================== end FILE IDENTIFICATION RECORD ====================*
%FSLAX25Y25*MOMM*%
%IR0*IPPOS*OFA0.00000B0.00000*MIA0B0*SFA1.00000B1.00000*%
%ADD10C,.1*%
%ADD11C,.02*%
%ADD12C,.05*%
G75*
%LPD*%
G75*
G36*
G01X992750Y-4861400D02*
G03I-15850J0D01*
G37*
G36*
G01X2792350Y-4579500D02*
G03I-15850J0D01*
G37*
G36*
G01X3354520Y-7157330D02*
G03I-20020J0D01*
G37*
G36*
G01X5060840Y-6869600D02*
G03I-19240J0D01*
G37*
G36*
G01X5603150Y-1306900D02*
G03I-15850J0D01*
G37*
G36*
G01X5496850Y-360800D02*
G03I-15850J0D01*
G37*
G36*
G01X5777660Y-7290200D02*
G03I-20660J0D01*
G37*
G36*
G01X6387660D02*
G03I-20660J0D01*
G37*
G36*
G01X6777660D02*
G03I-20660J0D01*
G37*
G36*
G01X7171360Y-1986000D02*
G03I-92360J0D01*
G37*
G36*
G01X7387660Y-7290200D02*
G03I-20660J0D01*
G37*
G54D10*
G01X100400Y-4100000D02*
X4200000D01*
Y-7900000D01*
X100000D01*
Y-4100000D01*
X100400D01*
G01X166600Y-6967500D02*
Y-7141500D01*
X244600D01*
Y-6953500D01*
X166600D01*
Y-6967500D01*
G01X101560Y-100000D02*
X4199470D01*
Y-3900000D01*
X100000D01*
Y-100000D01*
X101560D01*
G01X169600Y-3333000D02*
X322600D01*
Y-3222000D01*
X120600D01*
Y-3333000D01*
X169600D01*
G01Y-3076400D02*
X322600D01*
Y-2965400D01*
X120600D01*
Y-3076400D01*
X169600D01*
G01Y-3204200D02*
X322600D01*
Y-3093200D01*
X120600D01*
Y-3204200D01*
X169600D01*
G01X100200Y-2000300D02*
X2149500D01*
G01X152300Y-2136400D02*
X206300D01*
G01X152300Y-2102400D02*
X206300D01*
G01X124300Y-2067400D02*
Y-2220400D01*
X235300D01*
Y-2018400D01*
X124300D01*
Y-2067400D01*
G01X208300Y-1865600D02*
X154300D01*
G01X208300Y-1899600D02*
X154300D01*
G01X236300Y-1934600D02*
Y-1781600D01*
X125300D01*
Y-1983600D01*
X236300D01*
Y-1934600D01*
G01X292300Y-6967500D02*
Y-7141500D01*
X370300D01*
Y-6953500D01*
X292300D01*
Y-6967500D01*
G01X259600Y-3281000D02*
X238600D01*
G01X204600Y-3280000D02*
X183600D01*
G01X238600Y-3305000D02*
Y-3251000D01*
G01X204600Y-3305000D02*
Y-3251000D01*
G01X259600Y-3024400D02*
X238600D01*
G01X204600Y-3023400D02*
X183600D01*
G01X238600Y-3048400D02*
Y-2994400D01*
G01X204600Y-3048400D02*
Y-2994400D01*
G01X259600Y-3152200D02*
X238600D01*
G01X204600Y-3151200D02*
X183600D01*
G01X238600Y-3176200D02*
Y-3122200D01*
G01X204600Y-3176200D02*
Y-3122200D01*
G01X435200Y-2157400D02*
Y-2136400D01*
G01X436200Y-2102400D02*
Y-2081400D01*
G01X411200Y-2136400D02*
X465200D01*
G01X411200Y-2102400D02*
X465200D01*
G01X383200Y-2067400D02*
Y-2220400D01*
X494200D01*
Y-2018400D01*
X383200D01*
Y-2067400D01*
G01X176300Y-2157400D02*
Y-2136400D01*
G01X177300Y-2102400D02*
Y-2081400D01*
G01X305400Y-2157400D02*
Y-2136400D01*
G01X306400Y-2102400D02*
Y-2081400D01*
G01X281400Y-2136400D02*
X335400D01*
G01X281400Y-2102400D02*
X335400D01*
G01X253400Y-2067400D02*
Y-2220400D01*
X364400D01*
Y-2018400D01*
X253400D01*
Y-2067400D01*
G01X184300Y-1844600D02*
Y-1865600D01*
G01X183300Y-1899600D02*
Y-1920600D01*
G01X313400Y-1844600D02*
Y-1865600D01*
G01X312400Y-1899600D02*
Y-1920600D01*
G01X337400Y-1865600D02*
X283400D01*
G01X337400Y-1899600D02*
X283400D01*
G01X365400Y-1934600D02*
Y-1781600D01*
X254400D01*
Y-1983600D01*
X365400D01*
Y-1934600D01*
G01X443200Y-1844600D02*
Y-1865600D01*
G01X442200Y-1899600D02*
Y-1920600D01*
G01X467200Y-1865600D02*
X413200D01*
G01X467200Y-1899600D02*
X413200D01*
G01X495200Y-1934600D02*
Y-1781600D01*
X384200D01*
Y-1983600D01*
X495200D01*
Y-1934600D01*
G01X752400Y-7128500D02*
Y-6954500D01*
X674400D01*
Y-7142500D01*
X752400D01*
Y-7128500D01*
G01X624900D02*
Y-6954500D01*
X546900D01*
Y-7142500D01*
X624900D01*
Y-7128500D01*
G01X703700Y-5138400D02*
Y-4964400D01*
X625700D01*
Y-5152400D01*
X703700D01*
Y-5138400D01*
G01X803300D02*
Y-4964400D01*
X725300D01*
Y-5152400D01*
X803300D01*
Y-5138400D01*
G01X989900Y-4833800D02*
Y-4607600D01*
X758400D01*
Y-4874600D01*
X989900D01*
Y-4822290D01*
G01X806300Y-4542300D02*
X959300D01*
Y-4431300D01*
X757300D01*
Y-4542300D01*
X806300D01*
G01Y-4408400D02*
X959300D01*
Y-4297400D01*
X757300D01*
Y-4408400D01*
X806300D01*
G01X765300Y-3794540D02*
Y-4262500D01*
X952300D01*
Y-3738500D01*
X765300D01*
Y-3836950D01*
G01X751200Y-3569600D02*
Y-3548600D01*
G01X727200D02*
X781200D01*
G01X699200Y-3479600D02*
Y-3632600D01*
X810200D01*
Y-3430600D01*
X699200D01*
Y-3479600D01*
G01X752200Y-3514600D02*
Y-3493600D01*
G01X727200Y-3514600D02*
X781200D01*
G01X782800Y-2157400D02*
Y-2136400D01*
G01X783800Y-2102400D02*
Y-2081400D01*
G01X758800Y-2136400D02*
X812800D01*
G01X758800Y-2102400D02*
X812800D01*
G01X730800Y-2067400D02*
Y-2220400D01*
X841800D01*
Y-2018400D01*
X730800D01*
Y-2067400D01*
G01X814800Y-1865600D02*
X760800D01*
G01X814800Y-1899600D02*
X760800D01*
G01X842800Y-1934600D02*
Y-1781600D01*
X731800D01*
Y-1983600D01*
X842800D01*
Y-1934600D01*
G01X729000Y-426400D02*
Y-447400D01*
G01X728000Y-481400D02*
Y-502400D01*
G01X753000Y-447400D02*
X699000D01*
G01X753000Y-481400D02*
X699000D01*
G01X781000Y-516400D02*
Y-363400D01*
X670000D01*
Y-565400D01*
X781000D01*
Y-516400D01*
G01X1153100Y-7735300D02*
X1000100D01*
Y-7846300D01*
X1202100D01*
Y-7735300D01*
X1153100D01*
G01X1063100Y-7559100D02*
X1084100D01*
G01Y-7535100D02*
Y-7589100D01*
G01X1153100Y-7507100D02*
X1000100D01*
Y-7618100D01*
X1202100D01*
Y-7507100D01*
X1153100D01*
G01X1063100Y-7787300D02*
X1084100D01*
G01Y-7763300D02*
Y-7817300D01*
G01X1181100Y-7637500D02*
X1007100D01*
Y-7715500D01*
X1195100D01*
Y-7637500D01*
X1181100D01*
G01X1086900Y-7010500D02*
Y-7031500D01*
G01X1085900Y-7065500D02*
Y-7086500D01*
G01X1056900Y-7031500D02*
X1110900D01*
Y-7065500D01*
X1056900D01*
Y-7031500D01*
G01X1138900Y-7100500D02*
Y-6947500D01*
X1027900D01*
Y-7149500D01*
X1138900D01*
Y-7100500D01*
G01X1005400Y-7128500D02*
Y-6954500D01*
X927400D01*
Y-7142500D01*
X1005400D01*
Y-7128500D01*
G01X824900Y-4977400D02*
Y-5151400D01*
X902900D01*
Y-4963400D01*
X824900D01*
Y-4977400D01*
G01X986400Y-5093600D02*
X1007400D01*
G01X1041400Y-5094600D02*
X1062400D01*
G01X1007400Y-5069600D02*
Y-5123600D01*
G01X1041400Y-5069600D02*
Y-5123600D01*
G01X1076400Y-5041600D02*
X923400D01*
Y-5152600D01*
X1125400D01*
Y-5041600D01*
X1076400D01*
G01X1119400Y-4820000D02*
Y-4646000D01*
X1041400D01*
Y-4834000D01*
X1119400D01*
Y-4820000D01*
G01X986400Y-4964000D02*
X1007400D01*
G01X1041400Y-4965000D02*
X1062400D01*
G01X1007400Y-4940000D02*
Y-4994000D01*
G01X1041400Y-4940000D02*
Y-4994000D01*
G01X1076400Y-4912000D02*
X923400D01*
Y-5023000D01*
X1125400D01*
Y-4912000D01*
X1076400D01*
G01X896300Y-4490300D02*
X875300D01*
G01X841300Y-4489300D02*
X820300D01*
G01X875300Y-4514300D02*
Y-4460300D01*
G01X841300Y-4514300D02*
Y-4460300D01*
G01X896300Y-4356400D02*
X875300D01*
G01X841300Y-4355400D02*
X820300D01*
G01X875300Y-4380400D02*
Y-4326400D01*
G01X841300Y-4380400D02*
Y-4326400D01*
G01X1011900Y-3569600D02*
Y-3548600D01*
G01X987900D02*
X1041900D01*
G01X959900Y-3479600D02*
Y-3632600D01*
X1070900D01*
Y-3430600D01*
X959900D01*
Y-3479600D01*
G01X880500Y-3569600D02*
Y-3548600D01*
G01X856500D02*
X910500D01*
G01X828500Y-3479600D02*
Y-3632600D01*
X939500D01*
Y-3430600D01*
X828500D01*
Y-3479600D01*
G01X1012900Y-3514600D02*
Y-3493600D01*
G01X987900Y-3514600D02*
X1041900D01*
G01X881500D02*
Y-3493600D01*
G01X856500Y-3514600D02*
X910500D01*
G01X1041800Y-2157400D02*
Y-2136400D01*
G01X1042800Y-2102400D02*
Y-2081400D01*
G01X1017800Y-2136400D02*
X1071800D01*
G01X1017800Y-2102400D02*
X1071800D01*
G01X989800Y-2067400D02*
Y-2220400D01*
X1100800D01*
Y-2018400D01*
X989800D01*
Y-2067400D01*
G01X912100Y-2157400D02*
Y-2136400D01*
G01X913100Y-2102400D02*
Y-2081400D01*
G01X888100Y-2136400D02*
X942100D01*
G01X888100Y-2102400D02*
X942100D01*
G01X860100Y-2067400D02*
Y-2220400D01*
X971100D01*
Y-2018400D01*
X860100D01*
Y-2067400D01*
G01X920100Y-1844600D02*
Y-1865600D01*
G01X919100Y-1899600D02*
Y-1920600D01*
G01X944100Y-1865600D02*
X890100D01*
G01X944100Y-1899600D02*
X890100D01*
G01X972100Y-1934600D02*
Y-1781600D01*
X861100D01*
Y-1983600D01*
X972100D01*
Y-1934600D01*
G01X790800Y-1844600D02*
Y-1865600D01*
G01X789800Y-1899600D02*
Y-1920600D01*
G01X1049800Y-1844600D02*
Y-1865600D01*
G01X1048800Y-1899600D02*
Y-1920600D01*
G01X1073800Y-1865600D02*
X1019800D01*
G01X1073800Y-1899600D02*
X1019800D01*
G01X1101800Y-1934600D02*
Y-1781600D01*
X990800D01*
Y-1983600D01*
X1101800D01*
Y-1934600D01*
G01X964600Y-828700D02*
X985600D01*
G01X1019600Y-829700D02*
X1040600D01*
G01X985600Y-804700D02*
Y-858700D01*
G01X1019600Y-804700D02*
Y-858700D01*
G01X1054600Y-776700D02*
X901600D01*
Y-887700D01*
X1103600D01*
Y-776700D01*
X1054600D01*
G01Y-646800D02*
X901600D01*
Y-757800D01*
X1103600D01*
Y-646800D01*
X1054600D01*
G01X964600Y-959700D02*
X985600D01*
G01X1019600Y-960700D02*
X1040600D01*
G01X985600Y-935700D02*
Y-989700D01*
G01X1019600Y-935700D02*
Y-989700D01*
G01X1054600Y-907700D02*
X901600D01*
Y-1018700D01*
X1103600D01*
Y-907700D01*
X1054600D01*
G01X964600Y-698800D02*
X985600D01*
G01X1019600Y-699800D02*
X1040600D01*
G01X985600Y-674800D02*
Y-728800D01*
G01X1019600Y-674800D02*
Y-728800D01*
G01X862400Y-426400D02*
Y-447400D01*
G01X861400Y-481400D02*
Y-502400D01*
G01X886400Y-447400D02*
X832400D01*
G01X886400Y-481400D02*
X832400D01*
G01X914400Y-516400D02*
Y-363400D01*
X803400D01*
Y-565400D01*
X914400D01*
Y-516400D01*
G01X994300Y-426400D02*
Y-447400D01*
G01X993300Y-481400D02*
Y-502400D01*
G01X1018300Y-447400D02*
X964300D01*
G01X1018300Y-481400D02*
X964300D01*
G01X1046300Y-516400D02*
Y-363400D01*
X935300D01*
Y-565400D01*
X1046300D01*
Y-516400D01*
G01X1118100Y-7560100D02*
X1139100D01*
G01X1118100Y-7535100D02*
Y-7589100D01*
G01Y-7788300D02*
X1139100D01*
G01X1118100Y-7763300D02*
Y-7817300D01*
G01X1249500Y-6477400D02*
X1423500D01*
Y-6399400D01*
X1235500D01*
Y-6477400D01*
X1249500D01*
G01X1351800Y-6177800D02*
X1525800D01*
Y-6099800D01*
X1337800D01*
Y-6177800D01*
X1351800D01*
G01X1512800Y-6199900D02*
X1338800D01*
Y-6277900D01*
X1526800D01*
Y-6199900D01*
X1512800D01*
G01X1352600Y-5777900D02*
X1526600D01*
Y-5699900D01*
X1338600D01*
Y-5777900D01*
X1352600D01*
G01Y-5577800D02*
X1526600D01*
Y-5499800D01*
X1338600D01*
Y-5577800D01*
X1352600D01*
G01Y-5477600D02*
X1526600D01*
Y-5399600D01*
X1338600D01*
Y-5477600D01*
X1352600D01*
G01Y-5677700D02*
X1526600D01*
Y-5599700D01*
X1338600D01*
Y-5677700D01*
X1352600D01*
G01X1352100Y-5378100D02*
X1526100D01*
Y-5300100D01*
X1338100D01*
Y-5378100D01*
X1352100D01*
G01Y-5277600D02*
X1526100D01*
Y-5199600D01*
X1338100D01*
Y-5277600D01*
X1352100D01*
G01X1512100Y-4999600D02*
X1338100D01*
Y-5077600D01*
X1526100D01*
Y-4999600D01*
X1512100D01*
G01X1351100Y-5177300D02*
X1525100D01*
Y-5099300D01*
X1337100D01*
Y-5177300D01*
X1351100D01*
G01X1352200Y-4777500D02*
X1526200D01*
Y-4699500D01*
X1338200D01*
Y-4777500D01*
X1352200D01*
G01X1435900Y-4491200D02*
X1588900D01*
Y-4380200D01*
X1386900D01*
Y-4491200D01*
X1435900D01*
G01X1356100Y-4145300D02*
Y-4319300D01*
X1434100D01*
Y-4131300D01*
X1356100D01*
Y-4145300D01*
G01X1124900Y-3900100D02*
X1124850Y-3900050D01*
Y-100250D01*
X1124700Y-100100D01*
G01X1294600Y-3290900D02*
X1273600D01*
G01X1239600Y-3289900D02*
X1218600D01*
G01X1273600Y-3314900D02*
Y-3260900D01*
G01X1239600Y-3314900D02*
Y-3260900D01*
G01X1204600Y-3342900D02*
X1357600D01*
Y-3231900D01*
X1155600D01*
Y-3342900D01*
X1204600D01*
G01X1294600Y-3151900D02*
X1273600D01*
G01X1239600Y-3150900D02*
X1218600D01*
G01X1273600Y-3175900D02*
Y-3121900D01*
G01X1239600Y-3175900D02*
Y-3121900D01*
G01X1204600Y-3203900D02*
X1357600D01*
Y-3092900D01*
X1155600D01*
Y-3203900D01*
X1204600D01*
G01X1294600Y-3015000D02*
X1273600D01*
G01X1239600Y-3014000D02*
X1218600D01*
G01X1273600Y-3039000D02*
Y-2985000D01*
G01X1239600Y-3039000D02*
Y-2985000D01*
G01X1204600Y-3067000D02*
X1357600D01*
Y-2956000D01*
X1155600D01*
Y-3067000D01*
X1204600D01*
G01X1400800Y-2066700D02*
Y-2219700D01*
X1511800D01*
Y-2017700D01*
X1400800D01*
Y-2066700D01*
G01X1195200Y-2156700D02*
Y-2135700D01*
G01X1196200Y-2101700D02*
Y-2080700D01*
G01X1171200Y-2135700D02*
X1225200D01*
G01X1171200Y-2101700D02*
X1225200D01*
G01X1143200Y-2066700D02*
Y-2219700D01*
X1254200D01*
Y-2017700D01*
X1143200D01*
Y-2066700D01*
G01X1324800Y-2156700D02*
Y-2135700D01*
G01X1325800Y-2101700D02*
Y-2080700D01*
G01X1300800Y-2135700D02*
X1354800D01*
G01X1300800Y-2101700D02*
X1354800D01*
G01X1272800Y-2066700D02*
Y-2219700D01*
X1383800D01*
Y-2017700D01*
X1272800D01*
Y-2066700D01*
G01X1203200Y-1844600D02*
Y-1865600D01*
G01X1202200Y-1899600D02*
Y-1920600D01*
G01X1227200Y-1865600D02*
X1173200D01*
G01X1227200Y-1899600D02*
X1173200D01*
G01X1255200Y-1934600D02*
Y-1781600D01*
X1144200D01*
Y-1983600D01*
X1255200D01*
Y-1934600D01*
G01X1332800Y-1844600D02*
Y-1865600D01*
G01X1331800Y-1899600D02*
Y-1920600D01*
G01X1356800Y-1865600D02*
X1302800D01*
G01X1356800Y-1899600D02*
X1302800D01*
G01X1384800Y-1934600D02*
Y-1781600D01*
X1273800D01*
Y-1983600D01*
X1384800D01*
Y-1934600D01*
G01X1400800Y-1829600D02*
Y-1982600D01*
X1511800D01*
Y-1780600D01*
X1400800D01*
Y-1829600D01*
G01X1667900Y-7531700D02*
X1841900D01*
Y-7453700D01*
X1653900D01*
Y-7531700D01*
X1667900D01*
G01X1695900Y-7054200D02*
X1869900D01*
Y-6976200D01*
X1681900D01*
Y-7054200D01*
X1695900D01*
G01X1621200Y-6368100D02*
Y-6194100D01*
X1543200D01*
Y-6382100D01*
X1621200D01*
Y-6368100D01*
G01X1721100D02*
Y-6194100D01*
X1643100D01*
Y-6382100D01*
X1721100D01*
Y-6368100D01*
G01X1552100Y-6077400D02*
X1726100D01*
Y-5999400D01*
X1538100D01*
Y-6077400D01*
X1552100D01*
G01X1787700Y-5901000D02*
Y-5746000D01*
X1677700D01*
Y-5936000D01*
X1787700D01*
Y-5901000D01*
G01X1452400Y-5877500D02*
X1626400D01*
Y-5799500D01*
X1438400D01*
Y-5877500D01*
X1452400D01*
G01Y-5973100D02*
X1626400D01*
Y-5895100D01*
X1438400D01*
Y-5973100D01*
X1452400D01*
G01X1621000Y-5216900D02*
X1776000D01*
Y-5106900D01*
X1586000D01*
Y-5216900D01*
X1621000D01*
G01X1721100Y-5068900D02*
Y-4894900D01*
X1643100D01*
Y-5082900D01*
X1721100D01*
Y-5068900D01*
G01X1609900Y-4333800D02*
Y-4488800D01*
X1719900D01*
Y-4298800D01*
X1609900D01*
Y-4333800D01*
G01X1504900Y-4463200D02*
Y-4409200D01*
G01X1470900Y-4463200D02*
Y-4409200D01*
G01X1657800Y-4678000D02*
X1831800D01*
Y-4600000D01*
X1643800D01*
Y-4678000D01*
X1657800D01*
G01X1612010Y-4600000D02*
X1438000D01*
X1437990Y-4678000D01*
X1626000D01*
X1625990Y-4600000D01*
X1612010D01*
G01X1525900Y-4439200D02*
X1504900D01*
G01X1470900Y-4438200D02*
X1449900D01*
G01X1451200Y-4145300D02*
Y-4319300D01*
X1529200D01*
Y-4131300D01*
X1451200D01*
Y-4145300D01*
G01X1571200Y-3794540D02*
Y-4262500D01*
X1758200D01*
Y-3738500D01*
X1571200D01*
Y-3836950D01*
G01X1685500Y-3479900D02*
Y-3632900D01*
X1796500D01*
Y-3430900D01*
X1685500D01*
Y-3479900D01*
G01X1452800Y-2156700D02*
Y-2135700D01*
G01X1453800Y-2101700D02*
Y-2080700D01*
G01X1428800Y-2135700D02*
X1482800D01*
G01X1428800Y-2101700D02*
X1482800D01*
G01X1452800Y-1919600D02*
Y-1898600D01*
G01X1453800Y-1864600D02*
Y-1843600D01*
G01X1428800Y-1898600D02*
X1482800D01*
G01X1428800Y-1864600D02*
X1482800D01*
G01X1804500Y-516400D02*
Y-363400D01*
X1693500D01*
Y-565400D01*
X1804500D01*
Y-516400D01*
G01X1976100Y-7864200D02*
Y-7690200D01*
X1898100D01*
Y-7878200D01*
X1976100D01*
Y-7864200D01*
G01X1742800Y-6207100D02*
Y-6381100D01*
X1820800D01*
Y-6193100D01*
X1742800D01*
Y-6207100D01*
G01X1943200D02*
Y-6381100D01*
X2021200D01*
Y-6193100D01*
X1943200D01*
Y-6207100D01*
G01X1921100Y-6168410D02*
Y-5994400D01*
X1843100Y-5994390D01*
Y-6182400D01*
X1921100Y-6182390D01*
Y-6168410D01*
G01X1852300Y-5778300D02*
X2026300D01*
Y-5700300D01*
X1838300D01*
Y-5778300D01*
X1852300D01*
G01X1852000Y-5977800D02*
X2026000D01*
Y-5899800D01*
X1838000D01*
Y-5977800D01*
X1852000D01*
G01X1852300Y-5677500D02*
X2026300D01*
Y-5599500D01*
X1838300D01*
Y-5677500D01*
X1852300D01*
G01Y-5577900D02*
X2026300D01*
Y-5499900D01*
X1838300D01*
Y-5577900D01*
X1852300D01*
G01Y-5477900D02*
X2026300D01*
Y-5399900D01*
X1838300D01*
Y-5477900D01*
X1852300D01*
G01Y-5377800D02*
X2026300D01*
Y-5299800D01*
X1838300D01*
Y-5377800D01*
X1852300D01*
G01Y-5277800D02*
X2026300D01*
Y-5199800D01*
X1838300D01*
Y-5277800D01*
X1852300D01*
G01Y-5177700D02*
X2026300D01*
Y-5099700D01*
X1838300D01*
Y-5177700D01*
X1852300D01*
G01Y-5078300D02*
X2026300D01*
Y-5000300D01*
X1838300D01*
Y-5078300D01*
X1852300D01*
G01X2020900Y-4869600D02*
Y-4695600D01*
X1942900D01*
Y-4883600D01*
X2020900D01*
Y-4869600D01*
G01X1952300Y-4977400D02*
X2126300D01*
Y-4899400D01*
X1938300D01*
Y-4977400D01*
X1952300D01*
G01X1743100Y-4808300D02*
Y-4982300D01*
X1821100D01*
Y-4794300D01*
X1743100D01*
Y-4808300D01*
G01X1842400D02*
Y-4982300D01*
X1920400D01*
Y-4794300D01*
X1842400D01*
Y-4808300D01*
G01X1822100Y-4407200D02*
Y-4461200D01*
G01X1856100Y-4407200D02*
Y-4461200D01*
G01X1891100Y-4379200D02*
X1738100D01*
Y-4490200D01*
X1940100D01*
Y-4379200D01*
X1891100D01*
G01X1995300Y-4173300D02*
Y-4326300D01*
X2106300D01*
Y-4124300D01*
X1995300D01*
Y-4173300D01*
G01X1801100Y-4431200D02*
X1822100D01*
G01X1856100Y-4432200D02*
X1877100D01*
G01X1796500Y-4145300D02*
Y-4319300D01*
X1874500D01*
Y-4131300D01*
X1796500D01*
Y-4145300D01*
G01X1894100D02*
Y-4319300D01*
X1972100D01*
Y-4131300D01*
X1894100D01*
Y-4145300D01*
G01X1872700Y-3569900D02*
Y-3548900D01*
G01X1848700D02*
X1902700D01*
G01X1820700Y-3479900D02*
Y-3632900D01*
X1931700D01*
Y-3430900D01*
X1820700D01*
Y-3479900D01*
G01X2008400Y-3569900D02*
Y-3548900D01*
G01X1984400D02*
X2038400D01*
G01X1956400Y-3479900D02*
Y-3632900D01*
X2067400D01*
Y-3430900D01*
X1956400D01*
Y-3479900D01*
G01X1737500Y-3569900D02*
Y-3548900D01*
G01X1713500D02*
X1767500D01*
G01X1873700Y-3514900D02*
Y-3493900D01*
G01X1848700Y-3514900D02*
X1902700D01*
G01X2009400D02*
Y-3493900D01*
G01X1984400Y-3514900D02*
X2038400D01*
G01X1738500D02*
Y-3493900D01*
G01X1713500Y-3514900D02*
X1767500D01*
G01X2011900Y-2067800D02*
Y-2220800D01*
X2122900D01*
Y-2018800D01*
X2011900D01*
Y-2067800D01*
G01X1934500Y-2157800D02*
Y-2136800D01*
G01X1935500Y-2102800D02*
Y-2081800D01*
G01X1910500Y-2136800D02*
X1964500D01*
G01X1910500Y-2102800D02*
X1964500D01*
G01X1882500Y-2067800D02*
Y-2220800D01*
X1993500D01*
Y-2018800D01*
X1882500D01*
Y-2067800D01*
G01X1803800Y-2157800D02*
Y-2136800D01*
G01X1804800Y-2102800D02*
Y-2081800D01*
G01X1779800Y-2136800D02*
X1833800D01*
G01X1779800Y-2102800D02*
X1833800D01*
G01X1751800Y-2067800D02*
Y-2220800D01*
X1862800D01*
Y-2018800D01*
X1751800D01*
Y-2067800D01*
G01X2123900Y-1934600D02*
Y-1781600D01*
X2012900D01*
Y-1983600D01*
X2123900D01*
Y-1934600D01*
G01X1803800Y-1919600D02*
Y-1898600D01*
G01X1804800Y-1864600D02*
Y-1843600D01*
G01X1779800Y-1898600D02*
X1833800D01*
G01X1779800Y-1864600D02*
X1833800D01*
G01X1751800Y-1829600D02*
Y-1982600D01*
X1862800D01*
Y-1780600D01*
X1751800D01*
Y-1829600D01*
G01X1934500Y-1919600D02*
Y-1898600D01*
G01X1935500Y-1864600D02*
Y-1843600D01*
G01X1910500Y-1898600D02*
X1964500D01*
G01X1910500Y-1864600D02*
X1964500D01*
G01X1882500Y-1829600D02*
Y-1982600D01*
X1993500D01*
Y-1780600D01*
X1882500D01*
Y-1829600D01*
G01X1989500Y-828700D02*
X2010500D01*
G01Y-804700D02*
Y-858700D01*
G01X2079500Y-776700D02*
X1926500D01*
Y-887700D01*
X2128500D01*
Y-776700D01*
X2079500D01*
G01X1989500Y-959700D02*
X2010500D01*
G01Y-935700D02*
Y-989700D01*
G01X2079500Y-907700D02*
X1926500D01*
Y-1018700D01*
X2128500D01*
Y-907700D01*
X2079500D01*
G01Y-646800D02*
X1926500D01*
Y-757800D01*
X2128500D01*
Y-646800D01*
X2079500D01*
G01X1989500Y-698800D02*
X2010500D01*
G01Y-674800D02*
Y-728800D01*
G01X1884400Y-426400D02*
Y-447400D01*
G01X1883400Y-481400D02*
Y-502400D01*
G01X1908400Y-447400D02*
X1854400D01*
G01X1908400Y-481400D02*
X1854400D01*
G01X1936400Y-516400D02*
Y-363400D01*
X1825400D01*
Y-565400D01*
X1936400D01*
Y-516400D01*
G01X1752500Y-426400D02*
Y-447400D01*
G01X1751500Y-481400D02*
Y-502400D01*
G01X1776500Y-447400D02*
X1722500D01*
G01X1776500Y-481400D02*
X1722500D01*
G01X2016100Y-426400D02*
Y-447400D01*
G01X2015100Y-481400D02*
Y-502400D01*
G01X2040100Y-447400D02*
X1986100D01*
G01X2040100Y-481400D02*
X1986100D01*
G01X2068100Y-516400D02*
Y-363400D01*
X1957100D01*
Y-565400D01*
X2068100D01*
Y-516400D01*
G01X2163300Y-7864200D02*
Y-7690200D01*
X2085300D01*
Y-7878200D01*
X2163300D01*
Y-7864200D01*
G01X2261000D02*
Y-7690200D01*
X2183000D01*
Y-7878200D01*
X2261000D01*
Y-7864200D01*
G01X2197200Y-6705000D02*
Y-6879000D01*
X2275200D01*
Y-6691000D01*
X2197200D01*
Y-6705000D01*
G01X2090300D02*
Y-6879000D01*
X2168300D01*
Y-6691000D01*
X2090300D01*
Y-6705000D01*
G01X2294700D02*
Y-6879000D01*
X2372700D01*
Y-6691000D01*
X2294700D01*
Y-6705000D01*
G01X2043000Y-6207100D02*
Y-6381100D01*
X2121000D01*
Y-6193100D01*
X2043000D01*
Y-6207100D01*
G01X2221200Y-6168500D02*
Y-5994500D01*
X2143200D01*
Y-6182500D01*
X2221200D01*
Y-6168500D01*
G01X2321100Y-5868400D02*
Y-5694400D01*
X2243100D01*
Y-5882400D01*
X2321100D01*
Y-5868400D01*
G01X2221400D02*
Y-5694400D01*
X2143400D01*
Y-5882400D01*
X2221400D01*
Y-5868400D01*
G01X2121300D02*
Y-5694400D01*
X2043300D01*
Y-5882400D01*
X2121300D01*
Y-5868400D01*
G01X2361400Y-5594600D02*
X2514400D01*
Y-5483600D01*
X2312400D01*
Y-5594600D01*
X2361400D01*
G01X2114600Y-5534600D02*
X2135600D01*
G01X2169600Y-5535600D02*
X2190600D01*
G01X2135600Y-5510600D02*
Y-5564600D01*
G01X2169600Y-5510600D02*
Y-5564600D01*
G01X2204600Y-5482600D02*
X2051600D01*
Y-5593600D01*
X2253600D01*
Y-5482600D01*
X2204600D01*
G01Y-5281300D02*
X2051600D01*
Y-5392300D01*
X2253600D01*
Y-5281300D01*
X2204600D01*
G01X2361400Y-5393300D02*
X2514400D01*
Y-5282300D01*
X2312400D01*
Y-5393300D01*
X2361400D01*
G01X2114600Y-5333300D02*
X2135600D01*
G01X2169600Y-5334300D02*
X2190600D01*
G01X2135600Y-5309300D02*
Y-5363300D01*
G01X2169600Y-5309300D02*
Y-5363300D01*
G01X2043300Y-5008300D02*
Y-5182300D01*
X2121300D01*
Y-4994300D01*
X2043300D01*
Y-5008300D01*
G01X2312410Y-4999900D02*
X2138400D01*
X2138390Y-5077900D01*
X2326400D01*
X2326390Y-4999900D01*
X2312410D01*
G01X2251200Y-4877400D02*
X2425200D01*
Y-4799400D01*
X2237200D01*
Y-4877400D01*
X2251200D01*
G01X2412200Y-4699700D02*
X2238200D01*
Y-4777700D01*
X2426200D01*
Y-4699700D01*
X2412200D01*
G01X2043100Y-4609000D02*
Y-4783000D01*
X2121100D01*
Y-4595000D01*
X2043100D01*
Y-4609000D01*
G01X2412200Y-4900100D02*
X2238200D01*
Y-4978100D01*
X2426200D01*
Y-4900100D01*
X2412200D01*
G01X2043200Y-4408590D02*
Y-4582600D01*
X2121200Y-4582610D01*
Y-4394600D01*
X2043200Y-4394610D01*
Y-4408590D01*
G01X2143100Y-4408600D02*
Y-4582600D01*
X2221100D01*
Y-4394600D01*
X2143100D01*
Y-4408600D01*
G01X2047300Y-4263300D02*
Y-4242300D01*
G01X2048300Y-4208300D02*
Y-4187300D01*
G01X2023300Y-4242300D02*
X2077300D01*
G01X2023300Y-4208300D02*
X2077300D01*
G01X2289200Y-4263300D02*
Y-4242300D01*
G01X2290200Y-4208300D02*
Y-4187300D01*
G01X2265200Y-4242300D02*
X2319200D01*
G01X2265200Y-4208300D02*
X2319200D01*
G01X2237200Y-4173300D02*
Y-4326300D01*
X2348200D01*
Y-4124300D01*
X2237200D01*
Y-4173300D01*
G01X2321200Y-3660100D02*
X2300200D01*
G01X2266200Y-3659100D02*
X2245200D01*
G01X2300200Y-3684100D02*
Y-3630100D01*
G01X2266200Y-3684100D02*
Y-3630100D01*
G01X2231200Y-3712100D02*
X2384200D01*
Y-3601100D01*
X2182200D01*
Y-3712100D01*
X2231200D01*
G01X2321800Y-3276900D02*
X2300800D01*
G01X2266800Y-3275900D02*
X2245800D01*
G01X2300800Y-3300900D02*
Y-3246900D01*
G01X2266800Y-3300900D02*
Y-3246900D01*
G01X2231800Y-3328900D02*
X2384800D01*
Y-3217900D01*
X2182800D01*
Y-3328900D01*
X2231800D01*
G01X2321800Y-3149300D02*
X2300800D01*
G01X2266800Y-3148300D02*
X2245800D01*
G01X2300800Y-3173300D02*
Y-3119300D01*
G01X2266800Y-3173300D02*
Y-3119300D01*
G01X2231800Y-3201300D02*
X2384800D01*
Y-3090300D01*
X2182800D01*
Y-3201300D01*
X2231800D01*
G01X2321800Y-3021300D02*
X2300800D01*
G01X2266800Y-3020300D02*
X2245800D01*
G01X2300800Y-3045300D02*
Y-2991300D01*
G01X2266800Y-3045300D02*
Y-2991300D01*
G01X2231800Y-3073300D02*
X2384800D01*
Y-2962300D01*
X2182800D01*
Y-3073300D01*
X2231800D01*
G01X2149600Y-2011400D02*
X4199500D01*
G01X2063900Y-2157800D02*
Y-2136800D01*
G01X2064900Y-2102800D02*
Y-2081800D01*
G01X2039900Y-2136800D02*
X2093900D01*
G01X2039900Y-2102800D02*
X2093900D01*
G01X2303500Y-2067800D02*
Y-2220800D01*
X2414500D01*
Y-2018800D01*
X2303500D01*
Y-2067800D01*
G01X2226000Y-2157800D02*
Y-2136800D01*
G01X2227000Y-2102800D02*
Y-2081800D01*
G01X2202000Y-2136800D02*
X2256000D01*
G01X2202000Y-2102800D02*
X2256000D01*
G01X2174000Y-2067800D02*
Y-2220800D01*
X2285000D01*
Y-2018800D01*
X2174000D01*
Y-2067800D01*
G01X2071900Y-1844600D02*
Y-1865600D01*
G01X2070900Y-1899600D02*
Y-1920600D01*
G01X2095900Y-1865600D02*
X2041900D01*
G01X2095900Y-1899600D02*
X2041900D01*
G01X2232500Y-1844600D02*
Y-1865600D01*
G01X2231500Y-1899600D02*
Y-1920600D01*
G01X2256500Y-1865600D02*
X2202500D01*
G01X2256500Y-1899600D02*
X2202500D01*
G01X2284500Y-1934600D02*
Y-1781600D01*
X2173500D01*
Y-1983600D01*
X2284500D01*
Y-1934600D01*
G01X2413500D02*
Y-1781600D01*
X2302500D01*
Y-1983600D01*
X2413500D01*
Y-1934600D01*
G01X2044500Y-829700D02*
X2065500D01*
G01X2044500Y-804700D02*
Y-858700D01*
G01Y-960700D02*
X2065500D01*
G01X2044500Y-935700D02*
Y-989700D01*
G01Y-699800D02*
X2065500D01*
G01X2044500Y-674800D02*
Y-728800D01*
G01X2627400Y-7864200D02*
Y-7690200D01*
X2549400D01*
Y-7878200D01*
X2627400D01*
Y-7864200D01*
G01X2543200Y-6207100D02*
Y-6381100D01*
X2621200D01*
Y-6193100D01*
X2543200D01*
Y-6207100D01*
G01X2442600D02*
Y-6381100D01*
X2520600D01*
Y-6193100D01*
X2442600D01*
Y-6207100D01*
G01X2461800Y-6039900D02*
Y-6018900D01*
G01X2437800D02*
X2491800D01*
G01X2409800Y-5949900D02*
Y-6102900D01*
X2520800D01*
Y-5900900D01*
X2409800D01*
Y-5949900D01*
G01X2552400Y-6077700D02*
X2726400D01*
Y-5999700D01*
X2538400D01*
Y-6077700D01*
X2552400D01*
G01X2462800Y-5984900D02*
Y-5963900D01*
G01X2437800Y-5984900D02*
X2491800D01*
G01X2521300Y-5868400D02*
Y-5694400D01*
X2443300D01*
Y-5882400D01*
X2521300D01*
Y-5868400D01*
G01X2420900D02*
Y-5694400D01*
X2342900D01*
Y-5882400D01*
X2420900D01*
Y-5868400D01*
G01X2713400Y-5899400D02*
X2539400D01*
Y-5977400D01*
X2727400D01*
Y-5899400D01*
X2713400D01*
G01X2451400Y-5542600D02*
X2430400D01*
G01X2396400Y-5541600D02*
X2375400D01*
G01X2430400Y-5566600D02*
Y-5512600D01*
G01X2396400Y-5566600D02*
Y-5512600D01*
G01X2712200Y-5599500D02*
X2538200D01*
Y-5677500D01*
X2726200D01*
Y-5599500D01*
X2712200D01*
G01X2712000Y-5499600D02*
X2538000D01*
Y-5577600D01*
X2726000D01*
Y-5499600D01*
X2712000D01*
G01Y-5399600D02*
X2538000D01*
Y-5477600D01*
X2726000D01*
Y-5399600D01*
X2712000D01*
G01X2519300Y-5099600D02*
X2345300D01*
Y-5177600D01*
X2533300D01*
Y-5099600D01*
X2519300D01*
G01X2358300Y-5078100D02*
X2532300D01*
Y-5000100D01*
X2344300D01*
Y-5078100D01*
X2358300D01*
G01X2451400Y-5341300D02*
X2430400D01*
G01X2396400Y-5340300D02*
X2375400D01*
G01X2430400Y-5365300D02*
Y-5311300D01*
G01X2396400Y-5365300D02*
Y-5311300D01*
G01X2680500Y-5026800D02*
Y-4873800D01*
X2569500D01*
Y-5075800D01*
X2680500D01*
Y-5026800D01*
G01X2712000Y-5299600D02*
X2538000D01*
Y-5377600D01*
X2726000D01*
Y-5299600D01*
X2712000D01*
G01Y-5199600D02*
X2538000D01*
Y-5277600D01*
X2726000D01*
Y-5199600D01*
X2712000D01*
G01X2526700Y-4813300D02*
Y-4639300D01*
X2448700D01*
Y-4827300D01*
X2526700D01*
Y-4813300D01*
G01X2624400D02*
Y-4639300D01*
X2546400D01*
Y-4827300D01*
X2624400D01*
Y-4813300D01*
G01X2628500Y-4936800D02*
Y-4957800D01*
G01X2627500Y-4991800D02*
Y-5012800D01*
G01X2652500Y-4957800D02*
X2598500D01*
G01X2652500Y-4991800D02*
X2598500D01*
G01X2789500Y-4551900D02*
Y-4325700D01*
X2558000D01*
Y-4592700D01*
X2789500D01*
Y-4540390D01*
G01X2469600Y-4145300D02*
Y-4319300D01*
X2547600D01*
Y-4131300D01*
X2469600D01*
Y-4145300D01*
G01X2371900D02*
Y-4319300D01*
X2449900D01*
Y-4131300D01*
X2371900D01*
Y-4145300D01*
G01X2580500Y-3794540D02*
Y-4262500D01*
X2767500D01*
Y-3738500D01*
X2580500D01*
Y-3836950D01*
G01X2355500Y-2157800D02*
Y-2136800D01*
G01X2356500Y-2102800D02*
Y-2081800D01*
G01X2331500Y-2136800D02*
X2385500D01*
G01X2331500Y-2102800D02*
X2385500D01*
G01X2484800Y-2157800D02*
Y-2136800D01*
G01X2485800Y-2102800D02*
Y-2081800D01*
G01X2460800Y-2136800D02*
X2514800D01*
G01X2460800Y-2102800D02*
X2514800D01*
G01X2432800Y-2067800D02*
Y-2220800D01*
X2543800D01*
Y-2018800D01*
X2432800D01*
Y-2067800D01*
G01X2361500Y-1844600D02*
Y-1865600D01*
G01X2360500Y-1899600D02*
Y-1920600D01*
G01X2385500Y-1865600D02*
X2331500D01*
G01X2385500Y-1899600D02*
X2331500D01*
G01X2489900Y-1844600D02*
Y-1865600D01*
G01X2488900Y-1899600D02*
Y-1920600D01*
G01X2513900Y-1865600D02*
X2459900D01*
G01X2513900Y-1899600D02*
X2459900D01*
G01X2541900Y-1934600D02*
Y-1781600D01*
X2430900D01*
Y-1983600D01*
X2541900D01*
Y-1934600D01*
G01X2854800Y-7535000D02*
X2680800D01*
Y-7613000D01*
X2868800D01*
Y-7535000D01*
X2854800D01*
G01X2881100Y-7352600D02*
X3055100D01*
Y-7274600D01*
X2867100D01*
Y-7352600D01*
X2881100D01*
G01X2854800Y-7440600D02*
X2680800D01*
Y-7518600D01*
X2868800D01*
Y-7440600D01*
X2854800D01*
G01X3194500Y-6538200D02*
X2814500D01*
Y-7238200D01*
X3334500D01*
Y-6538200D01*
X3194500D01*
G01X2704900Y-6815000D02*
Y-6989000D01*
X2782900D01*
Y-6801000D01*
X2704900D01*
Y-6815000D01*
G01X2782500Y-7184300D02*
Y-7010300D01*
X2704500D01*
Y-7198300D01*
X2782500D01*
Y-7184300D01*
G01X2782900Y-6712900D02*
Y-6538900D01*
X2704900D01*
Y-6726900D01*
X2782900D01*
Y-6712900D01*
G01X2742900Y-6207100D02*
Y-6381100D01*
X2820900D01*
Y-6193100D01*
X2742900D01*
Y-6207100D01*
G01X2851690Y-6177400D02*
X3025700D01*
X3025710Y-6099400D01*
X2837700D01*
X2837710Y-6177400D01*
X2851690D01*
G01X2965000Y-5829700D02*
Y-5674700D01*
X2855000D01*
Y-5864700D01*
X2965000D01*
Y-5829700D01*
G01X3012700Y-5899400D02*
X2838700D01*
Y-5977400D01*
X3026700D01*
Y-5899400D01*
X3012700D01*
G01X2811600Y-5699700D02*
X2637600D01*
Y-5777700D01*
X2825600D01*
Y-5699700D01*
X2811600D01*
G01X2926700Y-5389400D02*
Y-5215400D01*
X2848700D01*
Y-5403400D01*
X2926700D01*
Y-5389400D01*
G01X2832200Y-5040100D02*
Y-5195100D01*
X2942200D01*
Y-5005100D01*
X2832200D01*
Y-5040100D01*
G01X2644400Y-4652300D02*
Y-4826300D01*
X2722400D01*
Y-4638300D01*
X2644400D01*
Y-4652300D01*
G01X3111800Y-4899600D02*
X2937800D01*
Y-4977600D01*
X3125800D01*
Y-4899600D01*
X3111800D01*
G01X2742600Y-4806500D02*
Y-4980500D01*
X2820600D01*
Y-4792500D01*
X2742600D01*
Y-4806500D01*
G01X2843000Y-4608700D02*
Y-4782700D01*
X2921000D01*
Y-4594700D01*
X2843000D01*
Y-4608700D01*
G01X2921000Y-4551700D02*
Y-4377700D01*
X2843000D01*
Y-4565700D01*
X2921000D01*
Y-4551700D01*
G01X2798900Y-4145300D02*
Y-4319300D01*
X2876900D01*
Y-4131300D01*
X2798900D01*
Y-4145300D01*
G01X2896600D02*
Y-4319300D01*
X2974600D01*
Y-4131300D01*
X2896600D01*
Y-4145300D01*
G01X2905300Y-3569900D02*
Y-3548900D01*
G01X2881300D02*
X2935300D01*
G01X2853300Y-3479900D02*
Y-3632900D01*
X2964300D01*
Y-3430900D01*
X2853300D01*
Y-3479900D01*
G01X2776100Y-3569900D02*
Y-3548900D01*
G01X2752100D02*
X2806100D01*
G01X2724100Y-3479900D02*
Y-3632900D01*
X2835100D01*
Y-3430900D01*
X2724100D01*
Y-3479900D01*
G01X2906300Y-3514900D02*
Y-3493900D01*
G01X2881300Y-3514900D02*
X2935300D01*
G01X2777100D02*
Y-3493900D01*
G01X2752100Y-3514900D02*
X2806100D01*
G01X2834000Y-2157800D02*
Y-2136800D01*
G01X2835000Y-2102800D02*
Y-2081800D01*
G01X2810000Y-2136800D02*
X2864000D01*
G01X2810000Y-2102800D02*
X2864000D01*
G01X2782000Y-2067800D02*
Y-2220800D01*
X2893000D01*
Y-2018800D01*
X2782000D01*
Y-2067800D01*
G01X2938200Y-2136800D02*
X2992200D01*
G01X2938200Y-2102800D02*
X2992200D01*
G01X2910200Y-2067800D02*
Y-2220800D01*
X3021200D01*
Y-2018800D01*
X2910200D01*
Y-2067800D01*
G01X2992400Y-1865600D02*
X2938400D01*
G01X2992400Y-1899600D02*
X2938400D01*
G01X3020400Y-1934600D02*
Y-1781600D01*
X2909400D01*
Y-1983600D01*
X3020400D01*
Y-1934600D01*
G01X2839600Y-1844600D02*
Y-1865600D01*
G01X2838600Y-1899600D02*
Y-1920600D01*
G01X2863600Y-1865600D02*
X2809600D01*
G01X2863600Y-1899600D02*
X2809600D01*
G01X2891600Y-1934600D02*
Y-1781600D01*
X2780600D01*
Y-1983600D01*
X2891600D01*
Y-1934600D01*
G01X2756300Y-426400D02*
Y-447400D01*
G01X2755300Y-481400D02*
Y-502400D01*
G01X2780300Y-447400D02*
X2726300D01*
G01X2780300Y-481400D02*
X2726300D01*
G01X2808300Y-516400D02*
Y-363400D01*
X2697300D01*
Y-565400D01*
X2808300D01*
Y-516400D01*
G01X2889600Y-426400D02*
Y-447400D01*
G01X2888600Y-481400D02*
Y-502400D01*
G01X2913600Y-447400D02*
X2859600D01*
G01X2913600Y-481400D02*
X2859600D01*
G01X2941600Y-516400D02*
Y-363400D01*
X2830600D01*
Y-565400D01*
X2941600D01*
Y-516400D01*
G01X3320900Y-7274600D02*
X3146900D01*
Y-7352600D01*
X3334900D01*
Y-7274600D01*
X3320900D01*
G01X3152000Y-6377600D02*
X3326000D01*
Y-6299600D01*
X3138000D01*
Y-6377600D01*
X3152000D01*
G01Y-6177600D02*
X3326000D01*
Y-6099600D01*
X3138000D01*
Y-6177600D01*
X3152000D01*
G01Y-6277800D02*
X3326000D01*
Y-6199800D01*
X3138000D01*
Y-6277800D01*
X3152000D01*
G01X3243300Y-5808800D02*
Y-5982800D01*
X3321300D01*
Y-5794800D01*
X3243300D01*
Y-5808800D01*
G01X3212200Y-5299800D02*
X3038200D01*
Y-5377800D01*
X3226200D01*
Y-5299800D01*
X3212200D01*
G01Y-5399700D02*
X3038200D01*
Y-5477700D01*
X3226200D01*
Y-5399700D01*
X3212200D01*
G01Y-5599700D02*
X3038200D01*
Y-5677700D01*
X3226200D01*
Y-5599700D01*
X3212200D01*
G01Y-5000000D02*
X3038200D01*
Y-5078000D01*
X3226200D01*
Y-5000000D01*
X3212200D01*
G01X3312300Y-5199900D02*
X3138300D01*
Y-5277900D01*
X3326300D01*
Y-5199900D01*
X3312300D01*
G01X3212000Y-4799600D02*
X3038000D01*
Y-4877600D01*
X3226000D01*
Y-4799600D01*
X3212000D01*
G01X2947100Y-4600200D02*
Y-4755200D01*
X3057100D01*
Y-4565200D01*
X2947100D01*
Y-4600200D01*
G01X3233800Y-4463200D02*
Y-4409200D01*
G01X3198800Y-4491200D02*
X3351800D01*
Y-4380200D01*
X3149800D01*
Y-4491200D01*
X3198800D01*
G01X3149800Y-4701500D02*
X3170800D01*
G01X3204800Y-4702500D02*
X3225800D01*
G01X3170800Y-4677500D02*
Y-4731500D01*
G01X3204800Y-4677500D02*
Y-4731500D01*
G01X3239800Y-4649500D02*
X3086800D01*
Y-4760500D01*
X3288800D01*
Y-4649500D01*
X3239800D01*
G01X3149800Y-4565600D02*
X3170800D01*
G01X3204800Y-4566600D02*
X3225800D01*
G01X3170800Y-4541600D02*
Y-4595600D01*
G01X3204800Y-4541600D02*
Y-4595600D01*
G01X3239800Y-4513600D02*
X3086800D01*
Y-4624600D01*
X3288800D01*
Y-4513600D01*
X3239800D01*
G01X3233800Y-4438200D02*
X3212800D01*
G01X3049400Y-4263300D02*
Y-4242300D01*
G01X3050400Y-4208300D02*
Y-4187300D01*
G01X3025400Y-4242300D02*
X3079400D01*
G01X3025400Y-4208300D02*
X3079400D01*
G01X2997400Y-4173300D02*
Y-4326300D01*
X3108400D01*
Y-4124300D01*
X2997400D01*
Y-4173300D01*
G01X3235600Y-4145300D02*
Y-4319300D01*
X3313600D01*
Y-4131300D01*
X3235600D01*
Y-4145300D01*
G01X3139500D02*
Y-4319300D01*
X3217500D01*
Y-4131300D01*
X3139500D01*
Y-4145300D01*
G01X3174550Y-2011400D02*
Y-3899750D01*
X3174700Y-3899900D01*
G01X3230400Y-3547300D02*
X3284400D01*
G01X3202400Y-3478300D02*
Y-3631300D01*
X3313400D01*
Y-3429300D01*
X3202400D01*
Y-3478300D01*
G01X3034300Y-3569900D02*
Y-3548900D01*
G01X3010300D02*
X3064300D01*
G01X2982300Y-3479900D02*
Y-3632900D01*
X3093300D01*
Y-3430900D01*
X2982300D01*
Y-3479900D01*
G01X3230400Y-3513300D02*
X3284400D01*
G01X3035300Y-3514900D02*
Y-3493900D01*
G01X3010300Y-3514900D02*
X3064300D01*
G01X3250900Y-3333200D02*
X3403900D01*
Y-3222200D01*
X3201900D01*
Y-3333200D01*
X3250900D01*
G01Y-3202900D02*
X3403900D01*
Y-3091900D01*
X3201900D01*
Y-3202900D01*
X3250900D01*
G01Y-3075500D02*
X3403900D01*
Y-2964500D01*
X3201900D01*
Y-3075500D01*
X3250900D01*
G01X3174500Y-2022600D02*
Y-100000D01*
G01X2962200Y-2157800D02*
Y-2136800D01*
G01X2963200Y-2102800D02*
Y-2081800D01*
G01X3091000Y-2157800D02*
Y-2136800D01*
G01X3092000Y-2102800D02*
Y-2081800D01*
G01X3067000Y-2136800D02*
X3121000D01*
G01X3067000Y-2102800D02*
X3121000D01*
G01X3039000Y-2067800D02*
Y-2220800D01*
X3150000D01*
Y-2018800D01*
X3039000D01*
Y-2067800D01*
G01X3248900Y-2157800D02*
Y-2136800D01*
G01X3249900Y-2102800D02*
Y-2081800D01*
G01X3224900Y-2136800D02*
X3278900D01*
G01X3224900Y-2102800D02*
X3278900D01*
G01X3196900Y-2067800D02*
Y-2220800D01*
X3307900D01*
Y-2018800D01*
X3196900D01*
Y-2067800D01*
G01X2968400Y-1844600D02*
Y-1865600D01*
G01X2967400Y-1899600D02*
Y-1920600D01*
G01X3097600Y-1844600D02*
Y-1865600D01*
G01X3096600Y-1899600D02*
Y-1920600D01*
G01X3121600Y-1865600D02*
X3067600D01*
G01X3121600Y-1899600D02*
X3067600D01*
G01X3149600Y-1934600D02*
Y-1781600D01*
X3038600D01*
Y-1983600D01*
X3149600D01*
Y-1934600D01*
G01X3279500Y-1865100D02*
X3225500D01*
G01X3279500Y-1899100D02*
X3225500D01*
G01X3307500Y-1934100D02*
Y-1781100D01*
X3196500D01*
Y-1983100D01*
X3307500D01*
Y-1934100D01*
G01X3018500Y-959700D02*
X3039500D01*
G01X3073500Y-960700D02*
X3094500D01*
G01X3039500Y-935700D02*
Y-989700D01*
G01X3073500Y-935700D02*
Y-989700D01*
G01X3108500Y-907700D02*
X2955500D01*
Y-1018700D01*
X3157500D01*
Y-907700D01*
X3108500D01*
G01Y-646800D02*
X2955500D01*
Y-757800D01*
X3157500D01*
Y-646800D01*
X3108500D01*
G01X3018500Y-828700D02*
X3039500D01*
G01X3073500Y-829700D02*
X3094500D01*
G01X3039500Y-804700D02*
Y-858700D01*
G01X3073500Y-804700D02*
Y-858700D01*
G01X3108500Y-776700D02*
X2955500D01*
Y-887700D01*
X3157500D01*
Y-776700D01*
X3108500D01*
G01X3023300Y-426400D02*
Y-447400D01*
G01X3022300Y-481400D02*
Y-502400D01*
G01X3047300Y-447400D02*
X2993300D01*
G01X3047300Y-481400D02*
X2993300D01*
G01X3075300Y-516400D02*
Y-363400D01*
X2964300D01*
Y-565400D01*
X3075300D01*
Y-516400D01*
G01X3018500Y-698800D02*
X3039500D01*
G01X3073500Y-699800D02*
X3094500D01*
G01X3039500Y-674800D02*
Y-728800D01*
G01X3073500Y-674800D02*
Y-728800D01*
G01X3345800Y-516400D02*
Y-363400D01*
X3234800D01*
Y-565400D01*
X3345800D01*
Y-516400D01*
G01X3447100Y-6206500D02*
Y-7240600D01*
X4182500D01*
Y-5873900D01*
X3447100D01*
Y-6241280D01*
G01X3670100Y-5717100D02*
X3496100D01*
Y-5795100D01*
X3684100D01*
Y-5717100D01*
X3670100D01*
G01X3509100Y-5659900D02*
X3683100D01*
Y-5581900D01*
X3495100D01*
Y-5659900D01*
X3509100D01*
G01Y-5220400D02*
X3683100D01*
Y-5142400D01*
X3495100D01*
Y-5220400D01*
X3509100D01*
G01X3485500Y-5028300D02*
X3659500D01*
Y-4950300D01*
X3471500D01*
Y-5028300D01*
X3485500D01*
G01X3492800Y-4454800D02*
Y-4299800D01*
X3382800D01*
Y-4489800D01*
X3492800D01*
Y-4454800D01*
G01X3550000Y-4563100D02*
Y-4716100D01*
X3661000D01*
Y-4514100D01*
X3550000D01*
Y-4563100D01*
G01X3267800Y-4463200D02*
Y-4409200D01*
G01X3676100Y-4379200D02*
X3523100D01*
Y-4490200D01*
X3725100D01*
Y-4379200D01*
X3676100D01*
G01X3441300Y-4578100D02*
Y-4599100D01*
G01X3440300Y-4633100D02*
Y-4654100D01*
G01X3465300Y-4599100D02*
X3411300D01*
G01X3465300Y-4633100D02*
X3411300D01*
G01X3493300Y-4668100D02*
Y-4515100D01*
X3382300D01*
Y-4717100D01*
X3493300D01*
Y-4668100D01*
G01X3288800Y-4439200D02*
X3267800D01*
G01X3343800Y-3794540D02*
Y-4262500D01*
X3530800D01*
Y-3738500D01*
X3343800D01*
Y-3836950D01*
G01X3384900Y-3568300D02*
Y-3547300D01*
G01X3360900D02*
X3414900D01*
G01X3332900Y-3478300D02*
Y-3631300D01*
X3443900D01*
Y-3429300D01*
X3332900D01*
Y-3478300D01*
G01X3254400Y-3568300D02*
Y-3547300D01*
G01X3514900Y-3568300D02*
Y-3547300D01*
G01X3490900D02*
X3544900D01*
G01X3462900Y-3478300D02*
Y-3631300D01*
X3573900D01*
Y-3429300D01*
X3462900D01*
Y-3478300D01*
G01X3385900Y-3513300D02*
Y-3492300D01*
G01X3360900Y-3513300D02*
X3414900D01*
G01X3255400D02*
Y-3492300D01*
G01X3515900Y-3513300D02*
Y-3492300D01*
G01X3490900Y-3513300D02*
X3544900D01*
G01X3340900Y-3281200D02*
X3319900D01*
G01X3285900Y-3280200D02*
X3264900D01*
G01X3319900Y-3305200D02*
Y-3251200D01*
G01X3285900Y-3305200D02*
Y-3251200D01*
G01X3340900Y-3150900D02*
X3319900D01*
G01X3285900Y-3149900D02*
X3264900D01*
G01X3319900Y-3174900D02*
Y-3120900D01*
G01X3285900Y-3174900D02*
Y-3120900D01*
G01X3340900Y-3023500D02*
X3319900D01*
G01X3285900Y-3022500D02*
X3264900D01*
G01X3319900Y-3047500D02*
Y-2993500D01*
G01X3285900Y-3047500D02*
Y-2993500D01*
G01X3377000Y-2157800D02*
Y-2136800D01*
G01X3378000Y-2102800D02*
Y-2081800D01*
G01X3353000Y-2136800D02*
X3407000D01*
G01X3353000Y-2102800D02*
X3407000D01*
G01X3325000Y-2067800D02*
Y-2220800D01*
X3436000D01*
Y-2018800D01*
X3325000D01*
Y-2067800D01*
G01X3506500Y-2157800D02*
Y-2136800D01*
G01X3507500Y-2102800D02*
Y-2081800D01*
G01X3482500Y-2136800D02*
X3536500D01*
G01X3482500Y-2102800D02*
X3536500D01*
G01X3454500Y-2067800D02*
Y-2220800D01*
X3565500D01*
Y-2018800D01*
X3454500D01*
Y-2067800D01*
G01X3384600Y-1844100D02*
Y-1865100D01*
G01X3383600Y-1899100D02*
Y-1920100D01*
G01X3408600Y-1865100D02*
X3354600D01*
G01X3408600Y-1899100D02*
X3354600D01*
G01X3436600Y-1934100D02*
Y-1781100D01*
X3325600D01*
Y-1983100D01*
X3436600D01*
Y-1934100D01*
G01X3513600Y-1844100D02*
Y-1865100D01*
G01X3512600Y-1899100D02*
Y-1920100D01*
G01X3537600Y-1865100D02*
X3483600D01*
G01X3537600Y-1899100D02*
X3483600D01*
G01X3565600Y-1934100D02*
Y-1781100D01*
X3454600D01*
Y-1983100D01*
X3565600D01*
Y-1934100D01*
G01X3255500Y-1844100D02*
Y-1865100D01*
G01X3254500Y-1899100D02*
Y-1920100D01*
G01X3427500Y-426400D02*
Y-447400D01*
G01X3426500Y-481400D02*
Y-502400D01*
G01X3451500Y-447400D02*
X3397500D01*
G01X3451500Y-481400D02*
X3397500D01*
G01X3479500Y-516400D02*
Y-363400D01*
X3368500D01*
Y-565400D01*
X3479500D01*
Y-516400D01*
G01X3561300Y-426400D02*
Y-447400D01*
G01X3560300Y-481400D02*
Y-502400D01*
G01X3585300Y-447400D02*
X3531300D01*
G01X3585300Y-481400D02*
X3531300D01*
G01X3613300Y-516400D02*
Y-363400D01*
X3502300D01*
Y-565400D01*
X3613300D01*
Y-516400D01*
G01X3293800Y-426400D02*
Y-447400D01*
G01X3292800Y-481400D02*
Y-502400D01*
G01X3317800Y-447400D02*
X3263800D01*
G01X3317800Y-481400D02*
X3263800D01*
G01X3771600Y-5752100D02*
X3792600D01*
G01X3826600Y-5753100D02*
X3847600D01*
G01X3792600Y-5728100D02*
Y-5782100D01*
G01X3826600Y-5728100D02*
Y-5782100D01*
G01X3861600Y-5700100D02*
X3708600D01*
Y-5811100D01*
X3910600D01*
Y-5700100D01*
X3861600D01*
G01X3846600Y-5624900D02*
X3825600D01*
G01X3791600Y-5623900D02*
X3770600D01*
G01X3825600Y-5648900D02*
Y-5594900D01*
G01X3791600Y-5648900D02*
Y-5594900D01*
G01X3756600Y-5676900D02*
X3909600D01*
Y-5565900D01*
X3707600D01*
Y-5676900D01*
X3756600D01*
G01X3889610Y-5142400D02*
X3715600D01*
X3715590Y-5220400D01*
X3903600D01*
X3903590Y-5142400D01*
X3889610D01*
G01X3862000Y-4749600D02*
X3688000D01*
Y-4827600D01*
X3876000D01*
Y-4749600D01*
X3862000D01*
G01X3602000Y-4653100D02*
Y-4632100D01*
G01X3603000Y-4598100D02*
Y-4577100D01*
G01X3578000Y-4632100D02*
X3632000D01*
G01X3578000Y-4598100D02*
X3632000D01*
G01X3607100Y-4407200D02*
Y-4461200D01*
G01X3641100Y-4407200D02*
Y-4461200D01*
G01X3586100Y-4431200D02*
X3607100D01*
G01X3641100Y-4432200D02*
X3662100D01*
G01X3619200Y-4263300D02*
Y-4242300D01*
G01X3620200Y-4208300D02*
Y-4187300D01*
G01X3595200Y-4242300D02*
X3649200D01*
G01X3595200Y-4208300D02*
X3649200D01*
G01X3567200Y-4173300D02*
Y-4326300D01*
X3678200D01*
Y-4124300D01*
X3567200D01*
Y-4173300D01*
G01X3811300Y-2157000D02*
Y-2136000D01*
G01X3812300Y-2102000D02*
Y-2081000D01*
G01X3787300Y-2136000D02*
X3841300D01*
G01X3787300Y-2102000D02*
X3841300D01*
G01X3759300Y-2067000D02*
Y-2220000D01*
X3870300D01*
Y-2018000D01*
X3759300D01*
Y-2067000D01*
G01X3758500Y-1844700D02*
Y-1865700D01*
G01X3757500Y-1899700D02*
Y-1920700D01*
G01X3782500Y-1865700D02*
X3728500D01*
G01X3782500Y-1899700D02*
X3728500D01*
G01X3810500Y-1934700D02*
Y-1781700D01*
X3699500D01*
Y-1983700D01*
X3810500D01*
Y-1934700D01*
G01X3913200Y-1866100D02*
X3859200D01*
G01X3913200Y-1900100D02*
X3859200D01*
G01X3941200Y-1935100D02*
Y-1782100D01*
X3830200D01*
Y-1984100D01*
X3941200D01*
Y-1935100D01*
G01X4505960Y-7272200D02*
X4038000D01*
Y-7459200D01*
X4562000D01*
Y-7272200D01*
X4463550D01*
G01X4506960Y-5654000D02*
X4039000D01*
Y-5841000D01*
X4563000D01*
Y-5654000D01*
X4464550D01*
G01X4505960Y-5242300D02*
X4038000D01*
Y-5429300D01*
X4562000D01*
Y-5242300D01*
X4463550D01*
G01X4505360Y-5447500D02*
X4037400D01*
Y-5634500D01*
X4561400D01*
Y-5447500D01*
X4462950D01*
G01X4506860Y-5036300D02*
X4038900D01*
Y-5223300D01*
X4562900D01*
Y-5036300D01*
X4464450D01*
G01X4505360Y-4827300D02*
X4037400D01*
Y-5014300D01*
X4561400D01*
Y-4827300D01*
X4462950D01*
G01X4505460Y-4616500D02*
X4037500D01*
Y-4803500D01*
X4561500D01*
Y-4616500D01*
X4463050D01*
G01X3944700Y-2157000D02*
Y-2136000D01*
G01X3945700Y-2102000D02*
Y-2081000D01*
G01X3920700Y-2136000D02*
X3974700D01*
G01X3920700Y-2102000D02*
X3974700D01*
G01X3892700Y-2067000D02*
Y-2220000D01*
X4003700D01*
Y-2018000D01*
X3892700D01*
Y-2067000D01*
G01X4077900Y-2157000D02*
Y-2136000D01*
G01X4078900Y-2102000D02*
Y-2081000D01*
G01X4053900Y-2136000D02*
X4107900D01*
G01X4053900Y-2102000D02*
X4107900D01*
G01X4025900Y-2067000D02*
Y-2220000D01*
X4136900D01*
Y-2018000D01*
X4025900D01*
Y-2067000D01*
G01X3889200Y-1845100D02*
Y-1866100D01*
G01X3888200Y-1900100D02*
Y-1921100D01*
G01X4093640Y-1744000D02*
X4561600D01*
Y-1557000D01*
X4037600D01*
Y-1744000D01*
X4136050D01*
G01X4507560Y-1797200D02*
X4039600D01*
Y-1984200D01*
X4563600D01*
Y-1797200D01*
X4465150D01*
G01X4400000Y-4100000D02*
X8500000D01*
Y-7900000D01*
X4400000D01*
Y-4100000D01*
G01X4483800Y-6989000D02*
Y-7163000D01*
X4561800D01*
Y-6975000D01*
X4483800D01*
Y-6989000D01*
G01X4532500Y-6092300D02*
Y-5918300D01*
X4454500D01*
Y-6106300D01*
X4532500D01*
Y-6092300D01*
G01X4402430Y-100000D02*
X8498870D01*
Y-3900000D01*
X4400000D01*
Y-100000D01*
X4402430D01*
G01X4485800Y-3154900D02*
Y-3328900D01*
X4563800D01*
Y-3140900D01*
X4485800D01*
Y-3154900D01*
G01Y-2945200D02*
Y-3119200D01*
X4563800D01*
Y-2931200D01*
X4485800D01*
Y-2945200D01*
G01X4514500Y-2701300D02*
X4667500D01*
Y-2590300D01*
X4465500D01*
Y-2701300D01*
X4514500D01*
G01X4485800Y-2735200D02*
Y-2909200D01*
X4563800D01*
Y-2721200D01*
X4485800D01*
Y-2735200D01*
G01X4619500Y-2331400D02*
X4466500D01*
Y-2442400D01*
X4668500D01*
Y-2331400D01*
X4619500D01*
G01Y-2202800D02*
X4466500D01*
Y-2313800D01*
X4668500D01*
Y-2202800D01*
X4619500D01*
G01X4514500Y-2571800D02*
X4667500D01*
Y-2460800D01*
X4465500D01*
Y-2571800D01*
X4514500D01*
G01X4773400Y-7085900D02*
Y-7259900D01*
X4851400D01*
Y-7071900D01*
X4773400D01*
Y-7085900D01*
G01X4787300Y-7430900D02*
X4961300D01*
Y-7352900D01*
X4773300D01*
Y-7430900D01*
X4787300D01*
G01X4677300Y-7085900D02*
Y-7259900D01*
X4755300D01*
Y-7071900D01*
X4677300D01*
Y-7085900D01*
G01X4581500Y-6989000D02*
Y-7163000D01*
X4659500D01*
Y-6975000D01*
X4581500D01*
Y-6989000D01*
G01X4937400Y-6975600D02*
X4763400D01*
Y-7053600D01*
X4951400D01*
Y-6975600D01*
X4937400D01*
G01X5036200Y-6183300D02*
X4518000D01*
Y-6883600D01*
X5056100D01*
Y-6183300D01*
X5017820D01*
G01X4630100Y-6092300D02*
Y-5918300D01*
X4552100D01*
Y-6106300D01*
X4630100D01*
Y-6092300D01*
G01X4825900D02*
Y-5918300D01*
X4747900D01*
Y-6106300D01*
X4825900D01*
Y-6092300D01*
G01X4728800D02*
Y-5918300D01*
X4650800D01*
Y-6106300D01*
X4728800D01*
Y-6092300D01*
G01X4764700Y-5351400D02*
X4590700D01*
Y-5429400D01*
X4778700D01*
Y-5351400D01*
X4764700D01*
G01X4580400Y-3154900D02*
Y-3328900D01*
X4658400D01*
Y-3140900D01*
X4580400D01*
Y-3154900D01*
G01X4982200Y-3057700D02*
X4759200D01*
Y-3212700D01*
X5011200D01*
Y-3057700D01*
X4982200D01*
G01X4580400Y-2945200D02*
Y-3119200D01*
X4658400D01*
Y-2931200D01*
X4580400D01*
Y-2945200D01*
G01Y-2735200D02*
Y-2909200D01*
X4658400D01*
Y-2721200D01*
X4580400D01*
Y-2735200D01*
G01X4604500Y-2649300D02*
X4583500D01*
G01X4549500Y-2648300D02*
X4528500D01*
G01X4583500Y-2673300D02*
Y-2619300D01*
G01X4549500Y-2673300D02*
Y-2619300D01*
G01X4529500Y-2383400D02*
X4550500D01*
G01X4584500Y-2384400D02*
X4605500D01*
G01X4550500Y-2359400D02*
Y-2413400D01*
G01X4584500Y-2359400D02*
Y-2413400D01*
G01X4604500Y-2519800D02*
X4583500D01*
G01X4549500Y-2518800D02*
X4528500D01*
G01X4583500Y-2543800D02*
Y-2489800D01*
G01X4549500Y-2543800D02*
Y-2489800D01*
G01X4529500Y-2254800D02*
X4550500D01*
G01X4584500Y-2255800D02*
X4605500D01*
G01X4550500Y-2230800D02*
Y-2284800D01*
G01X4584500Y-2230800D02*
Y-2284800D01*
G01X4872500Y-1790300D02*
X4739500D01*
Y-1894300D01*
X4885500D01*
Y-1790300D01*
X4850280D01*
G01X4872600Y-1669800D02*
X4739600D01*
Y-1773800D01*
X4885600D01*
Y-1669800D01*
X4850380D01*
G01X4873800Y-1547900D02*
X4740800D01*
Y-1651900D01*
X4886800D01*
Y-1547900D01*
X4851580D01*
G01X4752800Y-1474500D02*
X4885800D01*
Y-1370500D01*
X4739800D01*
Y-1474500D01*
X4775020D01*
G01X4866800Y-980200D02*
X4733800D01*
Y-1084200D01*
X4879800D01*
Y-980200D01*
X4844580D01*
G01X4752800Y-1349400D02*
X4885800D01*
Y-1245400D01*
X4739800D01*
Y-1349400D01*
X4775020D01*
G01X4866800Y-858900D02*
X4733800D01*
Y-962900D01*
X4879800D01*
Y-858900D01*
X4844580D01*
G01X4947500Y-7452400D02*
X4814500D01*
Y-7556400D01*
X4960500D01*
Y-7452400D01*
X4925280D01*
G01X5121900D02*
X4988900D01*
Y-7556400D01*
X5134900D01*
Y-7452400D01*
X5099680D01*
G01X5057900Y-7734300D02*
Y-7715300D01*
G01Y-7688300D02*
Y-7669300D01*
G01X5030900Y-7715300D02*
X5089900D01*
G01X5029900Y-7688300D02*
X5088900D01*
G01X4980900Y-7606300D02*
Y-7829300D01*
X5135900D01*
Y-7577300D01*
X4980900D01*
Y-7606300D01*
G01X4888800Y-7734300D02*
Y-7715300D01*
G01Y-7688300D02*
Y-7669300D01*
G01X4861800Y-7715310D02*
X4920800D01*
G01X4860800Y-7688300D02*
X4919800D01*
G01X4811800Y-7606310D02*
Y-7829300D01*
X4966800D01*
Y-7577300D01*
X4811800D01*
Y-7606310D01*
G01X4872600Y-7085900D02*
Y-7259900D01*
X4950600D01*
Y-7071900D01*
X4872600D01*
Y-7085900D01*
G01X5002000Y-7430900D02*
X5176000D01*
Y-7352900D01*
X4988000D01*
Y-7430900D01*
X5002000D01*
G01X4970300Y-6989000D02*
Y-7163000D01*
X5048300D01*
Y-6975000D01*
X4970300D01*
Y-6989000D01*
G01X5181200Y-6816200D02*
Y-6642200D01*
X5103200D01*
Y-6830200D01*
X5181200D01*
Y-6816200D01*
G01X5115400Y-6402600D02*
X5289400D01*
Y-6324600D01*
X5101400D01*
Y-6402600D01*
X5115400D01*
G01X5014600Y-6093500D02*
Y-5919500D01*
X4936600D01*
Y-6107500D01*
X5014600D01*
Y-6093500D01*
G01X4921600Y-6093000D02*
Y-5919000D01*
X4843600D01*
Y-6107000D01*
X4921600D01*
Y-6093000D01*
G01X5091500Y-6092800D02*
X5314500D01*
Y-5937800D01*
X5062500D01*
Y-6092800D01*
X5091500D01*
G01X5001300Y-5739300D02*
X5175300D01*
Y-5661300D01*
X4987300D01*
Y-5739300D01*
X5001300D01*
G01X5091500Y-5918200D02*
X5314500D01*
Y-5763200D01*
X5062500D01*
Y-5918200D01*
X5091500D01*
G01X5001300Y-5643000D02*
X5175300D01*
Y-5565000D01*
X4987300D01*
Y-5643000D01*
X5001300D01*
G01Y-5547400D02*
X5175300D01*
Y-5469400D01*
X4987300D01*
Y-5547400D01*
X5001300D01*
G01Y-5449900D02*
X5175300D01*
Y-5371900D01*
X4987300D01*
Y-5449900D01*
X5001300D01*
G01Y-5353700D02*
X5175300D01*
Y-5275700D01*
X4987300D01*
Y-5353700D01*
X5001300D01*
G01X5001200Y-5258100D02*
X5175200D01*
Y-5180100D01*
X4987200D01*
Y-5258100D01*
X5001200D01*
G01X5175600Y-4860010D02*
Y-4686000D01*
X5097600Y-4685990D01*
Y-4874000D01*
X5175600Y-4873990D01*
Y-4860010D01*
G01X4996000Y-4699000D02*
Y-4873000D01*
X5074000D01*
Y-4685000D01*
X4996000D01*
Y-4699000D01*
G01X4846800Y-3793540D02*
Y-4261500D01*
X5033800D01*
Y-3737500D01*
X4846800D01*
Y-3835950D01*
G01X5057600Y-3793540D02*
Y-4261500D01*
X5244600D01*
Y-3737500D01*
X5057600D01*
Y-3835950D01*
G01X5144900Y-3310800D02*
Y-3155800D01*
X5034900D01*
Y-3345800D01*
X5144900D01*
Y-3310800D01*
G01X4897700Y-2859400D02*
Y-2913400D01*
G01X4931700Y-2859400D02*
Y-2913400D01*
G01X4966700Y-2831400D02*
X4813700D01*
Y-2942400D01*
X5015700D01*
Y-2831400D01*
X4966700D01*
G01X4854200Y-3134700D02*
X4873200D01*
G01X4900200D02*
X4919200D01*
G01X4873200Y-3107700D02*
Y-3166700D01*
G01X4900200Y-3106700D02*
Y-3165700D01*
G01X4994710Y-2958800D02*
X4820700D01*
X4820690Y-3036800D01*
X5008700D01*
X5008690Y-2958800D01*
X4994710D01*
G01X4876700Y-2755600D02*
X4897700D01*
G01X4931700Y-2756600D02*
X4952700D01*
G01X4897700Y-2731600D02*
Y-2785600D01*
G01X4931700Y-2731600D02*
Y-2785600D01*
G01X4966700Y-2703600D02*
X4813700D01*
Y-2814600D01*
X5015700D01*
Y-2703600D01*
X4966700D01*
G01X4876700Y-2883400D02*
X4897700D01*
G01X4931700Y-2884400D02*
X4952700D01*
G01X4994710Y-2609500D02*
X4820700D01*
X4820690Y-2687500D01*
X5008700D01*
X5008690Y-2609500D01*
X4994710D01*
G01X5012600Y-2342000D02*
Y-2497000D01*
X5122600D01*
Y-2307000D01*
X5012600D01*
Y-2342000D01*
G01X4911700Y-2401700D02*
Y-2382700D01*
G01Y-2355700D02*
Y-2336700D01*
G01X4884700Y-2382700D02*
X4943700D01*
G01X4883700Y-2355700D02*
X4942700D01*
G01X4834700Y-2273700D02*
Y-2496700D01*
X4989700D01*
Y-2244700D01*
X4834700D01*
Y-2273700D01*
G01X5031400Y-1978010D02*
Y-1804000D01*
X4953400Y-1803990D01*
Y-1992000D01*
X5031400Y-1991990D01*
Y-1978010D01*
G01X5109740Y-1991000D02*
X5577700D01*
Y-1804000D01*
X5053700D01*
Y-1991000D01*
X5152150D01*
G01X4953500Y-1610800D02*
Y-1784800D01*
X5031500D01*
Y-1596800D01*
X4953500D01*
Y-1610800D01*
G01X5109740Y-1784800D02*
X5577700D01*
Y-1597800D01*
X5053700D01*
Y-1784800D01*
X5152150D01*
G01X5083200Y-1091400D02*
Y-1244400D01*
X5194200D01*
Y-1042400D01*
X5083200D01*
Y-1091400D01*
G01X5093300Y-195000D02*
Y-348000D01*
X5204300D01*
Y-146000D01*
X5093300D01*
Y-195000D01*
G01X5013700Y-285000D02*
Y-264000D01*
G01X5014700Y-230000D02*
Y-209000D01*
G01X4989700Y-264000D02*
X5043700D01*
G01X4989700Y-230000D02*
X5043700D01*
G01X4961700Y-195000D02*
Y-348000D01*
X5072700D01*
Y-146000D01*
X4961700D01*
Y-195000D01*
G01X5336000Y-7556400D02*
X5469000D01*
Y-7452400D01*
X5323000D01*
Y-7556400D01*
X5358220D01*
G01X5226900Y-7734300D02*
Y-7715300D01*
G01Y-7688300D02*
Y-7669300D01*
G01X5199900Y-7715300D02*
X5258900D01*
G01X5198900Y-7688300D02*
X5257900D01*
G01X5149900Y-7606300D02*
Y-7829300D01*
X5304900D01*
Y-7577300D01*
X5149900D01*
Y-7606300D01*
G01X5397900Y-7734300D02*
Y-7715300D01*
G01Y-7688300D02*
Y-7669300D01*
G01X5370900Y-7715300D02*
X5429900D01*
G01X5369900Y-7688300D02*
X5428900D01*
G01X5320900Y-7606300D02*
Y-7829300D01*
X5475900D01*
Y-7577300D01*
X5320900D01*
Y-7606300D01*
G01X5244000Y-7150000D02*
Y-6976000D01*
X5166000D01*
Y-7164000D01*
X5244000D01*
Y-7150000D01*
G01X5219500Y-6015800D02*
X5200500D01*
G01X5173500D02*
X5154500D01*
G01X5200500Y-6042800D02*
Y-5983800D01*
G01X5173500Y-6043800D02*
Y-5984800D01*
G01X5219500Y-5841200D02*
X5200500D01*
G01X5173500D02*
X5154500D01*
G01X5200500Y-5868200D02*
Y-5809200D01*
G01X5173500Y-5869200D02*
Y-5810200D01*
G01X5246440Y-5713600D02*
G03I-12040J0D01*
G01X5249400Y-5725600D02*
X5471400D01*
Y-5524600D01*
X5222400D01*
Y-5725600D01*
X5260340D01*
G01X5248440Y-5449900D02*
G03I-12040J0D01*
G01X5251400Y-5461900D02*
X5473400D01*
Y-5260900D01*
X5224400D01*
Y-5461900D01*
X5262340D01*
G01X5195900Y-4757800D02*
Y-5088800D01*
X5536900D01*
Y-4709800D01*
X5195900D01*
Y-4782720D01*
G01X5390900Y-4459300D02*
X5369900D01*
G01X5424900Y-4430300D02*
Y-4484300D01*
X5390900D01*
Y-4430300D01*
X5424900D01*
G01X5355900Y-4512300D02*
X5508900D01*
Y-4401300D01*
X5306900D01*
Y-4512300D01*
X5355900D01*
G01X5327900Y-4691800D02*
X5501900D01*
Y-4613800D01*
X5313900D01*
Y-4691800D01*
X5327900D01*
G01X5226160Y-4724800D02*
G03I-15260J0D01*
G01X5327900Y-4374000D02*
X5501900D01*
Y-4296000D01*
X5313900D01*
Y-4374000D01*
X5327900D01*
G01X5265800Y-3793540D02*
Y-4261500D01*
X5452800D01*
Y-3737500D01*
X5265800D01*
Y-3835950D01*
G01X5168400Y-3171490D02*
Y-3345500D01*
X5246400Y-3345510D01*
Y-3157500D01*
X5168400Y-3157510D01*
Y-3171490D01*
G01X5263000D02*
Y-3345500D01*
X5341000Y-3345510D01*
Y-3157500D01*
X5263000Y-3157510D01*
Y-3171490D01*
G01X5221300Y-2409700D02*
Y-2390700D01*
G01Y-2363700D02*
Y-2344700D01*
G01X5194300Y-2390710D02*
X5253300D01*
G01X5193300Y-2363700D02*
X5252300D01*
G01X5144300Y-2281710D02*
Y-2504700D01*
X5299300D01*
Y-2252700D01*
X5144300D01*
Y-2281710D01*
G01X5398000Y-2488610D02*
Y-2314600D01*
X5320000Y-2314590D01*
Y-2502600D01*
X5398000Y-2502590D01*
Y-2488610D01*
G01X5559700Y-1293900D02*
X5333500D01*
Y-1525400D01*
X5600500D01*
Y-1293900D01*
X5548190D01*
G01X5547700Y-1188200D02*
X5373700D01*
Y-1266200D01*
X5561700D01*
Y-1188200D01*
X5547700D01*
G01X5135200Y-1181400D02*
Y-1160400D01*
G01X5136200Y-1126400D02*
Y-1105400D01*
G01X5111200Y-1160400D02*
X5165200D01*
G01X5111200Y-1126400D02*
X5165200D01*
G01X5266100Y-1181400D02*
Y-1160400D01*
G01X5267100Y-1126400D02*
Y-1105400D01*
G01X5242100Y-1160400D02*
X5296100D01*
G01X5242100Y-1126400D02*
X5296100D01*
G01X5214100Y-1091400D02*
Y-1244400D01*
X5325100D01*
Y-1042400D01*
X5214100D01*
Y-1091400D01*
G01X5453400Y-347800D02*
X5227200D01*
Y-579300D01*
X5494200D01*
Y-347800D01*
X5441890D01*
G01X5441400Y-245900D02*
X5267400D01*
Y-323900D01*
X5455400D01*
Y-245900D01*
X5441400D01*
G01X5145300Y-285000D02*
Y-264000D01*
G01X5146300Y-230000D02*
Y-209000D01*
G01X5121300Y-264000D02*
X5175300D01*
G01X5121300Y-230000D02*
X5175300D01*
G01X5508800Y-7556400D02*
X5641800D01*
Y-7452400D01*
X5495800D01*
Y-7556400D01*
X5531020D01*
G01X5684900D02*
X5817900D01*
Y-7452400D01*
X5671900D01*
Y-7556400D01*
X5707120D01*
G01X5569900Y-7734300D02*
Y-7715300D01*
G01Y-7688300D02*
Y-7669300D01*
G01X5542900Y-7715300D02*
X5601900D01*
G01X5541900Y-7688300D02*
X5600900D01*
G01X5492900Y-7606300D02*
Y-7829300D01*
X5647900D01*
Y-7577300D01*
X5492900D01*
Y-7606300D01*
G01X5716000Y-7715300D02*
X5775000D01*
G01X5715000Y-7688300D02*
X5774000D01*
G01X5666000Y-7606300D02*
Y-7829300D01*
X5821000D01*
Y-7577300D01*
X5666000D01*
Y-7606300D01*
G01X5773500Y-7252200D02*
Y-6872600D01*
X5439400D01*
Y-7306900D01*
X5773500D01*
Y-7216110D01*
G01X5677900Y-6756000D02*
X5503900D01*
Y-6834000D01*
X5691900D01*
Y-6756000D01*
X5677900D01*
G01X5671000Y-6723000D02*
X5426000D01*
Y-6181000D01*
X5773000D01*
Y-6723000D01*
X5671000D01*
G01X5630000Y-6035100D02*
Y-5861100D01*
X5552000D01*
Y-6049100D01*
X5630000D01*
Y-6035100D01*
G01X5734100D02*
Y-5861100D01*
X5656100D01*
Y-6049100D01*
X5734100D01*
Y-6035100D01*
G01X5452000Y-5874100D02*
Y-6048100D01*
X5530000D01*
Y-5860100D01*
X5452000D01*
Y-5874100D01*
G01X5715100Y-5759600D02*
X5541100D01*
Y-5837600D01*
X5729100D01*
Y-5759600D01*
X5715100D01*
G01Y-5664500D02*
X5541100D01*
Y-5742500D01*
X5729100D01*
Y-5664500D01*
X5715100D01*
G01Y-5468700D02*
X5541100D01*
Y-5546700D01*
X5729100D01*
Y-5468700D01*
X5715100D01*
G01Y-5370500D02*
X5541100D01*
Y-5448500D01*
X5729100D01*
Y-5370500D01*
X5715100D01*
G01X5554100Y-5646100D02*
X5728100D01*
Y-5568100D01*
X5540100D01*
Y-5646100D01*
X5554100D01*
G01X5689900Y-5145300D02*
X5668900D01*
G01X5634900Y-5144300D02*
X5613900D01*
G01X5668900Y-5115300D02*
Y-5169300D01*
X5634900D01*
Y-5115300D01*
X5668900D01*
G01X5599900Y-5197300D02*
X5752900D01*
Y-5086300D01*
X5550900D01*
Y-5197300D01*
X5599900D01*
G01X5715100Y-5273900D02*
X5541100D01*
Y-5351900D01*
X5729100D01*
Y-5273900D01*
X5715100D01*
G01X5896200Y-4711700D02*
X5565200D01*
Y-5052700D01*
X5944200D01*
Y-4711700D01*
X5871280D01*
G01X5445900Y-4460300D02*
X5424900D01*
G01X5835500Y-4285900D02*
X5536500D01*
Y-4692900D01*
X5878500D01*
Y-4285900D01*
X5766340D01*
G01X5691900Y-3793540D02*
Y-4261500D01*
X5878900D01*
Y-3737500D01*
X5691900D01*
Y-3835950D01*
G01X5665100Y-4207460D02*
Y-3739500D01*
X5478100D01*
Y-4263500D01*
X5665100D01*
Y-4165050D01*
G01X5847700Y-3313300D02*
X5673700D01*
Y-3391300D01*
X5861700D01*
Y-3313300D01*
X5847700D01*
G01X5879100Y-2856500D02*
X5705100D01*
Y-2934500D01*
X5893100D01*
Y-2856500D01*
X5879100D01*
G01X5733000Y-3191500D02*
X5956000D01*
Y-3036500D01*
X5704000D01*
Y-3191500D01*
X5733000D01*
G01X5416700Y-2327590D02*
Y-2501600D01*
X5494700Y-2501610D01*
Y-2313600D01*
X5416700Y-2313610D01*
Y-2327590D01*
G01X5606600Y-1817000D02*
Y-1991000D01*
X5684600D01*
Y-1803000D01*
X5606600D01*
Y-1817000D01*
G01X5488900Y-2223400D02*
X5662900D01*
Y-2145400D01*
X5474900D01*
Y-2223400D01*
X5488900D01*
G01X5489600Y-2128200D02*
X5663600D01*
Y-2050200D01*
X5475600D01*
Y-2128200D01*
X5489600D01*
G01X5684600Y-1771800D02*
Y-1597800D01*
X5606600D01*
Y-1785800D01*
X5684600D01*
Y-1771800D01*
G01X5715400Y-1762010D02*
Y-1985000D01*
X5870400D01*
Y-1733000D01*
X5715400D01*
Y-1762010D01*
G01X5839700Y-1464000D02*
X5665700D01*
Y-1542000D01*
X5853700D01*
Y-1464000D01*
X5839700D01*
G01Y-1366400D02*
X5665700D01*
Y-1444400D01*
X5853700D01*
Y-1366400D01*
X5839700D01*
G01X5678700Y-1344800D02*
X5852700D01*
Y-1266800D01*
X5664700D01*
Y-1344800D01*
X5678700D01*
G01X5664000Y-1181400D02*
Y-1160400D01*
G01X5665000Y-1126400D02*
Y-1105400D01*
G01X5640000Y-1160400D02*
X5694000D01*
G01X5640000Y-1126400D02*
X5694000D01*
G01X5612000Y-1091400D02*
Y-1244400D01*
X5723000D01*
Y-1042400D01*
X5612000D01*
Y-1091400D01*
G01X5581800Y-455200D02*
X5755800D01*
Y-377200D01*
X5567800D01*
Y-455200D01*
X5581800D01*
G01X5742800Y-472500D02*
X5568800D01*
Y-550500D01*
X5756800D01*
Y-472500D01*
X5742800D01*
G01Y-568500D02*
X5568800D01*
Y-646500D01*
X5756800D01*
Y-568500D01*
X5742800D01*
G01X5569600Y-285000D02*
Y-264000D01*
G01X5570600Y-230000D02*
Y-209000D01*
G01X5545600Y-264000D02*
X5599600D01*
G01X5545600Y-230000D02*
X5599600D01*
G01X5517600Y-195000D02*
Y-348000D01*
X5628600D01*
Y-146000D01*
X5517600D01*
Y-195000D01*
G01X5696400Y-285000D02*
Y-264000D01*
G01X5697400Y-230000D02*
Y-209000D01*
G01X5672400Y-264000D02*
X5726400D01*
G01X5672400Y-230000D02*
X5726400D01*
G01X5644400Y-195000D02*
Y-348000D01*
X5755400D01*
Y-146000D01*
X5644400D01*
Y-195000D01*
G01X6146200Y-7452400D02*
X6013200D01*
Y-7556400D01*
X6159200D01*
Y-7452400D01*
X6123980D01*
G01X6165500Y-7801300D02*
Y-7578300D01*
X6010500D01*
Y-7830300D01*
X6165500D01*
Y-7801300D01*
G01X5743000Y-7734300D02*
Y-7715300D01*
G01Y-7688300D02*
Y-7669300D01*
G01X5914800Y-7734300D02*
Y-7715300D01*
G01Y-7688300D02*
Y-7669300D01*
G01X5887800Y-7715300D02*
X5946800D01*
G01X5886800Y-7688300D02*
X5945800D01*
G01X5837800Y-7606300D02*
Y-7829300D01*
X5992800D01*
Y-7577300D01*
X5837800D01*
Y-7606300D01*
G01X5985400Y-6985300D02*
X5811400D01*
Y-7063300D01*
X5999400D01*
Y-6985300D01*
X5985400D01*
G01X5824390Y-7196400D02*
X5998400D01*
X5998410Y-7118400D01*
X5810400D01*
X5810410Y-7196400D01*
X5824390D01*
G01X5762890Y-6699000D02*
G03I-13890J0D01*
G01X5930700Y-5875700D02*
Y-6049700D01*
X6008700D01*
Y-5861700D01*
X5930700D01*
Y-5875700D01*
G01X5828000D02*
Y-6049700D01*
X5906000D01*
Y-5861700D01*
X5828000D01*
Y-5875700D01*
G01X5897300Y-5738000D02*
X5916300D01*
G01X5943300D02*
X5962300D01*
G01X5916300Y-5711000D02*
Y-5770000D01*
G01X5943300Y-5710000D02*
Y-5769000D01*
G01X6025300Y-5661000D02*
X5802300D01*
Y-5816000D01*
X6054300D01*
Y-5661000D01*
X6025300D01*
G01X5897300Y-5488000D02*
X5916300D01*
G01X5943300D02*
X5962300D01*
G01X5916300Y-5461000D02*
Y-5520000D01*
G01X5943300Y-5460000D02*
Y-5519000D01*
G01X6025300Y-5411000D02*
X5802300D01*
Y-5566000D01*
X6054300D01*
Y-5411000D01*
X6025300D01*
G01X5892400Y-5184300D02*
Y-5109300D01*
X5944400Y-5147300D01*
X5892400Y-5184300D01*
G01X5870400Y-5147300D02*
X5965400D01*
G01X5944400Y-5110300D02*
Y-5185300D01*
G01X5767400Y-5118300D02*
Y-5206300D01*
X6071400D01*
Y-5086300D01*
X5767400D01*
Y-5139060D01*
G01X5944460Y-4726700D02*
G03I-15260J0D01*
G01X5878530Y-4675900D02*
G03I-17030J0D01*
G01X5981100Y-4574700D02*
X6768100D01*
Y-4100700D01*
X5913100D01*
Y-4574700D01*
X5981100D01*
G01X5966970Y-4547700D02*
G03I-26870J0D01*
G01X5861000Y-3114500D02*
X5842000D01*
G01X5815000D02*
X5796000D01*
G01X5842000Y-3141500D02*
Y-3082500D01*
G01X5815000Y-3142500D02*
Y-3083500D01*
G01X5809600Y-2360100D02*
X5830600D01*
G01X5864600Y-2361100D02*
X5885600D01*
G01X5830600Y-2336100D02*
Y-2390100D01*
G01X5864600Y-2336100D02*
Y-2390100D01*
G01X5899600Y-2308100D02*
X5746600D01*
Y-2419100D01*
X5948600D01*
Y-2308100D01*
X5899600D01*
G01X5792400Y-1890000D02*
Y-1871000D01*
G01Y-1844000D02*
Y-1825000D01*
G01X5765400Y-1871010D02*
X5824400D01*
G01X5764400Y-1844000D02*
X5823400D01*
G01X5893800Y-1810500D02*
Y-1984500D01*
X5971800D01*
Y-1796500D01*
X5893800D01*
Y-1810500D01*
G01X6124400Y-1660900D02*
X5950400D01*
Y-1738900D01*
X6138400D01*
Y-1660900D01*
X6124400D01*
G01X5794000Y-1181400D02*
Y-1160400D01*
G01X5795000Y-1126400D02*
Y-1105400D01*
G01X5770000Y-1160400D02*
X5824000D01*
G01X5770000Y-1126400D02*
X5824000D01*
G01X5742000Y-1091400D02*
Y-1244400D01*
X5853000D01*
Y-1042400D01*
X5742000D01*
Y-1091400D01*
G01X6006300Y-1344800D02*
X6180300D01*
Y-1266800D01*
X5992300D01*
Y-1344800D01*
X6006300D01*
G01X6317200Y-7452400D02*
X6184200D01*
Y-7556400D01*
X6330200D01*
Y-7452400D01*
X6294980D01*
G01X6261300Y-7734300D02*
Y-7715300D01*
G01Y-7688300D02*
Y-7669300D01*
G01X6234300Y-7715310D02*
X6293300D01*
G01X6233300Y-7688300D02*
X6292300D01*
G01X6184300Y-7606310D02*
Y-7829300D01*
X6339300D01*
Y-7577300D01*
X6184300D01*
Y-7606310D01*
G01X6088500Y-7673300D02*
Y-7692300D01*
G01Y-7719300D02*
Y-7738300D01*
G01X6115500Y-7692300D02*
X6056500D01*
G01X6116500Y-7719300D02*
X6057500D01*
G01X6383500Y-7252200D02*
Y-6872600D01*
X6049400D01*
Y-7306900D01*
X6383500D01*
Y-7216110D01*
G01X6295800Y-6756000D02*
X6121800D01*
Y-6834000D01*
X6309800D01*
Y-6756000D01*
X6295800D01*
G01X6291000Y-6723000D02*
X6046000D01*
Y-6181000D01*
X6393000D01*
Y-6723000D01*
X6291000D01*
G01X6211300Y-6036700D02*
Y-5862700D01*
X6133300D01*
Y-6050700D01*
X6211300D01*
Y-6036700D01*
G01X6309000Y-6036710D02*
Y-5862700D01*
X6231000Y-5862690D01*
Y-6050700D01*
X6309000Y-6050690D01*
Y-6036710D01*
G01X6033300Y-5875700D02*
Y-6049700D01*
X6111300D01*
Y-5861700D01*
X6033300D01*
Y-5875700D01*
G01X6406100Y-6036700D02*
Y-5862700D01*
X6328100D01*
Y-6050700D01*
X6406100D01*
Y-6036700D01*
G01X6306200Y-5650400D02*
X6132200D01*
Y-5728400D01*
X6320200D01*
Y-5650400D01*
X6306200D01*
G01Y-5747700D02*
X6132200D01*
Y-5825700D01*
X6320200D01*
Y-5747700D01*
X6306200D01*
G01Y-5399800D02*
X6132200D01*
Y-5477800D01*
X6320200D01*
Y-5399800D01*
X6306200D01*
G01Y-5499800D02*
X6132200D01*
Y-5577800D01*
X6320200D01*
Y-5499800D01*
X6306200D01*
G01X6356410Y-5187600D02*
X6182400D01*
X6182390Y-5265600D01*
X6370400D01*
X6370390Y-5187600D01*
X6356410D01*
G01X6099000Y-5164000D02*
X6273000D01*
Y-5086000D01*
X6085000D01*
Y-5164000D01*
X6099000D01*
G01X6443000Y-4770800D02*
Y-4617800D01*
X6332000D01*
Y-4819800D01*
X6443000D01*
Y-4770800D01*
G01X6242300D02*
Y-4617800D01*
X6131300D01*
Y-4819800D01*
X6242300D01*
Y-4770800D01*
G01X6184000Y-5021000D02*
Y-4847000D01*
X6106000D01*
Y-5035000D01*
X6184000D01*
Y-5021000D01*
G01X6190300Y-4680800D02*
Y-4701800D01*
G01X6189300Y-4735800D02*
Y-4756800D01*
G01X6160300Y-4701800D02*
X6214300D01*
Y-4735800D01*
X6160300D01*
Y-4701800D01*
G01X6291500Y-2265100D02*
Y-2168100D01*
X6211500D01*
Y-2328100D01*
X6291500D01*
Y-2250350D01*
G01X6291900Y-2486000D02*
X6194900D01*
Y-2566000D01*
X6354900D01*
Y-2486000D01*
X6277150D01*
G01X6192200Y-2459900D02*
X6366200D01*
Y-2381900D01*
X6178200D01*
Y-2459900D01*
X6192200D01*
G01X6131800Y-1972800D02*
Y-1798800D01*
X6053800D01*
Y-1986800D01*
X6131800D01*
Y-1972800D01*
G01X6210500Y-854700D02*
X6384500D01*
Y-776700D01*
X6196500D01*
Y-854700D01*
X6210500D01*
G01X6495600Y-7452400D02*
X6362600D01*
Y-7556400D01*
X6508600D01*
Y-7452400D01*
X6473380D01*
G01X6671500D02*
X6538500D01*
Y-7556400D01*
X6684500D01*
Y-7452400D01*
X6649280D01*
G01X6434900Y-7734300D02*
Y-7715300D01*
G01Y-7688300D02*
Y-7669300D01*
G01X6407900Y-7715300D02*
X6466900D01*
G01X6406900Y-7688300D02*
X6465900D01*
G01X6357900Y-7606300D02*
Y-7829300D01*
X6512900D01*
Y-7577300D01*
X6357900D01*
Y-7606300D01*
G01X6610200Y-7734300D02*
Y-7715300D01*
G01Y-7688300D02*
Y-7669300D01*
G01X6583200Y-7715300D02*
X6642200D01*
G01X6582200Y-7688300D02*
X6641200D01*
G01X6533200Y-7606300D02*
Y-7829300D01*
X6688200D01*
Y-7577300D01*
X6533200D01*
Y-7606300D01*
G01X6773500Y-7252200D02*
Y-6872600D01*
X6439400D01*
Y-7306900D01*
X6773500D01*
Y-7216110D01*
G01X6689000Y-6756000D02*
X6515000D01*
Y-6834000D01*
X6703000D01*
Y-6756000D01*
X6689000D01*
G01X6382890Y-6699000D02*
G03I-13890J0D01*
G01X6681000Y-6723000D02*
X6436000D01*
Y-6181000D01*
X6783000D01*
Y-6723000D01*
X6681000D01*
G01X6614100Y-5875700D02*
Y-6049700D01*
X6692100D01*
Y-5861700D01*
X6614100D01*
Y-5875700D01*
G01X6642500Y-4770800D02*
Y-4617800D01*
X6531500D01*
Y-4819800D01*
X6642500D01*
Y-4770800D01*
G01X6590500Y-4680800D02*
Y-4701800D01*
G01X6589500Y-4735800D02*
Y-4756800D01*
G01X6560500Y-4701800D02*
X6614500D01*
Y-4735800D01*
X6560500D01*
Y-4701800D01*
G01X6391000Y-4680800D02*
Y-4701800D01*
G01X6390000Y-4735800D02*
Y-4756800D01*
G01X6361000Y-4701800D02*
X6415000D01*
Y-4735800D01*
X6361000D01*
Y-4701800D01*
G01X6563090Y-3661000D02*
X6737100D01*
X6737110Y-3583000D01*
X6549100D01*
X6549110Y-3661000D01*
X6563090D01*
G01X6724100Y-3678200D02*
X6550100D01*
Y-3756200D01*
X6738100D01*
Y-3678200D01*
X6724100D01*
G01X6512100D02*
X6338100D01*
Y-3756200D01*
X6526100D01*
Y-3678200D01*
X6512100D01*
G01X6612900Y-2242400D02*
Y-2145400D01*
X6532900D01*
Y-2305400D01*
X6612900D01*
Y-2227650D01*
G01X6452200Y-2242400D02*
Y-2145400D01*
X6372200D01*
Y-2305400D01*
X6452200D01*
Y-2227650D01*
G01X6532700Y-1821000D02*
X6358700D01*
Y-1899000D01*
X6546700D01*
Y-1821000D01*
X6532700D01*
G01X6510200Y-1421200D02*
X6607200D01*
Y-1341200D01*
X6447200D01*
Y-1421200D01*
X6524950D01*
G01X6848100Y-7452400D02*
X6715100D01*
Y-7556400D01*
X6861100D01*
Y-7452400D01*
X6825880D01*
G01X6785400Y-7734300D02*
Y-7715300D01*
G01Y-7688300D02*
Y-7669300D01*
G01X6758400Y-7715300D02*
X6817400D01*
G01X6757400Y-7688300D02*
X6816400D01*
G01X6708400Y-7606300D02*
Y-7829300D01*
X6863400D01*
Y-7577300D01*
X6708400D01*
Y-7606300D01*
G01X6934800Y-7715300D02*
X6993800D01*
G01X6933800Y-7688300D02*
X6992800D01*
G01X6884800Y-7606300D02*
Y-7829300D01*
X7039800D01*
Y-7577300D01*
X6884800D01*
Y-7606300D01*
G01X6992900Y-6917700D02*
X6818900D01*
Y-6995700D01*
X7006900D01*
Y-6917700D01*
X6992900D01*
G01X6831900Y-7196400D02*
X7005900D01*
Y-7118400D01*
X6817900D01*
Y-7196400D01*
X6831900D01*
G01X6772890Y-6699000D02*
G03I-13890J0D01*
G01X6792100Y-6036700D02*
Y-5862700D01*
X6714100D01*
Y-6050700D01*
X6792100D01*
Y-6036700D01*
G01X6892100D02*
Y-5862700D01*
X6814100D01*
Y-6050700D01*
X6892100D01*
Y-6036700D01*
G01X6889400Y-5557100D02*
Y-5383100D01*
X6811400D01*
Y-5571100D01*
X6889400D01*
Y-5557100D01*
G01X6789600Y-5440200D02*
Y-5266200D01*
X6711600D01*
Y-5454200D01*
X6789600D01*
Y-5440200D01*
G01X6811400Y-5165000D02*
Y-5339000D01*
X6889400D01*
Y-5151000D01*
X6811400D01*
Y-5165000D01*
G01X6977200Y-4207460D02*
Y-3739500D01*
X6790200D01*
Y-4263500D01*
X6977200D01*
Y-4165050D01*
G01X6931800Y-3641500D02*
X6757800D01*
Y-3719500D01*
X6945800D01*
Y-3641500D01*
X6931800D01*
G01X7066600Y-3383200D02*
X6892600D01*
Y-3461200D01*
X7080600D01*
Y-3383200D01*
X7066600D01*
G01X7067200Y-3288100D02*
X6893200D01*
Y-3366100D01*
X7081200D01*
Y-3288100D01*
X7067200D01*
G01X7067100Y-3084100D02*
X6893100D01*
Y-3162100D01*
X7081100D01*
Y-3084100D01*
X7067100D01*
G01X6952400Y-2926900D02*
Y-2752900D01*
X6874400D01*
Y-2940900D01*
X6952400D01*
Y-2926900D01*
G01X6951600Y-2717700D02*
Y-2543700D01*
X6873600D01*
Y-2731700D01*
X6951600D01*
Y-2717700D01*
G01X6855000D02*
Y-2543700D01*
X6777000D01*
Y-2731700D01*
X6855000D01*
Y-2717700D01*
G01X6933000Y-2392000D02*
Y-2295000D01*
X6853000D01*
Y-2455000D01*
X6933000D01*
Y-2377250D01*
G01X6773000Y-2392000D02*
Y-2295000D01*
X6693000D01*
Y-2455000D01*
X6773000D01*
Y-2377250D01*
G01X6837100Y-2051600D02*
X6816100D01*
G01X6782100Y-2050600D02*
X6761100D01*
G01X6816100Y-2075600D02*
Y-2021600D01*
G01X6782100Y-2075600D02*
Y-2021600D01*
G01X6747100Y-2103600D02*
X6900100D01*
Y-1992600D01*
X6698100D01*
Y-2103600D01*
X6747100D01*
G01X6869300Y-1550800D02*
X6772300D01*
Y-1630800D01*
X6932300D01*
Y-1550800D01*
X6854550D01*
G01X6869300Y-1457300D02*
X6772300D01*
Y-1537300D01*
X6932300D01*
Y-1457300D01*
X6854550D01*
G01X6923500Y-457100D02*
X6749500D01*
Y-535100D01*
X6937500D01*
Y-457100D01*
X6923500D01*
G01X7192800Y-7452400D02*
X7059800D01*
Y-7556400D01*
X7205800D01*
Y-7452400D01*
X7170580D01*
G01X7373400D02*
X7240400D01*
Y-7556400D01*
X7386400D01*
Y-7452400D01*
X7351180D01*
G01X6961800Y-7734300D02*
Y-7715300D01*
G01Y-7688300D02*
Y-7669300D01*
G01X7136500Y-7734300D02*
Y-7715300D01*
G01Y-7688300D02*
Y-7669300D01*
G01X7109500Y-7715300D02*
X7168500D01*
G01X7108500Y-7688300D02*
X7167500D01*
G01X7059500Y-7606300D02*
Y-7829300D01*
X7214500D01*
Y-7577300D01*
X7059500D01*
Y-7606300D01*
G01X7234800D02*
Y-7829300D01*
X7389800D01*
Y-7577300D01*
X7234800D01*
Y-7606300D01*
G01X7383500Y-7252200D02*
Y-6872600D01*
X7049400D01*
Y-7306900D01*
X7383500D01*
Y-7216110D01*
G01X7298600Y-6756000D02*
X7124600D01*
Y-6834000D01*
X7312600D01*
Y-6756000D01*
X7298600D01*
G01X7290600Y-6723000D02*
X7045600D01*
Y-6181000D01*
X7392600D01*
Y-6723000D01*
X7290600D01*
G01X7314700Y-6036700D02*
Y-5862700D01*
X7236700D01*
Y-6050700D01*
X7314700D01*
Y-6036700D01*
G01X7136700Y-5875700D02*
Y-6049700D01*
X7214700D01*
Y-5861700D01*
X7136700D01*
Y-5875700D01*
G01X7136000Y-5063000D02*
Y-4910000D01*
X7025000D01*
Y-5112000D01*
X7136000D01*
Y-5063000D01*
G01X7276000D02*
Y-4910000D01*
X7165000D01*
Y-5112000D01*
X7276000D01*
Y-5063000D01*
G01X7083000Y-4747000D02*
Y-4768000D01*
G01X7136000Y-4782000D02*
Y-4629000D01*
X7025000D01*
Y-4831000D01*
X7136000D01*
Y-4782000D01*
G01X7223000Y-4747000D02*
Y-4768000D01*
G01X7276000Y-4782000D02*
Y-4629000D01*
X7165000D01*
Y-4831000D01*
X7276000D01*
Y-4782000D01*
G01X7084000Y-4973000D02*
Y-4994000D01*
G01X7083000Y-5028000D02*
Y-5049000D01*
G01X7108000Y-4994000D02*
X7054000D01*
G01X7108000Y-5028000D02*
X7054000D01*
G01X7224000Y-4973000D02*
Y-4994000D01*
G01X7223000Y-5028000D02*
Y-5049000D01*
G01X7248000Y-4994000D02*
X7194000D01*
G01X7248000Y-5028000D02*
X7194000D01*
G01X7084000Y-4692000D02*
Y-4713000D01*
G01X7054000D02*
X7108000D01*
Y-4747000D01*
X7054000D01*
Y-4713000D01*
G01X7224000Y-4692000D02*
Y-4713000D01*
G01X7194000D02*
X7248000D01*
Y-4747000D01*
X7194000D01*
Y-4713000D01*
G01X7075000Y-4576000D02*
X8060000D01*
Y-4102000D01*
X7002000D01*
Y-4576000D01*
X7075000D01*
G01X7057870Y-4549000D02*
G03I-26870J0D01*
G01X7351500Y-3678200D02*
X7177500D01*
Y-3756200D01*
X7365500D01*
Y-3678200D01*
X7351500D01*
G01X7141500Y-3641500D02*
X6967500D01*
Y-3719500D01*
X7155500D01*
Y-3641500D01*
X7141500D01*
G01X7190490Y-3661000D02*
X7364500D01*
X7364510Y-3583000D01*
X7176500D01*
X7176510Y-3661000D01*
X7190490D01*
G01X7330400Y-2717700D02*
Y-2543700D01*
X7252400D01*
Y-2731700D01*
X7330400D01*
Y-2717700D01*
G01X7142900D02*
Y-2543700D01*
X7064900D01*
Y-2731700D01*
X7142900D01*
Y-2717700D01*
G01X7235900D02*
Y-2543700D01*
X7157900D01*
Y-2731700D01*
X7235900D01*
Y-2717700D01*
G01X7047700D02*
Y-2543700D01*
X6969700D01*
Y-2731700D01*
X7047700D01*
Y-2717700D01*
G01X6973000Y-832000D02*
Y-2498000D01*
X8626000D01*
Y-752000D01*
X6973000D01*
Y-874290D01*
G01X7147600Y-360200D02*
Y-534200D01*
X7225600D01*
Y-346200D01*
X7147600D01*
Y-360200D01*
G01X7259200Y-571000D02*
Y-704000D01*
X7363200D01*
Y-558000D01*
X7259200D01*
Y-593220D01*
G01X7136800Y-571000D02*
Y-704000D01*
X7240800D01*
Y-558000D01*
X7136800D01*
Y-593220D01*
G01X7485900Y-7734300D02*
Y-7715300D01*
G01Y-7688300D02*
Y-7669300D01*
G01X7458900Y-7715300D02*
X7517900D01*
G01X7457900Y-7688300D02*
X7516900D01*
G01X7408900Y-7606300D02*
Y-7829300D01*
X7563900D01*
Y-7577300D01*
X7408900D01*
Y-7606300D01*
G01X7311800Y-7734300D02*
Y-7715300D01*
G01Y-7688300D02*
Y-7669300D01*
G01X7284800Y-7715300D02*
X7343800D01*
G01X7283800Y-7688300D02*
X7342800D01*
G01X7459000Y-7274000D02*
X7633000D01*
Y-7196000D01*
X7445000D01*
Y-7274000D01*
X7459000D01*
G01X7620000Y-6978400D02*
X7446000D01*
Y-7056400D01*
X7634000D01*
Y-6978400D01*
X7620000D01*
G01X7623000Y-7078000D02*
X7441000D01*
Y-7171000D01*
X7638000D01*
Y-7078000D01*
X7607220D01*
G01X7512000Y-6646000D02*
X7533000D01*
G01X7567000Y-6647000D02*
X7588000D01*
G01X7533000Y-6622000D02*
Y-6676000D01*
G01X7567000Y-6622000D02*
Y-6676000D01*
G01X7602000Y-6594000D02*
X7449000D01*
Y-6705000D01*
X7651000D01*
Y-6594000D01*
X7602000D01*
G01X7382490Y-6699000D02*
G03I-13890J0D01*
G01X7602000Y-6204000D02*
X7449000D01*
Y-6315000D01*
X7651000D01*
Y-6204000D01*
X7602000D01*
G01X7512000Y-6516000D02*
X7533000D01*
G01X7567000Y-6517000D02*
X7588000D01*
G01X7533000Y-6492000D02*
Y-6546000D01*
G01X7567000Y-6492000D02*
Y-6546000D01*
G01X7602000Y-6464000D02*
X7449000D01*
Y-6575000D01*
X7651000D01*
Y-6464000D01*
X7602000D01*
G01X7512000Y-6386000D02*
X7533000D01*
G01X7567000Y-6387000D02*
X7588000D01*
G01X7533000Y-6362000D02*
Y-6416000D01*
G01X7567000Y-6362000D02*
Y-6416000D01*
G01X7602000Y-6334000D02*
X7449000D01*
Y-6445000D01*
X7651000D01*
Y-6334000D01*
X7602000D01*
G01X7512000Y-6256000D02*
X7533000D01*
G01X7567000Y-6257000D02*
X7588000D01*
G01X7533000Y-6286000D02*
Y-6232000D01*
X7567000D01*
Y-6286000D01*
X7533000D01*
G01X7414700Y-6036700D02*
Y-5862700D01*
X7336700D01*
Y-6050700D01*
X7414700D01*
Y-6036700D01*
G01X7470000Y-5503000D02*
Y-5726000D01*
X7625000D01*
Y-5474000D01*
X7470000D01*
Y-5503000D01*
G01X7290000D02*
Y-5726000D01*
X7445000D01*
Y-5474000D01*
X7290000D01*
Y-5503000D01*
G01X7577000Y-5412000D02*
X7759000D01*
Y-5319000D01*
X7562000D01*
Y-5412000D01*
X7592780D01*
G01X7547000Y-5631000D02*
Y-5612000D01*
G01Y-5585000D02*
Y-5566000D01*
G01X7520000Y-5612000D02*
X7579000D01*
G01X7519000Y-5585000D02*
X7578000D01*
G01X7367000Y-5631000D02*
Y-5612000D01*
G01Y-5585000D02*
Y-5566000D01*
G01X7340000Y-5612000D02*
X7399000D01*
G01X7339000Y-5585000D02*
X7398000D01*
G01X7577000Y-5262000D02*
X7759000D01*
Y-5169000D01*
X7562000D01*
Y-5262000D01*
X7592780D01*
G01X7290000Y-4913000D02*
Y-5136000D01*
X7445000D01*
Y-4884000D01*
X7290000D01*
Y-4913000D01*
G01X7470000D02*
Y-5136000D01*
X7625000D01*
Y-4884000D01*
X7470000D01*
Y-4913000D01*
G01X7569000Y-4785000D02*
Y-4670000D01*
G01X7508000Y-4786000D02*
Y-4671000D01*
G01X7343000Y-4830000D02*
X7785000D01*
Y-4628000D01*
X7310000D01*
Y-4830000D01*
X7378360D01*
G01X7367000Y-5041000D02*
Y-5022000D01*
G01Y-4995000D02*
Y-4976000D01*
G01X7340000Y-5022000D02*
X7399000D01*
G01X7339000Y-4995000D02*
X7398000D01*
G01X7547000Y-5041000D02*
Y-5022000D01*
G01Y-4995000D02*
Y-4976000D01*
G01X7520000Y-5022000D02*
X7579000D01*
G01X7519000Y-4995000D02*
X7578000D01*
G01X7569000Y-4727500D02*
X7669500D01*
X7671000Y-4726000D01*
G01X7508000Y-4728500D02*
X7428500D01*
X7426000Y-4731000D01*
G01X7401100Y-3661000D02*
X7575100D01*
Y-3583000D01*
X7387100D01*
Y-3661000D01*
X7401100D01*
G01X7562100Y-3678200D02*
X7388100D01*
Y-3756200D01*
X7576100D01*
Y-3678200D01*
X7562100D01*
G01X7642000Y-2927200D02*
Y-2753200D01*
X7564000D01*
Y-2941200D01*
X7642000D01*
Y-2927200D01*
G01X7614900Y-2717700D02*
Y-2543700D01*
X7536900D01*
Y-2731700D01*
X7614900D01*
Y-2717700D01*
G01X7520300D02*
Y-2543700D01*
X7442300D01*
Y-2731700D01*
X7520300D01*
Y-2717700D01*
G01X7425300D02*
Y-2543700D01*
X7347300D01*
Y-2731700D01*
X7425300D01*
Y-2717700D01*
G01X7272000Y-360200D02*
Y-534200D01*
X7350000D01*
Y-346200D01*
X7272000D01*
Y-360200D01*
G01X7396300D02*
Y-534200D01*
X7474300D01*
Y-346200D01*
X7396300D01*
Y-360200D01*
G01X7610100Y-721200D02*
Y-588200D01*
X7506100D01*
Y-734200D01*
X7610100D01*
Y-698980D01*
G01X7381000Y-571000D02*
Y-704000D01*
X7485000D01*
Y-558000D01*
X7381000D01*
Y-593220D01*
G01X7474300Y-313800D02*
Y-139800D01*
X7396300D01*
Y-327800D01*
X7474300D01*
Y-313800D01*
G01X7838300Y-7734300D02*
Y-7715300D01*
G01Y-7688300D02*
Y-7669300D01*
G01X7811300Y-7715300D02*
X7870300D01*
G01X7810300Y-7688300D02*
X7869300D01*
G01X7761300Y-7606300D02*
Y-7829300D01*
X7916300D01*
Y-7577300D01*
X7761300D01*
Y-7606300D01*
G01X7663000Y-7734300D02*
Y-7715300D01*
G01Y-7688300D02*
Y-7669300D01*
G01X7636000Y-7715300D02*
X7695000D01*
G01X7635000Y-7688300D02*
X7694000D01*
G01X7586000Y-7606300D02*
Y-7829300D01*
X7741000D01*
Y-7577300D01*
X7586000D01*
Y-7606300D01*
G01X8183650Y-6995660D02*
X7977880Y-7201430D01*
X7631400Y-6854950D01*
X7984950Y-6501400D01*
X8331430Y-6847880D01*
X8173120Y-7006190D01*
G01X7734000Y-6302000D02*
Y-6323000D01*
G01X7733000Y-6357000D02*
Y-6378000D01*
G01X7758000Y-6323000D02*
X7704000D01*
G01X7758000Y-6357000D02*
X7704000D01*
G01X7786000Y-6392000D02*
Y-6239000D01*
X7675000D01*
Y-6441000D01*
X7786000D01*
Y-6392000D01*
G01X7830000Y-5503000D02*
Y-5726000D01*
X7985000D01*
Y-5474000D01*
X7830000D01*
Y-5503000D01*
G01X7650000D02*
Y-5726000D01*
X7805000D01*
Y-5474000D01*
X7650000D01*
Y-5503000D01*
G01X7799000Y-5404000D02*
X7973000D01*
Y-5326000D01*
X7785000D01*
Y-5404000D01*
X7799000D01*
G01X7727000Y-5631000D02*
Y-5612000D01*
G01Y-5585000D02*
Y-5566000D01*
G01X7700000Y-5612000D02*
X7759000D01*
G01X7699000Y-5585000D02*
X7758000D01*
G01X7799000Y-5254000D02*
X7973000D01*
Y-5176000D01*
X7785000D01*
Y-5254000D01*
X7799000D01*
G01X7650000Y-4913000D02*
Y-5136000D01*
X7805000D01*
Y-4884000D01*
X7650000D01*
Y-4913000D01*
G01X7830000D02*
Y-5136000D01*
X7985000D01*
Y-4884000D01*
X7830000D01*
Y-4913000D01*
G01X7873000Y-4747000D02*
Y-4768000D01*
G01X7926000Y-4782000D02*
Y-4629000D01*
X7815000D01*
Y-4831000D01*
X7926000D01*
Y-4782000D01*
G01X7727000Y-5041000D02*
Y-5022000D01*
G01Y-4995000D02*
Y-4976000D01*
G01X7700000Y-5022000D02*
X7759000D01*
G01X7699000Y-4995000D02*
X7758000D01*
G01X7874000Y-4692000D02*
Y-4713000D01*
G01X7844000D02*
X7898000D01*
Y-4747000D01*
X7844000D01*
Y-4713000D01*
G01X7770400Y-3678200D02*
X7596400D01*
Y-3756200D01*
X7784400D01*
Y-3678200D01*
X7770400D01*
G01X7981900D02*
X7807900D01*
Y-3756200D01*
X7995900D01*
Y-3678200D01*
X7981900D01*
G01X7808400Y-3502000D02*
Y-3657000D01*
X7918400D01*
Y-3467000D01*
X7808400D01*
Y-3502000D01*
G01X7902200Y-2934000D02*
Y-2760000D01*
X7824200D01*
Y-2948000D01*
X7902200D01*
Y-2934000D01*
G01X7742000Y-2926500D02*
Y-2752500D01*
X7664000D01*
Y-2940500D01*
X7742000D01*
Y-2926500D01*
G01X7902200Y-2717700D02*
Y-2543700D01*
X7824200D01*
Y-2731700D01*
X7902200D01*
Y-2717700D01*
G01X7806100D02*
Y-2543700D01*
X7728100D01*
Y-2731700D01*
X7806100D01*
Y-2717700D01*
G01X7710500D02*
Y-2543700D01*
X7632500D01*
Y-2731700D01*
X7710500D01*
Y-2717700D01*
G01X7643900Y-360200D02*
Y-534200D01*
X7721900D01*
Y-346200D01*
X7643900D01*
Y-360200D01*
G01X7767200D02*
Y-534200D01*
X7845200D01*
Y-346200D01*
X7767200D01*
Y-360200D01*
G01X7874800Y-570200D02*
Y-703200D01*
X7978800D01*
Y-557200D01*
X7874800D01*
Y-592420D01*
G01X7754200Y-570200D02*
Y-703200D01*
X7858200D01*
Y-557200D01*
X7754200D01*
Y-592420D01*
G01X7634200Y-571000D02*
Y-704000D01*
X7738200D01*
Y-558000D01*
X7634200D01*
Y-593220D01*
G01X7845200Y-313800D02*
Y-139800D01*
X7767200D01*
Y-327800D01*
X7845200D01*
Y-313800D01*
G01X8012600Y-7734300D02*
Y-7715300D01*
G01Y-7688300D02*
Y-7669300D01*
G01X7985600Y-7715300D02*
X8044600D01*
G01X7984600Y-7688300D02*
X8043600D01*
G01X7935600Y-7606300D02*
Y-7829300D01*
X8090600D01*
Y-7577300D01*
X7935600D01*
Y-7606300D01*
G01X8116000Y-7149000D02*
Y-7323000D01*
X8194000D01*
Y-7135000D01*
X8116000D01*
Y-7149000D01*
G01X8024000Y-4952000D02*
Y-5739000D01*
X8498000D01*
Y-4884000D01*
X8024000D01*
Y-4952000D01*
G01X7907000Y-5631000D02*
Y-5612000D01*
G01Y-5585000D02*
Y-5566000D01*
G01X7880000Y-5612000D02*
X7939000D01*
G01X7879000Y-5585000D02*
X7938000D01*
G01X8013000Y-4747000D02*
Y-4768000D01*
G01X8066000Y-4782000D02*
Y-4629000D01*
X7955000D01*
Y-4831000D01*
X8066000D01*
Y-4782000D01*
G01X8153000Y-4747000D02*
Y-4768000D01*
G01X8206000Y-4782000D02*
Y-4629000D01*
X8095000D01*
Y-4831000D01*
X8206000D01*
Y-4782000D01*
G01X7907000Y-5041000D02*
Y-5022000D01*
G01Y-4995000D02*
Y-4976000D01*
G01X7880000Y-5022000D02*
X7939000D01*
G01X7879000Y-4995000D02*
X7938000D01*
G01X8077870Y-4911000D02*
G03I-26870J0D01*
G01X8014000Y-4692000D02*
Y-4713000D01*
G01X7984000D02*
X8038000D01*
Y-4747000D01*
X7984000D01*
Y-4713000D01*
G01X8154000Y-4692000D02*
Y-4713000D01*
G01X8178000D02*
X8124000D01*
G01X8178000Y-4747000D02*
X8124000D01*
G01X8180300Y-3244300D02*
Y-3070300D01*
X8102300D01*
Y-3258300D01*
X8180300D01*
Y-3244300D01*
G01X8054100D02*
Y-3070300D01*
X7976100D01*
Y-3258300D01*
X8054100D01*
Y-3244300D01*
G01X7999800Y-2934000D02*
Y-2760000D01*
X7921800D01*
Y-2948000D01*
X7999800D01*
Y-2934000D01*
G01X8192600D02*
Y-2760000D01*
X8114600D01*
Y-2948000D01*
X8192600D01*
Y-2934000D01*
G01X8191400Y-2717700D02*
Y-2543700D01*
X8113400D01*
Y-2731700D01*
X8191400D01*
Y-2717700D01*
G01X8018600Y-2556700D02*
Y-2730700D01*
X8096600D01*
Y-2542700D01*
X8018600D01*
Y-2556700D01*
G01X7921800D02*
Y-2730700D01*
X7999800D01*
Y-2542700D01*
X7921800D01*
Y-2556700D01*
G01X7889500Y-360200D02*
Y-534200D01*
X7967500D01*
Y-346200D01*
X7889500D01*
Y-360200D01*
G01X8306000Y-7049000D02*
Y-7223000D01*
X8384000D01*
Y-7035000D01*
X8306000D01*
Y-7049000D01*
G01X8303280Y-6847880D02*
G03I-29831J1D01*
G01X8293000Y-4747000D02*
Y-4768000D01*
G01X8346000Y-4782000D02*
Y-4629000D01*
X8235000D01*
Y-4831000D01*
X8346000D01*
Y-4782000D01*
G01X8294000Y-4692000D02*
Y-4713000D01*
G01X8318000D02*
X8264000D01*
G01X8318000Y-4747000D02*
X8264000D01*
G01X8288800Y-2934000D02*
Y-2760000D01*
X8210800D01*
Y-2948000D01*
X8288800D01*
Y-2934000D01*
G01X8306000Y-2773000D02*
Y-2947000D01*
X8384000D01*
Y-2759000D01*
X8306000D01*
Y-2773000D01*
G01X8479300Y-2717700D02*
Y-2543700D01*
X8401300D01*
Y-2731700D01*
X8479300D01*
Y-2717700D01*
G01X8384000D02*
Y-2543700D01*
X8306000D01*
Y-2731700D01*
X8384000D01*
Y-2717700D01*
G01X8210800Y-2556690D02*
Y-2730700D01*
X8288800Y-2730710D01*
Y-2542700D01*
X8210800Y-2542710D01*
Y-2556690D01*
G54D11*
G01X207100Y-7051500D02*
Y-7059000D01*
X207600Y-7059500D01*
G01X207100Y-7043500D02*
Y-7036000D01*
X206600Y-7035500D01*
G01X222600Y-7051500D02*
X191600D01*
Y-7043500D01*
X222600D01*
Y-7051500D01*
G01X332800D02*
Y-7059000D01*
X333300Y-7059500D01*
G01X332800Y-7043500D02*
Y-7036000D01*
X332300Y-7035500D01*
G01X317300Y-7051500D02*
X348300D01*
G01X317300Y-7043500D02*
X348300D01*
G01X711900Y-7044500D02*
Y-7037000D01*
X711400Y-7036500D01*
G01X711900Y-7052500D02*
Y-7060000D01*
X712400Y-7060500D01*
G01X696400Y-7044500D02*
X727400D01*
Y-7052500D01*
X696400D01*
Y-7044500D01*
G01X584400D02*
Y-7037000D01*
X583900Y-7036500D01*
G01X584400Y-7052500D02*
Y-7060000D01*
X584900Y-7060500D01*
G01X568900Y-7044500D02*
X599900D01*
Y-7052500D01*
X568900D01*
Y-7044500D01*
G01X663200Y-5054400D02*
Y-5046900D01*
X662700Y-5046400D01*
G01X663200Y-5062400D02*
Y-5069900D01*
X663700Y-5070400D01*
G01X647700Y-5054400D02*
X678700D01*
Y-5062400D01*
X647700D01*
Y-5054400D01*
G01X762800D02*
Y-5046900D01*
X762300Y-5046400D01*
G01X762800Y-5062400D02*
Y-5069900D01*
X763300Y-5070400D01*
G01X747300Y-5054400D02*
X778300D01*
Y-5062400D01*
X747300D01*
Y-5054400D01*
G01X1097100Y-7678000D02*
X1089600D01*
X1089100Y-7678500D01*
G01X964900Y-7044500D02*
Y-7037000D01*
X964400Y-7036500D01*
G01X964900Y-7052500D02*
Y-7060000D01*
X965400Y-7060500D01*
G01X980400Y-7044500D02*
X949400D01*
G01X980400Y-7052500D02*
X949400D01*
G01X865400Y-5061400D02*
Y-5068900D01*
X865900Y-5069400D01*
G01X865400Y-5053400D02*
Y-5045900D01*
X864900Y-5045400D01*
G01X880900Y-5061400D02*
X849900D01*
Y-5053400D01*
X880900D01*
Y-5061400D01*
G01X1078900Y-4736000D02*
Y-4728500D01*
X1078400Y-4728000D01*
G01X1078900Y-4744000D02*
Y-4751500D01*
X1079400Y-4752000D01*
G01X1063400Y-4736000D02*
X1094400D01*
Y-4744000D01*
X1063400D01*
Y-4736000D01*
G01X1105100Y-7678000D02*
X1112600D01*
X1113100Y-7677500D01*
G01X1097100Y-7662500D02*
Y-7693500D01*
G01X1105100Y-7662500D02*
Y-7693500D01*
G01X1333500Y-6436900D02*
X1341000D01*
X1341500Y-6436400D01*
G01X1325500Y-6436900D02*
X1318000D01*
X1317500Y-6437400D01*
G01X1333500Y-6452400D02*
Y-6421400D01*
G01X1325500Y-6452400D02*
Y-6421400D01*
G01X1396600Y-4229300D02*
Y-4236800D01*
X1397100Y-4237300D01*
G01X1396600Y-4221300D02*
Y-4213800D01*
X1396100Y-4213300D01*
G01X1381100Y-4229300D02*
X1412100D01*
G01X1381100Y-4221300D02*
X1412100D01*
G01X1580700Y-6284100D02*
Y-6276600D01*
X1580200Y-6276100D01*
G01X1580700Y-6292100D02*
Y-6299600D01*
X1581200Y-6300100D01*
G01X1565200Y-6284100D02*
X1596200D01*
Y-6292100D01*
X1565200D01*
Y-6284100D01*
G01X1435800Y-6137300D02*
X1443300D01*
X1443800Y-6136800D01*
G01X1427800Y-6137300D02*
X1420300D01*
X1419800Y-6137800D01*
G01X1435800Y-6152800D02*
Y-6121800D01*
G01X1427800Y-6152800D02*
Y-6121800D01*
G01X1680600Y-6284100D02*
Y-6276600D01*
X1680100Y-6276100D01*
G01X1680600Y-6292100D02*
Y-6299600D01*
X1681100Y-6300100D01*
G01X1696100Y-6284100D02*
X1665100D01*
G01X1696100Y-6292100D02*
X1665100D01*
G01X1636100Y-6036900D02*
X1643600D01*
X1644100Y-6036400D01*
G01X1628100Y-6036900D02*
X1620600D01*
X1620100Y-6037400D01*
G01X1636100Y-6052400D02*
Y-6021400D01*
G01X1628100Y-6052400D02*
Y-6021400D01*
G01X1428800Y-6240400D02*
X1421300D01*
X1420800Y-6240900D01*
G01X1436800Y-6240400D02*
X1444300D01*
X1444800Y-6239900D01*
G01X1428800Y-6224900D02*
Y-6255900D01*
G01X1436800Y-6224900D02*
Y-6255900D01*
G01X1536400Y-5837000D02*
X1543900D01*
X1544400Y-5836500D01*
G01X1528400Y-5837000D02*
X1520900D01*
X1520400Y-5837500D01*
G01X1536400Y-5852500D02*
Y-5821500D01*
G01X1528400Y-5852500D02*
Y-5821500D01*
G01X1436600Y-5737400D02*
X1444100D01*
X1444600Y-5736900D01*
G01X1428600Y-5737400D02*
X1421100D01*
X1420600Y-5737900D01*
G01X1436600Y-5752900D02*
Y-5721900D01*
G01X1428600Y-5752900D02*
Y-5721900D01*
G01X1536400Y-5932600D02*
X1543900D01*
X1544400Y-5932100D01*
G01X1528400Y-5932600D02*
X1520900D01*
X1520400Y-5933100D01*
G01X1536400Y-5948100D02*
Y-5917100D01*
G01X1528400Y-5948100D02*
Y-5917100D01*
G01X1436600Y-5537300D02*
X1444100D01*
X1444600Y-5536800D01*
G01X1428600Y-5537300D02*
X1421100D01*
X1420600Y-5537800D01*
G01X1436600Y-5552800D02*
Y-5521800D01*
G01X1428600Y-5552800D02*
Y-5521800D01*
G01X1436600Y-5437100D02*
X1444100D01*
X1444600Y-5436600D01*
G01X1428600Y-5437100D02*
X1421100D01*
X1420600Y-5437600D01*
G01X1436600Y-5452600D02*
Y-5421600D01*
G01X1428600Y-5452600D02*
Y-5421600D01*
G01X1436600Y-5637200D02*
X1444100D01*
X1444600Y-5636700D01*
G01X1428600Y-5637200D02*
X1421100D01*
X1420600Y-5637700D01*
G01X1436600Y-5652700D02*
Y-5621700D01*
G01X1428600Y-5652700D02*
Y-5621700D01*
G01X1436100Y-5237100D02*
X1443600D01*
X1444100Y-5236600D01*
G01X1428100Y-5237100D02*
X1420600D01*
X1420100Y-5237600D01*
G01X1436100Y-5252600D02*
Y-5221600D01*
G01X1428100Y-5252600D02*
Y-5221600D01*
G01X1435100Y-5136800D02*
X1442600D01*
X1443100Y-5136300D01*
G01X1427100Y-5136800D02*
X1419600D01*
X1419100Y-5137300D01*
G01X1435100Y-5152300D02*
Y-5121300D01*
G01X1427100Y-5152300D02*
Y-5121300D01*
G01X1436100Y-5337600D02*
X1443600D01*
X1444100Y-5337100D01*
G01X1428100Y-5337600D02*
X1420600D01*
X1420100Y-5338100D01*
G01X1436100Y-5353100D02*
Y-5322100D01*
G01X1428100Y-5353100D02*
Y-5322100D01*
G01X1680600Y-4984900D02*
Y-4977400D01*
X1680100Y-4976900D01*
G01X1680600Y-4992900D02*
Y-5000400D01*
X1681100Y-5000900D01*
G01X1696100Y-4984900D02*
X1665100D01*
G01X1696100Y-4992900D02*
X1665100D01*
G01X1428100Y-5040100D02*
X1420600D01*
X1420100Y-5040600D01*
G01X1436100Y-5040100D02*
X1443600D01*
X1444100Y-5039600D01*
G01X1428100Y-5024600D02*
Y-5055600D01*
G01X1436100Y-5024600D02*
Y-5055600D01*
G01X1436200Y-4737000D02*
X1443700D01*
X1444200Y-4736500D01*
G01X1428200Y-4737000D02*
X1420700D01*
X1420200Y-4737500D01*
G01X1436200Y-4752500D02*
Y-4721500D01*
G01X1428200Y-4752500D02*
Y-4721500D01*
G01X1528000Y-4640500D02*
X1520500D01*
X1520000Y-4641000D01*
G01X1536000Y-4640500D02*
X1543500D01*
X1544000Y-4640000D01*
G01X1528000Y-4625000D02*
Y-4656000D01*
G01X1536000Y-4625000D02*
Y-4656000D01*
G01X1491700Y-4229300D02*
Y-4236800D01*
X1492200Y-4237300D01*
G01X1491700Y-4221300D02*
Y-4213800D01*
X1491200Y-4213300D01*
G01X1476200Y-4229300D02*
X1507200D01*
G01X1476200Y-4221300D02*
X1507200D01*
G01X1935600Y-7780200D02*
Y-7772700D01*
X1935100Y-7772200D01*
G01X1935600Y-7788200D02*
Y-7795700D01*
X1936100Y-7796200D01*
G01X1951100Y-7780200D02*
X1920100D01*
G01X1951100Y-7788200D02*
X1920100D01*
G01X1751900Y-7491200D02*
X1759400D01*
X1759900Y-7490700D01*
G01X1743900Y-7491200D02*
X1736400D01*
X1735900Y-7491700D01*
G01X1751900Y-7506700D02*
Y-7475700D01*
G01X1743900Y-7506700D02*
Y-7475700D01*
G01X1779900Y-7013700D02*
X1787400D01*
X1787900Y-7013200D01*
G01X1771900Y-7013700D02*
X1764400D01*
X1763900Y-7014200D01*
G01X1779900Y-7029200D02*
Y-6998200D01*
G01X1771900Y-7029200D02*
Y-6998200D01*
G01X1880600Y-6084400D02*
Y-6076900D01*
X1880100Y-6076400D01*
G01X1880600Y-6092400D02*
Y-6099900D01*
X1881100Y-6100400D01*
G01X1896100Y-6084400D02*
X1865100D01*
G01X1896100Y-6092400D02*
X1865100D01*
G01X1783300Y-6291100D02*
Y-6298600D01*
X1783800Y-6299100D01*
G01X1783300Y-6283100D02*
Y-6275600D01*
X1782800Y-6275100D01*
G01X1767800Y-6291100D02*
X1798800D01*
G01X1767800Y-6283100D02*
X1798800D01*
G01X1983700Y-6291100D02*
Y-6298600D01*
X1984200Y-6299100D01*
G01X1983700Y-6283100D02*
Y-6275600D01*
X1983200Y-6275100D01*
G01X1968200Y-6291100D02*
X1999200D01*
G01X1968200Y-6283100D02*
X1999200D01*
G01X1936300Y-5737800D02*
X1943800D01*
X1944300Y-5737300D01*
G01X1928300Y-5737800D02*
X1920800D01*
X1920300Y-5738300D01*
G01X1936300Y-5753300D02*
Y-5722300D01*
G01X1928300Y-5753300D02*
Y-5722300D01*
G01X1936000Y-5937300D02*
X1943500D01*
X1944000Y-5936800D01*
G01X1928000Y-5937300D02*
X1920500D01*
X1920000Y-5937800D01*
G01X1936000Y-5952800D02*
Y-5921800D01*
G01X1928000Y-5952800D02*
Y-5921800D01*
G01X1936300Y-5637000D02*
X1943800D01*
X1944300Y-5636500D01*
G01X1928300Y-5637000D02*
X1920800D01*
X1920300Y-5637500D01*
G01X1936300Y-5652500D02*
Y-5621500D01*
G01X1928300Y-5652500D02*
Y-5621500D01*
G01X1936300Y-5537400D02*
X1943800D01*
X1944300Y-5536900D01*
G01X1928300Y-5537400D02*
X1920800D01*
X1920300Y-5537900D01*
G01X1936300Y-5552900D02*
Y-5521900D01*
G01X1928300Y-5552900D02*
Y-5521900D01*
G01X1936300Y-5437400D02*
X1943800D01*
X1944300Y-5436900D01*
G01X1928300Y-5437400D02*
X1920800D01*
X1920300Y-5437900D01*
G01X1936300Y-5452900D02*
Y-5421900D01*
G01X1928300Y-5452900D02*
Y-5421900D01*
G01X1936300Y-5237300D02*
X1943800D01*
X1944300Y-5236800D01*
G01X1928300Y-5237300D02*
X1920800D01*
X1920300Y-5237800D01*
G01X1936300Y-5252800D02*
Y-5221800D01*
G01X1928300Y-5252800D02*
Y-5221800D01*
G01X1936300Y-5137200D02*
X1943800D01*
X1944300Y-5136700D01*
G01X1928300Y-5137200D02*
X1920800D01*
X1920300Y-5137700D01*
G01X1936300Y-5152700D02*
Y-5121700D01*
G01X1928300Y-5152700D02*
Y-5121700D01*
G01X1936300Y-5337300D02*
X1943800D01*
X1944300Y-5336800D01*
G01X1928300Y-5337300D02*
X1920800D01*
X1920300Y-5337800D01*
G01X1936300Y-5352800D02*
Y-5321800D01*
G01X1928300Y-5352800D02*
Y-5321800D01*
G01X1980400Y-4785600D02*
Y-4778100D01*
X1979900Y-4777600D01*
G01X1980400Y-4793600D02*
Y-4801100D01*
X1980900Y-4801600D01*
G01X1964900Y-4785600D02*
X1995900D01*
Y-4793600D01*
X1964900D01*
Y-4785600D01*
G01X1936300Y-5037800D02*
X1943800D01*
X1944300Y-5037300D01*
G01X1928300Y-5037800D02*
X1920800D01*
X1920300Y-5038300D01*
G01X1936300Y-5053300D02*
Y-5022300D01*
G01X1928300Y-5053300D02*
Y-5022300D01*
G01X1783600Y-4892300D02*
Y-4899800D01*
X1784100Y-4900300D01*
G01X1783600Y-4884300D02*
Y-4876800D01*
X1783100Y-4876300D01*
G01X1768100Y-4892300D02*
X1799100D01*
G01X1768100Y-4884300D02*
X1799100D01*
G01X1882900Y-4892300D02*
Y-4899800D01*
X1883400Y-4900300D01*
G01X1882900Y-4884300D02*
Y-4876800D01*
X1882400Y-4876300D01*
G01X1867400Y-4892300D02*
X1898400D01*
G01X1867400Y-4884300D02*
X1898400D01*
G01X1741800Y-4637500D02*
X1749300D01*
X1749800Y-4637000D01*
G01X1733800Y-4637500D02*
X1726300D01*
X1725800Y-4638000D01*
G01X1741800Y-4653000D02*
Y-4622000D01*
G01X1733800Y-4653000D02*
Y-4622000D01*
G01X1837000Y-4229300D02*
Y-4236800D01*
X1837500Y-4237300D01*
G01X1837000Y-4221300D02*
Y-4213800D01*
X1836500Y-4213300D01*
G01X1821500Y-4229300D02*
X1852500D01*
G01X1821500Y-4221300D02*
X1852500D01*
G01X1934600Y-4229300D02*
Y-4236800D01*
X1935100Y-4237300D01*
G01X1934600Y-4221300D02*
Y-4213800D01*
X1934100Y-4213300D01*
G01X1919100Y-4229300D02*
X1950100D01*
G01X1919100Y-4221300D02*
X1950100D01*
G01X2122800Y-7780200D02*
Y-7772700D01*
X2122300Y-7772200D01*
G01X2122800Y-7788200D02*
Y-7795700D01*
X2123300Y-7796200D01*
G01X2138300Y-7780200D02*
X2107300D01*
G01X2138300Y-7788200D02*
X2107300D01*
G01X2220500Y-7780200D02*
Y-7772700D01*
X2220000Y-7772200D01*
G01X2220500Y-7788200D02*
Y-7795700D01*
X2221000Y-7796200D01*
G01X2236000Y-7780200D02*
X2205000D01*
G01X2236000Y-7788200D02*
X2205000D01*
G01X2237700Y-6789000D02*
Y-6796500D01*
X2238200Y-6797000D01*
G01X2237700Y-6781000D02*
Y-6773500D01*
X2237200Y-6773000D01*
G01X2222200Y-6789000D02*
X2253200D01*
G01X2222200Y-6781000D02*
X2253200D01*
G01X2130800Y-6789000D02*
Y-6796500D01*
X2131300Y-6797000D01*
G01X2130800Y-6781000D02*
Y-6773500D01*
X2130300Y-6773000D01*
G01X2115300Y-6789000D02*
X2146300D01*
G01X2115300Y-6781000D02*
X2146300D01*
G01X2319700Y-6789000D02*
X2350700D01*
G01X2319700Y-6781000D02*
X2350700D01*
G01X2180700Y-6084500D02*
Y-6077000D01*
X2180200Y-6076500D01*
G01X2180700Y-6092500D02*
Y-6100000D01*
X2181200Y-6100500D01*
G01X2165200Y-6084500D02*
X2196200D01*
Y-6092500D01*
X2165200D01*
Y-6084500D01*
G01X2083500Y-6291100D02*
Y-6298600D01*
X2084000Y-6299100D01*
G01X2083500Y-6283100D02*
Y-6275600D01*
X2083000Y-6275100D01*
G01X2068000Y-6291100D02*
X2099000D01*
G01X2068000Y-6283100D02*
X2099000D01*
G01X2280600Y-5784400D02*
Y-5776900D01*
X2280100Y-5776400D01*
G01X2280600Y-5792400D02*
Y-5799900D01*
X2281100Y-5800400D01*
G01X2296100Y-5784400D02*
X2265100D01*
G01X2296100Y-5792400D02*
X2265100D01*
G01X2180900Y-5784400D02*
Y-5776900D01*
X2180400Y-5776400D01*
G01X2180900Y-5792400D02*
Y-5799900D01*
X2181400Y-5800400D01*
G01X2196400Y-5784400D02*
X2165400D01*
G01X2196400Y-5792400D02*
X2165400D01*
G01X2080800Y-5784400D02*
Y-5776900D01*
X2080300Y-5776400D01*
G01X2080800Y-5792400D02*
Y-5799900D01*
X2081300Y-5800400D01*
G01X2096300Y-5784400D02*
X2065300D01*
G01X2096300Y-5792400D02*
X2065300D01*
G01X2083800Y-5092300D02*
Y-5099800D01*
X2084300Y-5100300D01*
G01X2083800Y-5084300D02*
Y-5076800D01*
X2083300Y-5076300D01*
G01X2068300Y-5092300D02*
X2099300D01*
G01X2068300Y-5084300D02*
X2099300D01*
G01X2327200Y-4836900D02*
X2319700D01*
X2319200Y-4837400D01*
G01X2036300Y-4936900D02*
X2043800D01*
X2044300Y-4936400D01*
G01X2028300Y-4936900D02*
X2020800D01*
X2020300Y-4937400D01*
G01X2036300Y-4921400D02*
Y-4952400D01*
X2028300D01*
Y-4921400D01*
X2036300D01*
G01X2328200Y-4940600D02*
X2320700D01*
X2320200Y-4941100D01*
G01X2228400Y-5040400D02*
X2220900D01*
X2220400Y-5040900D01*
G01X2236400Y-5040400D02*
X2243900D01*
X2244400Y-5039900D01*
G01X2228400Y-5024900D02*
Y-5055900D01*
G01X2236400Y-5024900D02*
Y-5055900D01*
G01X2328200Y-4740200D02*
X2320700D01*
X2320200Y-4740700D01*
G01X2083600Y-4693000D02*
Y-4700500D01*
X2084100Y-4701000D01*
G01X2083600Y-4685000D02*
Y-4677500D01*
X2083100Y-4677000D01*
G01X2099100Y-4693000D02*
X2068100D01*
Y-4685000D01*
X2099100D01*
Y-4693000D01*
G01X2083700Y-4492600D02*
Y-4500100D01*
X2084200Y-4500600D01*
G01X2083700Y-4484600D02*
Y-4477100D01*
X2083200Y-4476600D01*
G01X2099200Y-4492600D02*
X2068200D01*
Y-4484600D01*
X2099200D01*
Y-4492600D01*
G01X2183600D02*
Y-4500100D01*
X2184100Y-4500600D01*
G01X2183600Y-4484600D02*
Y-4477100D01*
X2183100Y-4476600D01*
G01X2199100Y-4492600D02*
X2168100D01*
Y-4484600D01*
X2199100D01*
Y-4492600D01*
G01X2586900Y-7780200D02*
Y-7772700D01*
X2586400Y-7772200D01*
G01X2586900Y-7788200D02*
Y-7795700D01*
X2587400Y-7796200D01*
G01X2602400Y-7780200D02*
X2571400D01*
G01X2602400Y-7788200D02*
X2571400D01*
G01X2335200Y-6789000D02*
Y-6796500D01*
X2335700Y-6797000D01*
G01X2335200Y-6781000D02*
Y-6773500D01*
X2334700Y-6773000D01*
G01X2628400Y-6037200D02*
X2620900D01*
X2620400Y-6037700D01*
G01X2628400Y-6052700D02*
Y-6021700D01*
G01X2583700Y-6291100D02*
Y-6298600D01*
X2584200Y-6299100D01*
G01X2583700Y-6283100D02*
Y-6275600D01*
X2583200Y-6275100D01*
G01X2568200Y-6291100D02*
X2599200D01*
G01X2568200Y-6283100D02*
X2599200D01*
G01X2483100Y-6291100D02*
Y-6298600D01*
X2483600Y-6299100D01*
G01X2483100Y-6283100D02*
Y-6275600D01*
X2482600Y-6275100D01*
G01X2467600Y-6291100D02*
X2498600D01*
G01X2467600Y-6283100D02*
X2498600D01*
G01X2480800Y-5784400D02*
Y-5776900D01*
X2480300Y-5776400D01*
G01X2480800Y-5792400D02*
Y-5799900D01*
X2481300Y-5800400D01*
G01X2496300Y-5784400D02*
X2465300D01*
G01X2496300Y-5792400D02*
X2465300D01*
G01X2380400Y-5784400D02*
Y-5776900D01*
X2379900Y-5776400D01*
G01X2380400Y-5792400D02*
Y-5799900D01*
X2380900Y-5800400D01*
G01X2395900Y-5784400D02*
X2364900D01*
G01X2395900Y-5792400D02*
X2364900D01*
G01X2629400Y-5939900D02*
X2621900D01*
X2621400Y-5940400D01*
G01X2629400Y-5924400D02*
Y-5955400D01*
G01X2628200Y-5640000D02*
X2620700D01*
X2620200Y-5640500D01*
G01X2628200Y-5624500D02*
Y-5655500D01*
G01X2628000Y-5540100D02*
X2620500D01*
X2620000Y-5540600D01*
G01X2628000Y-5524600D02*
Y-5555600D01*
G01Y-5440100D02*
X2620500D01*
X2620000Y-5440600D01*
G01X2628000Y-5424600D02*
Y-5455600D01*
G01X2435300Y-5140100D02*
X2427800D01*
X2427300Y-5140600D01*
G01X2443300Y-5140100D02*
X2450800D01*
X2451300Y-5139600D01*
G01X2435300Y-5155600D02*
Y-5124600D01*
X2443300D01*
Y-5155600D01*
X2435300D01*
G01X2628000Y-5340100D02*
X2620500D01*
X2620000Y-5340600D01*
G01X2628000Y-5324600D02*
Y-5355600D01*
G01Y-5240100D02*
X2620500D01*
X2620000Y-5240600D01*
G01X2628000Y-5224600D02*
Y-5255600D01*
G01X2442300Y-5037600D02*
X2449800D01*
X2450300Y-5037100D01*
G01X2434300Y-5037600D02*
X2426800D01*
X2426300Y-5038100D01*
G01X2442300Y-5022100D02*
Y-5053100D01*
X2434300D01*
Y-5022100D01*
X2442300D01*
G01X2335200Y-4836900D02*
X2342700D01*
X2343200Y-4836400D01*
G01X2335200Y-4821400D02*
Y-4852400D01*
X2327200D01*
Y-4821400D01*
X2335200D01*
G01X2336200Y-4940600D02*
X2343700D01*
X2344200Y-4940100D01*
G01X2328200Y-4925100D02*
Y-4956100D01*
G01X2336200Y-4925100D02*
Y-4956100D01*
G01Y-4740200D02*
X2343700D01*
X2344200Y-4739700D01*
G01X2328200Y-4755700D02*
Y-4724700D01*
X2336200D01*
Y-4755700D01*
X2328200D01*
G01X2486200Y-4729300D02*
Y-4721800D01*
X2485700Y-4721300D01*
G01X2486200Y-4737300D02*
Y-4744800D01*
X2486700Y-4745300D01*
G01X2470700Y-4729300D02*
X2501700D01*
Y-4737300D01*
X2470700D01*
Y-4729300D01*
G01X2583900D02*
Y-4721800D01*
X2583400Y-4721300D01*
G01X2583900Y-4737300D02*
Y-4744800D01*
X2584400Y-4745300D01*
G01X2568400Y-4729300D02*
X2599400D01*
Y-4737300D01*
X2568400D01*
Y-4729300D01*
G01X2510100Y-4229300D02*
Y-4236800D01*
X2510600Y-4237300D01*
G01X2510100Y-4221300D02*
Y-4213800D01*
X2509600Y-4213300D01*
G01X2494600Y-4229300D02*
X2525600D01*
G01X2494600Y-4221300D02*
X2525600D01*
G01X2412400Y-4229300D02*
Y-4236800D01*
X2412900Y-4237300D01*
G01X2412400Y-4221300D02*
Y-4213800D01*
X2411900Y-4213300D01*
G01X2396900Y-4229300D02*
X2427900D01*
G01X2396900Y-4221300D02*
X2427900D01*
G01X2770800Y-7575500D02*
X2763300D01*
X2762800Y-7576000D01*
G01X2778800Y-7575500D02*
X2786300D01*
X2786800Y-7575000D01*
G01X2770800Y-7560000D02*
Y-7591000D01*
G01X2778800Y-7560000D02*
Y-7591000D01*
G01X2770800Y-7481100D02*
X2763300D01*
X2762800Y-7481600D01*
G01X2778800Y-7481100D02*
X2786300D01*
X2786800Y-7480600D01*
G01X2770800Y-7465600D02*
Y-7496600D01*
G01X2778800Y-7465600D02*
Y-7496600D01*
G01X2742000Y-7100300D02*
Y-7092800D01*
X2741500Y-7092300D01*
G01X2742000Y-7108300D02*
Y-7115800D01*
X2742500Y-7116300D01*
G01X2757500Y-7100300D02*
X2726500D01*
G01X2757500Y-7108300D02*
X2726500D01*
G01X2742400Y-6628900D02*
Y-6621400D01*
X2741900Y-6620900D01*
G01X2742400Y-6636900D02*
Y-6644400D01*
X2742900Y-6644900D01*
G01X2726900Y-6628900D02*
X2757900D01*
Y-6636900D01*
X2726900D01*
Y-6628900D01*
G01X2745400Y-6899000D02*
Y-6906500D01*
X2745900Y-6907000D01*
G01X2745400Y-6891000D02*
Y-6883500D01*
X2744900Y-6883000D01*
G01X2760900Y-6899000D02*
X2729900D01*
Y-6891000D01*
X2760900D01*
Y-6899000D01*
G01X2636400Y-6037200D02*
X2643900D01*
X2644400Y-6036700D01*
G01X2636400Y-6052700D02*
Y-6021700D01*
G01X2783400Y-6291100D02*
Y-6298600D01*
X2783900Y-6299100D01*
G01X2783400Y-6283100D02*
Y-6275600D01*
X2782900Y-6275100D01*
G01X2767900Y-6291100D02*
X2798900D01*
G01X2767900Y-6283100D02*
X2798900D01*
G01X2935700Y-6136900D02*
X2943200D01*
X2943700Y-6136400D01*
G01X2927700Y-6136900D02*
X2920200D01*
X2919700Y-6137400D01*
G01X2935700Y-6152400D02*
Y-6121400D01*
G01X2927700Y-6152400D02*
Y-6121400D01*
G01X2637400Y-5939900D02*
X2644900D01*
X2645400Y-5939400D01*
G01X2637400Y-5924400D02*
Y-5955400D01*
G01X2928700Y-5939900D02*
X2921200D01*
X2920700Y-5940400D01*
G01X2936700Y-5939900D02*
X2944200D01*
X2944700Y-5939400D01*
G01X2928700Y-5924400D02*
Y-5955400D01*
G01X2936700Y-5924400D02*
Y-5955400D01*
G01X2727600Y-5740200D02*
X2720100D01*
X2719600Y-5740700D01*
G01X2735600Y-5740200D02*
X2743100D01*
X2743600Y-5739700D01*
G01X2727600Y-5724700D02*
Y-5755700D01*
G01X2735600Y-5724700D02*
Y-5755700D01*
G01X2636200Y-5640000D02*
X2643700D01*
X2644200Y-5639500D01*
G01X2636200Y-5624500D02*
Y-5655500D01*
G01X2636000Y-5540100D02*
X2643500D01*
X2644000Y-5539600D01*
G01X2636000Y-5524600D02*
Y-5555600D01*
G01Y-5440100D02*
X2643500D01*
X2644000Y-5439600D01*
G01X2636000Y-5424600D02*
Y-5455600D01*
G01Y-5340100D02*
X2643500D01*
X2644000Y-5339600D01*
G01X2636000Y-5324600D02*
Y-5355600D01*
G01Y-5240100D02*
X2643500D01*
X2644000Y-5239600D01*
G01X2636000Y-5224600D02*
Y-5255600D01*
G01X2886200Y-5305400D02*
Y-5297900D01*
X2885700Y-5297400D01*
G01X2886200Y-5313400D02*
Y-5320900D01*
X2886700Y-5321400D01*
G01X2901700Y-5305400D02*
X2870700D01*
G01X2901700Y-5313400D02*
X2870700D01*
G01X2783100Y-4890500D02*
Y-4898000D01*
X2783600Y-4898500D01*
G01X2783100Y-4882500D02*
Y-4875000D01*
X2782600Y-4874500D01*
G01X2767600Y-4890500D02*
X2798600D01*
G01X2767600Y-4882500D02*
X2798600D01*
G01X2880500Y-4467700D02*
Y-4460200D01*
X2880000Y-4459700D01*
G01X2880500Y-4475700D02*
Y-4483200D01*
X2881000Y-4483700D01*
G01X2865000Y-4467700D02*
X2896000D01*
Y-4475700D01*
X2865000D01*
Y-4467700D01*
G01X2684900Y-4736300D02*
Y-4743800D01*
X2685400Y-4744300D01*
G01X2684900Y-4728300D02*
Y-4720800D01*
X2684400Y-4720300D01*
G01X2700400Y-4736300D02*
X2669400D01*
Y-4728300D01*
X2700400D01*
Y-4736300D01*
G01X2883500Y-4692700D02*
Y-4700200D01*
X2884000Y-4700700D01*
G01X2883500Y-4684700D02*
Y-4677200D01*
X2883000Y-4676700D01*
G01X2868000Y-4692700D02*
X2899000D01*
G01X2868000Y-4684700D02*
X2899000D01*
G01X2839400Y-4229300D02*
Y-4236800D01*
X2839900Y-4237300D01*
G01X2839400Y-4221300D02*
Y-4213800D01*
X2838900Y-4213300D01*
G01X2823900Y-4229300D02*
X2854900D01*
G01X2823900Y-4221300D02*
X2854900D01*
G01X2937100Y-4229300D02*
Y-4236800D01*
X2937600Y-4237300D01*
G01X2937100Y-4221300D02*
Y-4213800D01*
X2936600Y-4213300D01*
G01X2921600Y-4229300D02*
X2952600D01*
G01X2921600Y-4221300D02*
X2952600D01*
G01X3236900Y-7315100D02*
X3229400D01*
X3228900Y-7315600D01*
G01X3244900Y-7315100D02*
X3252400D01*
X3252900Y-7314600D01*
G01X3236900Y-7330600D02*
Y-7299600D01*
X3244900D01*
Y-7330600D01*
X3236900D01*
G01X2965100Y-7312100D02*
X2972600D01*
X2973100Y-7311600D01*
G01X2957100Y-7312100D02*
X2949600D01*
X2949100Y-7312600D01*
G01X2965100Y-7327600D02*
Y-7296600D01*
G01X2957100Y-7327600D02*
Y-7296600D01*
G01X3236000Y-6337100D02*
X3243500D01*
X3244000Y-6336600D01*
G01X3228000Y-6337100D02*
X3220500D01*
X3220000Y-6337600D01*
G01X3236000Y-6321600D02*
Y-6352600D01*
X3228000D01*
Y-6321600D01*
X3236000D01*
G01Y-6137100D02*
X3243500D01*
X3244000Y-6136600D01*
G01X3228000Y-6137100D02*
X3220500D01*
X3220000Y-6137600D01*
G01X3236000Y-6121600D02*
Y-6152600D01*
X3228000D01*
Y-6121600D01*
X3236000D01*
G01Y-6237300D02*
X3243500D01*
X3244000Y-6236800D01*
G01X3228000Y-6237300D02*
X3220500D01*
X3220000Y-6237800D01*
G01X3236000Y-6221800D02*
Y-6252800D01*
X3228000D01*
Y-6221800D01*
X3236000D01*
G01X3128200Y-5440200D02*
X3120700D01*
X3120200Y-5440700D01*
G01X3136200Y-5440200D02*
X3143700D01*
X3144200Y-5439700D01*
G01X3128200Y-5424700D02*
Y-5455700D01*
G01X3136200Y-5424700D02*
Y-5455700D01*
G01X3128200Y-5640200D02*
X3120700D01*
X3120200Y-5640700D01*
G01X3136200Y-5640200D02*
X3143700D01*
X3144200Y-5639700D01*
G01X3128200Y-5624700D02*
Y-5655700D01*
G01X3136200Y-5624700D02*
Y-5655700D01*
G01X3228300Y-5240400D02*
X3220800D01*
X3220300Y-5240900D01*
G01X3236300Y-5240400D02*
X3243800D01*
X3244300Y-5239900D01*
G01X3228300Y-5224900D02*
Y-5255900D01*
G01X3236300Y-5224900D02*
Y-5255900D01*
G01X3128200Y-5340300D02*
X3120700D01*
X3120200Y-5340800D01*
G01X3136200Y-5340300D02*
X3143700D01*
X3144200Y-5339800D01*
G01X3128200Y-5324800D02*
Y-5355800D01*
G01X3136200Y-5324800D02*
Y-5355800D01*
G01X3128000Y-4840100D02*
X3120500D01*
X3120000Y-4840600D01*
G01X3136000Y-4840100D02*
X3143500D01*
X3144000Y-4839600D01*
G01X3128000Y-4824600D02*
Y-4855600D01*
G01X3136000Y-4824600D02*
Y-4855600D01*
G01X3128200Y-5040500D02*
X3120700D01*
X3120200Y-5041000D01*
G01X3136200Y-5040500D02*
X3143700D01*
X3144200Y-5040000D01*
G01X3128200Y-5025000D02*
Y-5056000D01*
G01X3136200Y-5025000D02*
Y-5056000D01*
G01X3027800Y-4940100D02*
X3020300D01*
X3019800Y-4940600D01*
G01X3035800Y-4940100D02*
X3043300D01*
X3043800Y-4939600D01*
G01X3027800Y-4924600D02*
Y-4955600D01*
G01X3035800Y-4924600D02*
Y-4955600D01*
G01X3180000Y-4229300D02*
Y-4236800D01*
X3180500Y-4237300D01*
G01X3180000Y-4221300D02*
Y-4213800D01*
X3179500Y-4213300D01*
G01X3164500Y-4229300D02*
X3195500D01*
G01X3164500Y-4221300D02*
X3195500D01*
G01X3283800Y-5892800D02*
Y-5900300D01*
X3284300Y-5900800D01*
G01X3283800Y-5884800D02*
Y-5877300D01*
X3283300Y-5876800D01*
G01X3268300Y-5892800D02*
X3299300D01*
G01X3268300Y-5884800D02*
X3299300D01*
G01X3561500Y-4987800D02*
X3554000D01*
X3553500Y-4988300D01*
G01X3276100Y-4229300D02*
Y-4236800D01*
X3276600Y-4237300D01*
G01X3276100Y-4221300D02*
Y-4213800D01*
X3275600Y-4213300D01*
G01X3260600Y-4229300D02*
X3291600D01*
G01X3260600Y-4221300D02*
X3291600D01*
G01X3586100Y-5757600D02*
X3578600D01*
X3578100Y-5758100D01*
G01X3594100Y-5757600D02*
X3601600D01*
X3602100Y-5757100D01*
G01X3586100Y-5742100D02*
Y-5773100D01*
G01X3594100Y-5742100D02*
Y-5773100D01*
G01X3593100Y-5619400D02*
X3600600D01*
X3601100Y-5618900D01*
G01X3585100Y-5619400D02*
X3577600D01*
X3577100Y-5619900D01*
G01X3593100Y-5634900D02*
Y-5603900D01*
G01X3585100Y-5634900D02*
Y-5603900D01*
G01X3805600Y-5182900D02*
X3798100D01*
X3797600Y-5183400D01*
G01X3813600Y-5182900D02*
X3821100D01*
X3821600Y-5182400D01*
G01X3805600Y-5167400D02*
Y-5198400D01*
G01X3813600Y-5167400D02*
Y-5198400D01*
G01X3593100Y-5179900D02*
X3600600D01*
X3601100Y-5179400D01*
G01X3585100Y-5179900D02*
X3577600D01*
X3577100Y-5180400D01*
G01X3593100Y-5195400D02*
Y-5164400D01*
G01X3585100Y-5195400D02*
Y-5164400D01*
G01X3569500Y-4987800D02*
X3577000D01*
X3577500Y-4987300D01*
G01X3569500Y-5003300D02*
Y-4972300D01*
G01X3561500Y-5003300D02*
Y-4972300D01*
G01X3778000Y-4790100D02*
X3770500D01*
X3770000Y-4790600D01*
G01X3786000Y-4790100D02*
X3793500D01*
X3794000Y-4789600D01*
G01X3778000Y-4774600D02*
Y-4805600D01*
G01X3786000Y-4774600D02*
Y-4805600D01*
G01X4476500Y-6008300D02*
X4507500D01*
Y-6016300D01*
X4476500D01*
Y-6008300D01*
G01X4622000Y-7073000D02*
Y-7080500D01*
X4622500Y-7081000D01*
G01X4622000Y-7065000D02*
Y-7057500D01*
X4621500Y-7057000D01*
G01X4637500Y-7073000D02*
X4606500D01*
Y-7065000D01*
X4637500D01*
Y-7073000D01*
G01X4524300D02*
Y-7080500D01*
X4524800Y-7081000D01*
G01X4524300Y-7065000D02*
Y-7057500D01*
X4523800Y-7057000D01*
G01X4539800Y-7073000D02*
X4508800D01*
Y-7065000D01*
X4539800D01*
Y-7073000D01*
G01X4717800Y-7169900D02*
Y-7177400D01*
X4718300Y-7177900D01*
G01X4717800Y-7161900D02*
Y-7154400D01*
X4717300Y-7153900D01*
G01X4702300Y-7169900D02*
X4733300D01*
G01X4702300Y-7161900D02*
X4733300D01*
G01X4589600Y-6008300D02*
Y-6000800D01*
X4589100Y-6000300D01*
G01X4589600Y-6016300D02*
Y-6023800D01*
X4590100Y-6024300D01*
G01X4574100Y-6008300D02*
X4605100D01*
Y-6016300D01*
X4574100D01*
Y-6008300D01*
G01X4785400D02*
Y-6000800D01*
X4784900Y-6000300D01*
G01X4785400Y-6016300D02*
Y-6023800D01*
X4785900Y-6024300D01*
G01X4769900Y-6008300D02*
X4800900D01*
Y-6016300D01*
X4769900D01*
Y-6008300D01*
G01X4492000D02*
Y-6000800D01*
X4491500Y-6000300D01*
G01X4492000Y-6016300D02*
Y-6023800D01*
X4492500Y-6024300D01*
G01X4688300Y-6008300D02*
Y-6000800D01*
X4687800Y-6000300D01*
G01X4688300Y-6016300D02*
Y-6023800D01*
X4688800Y-6024300D01*
G01X4672800Y-6008300D02*
X4703800D01*
Y-6016300D01*
X4672800D01*
Y-6008300D01*
G01X4680700Y-5391900D02*
X4673200D01*
X4672700Y-5392400D01*
G01X4688700Y-5391900D02*
X4696200D01*
X4696700Y-5391400D01*
G01X4680700Y-5407400D02*
Y-5376400D01*
X4688700D01*
Y-5407400D01*
X4680700D01*
G01X4526300Y-3238900D02*
Y-3246400D01*
X4526800Y-3246900D01*
G01X4526300Y-3230900D02*
Y-3223400D01*
X4525800Y-3222900D01*
G01X4541800Y-3238900D02*
X4510800D01*
Y-3230900D01*
X4541800D01*
Y-3238900D01*
G01X4620900D02*
Y-3246400D01*
X4621400Y-3246900D01*
G01X4620900Y-3230900D02*
Y-3223400D01*
X4620400Y-3222900D01*
G01X4636400Y-3238900D02*
X4605400D01*
Y-3230900D01*
X4636400D01*
Y-3238900D01*
G01X4526300Y-3029200D02*
Y-3036700D01*
X4526800Y-3037200D01*
G01X4526300Y-3021200D02*
Y-3013700D01*
X4525800Y-3013200D01*
G01X4541800Y-3029200D02*
X4510800D01*
Y-3021200D01*
X4541800D01*
Y-3029200D01*
G01X4620900D02*
Y-3036700D01*
X4621400Y-3037200D01*
G01X4620900Y-3021200D02*
Y-3013700D01*
X4620400Y-3013200D01*
G01X4605400Y-3029200D02*
X4636400D01*
G01X4605400Y-3021200D02*
X4636400D01*
G01X4620900Y-2819200D02*
Y-2826700D01*
X4621400Y-2827200D01*
G01X4620900Y-2811200D02*
Y-2803700D01*
X4620400Y-2803200D01*
G01X4636400Y-2819200D02*
X4605400D01*
Y-2811200D01*
X4636400D01*
Y-2819200D01*
G01X4526300D02*
Y-2826700D01*
X4526800Y-2827200D01*
G01X4526300Y-2811200D02*
Y-2803700D01*
X4525800Y-2803200D01*
G01X4510800Y-2819200D02*
X4541800D01*
G01X4510800Y-2811200D02*
X4541800D01*
G01X4871300Y-7390400D02*
X4878800D01*
X4879300Y-7389900D01*
G01X4863300Y-7390400D02*
X4855800D01*
X4855300Y-7390900D01*
G01X4871300Y-7374900D02*
Y-7405900D01*
X4863300D01*
Y-7374900D01*
X4871300D01*
G01X5086000Y-7390400D02*
X5093500D01*
X5094000Y-7389900D01*
G01X5078000Y-7390400D02*
X5070500D01*
X5070000Y-7390900D01*
G01X5086000Y-7374900D02*
Y-7405900D01*
X5078000D01*
Y-7374900D01*
X5086000D01*
G01X4813900Y-7169900D02*
Y-7177400D01*
X4814400Y-7177900D01*
G01X4813900Y-7161900D02*
Y-7154400D01*
X4813400Y-7153900D01*
G01X4829400Y-7169900D02*
X4798400D01*
Y-7161900D01*
X4829400D01*
Y-7169900D01*
G01X4913100D02*
Y-7177400D01*
X4913600Y-7177900D01*
G01X4913100Y-7161900D02*
Y-7154400D01*
X4912600Y-7153900D01*
G01X4928600Y-7169900D02*
X4897600D01*
Y-7161900D01*
X4928600D01*
Y-7169900D01*
G01X5010800Y-7073000D02*
Y-7080500D01*
X5011300Y-7081000D01*
G01X5010800Y-7065000D02*
Y-7057500D01*
X5010300Y-7057000D01*
G01X4995300Y-7073000D02*
X5026300D01*
G01X4995300Y-7065000D02*
X5026300D01*
G01X4853400Y-7016100D02*
X4845900D01*
X4845400Y-7016600D01*
G01X4861400Y-7016100D02*
X4868900D01*
X4869400Y-7015600D01*
G01X4853400Y-7000600D02*
Y-7031600D01*
G01X4861400Y-7000600D02*
Y-7031600D01*
G01X4974100Y-6009500D02*
Y-6002000D01*
X4973600Y-6001500D01*
G01X4974100Y-6017500D02*
Y-6025000D01*
X4974600Y-6025500D01*
G01X4958600Y-6009500D02*
X4989600D01*
Y-6017500D01*
X4958600D01*
Y-6009500D01*
G01X4881100Y-6009000D02*
Y-6001500D01*
X4880600Y-6001000D01*
G01X4881100Y-6017000D02*
Y-6024500D01*
X4881600Y-6025000D01*
G01X4865600Y-6009000D02*
X4896600D01*
Y-6017000D01*
X4865600D01*
Y-6009000D01*
G01X5085300Y-5698800D02*
X5092800D01*
X5093300Y-5698300D01*
G01X5077300Y-5698800D02*
X5069800D01*
X5069300Y-5699300D01*
G01X5085300Y-5683300D02*
Y-5714300D01*
X5077300D01*
Y-5683300D01*
X5085300D01*
G01Y-5602500D02*
X5092800D01*
X5093300Y-5602000D01*
G01X5077300Y-5602500D02*
X5069800D01*
X5069300Y-5603000D01*
G01X5085300Y-5587000D02*
Y-5618000D01*
X5077300D01*
Y-5587000D01*
X5085300D01*
G01Y-5506900D02*
X5092800D01*
X5093300Y-5506400D01*
G01X5077300Y-5506900D02*
X5069800D01*
X5069300Y-5507400D01*
G01X5085300Y-5491400D02*
Y-5522400D01*
X5077300D01*
Y-5491400D01*
X5085300D01*
G01Y-5409400D02*
X5092800D01*
X5093300Y-5408900D01*
G01X5077300Y-5409400D02*
X5069800D01*
X5069300Y-5409900D01*
G01X5085300Y-5393900D02*
Y-5424900D01*
X5077300D01*
Y-5393900D01*
X5085300D01*
G01Y-5313200D02*
X5092800D01*
X5093300Y-5312700D01*
G01X5077300Y-5313200D02*
X5069800D01*
X5069300Y-5313700D01*
G01X5085300Y-5297700D02*
Y-5328700D01*
X5077300D01*
Y-5297700D01*
X5085300D01*
G01X5085200Y-5217600D02*
X5092700D01*
X5093200Y-5217100D01*
G01X5077200Y-5217600D02*
X5069700D01*
X5069200Y-5218100D01*
G01X5085200Y-5202100D02*
Y-5233100D01*
X5077200D01*
Y-5202100D01*
X5085200D01*
G01X5036500Y-4783000D02*
Y-4790500D01*
X5037000Y-4791000D01*
G01X5036500Y-4775000D02*
Y-4767500D01*
X5036000Y-4767000D01*
G01X5021000Y-4783000D02*
X5052000D01*
G01X5021000Y-4775000D02*
X5052000D01*
G01X4910700Y-2999300D02*
X4903200D01*
X4902700Y-2999800D01*
G01X4918700Y-2999300D02*
X4926200D01*
X4926700Y-2998800D01*
G01X4910700Y-2983800D02*
Y-3014800D01*
G01X4918700Y-2983800D02*
Y-3014800D01*
G01X4910700Y-2650000D02*
X4903200D01*
X4902700Y-2650500D01*
G01X4918700Y-2650000D02*
X4926200D01*
X4926700Y-2649500D01*
G01X4910700Y-2634500D02*
Y-2665500D01*
G01X4918700Y-2634500D02*
Y-2665500D01*
G01X4994000Y-1694800D02*
Y-1702300D01*
X4994500Y-1702800D01*
G01X4994000Y-1686800D02*
Y-1679300D01*
X4993500Y-1678800D01*
G01X5009500Y-1694800D02*
X4978500D01*
Y-1686800D01*
X5009500D01*
Y-1694800D01*
G01X4990900Y-1894000D02*
Y-1886500D01*
X4990400Y-1886000D01*
G01X4990900Y-1902000D02*
Y-1909500D01*
X4991400Y-1910000D01*
G01X4975400Y-1894000D02*
X5006400D01*
Y-1902000D01*
X4975400D01*
Y-1894000D01*
G01X5203500Y-7066000D02*
Y-7058500D01*
X5203000Y-7058000D01*
G01X5203500Y-7074000D02*
Y-7081500D01*
X5204000Y-7082000D01*
G01X5219000Y-7066000D02*
X5188000D01*
G01X5219000Y-7074000D02*
X5188000D01*
G01X5140700Y-6732200D02*
Y-6724700D01*
X5140200Y-6724200D01*
G01X5140700Y-6740200D02*
Y-6747700D01*
X5141200Y-6748200D01*
G01X5156200Y-6732200D02*
X5125200D01*
G01X5156200Y-6740200D02*
X5125200D01*
G01X5199400Y-6362100D02*
X5206900D01*
X5207400Y-6361600D01*
G01X5191400Y-6362100D02*
X5183900D01*
X5183400Y-6362600D01*
G01X5199400Y-6377600D02*
Y-6346600D01*
G01X5191400Y-6377600D02*
Y-6346600D01*
G01X5135100Y-4776000D02*
Y-4768500D01*
X5134600Y-4768000D01*
G01X5135100Y-4784000D02*
Y-4791500D01*
X5135600Y-4792000D01*
G01X5119600Y-4776000D02*
X5150600D01*
Y-4784000D01*
X5119600D01*
Y-4776000D01*
G01X5403900Y-4651300D02*
X5396400D01*
X5395900Y-4651800D01*
G01X5403900Y-4666800D02*
Y-4635800D01*
G01Y-4333500D02*
X5396400D01*
X5395900Y-4334000D01*
G01X5403900Y-4349000D02*
Y-4318000D01*
G01X5208900Y-3255500D02*
Y-3263000D01*
X5209400Y-3263500D01*
G01X5208900Y-3247500D02*
Y-3240000D01*
X5208400Y-3239500D01*
G01X5193400Y-3255500D02*
X5224400D01*
G01X5193400Y-3247500D02*
X5224400D01*
G01X5303500Y-3255500D02*
Y-3263000D01*
X5304000Y-3263500D01*
G01X5303500Y-3247500D02*
Y-3240000D01*
X5303000Y-3239500D01*
G01X5288000Y-3255500D02*
X5319000D01*
G01X5288000Y-3247500D02*
X5319000D01*
G01X5357500Y-2404600D02*
Y-2397100D01*
X5357000Y-2396600D01*
G01X5357500Y-2412600D02*
Y-2420100D01*
X5358000Y-2420600D01*
G01X5373000Y-2404600D02*
X5342000D01*
G01X5373000Y-2412600D02*
X5342000D01*
G01X5357400Y-286400D02*
X5349900D01*
X5349400Y-286900D01*
G01X5365400Y-286400D02*
X5372900D01*
X5373400Y-285900D01*
G01X5357400Y-301900D02*
Y-270900D01*
X5365400D01*
Y-301900D01*
X5357400D01*
G01X5593900Y-6796500D02*
X5586400D01*
X5585900Y-6797000D01*
G01X5601900Y-6796500D02*
X5609400D01*
X5609900Y-6796000D01*
G01X5593900Y-6812000D02*
Y-6781000D01*
X5601900D01*
Y-6812000D01*
X5593900D01*
G01X5589500Y-5951100D02*
Y-5943600D01*
X5589000Y-5943100D01*
G01X5589500Y-5959100D02*
Y-5966600D01*
X5590000Y-5967100D01*
G01X5574000Y-5951100D02*
X5605000D01*
Y-5959100D01*
X5574000D01*
Y-5951100D01*
G01X5631100Y-5800100D02*
X5623600D01*
X5623100Y-5800600D01*
G01X5639100Y-5800100D02*
X5646600D01*
X5647100Y-5799600D01*
G01X5631100Y-5815600D02*
Y-5784600D01*
X5639100D01*
Y-5815600D01*
X5631100D01*
G01Y-5705000D02*
X5623600D01*
X5623100Y-5705500D01*
G01X5639100Y-5705000D02*
X5646600D01*
X5647100Y-5704500D01*
G01X5631100Y-5720500D02*
Y-5689500D01*
X5639100D01*
Y-5720500D01*
X5631100D01*
G01X5693600Y-5951100D02*
Y-5943600D01*
X5693100Y-5943100D01*
G01X5693600Y-5959100D02*
Y-5966600D01*
X5694100Y-5967100D01*
G01X5709100Y-5951100D02*
X5678100D01*
G01X5709100Y-5959100D02*
X5678100D01*
G01X5492500Y-5958100D02*
Y-5965600D01*
X5493000Y-5966100D01*
G01X5492500Y-5950100D02*
Y-5942600D01*
X5492000Y-5942100D01*
G01X5477000Y-5958100D02*
X5508000D01*
G01X5477000Y-5950100D02*
X5508000D01*
G01X5631100Y-5509200D02*
X5623600D01*
X5623100Y-5509700D01*
G01X5639100Y-5509200D02*
X5646600D01*
X5647100Y-5508700D01*
G01X5631100Y-5524700D02*
Y-5493700D01*
X5639100D01*
Y-5524700D01*
X5631100D01*
G01Y-5411000D02*
X5623600D01*
X5623100Y-5411500D01*
G01X5639100Y-5411000D02*
X5646600D01*
X5647100Y-5410500D01*
G01X5631100Y-5426500D02*
Y-5395500D01*
X5639100D01*
Y-5426500D01*
X5631100D01*
G01X5638100Y-5605600D02*
X5645600D01*
X5646100Y-5605100D01*
G01X5630100Y-5605600D02*
X5622600D01*
X5622100Y-5606100D01*
G01X5638100Y-5621100D02*
Y-5590100D01*
G01X5630100Y-5621100D02*
Y-5590100D01*
G01X5631100Y-5314400D02*
X5623600D01*
X5623100Y-5314900D01*
G01X5639100Y-5314400D02*
X5646600D01*
X5647100Y-5313900D01*
G01X5631100Y-5298900D02*
Y-5329900D01*
G01X5639100Y-5298900D02*
Y-5329900D01*
G01X5411900Y-4651300D02*
X5419400D01*
X5419900Y-4650800D01*
G01X5411900Y-4666800D02*
Y-4635800D01*
G01Y-4333500D02*
X5419400D01*
X5419900Y-4333000D01*
G01X5411900Y-4349000D02*
Y-4318000D01*
G01X5457200Y-2411600D02*
Y-2419100D01*
X5457700Y-2419600D01*
G01X5457200Y-2403600D02*
Y-2396100D01*
X5456700Y-2395600D01*
G01X5441700Y-2411600D02*
X5472700D01*
G01X5441700Y-2403600D02*
X5472700D01*
G01X5572900Y-2182900D02*
X5580400D01*
X5580900Y-2182400D01*
G01X5564900Y-2182900D02*
X5557400D01*
X5556900Y-2183400D01*
G01X5572900Y-2198400D02*
Y-2167400D01*
G01X5564900Y-2198400D02*
Y-2167400D01*
G01X5573600Y-2087700D02*
X5581100D01*
X5581600Y-2087200D01*
G01X5565600Y-2087700D02*
X5558100D01*
X5557600Y-2088200D01*
G01X5573600Y-2103200D02*
Y-2072200D01*
G01X5565600Y-2103200D02*
Y-2072200D01*
G01X5644100Y-1687800D02*
Y-1680300D01*
X5643600Y-1679800D01*
G01X5644100Y-1695800D02*
Y-1703300D01*
X5644600Y-1703800D01*
G01X5628600Y-1687800D02*
X5659600D01*
Y-1695800D01*
X5628600D01*
Y-1687800D01*
G01X5647100Y-1901000D02*
Y-1908500D01*
X5647600Y-1909000D01*
G01X5647100Y-1893000D02*
Y-1885500D01*
X5646600Y-1885000D01*
G01X5662600Y-1901000D02*
X5631600D01*
Y-1893000D01*
X5662600D01*
Y-1901000D01*
G01X5463700Y-1228700D02*
X5456200D01*
X5455700Y-1229200D01*
G01X5471700Y-1228700D02*
X5479200D01*
X5479700Y-1228200D01*
G01X5463700Y-1244200D02*
Y-1213200D01*
X5471700D01*
Y-1244200D01*
X5463700D01*
G01X5658800Y-513000D02*
X5651300D01*
X5650800Y-513500D01*
G01X5666800Y-513000D02*
X5674300D01*
X5674800Y-512500D01*
G01X5658800Y-528500D02*
Y-497500D01*
X5666800D01*
Y-528500D01*
X5658800D01*
G01Y-609000D02*
X5651300D01*
X5650800Y-609500D01*
G01X5666800Y-609000D02*
X5674300D01*
X5674800Y-608500D01*
G01X5658800Y-624500D02*
Y-593500D01*
X5666800D01*
Y-624500D01*
X5658800D01*
G01X5665800Y-414700D02*
X5673300D01*
X5673800Y-414200D01*
G01X5657800Y-414700D02*
X5650300D01*
X5649800Y-415200D01*
G01X5665800Y-399200D02*
Y-430200D01*
X5657800D01*
Y-399200D01*
X5665800D01*
G01X5901400Y-7025800D02*
X5893900D01*
X5893400Y-7026300D01*
G01X5909400Y-7025800D02*
X5916900D01*
X5917400Y-7025300D01*
G01X5901400Y-7010300D02*
Y-7041300D01*
G01X5909400Y-7010300D02*
Y-7041300D01*
G01X5908400Y-7155900D02*
X5915900D01*
X5916400Y-7155400D01*
G01X5900400Y-7155900D02*
X5892900D01*
X5892400Y-7156400D01*
G01X5908400Y-7171400D02*
Y-7140400D01*
G01X5900400Y-7171400D02*
Y-7140400D01*
G01X5971200Y-5959700D02*
Y-5967200D01*
X5971700Y-5967700D01*
G01X5971200Y-5951700D02*
Y-5944200D01*
X5970700Y-5943700D01*
G01X5986700Y-5959700D02*
X5955700D01*
Y-5951700D01*
X5986700D01*
Y-5959700D01*
G01X5868500D02*
Y-5967200D01*
X5869000Y-5967700D01*
G01X5868500Y-5951700D02*
Y-5944200D01*
X5868000Y-5943700D01*
G01X5884000Y-5959700D02*
X5853000D01*
Y-5951700D01*
X5884000D01*
Y-5959700D01*
G01X5763700Y-3353800D02*
X5756200D01*
X5755700Y-3354300D01*
G01X5771700Y-3353800D02*
X5779200D01*
X5779700Y-3353300D01*
G01X5763700Y-3338300D02*
Y-3369300D01*
G01X5771700Y-3338300D02*
Y-3369300D01*
G01X5795100Y-2897000D02*
X5787600D01*
X5787100Y-2897500D01*
G01X5803100Y-2897000D02*
X5810600D01*
X5811100Y-2896500D01*
G01X5795100Y-2912500D02*
Y-2881500D01*
X5803100D01*
Y-2912500D01*
X5795100D01*
G01X5934300Y-1894500D02*
Y-1902000D01*
X5934800Y-1902500D01*
G01X5934300Y-1886500D02*
Y-1879000D01*
X5933800Y-1878500D01*
G01X5918800Y-1894500D02*
X5949800D01*
G01X5918800Y-1886500D02*
X5949800D01*
G01X5755700Y-1504500D02*
X5748200D01*
X5747700Y-1505000D01*
G01X5763700Y-1504500D02*
X5771200D01*
X5771700Y-1504000D01*
G01X5755700Y-1520000D02*
Y-1489000D01*
X5763700D01*
Y-1520000D01*
X5755700D01*
G01Y-1406900D02*
X5748200D01*
X5747700Y-1407400D01*
G01X5763700Y-1406900D02*
X5771200D01*
X5771700Y-1406400D01*
G01X5755700Y-1422400D02*
Y-1391400D01*
X5763700D01*
Y-1422400D01*
X5755700D01*
G01X5762700Y-1304300D02*
X5770200D01*
X5770700Y-1303800D01*
G01X5754700Y-1304300D02*
X5747200D01*
X5746700Y-1304800D01*
G01X5762700Y-1288800D02*
Y-1319800D01*
X5754700D01*
Y-1288800D01*
X5762700D01*
G01X6211800Y-6796500D02*
X6204300D01*
X6203800Y-6797000D01*
G01X6219800Y-6796500D02*
X6227300D01*
X6227800Y-6796000D01*
G01X6211800Y-6812000D02*
Y-6781000D01*
X6219800D01*
Y-6812000D01*
X6211800D01*
G01X6170800Y-5952700D02*
Y-5945200D01*
X6170300Y-5944700D01*
G01X6170800Y-5960700D02*
Y-5968200D01*
X6171300Y-5968700D01*
G01X6155300Y-5952700D02*
X6186300D01*
Y-5960700D01*
X6155300D01*
Y-5952700D01*
G01X6222200Y-5690900D02*
X6214700D01*
X6214200Y-5691400D01*
G01X6230200Y-5690900D02*
X6237700D01*
X6238200Y-5690400D01*
G01X6222200Y-5675400D02*
Y-5706400D01*
G01X6230200Y-5675400D02*
Y-5706400D01*
G01X6222200Y-5788200D02*
X6214700D01*
X6214200Y-5788700D01*
G01X6230200Y-5788200D02*
X6237700D01*
X6238200Y-5787700D01*
G01X6222200Y-5772700D02*
Y-5803700D01*
G01X6230200Y-5772700D02*
Y-5803700D01*
G01X6268500Y-5952700D02*
Y-5945200D01*
X6268000Y-5944700D01*
G01X6268500Y-5960700D02*
Y-5968200D01*
X6269000Y-5968700D01*
G01X6284000Y-5952700D02*
X6253000D01*
G01X6284000Y-5960700D02*
X6253000D01*
G01X6073800Y-5959700D02*
Y-5967200D01*
X6074300Y-5967700D01*
G01X6073800Y-5951700D02*
Y-5944200D01*
X6073300Y-5943700D01*
G01X6058300Y-5959700D02*
X6089300D01*
G01X6058300Y-5951700D02*
X6089300D01*
G01X6222200Y-5440300D02*
X6214700D01*
X6214200Y-5440800D01*
G01X6230200Y-5440300D02*
X6237700D01*
X6238200Y-5439800D01*
G01X6222200Y-5424800D02*
Y-5455800D01*
G01X6230200Y-5424800D02*
Y-5455800D01*
G01X6222200Y-5540300D02*
X6214700D01*
X6214200Y-5540800D01*
G01X6230200Y-5540300D02*
X6237700D01*
X6238200Y-5539800D01*
G01X6222200Y-5524800D02*
Y-5555800D01*
G01X6230200Y-5524800D02*
Y-5555800D01*
G01X6272400Y-5228100D02*
X6264900D01*
X6264400Y-5228600D01*
G01X6280400Y-5228100D02*
X6287900D01*
X6288400Y-5227600D01*
G01X6272400Y-5243600D02*
Y-5212600D01*
X6280400D01*
Y-5243600D01*
X6272400D01*
G01X6183000Y-5123500D02*
X6190500D01*
X6191000Y-5123000D01*
G01X6175000Y-5123500D02*
X6167500D01*
X6167000Y-5124000D01*
G01X6183000Y-5139000D02*
Y-5108000D01*
G01X6175000Y-5139000D02*
Y-5108000D01*
G01X6143500Y-4937000D02*
Y-4929500D01*
X6143000Y-4929000D01*
G01X6143500Y-4945000D02*
Y-4952500D01*
X6144000Y-4953000D01*
G01X6159000Y-4937000D02*
X6128000D01*
G01X6159000Y-4945000D02*
X6128000D01*
G01X6276200Y-2419400D02*
X6283700D01*
X6284200Y-2418900D01*
G01X6268200Y-2419400D02*
X6260700D01*
X6260200Y-2419900D01*
G01X6276200Y-2434900D02*
Y-2403900D01*
G01X6268200Y-2434900D02*
Y-2403900D01*
G01X6091300Y-1888800D02*
Y-1881300D01*
X6090800Y-1880800D01*
G01X6091300Y-1896800D02*
Y-1904300D01*
X6091800Y-1904800D01*
G01X6106800Y-1888800D02*
X6075800D01*
G01X6106800Y-1896800D02*
X6075800D01*
G01X6040400Y-1701400D02*
X6032900D01*
X6032400Y-1701900D01*
G01X6048400Y-1701400D02*
X6055900D01*
X6056400Y-1700900D01*
G01X6040400Y-1685900D02*
Y-1716900D01*
G01X6048400Y-1685900D02*
Y-1716900D01*
G01X6090300Y-1304300D02*
X6097800D01*
X6098300Y-1303800D01*
G01X6082300Y-1304300D02*
X6074800D01*
X6074300Y-1304800D01*
G01X6090300Y-1319800D02*
Y-1288800D01*
G01X6082300Y-1319800D02*
Y-1288800D01*
G01X6294500Y-814200D02*
X6302000D01*
X6302500Y-813700D01*
G01X6286500Y-814200D02*
X6279000D01*
X6278500Y-814700D01*
G01X6294500Y-829700D02*
Y-798700D01*
G01X6286500Y-829700D02*
Y-798700D01*
G01X6605000Y-6796500D02*
X6597500D01*
X6597000Y-6797000D01*
G01X6613000Y-6796500D02*
X6620500D01*
X6621000Y-6796000D01*
G01X6605000Y-6812000D02*
Y-6781000D01*
X6613000D01*
Y-6812000D01*
X6605000D01*
G01X6639100Y-5959700D02*
X6670100D01*
G01X6639100Y-5951700D02*
X6670100D01*
G01X6365600Y-5952700D02*
Y-5945200D01*
X6365100Y-5944700D01*
G01X6365600Y-5960700D02*
Y-5968200D01*
X6366100Y-5968700D01*
G01X6381100Y-5952700D02*
X6350100D01*
G01X6381100Y-5960700D02*
X6350100D01*
G01X6639100Y-3620500D02*
X6631600D01*
X6631100Y-3621000D01*
G01X6647100Y-3605000D02*
Y-3636000D01*
X6639100D01*
Y-3605000D01*
X6647100D01*
G01X6640100Y-3718700D02*
X6632600D01*
X6632100Y-3719200D01*
G01X6640100Y-3734200D02*
Y-3703200D01*
X6648100D01*
Y-3734200D01*
X6640100D01*
G01X6428100Y-3718700D02*
X6420600D01*
X6420100Y-3719200D01*
G01X6436100Y-3718700D02*
X6443600D01*
X6444100Y-3718200D01*
G01X6428100Y-3734200D02*
Y-3703200D01*
X6436100D01*
Y-3734200D01*
X6428100D01*
G01X6448700Y-1861500D02*
X6441200D01*
X6440700Y-1862000D01*
G01X6456700Y-1861500D02*
X6464200D01*
X6464700Y-1861000D01*
G01X6448700Y-1846000D02*
Y-1877000D01*
G01X6456700Y-1846000D02*
Y-1877000D01*
G01X6908900Y-6958200D02*
X6901400D01*
X6900900Y-6958700D01*
G01X6916900Y-6958200D02*
X6924400D01*
X6924900Y-6957700D01*
G01X6908900Y-6942700D02*
Y-6973700D01*
G01X6916900Y-6942700D02*
Y-6973700D01*
G01X6915900Y-7155900D02*
X6923400D01*
X6923900Y-7155400D01*
G01X6907900Y-7155900D02*
X6900400D01*
X6899900Y-7156400D01*
G01X6915900Y-7171400D02*
Y-7140400D01*
G01X6907900Y-7171400D02*
Y-7140400D01*
G01X6751600Y-5952700D02*
Y-5945200D01*
X6751100Y-5944700D01*
G01X6751600Y-5960700D02*
Y-5968200D01*
X6752100Y-5968700D01*
G01X6736100Y-5952700D02*
X6767100D01*
Y-5960700D01*
X6736100D01*
Y-5952700D01*
G01X6654600Y-5959700D02*
Y-5967200D01*
X6655100Y-5967700D01*
G01X6654600Y-5951700D02*
Y-5944200D01*
X6654100Y-5943700D01*
G01X6851600Y-5952700D02*
Y-5945200D01*
X6851100Y-5944700D01*
G01X6851600Y-5960700D02*
Y-5968200D01*
X6852100Y-5968700D01*
G01X6867100Y-5952700D02*
X6836100D01*
G01X6867100Y-5960700D02*
X6836100D01*
G01X6848900Y-5473100D02*
Y-5465600D01*
X6848400Y-5465100D01*
G01X6848900Y-5481100D02*
Y-5488600D01*
X6849400Y-5489100D01*
G01X6864400Y-5473100D02*
X6833400D01*
G01X6864400Y-5481100D02*
X6833400D01*
G01X6851900Y-5249000D02*
Y-5256500D01*
X6852400Y-5257000D01*
G01X6851900Y-5241000D02*
Y-5233500D01*
X6851400Y-5233000D01*
G01X6836400Y-5249000D02*
X6867400D01*
G01X6836400Y-5241000D02*
X6867400D01*
G01X6749100Y-5356200D02*
Y-5348700D01*
X6748600Y-5348200D01*
G01X6749100Y-5364200D02*
Y-5371700D01*
X6749600Y-5372200D01*
G01X6764600Y-5356200D02*
X6733600D01*
G01X6764600Y-5364200D02*
X6733600D01*
G01X6647100Y-3620500D02*
X6654600D01*
X6655100Y-3620000D01*
G01X6648100Y-3718700D02*
X6655600D01*
X6656100Y-3718200D01*
G01X6847800Y-3682000D02*
X6840300D01*
X6839800Y-3682500D01*
G01X6855800Y-3682000D02*
X6863300D01*
X6863800Y-3681500D01*
G01X6847800Y-3697500D02*
Y-3666500D01*
X6855800D01*
Y-3697500D01*
X6847800D01*
G01X6911900Y-2842900D02*
Y-2835400D01*
X6911400Y-2834900D01*
G01X6911900Y-2850900D02*
Y-2858400D01*
X6912400Y-2858900D01*
G01X6896400Y-2842900D02*
X6927400D01*
Y-2850900D01*
X6896400D01*
Y-2842900D01*
G01X6911100Y-2633700D02*
Y-2626200D01*
X6910600Y-2625700D01*
G01X6911100Y-2641700D02*
Y-2649200D01*
X6911600Y-2649700D01*
G01X6895600Y-2633700D02*
X6926600D01*
Y-2641700D01*
X6895600D01*
Y-2633700D01*
G01X6814500D02*
Y-2626200D01*
X6814000Y-2625700D01*
G01X6814500Y-2641700D02*
Y-2649200D01*
X6815000Y-2649700D01*
G01X6799000Y-2633700D02*
X6830000D01*
Y-2641700D01*
X6799000D01*
Y-2633700D01*
G01X6839500Y-497600D02*
X6832000D01*
X6831500Y-498100D01*
G01X6847500Y-497600D02*
X6855000D01*
X6855500Y-497100D01*
G01X6839500Y-482100D02*
Y-513100D01*
G01X6847500Y-482100D02*
Y-513100D01*
G01X7214600Y-6796500D02*
X7207100D01*
X7206600Y-6797000D01*
G01X7222600Y-6796500D02*
X7230100D01*
X7230600Y-6796000D01*
G01X7214600Y-6812000D02*
Y-6781000D01*
X7222600D01*
Y-6812000D01*
X7214600D01*
G01X7177200Y-5959700D02*
Y-5967200D01*
X7177700Y-5967700D01*
G01X7177200Y-5951700D02*
Y-5944200D01*
X7176700Y-5943700D01*
G01X7161700Y-5959700D02*
X7192700D01*
G01X7161700Y-5951700D02*
X7192700D01*
G01X7057500Y-3682000D02*
X7050000D01*
X7049500Y-3682500D01*
G01X7065500Y-3682000D02*
X7073000D01*
X7073500Y-3681500D01*
G01X7057500Y-3697500D02*
Y-3666500D01*
X7065500D01*
Y-3697500D01*
X7057500D01*
G01X6982600Y-3423700D02*
X6975100D01*
X6974600Y-3424200D01*
G01X6990600Y-3423700D02*
X6998100D01*
X6998600Y-3423200D01*
G01X6982600Y-3439200D02*
Y-3408200D01*
X6990600D01*
Y-3439200D01*
X6982600D01*
G01X6983200Y-3328600D02*
X6975700D01*
X6975200Y-3329100D01*
G01X6991200Y-3328600D02*
X6998700D01*
X6999200Y-3328100D01*
G01X6983200Y-3313100D02*
Y-3344100D01*
G01X6991200Y-3313100D02*
Y-3344100D01*
G01X6983100Y-3124600D02*
X6975600D01*
X6975100Y-3125100D01*
G01X6991100Y-3124600D02*
X6998600D01*
X6999100Y-3124100D01*
G01X6983100Y-3140100D02*
Y-3109100D01*
X6991100D01*
Y-3140100D01*
X6983100D01*
G01X7102400Y-2633700D02*
Y-2626200D01*
X7101900Y-2625700D01*
G01X7102400Y-2641700D02*
Y-2649200D01*
X7102900Y-2649700D01*
G01X7086900Y-2633700D02*
X7117900D01*
Y-2641700D01*
X7086900D01*
Y-2633700D01*
G01X7195400D02*
Y-2626200D01*
X7194900Y-2625700D01*
G01X7195400Y-2641700D02*
Y-2649200D01*
X7195900Y-2649700D01*
G01X7179900Y-2633700D02*
X7210900D01*
Y-2641700D01*
X7179900D01*
Y-2633700D01*
G01X7007200D02*
Y-2626200D01*
X7006700Y-2625700D01*
G01X7007200Y-2641700D02*
Y-2649200D01*
X7007700Y-2649700D01*
G01X6991700Y-2633700D02*
X7022700D01*
Y-2641700D01*
X6991700D01*
Y-2633700D01*
G01X7188100Y-444200D02*
Y-451700D01*
X7188600Y-452200D01*
G01X7188100Y-436200D02*
Y-428700D01*
X7187600Y-428200D01*
G01X7203600Y-444200D02*
X7172600D01*
Y-436200D01*
X7203600D01*
Y-444200D01*
G01X7543000Y-7233500D02*
X7550500D01*
X7551000Y-7233000D01*
G01X7535000Y-7233500D02*
X7527500D01*
X7527000Y-7234000D01*
G01X7543000Y-7218000D02*
Y-7249000D01*
X7535000D01*
Y-7218000D01*
X7543000D01*
G01X7536000Y-7018900D02*
X7528500D01*
X7528000Y-7019400D01*
G01X7544000Y-7018900D02*
X7551500D01*
X7552000Y-7018400D01*
G01X7536000Y-7034400D02*
Y-7003400D01*
X7544000D01*
Y-7034400D01*
X7536000D01*
G01X7274200Y-5952700D02*
Y-5945200D01*
X7273700Y-5944700D01*
G01X7274200Y-5960700D02*
Y-5968200D01*
X7274700Y-5968700D01*
G01X7258700Y-5952700D02*
X7289700D01*
Y-5960700D01*
X7258700D01*
Y-5952700D01*
G01X7374200D02*
Y-5945200D01*
X7373700Y-5944700D01*
G01X7374200Y-5960700D02*
Y-5968200D01*
X7374700Y-5968700D01*
G01X7389700Y-5952700D02*
X7358700D01*
G01X7389700Y-5960700D02*
X7358700D01*
G01X7485100Y-3620500D02*
X7492600D01*
X7493100Y-3620000D01*
G01X7477100Y-3620500D02*
X7469600D01*
X7469100Y-3621000D01*
G01X7485100Y-3605000D02*
Y-3636000D01*
X7477100D01*
Y-3605000D01*
X7485100D01*
G01X7267500Y-3718700D02*
X7260000D01*
X7259500Y-3719200D01*
G01X7275500Y-3718700D02*
X7283000D01*
X7283500Y-3718200D01*
G01X7267500Y-3734200D02*
Y-3703200D01*
X7275500D01*
Y-3734200D01*
X7267500D01*
G01X7478100Y-3718700D02*
X7470600D01*
X7470100Y-3719200D01*
G01X7486100Y-3718700D02*
X7493600D01*
X7494100Y-3718200D01*
G01X7478100Y-3734200D02*
Y-3703200D01*
X7486100D01*
Y-3734200D01*
X7478100D01*
G01X7274500Y-3620500D02*
X7282000D01*
X7282500Y-3620000D01*
G01X7266500Y-3620500D02*
X7259000D01*
X7258500Y-3621000D01*
G01X7274500Y-3636000D02*
Y-3605000D01*
G01X7266500Y-3636000D02*
Y-3605000D01*
G01X7289900Y-2633700D02*
Y-2626200D01*
X7289400Y-2625700D01*
G01X7289900Y-2641700D02*
Y-2649200D01*
X7290400Y-2649700D01*
G01X7274400Y-2633700D02*
X7305400D01*
Y-2641700D01*
X7274400D01*
Y-2633700D01*
G01X7558900D02*
X7589900D01*
Y-2641700D01*
X7558900D01*
Y-2633700D01*
G01X7479800D02*
Y-2626200D01*
X7479300Y-2625700D01*
G01X7479800Y-2641700D02*
Y-2649200D01*
X7480300Y-2649700D01*
G01X7464300Y-2633700D02*
X7495300D01*
Y-2641700D01*
X7464300D01*
Y-2633700D01*
G01X7384800D02*
Y-2626200D01*
X7384300Y-2625700D01*
G01X7384800Y-2641700D02*
Y-2649200D01*
X7385300Y-2649700D01*
G01X7369300Y-2633700D02*
X7400300D01*
Y-2641700D01*
X7369300D01*
Y-2633700D01*
G01X7312500Y-444200D02*
Y-451700D01*
X7313000Y-452200D01*
G01X7436800Y-444200D02*
Y-451700D01*
X7437300Y-452200D01*
G01X7312500Y-436200D02*
Y-428700D01*
X7312000Y-428200D01*
G01X7328000Y-444200D02*
X7297000D01*
Y-436200D01*
X7328000D01*
Y-444200D01*
G01X7436800Y-436200D02*
Y-428700D01*
X7436300Y-428200D01*
G01X7452300Y-444200D02*
X7421300D01*
Y-436200D01*
X7452300D01*
Y-444200D01*
G01X7433800Y-229800D02*
Y-222300D01*
X7433300Y-221800D01*
G01X7433800Y-237800D02*
Y-245300D01*
X7434300Y-245800D01*
G01X7449300Y-229800D02*
X7418300D01*
G01X7449300Y-237800D02*
X7418300D01*
G01X7875000Y-5363500D02*
X7867500D01*
X7867000Y-5364000D01*
G01X7875000Y-5213500D02*
X7867500D01*
X7867000Y-5214000D01*
G01X7686400Y-3718700D02*
X7678900D01*
X7678400Y-3719200D01*
G01X7694400Y-3718700D02*
X7701900D01*
X7702400Y-3718200D01*
G01X7686400Y-3734200D02*
Y-3703200D01*
X7694400D01*
Y-3734200D01*
X7686400D01*
G01X7574400Y-2633700D02*
Y-2626200D01*
X7573900Y-2625700D01*
G01X7574400Y-2641700D02*
Y-2649200D01*
X7574900Y-2649700D01*
G01X7861700Y-2633700D02*
Y-2626200D01*
X7861200Y-2625700D01*
G01X7861700Y-2641700D02*
Y-2649200D01*
X7862200Y-2649700D01*
G01X7846200Y-2633700D02*
X7877200D01*
Y-2641700D01*
X7846200D01*
Y-2633700D01*
G01X7861700Y-2850000D02*
Y-2842500D01*
X7861200Y-2842000D01*
G01X7861700Y-2858000D02*
Y-2865500D01*
X7862200Y-2866000D01*
G01X7846200Y-2850000D02*
X7877200D01*
Y-2858000D01*
X7846200D01*
Y-2850000D01*
G01X7765600Y-2633700D02*
Y-2626200D01*
X7765100Y-2625700D01*
G01X7765600Y-2641700D02*
Y-2649200D01*
X7766100Y-2649700D01*
G01X7750100Y-2633700D02*
X7781100D01*
Y-2641700D01*
X7750100D01*
Y-2633700D01*
G01X7670000D02*
Y-2626200D01*
X7669500Y-2625700D01*
G01X7670000Y-2641700D02*
Y-2649200D01*
X7670500Y-2649700D01*
G01X7654500Y-2633700D02*
X7685500D01*
Y-2641700D01*
X7654500D01*
Y-2633700D01*
G01X7601500Y-2843200D02*
Y-2835700D01*
X7601000Y-2835200D01*
G01X7601500Y-2851200D02*
Y-2858700D01*
X7602000Y-2859200D01*
G01X7586000Y-2843200D02*
X7617000D01*
Y-2851200D01*
X7586000D01*
Y-2843200D01*
G01X7701500Y-2842500D02*
Y-2835000D01*
X7701000Y-2834500D01*
G01X7701500Y-2850500D02*
Y-2858000D01*
X7702000Y-2858500D01*
G01X7686000Y-2842500D02*
X7717000D01*
Y-2850500D01*
X7686000D01*
Y-2842500D01*
G01X7684400Y-444200D02*
Y-451700D01*
X7684900Y-452200D01*
G01X7807700Y-444200D02*
Y-451700D01*
X7808200Y-452200D01*
G01X7684400Y-436200D02*
Y-428700D01*
X7683900Y-428200D01*
G01X7699900Y-444200D02*
X7668900D01*
Y-436200D01*
X7699900D01*
Y-444200D01*
G01X7807700Y-436200D02*
Y-428700D01*
X7807200Y-428200D01*
G01X7823200Y-444200D02*
X7792200D01*
Y-436200D01*
X7823200D01*
Y-444200D01*
G01X7804700Y-229800D02*
Y-222300D01*
X7804200Y-221800D01*
G01X7804700Y-237800D02*
Y-245300D01*
X7805200Y-245800D01*
G01X7820200Y-229800D02*
X7789200D01*
G01X7820200Y-237800D02*
X7789200D01*
G01X8156500Y-7233000D02*
Y-7240500D01*
X8157000Y-7241000D01*
G01X8172000Y-7233000D02*
X8141000D01*
Y-7225000D01*
X8172000D01*
Y-7233000D01*
G01X8156500Y-7225000D02*
Y-7217500D01*
X8156000Y-7217000D01*
G01X7883000Y-5363500D02*
X7890500D01*
X7891000Y-5363000D01*
G01X7883000Y-5348000D02*
Y-5379000D01*
X7875000D01*
Y-5348000D01*
X7883000D01*
G01Y-5213500D02*
X7890500D01*
X7891000Y-5213000D01*
G01X7883000Y-5198000D02*
Y-5229000D01*
X7875000D01*
Y-5198000D01*
X7883000D01*
G01X7897900Y-3718700D02*
X7890400D01*
X7889900Y-3719200D01*
G01X7905900Y-3718700D02*
X7913400D01*
X7913900Y-3718200D01*
G01X7897900Y-3734200D02*
Y-3703200D01*
X7905900D01*
Y-3734200D01*
X7897900D01*
G01X8139800Y-3160300D02*
Y-3152800D01*
X8139300Y-3152300D01*
G01X8139800Y-3168300D02*
Y-3175800D01*
X8140300Y-3176300D01*
G01X8124300Y-3160300D02*
X8155300D01*
Y-3168300D01*
X8124300D01*
Y-3160300D01*
G01X8013600D02*
Y-3152800D01*
X8013100Y-3152300D01*
G01X8013600Y-3168300D02*
Y-3175800D01*
X8014100Y-3176300D01*
G01X7998100Y-3160300D02*
X8029100D01*
Y-3168300D01*
X7998100D01*
Y-3160300D01*
G01X7959300Y-2850000D02*
Y-2842500D01*
X7958800Y-2842000D01*
G01X7959300Y-2858000D02*
Y-2865500D01*
X7959800Y-2866000D01*
G01X7943800Y-2850000D02*
X7974800D01*
Y-2858000D01*
X7943800D01*
Y-2850000D01*
G01X8150900Y-2633700D02*
Y-2626200D01*
X8150400Y-2625700D01*
G01X8150900Y-2641700D02*
Y-2649200D01*
X8151400Y-2649700D01*
G01X8135400Y-2633700D02*
X8166400D01*
Y-2641700D01*
X8135400D01*
Y-2633700D01*
G01X8152100Y-2850000D02*
Y-2842500D01*
X8151600Y-2842000D01*
G01X8152100Y-2858000D02*
Y-2865500D01*
X8152600Y-2866000D01*
G01X8136600Y-2850000D02*
X8167600D01*
Y-2858000D01*
X8136600D01*
Y-2850000D01*
G01X8059100Y-2640700D02*
Y-2648200D01*
X8059600Y-2648700D01*
G01X8059100Y-2632700D02*
Y-2625200D01*
X8058600Y-2624700D01*
G01X8074600Y-2640700D02*
X8043600D01*
Y-2632700D01*
X8074600D01*
Y-2640700D01*
G01X7962300D02*
Y-2648200D01*
X7962800Y-2648700D01*
G01X7962300Y-2632700D02*
Y-2625200D01*
X7961800Y-2624700D01*
G01X7977800Y-2640700D02*
X7946800D01*
Y-2632700D01*
X7977800D01*
Y-2640700D01*
G01X7930000Y-444200D02*
Y-451700D01*
X7930500Y-452200D01*
G01X7930000Y-436200D02*
Y-428700D01*
X7929500Y-428200D01*
G01X7945500Y-444200D02*
X7914500D01*
Y-436200D01*
X7945500D01*
Y-444200D01*
G01X8346500Y-7133000D02*
Y-7140500D01*
X8347000Y-7141000D01*
G01X8346500Y-7125000D02*
Y-7117500D01*
X8346000Y-7117000D01*
G01X8362000Y-7133000D02*
X8331000D01*
Y-7125000D01*
X8362000D01*
Y-7133000D01*
G01X8438800Y-2633700D02*
Y-2626200D01*
X8438300Y-2625700D01*
G01X8438800Y-2641700D02*
Y-2649200D01*
X8439300Y-2649700D01*
G01X8423300Y-2633700D02*
X8454300D01*
Y-2641700D01*
X8423300D01*
Y-2633700D01*
G01X8343500D02*
Y-2626200D01*
X8343000Y-2625700D01*
G01X8343500Y-2641700D02*
Y-2649200D01*
X8344000Y-2649700D01*
G01X8328000Y-2633700D02*
X8359000D01*
Y-2641700D01*
X8328000D01*
Y-2633700D01*
G01X8248300Y-2850000D02*
Y-2842500D01*
X8247800Y-2842000D01*
G01X8248300Y-2858000D02*
Y-2865500D01*
X8248800Y-2866000D01*
G01X8232800Y-2850000D02*
X8263800D01*
Y-2858000D01*
X8232800D01*
Y-2850000D01*
G01X8251300Y-2640700D02*
Y-2648200D01*
X8251800Y-2648700D01*
G01X8251300Y-2632700D02*
Y-2625200D01*
X8250800Y-2624700D01*
G01X8266800Y-2640700D02*
X8235800D01*
Y-2632700D01*
X8266800D01*
Y-2640700D01*
G01X8346500Y-2857000D02*
Y-2864500D01*
X8347000Y-2865000D01*
G01X8346500Y-2849000D02*
Y-2841500D01*
X8346000Y-2841000D01*
G01X8362000Y-2857000D02*
X8331000D01*
Y-2849000D01*
X8362000D01*
Y-2857000D01*
G54D12*
G01X5990100Y-2321600D02*
Y-2424600D01*
X6036100D01*
Y-2318600D01*
X5990100D01*
Y-2321600D01*
G01X5945200Y-2237400D02*
X5842200D01*
Y-2283400D01*
X5948200D01*
Y-2237400D01*
X5945200D01*
G01X6105600Y-2076800D02*
X6002600D01*
Y-2122800D01*
X6108600D01*
Y-2076800D01*
X6105600D01*
G01X5945200Y-2156700D02*
X5842200D01*
Y-2202700D01*
X5948200D01*
Y-2156700D01*
X5945200D01*
G01X6026900Y-1436200D02*
X5923900D01*
Y-1482200D01*
X6029900D01*
Y-1436200D01*
X6026900D01*
G01X6105600Y-1596400D02*
X6002600D01*
Y-1642400D01*
X6108600D01*
Y-1596400D01*
X6105600D01*
G01X5875400Y-842800D02*
X5978400D01*
Y-796800D01*
X5872400D01*
Y-842800D01*
X5875400D01*
G01X5946500Y-885400D02*
Y-988400D01*
X5992500D01*
Y-882400D01*
X5946500D01*
Y-885400D01*
G01X5912700Y-755000D02*
Y-652000D01*
X5866700D01*
Y-758000D01*
X5912700D01*
Y-755000D01*
G01X6018800Y-445500D02*
X5915800D01*
Y-491500D01*
X6021800D01*
Y-445500D01*
X6018800D01*
G01X5866500Y-326400D02*
Y-429400D01*
X5912500D01*
Y-323400D01*
X5866500D01*
Y-326400D01*
G01X6308800Y-2164500D02*
Y-2267500D01*
X6354800D01*
Y-2161500D01*
X6308800D01*
Y-2164500D01*
G01X6265200Y-2076600D02*
X6162200D01*
Y-2122600D01*
X6268200D01*
Y-2076600D01*
X6265200D01*
G01Y-1996900D02*
X6162200D01*
Y-2042900D01*
X6268200D01*
Y-1996900D01*
X6265200D01*
G01X6309100Y-2004300D02*
Y-2107300D01*
X6355100D01*
Y-2001300D01*
X6309100D01*
Y-2004300D01*
G01X6149000Y-2164500D02*
Y-2267500D01*
X6195000D01*
Y-2161500D01*
X6149000D01*
Y-2164500D01*
G01X6265200Y-1760300D02*
X6162200D01*
Y-1806300D01*
X6268200D01*
Y-1760300D01*
X6265200D01*
G01X6425200Y-1756900D02*
X6322200D01*
Y-1802900D01*
X6428200D01*
Y-1756900D01*
X6425200D01*
G01Y-1916800D02*
X6322200D01*
Y-1962800D01*
X6428200D01*
Y-1916800D01*
X6425200D01*
G01X6265200Y-1836100D02*
X6162200D01*
Y-1882100D01*
X6268200D01*
Y-1836100D01*
X6265200D01*
G01X6275000Y-1713500D02*
Y-1610500D01*
X6229000D01*
Y-1716500D01*
X6275000D01*
Y-1713500D01*
G01X6355000D02*
Y-1610500D01*
X6309000D01*
Y-1716500D01*
X6355000D01*
Y-1713500D01*
G01X6265200Y-1916900D02*
X6162200D01*
Y-1962900D01*
X6268200D01*
Y-1916900D01*
X6265200D01*
G01X6355000Y-1558300D02*
Y-1455300D01*
X6309000D01*
Y-1561300D01*
X6355000D01*
Y-1558300D01*
G01X6275000D02*
Y-1455300D01*
X6229000D01*
Y-1561300D01*
X6275000D01*
Y-1558300D01*
G01X6131800Y-1491000D02*
Y-1480000D01*
G01Y-1504000D02*
Y-1514000D01*
G01X6117800Y-1491000D02*
X6145800D01*
Y-1504000D01*
X6117800D01*
Y-1491000D01*
G01X6154800Y-1547000D02*
Y-1444000D01*
X6108800D01*
Y-1550000D01*
X6154800D01*
Y-1547000D01*
G01X6303200Y-976900D02*
Y-1079900D01*
X6349200D01*
Y-973900D01*
X6303200D01*
Y-976900D01*
G01X6255100Y-892000D02*
X6152100D01*
Y-938000D01*
X6258100D01*
Y-892000D01*
X6255100D01*
G01X6026800Y-810500D02*
Y-913500D01*
X6072800D01*
Y-807500D01*
X6026800D01*
Y-810500D01*
G01X6345500Y-410900D02*
X6242500D01*
Y-456900D01*
X6348500D01*
Y-410900D01*
X6345500D01*
G01X6026900Y-244900D02*
Y-347900D01*
X6072900D01*
Y-241900D01*
X6026900D01*
Y-244900D01*
G01X6413400Y-139900D02*
X6310400D01*
Y-185900D01*
X6416400D01*
Y-139900D01*
X6413400D01*
G01X6187000Y-244900D02*
Y-347900D01*
X6233000D01*
Y-241900D01*
X6187000D01*
Y-244900D01*
G01X6628900Y-2321700D02*
Y-2424700D01*
X6674900D01*
Y-2318700D01*
X6628900D01*
Y-2321700D01*
G01X6515200Y-2115600D02*
Y-2012600D01*
X6469200D01*
Y-2118600D01*
X6515200D01*
Y-2115600D01*
G01X6628900Y-2165900D02*
Y-2268900D01*
X6674900D01*
Y-2162900D01*
X6628900D01*
Y-2165900D01*
G01X6435200Y-2115600D02*
Y-2012600D01*
X6389200D01*
Y-2118600D01*
X6435200D01*
Y-2115600D01*
G01X6628400Y-2004300D02*
Y-2107300D01*
X6674400D01*
Y-2001300D01*
X6628400D01*
Y-2004300D01*
G01X6548900D02*
Y-2107300D01*
X6594900D01*
Y-2001300D01*
X6548900D01*
Y-2004300D01*
G01X6435000Y-1713500D02*
Y-1610500D01*
X6389000D01*
Y-1716500D01*
X6435000D01*
Y-1713500D01*
G01X6515100D02*
Y-1610500D01*
X6469100D01*
Y-1716500D01*
X6515100D01*
Y-1713500D01*
G01X6595200D02*
Y-1610500D01*
X6549200D01*
Y-1716500D01*
X6595200D01*
Y-1713500D01*
G01X6477400Y-1962800D02*
X6580400D01*
Y-1916800D01*
X6474400D01*
Y-1962800D01*
X6477400D01*
G01Y-1802900D02*
X6580400D01*
Y-1756900D01*
X6474400D01*
Y-1802900D01*
X6477400D01*
G01X6675000Y-1713500D02*
Y-1610500D01*
X6629000D01*
Y-1716500D01*
X6675000D01*
Y-1713500D01*
G01X6636500Y-1882900D02*
X6739500D01*
Y-1836900D01*
X6633500D01*
Y-1882900D01*
X6636500D01*
G01Y-1963000D02*
X6739500D01*
Y-1917000D01*
X6633500D01*
Y-1963000D01*
X6636500D01*
G01X6435000Y-1558300D02*
Y-1455300D01*
X6389000D01*
Y-1561300D01*
X6435000D01*
Y-1558300D01*
G01X6675200Y-1395900D02*
Y-1292900D01*
X6629200D01*
Y-1398900D01*
X6675200D01*
Y-1395900D01*
G01X6515100Y-1558300D02*
Y-1455300D01*
X6469100D01*
Y-1561300D01*
X6515100D01*
Y-1558300D01*
G01X6595200D02*
Y-1455300D01*
X6549200D01*
Y-1561300D01*
X6595200D01*
Y-1558300D01*
G01X6675000D02*
Y-1455300D01*
X6629000D01*
Y-1561300D01*
X6675000D01*
Y-1558300D01*
G01X6532600Y-1077900D02*
Y-974900D01*
X6486600D01*
Y-1080900D01*
X6532600D01*
Y-1077900D01*
G01X6410400D02*
Y-974900D01*
X6364400D01*
Y-1080900D01*
X6410400D01*
Y-1077900D01*
G01X6424900Y-976900D02*
Y-1079900D01*
X6470900D01*
Y-973900D01*
X6424900D01*
Y-976900D01*
G01X6472800Y-755800D02*
Y-652800D01*
X6426800D01*
Y-758800D01*
X6472800D01*
Y-755800D01*
G01X6387400Y-1021900D02*
Y-1010900D01*
G01Y-1034900D02*
Y-1044900D01*
G01X6373400Y-1021900D02*
X6401400D01*
Y-1034900D01*
X6373400D01*
Y-1021900D01*
G01X6447900Y-1032900D02*
Y-1043900D01*
G01Y-1019900D02*
Y-1009900D01*
G01X6461900Y-1032900D02*
X6433900D01*
Y-1019900D01*
X6461900D01*
Y-1032900D01*
G01X6553300Y-674700D02*
Y-571700D01*
X6507300D01*
Y-677700D01*
X6553300D01*
Y-674700D01*
G01X6521500Y-468500D02*
X6510500D01*
G01X6534500D02*
X6544500D01*
G01X6521500Y-482500D02*
Y-454500D01*
X6534500D01*
Y-482500D01*
X6521500D01*
G01X6577500Y-445500D02*
X6474500D01*
Y-491500D01*
X6580500D01*
Y-445500D01*
X6577500D01*
G01X6585400Y-328700D02*
Y-431700D01*
X6631400D01*
Y-325700D01*
X6585400D01*
Y-328700D01*
G01X6599200Y-162900D02*
X6588200D01*
G01X6612200D02*
X6622200D01*
G01X6599200Y-176900D02*
Y-148900D01*
X6612200D01*
Y-176900D01*
X6599200D01*
G01X6655200Y-139900D02*
X6552200D01*
Y-185900D01*
X6658200D01*
Y-139900D01*
X6655200D01*
G01X6490300Y-162900D02*
X6501300D01*
G01X6477300D02*
X6467300D01*
G01X6490300Y-148900D02*
Y-176900D01*
X6477300D01*
Y-148900D01*
X6490300D01*
G01X6434300Y-185900D02*
X6537300D01*
Y-139900D01*
X6431300D01*
Y-185900D01*
X6434300D01*
G01X6800600Y-2202700D02*
X6903600D01*
Y-2156700D01*
X6797600D01*
Y-2202700D01*
X6800600D01*
G01Y-2282700D02*
X6903600D01*
Y-2236700D01*
X6797600D01*
Y-2282700D01*
X6800600D01*
G01X6777600Y-1739400D02*
X6788600D01*
G01X6764600D02*
X6754600D01*
G01X6777600Y-1725400D02*
Y-1753400D01*
X6764600D01*
Y-1725400D01*
X6777600D01*
G01X6721600Y-1762400D02*
X6824600D01*
Y-1716400D01*
X6718600D01*
Y-1762400D01*
X6721600D01*
G01X6858500Y-1819400D02*
X6869500D01*
G01X6845500D02*
X6835500D01*
G01X6858500Y-1805400D02*
Y-1833400D01*
X6845500D01*
Y-1805400D01*
X6858500D01*
G01X6802500Y-1842400D02*
X6905500D01*
Y-1796400D01*
X6799500D01*
Y-1842400D01*
X6802500D01*
G01X6852800Y-1940100D02*
X6863800D01*
G01X6839800D02*
X6829800D01*
G01X6852800Y-1926100D02*
Y-1954100D01*
X6839800D01*
Y-1926100D01*
X6852800D01*
G01X6796800Y-1963100D02*
X6899800D01*
Y-1917100D01*
X6793800D01*
Y-1963100D01*
X6796800D01*
G01X6904300Y-1397100D02*
X6801300D01*
Y-1443100D01*
X6907300D01*
Y-1397100D01*
X6904300D01*
G01X6709000Y-1534700D02*
Y-1637700D01*
X6755000D01*
Y-1531700D01*
X6709000D01*
Y-1534700D01*
G01X6782900Y-1080000D02*
Y-977000D01*
X6736900D01*
Y-1083000D01*
X6782900D01*
Y-1080000D01*
G01X6812100Y-1260500D02*
Y-1249500D01*
G01Y-1273500D02*
Y-1283500D01*
G01X6798100Y-1260500D02*
X6826100D01*
Y-1273500D01*
X6798100D01*
Y-1260500D01*
G01X6835100Y-1316500D02*
Y-1213500D01*
X6789100D01*
Y-1319500D01*
X6835100D01*
Y-1316500D01*
G01X6677600Y-979000D02*
Y-1082000D01*
X6723600D01*
Y-976000D01*
X6677600D01*
Y-979000D01*
G01X6792800Y-830100D02*
Y-727100D01*
X6746800D01*
Y-833100D01*
X6792800D01*
Y-830100D01*
G01X6904000Y-896200D02*
X6801000D01*
Y-942200D01*
X6907000D01*
Y-896200D01*
X6904000D01*
G01X6759900Y-1024000D02*
Y-1013000D01*
G01Y-1037000D02*
Y-1047000D01*
G01X6745900Y-1024000D02*
X6773900D01*
Y-1037000D01*
X6745900D01*
Y-1024000D01*
G01X6700600Y-1035000D02*
Y-1046000D01*
G01Y-1022000D02*
Y-1012000D01*
G01X6714600Y-1035000D02*
X6686600D01*
Y-1022000D01*
X6714600D01*
Y-1035000D01*
G01X6824700Y-139900D02*
X6721700D01*
Y-185900D01*
X6827700D01*
Y-139900D01*
X6824700D01*
G01X6747100Y-328700D02*
Y-431700D01*
X6793100D01*
Y-325700D01*
X6747100D01*
Y-328700D01*
G01X6731000Y-260100D02*
X6742000D01*
G01X6718000D02*
X6708000D01*
G01X6731000Y-246100D02*
Y-274100D01*
X6718000D01*
Y-246100D01*
X6731000D01*
G01X6675000Y-283100D02*
X6778000D01*
Y-237100D01*
X6672000D01*
Y-283100D01*
X6675000D01*
G01X6690400Y-384700D02*
Y-395700D01*
G01Y-371700D02*
Y-361700D01*
G01X6704400Y-384700D02*
X6676400D01*
Y-371700D01*
X6704400D01*
Y-384700D01*
G01X6667400Y-328700D02*
Y-431700D01*
X6713400D01*
Y-325700D01*
X6667400D01*
Y-328700D01*
G01X7050000Y-603500D02*
Y-614500D01*
G01Y-590500D02*
Y-580500D01*
G01X7064000Y-603500D02*
X7036000D01*
Y-590500D01*
X7064000D01*
Y-603500D01*
G01X7027000Y-547500D02*
Y-650500D01*
X7073000D01*
Y-544500D01*
X7027000D01*
Y-547500D01*
G01X6994900Y-282900D02*
X7097900D01*
Y-236900D01*
X6991900D01*
Y-282900D01*
X6994900D01*
G01X7572000Y-7124000D02*
X7508000D01*
G01X7524000Y-7151000D02*
Y-7098000D01*
X7558000Y-7124000D01*
X7524000Y-7151000D01*
G01X7558000Y-7098000D02*
Y-7151000D01*
G01X7676000Y-5339000D02*
Y-5392000D01*
X7642000Y-5366000D01*
X7676000Y-5339000D01*
G01X7642000Y-5392000D02*
Y-5339000D01*
G01X7628000Y-5366000D02*
X7692000D01*
G01X7628000Y-5216000D02*
X7692000D01*
G01X7676000Y-5189000D02*
Y-5242000D01*
X7642000Y-5216000D01*
X7676000Y-5189000D01*
G01X7642000Y-5242000D02*
Y-5189000D01*
M02*
