G04 ================== begin FILE IDENTIFICATION RECORD ==================*
G04 Layout Name:  G:/github/PLL_FM_HW/PCB/FMDEMOD-57.brd*
G04 Film Name:    SILKSCREEN_TOP*
G04 File Format:  Gerber RS274X*
G04 File Origin:  Cadence Allegro 17.4-S017*
G04 Origin Date:  Tue Oct 26 10:38:27 2021*
G04 *
G04 Layer:  PACKAGE GEOMETRY/SILKSCREEN_TOP*
G04 Layer:  BOARD GEOMETRY/SILKSCREEN_TOP*
G04 *
G04 Offset:    (0.0000 0.0000)*
G04 Mirror:    No*
G04 Mode:      Positive*
G04 Rotation:  0*
G04 FullContactRelief:  No*
G04 UndefLineWidth:     0.2540*
G04 ================== end FILE IDENTIFICATION RECORD ====================*
%FSLAX25Y25*MOMM*%
%IR0*IPPOS*OFA0.00000B0.00000*MIA0B0*SFA1.00000B1.00000*%
%ADD10C,.1*%
%ADD11C,.2*%
%ADD12C,.02*%
%ADD13C,.05*%
G75*
%LPD*%
G75*
G36*
G01X496660Y-4502500D02*
G03I-22360J0D01*
G37*
G36*
G01X507340Y-1290600D02*
G03I-31140J0D01*
G37*
G36*
G01X687420Y-7492500D02*
G03I-19420J0D01*
G37*
G36*
G01X553120Y-5679300D02*
G03I-19420J0D01*
G37*
G36*
G01X783840Y-2726100D02*
G03I-31140J0D01*
G37*
G36*
G01X1166210Y-6636500D02*
G03I-24210J0D01*
G37*
G36*
G01X1193380Y-6563700D02*
G03I-35380J0D01*
G37*
G36*
G01X1528140Y-1290600D02*
G03I-31140J0D01*
G37*
G36*
G01X1950810Y-7655300D02*
G03I-35810J0D01*
G37*
G36*
G01X1803140Y-2726100D02*
G03I-31140J0D01*
G37*
G36*
G01X2556640Y-1290600D02*
G03I-31140J0D01*
G37*
G36*
G01X2827640Y-2726100D02*
G03I-31140J0D01*
G37*
G36*
G01X3540660Y-7317000D02*
G03I-20660J0D01*
G37*
G36*
G01X3514680Y-5469260D02*
G03I-18980J0D01*
G37*
G36*
G01X3579940Y-1290600D02*
G03I-31140J0D01*
G37*
G36*
G01X3650820Y-7842000D02*
G03I-19420J0D01*
G37*
G36*
G01X3668900Y-6771000D02*
G03I-16000J0D01*
G37*
G36*
G01X3860140Y-2726100D02*
G03I-31140J0D01*
G37*
G36*
G01X4018050Y-5890890D02*
G03I-17650J0D01*
G37*
G36*
G01X4632560Y-7259300D02*
G03I-20660J0D01*
G37*
G36*
G01Y-6719300D02*
G03I-20660J0D01*
G37*
G36*
G01X5106850Y-3101400D02*
G03I-26250J0D01*
G37*
G36*
G01X5952100Y-2733900D02*
G03I-16000J0D01*
G37*
G36*
G01X7326910Y-2502000D02*
G03I-43910J0D01*
G37*
G36*
G01X7171000Y-1130000D02*
G03I-29000J0D01*
G37*
G54D10*
G01X100000Y-4100000D02*
X4200000D01*
Y-7900000D01*
X100000D01*
Y-4100000D01*
G01X500000Y-7700000D02*
G03I-200000J0D01*
G01X1149400Y-7338000D02*
X138900D01*
Y-6616400D01*
X1161500D01*
Y-7338000D01*
X1132540D01*
G01X518700Y-6222300D02*
X147700D01*
Y-5660300D01*
X553700D01*
Y-6222300D01*
X453960D01*
G01X161490Y-5012700D02*
X335500D01*
X335510Y-5090700D01*
X147500D01*
X147510Y-5012700D01*
X161490D01*
G01X161500Y-5107200D02*
X335500D01*
Y-5185200D01*
X147500D01*
Y-5107200D01*
X161500D01*
G01X358640Y-4827800D02*
G03I-113140J0D01*
G01X500000Y-4300000D02*
G03I-200000J0D01*
G01X100000Y-100000D02*
X4200000D01*
Y-3900000D01*
X100000D01*
Y-100000D01*
G01X500000Y-3700000D02*
G03I-200000J0D01*
G01X322300Y-2952500D02*
Y-3394500D01*
X120300D01*
Y-2919500D01*
X322300D01*
Y-2987860D01*
G01X277300Y-3178500D02*
X162300D01*
G01X278300Y-3117500D02*
X163300D01*
G01X151600Y-2784900D02*
X205600D01*
Y-2750900D01*
X151600D01*
Y-2784900D01*
G01X233600Y-2715900D02*
Y-2868900D01*
X122600D01*
Y-2666900D01*
X233600D01*
Y-2715900D01*
G01X165000Y-2538500D02*
X318000D01*
Y-2649500D01*
X116000D01*
Y-2538500D01*
X165000D01*
G01X298000Y-2322200D02*
X124000D01*
Y-2244200D01*
X312000D01*
Y-2322200D01*
X298000D01*
G01X137000Y-2343600D02*
X311000D01*
Y-2421600D01*
X123000D01*
Y-2343600D01*
X137000D01*
G01X298000Y-2519000D02*
X124000D01*
Y-2441000D01*
X312000D01*
Y-2519000D01*
X298000D01*
G01X157200Y-2017900D02*
X599200D01*
Y-2219900D01*
X124200D01*
Y-2017900D01*
X192560D01*
G01X202400Y-1581600D02*
Y-1755600D01*
X124400D01*
Y-1567600D01*
X202400D01*
Y-1581600D01*
G01X157200Y-1781500D02*
X599200D01*
Y-1983500D01*
X124200D01*
Y-1781500D01*
X192560D01*
G01X124400Y-1497600D02*
Y-1323600D01*
X202400D01*
Y-1511600D01*
X124400D01*
Y-1497600D01*
G01X500000Y-300000D02*
G03I-200000J0D01*
G01X388900Y-6500600D02*
X367900D01*
G01X333900Y-6501600D02*
X312900D01*
G01X367900Y-6530600D02*
Y-6476600D01*
X333900D01*
Y-6530600D01*
X367900D01*
G01X298900Y-6448600D02*
X451900D01*
Y-6559600D01*
X249900D01*
Y-6448600D01*
X298900D01*
G01X213700Y-6415000D02*
Y-6241000D01*
X291700D01*
Y-6429000D01*
X213700D01*
Y-6415000D01*
G01X408200D02*
Y-6241000D01*
X486200D01*
Y-6429000D01*
X408200D01*
Y-6415000D01*
G01X310900D02*
Y-6241000D01*
X388900D01*
Y-6429000D01*
X310900D01*
Y-6415000D01*
G01X271000Y-5560100D02*
X445000D01*
Y-5638100D01*
X257000D01*
Y-5560100D01*
X271000D01*
G01X1094300Y-4482500D02*
Y-5182500D01*
X454300D01*
Y-4482500D01*
X1094300D01*
G01X962700Y-3412000D02*
X454700D01*
G01X219800Y-3178500D02*
Y-3279000D01*
X218300Y-3280500D01*
G01X220800Y-3117500D02*
Y-3038000D01*
X223300Y-3035500D01*
G01X181600Y-2805900D02*
Y-2784900D01*
G01X180600Y-2750900D02*
Y-2729900D01*
G01X962700Y-2904000D02*
X454700D01*
G01X234000Y-2566500D02*
Y-2620500D01*
G01X200000Y-2566500D02*
Y-2620500D01*
G01X262590Y-2729400D02*
X436600D01*
X436610Y-2807400D01*
X248600D01*
X248610Y-2729400D01*
X262590D01*
G01X730700Y-2753100D02*
X455700D01*
Y-2351100D01*
X779700D01*
Y-2753100D01*
X715850D01*
G01X520600Y-2322200D02*
X346600D01*
Y-2244200D01*
X534600D01*
Y-2322200D01*
X520600D01*
G01X255000Y-2590500D02*
X234000D01*
G01X200000Y-2591500D02*
X179000D01*
G01X383200Y-2120400D02*
X483700D01*
X485200Y-2121900D01*
G01X322200Y-2119400D02*
X242700D01*
X240200Y-2116900D01*
G01X383200Y-2062900D02*
Y-2177900D01*
G01X322200Y-2061900D02*
Y-2176900D01*
G01X221900Y-1742600D02*
Y-1568600D01*
X299900D01*
Y-1756600D01*
X221900D01*
Y-1742600D01*
G01X398800Y-1581600D02*
Y-1755600D01*
X320800D01*
Y-1567600D01*
X398800D01*
Y-1581600D01*
G01X383200Y-1884000D02*
X483700D01*
X485200Y-1885500D01*
G01X322200Y-1883000D02*
X242700D01*
X240200Y-1880500D01*
G01X383200Y-1826500D02*
Y-1941500D01*
G01X322200Y-1825500D02*
Y-1940500D01*
G01X481600Y-1683400D02*
X655600D01*
Y-1761400D01*
X467600D01*
Y-1683400D01*
X481600D01*
G01X498200Y-1263600D02*
X773200D01*
Y-1665600D01*
X449200D01*
Y-1263600D01*
X513050D01*
G01X243800Y-1102800D02*
X751800D01*
G01X243800Y-594800D02*
X751800D01*
G01X1211000Y-7507500D02*
Y-7878500D01*
X649000D01*
Y-7472500D01*
X1211000D01*
Y-7572240D01*
G01X491500Y-7366600D02*
X665500D01*
Y-7444600D01*
X477500D01*
Y-7366600D01*
X491500D01*
G01X872500Y-7444600D02*
X698500D01*
Y-7366600D01*
X886500D01*
Y-7444600D01*
X872500D01*
G01X798400Y-6423600D02*
X624400D01*
Y-6345600D01*
X812400D01*
Y-6423600D01*
X798400D01*
G01X637400Y-6217300D02*
X811400D01*
Y-6295300D01*
X623400D01*
Y-6217300D01*
X637400D01*
G01X993700Y-6175300D02*
X694700D01*
Y-5768300D01*
X1036700D01*
Y-6175300D01*
X924540D01*
G01X714200Y-5618600D02*
X888200D01*
Y-5696600D01*
X700200D01*
Y-5618600D01*
X714200D01*
G01X605700Y-5444900D02*
Y-5221900D01*
X760700D01*
Y-5473900D01*
X605700D01*
Y-5444900D01*
G01X714200Y-5524600D02*
X888200D01*
Y-5602600D01*
X700200D01*
Y-5524600D01*
X714200D01*
G01X682700Y-5361900D02*
G02Y-5336900I-11167J12500D01*
G01Y-5316900D02*
Y-5335900D01*
G01Y-5362900D02*
Y-5381900D01*
G01X660300Y-4323000D02*
X842300D01*
Y-4416000D01*
X645300D01*
Y-4323000D01*
X676080D01*
G01X952000Y-3794340D02*
Y-4262300D01*
X765000D01*
Y-3738300D01*
X952000D01*
Y-3836750D01*
G01X745200Y-3687700D02*
Y-3842700D01*
X635200D01*
Y-3652700D01*
X745200D01*
Y-3687700D01*
G01X1077100Y-3632500D02*
X635100D01*
Y-3430500D01*
X1110100D01*
Y-3632500D01*
X1041740D01*
G01X851100Y-3530000D02*
X750600D01*
X749100Y-3528500D01*
G01X580100Y-2831900D02*
X601100D01*
G01X635100Y-2830900D02*
X656100D01*
G01X601100Y-2855900D02*
Y-2801900D01*
G01X635100Y-2855900D02*
Y-2801900D01*
G01X670100Y-2883900D02*
X517100D01*
Y-2772900D01*
X719100D01*
Y-2883900D01*
X670100D01*
G01X744800Y-2322200D02*
X570800D01*
Y-2244200D01*
X758800D01*
Y-2322200D01*
X744800D01*
G01X841200Y-2118400D02*
X740700D01*
X739200Y-2116900D01*
G01X1067200Y-2220900D02*
X625200D01*
Y-2018900D01*
X1100200D01*
Y-2220900D01*
X1031840D01*
G01X703300Y-1683400D02*
X877300D01*
Y-1761400D01*
X689300D01*
Y-1683400D01*
X703300D01*
G01X841200Y-1882000D02*
X740700D01*
X739200Y-1880500D01*
G01X1067200Y-1984500D02*
X625200D01*
Y-1782500D01*
X1100200D01*
Y-1984500D01*
X1031840D01*
G01X652200Y-1183400D02*
X631200D01*
G01X597200Y-1184400D02*
X576200D01*
G01X631200Y-1159400D02*
Y-1213400D01*
G01X597200Y-1159400D02*
Y-1213400D01*
G01X562200Y-1131400D02*
X715200D01*
Y-1242400D01*
X513200D01*
Y-1131400D01*
X562200D01*
G01X827200Y-464900D02*
X747700D01*
X745200Y-462400D01*
G01X662200Y-363400D02*
X1104200D01*
Y-565400D01*
X629200D01*
Y-363400D01*
X697560D01*
G01X908870Y-7368500D02*
Y-7448500D01*
X935530D01*
G01X957530D02*
Y-7368500D01*
X970870D01*
X976200Y-7372500D01*
X980200Y-7377830D01*
X983530Y-7385830D01*
X986200Y-7395170D01*
X986870Y-7408500D01*
X986200Y-7421830D01*
X983530Y-7431170D01*
X980200Y-7439170D01*
X976200Y-7444500D01*
X970870Y-7448500D01*
X957530D01*
G01X1005530Y-7368500D02*
X1022200Y-7448500D01*
X1038870Y-7368500D01*
G01X1058200Y-7448500D02*
X1086200Y-7368500D01*
G01X1058200D02*
X1086200Y-7448500D01*
G01X1107530Y-7432500D02*
X1111530Y-7441830D01*
X1116870Y-7447170D01*
X1122870Y-7448500D01*
X1128200Y-7447170D01*
X1133530Y-7440500D01*
X1136870Y-7432500D01*
X1137530Y-7424500D01*
X1136200Y-7415170D01*
X1131530Y-7408500D01*
X1126870Y-7405830D01*
X1120870D01*
G01X1126870D02*
X1130870Y-7401830D01*
X1134200Y-7395170D01*
X1135530Y-7387170D01*
X1134200Y-7379170D01*
X1130870Y-7372500D01*
X1124870Y-7368500D01*
X1118870Y-7369830D01*
X1112870Y-7375170D01*
G01X1159530Y-7381830D02*
X1163530Y-7373830D01*
X1168200Y-7369830D01*
X1173530Y-7368500D01*
X1180200Y-7371170D01*
X1184870Y-7377830D01*
X1186200Y-7385830D01*
X1185530Y-7393840D01*
X1182870Y-7400500D01*
X1169530Y-7413830D01*
X1163530Y-7423170D01*
X1159530Y-7436500D01*
X1158200Y-7448500D01*
X1186200D01*
G01X1222200Y-7368500D02*
X1216870Y-7371170D01*
X1212870Y-7377830D01*
X1210200Y-7385830D01*
X1208200Y-7396500D01*
X1207530Y-7408500D01*
X1208200Y-7420500D01*
X1210200Y-7431170D01*
X1212870Y-7439170D01*
X1216870Y-7445830D01*
X1222200Y-7448500D01*
X1227530Y-7445830D01*
X1231530Y-7439170D01*
X1234200Y-7431170D01*
X1236200Y-7420500D01*
X1236870Y-7408500D01*
X1236200Y-7396500D01*
X1234200Y-7385830D01*
X1231530Y-7377830D01*
X1227530Y-7371170D01*
X1222200Y-7368500D01*
G01X1259530Y-7381830D02*
X1263530Y-7373830D01*
X1268200Y-7369830D01*
X1273530Y-7368500D01*
X1280200Y-7371170D01*
X1284870Y-7377830D01*
X1286200Y-7385830D01*
X1285530Y-7393840D01*
X1282870Y-7400500D01*
X1269530Y-7413830D01*
X1263530Y-7423170D01*
X1259530Y-7436500D01*
X1258200Y-7448500D01*
X1286200D01*
G01X1322200D02*
Y-7368500D01*
X1314200Y-7384500D01*
G01Y-7448500D02*
X1330200D01*
G01X1372200D02*
X1366870Y-7447170D01*
X1362200Y-7441830D01*
X1358200Y-7433830D01*
X1355530Y-7424500D01*
X1354200Y-7413830D01*
Y-7403170D01*
X1355530Y-7392500D01*
X1358200Y-7383170D01*
X1362200Y-7375170D01*
X1366870Y-7369830D01*
X1372200Y-7368500D01*
X1377530Y-7369830D01*
X1382200Y-7375170D01*
X1386200Y-7383170D01*
X1388870Y-7392500D01*
X1390200Y-7403170D01*
Y-7413830D01*
X1388870Y-7424500D01*
X1386200Y-7433830D01*
X1382200Y-7441830D01*
X1377530Y-7447170D01*
X1372200Y-7448500D01*
G01X1436870Y-7375170D02*
X1432870Y-7371170D01*
X1428200Y-7368500D01*
X1422870D01*
X1416870Y-7372500D01*
X1412200Y-7379170D01*
X1408870Y-7387170D01*
X1406200Y-7400500D01*
X1405530Y-7412500D01*
X1406870Y-7424500D01*
X1408870Y-7432500D01*
X1412870Y-7440500D01*
X1417530Y-7445830D01*
X1422200Y-7448500D01*
X1426870D01*
X1431530Y-7445830D01*
X1435530Y-7441830D01*
X1438870Y-7436500D01*
G01X1472200Y-7368500D02*
Y-7448500D01*
G01X1456870Y-7368500D02*
X1487530D01*
G01X1509530Y-7381830D02*
X1513530Y-7373830D01*
X1518200Y-7369830D01*
X1523530Y-7368500D01*
X1530200Y-7371170D01*
X1534870Y-7377830D01*
X1536200Y-7385830D01*
X1535530Y-7393840D01*
X1532870Y-7400500D01*
X1519530Y-7413830D01*
X1513530Y-7423170D01*
X1509530Y-7436500D01*
X1508200Y-7448500D01*
X1536200D01*
G01X1557530Y-7436500D02*
X1561530Y-7443170D01*
X1566200Y-7447170D01*
X1572200Y-7448500D01*
X1578200Y-7445830D01*
X1582870Y-7440500D01*
X1586200Y-7431170D01*
X1586870Y-7420500D01*
X1585530Y-7409830D01*
X1582200Y-7403170D01*
X1577530Y-7397830D01*
X1572870Y-7396500D01*
X1568200Y-7397830D01*
X1562200Y-7403170D01*
X1564200Y-7368500D01*
X1582200D01*
G01X1605530Y-7448500D02*
X1622200Y-7368500D01*
X1638870Y-7448500D01*
G01X1632870Y-7420500D02*
X1611530D01*
G01X974500Y-6380600D02*
X953500D01*
G01X919500Y-6381600D02*
X898500D01*
G01X953500Y-6410600D02*
Y-6356600D01*
X919500D01*
Y-6410600D01*
X953500D01*
G01X884500Y-6328600D02*
X1037500D01*
Y-6439600D01*
X835500D01*
Y-6328600D01*
X884500D01*
G01Y-6200300D02*
X1037500D01*
Y-6311300D01*
X835500D01*
Y-6200300D01*
X884500D01*
G01X856500Y-6459400D02*
X1030500D01*
Y-6537400D01*
X842500D01*
Y-6459400D01*
X856500D01*
G01X974500Y-6252300D02*
X953500D01*
G01X919500Y-6253300D02*
X898500D01*
G01X953500Y-6228300D02*
Y-6282300D01*
G01X919500Y-6228300D02*
Y-6282300D01*
G01X1085500Y-5495100D02*
Y-5718100D01*
X930500D01*
Y-5466100D01*
X1085500D01*
Y-5495100D01*
G01X1036730Y-5785300D02*
G03I-17030J0D01*
G01X840900Y-5384900D02*
Y-5363900D01*
G01X892900Y-5294900D02*
Y-5447900D01*
X781900D01*
Y-5245900D01*
X892900D01*
Y-5294900D01*
G01X1008500Y-5623100D02*
Y-5604100D01*
G01Y-5577100D02*
Y-5558100D01*
G01X1035500Y-5604100D02*
X976500D01*
G01X1036500Y-5577100D02*
X977500D01*
G01X1087700Y-5266900D02*
Y-5440900D01*
X1009700D01*
Y-5252900D01*
X1087700D01*
Y-5266900D01*
G01X990800D02*
Y-5440900D01*
X912800D01*
Y-5252900D01*
X990800D01*
Y-5266900D01*
G01X839900Y-5329900D02*
Y-5308900D01*
G01X810900Y-5363900D02*
X864900D01*
Y-5329900D01*
X810900D01*
Y-5363900D01*
G01X1047800Y-4409000D02*
X873800D01*
Y-4331000D01*
X1061800D01*
Y-4409000D01*
X1047800D01*
G01X1072200Y-4184600D02*
X1051200D01*
G01X1072200Y-4159600D02*
Y-4213600D01*
G01X1037200Y-4131600D02*
X1190200D01*
Y-4242600D01*
X988200D01*
Y-4131600D01*
X1037200D01*
G01X1084900Y-3695700D02*
Y-3848700D01*
X973900D01*
Y-3646700D01*
X1084900D01*
Y-3695700D01*
G01X912100Y-3531000D02*
X991600D01*
X994100Y-3533500D01*
G01X851100Y-3587500D02*
Y-3472500D01*
G01X912100Y-3588500D02*
Y-3473500D01*
G01X1032900Y-3785700D02*
Y-3764700D01*
G01X1031900Y-3730700D02*
Y-3709700D01*
G01X1056900Y-3764700D02*
X1002900D01*
G01X1056900Y-3730700D02*
X1002900D01*
G01X1101900Y-2521700D02*
Y-2695700D01*
X1023900D01*
Y-2507700D01*
X1101900D01*
Y-2521700D01*
G01X1004400Y-2263500D02*
Y-2437500D01*
X926400D01*
Y-2249500D01*
X1004400D01*
Y-2263500D01*
G01X1023900Y-2424500D02*
Y-2250500D01*
X1101900D01*
Y-2438500D01*
X1023900D01*
Y-2424500D01*
G01X831100D02*
Y-2250500D01*
X909100D01*
Y-2438500D01*
X831100D01*
Y-2424500D01*
G01X902200Y-2119400D02*
X981700D01*
X984200Y-2121900D01*
G01X841200Y-2175900D02*
Y-2060900D01*
G01X902200Y-2176900D02*
Y-2061900D01*
G01X926800Y-1683400D02*
X1100800D01*
Y-1761400D01*
X912800D01*
Y-1683400D01*
X926800D01*
G01X902200Y-1883000D02*
X981700D01*
X984200Y-1885500D01*
G01X841200Y-1939500D02*
Y-1824500D01*
G01X902200Y-1940500D02*
Y-1825500D01*
G01X1087800Y-1666800D02*
X913800D01*
Y-1588800D01*
X1101800D01*
Y-1666800D01*
X1087800D01*
G01X926800Y-1490200D02*
X1100800D01*
Y-1568200D01*
X912800D01*
Y-1490200D01*
X926800D01*
G01X969800Y-1420700D02*
X990800D01*
G01X1024800Y-1419700D02*
X1045800D01*
G01X990800Y-1444700D02*
Y-1390700D01*
G01X1024800Y-1444700D02*
Y-1390700D01*
G01X1059800Y-1472700D02*
X906800D01*
Y-1361700D01*
X1108800D01*
Y-1472700D01*
X1059800D01*
G01X1045300Y-1174900D02*
Y-1195900D01*
G01X1046300Y-1229900D02*
Y-1250900D01*
G01X1075300Y-1195900D02*
X1021300D01*
Y-1229900D01*
X1075300D01*
Y-1195900D01*
G01X993300Y-1264900D02*
Y-1111900D01*
X1104300D01*
Y-1313900D01*
X993300D01*
Y-1264900D01*
G01X960600Y-1252500D02*
X786600D01*
Y-1174500D01*
X974600D01*
Y-1252500D01*
X960600D01*
G01X1004500Y-801100D02*
Y-700600D01*
X1006000Y-699100D01*
G01X1003500Y-862100D02*
Y-941600D01*
X1001000Y-944100D01*
G01X947000Y-801100D02*
X1062000D01*
G01X946000Y-862100D02*
X1061000D01*
G01X902000Y-1027100D02*
Y-585100D01*
X1104000D01*
Y-1060100D01*
X902000D01*
Y-991740D01*
G01X888200Y-465900D02*
X988700D01*
X990200Y-467400D01*
G01X888200Y-408400D02*
Y-523400D01*
G01X827200Y-407400D02*
Y-522400D01*
G01X1051900Y-272900D02*
Y-251900D01*
G01X1050900Y-217900D02*
Y-196900D01*
G01X1075900Y-251900D02*
X1021900D01*
G01X1075900Y-217900D02*
X1021900D01*
G01X1103900Y-182900D02*
Y-335900D01*
X992900D01*
Y-133900D01*
X1103900D01*
Y-182900D01*
G01X919800Y-272900D02*
Y-251900D01*
G01X918800Y-217900D02*
Y-196900D01*
G01X943800Y-251900D02*
X889800D01*
G01X943800Y-217900D02*
X889800D01*
G01X971800Y-182900D02*
Y-335900D01*
X860800D01*
Y-133900D01*
X971800D01*
Y-182900D01*
G01X1410000Y-7869500D02*
X1236000D01*
Y-7791500D01*
X1424000D01*
Y-7869500D01*
X1410000D01*
G01X1248000Y-7591500D02*
X1422000D01*
Y-7669500D01*
X1234000D01*
Y-7591500D01*
X1248000D01*
G01X1410000Y-7769500D02*
X1236000D01*
Y-7691500D01*
X1424000D01*
Y-7769500D01*
X1410000D01*
G01Y-7569500D02*
X1236000D01*
Y-7491500D01*
X1424000D01*
Y-7569500D01*
X1410000D01*
G01X1430600Y-7236800D02*
X1583600D01*
Y-7347800D01*
X1381600D01*
Y-7236800D01*
X1430600D01*
G01X1189800Y-7284500D02*
Y-7110500D01*
X1267800D01*
Y-7298500D01*
X1189800D01*
Y-7284500D01*
G01X1287100D02*
Y-7110500D01*
X1365100D01*
Y-7298500D01*
X1287100D01*
Y-7284500D01*
G01X1422600Y-7109800D02*
X1577600D01*
Y-7219800D01*
X1387600D01*
Y-7109800D01*
X1422600D01*
G01X1530700Y-7079200D02*
X1231700D01*
Y-6672200D01*
X1573700D01*
Y-7079200D01*
X1461540D01*
G01X1124000Y-6417700D02*
Y-4279700D01*
X3442000D01*
Y-6597700D01*
X1124000D01*
Y-6417700D01*
G01X1410900Y-4184600D02*
X1389900D01*
G01X1375900Y-4131600D02*
X1528900D01*
Y-4242600D01*
X1326900D01*
Y-4131600D01*
X1375900D01*
G01X1127200Y-4183600D02*
X1106200D01*
G01Y-4159600D02*
Y-4213600D01*
G01X1154800Y-3851600D02*
Y-3409600D01*
X1356800D01*
Y-3884600D01*
X1154800D01*
Y-3816240D01*
G01X1257300Y-3625600D02*
Y-3525100D01*
X1258800Y-3523600D01*
G01X1256300Y-3686600D02*
Y-3766100D01*
X1253800Y-3768600D01*
G01X1199800Y-3625600D02*
X1314800D01*
G01X1198800Y-3686600D02*
X1313800D01*
G01X1438400Y-3475000D02*
X1591400D01*
Y-3586000D01*
X1389400D01*
Y-3475000D01*
X1438400D01*
G01X1255300Y-3178500D02*
Y-3279000D01*
X1253800Y-3280500D01*
G01X1357800Y-2952500D02*
Y-3394500D01*
X1155800D01*
Y-2919500D01*
X1357800D01*
Y-2987860D01*
G01X1256300Y-3117500D02*
Y-3038000D01*
X1258800Y-3035500D01*
G01X1312800Y-3178500D02*
X1197800D01*
G01X1313800Y-3117500D02*
X1198800D01*
G01X1204200Y-2805900D02*
Y-2784900D01*
G01X1203200Y-2750900D02*
Y-2729900D01*
G01X1174200Y-2784900D02*
X1228200D01*
Y-2750900D01*
X1174200D01*
Y-2784900D01*
G01X1256200Y-2715900D02*
Y-2868900D01*
X1145200D01*
Y-2666900D01*
X1256200D01*
Y-2715900D01*
G01X1255300Y-2566500D02*
Y-2620500D01*
G01X1221300Y-2566500D02*
Y-2620500D01*
G01X1186300Y-2538500D02*
X1339300D01*
Y-2649500D01*
X1137300D01*
Y-2538500D01*
X1186300D01*
G01X1285100Y-2729400D02*
X1459100D01*
Y-2807400D01*
X1271100D01*
Y-2729400D01*
X1285100D01*
G01X1319300Y-2519000D02*
X1145300D01*
Y-2441000D01*
X1333300D01*
Y-2519000D01*
X1319300D01*
G01X1158300Y-2343600D02*
X1332300D01*
Y-2421600D01*
X1144300D01*
Y-2343600D01*
X1158300D01*
G01X1530200Y-2322200D02*
X1356200D01*
Y-2244200D01*
X1544200D01*
Y-2322200D01*
X1530200D01*
G01X1319300D02*
X1145300D01*
Y-2244200D01*
X1333300D01*
Y-2322200D01*
X1319300D01*
G01X1276300Y-2590500D02*
X1255300D01*
G01X1221300Y-2591500D02*
X1200300D01*
G01X1341300Y-2119400D02*
X1261800D01*
X1259300Y-2116900D01*
G01X1341300Y-2061900D02*
Y-2176900D01*
G01X1176300Y-2017900D02*
X1618300D01*
Y-2219900D01*
X1143300D01*
Y-2017900D01*
X1211660D01*
G01X1242800Y-1742600D02*
Y-1568600D01*
X1320800D01*
Y-1756600D01*
X1242800D01*
Y-1742600D01*
G01X1221400Y-1581600D02*
Y-1755600D01*
X1143400D01*
Y-1567600D01*
X1221400D01*
Y-1581600D01*
G01X1421600Y-1581590D02*
Y-1755600D01*
X1343600Y-1755610D01*
Y-1567600D01*
X1421600Y-1567610D01*
Y-1581590D01*
G01X1341300Y-1883000D02*
X1261800D01*
X1259300Y-1880500D01*
G01X1341300Y-1825500D02*
Y-1940500D01*
G01X1176300Y-1781500D02*
X1618300D01*
Y-1983500D01*
X1143300D01*
Y-1781500D01*
X1211660D01*
G01X1143400Y-1497600D02*
Y-1323600D01*
X1221400D01*
Y-1511600D01*
X1143400D01*
Y-1497600D01*
G01X1265500Y-1102800D02*
X1773500D01*
G01X1265500Y-594800D02*
X1773500D01*
G01X1458000Y-7801500D02*
X1632000D01*
Y-7879500D01*
X1444000D01*
Y-7801500D01*
X1458000D01*
G01X1730000Y-7769500D02*
X1556000D01*
Y-7691500D01*
X1744000D01*
Y-7769500D01*
X1730000D01*
G01Y-7669500D02*
X1556000D01*
Y-7591500D01*
X1744000D01*
Y-7669500D01*
X1730000D01*
G01X1620000Y-7569500D02*
X1446000D01*
Y-7491500D01*
X1634000D01*
Y-7569500D01*
X1620000D01*
G01X1523000Y-7604500D02*
Y-7778500D01*
X1445000D01*
Y-7590500D01*
X1523000D01*
Y-7604500D01*
G01X1520600Y-7288800D02*
X1499600D01*
G01X1465600Y-7289800D02*
X1444600D01*
G01X1499600Y-7264800D02*
Y-7318800D01*
G01X1465600Y-7264800D02*
Y-7318800D01*
G01X1680600Y-7123700D02*
Y-7297700D01*
X1602600D01*
Y-7109700D01*
X1680600D01*
Y-7123700D01*
G01X1667300Y-7375400D02*
X1841300D01*
Y-7453400D01*
X1653300D01*
Y-7375400D01*
X1667300D01*
G01X1666700Y-7014900D02*
Y-6993900D01*
G01X1665700Y-6959900D02*
Y-6938900D01*
G01X1690700Y-6993900D02*
X1636700D01*
G01X1690700Y-6959900D02*
X1636700D01*
G01X1718700Y-6924900D02*
Y-7077900D01*
X1607700D01*
Y-6875900D01*
X1718700D01*
Y-6924900D01*
G01X1608900Y-6843300D02*
Y-6669300D01*
X1686900D01*
Y-6857300D01*
X1608900D01*
Y-6843300D01*
G01X1573730Y-6689200D02*
G03I-17030J0D01*
G01X1465900Y-4183600D02*
X1444900D01*
G01Y-4159600D02*
Y-4213600D01*
G01X1410900Y-4159600D02*
Y-4213600D01*
G01X1757600Y-3794340D02*
Y-4262300D01*
X1570600D01*
Y-3738300D01*
X1757600D01*
Y-3836750D01*
G01X1535400Y-3687700D02*
Y-3842700D01*
X1425400D01*
Y-3652700D01*
X1535400D01*
Y-3687700D01*
G01X2070900Y-3632500D02*
X1628900D01*
Y-3430500D01*
X2103900D01*
Y-3632500D01*
X2035540D01*
G01X1507400Y-3503000D02*
Y-3557000D01*
G01X1473400Y-3503000D02*
Y-3557000D01*
G01X1982400Y-3412000D02*
X1474400D01*
G01X1528400Y-3527000D02*
X1507400D01*
G01X1473400Y-3528000D02*
X1452400D01*
G01X1982400Y-2904000D02*
X1474400D01*
G01X1599500Y-2831900D02*
X1620500D01*
G01X1654500Y-2830900D02*
X1675500D01*
G01X1620500Y-2855900D02*
Y-2801900D01*
G01X1654500Y-2855900D02*
Y-2801900D01*
G01X1689500Y-2883900D02*
X1536500D01*
Y-2772900D01*
X1738500D01*
Y-2883900D01*
X1689500D01*
G01X1750000Y-2753100D02*
X1475000D01*
Y-2351100D01*
X1799000D01*
Y-2753100D01*
X1735150D01*
G01X1764000Y-2322200D02*
X1590000D01*
Y-2244200D01*
X1778000D01*
Y-2322200D01*
X1764000D01*
G01X2089900Y-2220900D02*
X1647900D01*
Y-2018900D01*
X2122900D01*
Y-2220900D01*
X2054540D01*
G01X1402300Y-2120400D02*
X1502800D01*
X1504300Y-2121900D01*
G01X1402300Y-2062900D02*
Y-2177900D01*
G01X2089900Y-1984500D02*
X1647900D01*
Y-1782500D01*
X2122900D01*
Y-1984500D01*
X2054540D01*
G01X1402300Y-1884000D02*
X1502800D01*
X1504300Y-1885500D01*
G01X1402300Y-1826500D02*
Y-1941500D01*
G01X1502500Y-1683400D02*
X1676500D01*
Y-1761400D01*
X1488500D01*
Y-1683400D01*
X1502500D01*
G01X1519000Y-1263600D02*
X1794000D01*
Y-1665600D01*
X1470000D01*
Y-1263600D01*
X1533850D01*
G01X1669500Y-1183400D02*
X1648500D01*
G01X1614500Y-1184400D02*
X1593500D01*
G01X1648500Y-1159400D02*
Y-1213400D01*
G01X1614500Y-1159400D02*
Y-1213400D01*
G01X1579500Y-1131400D02*
X1732500D01*
Y-1242400D01*
X1530500D01*
Y-1131400D01*
X1579500D01*
G01X1686100Y-363400D02*
X2128100D01*
Y-565400D01*
X1653100D01*
Y-363400D01*
X1721460D01*
G01X1989900Y-7732900D02*
X2163900D01*
Y-7810900D01*
X1975900D01*
Y-7732900D01*
X1989900D01*
G01X2681000Y-7690300D02*
Y-6890300D01*
X1881000D01*
Y-7690300D01*
X2681000D01*
G01X1747500Y-7057900D02*
Y-6883900D01*
X1825500D01*
Y-7071900D01*
X1747500D01*
Y-7057900D01*
G01X1805400Y-6747800D02*
X1824400D01*
G01X1851400D02*
X1870400D01*
G01X1824400Y-6774800D02*
Y-6715800D01*
G01X1851400Y-6775800D02*
Y-6716800D01*
G01X1933400Y-6824800D02*
X1710400D01*
Y-6669800D01*
X1962400D01*
Y-6824800D01*
X1933400D01*
G01X2064600Y-6684200D02*
Y-6858200D01*
X1986600D01*
Y-6670200D01*
X2064600D01*
Y-6684200D01*
G01X1859500Y-4191600D02*
X1880500D01*
G01X1914500Y-4190600D02*
X1935500D01*
G01X1880500Y-4215600D02*
Y-4161600D01*
G01X1914500Y-4215600D02*
Y-4161600D01*
G01X1949500Y-4243600D02*
X1796500D01*
Y-4132600D01*
X1998500D01*
Y-4243600D01*
X1949500D01*
G01X1910700Y-3695700D02*
Y-3848700D01*
X1799700D01*
Y-3646700D01*
X1910700D01*
Y-3695700D01*
G01X1905900Y-3531000D02*
X1985400D01*
X1987900Y-3533500D01*
G01X1844900Y-3587500D02*
Y-3472500D01*
G01X1905900Y-3588500D02*
Y-3473500D01*
G01X1858700Y-3785700D02*
Y-3764700D01*
G01X1857700Y-3730700D02*
Y-3709700D01*
G01X1882700Y-3764700D02*
X1828700D01*
G01X1882700Y-3730700D02*
X1828700D01*
G01X1844900Y-3530000D02*
X1744400D01*
X1742900Y-3528500D01*
G01X2020700Y-2263500D02*
Y-2437500D01*
X1942700D01*
Y-2249500D01*
X2020700D01*
Y-2263500D01*
G01X1845000Y-2424500D02*
Y-2250500D01*
X1923000D01*
Y-2438500D01*
X1845000D01*
Y-2424500D01*
G01X1863900Y-2118400D02*
X1763400D01*
X1761900Y-2116900D01*
G01X1924900Y-2119400D02*
X2004400D01*
X2006900Y-2121900D01*
G01X1863900Y-2175900D02*
Y-2060900D01*
G01X1924900Y-2176900D02*
Y-2061900D01*
G01X1727700Y-1683400D02*
X1901700D01*
Y-1761400D01*
X1713700D01*
Y-1683400D01*
X1727700D01*
G01X1949500D02*
X2123500D01*
Y-1761400D01*
X1935500D01*
Y-1683400D01*
X1949500D01*
G01X1863900Y-1882000D02*
X1763400D01*
X1761900Y-1880500D01*
G01X1924900Y-1883000D02*
X2004400D01*
X2006900Y-1885500D01*
G01X1863900Y-1939500D02*
Y-1824500D01*
G01X1924900Y-1940500D02*
Y-1825500D01*
G01X1949900Y-1490200D02*
X2123900D01*
Y-1568200D01*
X1935900D01*
Y-1490200D01*
X1949900D01*
G01X2110900Y-1666800D02*
X1936900D01*
Y-1588800D01*
X2124900D01*
Y-1666800D01*
X2110900D01*
G01X1992900Y-1420700D02*
X2013900D01*
G01Y-1444700D02*
Y-1390700D01*
G01X2082900Y-1472700D02*
X1929900D01*
Y-1361700D01*
X2131900D01*
Y-1472700D01*
X2082900D01*
G01X1982800Y-1250600D02*
X1808800D01*
Y-1172600D01*
X1996800D01*
Y-1250600D01*
X1982800D01*
G01X1971400Y-801100D02*
X2086400D01*
G01X1970400Y-862100D02*
X2085400D01*
G01X1926400Y-1027100D02*
Y-585100D01*
X2128400D01*
Y-1060100D01*
X1926400D01*
Y-991740D01*
G01X1912100Y-465900D02*
X2012600D01*
X2014100Y-467400D01*
G01X1851100Y-464900D02*
X1771600D01*
X1769100Y-462400D01*
G01X1912100Y-408400D02*
Y-523400D01*
G01X1851100Y-407400D02*
Y-522400D01*
G01X1942800Y-272900D02*
Y-251900D01*
G01X1941800Y-217900D02*
Y-196900D01*
G01X1966800Y-251900D02*
X1912800D01*
G01X1966800Y-217900D02*
X1912800D01*
G01X1994800Y-182900D02*
Y-335900D01*
X1883800D01*
Y-133900D01*
X1994800D01*
Y-182900D01*
G01X2182200Y-3851600D02*
Y-3409600D01*
X2384200D01*
Y-3884600D01*
X2182200D01*
Y-3816240D01*
G01X2284700Y-3625600D02*
Y-3525100D01*
X2286200Y-3523600D01*
G01X2283700Y-3686600D02*
Y-3766100D01*
X2281200Y-3768600D01*
G01X2227200Y-3625600D02*
X2342200D01*
G01X2226200Y-3686600D02*
X2341200D01*
G01X2282700Y-3178500D02*
Y-3279000D01*
X2281200Y-3280500D01*
G01X2385200Y-2952500D02*
Y-3394500D01*
X2183200D01*
Y-2919500D01*
X2385200D01*
Y-2987860D01*
G01X2283700Y-3117500D02*
Y-3038000D01*
X2286200Y-3035500D01*
G01X2340200Y-3178500D02*
X2225200D01*
G01X2341200Y-3117500D02*
X2226200D01*
G01X2224100Y-2805900D02*
Y-2784900D01*
G01X2223100Y-2750900D02*
Y-2729900D01*
G01X2194100Y-2784900D02*
X2248100D01*
Y-2750900D01*
X2194100D01*
Y-2784900D01*
G01X2276100Y-2715900D02*
Y-2868900D01*
X2165100D01*
Y-2666900D01*
X2276100D01*
Y-2715900D01*
G01X2283700Y-2566500D02*
Y-2620500D01*
G01X2249700Y-2566500D02*
Y-2620500D01*
G01X2214700Y-2538500D02*
X2367700D01*
Y-2649500D01*
X2165700D01*
Y-2538500D01*
X2214700D01*
G01X2306100Y-2729400D02*
X2480100D01*
Y-2807400D01*
X2292100D01*
Y-2729400D01*
X2306100D01*
G01X2119100Y-2521700D02*
Y-2695700D01*
X2041100D01*
Y-2507700D01*
X2119100D01*
Y-2521700D01*
G01X2041100Y-2424500D02*
Y-2250500D01*
X2119100D01*
Y-2438500D01*
X2041100D01*
Y-2424500D01*
G01X2347700Y-2519000D02*
X2173700D01*
Y-2441000D01*
X2361700D01*
Y-2519000D01*
X2347700D01*
G01X2186700Y-2343600D02*
X2360700D01*
Y-2421600D01*
X2172700D01*
Y-2343600D01*
X2186700D01*
G01X2347700Y-2322200D02*
X2173700D01*
Y-2244200D01*
X2361700D01*
Y-2322200D01*
X2347700D01*
G01X2304700Y-2590500D02*
X2283700D01*
G01X2249700Y-2591500D02*
X2228700D01*
G01X2371800Y-2119400D02*
X2292300D01*
X2289800Y-2116900D01*
G01X2206800Y-2017900D02*
X2648800D01*
Y-2219900D01*
X2173800D01*
Y-2017900D01*
X2242160D01*
G01X2272100Y-1742600D02*
Y-1568600D01*
X2350100D01*
Y-1756600D01*
X2272100D01*
Y-1742600D01*
G01X2251500Y-1581600D02*
Y-1755600D01*
X2173500D01*
Y-1567600D01*
X2251500D01*
Y-1581600D01*
G01X2371800Y-1883000D02*
X2292300D01*
X2289800Y-1880500D01*
G01X2206800Y-1781500D02*
X2648800D01*
Y-1983500D01*
X2173800D01*
Y-1781500D01*
X2242160D01*
G01X2047900Y-1419700D02*
X2068900D01*
G01X2047900Y-1444700D02*
Y-1390700D01*
G01X2173500Y-1497600D02*
Y-1323600D01*
X2251500D01*
Y-1511600D01*
X2173500D01*
Y-1497600D01*
G01X2069400Y-1174900D02*
Y-1195900D01*
G01X2070400Y-1229900D02*
Y-1250900D01*
G01X2099400Y-1195900D02*
X2045400D01*
Y-1229900D01*
X2099400D01*
Y-1195900D01*
G01X2017400Y-1264900D02*
Y-1111900D01*
X2128400D01*
Y-1313900D01*
X2017400D01*
Y-1264900D01*
G01X2296000Y-1102800D02*
X2804000D01*
G01X2028900Y-801100D02*
Y-700600D01*
X2030400Y-699100D01*
G01X2027900Y-862100D02*
Y-941600D01*
X2025400Y-944100D01*
G01X2296000Y-594800D02*
X2804000D01*
G01X2076100Y-272900D02*
Y-251900D01*
G01X2075100Y-217900D02*
Y-196900D01*
G01X2100100Y-251900D02*
X2046100D01*
G01X2100100Y-217900D02*
X2046100D01*
G01X2128100Y-182900D02*
Y-335900D01*
X2017100D01*
Y-133900D01*
X2128100D01*
Y-182900D01*
G01X2398600Y-6651700D02*
X2572600D01*
Y-6729700D01*
X2384600D01*
Y-6651700D01*
X2398600D01*
G01Y-6749600D02*
X2572600D01*
Y-6827600D01*
X2384600D01*
Y-6749600D01*
X2398600D01*
G01X2689600Y-6665900D02*
Y-6839900D01*
X2611600D01*
Y-6651900D01*
X2689600D01*
Y-6665900D01*
G01X2474800Y-4183600D02*
X2453800D01*
G01X2419800Y-4184600D02*
X2398800D01*
G01X2453800Y-4159600D02*
Y-4213600D01*
G01X2419800Y-4159600D02*
Y-4213600D01*
G01X2384800Y-4131600D02*
X2537800D01*
Y-4242600D01*
X2335800D01*
Y-4131600D01*
X2384800D01*
G01X2767400Y-3794340D02*
Y-4262300D01*
X2580400D01*
Y-3738300D01*
X2767400D01*
Y-3836750D01*
G01X2538700Y-3687700D02*
Y-3842700D01*
X2428700D01*
Y-3652700D01*
X2538700D01*
Y-3687700D01*
G01X2538300Y-3503000D02*
Y-3557000D01*
G01X2504300Y-3503000D02*
Y-3557000D01*
G01X2469300Y-3475000D02*
X2622300D01*
Y-3586000D01*
X2420300D01*
Y-3475000D01*
X2469300D01*
G01X3006500Y-3412000D02*
X2498500D01*
G01X2559300Y-3527000D02*
X2538300D01*
G01X2504300Y-3528000D02*
X2483300D01*
G01X3006500Y-2904000D02*
X2498500D01*
G01X2624000Y-2831900D02*
X2645000D01*
G01X2714000Y-2883900D02*
X2561000D01*
Y-2772900D01*
X2763000D01*
Y-2883900D01*
X2714000D01*
G01X2774500Y-2753100D02*
X2499500D01*
Y-2351100D01*
X2823500D01*
Y-2753100D01*
X2759650D01*
G01X2568200Y-2322200D02*
X2394200D01*
Y-2244200D01*
X2582200D01*
Y-2322200D01*
X2568200D01*
G01X2788600D02*
X2614600D01*
Y-2244200D01*
X2802600D01*
Y-2322200D01*
X2788600D01*
G01X2432800Y-2120400D02*
X2533300D01*
X2534800Y-2121900D01*
G01X2432800Y-2062900D02*
Y-2177900D01*
G01X2371800Y-2061900D02*
Y-2176900D01*
G01X2449700Y-1581600D02*
Y-1755600D01*
X2371700D01*
Y-1567600D01*
X2449700D01*
Y-1581600D01*
G01X2432800Y-1884000D02*
X2533300D01*
X2534800Y-1885500D01*
G01X2432800Y-1826500D02*
Y-1941500D01*
G01X2371800Y-1825500D02*
Y-1940500D01*
G01X2530900Y-1683400D02*
X2704900D01*
Y-1761400D01*
X2516900D01*
Y-1683400D01*
X2530900D01*
G01X2547500Y-1263600D02*
X2822500D01*
Y-1665600D01*
X2498500D01*
Y-1263600D01*
X2562350D01*
G01X2643000Y-1184400D02*
X2622000D01*
G01X2608000Y-1131400D02*
X2761000D01*
Y-1242400D01*
X2559000D01*
Y-1131400D01*
X2608000D01*
G01X2951400Y-7602000D02*
X2777400D01*
Y-7524000D01*
X2965400D01*
Y-7602000D01*
X2951400D01*
G01Y-7802000D02*
X2777400D01*
Y-7724000D01*
X2965400D01*
Y-7802000D01*
X2951400D01*
G01X2789400Y-7624000D02*
X2963400D01*
Y-7702000D01*
X2775400D01*
Y-7624000D01*
X2789400D01*
G01X2952800Y-7485900D02*
X2778800D01*
Y-7407900D01*
X2966800D01*
Y-7485900D01*
X2952800D01*
G01X2872900Y-6934300D02*
X3046900D01*
Y-7012300D01*
X2858900D01*
Y-6934300D01*
X2872900D01*
G01X3033900Y-7108900D02*
X2859900D01*
Y-7030900D01*
X3047900D01*
Y-7108900D01*
X3033900D01*
G01X2872900Y-7132500D02*
X3046900D01*
Y-7210500D01*
X2858900D01*
Y-7132500D01*
X2872900D01*
G01X2741300Y-7107200D02*
Y-6933200D01*
X2819300D01*
Y-7121200D01*
X2741300D01*
Y-7107200D01*
G01X2936600Y-6856600D02*
X2915600D01*
G01X2936600Y-6831600D02*
Y-6885600D01*
G01X2901600Y-6803600D02*
X3054600D01*
Y-6914600D01*
X2852600D01*
Y-6803600D01*
X2901600D01*
G01X2873700Y-6708400D02*
X3047700D01*
Y-6786400D01*
X2859700D01*
Y-6708400D01*
X2873700D01*
G01X2871600Y-4191600D02*
X2892600D01*
G01X2926600Y-4190600D02*
X2947600D01*
G01X2892600Y-4215600D02*
Y-4161600D01*
G01X2926600Y-4215600D02*
Y-4161600D01*
G01X2961600Y-4243600D02*
X2808600D01*
Y-4132600D01*
X3010600D01*
Y-4243600D01*
X2961600D01*
G01X2917600Y-3695700D02*
Y-3848700D01*
X2806600D01*
Y-3646700D01*
X2917600D01*
Y-3695700D01*
G01X2877100Y-3587500D02*
Y-3472500D01*
G01X2938100Y-3588500D02*
Y-3473500D01*
G01X3103100Y-3632500D02*
X2661100D01*
Y-3430500D01*
X3136100D01*
Y-3632500D01*
X3067740D01*
G01X2865600Y-3785700D02*
Y-3764700D01*
G01X2864600Y-3730700D02*
Y-3709700D01*
G01X2889600Y-3764700D02*
X2835600D01*
G01X2889600Y-3730700D02*
X2835600D01*
G01X2877100Y-3530000D02*
X2776600D01*
X2775100Y-3528500D01*
G01X2938100Y-3531000D02*
X3017600D01*
X3020100Y-3533500D01*
G01X2679000Y-2830900D02*
X2700000D01*
G01X2645000Y-2855900D02*
Y-2801900D01*
G01X2679000Y-2855900D02*
Y-2801900D01*
G01X2860500Y-2424500D02*
Y-2250500D01*
X2938500D01*
Y-2438500D01*
X2860500D01*
Y-2424500D01*
G01X2890900Y-2118400D02*
X2790400D01*
X2788900Y-2116900D01*
G01X2890900Y-2175900D02*
Y-2060900D01*
G01X3116900Y-2220900D02*
X2674900D01*
Y-2018900D01*
X3149900D01*
Y-2220900D01*
X3081540D01*
G01X2753100Y-1683400D02*
X2927100D01*
Y-1761400D01*
X2739100D01*
Y-1683400D01*
X2753100D01*
G01X2890900Y-1882000D02*
X2790400D01*
X2788900Y-1880500D01*
G01X2890900Y-1939500D02*
Y-1824500D01*
G01X3116900Y-1984500D02*
X2674900D01*
Y-1782500D01*
X3149900D01*
Y-1984500D01*
X3081540D01*
G01X2698000Y-1183400D02*
X2677000D01*
G01Y-1159400D02*
Y-1213400D01*
G01X2643000Y-1159400D02*
Y-1213400D01*
G01X3011600Y-1250600D02*
X2837600D01*
Y-1172600D01*
X3025600D01*
Y-1250600D01*
X3011600D01*
G01X2917300Y-465900D02*
X3017800D01*
X3019300Y-467400D01*
G01X2856300Y-464900D02*
X2776800D01*
X2774300Y-462400D01*
G01X2917300Y-408400D02*
Y-523400D01*
G01X2856300Y-407400D02*
Y-522400D01*
G01X2691300Y-363400D02*
X3133300D01*
Y-565400D01*
X2658300D01*
Y-363400D01*
X2726660D01*
G01X2972500Y-251900D02*
X2918500D01*
G01X2972500Y-217900D02*
X2918500D01*
G01X3000500Y-182900D02*
Y-335900D01*
X2889500D01*
Y-133900D01*
X3000500D01*
Y-182900D01*
G01X3064400Y-7687000D02*
Y-7861000D01*
X2986400D01*
Y-7673000D01*
X3064400D01*
Y-7687000D01*
G01X3088400Y-7827000D02*
Y-7456000D01*
X3650400D01*
Y-7862000D01*
X3088400D01*
Y-7762260D01*
G01X3064400Y-7477000D02*
Y-7651000D01*
X2986400D01*
Y-7463000D01*
X3064400D01*
Y-7477000D01*
G01X3199400Y-7354000D02*
X3373400D01*
Y-7432000D01*
X3185400D01*
Y-7354000D01*
X3199400D01*
G01X3482000Y-7333500D02*
X3102400D01*
Y-6999400D01*
X3536700D01*
Y-7333500D01*
X3445910D01*
G01X3179000Y-6886000D02*
X3353000D01*
Y-6964000D01*
X3165000D01*
Y-6886000D01*
X3179000D01*
G01X3242000Y-6807000D02*
X3221000D01*
G01X3242000Y-6782000D02*
Y-6836000D01*
G01X3207000Y-6754000D02*
X3360000D01*
Y-6865000D01*
X3158000D01*
Y-6754000D01*
X3207000D01*
G01X3242000Y-6677000D02*
X3221000D01*
G01X3242000Y-6652000D02*
Y-6706000D01*
G01X3207000Y-6624000D02*
X3360000D01*
Y-6735000D01*
X3158000D01*
Y-6624000D01*
X3207000D01*
G01X2991600Y-6855600D02*
X2970600D01*
G01Y-6831600D02*
Y-6885600D01*
G01X3250600Y-4183600D02*
X3229600D01*
G01X3195600Y-4184600D02*
X3174600D01*
G01X3229600Y-4159600D02*
Y-4213600D01*
G01X3195600Y-4159600D02*
Y-4213600D01*
G01X3160600Y-4131600D02*
X3313600D01*
Y-4242600D01*
X3111600D01*
Y-4131600D01*
X3160600D01*
G01X3313500Y-3687700D02*
Y-3842700D01*
X3203500D01*
Y-3652700D01*
X3313500D01*
Y-3687700D01*
G01X3643300Y-3632500D02*
X3201300D01*
Y-3430500D01*
X3676300D01*
Y-3632500D01*
X3607940D01*
G01X3404000Y-2952500D02*
Y-3394500D01*
X3202000D01*
Y-2919500D01*
X3404000D01*
Y-2987860D01*
G01X3359000Y-3178500D02*
X3244000D01*
G01X3360000Y-3117500D02*
X3245000D01*
G01X3232700Y-2784900D02*
X3286700D01*
Y-2750900D01*
X3232700D01*
Y-2784900D01*
G01X3314700Y-2715900D02*
Y-2868900D01*
X3203700D01*
Y-2666900D01*
X3314700D01*
Y-2715900D01*
G01X3237000Y-2538500D02*
X3390000D01*
Y-2649500D01*
X3188000D01*
Y-2538500D01*
X3237000D01*
G01X3138300Y-2521700D02*
Y-2695700D01*
X3060300D01*
Y-2507700D01*
X3138300D01*
Y-2521700D01*
G01X3038300Y-2263500D02*
Y-2437500D01*
X2960300D01*
Y-2249500D01*
X3038300D01*
Y-2263500D01*
G01X3060300Y-2424500D02*
Y-2250500D01*
X3138300D01*
Y-2438500D01*
X3060300D01*
Y-2424500D01*
G01X3209000Y-2343600D02*
X3383000D01*
Y-2421600D01*
X3195000D01*
Y-2343600D01*
X3209000D01*
G01X3370000Y-2519000D02*
X3196000D01*
Y-2441000D01*
X3384000D01*
Y-2519000D01*
X3370000D01*
G01Y-2322200D02*
X3196000D01*
Y-2244200D01*
X3384000D01*
Y-2322200D01*
X3370000D01*
G01X2951900Y-2119400D02*
X3031400D01*
X3033900Y-2121900D01*
G01X2951900Y-2176900D02*
Y-2061900D01*
G01X3229200Y-2017900D02*
X3671200D01*
Y-2219900D01*
X3196200D01*
Y-2017900D01*
X3264560D01*
G01X3273900Y-1581600D02*
Y-1755600D01*
X3195900D01*
Y-1567600D01*
X3273900D01*
Y-1581600D01*
G01X2975700Y-1683400D02*
X3149700D01*
Y-1761400D01*
X2961700D01*
Y-1683400D01*
X2975700D01*
G01X3229200Y-1781500D02*
X3671200D01*
Y-1983500D01*
X3196200D01*
Y-1781500D01*
X3264560D01*
G01X2951900Y-1883000D02*
X3031400D01*
X3033900Y-1885500D01*
G01X2951900Y-1940500D02*
Y-1825500D01*
G01X2975700Y-1490200D02*
X3149700D01*
Y-1568200D01*
X2961700D01*
Y-1490200D01*
X2975700D01*
G01X3136700Y-1666800D02*
X2962700D01*
Y-1588800D01*
X3150700D01*
Y-1666800D01*
X3136700D01*
G01X3018700Y-1420700D02*
X3039700D01*
G01X3073700Y-1419700D02*
X3094700D01*
G01X3039700Y-1444700D02*
Y-1390700D01*
G01X3073700Y-1444700D02*
Y-1390700D01*
G01X3108700Y-1472700D02*
X2955700D01*
Y-1361700D01*
X3157700D01*
Y-1472700D01*
X3108700D01*
G01X3195900Y-1497600D02*
Y-1323600D01*
X3273900D01*
Y-1511600D01*
X3195900D01*
Y-1497600D01*
G01X3098300Y-1174900D02*
Y-1195900D01*
G01X3099300Y-1229900D02*
Y-1250900D01*
G01X3128300Y-1195900D02*
X3074300D01*
Y-1229900D01*
X3128300D01*
Y-1195900D01*
G01X3046300Y-1264900D02*
Y-1111900D01*
X3157300D01*
Y-1313900D01*
X3046300D01*
Y-1264900D01*
G01X3058000Y-801100D02*
Y-700600D01*
X3059500Y-699100D01*
G01X3057000Y-862100D02*
Y-941600D01*
X3054500Y-944100D01*
G01X3000500Y-801100D02*
X3115500D01*
G01X2999500Y-862100D02*
X3114500D01*
G01X2955500Y-1027100D02*
Y-585100D01*
X3157500D01*
Y-1060100D01*
X2955500D01*
Y-991740D01*
G01X3229600Y-363400D02*
X3671600D01*
Y-565400D01*
X3196600D01*
Y-363400D01*
X3264960D01*
G01X3082700Y-272900D02*
Y-251900D01*
G01X3081700Y-217900D02*
Y-196900D01*
G01X3106700Y-251900D02*
X3052700D01*
G01X3106700Y-217900D02*
X3052700D01*
G01X3134700Y-182900D02*
Y-335900D01*
X3023700D01*
Y-133900D01*
X3134700D01*
Y-182900D01*
G01X2948500Y-272900D02*
Y-251900D01*
G01X2947500Y-217900D02*
Y-196900D01*
G01X3495000Y-6790000D02*
Y-6945000D01*
X3385000D01*
Y-6755000D01*
X3495000D01*
Y-6790000D01*
G01X3297000Y-6806000D02*
X3276000D01*
G01Y-6782000D02*
Y-6836000D01*
G01X3297000Y-6676000D02*
X3276000D01*
G01Y-6652000D02*
Y-6706000D01*
G01X3561000Y-6719000D02*
X3387000D01*
Y-6641000D01*
X3575000D01*
Y-6719000D01*
X3561000D01*
G01X3496000Y-5761000D02*
Y-5587000D01*
X3574000D01*
Y-5775000D01*
X3496000D01*
Y-5761000D01*
G01X3659100Y-4784800D02*
Y-4939800D01*
X3549100D01*
Y-4749800D01*
X3659100D01*
Y-4784800D01*
G01X3513190Y-4416200D02*
X3687200D01*
X3687210Y-4494200D01*
X3499200D01*
X3499210Y-4416200D01*
X3513190D01*
G01X3510200Y-4305200D02*
X3692200D01*
Y-4398200D01*
X3495200D01*
Y-4305200D01*
X3525980D01*
G01X3531100Y-3794340D02*
Y-4262300D01*
X3344100D01*
Y-3738300D01*
X3531100D01*
Y-3836750D01*
G01X3417300Y-3587500D02*
Y-3472500D01*
G01X3478300Y-3588500D02*
Y-3473500D01*
G01X4037300Y-3412000D02*
X3529300D01*
G01X3301500Y-3178500D02*
Y-3279000D01*
X3300000Y-3280500D01*
G01X3417300Y-3530000D02*
X3316800D01*
X3315300Y-3528500D01*
G01X3478300Y-3531000D02*
X3557800D01*
X3560300Y-3533500D01*
G01X3302500Y-3117500D02*
Y-3038000D01*
X3305000Y-3035500D01*
G01X3262700Y-2805900D02*
Y-2784900D01*
G01X3261700Y-2750900D02*
Y-2729900D01*
G01X4037300Y-2904000D02*
X3529300D01*
G01X3306000Y-2566500D02*
Y-2620500D01*
G01X3272000Y-2566500D02*
Y-2620500D01*
G01X3343300Y-2729400D02*
X3517300D01*
Y-2807400D01*
X3329300D01*
Y-2729400D01*
X3343300D01*
G01X3807000Y-2753100D02*
X3532000D01*
Y-2351100D01*
X3856000D01*
Y-2753100D01*
X3792150D01*
G01X3592100Y-2322200D02*
X3418100D01*
Y-2244200D01*
X3606100D01*
Y-2322200D01*
X3592100D01*
G01X3327000Y-2590500D02*
X3306000D01*
G01X3272000Y-2591500D02*
X3251000D01*
G01X3455200Y-2120400D02*
X3555700D01*
X3557200Y-2121900D01*
G01X3394200Y-2119400D02*
X3314700D01*
X3312200Y-2116900D01*
G01X3455200Y-2062900D02*
Y-2177900D01*
G01X3394200Y-2061900D02*
Y-2176900D01*
G01X3297900Y-1742600D02*
Y-1568600D01*
X3375900D01*
Y-1756600D01*
X3297900D01*
Y-1742600D01*
G01X3477500Y-1581600D02*
Y-1755600D01*
X3399500D01*
Y-1567600D01*
X3477500D01*
Y-1581600D01*
G01X3455200Y-1884000D02*
X3555700D01*
X3557200Y-1885500D01*
G01X3394200Y-1883000D02*
X3314700D01*
X3312200Y-1880500D01*
G01X3455200Y-1826500D02*
Y-1941500D01*
G01X3394200Y-1825500D02*
Y-1940500D01*
G01X3553900Y-1683400D02*
X3727900D01*
Y-1761400D01*
X3539900D01*
Y-1683400D01*
X3553900D01*
G01X3570800Y-1263600D02*
X3845800D01*
Y-1665600D01*
X3521800D01*
Y-1263600D01*
X3585650D01*
G01X3320700Y-1102800D02*
X3828700D01*
G01X3320700Y-594800D02*
X3828700D01*
G01X3455600Y-465900D02*
X3556100D01*
X3557600Y-467400D01*
G01X3394600Y-464900D02*
X3315100D01*
X3312600Y-462400D01*
G01X3455600Y-408400D02*
Y-523400D01*
G01X3394600Y-407400D02*
Y-522400D01*
G01X3480200Y-273000D02*
Y-252000D01*
G01X3479200Y-218000D02*
Y-197000D01*
G01X3504200Y-252000D02*
X3450200D01*
G01X3504200Y-218000D02*
X3450200D01*
G01X3532200Y-183000D02*
Y-336000D01*
X3421200D01*
Y-134000D01*
X3532200D01*
Y-183000D01*
G01X4200000Y-7700000D02*
G03I-200000J0D01*
G01X3749000Y-7256000D02*
X3923000D01*
Y-7334000D01*
X3735000D01*
Y-7256000D01*
X3749000D01*
G01X3625900Y-6641000D02*
X3799900D01*
Y-6719000D01*
X3611900D01*
Y-6641000D01*
X3625900D01*
G01X3997900Y-6719000D02*
X3823900D01*
Y-6641000D01*
X4011900D01*
Y-6719000D01*
X3997900D01*
G01X3673900Y-6545300D02*
X3694900D01*
G01X3728900Y-6544300D02*
X3749900D01*
G01X3694900Y-6569300D02*
Y-6515300D01*
G01X3728900Y-6569300D02*
Y-6515300D01*
G01X3763900Y-6597300D02*
X3610900D01*
Y-6486300D01*
X3812900D01*
Y-6597300D01*
X3763900D01*
G01X3742000Y-5653500D02*
Y-5712500D01*
G01X3715000Y-5652500D02*
Y-5711500D01*
G01X3633000Y-5603500D02*
X3856000D01*
Y-5758500D01*
X3604000D01*
Y-5603500D01*
X3633000D01*
G01X3761000Y-5680500D02*
X3742000D01*
G01X3715000D02*
X3696000D01*
G01X3837400Y-5350100D02*
Y-5176100D01*
X3915400D01*
Y-5364100D01*
X3837400D01*
Y-5350100D01*
G01X3795800Y-4814800D02*
Y-4833800D01*
G01Y-4860800D02*
Y-4879800D01*
G01X3768800Y-4833800D02*
X3827800D01*
G01X3767800Y-4860800D02*
X3826800D01*
G01X3718800Y-4942800D02*
Y-4719800D01*
X3873800D01*
Y-4971800D01*
X3718800D01*
Y-4942800D01*
G01X3715300Y-4511700D02*
X3889300D01*
Y-4589700D01*
X3701300D01*
Y-4511700D01*
X3715300D01*
G01X3712300Y-4606500D02*
X3894300D01*
Y-4699500D01*
X3697300D01*
Y-4606500D01*
X3728080D01*
G01X4200000Y-4300000D02*
G03I-200000J0D01*
G01X3673500Y-3695700D02*
Y-3848700D01*
X3562500D01*
Y-3646700D01*
X3673500D01*
Y-3695700D01*
G01X4200000Y-3700000D02*
G03I-200000J0D01*
G01X3621500Y-3785700D02*
Y-3764700D01*
G01X3620500Y-3730700D02*
Y-3709700D01*
G01X3645500Y-3764700D02*
X3591500D01*
G01X3645500Y-3730700D02*
X3591500D01*
G01X3654900Y-2831900D02*
X3675900D01*
G01X3709900Y-2830900D02*
X3730900D01*
G01X3675900Y-2855900D02*
Y-2801900D01*
G01X3709900Y-2855900D02*
Y-2801900D01*
G01X3744900Y-2883900D02*
X3591900D01*
Y-2772900D01*
X3793900D01*
Y-2883900D01*
X3744900D01*
G01X3821400Y-2322200D02*
X3647400D01*
Y-2244200D01*
X3835400D01*
Y-2322200D01*
X3821400D01*
G01X3915600Y-2118400D02*
X3815100D01*
X3813600Y-2116900D01*
G01X4141600Y-2220900D02*
X3699600D01*
Y-2018900D01*
X4174600D01*
Y-2220900D01*
X4106240D01*
G01X3776300Y-1683400D02*
X3950300D01*
Y-1761400D01*
X3762300D01*
Y-1683400D01*
X3776300D01*
G01X3915600Y-1882000D02*
X3815100D01*
X3813600Y-1880500D01*
G01X4141600Y-1984500D02*
X3699600D01*
Y-1782500D01*
X4174600D01*
Y-1984500D01*
X4106240D01*
G01X3721300Y-1183400D02*
X3700300D01*
G01X3666300Y-1184400D02*
X3645300D01*
G01X3700300Y-1159400D02*
Y-1213400D01*
G01X3666300Y-1159400D02*
Y-1213400D01*
G01X3631300Y-1131400D02*
X3784300D01*
Y-1242400D01*
X3582300D01*
Y-1131400D01*
X3631300D01*
G01X4034500Y-1251900D02*
X3860500D01*
Y-1173900D01*
X4048500D01*
Y-1251900D01*
X4034500D01*
G01X3617300Y-273000D02*
Y-252000D01*
G01X3616300Y-218000D02*
Y-197000D01*
G01X3641300Y-252000D02*
X3587300D01*
G01X3641300Y-218000D02*
X3587300D01*
G01X3669300Y-183000D02*
Y-336000D01*
X3558300D01*
Y-134000D01*
X3669300D01*
Y-183000D01*
G01X4200000Y-300000D02*
G03I-200000J0D01*
G01X4507260Y-7501100D02*
X4039300D01*
Y-7314100D01*
X4563300D01*
Y-7501100D01*
X4464850D01*
G01X4097840Y-7107800D02*
X4565800D01*
Y-7294800D01*
X4041800D01*
Y-7107800D01*
X4140250D01*
G01X4097240Y-6898500D02*
X4565200D01*
Y-7085500D01*
X4041200D01*
Y-6898500D01*
X4139650D01*
G01X4096540Y-6692000D02*
X4564500D01*
Y-6879000D01*
X4040500D01*
Y-6692000D01*
X4138950D01*
G01X4096540Y-6484800D02*
X4564500D01*
Y-6671800D01*
X4040500D01*
Y-6484800D01*
X4138950D01*
G01X4505260Y-6465100D02*
X4037300D01*
Y-6278100D01*
X4561300D01*
Y-6465100D01*
X4462850D01*
G01X4505260Y-6255100D02*
X4037300D01*
Y-6068100D01*
X4561300D01*
Y-6255100D01*
X4462850D01*
G01X4505260Y-6049300D02*
X4037300D01*
Y-5862300D01*
X4561300D01*
Y-6049300D01*
X4462850D01*
G01X3886000Y-5761000D02*
Y-5587000D01*
X3964000D01*
Y-5775000D01*
X3886000D01*
Y-5761000D01*
G01X4505960Y-5841300D02*
X4038000D01*
Y-5654300D01*
X4562000D01*
Y-5841300D01*
X4463550D01*
G01X4505960Y-5430400D02*
X4038000D01*
Y-5243400D01*
X4562000D01*
Y-5430400D01*
X4463550D01*
G01X4505960Y-5635400D02*
X4038000D01*
Y-5448400D01*
X4562000D01*
Y-5635400D01*
X4463550D01*
G01X3937400Y-5350100D02*
Y-5176100D01*
X4015400D01*
Y-5364100D01*
X3937400D01*
Y-5350100D01*
G01X4505960Y-5224000D02*
X4038000D01*
Y-5037000D01*
X4562000D01*
Y-5224000D01*
X4463550D01*
G01X3950100Y-4782400D02*
Y-4803400D01*
G01X3951100Y-4837400D02*
Y-4858400D01*
G01X3980100Y-4803400D02*
X3926100D01*
Y-4837400D01*
X3980100D01*
Y-4803400D01*
G01X3898100Y-4872400D02*
Y-4719400D01*
X4009100D01*
Y-4921400D01*
X3898100D01*
Y-4872400D01*
G01X4505960Y-5014000D02*
X4038000D01*
Y-4827000D01*
X4562000D01*
Y-5014000D01*
X4463550D01*
G01X4505960Y-4804000D02*
X4038000D01*
Y-4617000D01*
X4562000D01*
Y-4804000D01*
X4463550D01*
G01X4173500Y-2521700D02*
Y-2695700D01*
X4095500D01*
Y-2507700D01*
X4173500D01*
Y-2521700D01*
G01X4074500Y-2263500D02*
Y-2437500D01*
X3996500D01*
Y-2249500D01*
X4074500D01*
Y-2263500D01*
G01X4095500Y-2424500D02*
Y-2250500D01*
X4173500D01*
Y-2438500D01*
X4095500D01*
Y-2424500D01*
G01X3898400D02*
Y-2250500D01*
X3976400D01*
Y-2438500D01*
X3898400D01*
Y-2424500D01*
G01X3976600Y-2119400D02*
X4056100D01*
X4058600Y-2121900D01*
G01X3915600Y-2175900D02*
Y-2060900D01*
G01X3976600Y-2176900D02*
Y-2061900D01*
G01X4001200Y-1683400D02*
X4175200D01*
Y-1761400D01*
X3987200D01*
Y-1683400D01*
X4001200D01*
G01X3976600Y-1883000D02*
X4056100D01*
X4058600Y-1885500D01*
G01X3915600Y-1939500D02*
Y-1824500D01*
G01X3976600Y-1940500D02*
Y-1825500D01*
G01X4001200Y-1490200D02*
X4175200D01*
Y-1568200D01*
X3987200D01*
Y-1490200D01*
X4001200D01*
G01X4162200Y-1666800D02*
X3988200D01*
Y-1588800D01*
X4176200D01*
Y-1666800D01*
X4162200D01*
G01X4044200Y-1420700D02*
X4065200D01*
G01X4099200Y-1419700D02*
X4120200D01*
G01X4065200Y-1444700D02*
Y-1390700D01*
G01X4099200Y-1444700D02*
Y-1390700D01*
G01X4134200Y-1472700D02*
X3981200D01*
Y-1361700D01*
X4183200D01*
Y-1472700D01*
X4134200D01*
G01X4124000Y-1174900D02*
Y-1195900D01*
G01X4125000Y-1229900D02*
Y-1250900D01*
G01X4154000Y-1195900D02*
X4100000D01*
Y-1229900D01*
X4154000D01*
Y-1195900D01*
G01X4072000Y-1264900D02*
Y-1111900D01*
X4183000D01*
Y-1313900D01*
X4072000D01*
Y-1264900D01*
G01X4084000Y-801100D02*
Y-700590D01*
X4085500Y-699100D01*
G01X4083000Y-862100D02*
Y-941600D01*
X4080500Y-944100D01*
G01X4026500Y-801100D02*
X4141500D01*
G01X4025500Y-862100D02*
X4140500D01*
G01X3981500Y-1027090D02*
Y-585100D01*
X4183500D01*
Y-1060090D01*
X3981500Y-1060100D01*
Y-991740D01*
G01X4400000Y-4100000D02*
X8500000D01*
Y-7900000D01*
X4400000D01*
Y-4100000D01*
G01X4800000Y-7700000D02*
G03I-200000J0D01*
G01Y-4300000D02*
G03I-200000J0D01*
G01X4400000Y-100000D02*
X8500000D01*
Y-3900000D01*
X4400000D01*
Y-100000D01*
G01X4800000Y-3700000D02*
G03I-200000J0D01*
G01X4877000Y-2226670D02*
Y-3365000D01*
X4403000D01*
Y-2149000D01*
X4877000D01*
Y-2226670D01*
G01X4800000Y-300000D02*
G03I-200000J0D01*
G01X4788000Y-7354200D02*
X4962000D01*
Y-7432200D01*
X4774000D01*
Y-7354200D01*
X4788000D01*
G01X4595400Y-7221300D02*
Y-6841700D01*
X4929500D01*
Y-7276000D01*
X4595400D01*
Y-7185210D01*
G01X4770200Y-6828000D02*
X4596200D01*
Y-6750000D01*
X4784200D01*
Y-6828000D01*
X4770200D01*
G01X4595400Y-6681300D02*
Y-6301700D01*
X4929500D01*
Y-6736000D01*
X4595400D01*
Y-6645210D01*
G01X4748300Y-6099500D02*
X4574300D01*
Y-6021500D01*
X4762300D01*
Y-6099500D01*
X4748300D01*
G01X4776900Y-6170300D02*
Y-4466000D01*
X6524500D01*
Y-6213100D01*
X4776900D01*
Y-6155830D01*
G01X4748300Y-5893300D02*
X4574300D01*
Y-5815300D01*
X4762300D01*
Y-5893300D01*
X4748300D01*
G01X4621400Y-5783100D02*
Y-5601100D01*
X4714400D01*
Y-5798100D01*
X4621400D01*
Y-5767320D01*
G01X4748300Y-5996700D02*
X4574300D01*
Y-5918700D01*
X4762300D01*
Y-5996700D01*
X4748300D01*
G01X4748910Y-5583800D02*
X4574900D01*
X4574890Y-5505800D01*
X4762900D01*
X4762890Y-5583800D01*
X4748910D01*
G01X4621400Y-5472200D02*
Y-5290200D01*
X4714400D01*
Y-5487200D01*
X4621400D01*
Y-5456420D01*
G01X4748900Y-5179700D02*
X4574900D01*
Y-5101700D01*
X4762900D01*
Y-5179700D01*
X4748900D01*
G01Y-5273300D02*
X4574900D01*
Y-5195300D01*
X4762900D01*
Y-5273300D01*
X4748900D01*
G01X4715400Y-4901100D02*
Y-5083100D01*
X4622400D01*
Y-4886100D01*
X4715400D01*
Y-4916880D01*
G01X4748900Y-4870800D02*
X4574900D01*
Y-4792800D01*
X4762900D01*
Y-4870800D01*
X4748900D01*
G01X4712900Y-4593900D02*
Y-4775900D01*
X4619900D01*
Y-4578900D01*
X4712900D01*
Y-4609680D01*
G01X5103200Y-844270D02*
Y-1982600D01*
X4629200D01*
Y-766600D01*
X5103200D01*
Y-844270D01*
G01X5121800Y-7556300D02*
X4988800D01*
Y-7452300D01*
X5134800D01*
Y-7556300D01*
X5099580D01*
G01X4947200Y-7556900D02*
X4814200D01*
Y-7452900D01*
X4960200D01*
Y-7556900D01*
X4924980D01*
G01X5059500Y-7734400D02*
Y-7715400D01*
G01Y-7688400D02*
Y-7669400D01*
G01X5086500Y-7715400D02*
X5027500D01*
G01X5087500Y-7688400D02*
X5028500D01*
G01X5136500Y-7606400D02*
Y-7829400D01*
X4981500D01*
Y-7577400D01*
X5136500D01*
Y-7606400D01*
G01X4890900Y-7734400D02*
Y-7715400D01*
G01Y-7688400D02*
Y-7669400D01*
G01X4917900Y-7715400D02*
X4858900D01*
G01X4918900Y-7688400D02*
X4859900D01*
G01X4967900Y-7606400D02*
Y-7829400D01*
X4812900D01*
Y-7577400D01*
X4967900D01*
Y-7606400D01*
G01X5181000Y-7254000D02*
X5007000D01*
Y-7176000D01*
X5195000D01*
Y-7254000D01*
X5181000D01*
G01X5002100Y-7353200D02*
X5176100D01*
Y-7431200D01*
X4988100D01*
Y-7353200D01*
X5002100D01*
G01X4963000Y-7132000D02*
Y-6792000D01*
X5237000D01*
Y-7148000D01*
X4963000D01*
Y-7115610D01*
G01X5084500Y-6633900D02*
X5065500D01*
G01X5084500Y-6605900D02*
Y-6664900D01*
G01X5002500Y-6556900D02*
X5225500D01*
Y-6711900D01*
X4973500D01*
Y-6556900D01*
X5002500D01*
G01X4967200Y-6477500D02*
Y-6303500D01*
X5045200D01*
Y-6491500D01*
X4967200D01*
Y-6477500D01*
G01X5081500Y-4411400D02*
X4907500D01*
Y-4333400D01*
X5095500D01*
Y-4411400D01*
X5081500D01*
G01X4885800Y-4206860D02*
Y-3738900D01*
X5072800D01*
Y-4262900D01*
X4885800D01*
Y-4164450D01*
G01X4927400Y-3519200D02*
Y-3345200D01*
X5005400D01*
Y-3533200D01*
X4927400D01*
Y-3519200D01*
G01X5097700Y-3629200D02*
X4923700D01*
Y-3551200D01*
X5111700D01*
Y-3629200D01*
X5097700D01*
G01X5103900Y-3358200D02*
Y-3532200D01*
X5025900D01*
Y-3344200D01*
X5103900D01*
Y-3358200D01*
G01X4965900Y-2899900D02*
Y-2920900D01*
G01X4966900Y-2954900D02*
Y-2975900D01*
G01X4941900Y-2920900D02*
X4995900D01*
G01X4941900Y-2954900D02*
X4995900D01*
G01X4913900Y-2989900D02*
Y-2836900D01*
X5024900D01*
Y-3038900D01*
X4913900D01*
Y-2989900D01*
G01X5054600Y-3025400D02*
Y-2540400D01*
X5650600Y-2540410D01*
Y-3126400D01*
X5054590D01*
X5054600Y-3002470D01*
G01X4965900Y-2679300D02*
Y-2700300D01*
G01X4966900Y-2734300D02*
Y-2755300D01*
G01X4941900Y-2700300D02*
X4995900D01*
G01X4941900Y-2734300D02*
X4995900D01*
G01X4913900Y-2769300D02*
Y-2616300D01*
X5024900D01*
Y-2818300D01*
X4913900D01*
Y-2769300D01*
G01X5085600Y-2356800D02*
X5238600D01*
Y-2467800D01*
X5036600D01*
Y-2356800D01*
X5085600D01*
G01X5067200Y-2118600D02*
X5086200D01*
G01Y-2145600D02*
Y-2086600D01*
G01X5195200Y-2195600D02*
X4972200D01*
Y-2040600D01*
X5224200D01*
Y-2195600D01*
X5195200D01*
G01X4875870Y-2181000D02*
G03I-26870J0D01*
G01X5102070Y-798600D02*
G03I-26870J0D01*
G01X4923840Y-699300D02*
G03I-12040J0D01*
G01X4899800Y-684300D02*
Y-462300D01*
X5100800D01*
Y-711300D01*
X4899800D01*
Y-673360D01*
G01X5037800Y-173100D02*
X5016800D01*
G01X4982800Y-174100D02*
X4961800D01*
G01X5016800Y-149100D02*
Y-203100D01*
G01X4982800Y-149100D02*
Y-203100D01*
G01X4947800Y-121100D02*
X5100800D01*
Y-232100D01*
X4898800D01*
Y-121100D01*
X4947800D01*
G01X4919800Y-250300D02*
X5093800D01*
Y-328300D01*
X4905800D01*
Y-250300D01*
X4919800D01*
G01X5080800Y-432000D02*
X4906800D01*
Y-354000D01*
X5094800D01*
Y-432000D01*
X5080800D01*
G01X5209770Y-7458200D02*
Y-7538200D01*
X5236430D01*
G01X5258430D02*
Y-7458200D01*
X5271770D01*
X5277100Y-7462200D01*
X5281100Y-7467530D01*
X5284430Y-7475530D01*
X5287100Y-7484870D01*
X5287770Y-7498200D01*
X5287100Y-7511530D01*
X5284430Y-7520870D01*
X5281100Y-7528870D01*
X5277100Y-7534200D01*
X5271770Y-7538200D01*
X5258430D01*
G01X5306430Y-7458200D02*
X5323100Y-7538200D01*
X5339770Y-7458200D01*
G01X5359100Y-7538200D02*
X5387100Y-7458200D01*
G01X5359100D02*
X5387100Y-7538200D01*
G01X5431100D02*
Y-7458200D01*
X5406430Y-7515530D01*
X5439770D01*
G01X5460430Y-7471530D02*
X5464430Y-7463530D01*
X5469100Y-7459530D01*
X5474430Y-7458200D01*
X5481100Y-7460870D01*
X5485770Y-7467530D01*
X5487100Y-7475530D01*
X5486430Y-7483540D01*
X5483770Y-7490200D01*
X5470430Y-7503530D01*
X5464430Y-7512870D01*
X5460430Y-7526200D01*
X5459100Y-7538200D01*
X5487100D01*
G01X5523100Y-7458200D02*
X5517770Y-7460870D01*
X5513770Y-7467530D01*
X5511100Y-7475530D01*
X5509100Y-7486200D01*
X5508430Y-7498200D01*
X5509100Y-7510200D01*
X5511100Y-7520870D01*
X5513770Y-7528870D01*
X5517770Y-7535530D01*
X5523100Y-7538200D01*
X5528430Y-7535530D01*
X5532430Y-7528870D01*
X5535100Y-7520870D01*
X5537100Y-7510200D01*
X5537770Y-7498200D01*
X5537100Y-7486200D01*
X5535100Y-7475530D01*
X5532430Y-7467530D01*
X5528430Y-7460870D01*
X5523100Y-7458200D01*
G01X5560430Y-7471530D02*
X5564430Y-7463530D01*
X5569100Y-7459530D01*
X5574430Y-7458200D01*
X5581100Y-7460870D01*
X5585770Y-7467530D01*
X5587100Y-7475530D01*
X5586430Y-7483540D01*
X5583770Y-7490200D01*
X5570430Y-7503530D01*
X5564430Y-7512870D01*
X5560430Y-7526200D01*
X5559100Y-7538200D01*
X5587100D01*
G01X5623100D02*
Y-7458200D01*
X5615100Y-7474200D01*
G01Y-7538200D02*
X5631100D01*
G01X5673100D02*
X5667770Y-7536870D01*
X5663100Y-7531530D01*
X5659100Y-7523530D01*
X5656430Y-7514200D01*
X5655100Y-7503530D01*
Y-7492870D01*
X5656430Y-7482200D01*
X5659100Y-7472870D01*
X5663100Y-7464870D01*
X5667770Y-7459530D01*
X5673100Y-7458200D01*
X5678430Y-7459530D01*
X5683100Y-7464870D01*
X5687100Y-7472870D01*
X5689770Y-7482200D01*
X5691100Y-7492870D01*
Y-7503530D01*
X5689770Y-7514200D01*
X5687100Y-7523530D01*
X5683100Y-7531530D01*
X5678430Y-7536870D01*
X5673100Y-7538200D01*
G01X5737770Y-7464870D02*
X5733770Y-7460870D01*
X5729100Y-7458200D01*
X5723770D01*
X5717770Y-7462200D01*
X5713100Y-7468870D01*
X5709770Y-7476870D01*
X5707100Y-7490200D01*
X5706430Y-7502200D01*
X5707770Y-7514200D01*
X5709770Y-7522200D01*
X5713770Y-7530200D01*
X5718430Y-7535530D01*
X5723100Y-7538200D01*
X5727770D01*
X5732430Y-7535530D01*
X5736430Y-7531530D01*
X5739770Y-7526200D01*
G01X5773100Y-7458200D02*
Y-7538200D01*
G01X5757770Y-7458200D02*
X5788430D01*
G01X5810430Y-7471530D02*
X5814430Y-7463530D01*
X5819100Y-7459530D01*
X5824430Y-7458200D01*
X5831100Y-7460870D01*
X5835770Y-7467530D01*
X5837100Y-7475530D01*
X5836430Y-7483540D01*
X5833770Y-7490200D01*
X5820430Y-7503530D01*
X5814430Y-7512870D01*
X5810430Y-7526200D01*
X5809100Y-7538200D01*
X5837100D01*
G01X5858430Y-7526200D02*
X5862430Y-7532870D01*
X5867100Y-7536870D01*
X5873100Y-7538200D01*
X5879100Y-7535530D01*
X5883770Y-7530200D01*
X5887100Y-7520870D01*
X5887770Y-7510200D01*
X5886430Y-7499530D01*
X5883100Y-7492870D01*
X5878430Y-7487530D01*
X5873770Y-7486200D01*
X5869100Y-7487530D01*
X5863100Y-7492870D01*
X5865100Y-7458200D01*
X5883100D01*
G01X5906430Y-7538200D02*
X5923100Y-7458200D01*
X5939770Y-7538200D01*
G01X5933770Y-7510200D02*
X5912430D01*
G01X5398800Y-7734400D02*
Y-7715400D01*
G01Y-7688400D02*
Y-7669400D01*
G01X5425800Y-7715400D02*
X5366800D01*
G01X5426800Y-7688400D02*
X5367800D01*
G01X5475800Y-7606400D02*
Y-7829400D01*
X5320800D01*
Y-7577400D01*
X5475800D01*
Y-7606400D01*
G01X5227900Y-7734400D02*
Y-7715400D01*
G01Y-7688400D02*
Y-7669400D01*
G01X5254900Y-7715400D02*
X5195900D01*
G01X5255900Y-7688400D02*
X5196900D01*
G01X5304900Y-7606400D02*
Y-7829400D01*
X5149900D01*
Y-7577400D01*
X5304900D01*
Y-7606400D01*
G01X5285040Y-7142000D02*
G03I-12040J0D01*
G01X5270000Y-6946000D02*
Y-6374000D01*
X5810000D01*
Y-7145000D01*
X5270000D01*
Y-6927840D01*
G01X5130500Y-6633900D02*
X5111500D01*
G01Y-6606900D02*
Y-6665900D01*
G01X5387000Y-6272000D02*
Y-6326000D01*
G01X5353000Y-6272000D02*
Y-6326000D01*
G01X5318000Y-6244000D02*
X5471000D01*
Y-6355000D01*
X5269000D01*
Y-6244000D01*
X5318000D01*
G01X5408000Y-6296000D02*
X5387000D01*
G01X5353000Y-6297000D02*
X5332000D01*
G01X5260100Y-4368400D02*
X5239100D01*
G01X5205100Y-4369400D02*
X5184100D01*
G01X5239100Y-4344400D02*
Y-4398400D01*
G01X5205100Y-4344400D02*
Y-4398400D01*
G01X5170100Y-4316400D02*
X5323100D01*
Y-4427400D01*
X5121100D01*
Y-4316400D01*
X5170100D01*
G01X5493400Y-3792940D02*
Y-4260900D01*
X5306400D01*
Y-3736900D01*
X5493400D01*
Y-3835350D01*
G01X5284400Y-3792940D02*
Y-4260900D01*
X5097400D01*
Y-3736900D01*
X5284400D01*
Y-3835350D01*
G01X5389100Y-3651700D02*
Y-3477700D01*
X5467100D01*
Y-3665700D01*
X5389100D01*
Y-3651700D01*
G01X5370300Y-3490700D02*
Y-3664700D01*
X5292300D01*
Y-3476700D01*
X5370300D01*
Y-3490700D01*
G01X5246100Y-3272690D02*
Y-3446700D01*
X5168100Y-3446710D01*
Y-3258700D01*
X5246100Y-3258710D01*
Y-3272690D01*
G01X5292300Y-3433700D02*
Y-3259700D01*
X5370300D01*
Y-3447700D01*
X5292300D01*
Y-3433700D01*
G01X5389100Y-3433710D02*
Y-3259700D01*
X5467100Y-3259690D01*
Y-3447700D01*
X5389100Y-3447690D01*
Y-3433710D01*
G01X5396700Y-2408800D02*
X5375700D01*
G01X5341700Y-2409800D02*
X5320700D01*
G01X5375700Y-2384800D02*
Y-2438800D01*
G01X5341700Y-2384800D02*
Y-2438800D01*
G01X5306700Y-2356800D02*
X5459700D01*
Y-2467800D01*
X5257700D01*
Y-2356800D01*
X5306700D01*
G01X5175600Y-2408800D02*
X5154600D01*
G01X5120600Y-2409800D02*
X5099600D01*
G01X5154600Y-2384800D02*
Y-2438800D01*
G01X5120600Y-2384800D02*
Y-2438800D01*
G01X5271300Y-1991700D02*
Y-1735700D01*
X5447300D01*
Y-2015700D01*
X5271300D01*
Y-1962130D01*
G01X5393800Y-2098800D02*
X5323800D01*
G01X5339810Y-2066800D02*
Y-2128800D01*
X5377800Y-2098800D01*
X5339810Y-2066800D01*
G01X5377800Y-2128800D02*
Y-2066800D01*
G01X5406800Y-2154800D02*
X5266800D01*
Y-2039800D01*
X5447800D01*
Y-2154800D01*
X5406800D01*
G01X5113200Y-2118600D02*
X5132200D01*
G01X5113200Y-2146600D02*
Y-2087600D01*
G01X5437100Y-1706200D02*
X5263100D01*
Y-1628200D01*
X5451100D01*
Y-1706200D01*
X5437100D01*
G01X5276800Y-1531800D02*
X5450800D01*
Y-1609800D01*
X5262800D01*
Y-1531800D01*
X5276800D01*
G01X5336900Y-1342200D02*
Y-1497200D01*
X5226900D01*
Y-1307200D01*
X5336900D01*
Y-1342200D01*
G01X5441200Y-1322200D02*
Y-1496200D01*
X5363200D01*
Y-1308200D01*
X5441200D01*
Y-1322200D01*
G01X5185400Y-1127000D02*
Y-1148000D01*
G01X5186400Y-1182000D02*
Y-1203000D01*
G01X5161400Y-1148000D02*
X5215400D01*
G01X5161400Y-1182000D02*
X5215400D01*
G01X5133400Y-1217000D02*
Y-1064000D01*
X5244400D01*
Y-1266000D01*
X5133400D01*
Y-1217000D01*
G01X5303530Y-1249900D02*
G03I-17030J0D01*
G01X5312500Y-859900D02*
X5611500D01*
Y-1266900D01*
X5269500D01*
Y-859900D01*
X5381660D01*
G01X5228400Y-862600D02*
Y-1036600D01*
X5150400D01*
Y-848600D01*
X5228400D01*
Y-862600D01*
G01X5258300Y-666200D02*
Y-821200D01*
X5148300D01*
Y-631200D01*
X5258300D01*
Y-666200D01*
G01X5336800Y-744200D02*
Y-765200D01*
G01X5283800Y-779200D02*
Y-626200D01*
X5394800D01*
Y-828200D01*
X5283800D01*
Y-779200D01*
G01X5335800Y-689200D02*
Y-710200D01*
G01X5311800D02*
X5365800D01*
G01X5311800Y-744200D02*
X5365800D01*
G01X5603200Y-295600D02*
Y-594600D01*
X5196200D01*
Y-252600D01*
X5603200D01*
Y-364760D01*
G01X5335500Y-173100D02*
X5314500D01*
G01X5280500Y-174100D02*
X5259500D01*
G01X5314500Y-149100D02*
Y-203100D01*
G01X5280500Y-149100D02*
Y-203100D01*
G01X5245500Y-121100D02*
X5398500D01*
Y-232100D01*
X5196500D01*
Y-121100D01*
X5245500D01*
G01X5230230Y-269600D02*
G03I-17030J0D01*
G01X5570800Y-7734400D02*
Y-7715400D01*
G01Y-7688400D02*
Y-7669400D01*
G01X5597800Y-7715400D02*
X5538800D01*
G01X5598800Y-7688400D02*
X5539800D01*
G01X5647800Y-7606400D02*
Y-7829400D01*
X5492800D01*
Y-7577400D01*
X5647800D01*
Y-7606400D01*
G01X5770900Y-7715400D02*
X5711900D01*
G01X5820900Y-7606400D02*
Y-7829400D01*
X5665900D01*
Y-7577400D01*
X5820900D01*
Y-7606400D01*
G01X5663000Y-6883000D02*
Y-6637000D01*
X5417000D01*
Y-6883000D01*
X5663000D01*
G01X5693000Y-6328000D02*
Y-6274000D01*
G01X5762000Y-6356000D02*
X5609000D01*
Y-6245000D01*
X5811000D01*
Y-6356000D01*
X5762000D01*
G01X5672000Y-6304000D02*
X5693000D01*
G01X5839900Y-4411400D02*
X5665900D01*
Y-4333400D01*
X5853900D01*
Y-4411400D01*
X5839900D01*
G01X5517700Y-4206860D02*
Y-3738900D01*
X5704700D01*
Y-4262900D01*
X5517700D01*
Y-4164450D01*
G01X5566300Y-3490700D02*
Y-3664700D01*
X5488300D01*
Y-3476700D01*
X5566300D01*
Y-3490700D01*
G01X5854000Y-3555000D02*
X5680000D01*
Y-3477000D01*
X5868000D01*
Y-3555000D01*
X5854000D01*
G01X5662100Y-3490700D02*
Y-3664700D01*
X5584100D01*
Y-3476700D01*
X5662100D01*
Y-3490700D01*
G01Y-3272700D02*
Y-3446700D01*
X5584100D01*
Y-3258700D01*
X5662100D01*
Y-3272700D01*
G01X5488300Y-3433700D02*
Y-3259700D01*
X5566300D01*
Y-3447700D01*
X5488300D01*
Y-3433700D01*
G01X5679600Y-3433710D02*
Y-3259700D01*
X5757600Y-3259690D01*
Y-3447700D01*
X5679600Y-3447690D01*
Y-3433710D01*
G01X5719100Y-2919700D02*
X5893100D01*
Y-2997700D01*
X5705100D01*
Y-2919700D01*
X5719100D01*
G01X5880110Y-2677400D02*
X5706100D01*
X5706090Y-2599400D01*
X5894100D01*
X5894090Y-2677400D01*
X5880110D01*
G01X5719100Y-2695500D02*
X5893100D01*
Y-2773500D01*
X5705100D01*
Y-2695500D01*
X5719100D01*
G01Y-2794400D02*
X5893100D01*
Y-2872400D01*
X5705100D01*
Y-2794400D01*
X5719100D01*
G01X5489900Y-2177100D02*
X5663900D01*
Y-2255100D01*
X5475900D01*
Y-2177100D01*
X5489900D01*
G01X5601800Y-2099200D02*
X5531800D01*
G01X5547800Y-2067200D02*
Y-2129200D01*
X5585800Y-2099200D01*
X5547800Y-2067200D01*
G01X5585800Y-2129200D02*
Y-2067200D01*
G01X5614800Y-2155200D02*
X5474800D01*
Y-2040200D01*
X5655800D01*
Y-2155200D01*
X5614800D01*
G01X5643900Y-2012400D02*
X5469900D01*
Y-1934400D01*
X5657900D01*
Y-2012400D01*
X5643900D01*
G01Y-1705500D02*
X5469900D01*
Y-1627500D01*
X5657900D01*
Y-1705500D01*
X5643900D01*
G01Y-1816100D02*
X5469900D01*
Y-1738100D01*
X5657900D01*
Y-1816100D01*
X5643900D01*
G01X5638200Y-1322200D02*
Y-1496200D01*
X5560200D01*
Y-1308200D01*
X5638200D01*
Y-1322200D01*
G01X5643900Y-1609500D02*
X5469900D01*
Y-1531500D01*
X5657900D01*
Y-1609500D01*
X5643900D01*
G01X5539800Y-1322200D02*
Y-1496200D01*
X5461800D01*
Y-1308200D01*
X5539800D01*
Y-1322200D01*
G01X5496700Y-646190D02*
Y-820200D01*
X5418700Y-820210D01*
Y-632200D01*
X5496700Y-632210D01*
Y-646190D01*
G01X5517900Y-807200D02*
Y-633200D01*
X5595900D01*
Y-821200D01*
X5517900D01*
Y-807200D01*
G01X5594800Y-216100D02*
X5420800D01*
Y-138100D01*
X5608800D01*
Y-216100D01*
X5594800D01*
G01X6165300Y-7606400D02*
Y-7829400D01*
X6010300D01*
Y-7577400D01*
X6165300D01*
Y-7606400D01*
G01X5916200Y-7734400D02*
Y-7715400D01*
G01Y-7688400D02*
Y-7669400D01*
G01X5943200Y-7715400D02*
X5884200D01*
G01X5944200Y-7688400D02*
X5885200D01*
G01X5993200Y-7606400D02*
Y-7829400D01*
X5838200D01*
Y-7577400D01*
X5993200D01*
Y-7606400D01*
G01X5743900Y-7734400D02*
Y-7715400D01*
G01Y-7688400D02*
Y-7669400D01*
G01X5771900Y-7688400D02*
X5712900D01*
G01X5857000Y-7168000D02*
X6039000D01*
Y-7261000D01*
X5842000D01*
Y-7168000D01*
X5872780D01*
G01X6117000Y-6808000D02*
Y-7148000D01*
X5843000D01*
Y-6792000D01*
X6117000D01*
Y-6824390D01*
G01X6002000Y-6616000D02*
X5849000D01*
Y-6505000D01*
X6051000D01*
Y-6616000D01*
X6002000D01*
G01X5912000Y-6694000D02*
X5933000D01*
G01X5967000Y-6693000D02*
X5988000D01*
G01X5933000Y-6718000D02*
Y-6664000D01*
G01X5967000Y-6718000D02*
Y-6664000D01*
G01X6002000Y-6746000D02*
X5849000D01*
Y-6635000D01*
X6051000D01*
Y-6746000D01*
X6002000D01*
G01X5912000Y-6564000D02*
X5933000D01*
G01X5967000Y-6563000D02*
X5988000D01*
G01X5933000Y-6588000D02*
Y-6534000D01*
G01X5967000Y-6588000D02*
Y-6534000D01*
G01X5727000Y-6328000D02*
Y-6274000D01*
G01X5912000Y-6434000D02*
X5933000D01*
G01X5967000Y-6433000D02*
X5988000D01*
G01X5933000Y-6458000D02*
Y-6404000D01*
G01X5967000Y-6458000D02*
Y-6404000D01*
G01X6002000Y-6486000D02*
X5849000D01*
Y-6375000D01*
X6051000D01*
Y-6486000D01*
X6002000D01*
G01X5727000Y-6303000D02*
X5748000D01*
G01X5886800Y-4333400D02*
X6060800D01*
Y-4411400D01*
X5872800D01*
Y-4333400D01*
X5886800D01*
G01X6127500Y-3792940D02*
Y-4260900D01*
X5940500D01*
Y-3736900D01*
X6127500D01*
Y-3835350D01*
G01X5919000Y-3792940D02*
Y-4260900D01*
X5732000D01*
Y-3736900D01*
X5919000D01*
Y-3835350D01*
G01X6065900Y-3567900D02*
Y-3664900D01*
X5985900D01*
Y-3504900D01*
X6065900D01*
Y-3582650D01*
G01X5885100Y-3651700D02*
Y-3477700D01*
X5963100D01*
Y-3665700D01*
X5885100D01*
Y-3651700D01*
G01X5871600Y-3433700D02*
Y-3259700D01*
X5949600D01*
Y-3447700D01*
X5871600D01*
Y-3433700D01*
G01X6049000Y-3272690D02*
Y-3446700D01*
X5971000Y-3446710D01*
Y-3258700D01*
X6049000Y-3258710D01*
Y-3272690D01*
G01X5776200Y-3433710D02*
Y-3259700D01*
X5854200Y-3259690D01*
Y-3447700D01*
X5776200Y-3447690D01*
Y-3433710D01*
G01X6165100Y-2685800D02*
X5991100D01*
Y-2607800D01*
X6179100D01*
Y-2685800D01*
X6165100D01*
G01X7169000Y-1161000D02*
Y-2538000D01*
X5734000D01*
Y-1103000D01*
X7169000D01*
Y-1175660D01*
G01X5786000Y-875000D02*
Y-122000D01*
X7118000D01*
Y-954000D01*
X5786000D01*
Y-848260D01*
G01X5832630Y-146000D02*
G03I-22630J0D01*
G01X6197300Y-7452300D02*
X6330300D01*
Y-7556300D01*
X6184300D01*
Y-7452300D01*
X6219520D01*
G01X6262400Y-7734400D02*
Y-7715400D01*
G01Y-7688400D02*
Y-7669400D01*
G01X6289400Y-7715400D02*
X6230400D01*
G01X6290400Y-7688400D02*
X6231400D01*
G01X6339400Y-7606400D02*
Y-7829400D01*
X6184400D01*
Y-7577400D01*
X6339400D01*
Y-7606400D01*
G01X6088300Y-7734400D02*
Y-7715400D01*
G01Y-7688400D02*
Y-7669400D01*
G01X6115300Y-7715400D02*
X6056300D01*
G01X6116300Y-7688400D02*
X6057300D01*
G01X6231000Y-7254000D02*
X6057000D01*
Y-7176000D01*
X6245000D01*
Y-7254000D01*
X6231000D01*
G01X6441000D02*
X6267000D01*
Y-7176000D01*
X6455000D01*
Y-7254000D01*
X6441000D01*
G01X6153000Y-7132000D02*
Y-6792000D01*
X6427000D01*
Y-7148000D01*
X6153000D01*
Y-7115610D01*
G01X6232000Y-6616000D02*
X6079000D01*
Y-6505000D01*
X6281000D01*
Y-6616000D01*
X6232000D01*
G01X6217000Y-6686000D02*
X6196000D01*
G01X6162000Y-6687000D02*
X6141000D01*
G01X6196000Y-6662000D02*
Y-6716000D01*
G01X6162000Y-6662000D02*
Y-6716000D01*
G01X6127000Y-6634000D02*
X6280000D01*
Y-6745000D01*
X6078000D01*
Y-6634000D01*
X6127000D01*
G01X6142000Y-6564000D02*
X6163000D01*
G01X6197000Y-6563000D02*
X6218000D01*
G01X6163000Y-6534000D02*
Y-6588000D01*
X6197000D01*
Y-6534000D01*
X6163000D01*
G01X6218000Y-6426000D02*
X6197000D01*
G01X6163000Y-6427000D02*
X6142000D01*
G01X6197000Y-6402000D02*
Y-6456000D01*
G01X6163000Y-6402000D02*
Y-6456000D01*
G01X6128000Y-6374000D02*
X6281000D01*
Y-6485000D01*
X6079000D01*
Y-6374000D01*
X6128000D01*
G01X6416500Y-6424000D02*
Y-6577000D01*
X6305500D01*
Y-6375000D01*
X6416500D01*
Y-6424000D01*
G01X6261000Y-6339000D02*
X6087000D01*
Y-6261000D01*
X6275000D01*
Y-6339000D01*
X6261000D01*
G01X6117900Y-4333400D02*
X6291900D01*
Y-4411400D01*
X6103900D01*
Y-4333400D01*
X6117900D01*
G01X6151200Y-4206860D02*
Y-3738900D01*
X6338200D01*
Y-4262900D01*
X6151200D01*
Y-4164450D01*
G01X6166000Y-3586400D02*
X6263000D01*
Y-3666400D01*
X6103000D01*
Y-3586400D01*
X6180750D01*
G01X6264010Y-3566800D02*
X6090000D01*
X6089990Y-3488800D01*
X6278000D01*
X6277990Y-3566800D01*
X6264010D01*
G01X6264000Y-3275700D02*
X6090000D01*
Y-3197700D01*
X6278000D01*
Y-3275700D01*
X6264000D01*
G01Y-3371000D02*
X6090000D01*
Y-3293000D01*
X6278000D01*
Y-3371000D01*
X6264000D01*
G01Y-3467700D02*
X6090000D01*
Y-3389700D01*
X6278000D01*
Y-3467700D01*
X6264000D01*
G01X6343600Y-2585800D02*
X6525600D01*
Y-2678800D01*
X6328600D01*
Y-2585800D01*
X6359380D01*
G01X6071470Y-985200D02*
Y-1065200D01*
X6098130D01*
G01X6120130D02*
Y-985200D01*
X6133470D01*
X6138800Y-989200D01*
X6142800Y-994530D01*
X6146130Y-1002530D01*
X6148800Y-1011870D01*
X6149470Y-1025200D01*
X6148800Y-1038530D01*
X6146130Y-1047870D01*
X6142800Y-1055870D01*
X6138800Y-1061200D01*
X6133470Y-1065200D01*
X6120130D01*
G01X6168130Y-985200D02*
X6184800Y-1065200D01*
X6201470Y-985200D01*
G01X6220800Y-1065200D02*
X6248800Y-985200D01*
G01X6220800D02*
X6248800Y-1065200D01*
G01X6272130Y-998530D02*
X6276130Y-990530D01*
X6280800Y-986530D01*
X6286130Y-985200D01*
X6292800Y-987870D01*
X6297470Y-994530D01*
X6298800Y-1002530D01*
X6298130Y-1010540D01*
X6295470Y-1017200D01*
X6282130Y-1030530D01*
X6276130Y-1039870D01*
X6272130Y-1053200D01*
X6270800Y-1065200D01*
X6298800D01*
G01X6322130Y-998530D02*
X6326130Y-990530D01*
X6330800Y-986530D01*
X6336130Y-985200D01*
X6342800Y-987870D01*
X6347470Y-994530D01*
X6348800Y-1002530D01*
X6348130Y-1010540D01*
X6345470Y-1017200D01*
X6332130Y-1030530D01*
X6326130Y-1039870D01*
X6322130Y-1053200D01*
X6320800Y-1065200D01*
X6348800D01*
G01X6384800Y-985200D02*
X6379470Y-987870D01*
X6375470Y-994530D01*
X6372800Y-1002530D01*
X6370800Y-1013200D01*
X6370130Y-1025200D01*
X6370800Y-1037200D01*
X6372800Y-1047870D01*
X6375470Y-1055870D01*
X6379470Y-1062530D01*
X6384800Y-1065200D01*
X6390130Y-1062530D01*
X6394130Y-1055870D01*
X6396800Y-1047870D01*
X6398800Y-1037200D01*
X6399470Y-1025200D01*
X6398800Y-1013200D01*
X6396800Y-1002530D01*
X6394130Y-994530D01*
X6390130Y-987870D01*
X6384800Y-985200D01*
G01X6422130Y-998530D02*
X6426130Y-990530D01*
X6430800Y-986530D01*
X6436130Y-985200D01*
X6442800Y-987870D01*
X6447470Y-994530D01*
X6448800Y-1002530D01*
X6448130Y-1010540D01*
X6445470Y-1017200D01*
X6432130Y-1030530D01*
X6426130Y-1039870D01*
X6422130Y-1053200D01*
X6420800Y-1065200D01*
X6448800D01*
G01X6484800D02*
Y-985200D01*
X6476800Y-1001200D01*
G01Y-1065200D02*
X6492800D01*
G01X6534800D02*
X6529470Y-1063870D01*
X6524800Y-1058530D01*
X6520800Y-1050530D01*
X6518130Y-1041200D01*
X6516800Y-1030530D01*
Y-1019870D01*
X6518130Y-1009200D01*
X6520800Y-999870D01*
X6524800Y-991870D01*
X6529470Y-986530D01*
X6534800Y-985200D01*
X6540130Y-986530D01*
X6544800Y-991870D01*
X6548800Y-999870D01*
X6551470Y-1009200D01*
X6552800Y-1019870D01*
Y-1030530D01*
X6551470Y-1041200D01*
X6548800Y-1050530D01*
X6544800Y-1058530D01*
X6540130Y-1063870D01*
X6534800Y-1065200D01*
G01X6599470Y-991870D02*
X6595470Y-987870D01*
X6590800Y-985200D01*
X6585470D01*
X6579470Y-989200D01*
X6574800Y-995870D01*
X6571470Y-1003870D01*
X6568800Y-1017200D01*
X6568130Y-1029200D01*
X6569470Y-1041200D01*
X6571470Y-1049200D01*
X6575470Y-1057200D01*
X6580130Y-1062530D01*
X6584800Y-1065200D01*
X6589470D01*
X6594130Y-1062530D01*
X6598130Y-1058530D01*
X6601470Y-1053200D01*
G01X6634800Y-985200D02*
Y-1065200D01*
G01X6619470Y-985200D02*
X6650130D01*
G01X6672130Y-998530D02*
X6676130Y-990530D01*
X6680800Y-986530D01*
X6686130Y-985200D01*
X6692800Y-987870D01*
X6697470Y-994530D01*
X6698800Y-1002530D01*
X6698130Y-1010540D01*
X6695470Y-1017200D01*
X6682130Y-1030530D01*
X6676130Y-1039870D01*
X6672130Y-1053200D01*
X6670800Y-1065200D01*
X6698800D01*
G01X6720130Y-1053200D02*
X6724130Y-1059870D01*
X6728800Y-1063870D01*
X6734800Y-1065200D01*
X6740800Y-1062530D01*
X6745470Y-1057200D01*
X6748800Y-1047870D01*
X6749470Y-1037200D01*
X6748130Y-1026530D01*
X6744800Y-1019870D01*
X6740130Y-1014530D01*
X6735470Y-1013200D01*
X6730800Y-1014530D01*
X6724800Y-1019870D01*
X6726800Y-985200D01*
X6744800D01*
G01X6768130Y-1065200D02*
X6784800Y-985200D01*
X6801470Y-1065200D01*
G01X6795470Y-1037200D02*
X6774130D01*
G01X6436000Y-7734400D02*
Y-7715400D01*
G01Y-7688400D02*
Y-7669400D01*
G01X6463000Y-7715400D02*
X6404000D01*
G01X6464000Y-7688400D02*
X6405000D01*
G01X6513000Y-7606400D02*
Y-7829400D01*
X6358000D01*
Y-7577400D01*
X6513000D01*
Y-7606400D01*
G01X6611300Y-7734400D02*
Y-7715400D01*
G01Y-7688400D02*
Y-7669400D01*
G01X6638300Y-7715400D02*
X6579300D01*
G01X6639300Y-7688400D02*
X6580300D01*
G01X6688300Y-7606400D02*
Y-7829400D01*
X6533300D01*
Y-7577400D01*
X6688300D01*
Y-7606400D01*
G01X6485040Y-7142000D02*
G03I-12040J0D01*
G01X6470000Y-6946000D02*
Y-6374000D01*
X7010000D01*
Y-7145000D01*
X6470000D01*
Y-6927840D01*
G01X6863000Y-6883000D02*
Y-6637000D01*
X6617000D01*
Y-6883000D01*
X6863000D01*
G01X6587000Y-6272000D02*
Y-6326000D01*
G01X6553000Y-6272000D02*
Y-6326000D01*
G01X6518000Y-6244000D02*
X6671000D01*
Y-6355000D01*
X6469000D01*
Y-6244000D01*
X6518000D01*
G01X6364500Y-6514000D02*
Y-6493000D01*
G01X6363500Y-6459000D02*
Y-6438000D01*
G01X6388500Y-6493000D02*
X6334500D01*
G01X6388500Y-6459000D02*
X6334500D01*
G01X6608000Y-6296000D02*
X6587000D01*
G01X6553000Y-6297000D02*
X6532000D01*
G01X6602000Y-6161400D02*
Y-5938400D01*
X6757000D01*
Y-6190400D01*
X6602000D01*
Y-6161400D01*
G01X6626500Y-5799000D02*
X6779500D01*
Y-5910000D01*
X6577500D01*
Y-5799000D01*
X6626500D01*
G01X6598500Y-5699600D02*
X6772500D01*
Y-5777600D01*
X6584500D01*
Y-5699600D01*
X6598500D01*
G01X6919000Y-5101000D02*
Y-5652000D01*
X6581000D01*
Y-5068000D01*
X6919000D01*
Y-5120070D01*
G01Y-5376500D02*
X6861500D01*
X6861000Y-5376000D01*
Y-5321000D01*
X6810000D01*
Y-5417000D01*
X6765000D01*
Y-5325000D01*
X6718000D01*
Y-5375000D01*
X6581000D01*
Y-5360000D01*
G01X6759000Y-3792940D02*
Y-4260900D01*
X6572000D01*
Y-3736900D01*
X6759000D01*
Y-3835350D01*
G01X6549000Y-3792940D02*
Y-4260900D01*
X6362000D01*
Y-3736900D01*
X6549000D01*
Y-3835350D01*
G01X6731000Y-3586000D02*
X6335000D01*
Y-3071000D01*
X6849000D01*
Y-3586000D01*
X6718800D01*
G01X6557100Y-2828000D02*
Y-3002000D01*
X6479100D01*
Y-2814000D01*
X6557100D01*
Y-2828000D01*
G01X6412500D02*
Y-3002000D01*
X6334500D01*
Y-2814000D01*
X6412500D01*
Y-2828000D01*
G01X6575700Y-2989000D02*
Y-2815000D01*
X6653700D01*
Y-3003000D01*
X6575700D01*
Y-2989000D01*
G01X6569900Y-2699000D02*
X6743900D01*
Y-2777000D01*
X6555900D01*
Y-2699000D01*
X6569900D01*
G01X6346600D02*
X6520600D01*
Y-2777000D01*
X6332600D01*
Y-2699000D01*
X6346600D01*
G01X6566900Y-2585800D02*
X6748900D01*
Y-2678800D01*
X6551900D01*
Y-2585800D01*
X6582680D01*
G01X6989900Y-7715400D02*
X6930900D01*
G01X6990900Y-7688400D02*
X6931900D01*
G01X7039900Y-7606400D02*
Y-7829400D01*
X6884900D01*
Y-7577400D01*
X7039900D01*
Y-7606400D01*
G01X6786300Y-7734400D02*
Y-7715400D01*
G01Y-7688400D02*
Y-7669400D01*
G01X6813300Y-7715400D02*
X6754300D01*
G01X6814300Y-7688400D02*
X6755300D01*
G01X6863300Y-7606400D02*
Y-7829400D01*
X6708300D01*
Y-7577400D01*
X6863300D01*
Y-7606400D01*
G01X6893000Y-6328000D02*
Y-6274000D01*
G01X6927000Y-6328000D02*
Y-6274000D01*
G01X6962000Y-6356000D02*
X6809000D01*
Y-6245000D01*
X7011000D01*
Y-6356000D01*
X6962000D01*
G01X6972000Y-6026000D02*
X6819000D01*
Y-5915000D01*
X7021000D01*
Y-6026000D01*
X6972000D01*
G01X6872000Y-6304000D02*
X6893000D01*
G01X6927000Y-6303000D02*
X6948000D01*
G01X6679000Y-6033400D02*
Y-6052400D01*
G01Y-6079400D02*
Y-6098400D01*
G01X6652000Y-6052400D02*
X6711000D01*
G01X6651000Y-6079400D02*
X6710000D01*
G01X7000000Y-6124000D02*
X6826000D01*
Y-6046000D01*
X7014000D01*
Y-6124000D01*
X7000000D01*
G01X6882000Y-5974000D02*
X6903000D01*
G01X6937000Y-5973000D02*
X6958000D01*
G01X6903000Y-5998000D02*
Y-5944000D01*
G01X6937000Y-5998000D02*
Y-5944000D01*
G01X6716500Y-5851000D02*
X6695500D01*
G01X6661500Y-5852000D02*
X6640500D01*
G01X6695500Y-5827000D02*
Y-5881000D01*
G01X6661500Y-5827000D02*
Y-5881000D01*
G01X6839000Y-5816000D02*
X7013000D01*
Y-5894000D01*
X6825000D01*
Y-5816000D01*
X6839000D01*
G01X6811000Y-4831900D02*
X6656000D01*
Y-4721900D01*
X6846000D01*
Y-4831900D01*
X6811000D01*
G01X6831000Y-4928600D02*
X6657000D01*
Y-4850600D01*
X6845000D01*
Y-4928600D01*
X6831000D01*
G01Y-5027300D02*
X6657000D01*
Y-4949300D01*
X6845000D01*
Y-5027300D01*
X6831000D01*
G01X6713000Y-4650300D02*
X6734000D01*
G01X6768000Y-4649300D02*
X6789000D01*
G01X6734000Y-4674300D02*
Y-4620300D01*
G01X6768000Y-4674300D02*
Y-4620300D01*
G01X6803000Y-4702300D02*
X6650000D01*
Y-4591300D01*
X6852000D01*
Y-4702300D01*
X6803000D01*
G01X6969000Y-3792940D02*
Y-4260900D01*
X6782000D01*
Y-3736900D01*
X6969000D01*
Y-3835350D01*
G01X7071200Y-3664300D02*
X6889200D01*
Y-3571300D01*
X7086200D01*
Y-3664300D01*
X7055420D01*
G01X6907200Y-3477500D02*
X7081200D01*
Y-3555500D01*
X6893200D01*
Y-3477500D01*
X6907200D01*
G01X6840320Y-3554000D02*
G03I-23320J0D01*
G01X6907200Y-3383300D02*
X7081200D01*
Y-3461300D01*
X6893200D01*
Y-3383300D01*
X6907200D01*
G01Y-3288300D02*
X7081200D01*
Y-3366300D01*
X6893200D01*
Y-3288300D01*
X6907200D01*
G01X7071200Y-3271500D02*
X6889200D01*
Y-3178500D01*
X7086200D01*
Y-3271500D01*
X7055420D01*
G01X6673400Y-2989000D02*
Y-2815000D01*
X6751400D01*
Y-3003000D01*
X6673400D01*
Y-2989000D01*
G01X6907400Y-3084300D02*
X7081400D01*
Y-3162300D01*
X6893400D01*
Y-3084300D01*
X6907400D01*
G01X6907200Y-2989800D02*
X7081200D01*
Y-3067800D01*
X6893200D01*
Y-2989800D01*
X6907200D01*
G01X6793000Y-2699000D02*
X6967000D01*
Y-2777000D01*
X6779000D01*
Y-2699000D01*
X6793000D01*
G01X6790000Y-2585800D02*
X6972000D01*
Y-2678800D01*
X6775000D01*
Y-2585800D01*
X6805780D01*
G01X7073200Y-7452300D02*
X7206200D01*
Y-7556300D01*
X7060200D01*
Y-7452300D01*
X7095420D01*
G01X6962900Y-7734400D02*
Y-7715400D01*
G01Y-7688400D02*
Y-7669400D01*
G01X7137500Y-7734400D02*
Y-7715400D01*
G01Y-7688400D02*
Y-7669400D01*
G01X7164500Y-7715400D02*
X7105500D01*
G01X7165500Y-7688400D02*
X7106500D01*
G01X7214500Y-7606400D02*
Y-7829400D01*
X7059500D01*
Y-7577400D01*
X7214500D01*
Y-7606400D01*
G01X7389800D02*
Y-7829400D01*
X7234800D01*
Y-7577400D01*
X7389800D01*
Y-7606400D01*
G01X7068500Y-7281700D02*
X7242500D01*
Y-7359700D01*
X7054500D01*
Y-7281700D01*
X7068500D01*
G01X7067000Y-7168000D02*
X7249000D01*
Y-7261000D01*
X7052000D01*
Y-7168000D01*
X7082780D01*
G01X7327000Y-6808000D02*
Y-7148000D01*
X7053000D01*
Y-6792000D01*
X7327000D01*
Y-6824390D01*
G01X7202000Y-6616000D02*
X7049000D01*
Y-6505000D01*
X7251000D01*
Y-6616000D01*
X7202000D01*
G01X7112000Y-6694000D02*
X7133000D01*
G01X7167000Y-6693000D02*
X7188000D01*
G01X7133000Y-6718000D02*
Y-6664000D01*
G01X7167000Y-6718000D02*
Y-6664000D01*
G01X7202000Y-6746000D02*
X7049000D01*
Y-6635000D01*
X7251000D01*
Y-6746000D01*
X7202000D01*
G01X7112000Y-6564000D02*
X7133000D01*
G01X7167000Y-6563000D02*
X7188000D01*
G01X7133000Y-6588000D02*
Y-6534000D01*
G01X7167000Y-6588000D02*
Y-6534000D01*
G01X7112000Y-6434000D02*
X7133000D01*
G01X7167000Y-6433000D02*
X7188000D01*
G01X7133000Y-6458000D02*
Y-6404000D01*
G01X7167000Y-6458000D02*
Y-6404000D01*
G01X7202000Y-6486000D02*
X7049000D01*
Y-6375000D01*
X7251000D01*
Y-6486000D01*
X7202000D01*
G01X7057000Y-6098000D02*
Y-5799000D01*
X7464000D01*
Y-6141000D01*
X7057000D01*
Y-6028840D01*
G01X8268000Y-5654000D02*
X6954000D01*
Y-4563000D01*
X8501000D01*
Y-5654000D01*
X8244920D01*
G01X7387400Y-3792940D02*
Y-4260900D01*
X7200400D01*
Y-3736900D01*
X7387400D01*
Y-3835350D01*
G01X7179000Y-3792940D02*
Y-4260900D01*
X6992000D01*
Y-3736900D01*
X7179000D01*
Y-3835350D01*
G01X7531000Y-3586000D02*
X7135000D01*
Y-3071000D01*
X7649000D01*
Y-3586000D01*
X7518800D01*
G01X7212500Y-2972400D02*
Y-2798400D01*
X7290500D01*
Y-2986400D01*
X7212500D01*
Y-2972400D01*
G01X7115900D02*
Y-2798400D01*
X7193900D01*
Y-2986400D01*
X7115900D01*
Y-2972400D01*
G01X7017000Y-2699000D02*
X7191000D01*
Y-2777000D01*
X7003000D01*
Y-2699000D01*
X7017000D01*
G01X7014000Y-2585800D02*
X7196000D01*
Y-2678800D01*
X6999000D01*
Y-2585800D01*
X7029780D01*
G01X7242000Y-2542000D02*
Y-594000D01*
X8479000D01*
Y-2667000D01*
X7242000D01*
Y-2510980D01*
G01X7487300Y-7734400D02*
Y-7715400D01*
G01Y-7688400D02*
Y-7669400D01*
G01X7514300Y-7715400D02*
X7455300D01*
G01X7515300Y-7688400D02*
X7456300D01*
G01X7564300Y-7606400D02*
Y-7829400D01*
X7409300D01*
Y-7577400D01*
X7564300D01*
Y-7606400D01*
G01X7312800Y-7734400D02*
Y-7715400D01*
G01Y-7688400D02*
Y-7669400D01*
G01X7339800Y-7715400D02*
X7280800D01*
G01X7340800Y-7688400D02*
X7281800D01*
G01X7432000Y-6616000D02*
X7279000D01*
Y-6505000D01*
X7481000D01*
Y-6616000D01*
X7432000D01*
G01X7417000Y-6686000D02*
X7396000D01*
G01X7362000Y-6687000D02*
X7341000D01*
G01X7396000Y-6662000D02*
Y-6716000D01*
G01X7362000Y-6662000D02*
Y-6716000D01*
G01X7327000Y-6634000D02*
X7480000D01*
Y-6745000D01*
X7278000D01*
Y-6634000D01*
X7327000D01*
G01X7342000Y-6564000D02*
X7363000D01*
G01X7397000Y-6563000D02*
X7418000D01*
G01X7363000Y-6534000D02*
Y-6588000D01*
X7397000D01*
Y-6534000D01*
X7363000D01*
G01X7418000Y-6426000D02*
X7397000D01*
G01X7363000Y-6427000D02*
X7342000D01*
G01X7397000Y-6402000D02*
Y-6456000D01*
G01X7363000Y-6402000D02*
Y-6456000D01*
G01X7328000Y-6374000D02*
X7481000D01*
Y-6485000D01*
X7279000D01*
Y-6374000D01*
X7328000D01*
G01X7593000Y-6491600D02*
X7539000D01*
G01X7593000Y-6457600D02*
X7539000D01*
G01X7621000Y-6422600D02*
Y-6575600D01*
X7510000D01*
Y-6373600D01*
X7621000D01*
Y-6422600D01*
G01X7618000Y-6235000D02*
X7521000D01*
Y-6155000D01*
X7681000D01*
Y-6235000D01*
X7603250D01*
G01X7548000Y-5924000D02*
X7701000D01*
Y-6035000D01*
X7499000D01*
Y-5924000D01*
X7548000D01*
G01X7681000Y-6134000D02*
X7507000D01*
Y-6056000D01*
X7695000D01*
Y-6134000D01*
X7681000D01*
G01X7464030Y-6124000D02*
G03I-17030J0D01*
G01X7548000Y-5794000D02*
X7701000D01*
Y-5905000D01*
X7499000D01*
Y-5794000D01*
X7548000D01*
G01X7597400Y-3792940D02*
Y-4260900D01*
X7410400D01*
Y-3736900D01*
X7597400D01*
Y-3835350D01*
G01X7385200Y-2811400D02*
Y-2985400D01*
X7307200D01*
Y-2797400D01*
X7385200D01*
Y-2811400D01*
G01X7503800Y-2972400D02*
Y-2798400D01*
X7581800D01*
Y-2986400D01*
X7503800D01*
Y-2972400D01*
G01X7403400D02*
Y-2798400D01*
X7481400D01*
Y-2986400D01*
X7403400D01*
Y-2972400D01*
G01X7564600Y-365000D02*
Y-539000D01*
X7486600D01*
Y-351000D01*
X7564600D01*
Y-365000D01*
G01X7370300D02*
Y-539000D01*
X7292300D01*
Y-351000D01*
X7370300D01*
Y-365000D01*
G01X7468400D02*
Y-539000D01*
X7390400D01*
Y-351000D01*
X7468400D01*
Y-365000D01*
G01X7564600Y-156500D02*
Y-330500D01*
X7486600D01*
Y-142500D01*
X7564600D01*
Y-156500D01*
G01X7663900Y-7734400D02*
Y-7715400D01*
G01Y-7688400D02*
Y-7669400D01*
G01X7690900Y-7715400D02*
X7631900D01*
G01X7691900Y-7688400D02*
X7632900D01*
G01X7740900Y-7606400D02*
Y-7829400D01*
X7585900D01*
Y-7577400D01*
X7740900D01*
Y-7606400D01*
G01X7839500Y-7734400D02*
Y-7715400D01*
G01Y-7688400D02*
Y-7669400D01*
G01X7866500Y-7715400D02*
X7807500D01*
G01X7867500Y-7688400D02*
X7808500D01*
G01X7916500Y-7606400D02*
Y-7829400D01*
X7761500D01*
Y-7577400D01*
X7916500D01*
Y-7606400D01*
G01X7884000Y-7199000D02*
Y-7373000D01*
X7806000D01*
Y-7185000D01*
X7884000D01*
Y-7199000D01*
G01X7694000Y-7039000D02*
Y-7213000D01*
X7616000D01*
Y-7025000D01*
X7694000D01*
Y-7039000D01*
G01X7776350Y-6995660D02*
X7982120Y-7201430D01*
X8328600Y-6854950D01*
X7975050Y-6501400D01*
X7628570Y-6847880D01*
X7786880Y-7006190D01*
G01X7716380Y-6847880D02*
G03I-29829J1D01*
G01X7569000Y-6512600D02*
Y-6491600D01*
G01X7568000Y-6457600D02*
Y-6436600D01*
G01X7617000Y-5952000D02*
Y-6006000D01*
G01X7583000Y-5952000D02*
Y-6006000D01*
G01X7737000Y-6098000D02*
Y-5799000D01*
X8144000D01*
Y-6141000D01*
X7737000D01*
Y-6028840D01*
G01X7638000Y-5846000D02*
X7617000D01*
G01X7583000Y-5847000D02*
X7562000D01*
G01X7617000Y-5822000D02*
Y-5876000D01*
G01X7583000Y-5822000D02*
Y-5876000D01*
G01X7638000Y-5976000D02*
X7617000D01*
G01X7583000Y-5977000D02*
X7562000D01*
G01X8016600Y-3792940D02*
Y-4260900D01*
X7829600D01*
Y-3736900D01*
X8016600D01*
Y-3835350D01*
G01X7806600Y-3792940D02*
Y-4260900D01*
X7619600D01*
Y-3736900D01*
X7806600D01*
Y-3835350D01*
G01X7869100Y-3667400D02*
X7687100D01*
Y-3574400D01*
X7884100D01*
Y-3667400D01*
X7853320D01*
G01X7705100Y-3477800D02*
X7879100D01*
Y-3555800D01*
X7691100D01*
Y-3477800D01*
X7705100D01*
G01X7640320Y-3554000D02*
G03I-23320J0D01*
G01X7705100Y-3383300D02*
X7879100D01*
Y-3461300D01*
X7691100D01*
Y-3383300D01*
X7705100D01*
G01Y-3288300D02*
X7879100D01*
Y-3366300D01*
X7691100D01*
Y-3288300D01*
X7705100D01*
G01X7869100Y-3271500D02*
X7687100D01*
Y-3178500D01*
X7884100D01*
Y-3271500D01*
X7853320D01*
G01X7796400Y-2914900D02*
Y-2740900D01*
X7874400D01*
Y-2928900D01*
X7796400D01*
Y-2914900D01*
G01X7701100Y-2915700D02*
Y-2741700D01*
X7779100D01*
Y-2929700D01*
X7701100D01*
Y-2915700D01*
G01X7705100Y-2989800D02*
X7879100D01*
Y-3067800D01*
X7691100D01*
Y-2989800D01*
X7705100D01*
G01Y-3084100D02*
X7879100D01*
Y-3162100D01*
X7691100D01*
Y-3084100D01*
X7705100D01*
G01X7665200Y-364990D02*
Y-539000D01*
X7587200Y-539010D01*
Y-351000D01*
X7665200Y-351010D01*
Y-364990D01*
G01X7769100Y-365000D02*
Y-539000D01*
X7691100D01*
Y-351000D01*
X7769100D01*
Y-365000D01*
G01X7871900D02*
Y-539000D01*
X7793900D01*
Y-351000D01*
X7871900D01*
Y-365000D01*
G01Y-156500D02*
Y-330500D01*
X7793900D01*
Y-142500D01*
X7871900D01*
Y-156500D01*
G01X7665200D02*
Y-330500D01*
X7587200D01*
Y-142500D01*
X7665200D01*
Y-156500D01*
G01X7769100D02*
Y-330500D01*
X7691100D01*
Y-142500D01*
X7769100D01*
Y-156500D01*
G01X8500000Y-7700000D02*
G03I-200000J0D01*
G01X8013800Y-7734400D02*
Y-7715400D01*
G01Y-7688400D02*
Y-7669400D01*
G01X8040800Y-7715400D02*
X7981800D01*
G01X8041800Y-7688400D02*
X7982800D01*
G01X8090800Y-7606400D02*
Y-7829400D01*
X7935800D01*
Y-7577400D01*
X8090800D01*
Y-7606400D01*
G01X8160000Y-6328000D02*
X8219000D01*
G01X8159000Y-6355000D02*
X8218000D01*
G01X8110000Y-6437000D02*
Y-6214000D01*
X8265000D01*
Y-6466000D01*
X8110000D01*
Y-6437000D01*
G01X8482000Y-6101000D02*
Y-6189000D01*
X8178000D01*
Y-6069000D01*
X8482000D01*
Y-6121760D01*
G01X8144030Y-6124000D02*
G03I-17030J0D01*
G01X8500000Y-4300000D02*
G03I-200000J0D01*
G01Y-3700000D02*
G03I-200000J0D01*
G01X7963000Y-2741600D02*
X8475000D01*
Y-3425000D01*
X7928100D01*
Y-2741600D01*
X7986260D01*
G01X7972400Y-365000D02*
Y-539000D01*
X7894400D01*
Y-351000D01*
X7972400D01*
Y-365000D01*
G01X8500000Y-300000D02*
G03I-200000J0D01*
G01X7972400Y-156500D02*
Y-330500D01*
X7894400D01*
Y-142500D01*
X7972400D01*
Y-156500D01*
G01X8461000Y-7274000D02*
X8287000D01*
Y-7196000D01*
X8475000D01*
Y-7274000D01*
X8461000D01*
G01X8299000Y-6996000D02*
X8473000D01*
Y-7074000D01*
X8285000D01*
Y-6996000D01*
X8299000D01*
G01X8297000Y-7088000D02*
X8479000D01*
Y-7181000D01*
X8282000D01*
Y-7088000D01*
X8312780D01*
G01X8418000Y-6656000D02*
X8397000D01*
G01X8363000Y-6657000D02*
X8342000D01*
G01X8397000Y-6632000D02*
Y-6686000D01*
G01X8363000Y-6632000D02*
Y-6686000D01*
G01X8328000Y-6604000D02*
X8481000D01*
Y-6715000D01*
X8279000D01*
Y-6604000D01*
X8328000D01*
G01Y-6214000D02*
X8481000D01*
Y-6325000D01*
X8279000D01*
Y-6214000D01*
X8328000D01*
G01X8418000Y-6526000D02*
X8397000D01*
G01X8363000Y-6527000D02*
X8342000D01*
G01X8397000Y-6502000D02*
Y-6556000D01*
G01X8363000Y-6502000D02*
Y-6556000D01*
G01X8328000Y-6474000D02*
X8481000D01*
Y-6585000D01*
X8279000D01*
Y-6474000D01*
X8328000D01*
G01X8418000Y-6396000D02*
X8397000D01*
G01X8363000Y-6397000D02*
X8342000D01*
G01X8397000Y-6372000D02*
Y-6426000D01*
G01X8363000Y-6372000D02*
Y-6426000D01*
G01X8328000Y-6344000D02*
X8481000D01*
Y-6455000D01*
X8279000D01*
Y-6344000D01*
X8328000D01*
G01X8187000Y-6309000D02*
Y-6328000D01*
G01Y-6355000D02*
Y-6374000D01*
G01X8461000Y-6044000D02*
X8287000D01*
Y-5966000D01*
X8475000D01*
Y-6044000D01*
X8461000D01*
G01X8418000Y-6266000D02*
X8397000D01*
G01X8363000Y-6267000D02*
X8342000D01*
G01X8397000Y-6296000D02*
Y-6242000D01*
X8363000D01*
Y-6296000D01*
X8397000D01*
G01X8357000Y-6167000D02*
Y-6092000D01*
X8305000Y-6130000D01*
X8357000Y-6167000D01*
G01X8379000Y-6130000D02*
X8284000D01*
G01X8305000Y-6093000D02*
Y-6168000D01*
G01X8300000Y-5866000D02*
X8474000D01*
Y-5944000D01*
X8286000D01*
Y-5866000D01*
X8300000D01*
G01X8461000Y-5844000D02*
X8287000D01*
Y-5766000D01*
X8475000D01*
Y-5844000D01*
X8461000D01*
G01X8500450Y-4618000D02*
G03I-54450J0D01*
G54D11*
G01X3811900Y-7017000D02*
X3852900Y-6986000D01*
X3830900Y-6955000D01*
X3789900Y-6986000D01*
X3811900Y-7017000D01*
G01X3850900Y-7021000D02*
X3796900Y-6953000D01*
G01X3998900Y-6789000D02*
Y-7202000D01*
X3642900D01*
Y-6760000D01*
X3998900D01*
Y-6829800D01*
G01X6282100Y-2751900D02*
Y-3164900D01*
X5926100D01*
Y-2722900D01*
X6282100D01*
Y-2792700D01*
G01X6095100Y-2979900D02*
X6136100Y-2948900D01*
X6114100Y-2917900D01*
X6073100Y-2948900D01*
X6095100Y-2979900D01*
G01X6134100Y-2983900D02*
X6080100Y-2915900D01*
G01X6482800Y-6113400D02*
G03I-59800J0D01*
G54D12*
G01X161900Y-1665600D02*
Y-1673100D01*
X161400Y-1673600D01*
G01X146400Y-1665600D02*
X177400D01*
Y-1657600D01*
X146400D01*
Y-1665600D01*
G01X149400Y-1413600D02*
X180400D01*
G01X149400Y-1421600D02*
X180400D01*
G01X254200Y-6331000D02*
Y-6323500D01*
X254700Y-6323000D01*
G01X254200Y-6339000D02*
Y-6346500D01*
X253700Y-6347000D01*
G01X238700Y-6331000D02*
X269700D01*
G01X238700Y-6339000D02*
X269700D01*
G01X448700Y-6331000D02*
Y-6323500D01*
X449200Y-6323000D01*
G01X448700Y-6339000D02*
Y-6346500D01*
X448200Y-6347000D01*
G01X433200Y-6331000D02*
X464200D01*
G01X433200Y-6339000D02*
X464200D01*
G01X351400Y-6331000D02*
Y-6323500D01*
X351900Y-6323000D01*
G01X351400Y-6339000D02*
Y-6346500D01*
X350900Y-6347000D01*
G01X335900Y-6331000D02*
X366900D01*
G01X335900Y-6339000D02*
X366900D01*
G01X355000Y-5600600D02*
X362500D01*
X363000Y-5601100D01*
G01X347000Y-5600600D02*
X339500D01*
X339000Y-5600100D01*
G01X355000Y-5585100D02*
Y-5616100D01*
G01X347000Y-5585100D02*
Y-5616100D01*
G01X245500Y-5147700D02*
X253000D01*
X253500Y-5148200D01*
G01X237500Y-5147700D02*
X230000D01*
X229500Y-5147200D01*
G01X245500Y-5132200D02*
Y-5163200D01*
G01X237500Y-5132200D02*
Y-5163200D01*
G01X245500Y-5053200D02*
X253000D01*
X253500Y-5053700D01*
G01X237500Y-5053200D02*
X230000D01*
X229500Y-5052700D01*
G01X245500Y-5068700D02*
Y-5037700D01*
X237500D01*
Y-5068700D01*
X245500D01*
G01X346600Y-2769900D02*
X354100D01*
X354600Y-2770400D01*
G01X338600Y-2769900D02*
X331100D01*
X330600Y-2769400D01*
G01X346600Y-2754400D02*
Y-2785400D01*
G01X338600Y-2754400D02*
Y-2785400D01*
G01X221000Y-2384100D02*
X228500D01*
X229000Y-2384600D01*
G01X213000Y-2384100D02*
X205500D01*
X205000Y-2383600D01*
G01X221000Y-2399600D02*
Y-2368600D01*
X213000D01*
Y-2399600D01*
X221000D01*
G01X214000Y-2478500D02*
X206500D01*
X206000Y-2478000D01*
G01X222000Y-2478500D02*
X229500D01*
X230000Y-2479000D01*
G01X214000Y-2463000D02*
Y-2494000D01*
X222000D01*
Y-2463000D01*
X214000D01*
G01X436600Y-2281700D02*
X429100D01*
X428600Y-2281200D01*
G01X444600Y-2281700D02*
X452100D01*
X452600Y-2282200D01*
G01X436600Y-2266200D02*
Y-2297200D01*
X444600D01*
Y-2266200D01*
X436600D01*
G01X214000Y-2281700D02*
X206500D01*
X206000Y-2281200D01*
G01X222000Y-2281700D02*
X229500D01*
X230000Y-2282200D01*
G01X214000Y-2266200D02*
Y-2297200D01*
X222000D01*
Y-2266200D01*
X214000D01*
G01X262400Y-1658600D02*
Y-1651100D01*
X262900Y-1650600D01*
G01X262400Y-1666600D02*
Y-1674100D01*
X261900Y-1674600D01*
G01X277900Y-1658600D02*
X246900D01*
Y-1666600D01*
X277900D01*
Y-1658600D01*
G01X161900Y-1657600D02*
Y-1650100D01*
X162400Y-1649600D01*
G01X358300Y-1665600D02*
Y-1673100D01*
X357800Y-1673600D01*
G01X358300Y-1657600D02*
Y-1650100D01*
X358800Y-1649600D01*
G01X342800Y-1665600D02*
X373800D01*
Y-1657600D01*
X342800D01*
Y-1665600D01*
G01X164900Y-1413600D02*
Y-1406100D01*
X165400Y-1405600D01*
G01X164900Y-1421600D02*
Y-1429100D01*
X164400Y-1429600D01*
G01X575500Y-7407100D02*
X583000D01*
X583500Y-7407600D01*
G01X567500Y-7407100D02*
X560000D01*
X559500Y-7406600D01*
G01X575500Y-7391600D02*
Y-7422600D01*
G01X567500Y-7391600D02*
Y-7422600D01*
G01X714400Y-6383100D02*
X706900D01*
X706400Y-6382600D01*
G01X722400Y-6383100D02*
X729900D01*
X730400Y-6383600D01*
G01X714400Y-6398600D02*
Y-6367600D01*
G01X722400Y-6398600D02*
Y-6367600D01*
G01X721400Y-6257800D02*
X728900D01*
X729400Y-6258300D01*
G01X713400Y-6257800D02*
X705900D01*
X705400Y-6257300D01*
G01X721400Y-6242300D02*
Y-6273300D01*
G01X713400Y-6242300D02*
Y-6273300D01*
G01X660800Y-2281700D02*
X653300D01*
X652800Y-2281200D01*
G01X668800Y-2281700D02*
X676300D01*
X676800Y-2282200D01*
G01X660800Y-2297200D02*
Y-2266200D01*
G01X668800Y-2297200D02*
Y-2266200D01*
G01X779300Y-1723900D02*
X771800D01*
X771300Y-1723400D01*
G01X565600Y-1723900D02*
X573100D01*
X573600Y-1724400D01*
G01X557600Y-1723900D02*
X550100D01*
X549600Y-1723400D01*
G01X565600Y-1708400D02*
Y-1739400D01*
G01X557600Y-1708400D02*
Y-1739400D01*
G01X788500Y-7404100D02*
X781000D01*
X780500Y-7403600D01*
G01X796500Y-7404100D02*
X804000D01*
X804500Y-7404600D01*
G01X788500Y-7419600D02*
Y-7388600D01*
G01X796500Y-7419600D02*
Y-7388600D01*
G01X940500Y-6499900D02*
X948000D01*
X948500Y-6500400D01*
G01X932500Y-6499900D02*
X925000D01*
X924500Y-6499400D01*
G01X940500Y-6484400D02*
Y-6515400D01*
G01X932500Y-6484400D02*
Y-6515400D01*
G01X798200Y-5565100D02*
X805700D01*
X806200Y-5565600D01*
G01X790200Y-5565100D02*
X782700D01*
X782200Y-5564600D01*
G01X798200Y-5549600D02*
Y-5580600D01*
G01X790200Y-5549600D02*
Y-5580600D01*
G01X798200Y-5659100D02*
X805700D01*
X806200Y-5659600D01*
G01X790200Y-5659100D02*
X782700D01*
X782200Y-5658600D01*
G01X798200Y-5643600D02*
Y-5674600D01*
G01X790200Y-5643600D02*
Y-5674600D01*
G01X1047200Y-5350900D02*
Y-5358400D01*
X1046700Y-5358900D01*
G01X1047200Y-5342900D02*
Y-5335400D01*
X1047700Y-5334900D01*
G01X1062700Y-5350900D02*
X1031700D01*
G01X1062700Y-5342900D02*
X1031700D01*
G01X950300Y-5350900D02*
Y-5358400D01*
X949800Y-5358900D01*
G01X950300Y-5342900D02*
Y-5335400D01*
X950800Y-5334900D01*
G01X965800Y-5350900D02*
X934800D01*
G01X965800Y-5342900D02*
X934800D01*
G01X963800Y-4368500D02*
X956300D01*
X955800Y-4368000D01*
G01X971800Y-4368500D02*
X979300D01*
X979800Y-4369000D01*
G01X963800Y-4353000D02*
Y-4384000D01*
X971800D01*
Y-4353000D01*
X963800D01*
G01X1061400Y-2605700D02*
Y-2613200D01*
X1060900Y-2613700D01*
G01X963900Y-2347500D02*
Y-2355000D01*
X963400Y-2355500D01*
G01X963900Y-2339500D02*
Y-2332000D01*
X964400Y-2331500D01*
G01X948400Y-2347500D02*
X979400D01*
Y-2339500D01*
X948400D01*
Y-2347500D01*
G01X1064400Y-2340500D02*
Y-2333000D01*
X1064900Y-2332500D01*
G01X1064400Y-2348500D02*
Y-2356000D01*
X1063900Y-2356500D01*
G01X1079900Y-2340500D02*
X1048900D01*
Y-2348500D01*
X1079900D01*
Y-2340500D01*
G01X871600D02*
Y-2333000D01*
X872100Y-2332500D01*
G01X871600Y-2348500D02*
Y-2356000D01*
X871100Y-2356500D01*
G01X887100Y-2340500D02*
X856100D01*
Y-2348500D01*
X887100D01*
Y-2340500D01*
G01X1061400Y-2597700D02*
Y-2590200D01*
X1061900Y-2589700D01*
G01X1076900Y-2605700D02*
X1045900D01*
G01X1076900Y-2597700D02*
X1045900D01*
G01X787300Y-1723900D02*
X794800D01*
X795300Y-1724400D01*
G01X787300Y-1739400D02*
Y-1708400D01*
X779300D01*
Y-1739400D01*
X787300D01*
G01X1010800Y-1723900D02*
X1018300D01*
X1018800Y-1724400D01*
G01X1002800Y-1723900D02*
X995300D01*
X994800Y-1723400D01*
G01X1010800Y-1739400D02*
Y-1708400D01*
X1002800D01*
Y-1739400D01*
X1010800D01*
G01X1003800Y-1626300D02*
X996300D01*
X995800Y-1625800D01*
G01X1011800Y-1626300D02*
X1019300D01*
X1019800Y-1626800D01*
G01X1003800Y-1610800D02*
Y-1641800D01*
X1011800D01*
Y-1610800D01*
X1003800D01*
G01X1010800Y-1530700D02*
X1018300D01*
X1018800Y-1531200D01*
G01X1002800Y-1530700D02*
X995300D01*
X994800Y-1530200D01*
G01X1010800Y-1546200D02*
Y-1515200D01*
X1002800D01*
Y-1546200D01*
X1010800D01*
G01X876600Y-1212000D02*
X869100D01*
X868600Y-1211500D01*
G01X884600Y-1212000D02*
X892100D01*
X892600Y-1212500D01*
G01X876600Y-1227500D02*
Y-1196500D01*
G01X884600Y-1227500D02*
Y-1196500D01*
G01X1332000Y-7632000D02*
X1339500D01*
X1340000Y-7632500D01*
G01X1324000Y-7632000D02*
X1316500D01*
X1316000Y-7631500D01*
G01X1332000Y-7647500D02*
Y-7616500D01*
X1324000D01*
Y-7647500D01*
X1332000D01*
G01X1326000Y-7729000D02*
X1318500D01*
X1318000Y-7728500D01*
G01X1334000Y-7729000D02*
X1341500D01*
X1342000Y-7729500D01*
G01X1326000Y-7713500D02*
Y-7744500D01*
X1334000D01*
Y-7713500D01*
X1326000D01*
G01Y-7544500D02*
Y-7513500D01*
G01X1334000Y-7544500D02*
Y-7513500D01*
G01X1326000Y-7829000D02*
X1318500D01*
X1318000Y-7828500D01*
G01X1334000Y-7829000D02*
X1341500D01*
X1342000Y-7829500D01*
G01X1326000Y-7844500D02*
Y-7813500D01*
G01X1334000Y-7844500D02*
Y-7813500D01*
G01X1326000Y-7529000D02*
X1318500D01*
X1318000Y-7528500D01*
G01X1334000Y-7529000D02*
X1341500D01*
X1342000Y-7529500D01*
G01X1230300Y-7200500D02*
Y-7193000D01*
X1230800Y-7192500D01*
G01X1230300Y-7208500D02*
Y-7216000D01*
X1229800Y-7216500D01*
G01X1214800Y-7200500D02*
X1245800D01*
G01X1214800Y-7208500D02*
X1245800D01*
G01X1327600Y-7200500D02*
Y-7193000D01*
X1328100Y-7192500D01*
G01X1327600Y-7208500D02*
Y-7216000D01*
X1327100Y-7216500D01*
G01X1312100Y-7200500D02*
X1343100D01*
G01X1312100Y-7208500D02*
X1343100D01*
G01X1369100Y-2769900D02*
X1376600D01*
X1377100Y-2770400D01*
G01X1361100Y-2769900D02*
X1353600D01*
X1353100Y-2769400D01*
G01X1369100Y-2754400D02*
Y-2785400D01*
G01X1361100Y-2754400D02*
Y-2785400D01*
G01X1235300Y-2478500D02*
X1227800D01*
X1227300Y-2478000D01*
G01X1243300Y-2478500D02*
X1250800D01*
X1251300Y-2479000D01*
G01X1235300Y-2463000D02*
Y-2494000D01*
X1243300D01*
Y-2463000D01*
X1235300D01*
G01X1242300Y-2384100D02*
X1249800D01*
X1250300Y-2384600D01*
G01X1234300Y-2384100D02*
X1226800D01*
X1226300Y-2383600D01*
G01X1242300Y-2399600D02*
Y-2368600D01*
X1234300D01*
Y-2399600D01*
X1242300D01*
G01X1235300Y-2281700D02*
X1227800D01*
X1227300Y-2281200D01*
G01X1243300Y-2281700D02*
X1250800D01*
X1251300Y-2282200D01*
G01X1235300Y-2266200D02*
Y-2297200D01*
X1243300D01*
Y-2266200D01*
X1235300D01*
G01X1283300Y-1658600D02*
Y-1651100D01*
X1283800Y-1650600D01*
G01X1283300Y-1666600D02*
Y-1674100D01*
X1282800Y-1674600D01*
G01X1298800Y-1658600D02*
X1267800D01*
Y-1666600D01*
X1298800D01*
Y-1658600D01*
G01X1180900Y-1665600D02*
Y-1673100D01*
X1180400Y-1673600D01*
G01X1180900Y-1657600D02*
Y-1650100D01*
X1181400Y-1649600D01*
G01X1165400Y-1665600D02*
X1196400D01*
Y-1657600D01*
X1165400D01*
Y-1665600D01*
G01X1381100D02*
Y-1673100D01*
X1380600Y-1673600D01*
G01X1381100Y-1657600D02*
Y-1650100D01*
X1381600Y-1649600D01*
G01X1365600Y-1665600D02*
X1396600D01*
Y-1657600D01*
X1365600D01*
Y-1665600D01*
G01X1183900Y-1413600D02*
Y-1406100D01*
X1184400Y-1405600D01*
G01X1183900Y-1421600D02*
Y-1429100D01*
X1183400Y-1429600D01*
G01X1168400Y-1413600D02*
X1199400D01*
G01X1168400Y-1421600D02*
X1199400D01*
G01X1542000Y-7826500D02*
Y-7857500D01*
G01X1534000Y-7826500D02*
Y-7857500D01*
G01X1646000Y-7729000D02*
X1638500D01*
X1638000Y-7728500D01*
G01X1654000Y-7729000D02*
X1661500D01*
X1662000Y-7729500D01*
G01X1646000Y-7713500D02*
Y-7744500D01*
X1654000D01*
Y-7713500D01*
X1646000D01*
G01Y-7629000D02*
X1638500D01*
X1638000Y-7628500D01*
G01X1654000Y-7629000D02*
X1661500D01*
X1662000Y-7629500D01*
G01X1646000Y-7613500D02*
Y-7644500D01*
X1654000D01*
Y-7613500D01*
X1646000D01*
G01X1536000Y-7544500D02*
Y-7513500D01*
G01X1544000Y-7544500D02*
Y-7513500D01*
G01X1482500Y-7688500D02*
Y-7696000D01*
X1482000Y-7696500D01*
G01X1482500Y-7680500D02*
Y-7673000D01*
X1483000Y-7672500D01*
G01X1498000Y-7688500D02*
X1467000D01*
G01X1498000Y-7680500D02*
X1467000D01*
G01X1542000Y-7842000D02*
X1549500D01*
X1550000Y-7842500D01*
G01X1534000Y-7842000D02*
X1526500D01*
X1526000Y-7841500D01*
G01X1536000Y-7529000D02*
X1528500D01*
X1528000Y-7528500D01*
G01X1544000Y-7529000D02*
X1551500D01*
X1552000Y-7529500D01*
G01X1640100Y-7207700D02*
Y-7215200D01*
X1639600Y-7215700D01*
G01X1640100Y-7199700D02*
Y-7192200D01*
X1640600Y-7191700D01*
G01X1655600Y-7207700D02*
X1624600D01*
G01X1655600Y-7199700D02*
X1624600D01*
G01X1649400Y-6759300D02*
Y-6751800D01*
X1649900Y-6751300D01*
G01X1649400Y-6767300D02*
Y-6774800D01*
X1648900Y-6775300D01*
G01X1633900Y-6759300D02*
X1664900D01*
G01X1633900Y-6767300D02*
X1664900D01*
G01X1446200Y-2281700D02*
X1438700D01*
X1438200Y-2281200D01*
G01X1454200Y-2281700D02*
X1461700D01*
X1462200Y-2282200D01*
G01X1446200Y-2266200D02*
Y-2297200D01*
X1454200D01*
Y-2266200D01*
X1446200D01*
G01X1680000Y-2281700D02*
X1672500D01*
X1672000Y-2281200D01*
G01X1688000Y-2281700D02*
X1695500D01*
X1696000Y-2282200D01*
G01X1680000Y-2297200D02*
Y-2266200D01*
G01X1688000Y-2297200D02*
Y-2266200D01*
G01X1586500Y-1723900D02*
X1594000D01*
X1594500Y-1724400D01*
G01X1578500Y-1723900D02*
X1571000D01*
X1570500Y-1723400D01*
G01X1586500Y-1708400D02*
Y-1739400D01*
G01X1578500Y-1708400D02*
Y-1739400D01*
G01X1751300Y-7415900D02*
X1758800D01*
X1759300Y-7416400D01*
G01X1743300Y-7415900D02*
X1735800D01*
X1735300Y-7415400D01*
G01X1751300Y-7400400D02*
Y-7431400D01*
G01X1743300Y-7400400D02*
Y-7431400D01*
G01X1788000Y-6973900D02*
Y-6966400D01*
X1788500Y-6965900D01*
G01X1788000Y-6981900D02*
Y-6989400D01*
X1787500Y-6989900D01*
G01X1772500Y-6973900D02*
X1803500D01*
G01X1772500Y-6981900D02*
X1803500D01*
G01X2039600Y-6768200D02*
X2008600D01*
G01X2039600Y-6760200D02*
X2008600D01*
G01X1980200Y-2347500D02*
Y-2355000D01*
X1979700Y-2355500D01*
G01X1980200Y-2339500D02*
Y-2332000D01*
X1980700Y-2331500D01*
G01X1964700Y-2347500D02*
X1995700D01*
Y-2339500D01*
X1964700D01*
Y-2347500D01*
G01X1885500Y-2340500D02*
Y-2333000D01*
X1886000Y-2332500D01*
G01X1885500Y-2348500D02*
Y-2356000D01*
X1885000Y-2356500D01*
G01X1901000Y-2340500D02*
X1870000D01*
Y-2348500D01*
X1901000D01*
Y-2340500D01*
G01X1811700Y-1723900D02*
X1819200D01*
X1819700Y-1724400D01*
G01X1803700Y-1723900D02*
X1796200D01*
X1795700Y-1723400D01*
G01X1811700Y-1739400D02*
Y-1708400D01*
X1803700D01*
Y-1739400D01*
X1811700D01*
G01X1898800Y-1210100D02*
X1891300D01*
X1890800Y-1209600D01*
G01X1906800Y-1210100D02*
X1914300D01*
X1914800Y-1210600D01*
G01X1898800Y-1225600D02*
Y-1194600D01*
G01X1906800Y-1225600D02*
Y-1194600D01*
G01X2073900Y-7773400D02*
X2081400D01*
X2081900Y-7773900D01*
G01X2065900Y-7773400D02*
X2058400D01*
X2057900Y-7772900D01*
G01X2073900Y-7757900D02*
Y-7788900D01*
G01X2065900Y-7757900D02*
Y-7788900D01*
G01X2024100Y-6768200D02*
Y-6775700D01*
X2023600Y-6776200D01*
G01X2024100Y-6760200D02*
Y-6752700D01*
X2024600Y-6752200D01*
G01X2078600Y-2605700D02*
Y-2613200D01*
X2078100Y-2613700D01*
G01X2081600Y-2340500D02*
Y-2333000D01*
X2082100Y-2332500D01*
G01X2081600Y-2348500D02*
Y-2356000D01*
X2081100Y-2356500D01*
G01X2097100Y-2340500D02*
X2066100D01*
Y-2348500D01*
X2097100D01*
Y-2340500D01*
G01X2263700Y-2478500D02*
X2256200D01*
X2255700Y-2478000D01*
G01X2271700Y-2478500D02*
X2279200D01*
X2279700Y-2479000D01*
G01X2263700Y-2463000D02*
Y-2494000D01*
X2271700D01*
Y-2463000D01*
X2263700D01*
G01X2270700Y-2384100D02*
X2278200D01*
X2278700Y-2384600D01*
G01X2262700Y-2384100D02*
X2255200D01*
X2254700Y-2383600D01*
G01X2270700Y-2399600D02*
Y-2368600D01*
X2262700D01*
Y-2399600D01*
X2270700D01*
G01X2078600Y-2597700D02*
Y-2590200D01*
X2079100Y-2589700D01*
G01X2094100Y-2605700D02*
X2063100D01*
G01X2094100Y-2597700D02*
X2063100D01*
G01X2263700Y-2281700D02*
X2256200D01*
X2255700Y-2281200D01*
G01X2271700Y-2281700D02*
X2279200D01*
X2279700Y-2282200D01*
G01X2263700Y-2266200D02*
Y-2297200D01*
X2271700D01*
Y-2266200D01*
X2263700D01*
G01X2033500Y-1723900D02*
X2041000D01*
X2041500Y-1724400D01*
G01X2025500Y-1723900D02*
X2018000D01*
X2017500Y-1723400D01*
G01X2033500Y-1739400D02*
Y-1708400D01*
X2025500D01*
Y-1739400D01*
X2033500D01*
G01X2033900Y-1530700D02*
X2041400D01*
X2041900Y-1531200D01*
G01X2025900Y-1530700D02*
X2018400D01*
X2017900Y-1530200D01*
G01X2033900Y-1546200D02*
Y-1515200D01*
X2025900D01*
Y-1546200D01*
X2033900D01*
G01X2026900Y-1626300D02*
X2019400D01*
X2018900Y-1625800D01*
G01X2034900Y-1626300D02*
X2042400D01*
X2042900Y-1626800D01*
G01X2026900Y-1610800D02*
Y-1641800D01*
X2034900D01*
Y-1610800D01*
X2026900D01*
G01X2312600Y-1658600D02*
Y-1651100D01*
X2313100Y-1650600D01*
G01X2312600Y-1666600D02*
Y-1674100D01*
X2312100Y-1674600D01*
G01X2328100Y-1658600D02*
X2297100D01*
Y-1666600D01*
X2328100D01*
Y-1658600D01*
G01X2211000Y-1665600D02*
Y-1673100D01*
X2210500Y-1673600D01*
G01X2211000Y-1657600D02*
Y-1650100D01*
X2211500Y-1649600D01*
G01X2195500Y-1665600D02*
X2226500D01*
Y-1657600D01*
X2195500D01*
Y-1665600D01*
G01X2214000Y-1413600D02*
Y-1406100D01*
X2214500Y-1405600D01*
G01X2214000Y-1421600D02*
Y-1429100D01*
X2213500Y-1429600D01*
G01X2198500Y-1413600D02*
X2229500D01*
G01X2198500Y-1421600D02*
X2229500D01*
G01X2482600Y-6692200D02*
X2490100D01*
X2490600Y-6692700D01*
G01X2474600Y-6692200D02*
X2467100D01*
X2466600Y-6691700D01*
G01X2482600Y-6707700D02*
Y-6676700D01*
X2474600D01*
Y-6707700D01*
X2482600D01*
G01Y-6790100D02*
X2490100D01*
X2490600Y-6790600D01*
G01X2474600Y-6790100D02*
X2467100D01*
X2466600Y-6789600D01*
G01X2482600Y-6805600D02*
Y-6774600D01*
X2474600D01*
Y-6805600D01*
X2482600D01*
G01X2390100Y-2769900D02*
X2397600D01*
X2398100Y-2770400D01*
G01X2382100Y-2769900D02*
X2374600D01*
X2374100Y-2769400D01*
G01X2390100Y-2754400D02*
Y-2785400D01*
G01X2382100Y-2754400D02*
Y-2785400D01*
G01X2484200Y-2281700D02*
X2476700D01*
X2476200Y-2281200D01*
G01X2492200Y-2281700D02*
X2499700D01*
X2500200Y-2282200D01*
G01X2484200Y-2266200D02*
Y-2297200D01*
X2492200D01*
Y-2266200D01*
X2484200D01*
G01X2614900Y-1723900D02*
X2622400D01*
X2622900Y-1724400D01*
G01X2606900Y-1723900D02*
X2599400D01*
X2598900Y-1723400D01*
G01X2614900Y-1708400D02*
Y-1739400D01*
G01X2606900Y-1708400D02*
Y-1739400D01*
G01X2409200Y-1665600D02*
Y-1673100D01*
X2408700Y-1673600D01*
G01X2409200Y-1657600D02*
Y-1650100D01*
X2409700Y-1649600D01*
G01X2393700Y-1665600D02*
X2424700D01*
Y-1657600D01*
X2393700D01*
Y-1665600D01*
G01X2867400Y-7561500D02*
X2859900D01*
X2859400Y-7561000D01*
G01X2875400Y-7561500D02*
X2882900D01*
X2883400Y-7562000D01*
G01X2867400Y-7546000D02*
Y-7577000D01*
X2875400D01*
Y-7546000D01*
X2867400D01*
G01Y-7761500D02*
X2859900D01*
X2859400Y-7761000D01*
G01X2875400Y-7761500D02*
X2882900D01*
X2883400Y-7762000D01*
G01X2867400Y-7746000D02*
Y-7777000D01*
X2875400D01*
Y-7746000D01*
X2867400D01*
G01X2873400Y-7664500D02*
X2880900D01*
X2881400Y-7665000D01*
G01X2865400Y-7664500D02*
X2857900D01*
X2857400Y-7664000D01*
G01X2873400Y-7649000D02*
Y-7680000D01*
G01X2865400Y-7649000D02*
Y-7680000D01*
G01X2868800Y-7445400D02*
X2861300D01*
X2860800Y-7444900D01*
G01X2876800Y-7445400D02*
X2884300D01*
X2884800Y-7445900D01*
G01X2868800Y-7460900D02*
Y-7429900D01*
G01X2876800Y-7460900D02*
Y-7429900D01*
G01X2781800Y-7023200D02*
Y-7015700D01*
X2782300Y-7015200D01*
G01X2781800Y-7031200D02*
Y-7038700D01*
X2781300Y-7039200D01*
G01X2766300Y-7023200D02*
X2797300D01*
G01X2766300Y-7031200D02*
X2797300D01*
G01X2649100Y-6749900D02*
Y-6757400D01*
X2648600Y-6757900D01*
G01X2649100Y-6741900D02*
Y-6734400D01*
X2649600Y-6733900D01*
G01X2664600Y-6749900D02*
X2633600D01*
G01X2664600Y-6741900D02*
X2633600D01*
G01X2901000Y-2340500D02*
Y-2333000D01*
X2901500Y-2332500D01*
G01X2901000Y-2348500D02*
Y-2356000D01*
X2900500Y-2356500D01*
G01X2916500Y-2340500D02*
X2885500D01*
Y-2348500D01*
X2916500D01*
Y-2340500D01*
G01X2704600Y-2281700D02*
X2697100D01*
X2696600Y-2281200D01*
G01X2712600Y-2281700D02*
X2720100D01*
X2720600Y-2282200D01*
G01X2704600Y-2297200D02*
Y-2266200D01*
G01X2712600Y-2297200D02*
Y-2266200D01*
G01X2837100Y-1723900D02*
X2844600D01*
X2845100Y-1724400D01*
G01X2829100Y-1723900D02*
X2821600D01*
X2821100Y-1723400D01*
G01X2837100Y-1739400D02*
Y-1708400D01*
X2829100D01*
Y-1739400D01*
X2837100D01*
G01X2927600Y-1210100D02*
X2920100D01*
X2919600Y-1209600D01*
G01X2927600Y-1225600D02*
Y-1194600D01*
G01X3023900Y-7561000D02*
Y-7568500D01*
X3023400Y-7569000D01*
G01X3023900Y-7553000D02*
Y-7545500D01*
X3024400Y-7545000D01*
G01X3008400Y-7561000D02*
X3039400D01*
Y-7553000D01*
X3008400D01*
Y-7561000D01*
G01X3023900Y-7771000D02*
Y-7778500D01*
X3023400Y-7779000D01*
G01X3023900Y-7763000D02*
Y-7755500D01*
X3024400Y-7755000D01*
G01X3008400Y-7771000D02*
X3039400D01*
Y-7763000D01*
X3008400D01*
Y-7771000D01*
G01X2956900Y-6974800D02*
X2964400D01*
X2964900Y-6975300D01*
G01X2948900Y-6974800D02*
X2941400D01*
X2940900Y-6974300D01*
G01X2956900Y-6990300D02*
Y-6959300D01*
X2948900D01*
Y-6990300D01*
X2956900D01*
G01X2949900Y-7068400D02*
X2942400D01*
X2941900Y-7067900D01*
G01X2957900Y-7068400D02*
X2965400D01*
X2965900Y-7068900D01*
G01X2949900Y-7052900D02*
Y-7083900D01*
X2957900D01*
Y-7052900D01*
X2949900D01*
G01X2956900Y-7173000D02*
X2964400D01*
X2964900Y-7173500D01*
G01X2948900Y-7173000D02*
X2941400D01*
X2940900Y-7172500D01*
G01X2956900Y-7157500D02*
Y-7188500D01*
G01X2948900Y-7157500D02*
Y-7188500D01*
G01X2957700Y-6748900D02*
X2965200D01*
X2965700Y-6749400D01*
G01X2949700Y-6748900D02*
X2942200D01*
X2941700Y-6748400D01*
G01X2957700Y-6733400D02*
Y-6764400D01*
G01X2949700Y-6733400D02*
Y-6764400D01*
G01X3097800Y-2605700D02*
Y-2613200D01*
X3097300Y-2613700D01*
G01X2997800Y-2347500D02*
Y-2355000D01*
X2997300Y-2355500D01*
G01X2997800Y-2339500D02*
Y-2332000D01*
X2998300Y-2331500D01*
G01X2982300Y-2347500D02*
X3013300D01*
Y-2339500D01*
X2982300D01*
Y-2347500D01*
G01X3100800Y-2340500D02*
Y-2333000D01*
X3101300Y-2332500D01*
G01X3100800Y-2348500D02*
Y-2356000D01*
X3100300Y-2356500D01*
G01X3116300Y-2340500D02*
X3085300D01*
Y-2348500D01*
X3116300D01*
Y-2340500D01*
G01X3097800Y-2597700D02*
Y-2590200D01*
X3098300Y-2589700D01*
G01X3113300Y-2605700D02*
X3082300D01*
G01X3113300Y-2597700D02*
X3082300D01*
G01X3059700Y-1723900D02*
X3067200D01*
X3067700Y-1724400D01*
G01X3051700Y-1723900D02*
X3044200D01*
X3043700Y-1723400D01*
G01X3059700Y-1739400D02*
Y-1708400D01*
X3051700D01*
Y-1739400D01*
X3059700D01*
G01X3233400Y-1665600D02*
Y-1673100D01*
X3232900Y-1673600D01*
G01X3233400Y-1657600D02*
Y-1650100D01*
X3233900Y-1649600D01*
G01X3217900Y-1665600D02*
X3248900D01*
Y-1657600D01*
X3217900D01*
Y-1665600D01*
G01X3059700Y-1530700D02*
X3067200D01*
X3067700Y-1531200D01*
G01X3051700Y-1530700D02*
X3044200D01*
X3043700Y-1530200D01*
G01X3059700Y-1546200D02*
Y-1515200D01*
X3051700D01*
Y-1546200D01*
X3059700D01*
G01X3052700Y-1626300D02*
X3045200D01*
X3044700Y-1625800D01*
G01X3060700Y-1626300D02*
X3068200D01*
X3068700Y-1626800D01*
G01X3052700Y-1610800D02*
Y-1641800D01*
X3060700D01*
Y-1610800D01*
X3052700D01*
G01X3236400Y-1413600D02*
Y-1406100D01*
X3236900Y-1405600D01*
G01X3236400Y-1421600D02*
Y-1429100D01*
X3235900Y-1429600D01*
G01X3220900Y-1413600D02*
X3251900D01*
G01X3220900Y-1421600D02*
X3251900D01*
G01X2935600Y-1210100D02*
X2943100D01*
X2943600Y-1210600D01*
G01X2935600Y-1225600D02*
Y-1194600D01*
G01X3283400Y-7394500D02*
X3290900D01*
X3291400Y-7395000D01*
G01X3275400Y-7394500D02*
X3267900D01*
X3267400Y-7394000D01*
G01X3283400Y-7410000D02*
Y-7379000D01*
X3275400D01*
Y-7410000D01*
X3283400D01*
G01X3263000Y-6926500D02*
X3270500D01*
X3271000Y-6927000D01*
G01X3263000Y-6911000D02*
Y-6942000D01*
G01X3255000Y-6911000D02*
Y-6942000D01*
G01Y-6926500D02*
X3247500D01*
X3247000Y-6926000D01*
G01X3477000Y-6678500D02*
X3469500D01*
X3469000Y-6678000D01*
G01X3485000Y-6678500D02*
X3492500D01*
X3493000Y-6679000D01*
G01X3477000Y-6694000D02*
Y-6663000D01*
G01X3485000Y-6694000D02*
Y-6663000D01*
G01X3536500Y-5677000D02*
Y-5669500D01*
X3537000Y-5669000D01*
G01X3536500Y-5685000D02*
Y-5692500D01*
X3536000Y-5693000D01*
G01X3521000Y-5677000D02*
X3552000D01*
G01X3521000Y-5685000D02*
X3552000D01*
G01X3427300Y-2769900D02*
X3434800D01*
X3435300Y-2770400D01*
G01X3419300Y-2769900D02*
X3411800D01*
X3411300Y-2769400D01*
G01X3427300Y-2754400D02*
Y-2785400D01*
G01X3419300Y-2754400D02*
Y-2785400D01*
G01X3293000Y-2384100D02*
X3300500D01*
X3301000Y-2384600D01*
G01X3285000Y-2384100D02*
X3277500D01*
X3277000Y-2383600D01*
G01X3293000Y-2399600D02*
Y-2368600D01*
X3285000D01*
Y-2399600D01*
X3293000D01*
G01X3286000Y-2478500D02*
X3278500D01*
X3278000Y-2478000D01*
G01X3294000Y-2478500D02*
X3301500D01*
X3302000Y-2479000D01*
G01X3286000Y-2463000D02*
Y-2494000D01*
X3294000D01*
Y-2463000D01*
X3286000D01*
G01X3508100Y-2281700D02*
X3500600D01*
X3500100Y-2281200D01*
G01X3516100Y-2281700D02*
X3523600D01*
X3524100Y-2282200D01*
G01X3508100Y-2266200D02*
Y-2297200D01*
X3516100D01*
Y-2266200D01*
X3508100D01*
G01X3286000Y-2281700D02*
X3278500D01*
X3278000Y-2281200D01*
G01X3294000Y-2281700D02*
X3301500D01*
X3302000Y-2282200D01*
G01X3286000Y-2266200D02*
Y-2297200D01*
X3294000D01*
Y-2266200D01*
X3286000D01*
G01X3338400Y-1658600D02*
Y-1651100D01*
X3338900Y-1650600D01*
G01X3338400Y-1666600D02*
Y-1674100D01*
X3337900Y-1674600D01*
G01X3353900Y-1658600D02*
X3322900D01*
Y-1666600D01*
X3353900D01*
Y-1658600D01*
G01X3437000Y-1665600D02*
Y-1673100D01*
X3436500Y-1673600D01*
G01X3437000Y-1657600D02*
Y-1650100D01*
X3437500Y-1649600D01*
G01X3421500Y-1665600D02*
X3452500D01*
Y-1657600D01*
X3421500D01*
Y-1665600D01*
G01X3833000Y-7296500D02*
X3840500D01*
X3841000Y-7297000D01*
G01X3825000Y-7296500D02*
X3817500D01*
X3817000Y-7296000D01*
G01X3833000Y-7312000D02*
Y-7281000D01*
X3825000D01*
Y-7312000D01*
X3833000D01*
G01X3709900Y-6681500D02*
X3717400D01*
X3717900Y-6682000D01*
G01X3701900Y-6681500D02*
X3694400D01*
X3693900Y-6681000D01*
G01X3709900Y-6697000D02*
Y-6666000D01*
X3701900D01*
Y-6697000D01*
X3709900D01*
G01X3799300Y-4552200D02*
X3806800D01*
X3807300Y-4552700D01*
G01X3791300Y-4552200D02*
X3783800D01*
X3783300Y-4551700D01*
G01X3799300Y-4567700D02*
Y-4536700D01*
X3791300D01*
Y-4567700D01*
X3799300D01*
G01X3597200Y-4472200D02*
Y-4441200D01*
X3589200D01*
Y-4472200D01*
X3597200D01*
G01Y-4456700D02*
X3604700D01*
X3605200Y-4457200D01*
G01X3589200Y-4456700D02*
X3581700D01*
X3581200Y-4456200D01*
G01X3737400Y-2281700D02*
X3729900D01*
X3729400Y-2281200D01*
G01X3745400Y-2281700D02*
X3752900D01*
X3753400Y-2282200D01*
G01X3737400Y-2297200D02*
Y-2266200D01*
G01X3745400Y-2297200D02*
Y-2266200D01*
G01X3852300Y-1723900D02*
X3844800D01*
X3844300Y-1723400D01*
G01X3860300Y-1739400D02*
Y-1708400D01*
X3852300D01*
Y-1739400D01*
X3860300D01*
G01X3637900Y-1723900D02*
X3645400D01*
X3645900Y-1724400D01*
G01X3629900Y-1723900D02*
X3622400D01*
X3621900Y-1723400D01*
G01X3637900Y-1708400D02*
Y-1739400D01*
G01X3629900Y-1708400D02*
Y-1739400D01*
G01X3913900Y-6678500D02*
X3906400D01*
X3905900Y-6678000D01*
G01X3921900Y-6678500D02*
X3929400D01*
X3929900Y-6679000D01*
G01X3913900Y-6694000D02*
Y-6663000D01*
G01X3921900Y-6694000D02*
Y-6663000D01*
G01X3926500Y-5677000D02*
Y-5669500D01*
X3927000Y-5669000D01*
G01X3926500Y-5685000D02*
Y-5692500D01*
X3926000Y-5693000D01*
G01X3942000Y-5677000D02*
X3911000D01*
Y-5685000D01*
X3942000D01*
Y-5677000D01*
G01X3877900Y-5266100D02*
Y-5258600D01*
X3878400Y-5258100D01*
G01X3877900Y-5274100D02*
Y-5281600D01*
X3877400Y-5282100D01*
G01X3893400Y-5266100D02*
X3862400D01*
Y-5274100D01*
X3893400D01*
Y-5266100D01*
G01X3977900D02*
Y-5258600D01*
X3978400Y-5258100D01*
G01X3977900Y-5274100D02*
Y-5281600D01*
X3977400Y-5282100D01*
G01X3962400Y-5266100D02*
X3993400D01*
G01X3962400Y-5274100D02*
X3993400D01*
G01X4133000Y-2605700D02*
Y-2613200D01*
X4132500Y-2613700D01*
G01X4034000Y-2347500D02*
Y-2355000D01*
X4033500Y-2355500D01*
G01X4034000Y-2339500D02*
Y-2332000D01*
X4034500Y-2331500D01*
G01X4018500Y-2347500D02*
X4049500D01*
Y-2339500D01*
X4018500D01*
Y-2347500D01*
G01X4136000Y-2340500D02*
Y-2333000D01*
X4136500Y-2332500D01*
G01X4136000Y-2348500D02*
Y-2356000D01*
X4135500Y-2356500D01*
G01X4151500Y-2340500D02*
X4120500D01*
Y-2348500D01*
X4151500D01*
Y-2340500D01*
G01X3938900D02*
Y-2333000D01*
X3939400Y-2332500D01*
G01X3938900Y-2348500D02*
Y-2356000D01*
X3938400Y-2356500D01*
G01X3954400Y-2340500D02*
X3923400D01*
Y-2348500D01*
X3954400D01*
Y-2340500D01*
G01X4133000Y-2597700D02*
Y-2590200D01*
X4133500Y-2589700D01*
G01X4148500Y-2605700D02*
X4117500D01*
G01X4148500Y-2597700D02*
X4117500D01*
G01X4085200Y-1723900D02*
X4092700D01*
X4093200Y-1724400D01*
G01X4077200Y-1723900D02*
X4069700D01*
X4069200Y-1723400D01*
G01X4085200Y-1739400D02*
Y-1708400D01*
X4077200D01*
Y-1739400D01*
X4085200D01*
G01X3860300Y-1723900D02*
X3867800D01*
X3868300Y-1724400D01*
G01X4085200Y-1530700D02*
X4092700D01*
X4093200Y-1531200D01*
G01X4077200Y-1530700D02*
X4069700D01*
X4069200Y-1530200D01*
G01X4085200Y-1546200D02*
Y-1515200D01*
X4077200D01*
Y-1546200D01*
X4085200D01*
G01X4078200Y-1626300D02*
X4070700D01*
X4070200Y-1625800D01*
G01X4086200Y-1626300D02*
X4093700D01*
X4094200Y-1626800D01*
G01X4078200Y-1610800D02*
Y-1641800D01*
X4086200D01*
Y-1610800D01*
X4078200D01*
G01X3950500Y-1211400D02*
X3943000D01*
X3942500Y-1210900D01*
G01X3958500Y-1211400D02*
X3966000D01*
X3966500Y-1211900D01*
G01X3950500Y-1226900D02*
Y-1195900D01*
G01X3958500Y-1226900D02*
Y-1195900D01*
G01X4686200Y-6787500D02*
X4678700D01*
X4678200Y-6787000D01*
G01X4694200Y-6787500D02*
X4701700D01*
X4702200Y-6788000D01*
G01X4686200Y-6803000D02*
Y-6772000D01*
G01X4694200Y-6803000D02*
Y-6772000D01*
G01X4664300Y-6059000D02*
X4656800D01*
X4656300Y-6058500D01*
G01X4672300Y-6059000D02*
X4679800D01*
X4680300Y-6059500D01*
G01X4664300Y-6043500D02*
Y-6074500D01*
X4672300D01*
Y-6043500D01*
X4664300D01*
G01Y-5852800D02*
X4656800D01*
X4656300Y-5852300D01*
G01X4672300Y-5852800D02*
X4679800D01*
X4680300Y-5853300D01*
G01X4664300Y-5837300D02*
Y-5868300D01*
X4672300D01*
Y-5837300D01*
X4664300D01*
G01Y-5956200D02*
X4656800D01*
X4656300Y-5955700D01*
G01X4672300Y-5956200D02*
X4679800D01*
X4680300Y-5956700D01*
G01X4664300Y-5971700D02*
Y-5940700D01*
G01X4672300Y-5971700D02*
Y-5940700D01*
G01X4664900Y-5543300D02*
X4657400D01*
X4656900Y-5542800D01*
G01X4672900Y-5543300D02*
X4680400D01*
X4680900Y-5543800D01*
G01X4664900Y-5527800D02*
Y-5558800D01*
X4672900D01*
Y-5527800D01*
X4664900D01*
G01Y-5139200D02*
X4657400D01*
X4656900Y-5138700D01*
G01X4672900Y-5139200D02*
X4680400D01*
X4680900Y-5139700D01*
G01X4664900Y-5123700D02*
Y-5154700D01*
X4672900D01*
Y-5123700D01*
X4664900D01*
G01Y-5232800D02*
X4657400D01*
X4656900Y-5232300D01*
G01X4672900Y-5232800D02*
X4680400D01*
X4680900Y-5233300D01*
G01X4664900Y-5217300D02*
Y-5248300D01*
X4672900D01*
Y-5217300D01*
X4664900D01*
G01Y-4830300D02*
X4657400D01*
X4656900Y-4829800D01*
G01X4672900Y-4830300D02*
X4680400D01*
X4680900Y-4830800D01*
G01X4664900Y-4814800D02*
Y-4845800D01*
X4672900D01*
Y-4814800D01*
X4664900D01*
G01X5086100Y-7393700D02*
X5093600D01*
X5094100Y-7394200D01*
G01X5078100Y-7393700D02*
X5070600D01*
X5070100Y-7393200D01*
G01X5086100Y-7409200D02*
Y-7378200D01*
X5078100D01*
Y-7409200D01*
X5086100D01*
G01X4872000Y-7394700D02*
X4879500D01*
X4880000Y-7395200D01*
G01X4864000Y-7394700D02*
X4856500D01*
X4856000Y-7394200D01*
G01X4872000Y-7410200D02*
Y-7379200D01*
X4864000D01*
Y-7410200D01*
X4872000D01*
G01X5097000Y-7213500D02*
X5089500D01*
X5089000Y-7213000D01*
G01X5007700Y-6393500D02*
Y-6386000D01*
X5008200Y-6385500D01*
G01X5007700Y-6401500D02*
Y-6409000D01*
X5007200Y-6409500D01*
G01X4992200Y-6393500D02*
X5023200D01*
G01X4992200Y-6401500D02*
X5023200D01*
G01X4997500Y-4370900D02*
X4990000D01*
X4989500Y-4370400D01*
G01X5005500Y-4370900D02*
X5013000D01*
X5013500Y-4371400D01*
G01X4997500Y-4386400D02*
Y-4355400D01*
G01X5005500Y-4386400D02*
Y-4355400D01*
G01X5013700Y-3588700D02*
X5006200D01*
X5005700Y-3588200D01*
G01X5021700Y-3588700D02*
X5029200D01*
X5029700Y-3589200D01*
G01X5013700Y-3573200D02*
Y-3604200D01*
X5021700D01*
Y-3573200D01*
X5013700D01*
G01X4967900Y-3435200D02*
Y-3427700D01*
X4968400Y-3427200D01*
G01X4967900Y-3443200D02*
Y-3450700D01*
X4967400Y-3451200D01*
G01X4983400Y-3435200D02*
X4952400D01*
Y-3443200D01*
X4983400D01*
Y-3435200D01*
G01X5063400Y-3442200D02*
Y-3449700D01*
X5062900Y-3450200D01*
G01X5063400Y-3434200D02*
Y-3426700D01*
X5063900Y-3426200D01*
G01X5047900Y-3442200D02*
X5078900D01*
Y-3434200D01*
X5047900D01*
Y-3442200D01*
G01X5003800Y-290800D02*
X5011300D01*
X5011800Y-291300D01*
G01X4995800Y-290800D02*
X4988300D01*
X4987800Y-290300D01*
G01X5003800Y-275300D02*
Y-306300D01*
G01X4995800Y-275300D02*
Y-306300D01*
G01X4996800Y-391500D02*
X4989300D01*
X4988800Y-391000D01*
G01X5004800Y-391500D02*
X5012300D01*
X5012800Y-392000D01*
G01X4996800Y-407000D02*
Y-376000D01*
G01X5004800Y-407000D02*
Y-376000D01*
G01X5105000Y-7213500D02*
X5112500D01*
X5113000Y-7214000D01*
G01X5097000Y-7198000D02*
Y-7229000D01*
X5105000D01*
Y-7198000D01*
X5097000D01*
G01X5329800Y-3574700D02*
Y-3582200D01*
X5329300Y-3582700D01*
G01X5329800Y-3566700D02*
Y-3559200D01*
X5330300Y-3558700D01*
G01X5314300Y-3574700D02*
X5345300D01*
Y-3566700D01*
X5314300D01*
Y-3574700D01*
G01X5205600Y-3356700D02*
Y-3364200D01*
X5205100Y-3364700D01*
G01X5205600Y-3348700D02*
Y-3341200D01*
X5206100Y-3340700D01*
G01X5190100Y-3356700D02*
X5221100D01*
Y-3348700D01*
X5190100D01*
Y-3356700D01*
G01X5332800Y-3349700D02*
Y-3342200D01*
X5333300Y-3341700D01*
G01X5332800Y-3357700D02*
Y-3365200D01*
X5332300Y-3365700D01*
G01X5348300Y-3349700D02*
X5317300D01*
Y-3357700D01*
X5348300D01*
Y-3349700D01*
G01X5353100Y-1665700D02*
X5345600D01*
X5345100Y-1665200D01*
G01X5361100Y-1665700D02*
X5368600D01*
X5369100Y-1666200D01*
G01X5353100Y-1650200D02*
Y-1681200D01*
X5361100D01*
Y-1650200D01*
X5353100D01*
G01X5360800Y-1572300D02*
X5368300D01*
X5368800Y-1572800D01*
G01X5352800Y-1572300D02*
X5345300D01*
X5344800Y-1571800D01*
G01X5360800Y-1587800D02*
Y-1556800D01*
X5352800D01*
Y-1587800D01*
X5360800D01*
G01X5400700Y-1406200D02*
Y-1413700D01*
X5400200Y-1414200D01*
G01X5400700Y-1398200D02*
Y-1390700D01*
X5401200Y-1390200D01*
G01X5416200Y-1406200D02*
X5385200D01*
G01X5416200Y-1398200D02*
X5385200D01*
G01X5187900Y-946600D02*
Y-954100D01*
X5187400Y-954600D01*
G01X5187900Y-938600D02*
Y-931100D01*
X5188400Y-930600D01*
G01X5172400Y-946600D02*
X5203400D01*
Y-938600D01*
X5172400D01*
Y-946600D01*
G01X5429600Y-3567700D02*
Y-3560200D01*
X5430100Y-3559700D01*
G01X5429600Y-3575700D02*
Y-3583200D01*
X5429100Y-3583700D01*
G01X5445100Y-3567700D02*
X5414100D01*
Y-3575700D01*
X5445100D01*
Y-3567700D01*
G01X5525800Y-3574700D02*
Y-3582200D01*
X5525300Y-3582700D01*
G01X5525800Y-3566700D02*
Y-3559200D01*
X5526300Y-3558700D01*
G01X5541300Y-3574700D02*
X5510300D01*
G01X5541300Y-3566700D02*
X5510300D01*
G01X5621600Y-3574700D02*
Y-3582200D01*
X5621100Y-3582700D01*
G01X5621600Y-3566700D02*
Y-3559200D01*
X5622100Y-3558700D01*
G01X5637100Y-3574700D02*
X5606100D01*
G01X5637100Y-3566700D02*
X5606100D01*
G01X5621600Y-3356700D02*
Y-3364200D01*
X5621100Y-3364700D01*
G01X5621600Y-3348700D02*
Y-3341200D01*
X5622100Y-3340700D01*
G01X5606100Y-3356700D02*
X5637100D01*
Y-3348700D01*
X5606100D01*
Y-3356700D01*
G01X5528800Y-3349700D02*
Y-3342200D01*
X5529300Y-3341700D01*
G01X5528800Y-3357700D02*
Y-3365200D01*
X5528300Y-3365700D01*
G01X5544300Y-3349700D02*
X5513300D01*
Y-3357700D01*
X5544300D01*
Y-3349700D01*
G01X5429600D02*
Y-3342200D01*
X5430100Y-3341700D01*
G01X5429600Y-3357700D02*
Y-3365200D01*
X5429100Y-3365700D01*
G01X5414100Y-3349700D02*
X5445100D01*
G01X5414100Y-3357700D02*
X5445100D01*
G01X5704600Y-3349700D02*
X5735600D01*
G01X5704600Y-3357700D02*
X5735600D01*
G01X5573900Y-2217600D02*
X5581400D01*
X5581900Y-2218100D01*
G01X5565900Y-2217600D02*
X5558400D01*
X5557900Y-2217100D01*
G01X5573900Y-2233100D02*
Y-2202100D01*
X5565900D01*
Y-2233100D01*
X5573900D01*
G01X5559900Y-1971900D02*
X5552400D01*
X5551900Y-1971400D01*
G01X5567900Y-1971900D02*
X5575400D01*
X5575900Y-1972400D01*
G01X5559900Y-1987400D02*
Y-1956400D01*
G01X5567900Y-1987400D02*
Y-1956400D01*
G01X5559900Y-1775600D02*
X5552400D01*
X5551900Y-1775100D01*
G01X5567900Y-1775600D02*
X5575400D01*
X5575900Y-1776100D01*
G01X5559900Y-1791100D02*
Y-1760100D01*
G01X5567900Y-1791100D02*
Y-1760100D01*
G01X5597700Y-1406200D02*
Y-1413700D01*
X5597200Y-1414200D01*
G01X5597700Y-1398200D02*
Y-1390700D01*
X5598200Y-1390200D01*
G01X5582200Y-1406200D02*
X5613200D01*
Y-1398200D01*
X5582200D01*
Y-1406200D01*
G01X5559900Y-1569000D02*
X5552400D01*
X5551900Y-1568500D01*
G01X5567900Y-1569000D02*
X5575400D01*
X5575900Y-1569500D01*
G01X5559900Y-1553500D02*
Y-1584500D01*
X5567900D01*
Y-1553500D01*
X5559900D01*
G01Y-1665000D02*
X5552400D01*
X5551900Y-1664500D01*
G01X5567900Y-1665000D02*
X5575400D01*
X5575900Y-1665500D01*
G01X5559900Y-1680500D02*
Y-1649500D01*
G01X5567900Y-1680500D02*
Y-1649500D01*
G01X5499300Y-1406200D02*
Y-1413700D01*
X5498800Y-1414200D01*
G01X5499300Y-1398200D02*
Y-1390700D01*
X5499800Y-1390200D01*
G01X5514800Y-1406200D02*
X5483800D01*
G01X5514800Y-1398200D02*
X5483800D01*
G01X5456200Y-730200D02*
Y-737700D01*
X5455700Y-738200D01*
G01X5456200Y-722200D02*
Y-714700D01*
X5456700Y-714200D01*
G01X5440700Y-730200D02*
X5471700D01*
Y-722200D01*
X5440700D01*
Y-730200D01*
G01X5558400Y-723200D02*
Y-715700D01*
X5558900Y-715200D01*
G01X5558400Y-731200D02*
Y-738700D01*
X5557900Y-739200D01*
G01X5542900Y-723200D02*
X5573900D01*
G01X5542900Y-731200D02*
X5573900D01*
G01X5510800Y-175600D02*
X5503300D01*
X5502800Y-175100D01*
G01X5518800Y-175600D02*
X5526300D01*
X5526800Y-176100D01*
G01X5510800Y-191100D02*
Y-160100D01*
G01X5518800Y-191100D02*
Y-160100D01*
G01X5970800Y-4373900D02*
X5978300D01*
X5978800Y-4374400D01*
G01X5962800Y-4373900D02*
X5955300D01*
X5954800Y-4373400D01*
G01X5970800Y-4389400D02*
Y-4358400D01*
X5962800D01*
Y-4389400D01*
X5970800D01*
G01X5755900Y-4370900D02*
X5748400D01*
X5747900Y-4370400D01*
G01X5763900Y-4370900D02*
X5771400D01*
X5771900Y-4371400D01*
G01X5755900Y-4355400D02*
Y-4386400D01*
X5763900D01*
Y-4355400D01*
X5755900D01*
G01X5925600Y-3567700D02*
Y-3560200D01*
X5926100Y-3559700D01*
G01X5925600Y-3575700D02*
Y-3583200D01*
X5925100Y-3583700D01*
G01X5910100Y-3567700D02*
X5941100D01*
G01X5910100Y-3575700D02*
X5941100D01*
G01X5912100Y-3349700D02*
Y-3342200D01*
X5912600Y-3341700D01*
G01X5912100Y-3357700D02*
Y-3365200D01*
X5911600Y-3365700D01*
G01X5927600Y-3349700D02*
X5896600D01*
Y-3357700D01*
X5927600D01*
Y-3349700D01*
G01X6008500Y-3356700D02*
Y-3364200D01*
X6008000Y-3364700D01*
G01X6008500Y-3348700D02*
Y-3341200D01*
X6009000Y-3340700D01*
G01X5993000Y-3356700D02*
X6024000D01*
Y-3348700D01*
X5993000D01*
Y-3356700D01*
G01X5770000Y-3514500D02*
X5762500D01*
X5762000Y-3514000D01*
G01X5778000Y-3514500D02*
X5785500D01*
X5786000Y-3515000D01*
G01X5770000Y-3530000D02*
Y-3499000D01*
G01X5778000Y-3530000D02*
Y-3499000D01*
G01X5720100Y-3349700D02*
Y-3342200D01*
X5720600Y-3341700D01*
G01X5720100Y-3357700D02*
Y-3365200D01*
X5719600Y-3365700D01*
G01X5816700Y-3349700D02*
Y-3342200D01*
X5817200Y-3341700D01*
G01X5816700Y-3357700D02*
Y-3365200D01*
X5816200Y-3365700D01*
G01X5801200Y-3349700D02*
X5832200D01*
G01X5801200Y-3357700D02*
X5832200D01*
G01X5803100Y-2960200D02*
X5810600D01*
X5811100Y-2960700D01*
G01X5795100Y-2960200D02*
X5787600D01*
X5787100Y-2959700D01*
G01X5803100Y-2944700D02*
Y-2975700D01*
G01X5795100Y-2944700D02*
Y-2975700D01*
G01X5796100Y-2636900D02*
X5788600D01*
X5788100Y-2636400D01*
G01X5804100Y-2636900D02*
X5811600D01*
X5812100Y-2637400D01*
G01X5796100Y-2621400D02*
Y-2652400D01*
X5804100D01*
Y-2621400D01*
X5796100D01*
G01X5803100Y-2736000D02*
X5810600D01*
X5811100Y-2736500D01*
G01X5795100Y-2736000D02*
X5787600D01*
X5787100Y-2735500D01*
G01X5803100Y-2751500D02*
Y-2720500D01*
X5795100D01*
Y-2751500D01*
X5803100D01*
G01Y-2834900D02*
X5810600D01*
X5811100Y-2835400D01*
G01X5795100Y-2834900D02*
X5787600D01*
X5787100Y-2834400D01*
G01X5803100Y-2850400D02*
Y-2819400D01*
X5795100D01*
Y-2850400D01*
X5803100D01*
G01X6147000Y-7213500D02*
X6139500D01*
X6139000Y-7213000D01*
G01X6155000Y-7213500D02*
X6162500D01*
X6163000Y-7214000D01*
G01X6147000Y-7198000D02*
Y-7229000D01*
X6155000D01*
Y-7198000D01*
X6147000D01*
G01X6177000Y-6314000D02*
Y-6283000D01*
G01X6185000Y-6314000D02*
Y-6283000D01*
G01X6177000Y-6298500D02*
X6169500D01*
X6169000Y-6298000D01*
G01X6185000Y-6298500D02*
X6192500D01*
X6193000Y-6299000D01*
G01X6201900Y-4373900D02*
X6209400D01*
X6209900Y-4374400D01*
G01X6193900Y-4373900D02*
X6186400D01*
X6185900Y-4373400D01*
G01X6201900Y-4358400D02*
Y-4389400D01*
G01X6193900Y-4358400D02*
Y-4389400D01*
G01X6180000Y-3541800D02*
Y-3510800D01*
G01X6188000Y-3541800D02*
Y-3510800D01*
G01X6180000Y-3235200D02*
X6172500D01*
X6172000Y-3234700D01*
G01X6188000Y-3235200D02*
X6195500D01*
X6196000Y-3235700D01*
G01X6180000Y-3219700D02*
Y-3250700D01*
X6188000D01*
Y-3219700D01*
X6180000D01*
G01Y-3330500D02*
X6172500D01*
X6172000Y-3330000D01*
G01X6188000Y-3330500D02*
X6195500D01*
X6196000Y-3331000D01*
G01X6180000Y-3315000D02*
Y-3346000D01*
X6188000D01*
Y-3315000D01*
X6180000D01*
G01Y-3526300D02*
X6172500D01*
X6172000Y-3525800D01*
G01X6188000Y-3526300D02*
X6195500D01*
X6196000Y-3526800D01*
G01X6180000Y-3427200D02*
X6172500D01*
X6172000Y-3426700D01*
G01X6188000Y-3427200D02*
X6195500D01*
X6196000Y-3427700D01*
G01X6180000Y-3442700D02*
Y-3411700D01*
G01X6188000Y-3442700D02*
Y-3411700D01*
G01X6081100Y-2645300D02*
X6073600D01*
X6073100Y-2644800D01*
G01X6089100Y-2645300D02*
X6096600D01*
X6097100Y-2645800D01*
G01X6081100Y-2629800D02*
Y-2660800D01*
X6089100D01*
Y-2629800D01*
X6081100D01*
G01X6357000Y-7213500D02*
X6349500D01*
X6349000Y-7213000D01*
G01X6365000Y-7213500D02*
X6372500D01*
X6373000Y-7214000D01*
G01X6357000Y-7198000D02*
Y-7229000D01*
X6365000D01*
Y-7198000D01*
X6357000D01*
G01X6616200Y-2913000D02*
Y-2920500D01*
X6615700Y-2921000D01*
G01X6430600Y-2739500D02*
X6438100D01*
X6438600Y-2740000D01*
G01X6422600Y-2739500D02*
X6415100D01*
X6414600Y-2739000D01*
G01X6430600Y-2755000D02*
Y-2724000D01*
X6422600D01*
Y-2755000D01*
X6430600D01*
G01X6516600Y-2912000D02*
Y-2919500D01*
X6516100Y-2920000D01*
G01X6516600Y-2904000D02*
Y-2896500D01*
X6517100Y-2896000D01*
G01X6501100Y-2912000D02*
X6532100D01*
Y-2904000D01*
X6501100D01*
Y-2912000D01*
G01X6372000D02*
Y-2919500D01*
X6371500Y-2920000D01*
G01X6372000Y-2904000D02*
Y-2896500D01*
X6372500Y-2896000D01*
G01X6387500Y-2912000D02*
X6356500D01*
G01X6387500Y-2904000D02*
X6356500D01*
G01X6616200Y-2905000D02*
Y-2897500D01*
X6616700Y-2897000D01*
G01X6600700Y-2905000D02*
X6631700D01*
G01X6600700Y-2913000D02*
X6631700D01*
G01X6916000Y-6083500D02*
X6908500D01*
X6908000Y-6083000D01*
G01X6924000Y-6083500D02*
X6931500D01*
X6932000Y-6084000D01*
G01X6916000Y-6099000D02*
Y-6068000D01*
G01X6924000Y-6099000D02*
Y-6068000D01*
G01X6923000Y-5856500D02*
X6930500D01*
X6931000Y-5857000D01*
G01X6915000Y-5856500D02*
X6907500D01*
X6907000Y-5856000D01*
G01X6923000Y-5841000D02*
Y-5872000D01*
G01X6915000Y-5841000D02*
Y-5872000D01*
G01X6682500Y-5740100D02*
X6690000D01*
X6690500Y-5740600D01*
G01X6674500Y-5740100D02*
X6667000D01*
X6666500Y-5739600D01*
G01X6682500Y-5724600D02*
Y-5755600D01*
G01X6674500Y-5724600D02*
Y-5755600D01*
G01X6747000Y-4888100D02*
X6739500D01*
X6739000Y-4887600D01*
G01X6755000Y-4888100D02*
X6762500D01*
X6763000Y-4888600D01*
G01X6747000Y-4903600D02*
Y-4872600D01*
G01X6755000Y-4903600D02*
Y-4872600D01*
G01X6747000Y-4986800D02*
X6739500D01*
X6739000Y-4986300D01*
G01X6755000Y-4986800D02*
X6762500D01*
X6763000Y-4987300D01*
G01X6747000Y-5002300D02*
Y-4971300D01*
G01X6755000Y-5002300D02*
Y-4971300D01*
G01X6713900Y-2913000D02*
Y-2920500D01*
X6713400Y-2921000D01*
G01X6713900Y-2905000D02*
Y-2897500D01*
X6714400Y-2897000D01*
G01X6729400Y-2905000D02*
X6698400D01*
Y-2913000D01*
X6729400D01*
Y-2905000D01*
G01X6653900Y-2739500D02*
X6661400D01*
X6661900Y-2740000D01*
G01X6645900Y-2739500D02*
X6638400D01*
X6637900Y-2739000D01*
G01X6653900Y-2755000D02*
Y-2724000D01*
X6645900D01*
Y-2755000D01*
X6653900D01*
G01X6877000Y-2739500D02*
X6884500D01*
X6885000Y-2740000D01*
G01X6869000Y-2739500D02*
X6861500D01*
X6861000Y-2739000D01*
G01X6877000Y-2755000D02*
Y-2724000D01*
X6869000D01*
Y-2755000D01*
X6877000D01*
G01X7152500Y-7322200D02*
X7160000D01*
X7160500Y-7322700D01*
G01X7144500Y-7322200D02*
X7137000D01*
X7136500Y-7321700D01*
G01X7152500Y-7337700D02*
Y-7306700D01*
X7144500D01*
Y-7337700D01*
X7152500D01*
G01X6991200Y-3423800D02*
X6998700D01*
X6999200Y-3424300D01*
G01X6983200Y-3423800D02*
X6975700D01*
X6975200Y-3423300D01*
G01X6991200Y-3439300D02*
Y-3408300D01*
X6983200D01*
Y-3439300D01*
X6991200D01*
G01Y-3328800D02*
X6998700D01*
X6999200Y-3329300D01*
G01X6983200Y-3328800D02*
X6975700D01*
X6975200Y-3328300D01*
G01X6991200Y-3344300D02*
Y-3313300D01*
X6983200D01*
Y-3344300D01*
X6991200D01*
G01Y-3518000D02*
X6998700D01*
X6999200Y-3518500D01*
G01X6983200Y-3518000D02*
X6975700D01*
X6975200Y-3517500D01*
G01X6991200Y-3502500D02*
Y-3533500D01*
G01X6983200Y-3502500D02*
Y-3533500D01*
G01X6991400Y-3124800D02*
X6998900D01*
X6999400Y-3125300D01*
G01X6983400Y-3124800D02*
X6975900D01*
X6975400Y-3124300D01*
G01X6991400Y-3109300D02*
Y-3140300D01*
G01X6983400Y-3109300D02*
Y-3140300D01*
G01X6991200Y-3030300D02*
X6998700D01*
X6999200Y-3030800D01*
G01X6983200Y-3030300D02*
X6975700D01*
X6975200Y-3029800D01*
G01X6991200Y-3014800D02*
Y-3045800D01*
G01X6983200Y-3014800D02*
Y-3045800D01*
G01X7268500Y-2888400D02*
X7237500D01*
Y-2896400D01*
X7268500D01*
Y-2888400D01*
G01X7156400D02*
Y-2880900D01*
X7156900Y-2880400D01*
G01X7156400Y-2896400D02*
Y-2903900D01*
X7155900Y-2904400D01*
G01X7171900Y-2888400D02*
X7140900D01*
Y-2896400D01*
X7171900D01*
Y-2888400D01*
G01X7101000Y-2739500D02*
X7108500D01*
X7109000Y-2740000D01*
G01X7093000Y-2739500D02*
X7085500D01*
X7085000Y-2739000D01*
G01X7101000Y-2755000D02*
Y-2724000D01*
X7093000D01*
Y-2755000D01*
X7101000D01*
G01X7344700Y-2895400D02*
Y-2902900D01*
X7344200Y-2903400D01*
G01X7344700Y-2887400D02*
Y-2879900D01*
X7345200Y-2879400D01*
G01X7329200Y-2895400D02*
X7360200D01*
Y-2887400D01*
X7329200D01*
Y-2895400D01*
G01X7544300Y-2888400D02*
Y-2880900D01*
X7544800Y-2880400D01*
G01X7544300Y-2896400D02*
Y-2903900D01*
X7543800Y-2904400D01*
G01X7559800Y-2888400D02*
X7528800D01*
Y-2896400D01*
X7559800D01*
Y-2888400D01*
G01X7253000D02*
Y-2880900D01*
X7253500Y-2880400D01*
G01X7253000Y-2896400D02*
Y-2903900D01*
X7252500Y-2904400D01*
G01X7443900Y-2888400D02*
Y-2880900D01*
X7444400Y-2880400D01*
G01X7443900Y-2896400D02*
Y-2903900D01*
X7443400Y-2904400D01*
G01X7428400Y-2888400D02*
X7459400D01*
G01X7428400Y-2896400D02*
X7459400D01*
G01X7524100Y-449000D02*
Y-456500D01*
X7523600Y-457000D01*
G01X7329800Y-449000D02*
Y-456500D01*
X7329300Y-457000D01*
G01X7427900Y-449000D02*
Y-456500D01*
X7427400Y-457000D01*
G01X7524100Y-441000D02*
Y-433500D01*
X7524600Y-433000D01*
G01X7508600Y-449000D02*
X7539600D01*
Y-441000D01*
X7508600D01*
Y-449000D01*
G01X7524100Y-240500D02*
Y-248000D01*
X7523600Y-248500D01*
G01X7524100Y-232500D02*
Y-225000D01*
X7524600Y-224500D01*
G01X7508600Y-240500D02*
X7539600D01*
Y-232500D01*
X7508600D01*
Y-240500D01*
G01X7329800Y-441000D02*
Y-433500D01*
X7330300Y-433000D01*
G01X7314300Y-449000D02*
X7345300D01*
Y-441000D01*
X7314300D01*
Y-449000D01*
G01X7427900Y-441000D02*
Y-433500D01*
X7428400Y-433000D01*
G01X7412400Y-449000D02*
X7443400D01*
Y-441000D01*
X7412400D01*
Y-449000D01*
G01X7843500Y-7283000D02*
Y-7290500D01*
X7843000Y-7291000D01*
G01X7843500Y-7275000D02*
Y-7267500D01*
X7844000Y-7267000D01*
G01X7828000Y-7283000D02*
X7859000D01*
Y-7275000D01*
X7828000D01*
Y-7283000D01*
G01X7653500Y-7123000D02*
Y-7130500D01*
X7653000Y-7131000D01*
G01X7653500Y-7115000D02*
Y-7107500D01*
X7654000Y-7107000D01*
G01X7638000Y-7123000D02*
X7669000D01*
Y-7115000D01*
X7638000D01*
Y-7123000D01*
G01X7597000Y-6093500D02*
X7589500D01*
X7589000Y-6093000D01*
G01X7605000Y-6093500D02*
X7612500D01*
X7613000Y-6094000D01*
G01X7597000Y-6109000D02*
Y-6078000D01*
G01X7605000Y-6109000D02*
Y-6078000D01*
G01X7789100Y-3423800D02*
X7796600D01*
X7797100Y-3424300D01*
G01X7781100Y-3423800D02*
X7773600D01*
X7773100Y-3423300D01*
G01X7789100Y-3439300D02*
Y-3408300D01*
X7781100D01*
Y-3439300D01*
X7789100D01*
G01Y-3328800D02*
X7796600D01*
X7797100Y-3329300D01*
G01X7781100Y-3328800D02*
X7773600D01*
X7773100Y-3328300D01*
G01X7789100Y-3344300D02*
Y-3313300D01*
X7781100D01*
Y-3344300D01*
X7789100D01*
G01Y-3518300D02*
X7796600D01*
X7797100Y-3518800D01*
G01X7781100Y-3518300D02*
X7773600D01*
X7773100Y-3517800D01*
G01X7789100Y-3502800D02*
Y-3533800D01*
G01X7781100Y-3502800D02*
Y-3533800D01*
G01X7789100Y-3030300D02*
X7796600D01*
X7797100Y-3030800D01*
G01X7781100Y-3030300D02*
X7773600D01*
X7773100Y-3029800D01*
G01X7789100Y-3014800D02*
Y-3045800D01*
G01X7781100Y-3014800D02*
Y-3045800D01*
G01X7789100Y-3124600D02*
X7796600D01*
X7797100Y-3125100D01*
G01X7781100Y-3124600D02*
X7773600D01*
X7773100Y-3124100D01*
G01X7789100Y-3109100D02*
Y-3140100D01*
G01X7781100Y-3109100D02*
Y-3140100D01*
G01X7836900Y-2830900D02*
Y-2823400D01*
X7837400Y-2822900D01*
G01X7836900Y-2838900D02*
Y-2846400D01*
X7836400Y-2846900D01*
G01X7821400Y-2830900D02*
X7852400D01*
G01X7821400Y-2838900D02*
X7852400D01*
G01X7741600Y-2831700D02*
Y-2824200D01*
X7742100Y-2823700D01*
G01X7741600Y-2839700D02*
Y-2847200D01*
X7741100Y-2847700D01*
G01X7726100Y-2831700D02*
X7757100D01*
G01X7726100Y-2839700D02*
X7757100D01*
G01X7624700Y-449000D02*
Y-456500D01*
X7624200Y-457000D01*
G01X7728600Y-449000D02*
Y-456500D01*
X7728100Y-457000D01*
G01X7831400Y-449000D02*
Y-456500D01*
X7830900Y-457000D01*
G01X7831400Y-240500D02*
Y-248000D01*
X7830900Y-248500D01*
G01X7831400Y-232500D02*
Y-225000D01*
X7831900Y-224500D01*
G01X7815900Y-240500D02*
X7846900D01*
Y-232500D01*
X7815900D01*
Y-240500D01*
G01X7624700D02*
Y-248000D01*
X7624200Y-248500D01*
G01X7624700Y-232500D02*
Y-225000D01*
X7625200Y-224500D01*
G01X7609200Y-240500D02*
X7640200D01*
Y-232500D01*
X7609200D01*
Y-240500D01*
G01X7624700Y-441000D02*
Y-433500D01*
X7625200Y-433000D01*
G01X7609200Y-449000D02*
X7640200D01*
Y-441000D01*
X7609200D01*
Y-449000D01*
G01X7728600Y-240500D02*
Y-248000D01*
X7728100Y-248500D01*
G01X7728600Y-232500D02*
Y-225000D01*
X7729100Y-224500D01*
G01X7713100Y-240500D02*
X7744100D01*
Y-232500D01*
X7713100D01*
Y-240500D01*
G01X7728600Y-441000D02*
Y-433500D01*
X7729100Y-433000D01*
G01X7744100Y-449000D02*
X7713100D01*
G01X7744100Y-441000D02*
X7713100D01*
G01X7831400D02*
Y-433500D01*
X7831900Y-433000D01*
G01X7846900Y-449000D02*
X7815900D01*
G01X7846900Y-441000D02*
X7815900D01*
G01X7931900Y-449000D02*
Y-456500D01*
X7931400Y-457000D01*
G01X7931900Y-240500D02*
Y-248000D01*
X7931400Y-248500D01*
G01X7931900Y-232500D02*
Y-225000D01*
X7932400Y-224500D01*
G01X7916400Y-240500D02*
X7947400D01*
Y-232500D01*
X7916400D01*
Y-240500D01*
G01X7931900Y-441000D02*
Y-433500D01*
X7932400Y-433000D01*
G01X7947400Y-449000D02*
X7916400D01*
G01X7947400Y-441000D02*
X7916400D01*
G01X8377000Y-7218000D02*
Y-7249000D01*
X8385000D01*
Y-7218000D01*
X8377000D01*
G01X8383000Y-7036500D02*
X8390500D01*
X8391000Y-7037000D01*
G01X8375000Y-7036500D02*
X8367500D01*
X8367000Y-7036000D01*
G01X8383000Y-7052000D02*
Y-7021000D01*
X8375000D01*
Y-7052000D01*
X8383000D01*
G01X8377000Y-7233500D02*
X8369500D01*
X8369000Y-7233000D01*
G01X8385000Y-7233500D02*
X8392500D01*
X8393000Y-7234000D01*
G01X8377000Y-6003500D02*
X8369500D01*
X8369000Y-6003000D01*
G01X8385000Y-6003500D02*
X8392500D01*
X8393000Y-6004000D01*
G01X8377000Y-5988000D02*
Y-6019000D01*
X8385000D01*
Y-5988000D01*
X8377000D01*
G01X8384000Y-5906500D02*
X8391500D01*
X8392000Y-5907000D01*
G01X8376000Y-5906500D02*
X8368500D01*
X8368000Y-5906000D01*
G01X8384000Y-5922000D02*
Y-5891000D01*
X8376000D01*
Y-5922000D01*
X8384000D01*
G01X8377000Y-5803500D02*
X8369500D01*
X8369000Y-5803000D01*
G01X8385000Y-5803500D02*
X8392500D01*
X8393000Y-5804000D01*
G01X8377000Y-5819000D02*
Y-5788000D01*
G01X8385000Y-5819000D02*
Y-5788000D01*
G54D13*
G01X417310Y-5426580D02*
X459740Y-5469010D01*
X417310Y-5511440D01*
X374880Y-5469010D01*
G01X275890Y-5426580D02*
X233460Y-5469010D01*
X275890Y-5511440D01*
X318320Y-5469010D01*
G01X417310Y-5398300D02*
G03I-70710J0D01*
G01X367810Y-5419510D02*
X325390D01*
G01Y-5377090D02*
X367810Y-5419510D01*
Y-5377090D01*
G01Y-5419510D02*
X325390D01*
G01X374880Y-5327590D02*
X417310Y-5285160D01*
X459740Y-5327590D01*
X417310Y-5370020D01*
G01X318320Y-5327590D02*
X304170Y-5313450D01*
X247610D01*
X233460Y-5327590D01*
X275890Y-5370020D01*
G01X711300Y-4369000D02*
X775300D01*
G01X759300Y-4396000D02*
Y-4343000D01*
X725300Y-4369000D01*
X759300Y-4396000D01*
G01X725300Y-4343000D02*
Y-4396000D01*
G01X3490400Y-5890200D02*
X3480400D01*
Y-6388200D01*
X3492860D01*
G01X3533300Y-5085300D02*
X3495700D01*
Y-5470600D01*
X3531800D01*
G01X3788900D02*
X3817700D01*
Y-5085000D01*
X3784300D01*
G01X3763300Y-4652500D02*
X3827300D01*
G01X3811300Y-4679500D02*
Y-4626500D01*
X3777300Y-4652500D01*
X3811300Y-4679500D01*
G01X3777300Y-4626500D02*
Y-4679500D01*
G01X3561200Y-4351200D02*
X3625200D01*
G01X3609200Y-4378200D02*
Y-4325200D01*
X3575200Y-4351200D01*
X3609200Y-4378200D01*
G01X3575200Y-4325200D02*
Y-4378200D01*
G01X3985400Y-5890200D02*
X4000400D01*
Y-6388200D01*
X3984680D01*
G01X4667400Y-5732100D02*
Y-5668100D01*
G01X4694400Y-5684100D02*
X4641400D01*
X4667400Y-5718100D01*
X4694400Y-5684100D01*
G01X4641400Y-5718100D02*
X4694400D01*
G01X4667400Y-5421200D02*
Y-5357200D01*
G01X4694400Y-5373200D02*
X4641400D01*
X4667400Y-5407200D01*
X4694400Y-5373200D01*
G01X4641400Y-5407200D02*
X4694400D01*
G01X4669400Y-4952100D02*
Y-5016100D01*
G01X4642400Y-5000100D02*
X4695400D01*
X4669400Y-4966100D01*
X4642400Y-5000100D01*
G01X4695400Y-4966100D02*
X4642400D01*
G01X4666900Y-4644900D02*
Y-4708900D01*
G01X4639900Y-4692900D02*
X4692900D01*
X4666900Y-4658900D01*
X4639900Y-4692900D01*
G01X4692900Y-4658900D02*
X4639900D01*
G01X5356800Y-1904700D02*
Y-1915200D01*
X5357300Y-1915700D01*
G01X5355800Y-1846700D02*
Y-1834200D01*
X5355300Y-1833700D01*
G01X5324300Y-1846700D02*
X5387300D01*
G01X5325300Y-1904700D02*
X5388300D01*
G01X5332300Y-1892700D02*
X5381300D01*
Y-1859700D01*
X5332300D01*
Y-1892700D01*
G01X5527900Y-2429000D02*
Y-2440000D01*
G01Y-2416000D02*
Y-2406000D01*
G01X5513900Y-2429000D02*
X5541900D01*
Y-2416000D01*
X5513900D01*
Y-2429000D01*
G01X5550900Y-2373000D02*
Y-2476000D01*
X5504900D01*
Y-2370000D01*
X5550900D01*
Y-2373000D01*
G01X5593400Y-2429000D02*
Y-2440000D01*
G01Y-2416000D02*
Y-2406000D01*
G01X5579400Y-2429000D02*
X5607400D01*
Y-2416000D01*
X5579400D01*
Y-2429000D01*
G01X5616400Y-2373000D02*
Y-2476000D01*
X5570400D01*
Y-2370000D01*
X5616400D01*
Y-2373000D01*
G01X5956000Y-7241000D02*
Y-7188000D01*
X5922000Y-7214000D01*
X5956000Y-7241000D01*
G01X5922000Y-7188000D02*
Y-7241000D01*
G01X5908000Y-7214000D02*
X5972000D01*
G01X6617900Y-2631800D02*
X6681900D01*
G01X6665900Y-2658800D02*
Y-2605800D01*
X6631900Y-2631800D01*
X6665900Y-2658800D01*
G01X6631900Y-2605800D02*
Y-2658800D01*
G01X6394600Y-2631800D02*
X6458600D01*
G01X6442600Y-2658800D02*
Y-2605800D01*
X6408600Y-2631800D01*
X6442600Y-2658800D01*
G01X6408600Y-2605800D02*
Y-2658800D01*
G01X6841000Y-2631800D02*
X6905000D01*
G01X6889000Y-2658800D02*
Y-2605800D01*
X6855000Y-2631800D01*
X6889000Y-2658800D01*
G01X6855000Y-2605800D02*
Y-2658800D01*
G01X7166000Y-7241000D02*
Y-7188000D01*
X7132000Y-7214000D01*
X7166000Y-7241000D01*
G01X7132000Y-7188000D02*
Y-7241000D01*
G01X7118000Y-7214000D02*
X7182000D01*
G01X7020200Y-3618300D02*
X6956200D01*
G01X6972200Y-3591300D02*
Y-3644300D01*
X7006200Y-3618300D01*
X6972200Y-3591300D01*
G01X7006200Y-3644300D02*
Y-3591300D01*
G01X6972200Y-3198500D02*
Y-3251500D01*
X7006200Y-3225500D01*
X6972200Y-3198500D01*
G01X7006200Y-3251500D02*
Y-3198500D01*
G01X7020200Y-3225500D02*
X6956200D01*
G01X7065000Y-2631800D02*
X7129000D01*
G01X7113000Y-2658800D02*
Y-2605800D01*
X7079000Y-2631800D01*
X7113000Y-2658800D01*
G01X7079000Y-2605800D02*
Y-2658800D01*
G01X7818100Y-3621400D02*
X7754100D01*
G01X7770100Y-3594400D02*
Y-3647400D01*
X7804100Y-3621400D01*
X7770100Y-3594400D01*
G01X7804100Y-3647400D02*
Y-3594400D01*
G01X7770100Y-3198500D02*
Y-3251500D01*
X7804100Y-3225500D01*
X7770100Y-3198500D01*
G01X7804100Y-3251500D02*
Y-3198500D01*
G01X7818100Y-3225500D02*
X7754100D01*
G01X8348000Y-7134000D02*
X8412000D01*
G01X8396000Y-7161000D02*
Y-7108000D01*
X8362000Y-7134000D01*
X8396000Y-7161000D01*
G01X8362000Y-7108000D02*
Y-7161000D01*
M02*
