G04 ================== begin FILE IDENTIFICATION RECORD ==================*
G04 Layout Name:  G:/github/PLL_FM_HW/PCB/FMDEMOD-57.brd*
G04 Film Name:    SOLDERMASK_BOTTOM*
G04 File Format:  Gerber RS274X*
G04 File Origin:  Cadence Allegro 17.4-S017*
G04 Origin Date:  Tue Oct 26 10:38:27 2021*
G04 *
G04 Layer:  VIA CLASS/SOLDERMASK_BOTTOM*
G04 Layer:  PIN/SOLDERMASK_BOTTOM*
G04 Layer:  PACKAGE GEOMETRY/SOLDERMASK_BOTTOM*
G04 Layer:  DRC ERROR CLASS/SOLDERMASK_BOTTOM*
G04 Layer:  BOARD GEOMETRY/SOLDERMASK_BOTTOM*
G04 *
G04 Offset:    (0.0000 0.0000)*
G04 Mirror:    No*
G04 Mode:      Positive*
G04 Rotation:  0*
G04 FullContactRelief:  No*
G04 UndefLineWidth:     0.2540*
G04 ================== end FILE IDENTIFICATION RECORD ====================*
%FSLAX25Y25*MOMM*%
%IR0*IPPOS*OFA0.00000B0.00000*MIA0B0*SFA1.00000B1.00000*%
%AMMACRO49*
21,1,2.3,2.3,0.0,0.0,135.*%
%ADD49MACRO49*%
%ADD28R,.4X1.3*%
%ADD31R,1.1X.8*%
%ADD25R,1.6X.3*%
%AMMACRO50*
21,1,.4,.7,0.0,0.0,135.*%
%ADD50MACRO50*%
%ADD35R,.7X1.3*%
%ADD29R,.8X1.1*%
%ADD40R,.5X1.6*%
%ADD33R,.7X1.4*%
%ADD52R,1.6X.5*%
%ADD36R,1.4X.7*%
%ADD44R,1.5X.8*%
%ADD48R,.9X1.6*%
%ADD18R,1.45X.75*%
%ADD24R,.75X1.45*%
%ADD26R,2.1X2.1*%
%ADD37R,1.1X1.6*%
%ADD54R,1.6X1.1*%
%ADD27R,1.3X1.6*%
%ADD53R,2.6X1.3*%
%ADD45R,1.7X1.3*%
%ADD39R,.3X.4*%
%ADD20R,1.6X1.3*%
%ADD38R,.4X.3*%
%ADD34R,.6X.4*%
%AMMACRO51*
21,1,.4,.7,0.0,0.0,45.*%
%ADD51MACRO51*%
%ADD19R,.4X.6*%
%ADD41R,.6X.6*%
%ADD16C,2.1*%
%ADD47R,.5X.7*%
%ADD43R,1.9X1.7*%
%ADD42R,.6X.6*%
%ADD32R,.8X.4*%
%ADD21C,1.3*%
%ADD15R,.6X.7*%
%ADD11C,4.*%
%ADD46R,.9X.5*%
%ADD17R,.7X.6*%
%ADD13R,.5X.9*%
%ADD30R,.5X.9*%
%ADD23R,.6X.9*%
%ADD14R,.9X.5*%
%ADD22R,.9X.6*%
%ADD10C,1.6*%
%ADD12C,1.8*%
G75*
%LPD*%
G75*
G36*
G01X4839800Y-7588300D02*
Y-7818300D01*
X4939800D01*
Y-7588300D01*
X4839800D01*
G37*
G36*
G01X5008900D02*
Y-7818300D01*
X5108900D01*
Y-7588300D01*
X5008900D01*
G37*
G36*
G01X5073500Y-5964800D02*
Y-6064800D01*
X5303500D01*
Y-5964800D01*
X5073500D01*
G37*
G36*
G01Y-5790200D02*
Y-5890200D01*
X5303500D01*
Y-5790200D01*
X5073500D01*
G37*
G36*
G01X5177900Y-7588300D02*
Y-7818300D01*
X5277900D01*
Y-7588300D01*
X5177900D01*
G37*
G36*
G01X5348900D02*
Y-7818300D01*
X5448900D01*
Y-7588300D01*
X5348900D01*
G37*
G36*
G01X5520900D02*
Y-7818300D01*
X5620900D01*
Y-7588300D01*
X5520900D01*
G37*
G36*
G01X5694000D02*
Y-7818300D01*
X5794000D01*
Y-7588300D01*
X5694000D01*
G37*
G36*
G01X5865800D02*
Y-7818300D01*
X5965800D01*
Y-7588300D01*
X5865800D01*
G37*
G36*
G01X5813300Y-5689000D02*
Y-5789000D01*
X6043300D01*
Y-5689000D01*
X5813300D01*
G37*
G36*
G01Y-5439000D02*
Y-5539000D01*
X6043300D01*
Y-5439000D01*
X5813300D01*
G37*
G36*
G01X6037500Y-7589300D02*
Y-7819300D01*
X6137500D01*
Y-7589300D01*
X6037500D01*
G37*
G36*
G01X6212300Y-7588300D02*
Y-7818300D01*
X6312300D01*
Y-7588300D01*
X6212300D01*
G37*
G36*
G01X6385900D02*
Y-7818300D01*
X6485900D01*
Y-7588300D01*
X6385900D01*
G37*
G36*
G01X6561200D02*
Y-7818300D01*
X6661200D01*
Y-7588300D01*
X6561200D01*
G37*
G36*
G01X6736400D02*
Y-7818300D01*
X6836400D01*
Y-7588300D01*
X6736400D01*
G37*
G36*
G01X6912800D02*
Y-7818300D01*
X7012800D01*
Y-7588300D01*
X6912800D01*
G37*
G36*
G01X7087500D02*
Y-7818300D01*
X7187500D01*
Y-7588300D01*
X7087500D01*
G37*
G36*
G01X7262800D02*
Y-7818300D01*
X7362800D01*
Y-7588300D01*
X7262800D01*
G37*
G36*
G01X7436900D02*
Y-7818300D01*
X7536900D01*
Y-7588300D01*
X7436900D01*
G37*
G36*
G01X7614000D02*
Y-7818300D01*
X7714000D01*
Y-7588300D01*
X7614000D01*
G37*
G36*
G01X7789300D02*
Y-7818300D01*
X7889300D01*
Y-7588300D01*
X7789300D01*
G37*
G36*
G01X7963600D02*
Y-7818300D01*
X8063600D01*
Y-7588300D01*
X7963600D01*
G37*
G54D10*
X-162500Y-7680900D03*
X-172700Y-6683900D03*
X-183900Y-5381000D03*
X-172500Y-2573900D03*
X-167700Y-1357900D03*
X-174300Y-417700D03*
X403400Y-8161800D03*
X397300Y162100D03*
X1250200Y-3533400D03*
X1497400Y-8156000D03*
X1630800Y-2004400D03*
X1490000Y156800D03*
X2272500Y-6490500D03*
X2664600Y-2004400D03*
X2825700Y-8169000D03*
X2837700Y153500D03*
X3698900Y-5394200D03*
X4769800Y-4903000D03*
X5212100Y-6517400D03*
X5749200Y-8180200D03*
X5779000Y165300D03*
X6837500Y-4729300D03*
X7092300Y-8161100D03*
X7247100Y-2884200D03*
X7129400Y170900D03*
X8194800Y-8156100D03*
X7981100Y-6343600D03*
X8100900Y-631600D03*
X8197500Y169900D03*
X8750400Y-7675500D03*
X8761000Y-6658300D03*
X8760700Y-5364300D03*
X8768300Y-2537800D03*
X8760400Y-1349800D03*
X8762700Y-409300D03*
G54D11*
X300000Y-7700000D03*
Y-4300000D03*
Y-3700000D03*
Y-300000D03*
X4000000Y-7700000D03*
Y-4300000D03*
Y-3700000D03*
Y-300000D03*
X4600000Y-7700000D03*
Y-4300000D03*
Y-3700000D03*
Y-300000D03*
X8300000Y-7700000D03*
Y-4300000D03*
Y-3700000D03*
Y-300000D03*
G54D20*
X859300Y-4175500D03*
Y-3825500D03*
X1665200Y-4175500D03*
Y-3825500D03*
X2674500Y-4175500D03*
Y-3825500D03*
X3437800Y-4175500D03*
Y-3825500D03*
X4940800Y-4174500D03*
X5151600D03*
X4940800Y-3824500D03*
X5151600D03*
X5359800Y-4174500D03*
Y-3824500D03*
X5785900Y-4174500D03*
X5571100Y-4176500D03*
X5785900Y-3824500D03*
X5571100Y-3826500D03*
X6883200Y-4176500D03*
Y-3826500D03*
G54D12*
X245500Y-4827800D03*
G54D30*
X4772500Y-1842300D03*
X4772600Y-1721800D03*
X4773800Y-1599900D03*
X4772800Y-1422500D03*
X4766800Y-1032200D03*
X4772800Y-1297400D03*
X4766800Y-910900D03*
X4847500Y-7504400D03*
X4927500D03*
X5021900D03*
X5101900D03*
X4852500Y-1842300D03*
X4852600Y-1721800D03*
X4853800Y-1599900D03*
X4852800Y-1422500D03*
X4846800Y-1032200D03*
X4852800Y-1297400D03*
X4846800Y-910900D03*
X5356000Y-7504400D03*
X5436000D03*
X5608800D03*
X5528800D03*
X5704900D03*
X5502000Y-6652000D03*
X5567000D03*
X5632000D03*
X5697000D03*
X5502000Y-6252000D03*
X5567000D03*
X5632000D03*
X5697000D03*
X5784900Y-7504400D03*
X6046200D03*
X6126200D03*
X6217200D03*
X6297200D03*
X6122000Y-6652000D03*
X6187000D03*
X6252000D03*
X6317000D03*
X6122000Y-6252000D03*
X6187000D03*
X6252000D03*
X6317000D03*
X6395600Y-7504400D03*
X6475600D03*
X6571500D03*
X6651500D03*
X6512000Y-6652000D03*
X6577000D03*
X6642000D03*
X6512000Y-6252000D03*
X6577000D03*
X6642000D03*
X6748100Y-7504400D03*
X6828100D03*
X6707000Y-6652000D03*
Y-6252000D03*
X7092800Y-7504400D03*
X7172800D03*
X7273400D03*
X7121600Y-6652000D03*
X7186600D03*
X7251600D03*
X7121600Y-6252000D03*
X7186600D03*
X7251600D03*
X7353400Y-7504400D03*
X7316600Y-6652000D03*
Y-6252000D03*
G54D21*
X1197700Y-6853900D03*
X2612000Y-6681200D03*
X2613200Y-6847600D03*
X2618600Y-6476900D03*
X3288900Y-7449500D03*
X3548300Y-7049600D03*
X3543700Y-6033900D03*
X3870500Y-6271900D03*
X4031700Y-7033600D03*
X3932100Y-6645800D03*
X4036500Y-6812600D03*
X4089900Y-6337300D03*
X4065500Y-6508300D03*
X4018700Y-6156600D03*
G54D22*
X1732700Y-5781000D03*
Y-5901000D03*
X1664900Y-4453800D03*
Y-4333800D03*
X2910000Y-5709700D03*
Y-5829700D03*
X2887200Y-5160100D03*
Y-5040100D03*
X3002100Y-4720200D03*
Y-4600200D03*
X3437800Y-4454800D03*
Y-4334800D03*
X5089900Y-3310800D03*
Y-3190800D03*
X5067600Y-2462000D03*
Y-2342000D03*
X6019400Y-5147300D03*
X5819400D03*
X7863400Y-3622000D03*
Y-3502000D03*
G54D13*
X151600Y-3277000D03*
Y-3020400D03*
Y-3148200D03*
X291600Y-3277000D03*
Y-3020400D03*
Y-3148200D03*
X788300Y-4486300D03*
Y-4352400D03*
X1031100Y-7563100D03*
Y-7791300D03*
X954400Y-5097600D03*
X1094400D03*
X954400Y-4968000D03*
X1094400D03*
X928300Y-4486300D03*
Y-4352400D03*
X932600Y-832700D03*
X1072600D03*
X932600Y-963700D03*
X1072600D03*
X932600Y-702800D03*
X1072600D03*
X1171100Y-7563100D03*
Y-7791300D03*
X1326600Y-3286900D03*
X1186600D03*
X1326600Y-3147900D03*
X1186600D03*
X1326600Y-3011000D03*
X1186600D03*
X1557900Y-4435200D03*
X1417900D03*
X1769100D03*
X1909100D03*
X1957500Y-832700D03*
Y-963700D03*
Y-702800D03*
X2082600Y-5538600D03*
X2222600D03*
X2082600Y-5337300D03*
X2222600D03*
X2213200Y-3656100D03*
X2213800Y-3272900D03*
Y-3145300D03*
Y-3017300D03*
X2097500Y-832700D03*
Y-963700D03*
Y-702800D03*
X2483400Y-5538600D03*
X2343400D03*
X2483400Y-5337300D03*
X2343400D03*
X2353200Y-3656100D03*
X2353800Y-3272900D03*
Y-3145300D03*
Y-3017300D03*
X3180800Y-4435200D03*
X3117800Y-4705500D03*
X3257800D03*
X3117800Y-4569600D03*
X3257800D03*
X3232900Y-3277200D03*
Y-3146900D03*
Y-3019500D03*
X2986500Y-963700D03*
X3126500D03*
X2986500Y-832700D03*
X3126500D03*
X2986500Y-702800D03*
X3126500D03*
X3320800Y-4435200D03*
X3554100D03*
X3372900Y-3277200D03*
Y-3146900D03*
Y-3019500D03*
X3739600Y-5756100D03*
X3879600D03*
X3878600Y-5620900D03*
X3738600D03*
X3694100Y-4435200D03*
X4496500Y-2645300D03*
X4497500Y-2387400D03*
X4496500Y-2515800D03*
X4497500Y-2258800D03*
X4636500Y-2645300D03*
X4637500Y-2387400D03*
X4636500Y-2515800D03*
X4637500Y-2258800D03*
X4844700Y-2887400D03*
X4984700D03*
X4844700Y-2759600D03*
X4984700D03*
X5337900Y-4456300D03*
X5721900Y-5141300D03*
X5581900D03*
X5477900Y-4456300D03*
X5777600Y-2364100D03*
X5917600D03*
X6869100Y-2047600D03*
X6729100D03*
X7480000Y-6650000D03*
Y-6520000D03*
Y-6390000D03*
Y-6260000D03*
X7620000Y-6650000D03*
Y-6520000D03*
Y-6390000D03*
Y-6260000D03*
G54D40*
X6287100Y-4474700D03*
X6187100D03*
X6087100D03*
X6587100D03*
X6487100D03*
X6387100D03*
X7181000Y-4471000D03*
X7581000D03*
X7481000D03*
X7381000D03*
X7281000D03*
X7881000D03*
X7781000D03*
X7681000D03*
G54D31*
X5058900Y-7783300D03*
Y-7623300D03*
X4889800Y-7783300D03*
Y-7623300D03*
X4912700Y-2450700D03*
Y-2290700D03*
X5227900Y-7783300D03*
Y-7623300D03*
X5398900Y-7783300D03*
Y-7623300D03*
X5222300Y-2458700D03*
Y-2298700D03*
X5570900Y-7783300D03*
Y-7623300D03*
X5744000Y-7783300D03*
Y-7623300D03*
X5915800Y-7783300D03*
Y-7623300D03*
X5793400Y-1939000D03*
Y-1779000D03*
X6262300Y-7783300D03*
Y-7623300D03*
X6087500Y-7624300D03*
Y-7784300D03*
X6435900Y-7783300D03*
Y-7623300D03*
X6611200Y-7783300D03*
Y-7623300D03*
X6786400Y-7783300D03*
Y-7623300D03*
X6962800Y-7783300D03*
Y-7623300D03*
X7137500Y-7783300D03*
Y-7623300D03*
X7486900Y-7783300D03*
Y-7623300D03*
X7312800Y-7783300D03*
Y-7623300D03*
X7548000Y-5680000D03*
X7368000D03*
X7548000Y-5520000D03*
X7368000D03*
Y-5090000D03*
X7548000D03*
X7368000Y-4930000D03*
X7548000D03*
X7839300Y-7783300D03*
Y-7623300D03*
X7664000Y-7783300D03*
Y-7623300D03*
X7908000Y-5680000D03*
X7728000D03*
X7908000Y-5520000D03*
X7728000D03*
Y-5090000D03*
X7908000D03*
X7728000Y-4930000D03*
X7908000D03*
X8013600Y-7783300D03*
Y-7623300D03*
G54D14*
X180300Y-2189400D03*
Y-2049400D03*
Y-1812600D03*
Y-1952600D03*
X439200Y-2189400D03*
Y-2049400D03*
X309400Y-2189400D03*
Y-2049400D03*
Y-1812600D03*
Y-1952600D03*
X439200Y-1812600D03*
Y-1952600D03*
X755200Y-3601600D03*
Y-3461600D03*
X786800Y-2189400D03*
Y-2049400D03*
Y-1812600D03*
Y-1952600D03*
X725000Y-534400D03*
Y-394400D03*
X1082900Y-6978500D03*
Y-7118500D03*
X1015900Y-3601600D03*
X884500D03*
X1015900Y-3461600D03*
X884500D03*
X1045800Y-2189400D03*
Y-2049400D03*
X916100Y-2189400D03*
Y-2049400D03*
Y-1812600D03*
Y-1952600D03*
X1045800Y-1812600D03*
Y-1952600D03*
X858400Y-534400D03*
X990300D03*
X858400Y-394400D03*
X990300D03*
X1199200Y-2188700D03*
Y-2048700D03*
X1328800Y-2188700D03*
Y-2048700D03*
X1199200Y-1812600D03*
Y-1952600D03*
X1328800Y-1812600D03*
Y-1952600D03*
X1741500Y-3601900D03*
Y-3461900D03*
X1456800Y-2188700D03*
Y-2048700D03*
Y-1951600D03*
Y-1811600D03*
X2051300Y-4295300D03*
Y-4155300D03*
X1876700Y-3601900D03*
X2012400D03*
X1876700Y-3461900D03*
X2012400D03*
X1938500Y-2189800D03*
Y-2049800D03*
X1807800Y-2189800D03*
Y-2049800D03*
Y-1951600D03*
Y-1811600D03*
X1938500Y-1951600D03*
Y-1811600D03*
X1880400Y-534400D03*
X1748500D03*
X2012100D03*
X1880400Y-394400D03*
X1748500D03*
X2012100D03*
X2293200Y-4295300D03*
Y-4155300D03*
X2067900Y-2189800D03*
Y-2049800D03*
X2359500Y-2189800D03*
Y-2049800D03*
X2230000Y-2189800D03*
Y-2049800D03*
X2067900Y-1812600D03*
Y-1952600D03*
X2228500Y-1812600D03*
Y-1952600D03*
X2357500Y-1812600D03*
Y-1952600D03*
X2465800Y-6071900D03*
Y-5931900D03*
X2624500Y-4904800D03*
Y-5044800D03*
X2488800Y-2189800D03*
Y-2049800D03*
X2485900Y-1812600D03*
Y-1952600D03*
X2909300Y-3601900D03*
X2780100D03*
X2909300Y-3461900D03*
X2780100D03*
X2838000Y-2189800D03*
Y-2049800D03*
X2966200Y-2189800D03*
Y-2049800D03*
X2964400Y-1812600D03*
Y-1952600D03*
X2835600Y-1812600D03*
Y-1952600D03*
X2752300Y-534400D03*
X2885600D03*
X2752300Y-394400D03*
X2885600D03*
X3053400Y-4295300D03*
Y-4155300D03*
X3258400Y-3600300D03*
X3038300Y-3601900D03*
X3258400Y-3460300D03*
X3038300Y-3461900D03*
X3095000Y-2189800D03*
Y-2049800D03*
X3252900Y-2189800D03*
Y-2049800D03*
X3093600Y-1812600D03*
Y-1952600D03*
X3251500Y-1812100D03*
Y-1952100D03*
X3019300Y-534400D03*
Y-394400D03*
X3437300Y-4546100D03*
Y-4686100D03*
X3388900Y-3600300D03*
X3518900D03*
X3388900Y-3460300D03*
X3518900D03*
X3381000Y-2189800D03*
Y-2049800D03*
X3510500Y-2189800D03*
Y-2049800D03*
X3380600Y-1812100D03*
Y-1952100D03*
X3509600Y-1812100D03*
Y-1952100D03*
X3423500Y-534400D03*
X3557300D03*
X3289800D03*
X3423500Y-394400D03*
X3557300D03*
X3289800D03*
X3606000Y-4685100D03*
Y-4545100D03*
X3623200Y-4295300D03*
Y-4155300D03*
X3815300Y-2189000D03*
Y-2049000D03*
X3754500Y-1812700D03*
Y-1952700D03*
X3885200Y-1813100D03*
Y-1953100D03*
X3948700Y-2189000D03*
Y-2049000D03*
X4081900Y-2189000D03*
Y-2049000D03*
X5017700Y-317000D03*
Y-177000D03*
X5139200Y-1213400D03*
Y-1073400D03*
X5270100Y-1213400D03*
Y-1073400D03*
X5149300Y-317000D03*
Y-177000D03*
X5668000Y-1213400D03*
Y-1073400D03*
X5573600Y-317000D03*
Y-177000D03*
X5700400Y-317000D03*
Y-177000D03*
X5798000Y-1213400D03*
Y-1073400D03*
X6186300Y-4788800D03*
Y-4648800D03*
X6586500Y-4788800D03*
X6387000D03*
X6586500Y-4648800D03*
X6387000D03*
X7080000Y-5081000D03*
X7220000D03*
X7080000Y-4800000D03*
X7220000D03*
X7080000Y-4941000D03*
X7220000D03*
X7080000Y-4660000D03*
X7220000D03*
X7730000Y-6410000D03*
Y-6270000D03*
X7870000Y-4800000D03*
Y-4660000D03*
X8010000Y-4800000D03*
X8150000D03*
X8010000Y-4660000D03*
X8150000D03*
X8290000Y-4800000D03*
Y-4660000D03*
G54D23*
X1621000Y-5161900D03*
X1741000D03*
X5612500Y-4633900D03*
X5707500D03*
X5611500Y-4343900D03*
X5802500Y-4633900D03*
X5801500Y-4343900D03*
G54D32*
X5422400Y-5410900D03*
X5274400D03*
X5420400Y-5574600D03*
X5272400D03*
X5420400Y-5624600D03*
X5272400D03*
X5420400Y-5674600D03*
X5272400D03*
X5422400Y-5310900D03*
X5274400D03*
X5422400Y-5360900D03*
X5274400D03*
G54D41*
X6250500Y-2293100D03*
Y-2203100D03*
X6571900Y-2180400D03*
Y-2270400D03*
X6411200Y-2180400D03*
Y-2270400D03*
X6892000Y-2330000D03*
Y-2420000D03*
X6732000Y-2330000D03*
Y-2420000D03*
G54D50*
X7745240Y-6907980D03*
X7780600Y-6943340D03*
X7815950Y-6978690D03*
X7851310Y-7014050D03*
X7886660Y-7049400D03*
X7922020Y-7084760D03*
X8037980Y-6615240D03*
X8073340Y-6650600D03*
X8108690Y-6685950D03*
X8144050Y-6721310D03*
X8179400Y-6756660D03*
X8214760Y-6792020D03*
G54D15*
X205600Y-7095500D03*
Y-6999500D03*
X331300Y-7095500D03*
Y-6999500D03*
X713400Y-7000500D03*
Y-7096500D03*
X585900Y-7000500D03*
Y-7096500D03*
X664700Y-5106400D03*
X764300D03*
X664700Y-5010400D03*
X764300D03*
X966400Y-7000500D03*
Y-7096500D03*
X863900Y-5105400D03*
X1080400Y-4788000D03*
X863900Y-5009400D03*
X1080400Y-4692000D03*
X1395100Y-4273300D03*
Y-4177300D03*
X1582200Y-6336100D03*
X1682100D03*
X1582200Y-6240100D03*
X1682100D03*
Y-4940900D03*
Y-5036900D03*
X1490200Y-4273300D03*
Y-4177300D03*
X1937100Y-7832200D03*
Y-7736200D03*
X1781800Y-6335100D03*
X1982200D03*
X1882100Y-6040400D03*
Y-6136400D03*
X1781800Y-6239100D03*
X1982200D03*
X1981900Y-4741600D03*
Y-4837600D03*
X1782100Y-4936300D03*
Y-4840300D03*
X1881400Y-4936300D03*
Y-4840300D03*
X1835500Y-4273300D03*
Y-4177300D03*
X1933100Y-4273300D03*
Y-4177300D03*
X2124300Y-7832200D03*
X2222000D03*
X2124300Y-7736200D03*
X2222000D03*
X2236200Y-6833000D03*
Y-6737000D03*
X2129300Y-6833000D03*
Y-6737000D03*
X2333700Y-6833000D03*
Y-6737000D03*
X2082000Y-6335100D03*
X2182200Y-6040500D03*
Y-6136500D03*
X2082000Y-6239100D03*
X2282100Y-5740400D03*
Y-5836400D03*
X2182400Y-5740400D03*
Y-5836400D03*
X2082300Y-5740400D03*
Y-5836400D03*
Y-5136300D03*
X2082100Y-4737000D03*
X2082300Y-5040300D03*
X2082100Y-4641000D03*
X2082200Y-4536600D03*
Y-4440600D03*
X2182100Y-4536600D03*
Y-4440600D03*
X2588400Y-7832200D03*
Y-7736200D03*
X2582200Y-6335100D03*
X2481600D03*
X2582200Y-6239100D03*
X2481600D03*
X2482300Y-5740400D03*
Y-5836400D03*
X2381900Y-5740400D03*
Y-5836400D03*
X2487700Y-4781300D03*
X2585400D03*
X2487700Y-4685300D03*
X2585400D03*
X2508600Y-4273300D03*
Y-4177300D03*
X2410900Y-4273300D03*
Y-4177300D03*
X2743900Y-6943000D03*
X2743500Y-7056300D03*
Y-7152300D03*
X2743900Y-6680900D03*
Y-6847000D03*
Y-6584900D03*
X2781900Y-6335100D03*
Y-6239100D03*
X2887700Y-5357400D03*
Y-5261400D03*
X2683400Y-4780300D03*
X2781600Y-4934500D03*
Y-4838500D03*
X2882000Y-4736700D03*
Y-4519700D03*
X2683400Y-4684300D03*
X2882000Y-4640700D03*
Y-4423700D03*
X2837900Y-4273300D03*
Y-4177300D03*
X2935600Y-4273300D03*
Y-4177300D03*
X3178500Y-4273300D03*
Y-4177300D03*
X3282300Y-5936800D03*
Y-5840800D03*
X3274600Y-4273300D03*
Y-4177300D03*
X4493500Y-6060300D03*
Y-5964300D03*
X4812400Y-7213900D03*
X4716300D03*
X4812400Y-7117900D03*
X4620500Y-7117000D03*
Y-7021000D03*
X4522800Y-7117000D03*
Y-7021000D03*
X4716300Y-7117900D03*
X4591100Y-6060300D03*
X4786900D03*
X4689800D03*
X4591100Y-5964300D03*
X4786900D03*
X4689800D03*
X4524800Y-3282900D03*
X4619400D03*
X4524800Y-3186900D03*
X4619400D03*
X4524800Y-3073200D03*
Y-2977200D03*
X4619400Y-3073200D03*
Y-2977200D03*
Y-2863200D03*
Y-2767200D03*
X4524800Y-2863200D03*
Y-2767200D03*
X4911600Y-7213900D03*
Y-7117900D03*
X5009300Y-7117000D03*
Y-7021000D03*
X4975600Y-6061500D03*
X4882600Y-6061000D03*
X4975600Y-5965500D03*
X4882600Y-5965000D03*
X5035000Y-4827000D03*
Y-4731000D03*
X4992500Y-1738800D03*
X4992400Y-1850000D03*
Y-1946000D03*
X4992500Y-1642800D03*
X5205000Y-7022000D03*
Y-7118000D03*
X5142200Y-6688200D03*
Y-6784200D03*
X5136600Y-4828000D03*
Y-4732000D03*
X5207400Y-3299500D03*
Y-3203500D03*
X5302000Y-3299500D03*
Y-3203500D03*
X5359000Y-2360600D03*
Y-2456600D03*
X5591000Y-6003100D03*
X5695100D03*
X5491000Y-6002100D03*
X5591000Y-5907100D03*
X5695100D03*
X5491000Y-5906100D03*
X5455700Y-2455600D03*
Y-2359600D03*
X5645600Y-1739800D03*
Y-1945000D03*
Y-1849000D03*
Y-1643800D03*
X5969700Y-6003700D03*
X5867000D03*
X5969700Y-5907700D03*
X5867000D03*
X5932800Y-1938500D03*
Y-1842500D03*
X6172300Y-6004700D03*
X6270000D03*
X6072300Y-6003700D03*
X6172300Y-5908700D03*
X6270000D03*
X6072300Y-5907700D03*
X6145000Y-4893000D03*
Y-4989000D03*
X6092800Y-1844800D03*
Y-1940800D03*
X6653100Y-6003700D03*
X6367100Y-6004700D03*
X6653100Y-5907700D03*
X6367100Y-5908700D03*
X6753100Y-6004700D03*
X6853100D03*
X6753100Y-5908700D03*
X6853100D03*
X6850400Y-5429100D03*
Y-5525100D03*
X6750600Y-5408200D03*
X6850400Y-5293000D03*
Y-5197000D03*
X6750600Y-5312200D03*
X6913400Y-2894900D03*
Y-2798900D03*
X6912600Y-2589700D03*
Y-2685700D03*
X6816000Y-2589700D03*
Y-2685700D03*
X7275700Y-6004700D03*
X7175700Y-6003700D03*
X7275700Y-5908700D03*
X7175700Y-5907700D03*
X7103900Y-2589700D03*
Y-2685700D03*
X7196900Y-2589700D03*
Y-2685700D03*
X7008700Y-2589700D03*
Y-2685700D03*
X7186600Y-488200D03*
Y-392200D03*
X7375700Y-6004700D03*
Y-5908700D03*
X7291400Y-2589700D03*
Y-2685700D03*
X7575900Y-2589700D03*
Y-2685700D03*
X7481300Y-2589700D03*
Y-2685700D03*
X7386300Y-2589700D03*
Y-2685700D03*
X7311000Y-488200D03*
X7435300D03*
X7311000Y-392200D03*
X7435300D03*
Y-185800D03*
Y-281800D03*
X7863200Y-2902000D03*
X7603000Y-2895200D03*
X7703000Y-2894500D03*
X7863200Y-2589700D03*
Y-2685700D03*
Y-2806000D03*
X7767100Y-2589700D03*
Y-2685700D03*
X7671500Y-2589700D03*
Y-2685700D03*
X7603000Y-2799200D03*
X7703000Y-2798500D03*
X7682900Y-488200D03*
X7806200D03*
X7682900Y-392200D03*
X7806200D03*
Y-185800D03*
Y-281800D03*
X8155000Y-7277000D03*
Y-7181000D03*
X8141300Y-3212300D03*
X8015100D03*
X7960800Y-2902000D03*
X8153600D03*
X8141300Y-3116300D03*
X8015100D03*
X7960800Y-2806000D03*
X8152400Y-2589700D03*
Y-2685700D03*
X8153600Y-2806000D03*
X8057600Y-2684700D03*
Y-2588700D03*
X7960800Y-2684700D03*
Y-2588700D03*
X7928500Y-488200D03*
Y-392200D03*
X8345000Y-7177000D03*
Y-7081000D03*
X8249800Y-2902000D03*
X8345000Y-2901000D03*
X8440300Y-2589700D03*
Y-2685700D03*
X8345000Y-2589700D03*
Y-2685700D03*
X8249800Y-2806000D03*
Y-2684700D03*
Y-2588700D03*
X8345000Y-2805000D03*
G54D42*
X6229900Y-2527000D03*
X6319900D03*
X6572200Y-1380200D03*
X6482200D03*
X6807300Y-1591800D03*
X6897300D03*
X6807300Y-1498300D03*
X6897300D03*
G54D51*
X7753020Y-6792720D03*
X7784840Y-6760900D03*
X7820190Y-6725550D03*
X7855550Y-6690190D03*
X7890900Y-6654840D03*
X8035150Y-7081930D03*
X8070510Y-7046580D03*
X8105870Y-7011220D03*
X8141220Y-6975870D03*
X8176580Y-6940510D03*
X8211930Y-6905150D03*
X7926260Y-6619480D03*
G54D24*
X2883500Y-7158200D03*
Y-6618200D03*
X3264500Y-7158200D03*
X3137500D03*
X3010500D03*
X3264500Y-6618200D03*
X3137500D03*
X3010500D03*
X5360700Y-463500D03*
X5467000Y-1409600D03*
G54D33*
X5364900Y-5005800D03*
X5269900Y-4795800D03*
X5459900D03*
G54D43*
X7080000Y-2370000D03*
G54D16*
X574100Y-4632100D03*
X1107400Y-4467700D03*
X4563900Y-1168300D03*
X5146000Y-1409000D03*
X5022100Y-505000D03*
X5466900Y-996300D03*
X5389300Y-713200D03*
X6538000Y-2681000D03*
G54D34*
X5372200Y-1474800D03*
Y-1409800D03*
Y-1344800D03*
X5265900Y-528700D03*
Y-463700D03*
Y-398700D03*
X5562200Y-1474800D03*
Y-1409800D03*
Y-1344800D03*
X5455900Y-528700D03*
Y-463700D03*
Y-398700D03*
G54D52*
X8124000Y-5558000D03*
Y-5458000D03*
Y-5358000D03*
Y-5258000D03*
Y-5158000D03*
Y-5058000D03*
G54D25*
X3544600Y-6884500D03*
Y-6834500D03*
Y-6784500D03*
Y-6734500D03*
Y-6684500D03*
Y-6634500D03*
Y-6584500D03*
Y-6534500D03*
Y-6484500D03*
Y-6434500D03*
Y-6384500D03*
Y-6334500D03*
Y-6284500D03*
Y-6234500D03*
G54D17*
X1053100Y-7676500D03*
X1149100D03*
X1377500Y-6438400D03*
X1281500D03*
X1383800Y-6138800D03*
X1384800Y-6238900D03*
X1384600Y-5738900D03*
Y-5538800D03*
Y-5438600D03*
Y-5638700D03*
X1384100Y-5238600D03*
X1383100Y-5138300D03*
X1384100Y-5339100D03*
Y-5038600D03*
X1384200Y-4738500D03*
X1699900Y-7492700D03*
X1727900Y-7015200D03*
X1479800Y-6138800D03*
X1680100Y-6038400D03*
X1584100D03*
X1480800Y-6238900D03*
X1580400Y-5838500D03*
X1484400D03*
X1480600Y-5738900D03*
X1580400Y-5934100D03*
X1484400D03*
X1480600Y-5538800D03*
Y-5438600D03*
Y-5638700D03*
X1480100Y-5238600D03*
X1479100Y-5138300D03*
X1480100Y-5339100D03*
Y-5038600D03*
X1480200Y-4738500D03*
X1689800Y-4639000D03*
X1484000D03*
X1580000D03*
X1795900Y-7492700D03*
X1823900Y-7015200D03*
X1980300Y-5739300D03*
X1884300D03*
X1980000Y-5938800D03*
X1884000D03*
X1980300Y-5638500D03*
X1884300D03*
X1980300Y-5538900D03*
X1884300D03*
X1980300Y-5438900D03*
X1884300D03*
X1980300Y-5238800D03*
X1884300D03*
X1980300Y-5138700D03*
X1884300D03*
X1980300Y-5338800D03*
X1884300D03*
X1984300Y-4938400D03*
X1980300Y-5039300D03*
X1884300D03*
X1785800Y-4639000D03*
X2283200Y-4838400D03*
X2080300Y-4938400D03*
X2284200Y-4939100D03*
X2184400Y-5038900D03*
X2280400D03*
X2284200Y-4738700D03*
X2584400Y-6038700D03*
X2585400Y-5938400D03*
X2584200Y-5638500D03*
X2584000Y-5538600D03*
Y-5438600D03*
X2391300Y-5138600D03*
X2487300D03*
X2584000Y-5338600D03*
Y-5238600D03*
X2486300Y-5039100D03*
X2390300D03*
X2379200Y-4838400D03*
X2380200Y-4939100D03*
Y-4738700D03*
X2726800Y-7574000D03*
X2822800D03*
X2913100Y-7313600D03*
X2726800Y-7479600D03*
X2822800D03*
X2680400Y-6038700D03*
X2883700Y-6138400D03*
X2681400Y-5938400D03*
X2884700D03*
X2683600Y-5738700D03*
X2779600D03*
X2680200Y-5638500D03*
X2680000Y-5538600D03*
Y-5438600D03*
Y-5338600D03*
Y-5238600D03*
X3192900Y-7313600D03*
X3009100D03*
X3184000Y-6338600D03*
Y-6138600D03*
Y-6238800D03*
X2979700Y-6138400D03*
X2980700Y-5938400D03*
X3084200Y-5438700D03*
X3180200D03*
X3084200Y-5638700D03*
X3180200D03*
X3184300Y-5238900D03*
X3084200Y-5338800D03*
X3180200D03*
X3084000Y-4838600D03*
X3180000D03*
X3084200Y-5039000D03*
X3180200D03*
X2983800Y-4938600D03*
X3079800D03*
X3288900Y-7313600D03*
X3280000Y-6338600D03*
Y-6138600D03*
Y-6238800D03*
X3542100Y-5756100D03*
X3541100Y-5620900D03*
X3280300Y-5238900D03*
X3541100Y-5181400D03*
X3517500Y-4989300D03*
X3638100Y-5756100D03*
X3637100Y-5620900D03*
X3761600Y-5181400D03*
X3857600D03*
X3637100D03*
X3613500Y-4989300D03*
X3734000Y-4788600D03*
X3830000D03*
X4809400Y-7014600D03*
X4636700Y-5390400D03*
X4732700D03*
X4915300Y-7391900D03*
X4819300D03*
X5034000D03*
X4905400Y-7014600D03*
X5033300Y-5700300D03*
Y-5604000D03*
Y-5508400D03*
Y-5410900D03*
Y-5314700D03*
X5033200Y-5219100D03*
X4866700Y-2997800D03*
X4962700D03*
X4866700Y-2648500D03*
X4962700D03*
X5130000Y-7391900D03*
X5243400Y-6363600D03*
X5147400D03*
X5129300Y-5700300D03*
Y-5604000D03*
Y-5508400D03*
Y-5410900D03*
Y-5314700D03*
X5129200Y-5219100D03*
X5359900Y-4652800D03*
Y-4335000D03*
X5419700Y-1227200D03*
X5313400Y-284900D03*
X5409400D03*
X5549900Y-6795000D03*
X5645900D03*
X5587100Y-5798600D03*
X5683100D03*
X5587100Y-5703500D03*
X5683100D03*
X5587100Y-5507700D03*
X5683100D03*
X5587100Y-5409500D03*
X5683100D03*
X5682100Y-5607100D03*
X5586100D03*
X5587100Y-5312900D03*
X5683100D03*
X5455900Y-4652800D03*
Y-4335000D03*
X5719700Y-3352300D03*
X5616900Y-2184400D03*
X5520900D03*
X5617600Y-2089200D03*
X5521600D03*
X5711700Y-1503000D03*
Y-1405400D03*
X5515700Y-1227200D03*
X5710700Y-1305800D03*
X5614800Y-511500D03*
X5710800D03*
X5614800Y-607500D03*
X5710800D03*
X5709800Y-416200D03*
X5613800D03*
X5857400Y-7024300D03*
X5953400D03*
X5952400Y-7157400D03*
X5856400D03*
X5815700Y-3352300D03*
X5751100Y-2895500D03*
X5847100D03*
X5996400Y-1699900D03*
X5807700Y-1503000D03*
Y-1405400D03*
X5806700Y-1305800D03*
X6038300D03*
X6167800Y-6795000D03*
X6263800D03*
X6178200Y-5689400D03*
X6274200D03*
X6178200Y-5786700D03*
X6274200D03*
X6178200Y-5438800D03*
X6274200D03*
X6178200Y-5538800D03*
X6274200D03*
X6228400Y-5226600D03*
X6324400D03*
X6227000Y-5125000D03*
X6131000D03*
X6320200Y-2420900D03*
X6224200D03*
X6092400Y-1699900D03*
X6134300Y-1305800D03*
X6338500Y-815700D03*
X6242500D03*
X6561000Y-6795000D03*
X6657000D03*
X6595100Y-3622000D03*
X6596100Y-3717200D03*
X6384100D03*
X6480100D03*
X6404700Y-1860000D03*
X6500700D03*
X6864900Y-6956700D03*
X6960900D03*
X6959900Y-7157400D03*
X6863900D03*
X6691100Y-3622000D03*
X6692100Y-3717200D03*
X6803800Y-3680500D03*
X6899800D03*
X6938600Y-3422200D03*
X6939200Y-3327100D03*
X6939100Y-3123100D03*
X6795500Y-496100D03*
X6891500D03*
X7170600Y-6795000D03*
X7266600D03*
X7223500Y-3717200D03*
X7013500Y-3680500D03*
X7109500D03*
X7222500Y-3622000D03*
X7034600Y-3422200D03*
X7035200Y-3327100D03*
X7035100Y-3123100D03*
X7587000Y-7235000D03*
X7491000D03*
X7492000Y-7017400D03*
X7588000D03*
X7529100Y-3622000D03*
X7433100D03*
X7319500Y-3717200D03*
X7434100D03*
X7530100D03*
X7318500Y-3622000D03*
X7831000Y-5365000D03*
Y-5215000D03*
X7642400Y-3717200D03*
X7738400D03*
X7853900D03*
X7927000Y-5365000D03*
Y-5215000D03*
X7949900Y-3717200D03*
G54D53*
X8040000Y-2395000D03*
Y-845000D03*
G54D26*
X3785900Y-7119600D03*
X3786470Y-5999600D03*
G54D44*
X7077000Y-1820000D03*
Y-1720000D03*
Y-1620000D03*
Y-1520000D03*
Y-1420000D03*
Y-1320000D03*
Y-1220000D03*
Y-1120000D03*
Y-1020000D03*
G54D35*
X5510000Y-7230000D03*
X5605000D03*
X5700000D03*
X5510000Y-6950000D03*
X5605000D03*
X5700000D03*
X6120000Y-7230000D03*
X6215000D03*
X6310000D03*
X6120000Y-6950000D03*
X6215000D03*
X6310000D03*
X6510000Y-7230000D03*
X6605000D03*
X6510000Y-6950000D03*
X6605000D03*
X6700000Y-7230000D03*
Y-6950000D03*
X7120000Y-7230000D03*
X7215000D03*
X7120000Y-6950000D03*
X7215000D03*
X7310000Y-7230000D03*
Y-6950000D03*
G54D45*
X7080000Y-870000D03*
G54D27*
X4125000Y-7366200D03*
X4126000Y-5748000D03*
X4125000Y-5336300D03*
X4124400Y-5541500D03*
X4125900Y-5130300D03*
X4124400Y-4921300D03*
X4124500Y-4710500D03*
X4124600Y-1650000D03*
X4126600Y-1891200D03*
X4475000Y-7366200D03*
X4476000Y-5748000D03*
X4475000Y-5336300D03*
X4474400Y-5541500D03*
X4475900Y-5130300D03*
X4474400Y-4921300D03*
X4474500Y-4710500D03*
X4474600Y-1650000D03*
X4476600Y-1891200D03*
X5140700Y-1690800D03*
Y-1897000D03*
X5490700Y-1690800D03*
Y-1897000D03*
G54D54*
X8405000Y-5667000D03*
Y-4952000D03*
G54D18*
X874200Y-4741100D03*
X2673800Y-4459200D03*
G54D36*
X5648200Y-4880700D03*
X5858200Y-4975700D03*
Y-4785700D03*
G54D46*
X7188800Y-671000D03*
Y-591000D03*
X7558100Y-621200D03*
Y-701200D03*
X7433000Y-671000D03*
Y-591000D03*
X7311200Y-671000D03*
Y-591000D03*
X7806200Y-670200D03*
Y-590200D03*
X7686200Y-671000D03*
Y-591000D03*
X7926800Y-670200D03*
Y-590200D03*
G54D19*
X809000Y-4836300D03*
X874000D03*
X939000D03*
X809000Y-4646300D03*
X874000D03*
X939000D03*
X2608600Y-4554400D03*
Y-4364400D03*
X2673600Y-4554400D03*
X2738600D03*
X2673600Y-4364400D03*
X2738600D03*
G54D37*
X5981100Y-4193700D03*
X6696100D03*
X7072000Y-4195000D03*
X7989000D03*
G54D28*
X4558500Y-6808000D03*
X4623500D03*
X4688500D03*
X4753500D03*
X4558500Y-6258000D03*
X4623500D03*
X4688500D03*
X4753500D03*
X4818500Y-6808000D03*
X4883500D03*
X4948500D03*
X5013500D03*
X4818500Y-6258000D03*
X4883500D03*
X4948500D03*
X5013500D03*
G54D47*
X7480000Y-7125000D03*
X7600000D03*
X7720000Y-5365000D03*
X7600000D03*
X7720000Y-5215000D03*
X7600000D03*
G54D38*
X6013100Y-2406600D03*
Y-2336600D03*
X5969500Y-970400D03*
Y-900400D03*
X5889700Y-670000D03*
Y-740000D03*
X5889500Y-411400D03*
Y-341400D03*
X6331800Y-2249500D03*
Y-2179500D03*
X6332100Y-2089300D03*
Y-2019300D03*
X6172000Y-2249500D03*
Y-2179500D03*
X6252000Y-1698500D03*
X6332000D03*
Y-1473300D03*
Y-1543300D03*
X6252000Y-1473300D03*
Y-1543300D03*
Y-1628500D03*
X6332000D03*
X6131800Y-1462000D03*
Y-1532000D03*
X6326200Y-1061900D03*
Y-991900D03*
X6049800Y-895500D03*
Y-825500D03*
X6049900Y-329900D03*
Y-259900D03*
X6210000Y-329900D03*
Y-259900D03*
X6651900Y-2406700D03*
Y-2336700D03*
X6492200Y-2030600D03*
Y-2100600D03*
X6651900Y-2250900D03*
Y-2180900D03*
X6412200Y-2030600D03*
Y-2100600D03*
X6651400Y-2089300D03*
Y-2019300D03*
X6571900Y-2089300D03*
Y-2019300D03*
X6412000Y-1698500D03*
X6492100D03*
X6572200D03*
X6652000D03*
X6412000Y-1473300D03*
Y-1543300D03*
Y-1628500D03*
X6492100D03*
X6572200D03*
X6652000D03*
X6492100Y-1473300D03*
Y-1543300D03*
X6572200Y-1473300D03*
Y-1543300D03*
X6652000Y-1473300D03*
Y-1543300D03*
X6509600Y-1062900D03*
X6387400D03*
X6447900Y-1061900D03*
X6509600Y-992900D03*
X6387400D03*
X6447900Y-991900D03*
X6530300Y-589700D03*
Y-659700D03*
X6449800Y-670800D03*
Y-740800D03*
X6608400Y-413700D03*
Y-343700D03*
X6652200Y-1380900D03*
X6732000Y-1619700D03*
Y-1549700D03*
X6652200Y-1310900D03*
X6759900Y-1065000D03*
X6812100Y-1231500D03*
Y-1301500D03*
X6700600Y-1064000D03*
X6769800Y-815100D03*
X6759900Y-995000D03*
X6700600Y-994000D03*
X6769800Y-745100D03*
X6770100Y-413700D03*
Y-343700D03*
X6690400Y-413700D03*
Y-343700D03*
X7050000Y-632500D03*
Y-562500D03*
G54D29*
X4805200Y-3135700D03*
X5108500Y-6014800D03*
Y-5840200D03*
X4965200Y-3135700D03*
X5268500Y-6014800D03*
Y-5840200D03*
X5848300Y-5739000D03*
X6008300D03*
X5848300Y-5489000D03*
X6008300D03*
X5910000Y-3113500D03*
X5750000D03*
G54D39*
X5860200Y-2260400D03*
X5930200D03*
X6020600Y-2099800D03*
X5860200Y-2179700D03*
X5930200D03*
X5941900Y-1459200D03*
X6011900D03*
X6020600Y-1619400D03*
X5960400Y-819800D03*
X5890400D03*
X5933800Y-468500D03*
X6003800D03*
X6180200Y-2099600D03*
X6250200D03*
X6090600Y-2099800D03*
X6180200Y-2019900D03*
X6250200D03*
X6180200Y-1783300D03*
X6250200D03*
X6180200Y-1859100D03*
X6250200D03*
X6180200Y-1939900D03*
X6250200D03*
X6090600Y-1619400D03*
X6170100Y-915000D03*
X6240100D03*
X6260500Y-433900D03*
X6330500D03*
X6328400Y-162900D03*
X6340200Y-1779900D03*
X6410200D03*
X6562400Y-1939800D03*
X6492400D03*
X6562400Y-1779900D03*
X6492400D03*
X6340200Y-1939800D03*
X6410200D03*
X6492500Y-468500D03*
X6562500D03*
X6398400Y-162900D03*
X6570200D03*
X6640200D03*
X6519300D03*
X6449300D03*
X6885600Y-2179700D03*
X6815600D03*
X6885600Y-2259700D03*
X6815600D03*
X6721500Y-1859900D03*
X6651500D03*
X6721500Y-1940000D03*
X6651500D03*
X6806600Y-1739400D03*
X6736600D03*
X6887500Y-1819400D03*
X6817500D03*
X6881800Y-1940100D03*
X6811800D03*
X6819300Y-1420100D03*
X6889300D03*
X6819000Y-919200D03*
X6889000D03*
X6739700Y-162900D03*
X6809700D03*
X6760000Y-260100D03*
X6690000D03*
X7079900Y-259900D03*
X7009900D03*
G54D48*
X7375000Y-4729000D03*
X7725000D03*
G54D49*
X7980000Y-6850000D03*
M02*
