G04 ================== begin FILE IDENTIFICATION RECORD ==================*
G04 Layout Name:  G:/github/PLL_FM_HW/PCB/FMDEMOD-57.brd*
G04 Film Name:    TOP*
G04 File Format:  Gerber RS274X*
G04 File Origin:  Cadence Allegro 17.4-S017*
G04 Origin Date:  Tue Oct 26 10:38:27 2021*
G04 *
G04 Layer:  VIA CLASS/TOP*
G04 Layer:  PIN/TOP*
G04 Layer:  ETCH/TOP*
G04 *
G04 Offset:    (0.0000 0.0000)*
G04 Mirror:    No*
G04 Mode:      Positive*
G04 Rotation:  0*
G04 FullContactRelief:  No*
G04 UndefLineWidth:     0.2540*
G04 ================== end FILE IDENTIFICATION RECORD ====================*
%FSLAX25Y25*MOMM*%
%IR0*IPPOS*OFA0.00000B0.00000*MIA0B0*SFA1.00000B1.00000*%
%ADD42R,.3X1.*%
%ADD51R,.3X1.2*%
%AMMACRO14*
21,1,.5,1.,0.0,0.0,45.*%
%ADD14MACRO14*%
%ADD52R,1.2X.3*%
%ADD26R,1.X.6*%
%AMMACRO68*
21,1,.2,.6,0.0,0.0,135.*%
%ADD68MACRO68*%
%ADD28R,1.X.7*%
%ADD25R,.6X1.*%
%ADD46R,.6X1.2*%
%ADD39R,.7X1.*%
%ADD43R,.35X1.*%
%ADD41R,1.2X.6*%
%ADD29R,2.X.8*%
%ADD24R,.4X1.5*%
%ADD55R,.4X1.5*%
%ADD48R,1.5X.4*%
%ADD50R,.9X3.2*%
%ADD20R,.8X1.5*%
%ADD16R,1.5X.8*%
%ADD22C,.3*%
%ADD17C,.4*%
%ADD63C,.5*%
%ADD70R,.75X2.5*%
%ADD36C,.6*%
%AMMACRO12*
21,1,.5,1.,0.0,0.0,135.*%
%ADD12MACRO12*%
%ADD23R,2.X4.*%
%AMMACRO67*
21,1,2.2,2.2,0.0,0.0,45.*%
%ADD67MACRO67*%
%ADD45R,1.5X1.*%
%ADD60R,2.2X2.2*%
%ADD44R,1.2X1.5*%
%ADD35R,1.5X1.2*%
%ADD61R,.3X.2*%
%ADD57R,3.2X3.2*%
%ADD40R,5.X5.*%
%ADD53R,.5X.2*%
%AMMACRO69*
21,1,.2,.6,0.0,0.0,45.*%
%ADD69MACRO69*%
%ADD58R,.2X.5*%
%ADD65R,2.4X1.7*%
%ADD62R,.5X.5*%
%ADD59R,.4X.5*%
%ADD56C,1.*%
%ADD54R,.3X.7*%
%ADD47R,.6X.4*%
%ADD38R,.8X.2*%
%ADD66R,.7X.3*%
%ADD64R,.5X.5*%
%ADD37R,.2X.8*%
%ADD30R,.4X.6*%
%ADD21R,.5X.6*%
%ADD19R,.4X.8*%
%ADD13R,.6X.5*%
%ADD49R,.4X.8*%
%ADD27R,.5X.8*%
%ADD18R,.8X.4*%
%ADD34R,.7X.25*%
%ADD31R,.8X.5*%
%ADD33R,.25X.7*%
%ADD32R,.35X.25*%
%ADD10C,1.5*%
%ADD15C,1.7*%
%ADD11C,3.8*%
%ADD71C,.1*%
%ADD72C,.2*%
%ADD73C,.12*%
%ADD74C,.16*%
%ADD75C,.25*%
%ADD76C,.26*%
%ADD77C,.45*%
%ADD78C,.36*%
%ADD79C,.127*%
%ADD80C,.38*%
G75*
%LPD*%
G75*
G36*
G01X163500Y-5121200D02*
X223500D01*
Y-5231510D01*
G03X229360Y-5245660I19998J-7D01*
G01X258180Y-5274480D01*
G02Y-5274620I-71J-70D01*
G01X222870Y-5309930D01*
G02X222730I-70J71D01*
G01X152130Y-5239330D01*
G02X152100Y-5239260I70J71D01*
G01Y-5190890D01*
G02X157960Y-5176740I19999J6D01*
G01X160570Y-5174130D01*
G03X163500Y-5167050I-7065J7070D01*
G01Y-5121200D01*
G37*
G36*
G01X354700Y-2958000D02*
X554700D01*
Y-3349720D01*
G03X560560Y-3363860I20000J4D01*
G01X616340Y-3419640D01*
G03X630480Y-3425500I14144J14140D01*
G01X724500D01*
G02X744500Y-3445500I0J-20000D01*
G01Y-3702700D01*
G02X734500Y-3712700I-10000J0D01*
G01X645100D01*
G02X635100Y-3702700I0J10000D01*
G01Y-3608380D01*
G03X629240Y-3594240I-20001J-5D01*
G01X440360Y-3405360D01*
G03X426220Y-3399500I-14144J-14140D01*
G01X166300D01*
G02X146300Y-3379500I0J20000D01*
G01Y-3294500D01*
X334700D01*
G03X354700Y-3274500I0J20000D01*
G01Y-3272000D01*
X354650Y-3271950D01*
X354700Y-3271900D01*
Y-2958000D01*
G37*
G36*
G01X528100Y-2787900D02*
X568100D01*
Y-2867900D01*
X147700D01*
G02X137700Y-2857900I0J10000D01*
G01Y-2817900D01*
X217600D01*
G03X227600Y-2827900I10000J0D01*
G01X479820D01*
G03X493960Y-2822040I-6J20003D01*
G01X528100Y-2787900D01*
G37*
G36*
G01X229200Y-1807500D02*
Y-1840200D01*
Y-2153400D01*
Y-2193900D01*
X149200D01*
Y-1807500D01*
X229200D01*
G37*
G36*
G01X134500Y-1435600D02*
X309560D01*
G02X316630Y-1438530I-3J-10003D01*
G01X327270Y-1449170D01*
G03X334340Y-1452100I7072J7069D01*
G01X629700D01*
Y-1477100D01*
X246540D01*
G03X239470Y-1480030I2J-9999D01*
G01X205830Y-1513670D01*
G03X202900Y-1520740I7070J-7072D01*
G01Y-1531400D01*
G02X192900Y-1541400I-10000J0D01*
G01X134500D01*
G02X124500Y-1531400I0J10000D01*
G01Y-1445600D01*
G02X134500Y-1435600I10000J0D01*
G37*
G36*
G01X143800Y-648800D02*
X343800D01*
Y-1026400D01*
G03X443800Y-1126400I100000J0D01*
G01X494930D01*
G02X509060Y-1132260I-12J-19995D01*
G01X518340Y-1141540D01*
G03X532480Y-1147400I14146J14145D01*
G01X564200D01*
Y-1227400D01*
X532480D01*
G03X518350Y-1233250I7J-20006D01*
G01X517860Y-1233740D01*
G02X503720Y-1239600I-14146J14143D01*
G01X480400D01*
G03X430400Y-1289600I0J-50000D01*
G01Y-1357390D01*
G03X445050Y-1392750I49997J-1D01*
G01X448540Y-1396240D01*
G03X462680Y-1402100I14144J14139D01*
G01X629700D01*
Y-1427100D01*
X444200D01*
Y-1427000D01*
X403310D01*
G02X367960Y-1412360I2J50004D01*
G01X173090Y-1217490D01*
G02X143800Y-1146780I70709J70711D01*
G01Y-648800D01*
G37*
G36*
G01X917800Y-5364900D02*
X1072700D01*
G02X1082700Y-5374900I0J-10000D01*
G01Y-5415900D01*
G02X1062700Y-5435900I-20000J0D01*
G01X944800D01*
G03X924800Y-5455900I0J-20000D01*
G01Y-5617100D01*
G03X944800Y-5637100I20000J0D01*
G01X1069600D01*
G02X1089600Y-5657100I0J-20000D01*
G01Y-5743300D01*
G02X1069600Y-5763300I-20000J0D01*
G01X1005700D01*
G03X985700Y-5783300I0J-20000D01*
G01Y-5867300D01*
X935700D01*
Y-5799600D01*
G03X885700Y-5749600I-50000J0D01*
G01X845700D01*
G03X795700Y-5799600I0J-50000D01*
G01Y-5867300D01*
X745700D01*
Y-5768080D01*
G02X751560Y-5753940I20001J-5D01*
G01X806350Y-5699150D01*
G03X812200Y-5685020I-14158J14137D01*
G01Y-5460480D01*
G03X806340Y-5446340I-19997J-3D01*
G01X796900Y-5436900D01*
Y-5396900D01*
G02X796950I25J-10000D01*
G02X797000I25J-10000D01*
G02X797050I25J-10000D01*
G02X797100I25J-10000D01*
G01X897800D01*
G03X907800Y-5386900I0J10000D01*
G01Y-5374900D01*
G02X917800Y-5364900I10000J0D01*
G37*
G36*
G01X764000Y-4135300D02*
Y-4242500D01*
G03X784000Y-4262500I20000J0D01*
G01X948720D01*
G03X962860Y-4256640I-6J20005D01*
G01X966040Y-4253460D01*
G02X980180Y-4247600I14146J-14144D01*
G01X1019200D01*
G03X1039200Y-4227600I0J20000D01*
G01Y-4146600D01*
G03X1019200Y-4126600I-20000J0D01*
G01X976590D01*
G02X962440Y-4120740I-9J19992D01*
G01X959930Y-4118230D01*
G03X952860Y-4115300I-7075J-7077D01*
G01X784000D01*
G03X764000Y-4135300I0J-20000D01*
G37*
G36*
G01X774800Y-3738000D02*
X941600D01*
G02X951600Y-3748000I0J-10000D01*
G01Y-3787700D01*
G03X961600Y-3797700I10000J0D01*
G01X1075500D01*
G02X1085500Y-3807700I0J-10000D01*
G01Y-3875300D01*
G02X1075500Y-3885300I-10000J0D01*
G01X643700D01*
G02X633700Y-3875300I0J10000D01*
G01Y-3792500D01*
G02X643700Y-3782500I10000J0D01*
G01X754800D01*
G03X764800Y-3772500I0J10000D01*
G01Y-3748000D01*
G02X774800Y-3738000I10000J0D01*
G37*
G36*
G01X599200Y-2589600D02*
X780360D01*
G02X787430Y-2592530I-2J-10000D01*
G01X1059770Y-2864870D01*
G02X1062700Y-2871940I-7070J-7072D01*
G01Y-3358000D01*
X862700D01*
Y-2967900D01*
G03X762700Y-2867900I-100000J0D01*
G01X668100D01*
Y-2787900D01*
X734700D01*
G03X784700Y-2737900I0J50000D01*
G01Y-2628750D01*
G03X781770Y-2621670I-9995J10D01*
G01X777630Y-2617530D01*
G03X770560Y-2614600I-7073J-7072D01*
G01X599200D01*
Y-2589600D01*
G37*
G36*
G01X624200Y-2639600D02*
X750700D01*
Y-2728100D01*
G02X730700Y-2748100I-20000J0D01*
G01X614200D01*
G02X604200Y-2738100I0J10000D01*
G01Y-2659600D01*
G02X624200Y-2639600I20000J0D01*
G37*
G36*
G01X604200Y-2442100D02*
X617300D01*
X629200D01*
Y-2367840D01*
G02X632130Y-2360770I10000J-2D01*
G01X643870Y-2349030D01*
G03X646800Y-2341960I-7067J7071D01*
G01Y-2258200D01*
X609000D01*
X586800D01*
Y-2341960D01*
G03X589730Y-2349030I9998J1D01*
G01X601270Y-2360570D01*
G02X604200Y-2367640I-7070J-7072D01*
G01Y-2442100D01*
G37*
G36*
G01X1021060Y-2469000D02*
X1077900D01*
G02X1087900Y-2479000I0J-10000D01*
G01Y-2581700D01*
G02X1085900Y-2583700I-2000J0D01*
G01X859540D01*
G02X852470Y-2580770I3J10002D01*
G01X839230Y-2567530D01*
G03X832160Y-2564600I-7073J-7071D01*
G01X599200D01*
Y-2539600D01*
X919390D01*
G03X954750Y-2524950I0J49998D01*
G01X1003380Y-2476320D01*
G02X1021060Y-2469000I17674J-17678D01*
G37*
G36*
G01X725200Y-1807500D02*
Y-1897800D01*
Y-2145500D01*
Y-2193900D01*
X499200D01*
Y-2145500D01*
Y-1897800D01*
Y-1807500D01*
X725200D01*
G37*
G36*
G01X579600Y-1747400D02*
X594900D01*
X639600D01*
Y-1664740D01*
G03X636670Y-1657670I-10002J-3D01*
G01X627630Y-1648630D01*
G02X624700Y-1641560I7069J7072D01*
G01Y-1574600D01*
X605600D01*
X599700D01*
Y-1636360D01*
G02X596770Y-1643430I-10001J3D01*
G01X582530Y-1657670D01*
G03X579600Y-1664740I7069J-7072D01*
G01Y-1747400D01*
G37*
G36*
G01X478200Y-1377100D02*
Y-1304600D01*
G02X498200Y-1284600I20000J0D01*
G01X624700D01*
Y-1357100D01*
G02X604700Y-1377100I-20000J0D01*
G01X478200D01*
G37*
G36*
G01X684200Y-1107800D02*
X1079300D01*
G02X1089300Y-1117800I0J-10000D01*
G01Y-1162900D01*
X996570D01*
G02X982440Y-1157040I11J19993D01*
G01X978660Y-1153260D01*
G03X964520Y-1147400I-14143J-14138D01*
G01X724200D01*
G03X704200Y-1167400I0J-20000D01*
G01Y-1227400D01*
X664200D01*
Y-1127800D01*
G02X684200Y-1107800I20000J0D01*
G37*
G36*
G01X802600Y-1188500D02*
X862600D01*
Y-1238500D01*
X749000Y-1352100D01*
X748200Y-1352900D01*
Y-1377100D01*
X678200D01*
Y-1352100D01*
X684860D01*
G03X691930Y-1349170I-4J10004D01*
G01X799670Y-1241430D01*
G03X802600Y-1234360I-7071J7073D01*
G01Y-1188500D01*
G37*
G36*
G01X649500Y-128900D02*
X823100D01*
G02X843100Y-148900I0J-20000D01*
G01Y-264900D01*
G03X863100Y-284900I20000J0D01*
G01X1095200D01*
G02X1105200Y-294900I0J-10000D01*
G01Y-675100D01*
G02X1095200Y-685100I-10000J0D01*
G01X951800D01*
G03X851800Y-785100I0J-100000D01*
G01Y-1048800D01*
X651800D01*
Y-603900D01*
G02X661800Y-593900I10000J0D01*
G01X856960D01*
G03X864030Y-590970I-3J10001D01*
G01X881670Y-573330D01*
G02X888740Y-570400I7072J-7069D01*
G01X994200D01*
G03X1004200Y-560400I0J10000D01*
G01Y-368400D01*
G03X994200Y-358400I-10000J0D01*
G01X649500D01*
G02X629500Y-338400I0J20000D01*
G01Y-148900D01*
G02X649500Y-128900I20000J0D01*
G37*
G36*
G01X934700Y-6077300D02*
X1006500D01*
G02X1026500Y-6097300I0J-20000D01*
G01Y-6513400D01*
G02X1016500Y-6523400I-10000J0D01*
G01X954500D01*
Y-6473400D01*
X980640Y-6447260D01*
G03X986500Y-6433120I-14138J14144D01*
G01Y-6217380D01*
G03X980640Y-6203240I-20003J-6D01*
G01X934700Y-6157300D01*
Y-6077300D01*
G37*
G36*
G01X1248300Y-1807500D02*
Y-1871100D01*
Y-2137300D01*
Y-2194900D01*
X995200D01*
Y-2137300D01*
Y-1871100D01*
Y-1807500D01*
X1248300D01*
G37*
G36*
G01X1374400Y-2958000D02*
X1574400D01*
Y-3357720D01*
G03X1580260Y-3371860I20000J4D01*
G01X1628040Y-3419640D01*
G03X1642180Y-3425500I14144J14140D01*
G01X1708900D01*
G02X1728900Y-3445500I0J-20000D01*
G01Y-3637700D01*
G02X1708900Y-3657700I-20000J0D01*
G01X1556500D01*
G03X1536500Y-3677700I0J-20000D01*
G01Y-3692700D01*
G02X1516500Y-3712700I-20000J0D01*
G01X1445200D01*
G02X1425200Y-3692700I0J20000D01*
G01Y-3660900D01*
X1425100Y-3660800D01*
Y-3632200D01*
G02X1445100Y-3612200I20000J0D01*
G01X1520400D01*
G03X1540400Y-3592200I0J20000D01*
G01Y-3475900D01*
G03X1520400Y-3455900I-20000J0D01*
G01X1350800D01*
G03X1330800Y-3475900I0J-20000D01*
G01Y-3509600D01*
X1180800D01*
G02X1160800Y-3489600I0J20000D01*
G01Y-3314500D01*
G02X1180800Y-3294500I20000J0D01*
G01X1354400D01*
G03X1374400Y-3274500I0J20000D01*
G01Y-2958000D01*
G37*
G36*
G01X1547500Y-2787900D02*
X1587500D01*
Y-2867900D01*
X1170200D01*
G02X1160200Y-2857900I0J10000D01*
G01Y-2817900D01*
X1240200D01*
G03X1250200Y-2827900I10000J0D01*
G01X1503360D01*
G03X1510430Y-2824970I-3J10002D01*
G01X1547500Y-2787900D01*
G37*
G36*
G01X1155300Y-1435600D02*
X1330360D01*
G02X1337430Y-1438530I-3J-10003D01*
G01X1348070Y-1449170D01*
G03X1355140Y-1452100I7072J7069D01*
G01X1650500D01*
Y-1477100D01*
X1267340D01*
G03X1260270Y-1480030I2J-9999D01*
G01X1226630Y-1513670D01*
G03X1223700Y-1520740I7070J-7072D01*
G01Y-1531400D01*
G02X1213700Y-1541400I-10000J0D01*
G01X1155300D01*
G02X1145300Y-1531400I0J10000D01*
G01Y-1445600D01*
G02X1155300Y-1435600I10000J0D01*
G37*
G36*
G01X1164600Y-648800D02*
X1364600D01*
Y-1026400D01*
G03X1464600Y-1126400I100000J0D01*
G01X1512210D01*
G02X1526360Y-1132260I8J-19995D01*
G01X1535640Y-1141540D01*
G03X1549780Y-1147400I14146J14145D01*
G01X1581500D01*
Y-1227400D01*
X1549780D01*
G03X1535650Y-1233250I7J-20006D01*
G01X1535160Y-1233740D01*
G02X1521020Y-1239600I-14146J14143D01*
G01X1501200D01*
G03X1451200Y-1289600I0J-50000D01*
G01Y-1357390D01*
G03X1465850Y-1392750I49997J-1D01*
G01X1469340Y-1396240D01*
G03X1483480Y-1402100I14144J14139D01*
G01X1650500D01*
Y-1427100D01*
X1465000D01*
Y-1427000D01*
X1424110D01*
G02X1388760Y-1412360I2J50004D01*
G01X1193890Y-1217490D01*
G02X1164600Y-1146780I70709J70711D01*
G01Y-648800D01*
G37*
G36*
G01X1536880Y-6685300D02*
X1701620D01*
G02X1715760Y-6691160I-7J-20006D01*
G01X1721400Y-6696800D01*
X1791400D01*
Y-6796800D01*
X1721400D01*
Y-6765300D01*
G03X1701400Y-6745300I-20000J0D01*
G01X1556890D01*
G03X1542740Y-6751160I-7J-19998D01*
G01X1522700Y-6771200D01*
X1520500D01*
X1472700D01*
Y-6691200D01*
X1522700D01*
X1522740Y-6691160D01*
G02X1536880Y-6685300I14148J-14149D01*
G37*
G36*
G01X1497900Y-4247600D02*
X1542420D01*
G02X1556560Y-4253460I-6J-20005D01*
G01X1562670Y-4259570D01*
G03X1569740Y-4262500I7073J7072D01*
G01X1758450D01*
G03X1765530Y-4259570I10J9995D01*
G01X1770650Y-4254450D01*
G02X1784780Y-4248600I14136J-14154D01*
G01X1827500D01*
G03X1847500Y-4228600I0J20000D01*
G01Y-4147600D01*
G03X1827500Y-4127600I-20000J0D01*
G01X1783190D01*
G02X1769040Y-4121740I-8J19993D01*
G01X1765530Y-4118230D01*
G03X1758450Y-4115300I-7069J-7063D01*
G01X1569740D01*
G03X1562670Y-4118230I5J-10007D01*
G01X1560160Y-4120740D01*
G02X1546010Y-4126600I-14141J14132D01*
G01X1497900D01*
G03X1477900Y-4146600I0J-20000D01*
G01Y-4227600D01*
G03X1497900Y-4247600I20000J0D01*
G37*
G36*
G01X1580900Y-3738900D02*
X1746800D01*
G02X1756800Y-3748900I0J-10000D01*
G01Y-3787700D01*
G03X1766800Y-3797700I10000J0D01*
G01X1900900D01*
G02X1910900Y-3807700I0J-10000D01*
G01Y-3875300D01*
G02X1900900Y-3885300I-10000J0D01*
G01X1435100D01*
G02X1425100Y-3875300I0J10000D01*
G01Y-3792700D01*
G02X1435100Y-3782700I10000J0D01*
G01X1560900D01*
G03X1570900Y-3772700I0J10000D01*
G01Y-3748900D01*
G02X1580900Y-3738900I10000J0D01*
G37*
G36*
G01X1643500Y-2639600D02*
X1770000D01*
Y-2728100D01*
G02X1750000Y-2748100I-20000J0D01*
G01X1633500D01*
G02X1623500Y-2738100I0J10000D01*
G01Y-2659600D01*
G02X1643500Y-2639600I20000J0D01*
G37*
G36*
G01X1618500Y-2589600D02*
X1799660D01*
G02X1806730Y-2592530I-2J-10000D01*
G01X2053110Y-2838910D01*
G02X2082400Y-2909620I-70709J-70711D01*
G01Y-3358000D01*
X1882400D01*
Y-2967900D01*
G03X1782400Y-2867900I-100000J0D01*
G01X1687500D01*
Y-2787900D01*
X1784000D01*
G03X1804000Y-2767900I0J20000D01*
G01Y-2628750D01*
G03X1801070Y-2621670I-9995J10D01*
G01X1796930Y-2617530D01*
G03X1789860Y-2614600I-7073J-7072D01*
G01X1618500D01*
Y-2589600D01*
G37*
G36*
G01X1666000Y-2341960D02*
Y-2258200D01*
X1630400D01*
X1606000D01*
Y-2341960D01*
G03X1608930Y-2349030I10001J2D01*
G01X1620570Y-2360670D01*
G02X1623500Y-2367740I-7067J-7071D01*
G01Y-2442100D01*
X1629200D01*
X1648500D01*
Y-2367740D01*
G02X1651430Y-2360670I9997J-1D01*
G01X1663070Y-2349030D01*
G03X1666000Y-2341960I-7071J7072D01*
G37*
G36*
G01X2040360Y-2469000D02*
X2097200D01*
G02X2107200Y-2479000I0J-10000D01*
G01Y-2581700D01*
G02X2105200Y-2583700I-2000J0D01*
G01X1874740D01*
G02X1867670Y-2580770I3J10001D01*
G01X1854430Y-2567530D01*
G03X1847360Y-2564600I-7071J-7068D01*
G01X1618500D01*
Y-2539600D01*
X1938690D01*
G03X1974050Y-2524950I0J49998D01*
G01X2022680Y-2476320D01*
G02X2040360Y-2469000I17674J-17678D01*
G37*
G36*
G01X1747900Y-1912300D02*
Y-2129300D01*
Y-2193900D01*
X1518300D01*
Y-2129300D01*
Y-1807500D01*
X1747900D01*
Y-1912300D01*
G37*
G36*
G01X1600500Y-1747400D02*
X1625000D01*
X1660500D01*
Y-1664740D01*
G03X1657570Y-1657670I-10002J-3D01*
G01X1648430Y-1648530D01*
G02X1645500Y-1641460I7068J7071D01*
G01Y-1574600D01*
X1624600D01*
X1620500D01*
Y-1636460D01*
G02X1617570Y-1643530I-9999J2D01*
G01X1603430Y-1657670D01*
G03X1600500Y-1664740I7072J-7073D01*
G01Y-1747400D01*
G37*
G36*
G01X1499000Y-1377100D02*
Y-1304600D01*
G02X1519000Y-1284600I20000J0D01*
G01X1645500D01*
Y-1357100D01*
G02X1625500Y-1377100I-20000J0D01*
G01X1499000D01*
G37*
G36*
G01X1824800Y-1186600D02*
X1884800D01*
Y-1236600D01*
X1769000Y-1352400D01*
Y-1377100D01*
X1699000D01*
Y-1352100D01*
X1705160D01*
G03X1712230Y-1349170I-3J10002D01*
G01X1821870Y-1239530D01*
G03X1824800Y-1232460I-7071J7073D01*
G01Y-1186600D01*
G37*
G36*
G01X1701500Y-1107800D02*
X2103400D01*
G02X2113400Y-1117800I0J-10000D01*
G01Y-1162900D01*
X2013870D01*
G02X1999740Y-1157040I11J19993D01*
G01X1995960Y-1153260D01*
G03X1981820Y-1147400I-14143J-14138D01*
G01X1741500D01*
G03X1721500Y-1167400I0J-20000D01*
G01Y-1227400D01*
X1681500D01*
Y-1127800D01*
G02X1701500Y-1107800I20000J0D01*
G37*
G36*
G01X1668100Y-129000D02*
X1844600D01*
G02X1864600Y-149000I0J-20000D01*
G01Y-264900D01*
G03X1884600Y-284900I20000J0D01*
G01X2117700D01*
G02X2127700Y-294900I0J-10000D01*
G01Y-675100D01*
G02X2117700Y-685100I-10000J0D01*
G01X1893500D01*
G03X1873500Y-705100I0J-20000D01*
G01Y-724000D01*
Y-1048800D01*
X1673500D01*
Y-603900D01*
G02X1683500Y-593900I10000J0D01*
G01X1879460D01*
G03X1886530Y-590970I-3J10001D01*
G01X1904170Y-573330D01*
G02X1911240Y-570400I7072J-7069D01*
G01X2016700D01*
G03X2026700Y-560400I0J10000D01*
G01Y-368400D01*
G03X2016700Y-358400I-10000J0D01*
G01X1668100D01*
G02X1648100Y-338400I0J20000D01*
G01Y-149000D01*
G02X1668100Y-129000I20000J0D01*
G37*
G36*
G01X2046000Y-7600300D02*
X2066000D01*
Y-7724520D01*
G02X2060150Y-7738650I-20007J7D01*
G01X2051900Y-7746900D01*
Y-7796900D01*
X1991900D01*
Y-7746900D01*
X2040150Y-7698650D01*
G03X2046000Y-7684520I-14158J14138D01*
G01Y-7600300D01*
G37*
G36*
G01X1765300Y-7391700D02*
Y-7439400D01*
X1838010D01*
G03X1852160Y-7433540I7J19997D01*
G01X1854540Y-7431160D01*
G02X1868680Y-7425300I14145J-14141D01*
G01X1971000D01*
Y-7412200D01*
Y-7405300D01*
X1870490D01*
G02X1856340Y-7399440I-8J19994D01*
G01X1852150Y-7395250D01*
G03X1838020Y-7389400I-14137J-14158D01*
G01X1765300D01*
Y-7391700D01*
G37*
G36*
G01X1761500Y-6899900D02*
X1822110D01*
G02X1836260Y-6905760I6J-19999D01*
G01X1935800Y-7005300D01*
X1971000D01*
Y-7025300D01*
X1891000D01*
X1831460Y-6965760D01*
G03X1817320Y-6959900I-14145J-14141D01*
G01X1761500D01*
Y-6899900D01*
G37*
G36*
G01X2050600Y-6833100D02*
Y-6782200D01*
X2015000D01*
X2000600D01*
Y-6842200D01*
X1998930Y-6843870D01*
G03X1996000Y-6850940I7070J-7072D01*
G01Y-6900300D01*
Y-6980300D01*
X2016000D01*
Y-6900300D01*
Y-6885090D01*
G02X2021860Y-6870940I19995J8D01*
G01X2050600Y-6842200D01*
Y-6833100D01*
G37*
G36*
G01X2398500Y-2958000D02*
X2598500D01*
Y-3330400D01*
G03X2698500Y-3430400I100000J0D01*
G01X2741100D01*
G02X2761100Y-3450400I0J-20000D01*
G01Y-3654400D01*
G02X2741100Y-3674400I-20000J0D01*
G01X2553700D01*
G03X2543700Y-3684400I0J-10000D01*
G01Y-3702700D01*
G02X2533700Y-3712700I-10000J0D01*
G01X2438900D01*
G02X2428900Y-3702700I0J10000D01*
G01Y-3635200D01*
G02X2448900Y-3615200I20000J0D01*
G01X2551300D01*
G03X2571300Y-3595200I0J20000D01*
G01Y-3478270D01*
G03X2565440Y-3464140I-19995J-12D01*
G01X2553550Y-3452250D01*
G03X2539420Y-3446400I-14135J-14153D01*
G01X2429680D01*
G03X2415540Y-3452260I5J-20001D01*
G01X2358200Y-3509600D01*
X2202600D01*
G02X2182600Y-3489600I0J20000D01*
G01Y-3314500D01*
G02X2202600Y-3294500I20000J0D01*
G01X2378500D01*
G03X2398500Y-3274500I0J20000D01*
G01Y-2958000D01*
G37*
G36*
G01X2572000Y-2787900D02*
X2612000D01*
Y-2867900D01*
X2190100D01*
G02X2180100Y-2857900I0J10000D01*
G01Y-2817900D01*
X2260100D01*
G03X2270100Y-2827900I10000J0D01*
G01X2527860D01*
G03X2534930Y-2824970I-3J10002D01*
G01X2572000Y-2787900D01*
G37*
G36*
G01X2278800Y-1807500D02*
Y-1907400D01*
Y-2075200D01*
Y-2194900D01*
X2017900D01*
Y-2075200D01*
Y-1907400D01*
Y-1807500D01*
X2278800D01*
G37*
G36*
G01X2183800Y-1435600D02*
X2358860D01*
G02X2365930Y-1438530I-3J-10003D01*
G01X2376570Y-1449170D01*
G03X2383640Y-1452100I7072J7069D01*
G01X2679000D01*
Y-1477100D01*
X2295840D01*
G03X2288770Y-1480030I2J-9999D01*
G01X2255130Y-1513670D01*
G03X2252200Y-1520740I7070J-7072D01*
G01Y-1531400D01*
G02X2242200Y-1541400I-10000J0D01*
G01X2183800D01*
G02X2173800Y-1531400I0J10000D01*
G01Y-1445600D01*
G02X2183800Y-1435600I10000J0D01*
G37*
G36*
G01X2196000Y-648800D02*
X2396000D01*
Y-1050310D01*
G03X2493100Y-1126400I97099J23909D01*
G01X2540710D01*
G02X2554860Y-1132260I8J-19995D01*
G01X2564140Y-1141540D01*
G03X2578280Y-1147400I14146J14145D01*
G01X2610000D01*
Y-1227400D01*
X2578280D01*
G03X2564150Y-1233250I7J-20006D01*
G01X2563660Y-1233740D01*
G02X2549520Y-1239600I-14146J14143D01*
G01X2529700D01*
G03X2479700Y-1289600I0J-50000D01*
G01Y-1357390D01*
G03X2494350Y-1392750I49997J-1D01*
G01X2497840Y-1396240D01*
G03X2511980Y-1402100I14144J14139D01*
G01X2679000D01*
Y-1427100D01*
X2493500D01*
Y-1427000D01*
X2452610D01*
G02X2417260Y-1412360I2J50004D01*
G01X2222390Y-1217490D01*
G02X2196000Y-1170690I70708J70712D01*
G01Y-648800D01*
G37*
G36*
G01X2625600Y-6763900D02*
Y-6812410D01*
G02X2619740Y-6826560I-19998J-6D01*
G01X2551860Y-6894440D01*
G03X2546000Y-6908580I14141J-14145D01*
G01Y-6980300D01*
X2566000D01*
Y-6941780D01*
G02X2571860Y-6927640I20000J-4D01*
G01X2669740Y-6829760D01*
G03X2675600Y-6815620I-14141J14144D01*
G01Y-6763900D01*
X2625600D01*
G37*
G36*
G01X2591000Y-7025300D02*
X2711920D01*
G03X2726050Y-7019450I-6J20004D01*
G01X2730440Y-7015060D01*
G02X2744590Y-7009200I14143J-14136D01*
G01X2805300D01*
Y-6949200D01*
X2744590D01*
G03X2730440Y-6955060I-7J-19998D01*
G01X2686060Y-6999440D01*
G02X2671920Y-7005300I-14145J14142D01*
G01X2591000D01*
Y-7025300D01*
G37*
G36*
G01X2506800Y-4247600D02*
X2552520D01*
G02X2566660Y-4253460I-5J-20003D01*
G01X2572470Y-4259270D01*
G03X2579540Y-4262200I7072J7070D01*
G01X2764110D01*
G03X2778260Y-4256340I6J20000D01*
G01X2780140Y-4254460D01*
G02X2794280Y-4248600I14144J-14139D01*
G01X2839600D01*
G03X2859600Y-4228600I0J20000D01*
G01Y-4137600D01*
G03X2849600Y-4127600I-10000J0D01*
G01X2792990D01*
G02X2778840Y-4121740I-11J19986D01*
G01X2778260Y-4121160D01*
G03X2764110Y-4115300I-14142J-14133D01*
G01X2579540D01*
G03X2572470Y-4118230I5J-10007D01*
G01X2569960Y-4120740D01*
G02X2555810Y-4126600I-14141J14132D01*
G01X2506800D01*
G03X2486800Y-4146600I0J-20000D01*
G01Y-4227600D01*
G03X2506800Y-4247600I20000J0D01*
G37*
G36*
G01X2588300Y-3738900D02*
X2754200D01*
G02X2764200Y-3748900I0J-10000D01*
G01Y-3787700D01*
G03X2774200Y-3797700I10000J0D01*
G01X2908300D01*
G02X2918300Y-3807700I0J-10000D01*
G01Y-3875300D01*
G02X2908300Y-3885300I-10000J0D01*
G01X2442500D01*
G02X2432500Y-3875300I0J10000D01*
G01Y-3792700D01*
G02X2442500Y-3782700I10000J0D01*
G01X2568300D01*
G03X2578300Y-3772700I0J10000D01*
G01Y-3748900D01*
G02X2588300Y-3738900I10000J0D01*
G37*
G36*
G01X2548800Y-1807500D02*
X2774900D01*
Y-2116200D01*
Y-2194900D01*
X2548800D01*
Y-1807500D01*
G37*
G36*
G01X2527500Y-1377100D02*
Y-1304600D01*
G02X2547500Y-1284600I20000J0D01*
G01X2674000D01*
Y-1357100D01*
G02X2654000Y-1377100I-20000J0D01*
G01X2527500D01*
G37*
G36*
G01X2642900Y-2589600D02*
X2807490D01*
G02X2842850Y-2604250I0J-49998D01*
G01X3077110Y-2838510D01*
G02X3106400Y-2909220I-70711J-70712D01*
G01Y-3358000D01*
X2906500D01*
Y-2966900D01*
Y-2958000D01*
X2831040Y-2882540D01*
G03X2795690Y-2867900I-35351J-35362D01*
G01X2712000D01*
Y-2787900D01*
X2773990D01*
G03X2809350Y-2773250I0J49999D01*
G01X2813750Y-2768850D01*
G03X2828400Y-2733490I-35348J35360D01*
G01Y-2669010D01*
G03Y-2668500I-49999J255D01*
G01Y-2628640D01*
G03X2825480Y-2621580I-10006J-4D01*
G01X2821430Y-2617530D01*
G03X2814360Y-2614600I-7071J-7068D01*
G01X2642900D01*
Y-2589600D01*
G37*
G36*
G01X2668000Y-2639600D02*
X2794500D01*
Y-2728100D01*
G02X2774500Y-2748100I-20000J0D01*
G01X2658000D01*
G02X2648000Y-2738100I0J10000D01*
G01Y-2659600D01*
G02X2668000Y-2639600I20000J0D01*
G37*
G36*
G01X3064860Y-2469000D02*
X3121700D01*
G02X3131700Y-2479000I0J-10000D01*
G01Y-2581700D01*
G02X3129700Y-2583700I-2000J0D01*
G01X2903240D01*
G02X2896170Y-2580770I3J10001D01*
G01X2882930Y-2567530D01*
G03X2875860Y-2564600I-7071J-7068D01*
G01X2643000D01*
Y-2539600D01*
X2963190D01*
G03X2998550Y-2524950I0J49998D01*
G01X3047180Y-2476320D01*
G02X3064860Y-2469000I17674J-17678D01*
G37*
G36*
G01X2648000Y-2442100D02*
X2656800D01*
X2673000D01*
Y-2367840D01*
G02X2675930Y-2360770I9997J-1D01*
G01X2687670Y-2349030D01*
G03X2690600Y-2341960I-7070J7072D01*
G01Y-2258200D01*
X2655600D01*
X2630600D01*
Y-2341960D01*
G03X2633530Y-2349030I9998J1D01*
G01X2645070Y-2360570D01*
G02X2648000Y-2367640I-7070J-7072D01*
G01Y-2442100D01*
G37*
G36*
G01X2628900Y-1747400D02*
X2656900D01*
X2688900D01*
Y-1664740D01*
G03X2685970Y-1657670I-9999J-2D01*
G01X2676930Y-1648630D01*
G02X2674000Y-1641560I7072J7073D01*
G01Y-1574600D01*
X2655200D01*
X2649000D01*
Y-1636360D01*
G02X2646070Y-1643430I-9999J2D01*
G01X2631830Y-1657670D01*
G03X2628900Y-1664740I7071J-7073D01*
G01Y-1747400D01*
G37*
G36*
G01X2853600Y-1186600D02*
X2913600D01*
Y-1236600D01*
X2797500Y-1352700D01*
Y-1377100D01*
X2727500D01*
Y-1352100D01*
X2733950D01*
G03X2741030Y-1349170I10J9995D01*
G01X2850670Y-1239530D01*
G03X2853600Y-1232460I-7071J7073D01*
G01Y-1186600D01*
G37*
G36*
G01X2730000Y-1107800D02*
X3132300D01*
G02X3142300Y-1117800I0J-10000D01*
G01Y-1162900D01*
X3042370D01*
G02X3028240Y-1157040I11J19993D01*
G01X3024460Y-1153260D01*
G03X3010320Y-1147400I-14143J-14138D01*
G01X2770000D01*
G03X2750000Y-1167400I0J-20000D01*
G01Y-1227400D01*
X2710000D01*
Y-1127800D01*
G02X2730000Y-1107800I20000J0D01*
G37*
G36*
G01X2724000Y-128900D02*
X2837000D01*
G02X2857000Y-148900I0J-20000D01*
G01Y-264900D01*
G03X2877000Y-284900I20000J0D01*
G01X3134700D01*
G02X3139700Y-289900I0J-5000D01*
G01Y-680100D01*
G02X3134700Y-685100I-5000J0D01*
G01X2973580D01*
G03X2959440Y-690960I5J-20001D01*
G01X2909860Y-740540D01*
G03X2904000Y-754680I14138J-14144D01*
G01Y-1048800D01*
X2704000D01*
Y-613900D01*
G02X2724000Y-593900I20000J0D01*
G01X2886060D01*
G03X2893130Y-590970I-3J10001D01*
G01X2910770Y-573330D01*
G02X2917840Y-570400I7072J-7069D01*
G01X3023300D01*
G03X3033300Y-560400I0J10000D01*
G01Y-368400D01*
G03X3023300Y-358400I-10000J0D01*
G01X2724000D01*
G02X2704000Y-338400I0J20000D01*
G01Y-148900D01*
G02X2724000Y-128900I20000J0D01*
G37*
G36*
G01X3358500Y-3738900D02*
X3524400D01*
G02X3534400Y-3748900I0J-10000D01*
G01Y-3787700D01*
G03X3544400Y-3797700I10000J0D01*
G01X3663900D01*
G02X3673900Y-3807700I0J-10000D01*
G01Y-3875300D01*
G02X3663900Y-3885300I-10000J0D01*
G01X3212700D01*
G02X3202700Y-3875300I0J10000D01*
G01Y-3792700D01*
G02X3212700Y-3782700I10000J0D01*
G01X3338500D01*
G03X3348500Y-3772700I0J10000D01*
G01Y-3748900D01*
G02X3358500Y-3738900I10000J0D01*
G37*
G36*
G01X3429300Y-2958000D02*
X3629300D01*
Y-3357900D01*
X3586060Y-3401140D01*
G02X3571920Y-3407000I-14145J14141D01*
G01X3358980D01*
G03X3344840Y-3412860I5J-20002D01*
G01X3307160Y-3450540D01*
G03X3301300Y-3464680I14141J-14145D01*
G01Y-3646700D01*
G03X3302300Y-3647700I1000J0D01*
G01X3308600D01*
G02X3318600Y-3657700I0J-10000D01*
G01Y-3702700D01*
G02X3308600Y-3712700I-10000J0D01*
G01X3212400D01*
G02X3202400Y-3702700I0J10000D01*
G01Y-3304500D01*
G02X3212400Y-3294500I10000J0D01*
G01X3399300D01*
G03X3429300Y-3264500I0J30000D01*
G01Y-2958000D01*
G37*
G36*
G01X3602900Y-2787900D02*
X3642900D01*
Y-2867900D01*
X3228700D01*
G02X3218700Y-2857900I0J10000D01*
G01Y-2817900D01*
X3298700D01*
G03X3308700Y-2827900I10000J0D01*
G01X3558760D01*
G03X3565830Y-2824970I-3J10002D01*
G01X3602900Y-2787900D01*
G37*
G36*
G01X3301200Y-1808500D02*
Y-1951400D01*
Y-2148200D01*
Y-2194900D01*
X3044900D01*
Y-2148200D01*
Y-1951400D01*
Y-1808500D01*
X3301200D01*
G37*
G36*
G01X3207100Y-1435600D02*
X3382160D01*
G02X3389230Y-1438530I-3J-10003D01*
G01X3399870Y-1449170D01*
G03X3406940Y-1452100I7072J7069D01*
G01X3702300D01*
Y-1477100D01*
X3319140D01*
G03X3312070Y-1480030I2J-9999D01*
G01X3278430Y-1513670D01*
G03X3275500Y-1520740I7070J-7072D01*
G01Y-1531400D01*
G02X3265500Y-1541400I-10000J0D01*
G01X3207100D01*
G02X3197100Y-1531400I0J10000D01*
G01Y-1445600D01*
G02X3207100Y-1435600I10000J0D01*
G37*
G36*
G01X3220700Y-648800D02*
X3420700D01*
Y-1055410D01*
G03X3516400Y-1126400I95704J29015D01*
G01X3564010D01*
G02X3578160Y-1132260I8J-19995D01*
G01X3587440Y-1141540D01*
G03X3601580Y-1147400I14146J14145D01*
G01X3633300D01*
Y-1227400D01*
X3601580D01*
G03X3587450Y-1233250I7J-20006D01*
G01X3586960Y-1233740D01*
G02X3572820Y-1239600I-14146J14143D01*
G01X3553000D01*
G03X3503000Y-1289600I0J-50000D01*
G01Y-1357390D01*
G03X3517650Y-1392750I49997J-1D01*
G01X3521140Y-1396240D01*
G03X3535280Y-1402100I14144J14139D01*
G01X3702300D01*
Y-1427100D01*
X3516800D01*
Y-1427000D01*
X3475910D01*
G02X3440560Y-1412360I2J50004D01*
G01X3245690Y-1217490D01*
G02X3220700Y-1175790I70708J70712D01*
G01Y-648800D01*
G37*
G36*
G01X3255200Y-129300D02*
X3375300D01*
G02X3395300Y-149300I0J-20000D01*
G01Y-264900D01*
G03X3415300Y-284900I20000J0D01*
G01X3662300D01*
G02X3664300Y-286900I0J-2000D01*
G01Y-435580D01*
G03X3693590Y-506290I100004J3D01*
G01X3743110Y-555810D01*
G03X3813830Y-585100I70709J70704D01*
G01X3980900D01*
X4174000D01*
G02X4184000Y-595100I0J-10000D01*
G01Y-684900D01*
G02X4174000Y-694900I-10000J0D01*
G01X4028700D01*
G03X3928700Y-794900I0J-100000D01*
G01Y-1048800D01*
X3728700D01*
Y-658800D01*
G03X3718700Y-648800I-10000J0D01*
G01X3701710D01*
G02X3666360Y-634160I4J50007D01*
G01X3646640Y-614440D01*
G03X3611290Y-599800I-35352J-35363D01*
G01X3573300D01*
G02X3523300Y-549800I0J50000D01*
G01Y-418500D01*
G03X3473300Y-368500I-50000J0D01*
G01X3431600D01*
G02X3421600Y-358500I0J10000D01*
G01Y-358400D01*
X3255200D01*
G02X3235200Y-338400I0J20000D01*
G01Y-149300D01*
G02X3255200Y-129300I20000J0D01*
G37*
G36*
G01X3608800Y-5420600D02*
X3643800D01*
Y-5521980D01*
G02X3629150Y-5557350I-49991J-13D01*
G01X3609140Y-5577360D01*
G02X3573800Y-5592000I-35355J35370D01*
G01X3571830D01*
G03X3570420Y-5592580I-1J-2001D01*
G01X3560000Y-5603000D01*
Y-5663000D01*
X3510000D01*
Y-5603000D01*
X3536650Y-5576350D01*
G02X3572020Y-5561700I35358J-35343D01*
G01X3575510D01*
G03X3589660Y-5555840I8J19994D01*
G01X3602940Y-5542560D01*
G03X3608800Y-5528420I-14139J14144D01*
G01Y-5420600D01*
G37*
G36*
G01X3532000Y-4241500D02*
Y-4135300D01*
G03X3512000Y-4115300I-20000J0D01*
G01X3343240D01*
G03X3336170Y-4118230I5J-10007D01*
G01X3333660Y-4120740D01*
G02X3319510Y-4126600I-14141J14132D01*
G01X3282600D01*
G03X3262600Y-4146600I0J-20000D01*
G01Y-4227600D01*
G03X3282600Y-4247600I20000J0D01*
G01X3316920D01*
G02X3331050Y-4253450I-6J-20004D01*
G01X3336170Y-4258570D01*
G03X3343250Y-4261500I7070J7065D01*
G01X3512000D01*
G03X3532000Y-4241500I0J20000D01*
G37*
G36*
G01X3564400Y-6338200D02*
Y-6515520D01*
G03X3570260Y-6529660I20000J4D01*
G01X3621900Y-6581300D01*
X3661900D01*
Y-6501300D01*
X3621900D01*
X3600260Y-6479660D01*
G02X3594400Y-6465520I14142J14145D01*
G01Y-6338200D01*
X3564400D01*
G37*
G36*
G01X3615000Y-5631500D02*
Y-5748620D01*
G02X3609140Y-5762760I-20001J5D01*
G01X3570260Y-5801640D01*
G03X3564400Y-5815780I14142J-14145D01*
G01Y-5940200D01*
X3594400D01*
Y-5830380D01*
G02X3600260Y-5816240I20001J-5D01*
G01X3685000Y-5731500D01*
Y-5631500D01*
X3615000D01*
G37*
G36*
G01X3775000D02*
X3845000D01*
Y-5679000D01*
G03X3865000Y-5699000I20000J0D01*
G01X3950000D01*
Y-5759000D01*
X3810780D01*
G02X3796640Y-5753140I5J20002D01*
G01X3775000Y-5731500D01*
Y-5631500D01*
G37*
G36*
G01X3859680Y-5288100D02*
X4001400D01*
Y-5348100D01*
X3854580D01*
G03X3840440Y-5353960I5J-20001D01*
G01X3779660Y-5414740D01*
G03X3773800Y-5428880I14139J-14144D01*
G01Y-5516470D01*
G03X3776740Y-5523540I9991J8D01*
G01X3777140Y-5523940D01*
G03X3791280Y-5529800I14143J14138D01*
G01X3868520D01*
G02X3882660Y-5535660I-4J-19999D01*
G01X3950000Y-5603000D01*
Y-5663000D01*
X3900000D01*
Y-5607140D01*
G03X3897070Y-5600070I-10001J-3D01*
G01X3870060Y-5573060D01*
G03X3855920Y-5567200I-14143J-14137D01*
G01X3779870D01*
G02X3765750Y-5561350I19J20012D01*
G01X3744650Y-5540250D01*
G02X3738800Y-5526130I14161J14139D01*
G01Y-5408980D01*
G02X3744660Y-5394840I20000J-4D01*
G01X3845540Y-5293960D01*
G02X3859680Y-5288100I14145J-14141D01*
G37*
G36*
G01X3846800Y-4890800D02*
X3746800D01*
Y-4956660D01*
G02X3743870Y-4963730I-9999J2D01*
G01X3741720Y-4965880D01*
G03X3738800Y-4972940I7088J-7065D01*
G01Y-5135360D01*
G03X3741730Y-5142430I10000J2D01*
G01X3851400Y-5252100D01*
X4001400D01*
Y-5192100D01*
X3839180D01*
G02X3825040Y-5186240I5J20001D01*
G01X3776730Y-5137930D01*
G02X3773800Y-5130860I7070J7072D01*
G01Y-5037940D01*
G02X3776730Y-5030870I10000J-2D01*
G01X3846800Y-4960800D01*
Y-4890800D01*
G37*
G36*
G01X4185000Y-4635000D02*
X4065000D01*
X3984240Y-4715760D01*
G02X3948890Y-4730400I-35350J35359D01*
G01X3847200D01*
X3746800D01*
Y-4730800D01*
Y-4800800D01*
X3846800D01*
X3862560Y-4785040D01*
G02X3897910Y-4770400I35352J-35363D01*
G01X4042120D01*
G02X4056260Y-4776260I-5J-20003D01*
G01X4065000Y-4785000D01*
X4185000D01*
Y-4635000D01*
G37*
G36*
G01X3675500Y-2589600D02*
X3848380D01*
G02X3869590Y-2598390I-6J-29999D01*
G01X4108010Y-2836810D01*
G02X4137300Y-2907520I-70711J-70712D01*
G01Y-3358000D01*
X3937300D01*
Y-2967900D01*
G03X3837300Y-2867900I-100000J0D01*
G01X3742900D01*
Y-2787900D01*
X3806590D01*
G03X3841950Y-2773250I0J49999D01*
G01X3846350Y-2768850D01*
G03X3861000Y-2733490I-35348J35360D01*
G01Y-2628750D01*
G03X3858070Y-2621670I-9995J10D01*
G01X3853930Y-2617530D01*
G03X3846860Y-2614600I-7073J-7072D01*
G01X3675500D01*
Y-2589600D01*
G37*
G36*
G01X3700500Y-2639600D02*
X3827000D01*
Y-2728100D01*
G02X3807000Y-2748100I-20000J0D01*
G01X3690500D01*
G02X3680500Y-2738100I0J10000D01*
G01Y-2659600D01*
G02X3700500Y-2639600I20000J0D01*
G37*
G36*
G01X4097350Y-2469000D02*
X4154200D01*
G02X4164200Y-2479000I0J-10000D01*
G01Y-2581700D01*
G02X4162200Y-2583700I-2000J0D01*
G01X3933440D01*
G02X3926370Y-2580770I3J10001D01*
G01X3913130Y-2567530D01*
G03X3906060Y-2564600I-7071J-7068D01*
G01X3675500D01*
Y-2539600D01*
X3995690D01*
G03X4031050Y-2524950I0J49998D01*
G01X4079680Y-2476320D01*
G02X4097350Y-2469000I17674J-17678D01*
G37*
G36*
G01X3723400Y-2341960D02*
Y-2258200D01*
X3684600D01*
X3663400D01*
Y-2341960D01*
G03X3666330Y-2349030I10002J3D01*
G01X3677570Y-2360270D01*
G02X3680500Y-2367340I-7069J-7072D01*
G01Y-2442100D01*
X3684000D01*
X3705500D01*
Y-2368140D01*
G02X3708430Y-2361070I9998J-1D01*
G01X3720470Y-2349030D01*
G03X3723400Y-2341960I-7071J7073D01*
G37*
G36*
G01X3799600Y-1807500D02*
Y-1975300D01*
Y-2118500D01*
Y-2194900D01*
X3571200D01*
Y-2118500D01*
Y-1975300D01*
Y-1807500D01*
X3799600D01*
G37*
G36*
G01X3651900Y-1747400D02*
X3681100D01*
X3711900D01*
Y-1664740D01*
G03X3708970Y-1657670I-10001J-3D01*
G01X3700230Y-1648930D01*
G02X3697300Y-1641850I7066J7070D01*
G01Y-1574600D01*
X3677900D01*
X3672300D01*
Y-1636060D01*
G02X3669370Y-1643130I-10000J2D01*
G01X3654830Y-1657670D01*
G03X3651900Y-1664740I7067J-7071D01*
G01Y-1747400D01*
G37*
G36*
G01X3550800Y-1377100D02*
Y-1304600D01*
G02X3570800Y-1284600I20000J0D01*
G01X3697300D01*
Y-1357100D01*
G02X3677300Y-1377100I-20000J0D01*
G01X3550800D01*
G37*
G36*
G01X3876500Y-1187900D02*
X3936500D01*
Y-1237900D01*
X3820800Y-1353600D01*
Y-1377100D01*
X3750800D01*
Y-1352100D01*
X3758160D01*
G03X3765230Y-1349170I-3J10001D01*
G01X3873570Y-1240830D01*
G03X3876500Y-1233760I-7071J7073D01*
G01Y-1187900D01*
G37*
G36*
G01X3753300Y-1107800D02*
X4158000D01*
G02X4168000Y-1117800I0J-10000D01*
G01Y-1162900D01*
X4065670D01*
G02X4051540Y-1157040I11J19993D01*
G01X4047760Y-1153260D01*
G03X4033620Y-1147400I-14143J-14138D01*
G01X3793300D01*
G03X3773300Y-1167400I0J-20000D01*
G01Y-1227400D01*
X3733300D01*
Y-1127800D01*
G02X3753300Y-1107800I20000J0D01*
G37*
G36*
G01X4149600Y-2194900D02*
X4069600D01*
Y-2150600D01*
Y-1930100D01*
Y-1808500D01*
X4149600D01*
Y-2194900D01*
G37*
G36*
G01X4686300Y-5982700D02*
Y-5945600D01*
Y-5932700D01*
X4746300D01*
X4747940Y-5931060D01*
G02X4762080Y-5925200I14144J-14139D01*
G01X4864900D01*
X4919900D01*
Y-5955200D01*
X4782080D01*
G03X4767940Y-5961060I5J-20002D01*
G01X4746300Y-5982700D01*
X4686300D01*
G37*
G36*
G01X4696000Y-2784000D02*
X4846100D01*
X4904140Y-2842040D01*
G03X4918280Y-2847900I14145J14141D01*
G01X5009900D01*
Y-2887900D01*
X4918180D01*
G02X4904040Y-2882040I5J20001D01*
G01X4848930Y-2826930D01*
G03X4841860Y-2824000I-7072J-7070D01*
G01X4696000D01*
Y-2784000D01*
G37*
G36*
G01Y-2724000D02*
X4864920D01*
G03X4879060Y-2718140I-4J20000D01*
G01X4926970Y-2670230D01*
G02X4934040Y-2667300I7072J-7071D01*
G01X5009900D01*
Y-2627300D01*
X4930080D01*
G03X4915940Y-2633160I5J-20002D01*
G01X4870960Y-2678140D01*
G02X4856810Y-2684000I-14144J14139D01*
G01X4696000D01*
Y-2724000D01*
G37*
G36*
G01X5001800Y-7464300D02*
X5041800D01*
Y-7572300D01*
X5057900Y-7588400D01*
X5108500D01*
Y-7818400D01*
X5008500D01*
Y-7588400D01*
X5001800Y-7581700D01*
Y-7544300D01*
Y-7464300D01*
G37*
G36*
G01X4827200Y-7464900D02*
X4867200D01*
Y-7561480D01*
X4874850Y-7579950D01*
X4883300Y-7588400D01*
X4910700D01*
X4939900D01*
Y-7818400D01*
X4839900D01*
Y-7588400D01*
Y-7585000D01*
X4827200Y-7572300D01*
Y-7464900D01*
G37*
G36*
G01X5132100Y-4332400D02*
X5172100D01*
Y-4412400D01*
X5085700D01*
G03X5065700Y-4432400I0J-20000D01*
G01Y-4610000D01*
X5035700D01*
Y-4424690D01*
G03X5029840Y-4410540I-19997J7D01*
G01X5019500Y-4400200D01*
Y-4347400D01*
X5108810D01*
G03X5122960Y-4341540I7J19997D01*
G01X5132100Y-4332400D01*
G37*
G36*
G01X5119600Y-2949400D02*
X5056690D01*
G03X5042540Y-2955260I-7J-19998D01*
G01X5015760Y-2982040D01*
G02X5001620Y-2987900I-14145J14143D01*
G01X4929900D01*
Y-3027900D01*
X5010270D01*
G03X5011690Y-3027310I2J2000D01*
G01X5063740Y-2975260D01*
G02X5077880Y-2969400I14145J-14143D01*
G01X5119600D01*
Y-2949400D01*
G37*
G36*
G01X4929900Y-2767300D02*
X5009900D01*
X5043840Y-2801240D01*
G02X5049700Y-2815380I-14143J-14145D01*
G01Y-2833030D01*
G03X5055550Y-2847150I20011J19D01*
G01X5057800Y-2849400D01*
X5119600D01*
Y-2869400D01*
X5058180D01*
G02X5044050Y-2863550I6J20004D01*
G01X5035760Y-2855260D01*
G02X5029900Y-2841120I14140J14144D01*
G01Y-2831580D01*
G03X5024040Y-2817440I-19999J-4D01*
G01X5019760Y-2813160D01*
G03X5005630Y-2807300I-14142J-14135D01*
G01X4929900D01*
Y-2767300D01*
G37*
G36*
G01X5176900Y-7588400D02*
Y-7818400D01*
X5276900D01*
Y-7588400D01*
X5176900D01*
G37*
G36*
G01X5347800D02*
Y-7818400D01*
X5447800D01*
Y-7588400D01*
X5347800D01*
G37*
G36*
G01X5519800D02*
Y-7818400D01*
X5619800D01*
Y-7588400D01*
X5519800D01*
G37*
G36*
G01X5692900D02*
Y-7818400D01*
X5792900D01*
Y-7588400D01*
X5692900D01*
G37*
G36*
G01X5420000Y-6260000D02*
X5660000D01*
Y-6340000D01*
X5658290Y-6341710D01*
G03X5658000Y-6342410I711J-705D01*
G01Y-6538000D01*
X5618000D01*
Y-6376400D01*
G03X5588000Y-6346400I-30000J0D01*
G01X5493000D01*
G03X5463000Y-6376400I0J-30000D01*
G01Y-6538000D01*
X5423000D01*
Y-6347130D01*
G03X5420070Y-6340070I-10011J-17D01*
G01X5420000Y-6340000D01*
Y-6260000D01*
G37*
G36*
G01X5608400Y-2378000D02*
X5512900D01*
Y-2398000D01*
X5608400D01*
Y-2378000D01*
G37*
G36*
G01X5436900Y-152100D02*
X5496800D01*
Y-257600D01*
X5543800Y-304600D01*
X5585200D01*
Y-354600D01*
X5505200D01*
X5436800Y-286200D01*
Y-152200D01*
X5436900Y-152100D01*
G37*
G36*
G01X5865200Y-7588400D02*
Y-7818400D01*
X5965200D01*
Y-7588400D01*
X5865200D01*
G37*
G36*
G01X6000000Y-6390000D02*
X6130000D01*
Y-6730000D01*
X6000000D01*
Y-6390000D01*
G37*
G36*
G01X6211400Y-7588400D02*
Y-7818400D01*
X6311400D01*
Y-7588400D01*
X6211400D01*
G37*
G36*
G01X6037300D02*
Y-7818400D01*
X6137300D01*
Y-7588400D01*
X6037300D01*
G37*
G36*
G01X6235300Y-6070200D02*
X6265300D01*
Y-6260410D01*
G02X6259440Y-6274560I-19999J-6D01*
G01X6259000Y-6275000D01*
Y-6325000D01*
X6199000D01*
Y-6275000D01*
X6229450Y-6244550D01*
G03X6235300Y-6230420I-14154J14136D01*
G01Y-6070200D01*
G37*
G36*
G01X6153300Y-4610000D02*
X6165700D01*
Y-4411600D01*
X6179900Y-4397400D01*
Y-4347400D01*
X6135600D01*
X6119900D01*
Y-4397400D01*
X6135700Y-4413200D01*
Y-4610000D01*
X6153300D01*
G37*
G36*
G01X6204000Y-3499000D02*
X6480000D01*
Y-3569000D01*
X6458280D01*
G03X6444140Y-3574860I5J-20001D01*
G01X6395890Y-3623110D01*
G02X6325180Y-3652400I-70710J70706D01*
G01X6203000D01*
Y-3554630D01*
G03X6202410Y-3553210I-2001J1D01*
G01X6202000Y-3552800D01*
Y-3501000D01*
G02X6204000Y-3499000I2000J0D01*
G37*
G36*
G01X6385000Y-7588400D02*
Y-7818400D01*
X6485000D01*
Y-7588400D01*
X6385000D01*
G37*
G36*
G01X6560300D02*
Y-7818400D01*
X6660300D01*
Y-7588400D01*
X6560300D01*
G37*
G36*
G01X6620000Y-6260000D02*
X6860000D01*
Y-6340000D01*
X6858290Y-6341710D01*
G03X6858000Y-6342410I711J-705D01*
G01Y-6538000D01*
X6818000D01*
Y-6378400D01*
G03X6788000Y-6348400I-30000J0D01*
G01X6693000D01*
G03X6663000Y-6378400I0J-30000D01*
G01Y-6538000D01*
X6623000D01*
Y-6343410D01*
G03X6622710Y-6342710I-1001J-5D01*
G01X6620000Y-6340000D01*
Y-6260000D01*
G37*
G36*
G01X6938000Y-6060000D02*
X6998000D01*
Y-6143320D01*
G02X6992140Y-6157460I-20000J4D01*
G01X6970060Y-6179540D01*
G02X6955920Y-6185400I-14145J14141D01*
G01X6630000D01*
Y-6109400D01*
X6730000D01*
X6760640Y-6140040D01*
G03X6774780Y-6145900I14145J14142D01*
G01X6918000D01*
G03X6938000Y-6125900I0J20000D01*
G01Y-6060000D01*
G37*
G36*
G01X6666000Y-4736900D02*
X6716000D01*
Y-4839320D01*
G03X6721860Y-4853460I20000J4D01*
G01X6733000Y-4864600D01*
Y-5013300D01*
X6673000D01*
Y-4971580D01*
G03X6667140Y-4957440I-20002J-5D01*
G01X6620860Y-4911160D01*
G03X6606720Y-4905300I-14144J-14140D01*
G01X6380100D01*
Y-4875300D01*
X6599310D01*
G03X6613460Y-4869440I6J19999D01*
G01X6660140Y-4822760D01*
G03X6666000Y-4808620I-14142J14145D01*
G01Y-4736900D01*
G37*
G36*
G01X6600000Y-3162000D02*
X6630000D01*
Y-3004980D01*
G02X6635860Y-2990840I20000J-4D01*
G01X6639700Y-2987000D01*
Y-2927000D01*
X6589700D01*
Y-2987000D01*
X6594140Y-2991440D01*
G02X6600000Y-3005590I-14130J-14140D01*
G01Y-3162000D01*
G37*
G36*
G01X6753000Y-6983000D02*
Y-7153190D01*
G03X6767640Y-7188540I49999J0D01*
G01X6784760Y-7205660D01*
G02X6799400Y-7241010I-35362J-35351D01*
G01Y-7503590D01*
G02X6784760Y-7538940I-50000J1D01*
G01X6735300Y-7588400D01*
Y-7818400D01*
X6835300D01*
Y-7213010D01*
G03X6820660Y-7177660I-50003J-2D01*
G01X6807640Y-7164640D01*
G02X6793000Y-7129290I35360J35351D01*
G01Y-6983000D01*
X6753000D01*
G37*
G36*
G01X6911900Y-7588400D02*
Y-7818400D01*
X7011900D01*
Y-7588400D01*
X6911900D01*
G37*
G36*
G01X6758000Y-3440000D02*
X6836990D01*
G02X6872340Y-3454640I-1J-50001D01*
G01X6903340Y-3485640D01*
G03X6917480Y-3491500I14144J14139D01*
G01X6969200D01*
Y-3541500D01*
X6907780D01*
G02X6893640Y-3535640I5J20001D01*
G01X6833860Y-3475860D01*
G03X6819710Y-3470000I-14144J-14139D01*
G01X6758000D01*
Y-3440000D01*
G37*
G36*
G01X7086500Y-7588400D02*
Y-7818400D01*
X7186500D01*
Y-7588400D01*
X7086500D01*
G37*
G36*
G01X7200000Y-6390000D02*
X7330000D01*
Y-6730000D01*
X7200000D01*
Y-6390000D01*
G37*
G36*
G01X7075000Y-6039000D02*
X7155000D01*
X7270350Y-6154350D01*
G03X7305710Y-6169000I35360J35348D01*
G01X7581000D01*
Y-6233910D01*
G03X7586860Y-6248060I19996J-8D01*
G01X7590340Y-6251540D01*
G03X7604490Y-6257400I14140J14129D01*
G01X7898690D01*
G03X7934040Y-6242760I-1J50001D01*
G01X8023760Y-6153040D01*
G02X8059110Y-6138400I35351J-35362D01*
G01X8135880D01*
G03X8171250Y-6123750I12J49993D01*
G01X8190000Y-6105000D01*
X8270000D01*
Y-6155000D01*
X8207920D01*
G03X8172550Y-6169650I-12J-49993D01*
G01X8167950Y-6174250D01*
G02X8132580Y-6188900I-35358J35344D01*
G01X8087910D01*
G03X8052550Y-6203550I1J-50000D01*
G01X7952750Y-6303350D01*
G02X7917380Y-6318000I-35356J35339D01*
G01X7492810D01*
G02X7457460Y-6303360I1J50001D01*
G01X7422450Y-6268350D01*
G03X7387090Y-6253700I-35360J-35349D01*
G01X7261110D01*
G02X7225760Y-6239060I1J50001D01*
G01X7075000Y-6088300D01*
Y-6039000D01*
G37*
G36*
G01X7261800Y-7588400D02*
Y-7818400D01*
X7361800D01*
Y-7588400D01*
X7261800D01*
G37*
G36*
G01X7436300D02*
Y-7818400D01*
X7536300D01*
Y-7588400D01*
X7436300D01*
G37*
G36*
G01X7400000Y-3162000D02*
X7430000D01*
Y-3016080D01*
G02X7435860Y-3001940I20000J-4D01*
G01X7467400Y-2970400D01*
Y-2910400D01*
X7417400D01*
Y-2962110D01*
G02X7411540Y-2976260I-19997J-7D01*
G01X7405860Y-2981940D01*
G03X7400000Y-2996090I14132J-14141D01*
G01Y-3162000D01*
G37*
G36*
G01X7788500Y-7588400D02*
Y-7818400D01*
X7888500D01*
Y-7588400D01*
X7788500D01*
G37*
G36*
G01X7612900D02*
Y-7818400D01*
X7712900D01*
Y-7588400D01*
X7612900D01*
G37*
G36*
G01X7558000Y-3440000D02*
X7647020D01*
G02X7661160Y-3445860I-5J-20002D01*
G01X7701240Y-3485940D01*
G03X7715380Y-3491800I14144J14140D01*
G01X7767100D01*
Y-3541800D01*
X7708080D01*
G02X7693940Y-3535940I5J20002D01*
G01X7633860Y-3475860D01*
G03X7619710Y-3470000I-14144J-14139D01*
G01X7558000D01*
Y-3440000D01*
G37*
G36*
G01X7720000Y-695000D02*
Y-546180D01*
G03X7714140Y-532040I-20005J-6D01*
G01X7705100Y-523000D01*
Y-463000D01*
X7755100D01*
Y-523000D01*
X7745860Y-532240D01*
G03X7740000Y-546380I14142J-14145D01*
G01Y-695000D01*
X7720000D01*
G37*
G36*
G01X7840000D02*
Y-549190D01*
G02X7845860Y-535040I19996J7D01*
G01X7857900Y-523000D01*
Y-463000D01*
X7807900D01*
Y-523000D01*
X7814140Y-529240D01*
G02X7820000Y-543390I-14137J-14143D01*
G01Y-695000D01*
X7840000D01*
G37*
G36*
G01X7962800Y-7588400D02*
Y-7818400D01*
X8062800D01*
Y-7588400D01*
X7962800D01*
G37*
G36*
G01X7970000Y-695000D02*
Y-592880D01*
G03X7964140Y-578740I-19999J-4D01*
G01X7908400Y-523000D01*
Y-463000D01*
X7958400D01*
Y-523000D01*
X7984140Y-548740D01*
G02X7990000Y-562880I-14141J-14145D01*
G01Y-695000D01*
X7970000D01*
G37*
G54D10*
X-162600Y-7680900D03*
X-172900Y-6684200D03*
X-184000Y-5381000D03*
X-172900Y-2574100D03*
X-168200Y-1357800D03*
X-174500Y-417900D03*
X402900Y-8161900D03*
X397300Y161800D03*
X1497500Y-8156300D03*
X1490300Y157000D03*
X2209600Y-6754400D03*
X2826000Y-8169000D03*
X2837700Y153800D03*
X3574400Y-4622700D03*
X4666200Y-6199600D03*
X4741100Y-629700D03*
X5749800Y-8180000D03*
X5541000Y-7285100D03*
X5778900Y164900D03*
X6928000Y-2885900D03*
X7092500Y-8161000D03*
X7311000Y-221100D03*
X7129500Y171200D03*
X7758200Y-6468900D03*
X8195100Y-8156300D03*
X8197300Y169600D03*
X8749500Y-7676100D03*
X8760500Y-6658100D03*
X8760600Y-5364400D03*
X8768500Y-2538400D03*
X8760600Y-1350600D03*
X8762200Y-409200D03*
G54D11*
X300000Y-7700000D03*
Y-4300000D03*
Y-3700000D03*
Y-300000D03*
X4000000Y-7700000D03*
Y-4300000D03*
Y-3700000D03*
Y-300000D03*
X4600000Y-7700000D03*
Y-4300000D03*
Y-3700000D03*
Y-300000D03*
X8300000Y-7700000D03*
Y-4300000D03*
Y-3700000D03*
Y-300000D03*
G54D20*
X189200Y-2118900D03*
Y-1882500D03*
X695100Y-3531500D03*
X539200Y-2118900D03*
X685200Y-2119900D03*
Y-1883500D03*
X539200Y-1882500D03*
X694200Y-464400D03*
X1045100Y-3531500D03*
X1035200Y-2119900D03*
Y-1883500D03*
X1044200Y-464400D03*
X1208300Y-2118900D03*
Y-1882500D03*
X1688900Y-3531500D03*
X1707900Y-2119900D03*
X1558300Y-2118900D03*
X1707900Y-1883500D03*
X1558300Y-1882500D03*
X1718100Y-464400D03*
X2038900Y-3531500D03*
X2057900Y-2119900D03*
X2238800Y-2118900D03*
X2057900Y-1883500D03*
X2238800Y-1882500D03*
X2068100Y-464400D03*
X2588800Y-2118900D03*
Y-1882500D03*
X2721100Y-3531500D03*
X2734900Y-2119900D03*
Y-1883500D03*
X2723300Y-464400D03*
X3071100Y-3531500D03*
X3261300D03*
X3084900Y-2119900D03*
X3261200Y-2118900D03*
Y-1882500D03*
X3084900Y-1883500D03*
X3073300Y-464400D03*
X3261600D03*
X3611300Y-3531500D03*
X3611200Y-2118900D03*
X3759600Y-2119900D03*
X3611200Y-1882500D03*
X3759600Y-1883500D03*
X3611600Y-464400D03*
X4109600Y-2119900D03*
Y-1883500D03*
G54D21*
X163400Y-1709600D03*
Y-1613600D03*
Y-1369600D03*
Y-1465600D03*
X252700Y-6287000D03*
Y-6383000D03*
X447200Y-6287000D03*
Y-6383000D03*
X349900Y-6287000D03*
Y-6383000D03*
X260900Y-1710600D03*
X359800Y-1709600D03*
X260900Y-1614600D03*
X359800Y-1613600D03*
X1048700Y-5394900D03*
X951800D03*
X1048700Y-5298900D03*
X951800D03*
X1062900Y-2649700D03*
X965400Y-2391500D03*
Y-2295500D03*
X1062900Y-2296500D03*
Y-2392500D03*
X870100Y-2296500D03*
Y-2392500D03*
X1062900Y-2553700D03*
X1228800Y-7252500D03*
X1326100D03*
X1228800Y-7156500D03*
X1326100D03*
X1281800Y-1710600D03*
X1182400Y-1709600D03*
X1382600D03*
X1281800Y-1614600D03*
X1182400Y-1613600D03*
X1382600D03*
X1182400Y-1369600D03*
Y-1465600D03*
X1484000Y-7732500D03*
Y-7636500D03*
X1641600Y-7251700D03*
Y-7155700D03*
X1647900Y-6715300D03*
Y-6811300D03*
X1786500Y-6929900D03*
Y-7025900D03*
X2025600Y-6812200D03*
Y-6716200D03*
X1981700Y-2391500D03*
Y-2295500D03*
X1884000Y-2296500D03*
Y-2392500D03*
X2080100Y-2649700D03*
Y-2296500D03*
Y-2392500D03*
Y-2553700D03*
X2311100Y-1710600D03*
X2212500Y-1709600D03*
X2311100Y-1614600D03*
X2212500Y-1613600D03*
Y-1369600D03*
Y-1465600D03*
X2650600Y-6793900D03*
Y-6697900D03*
X2410700Y-1709600D03*
Y-1613600D03*
X2780300Y-6979200D03*
Y-7075200D03*
X2899500Y-2296500D03*
Y-2392500D03*
X3025400Y-7605000D03*
Y-7815000D03*
Y-7719000D03*
Y-7509000D03*
X3099300Y-2649700D03*
X2999300Y-2391500D03*
Y-2295500D03*
X3099300Y-2296500D03*
Y-2392500D03*
Y-2553700D03*
X3234900Y-1709600D03*
Y-1613600D03*
Y-1369600D03*
Y-1465600D03*
X3535000Y-5729000D03*
Y-5633000D03*
X3336900Y-1710600D03*
X3438500Y-1709600D03*
X3336900Y-1614600D03*
X3438500Y-1613600D03*
X3876400Y-5222100D03*
Y-5318100D03*
X3925000Y-5729000D03*
Y-5633000D03*
X3976400Y-5222100D03*
Y-5318100D03*
X4134500Y-2649700D03*
X4035500Y-2391500D03*
Y-2295500D03*
X4134500Y-2296500D03*
Y-2392500D03*
X3937400Y-2296500D03*
Y-2392500D03*
X4134500Y-2553700D03*
X5006200Y-6349500D03*
Y-6445500D03*
X4966400Y-3391200D03*
Y-3487200D03*
X5064900Y-3486200D03*
Y-3390200D03*
X5428100Y-3523700D03*
Y-3619700D03*
X5331300Y-3618700D03*
Y-3522700D03*
X5207100Y-3400700D03*
Y-3304700D03*
X5331300Y-3305700D03*
Y-3401700D03*
X5428100Y-3305700D03*
Y-3401700D03*
X5402200Y-1450200D03*
Y-1354200D03*
X5189400Y-990600D03*
Y-894600D03*
X5527300Y-3618700D03*
Y-3522700D03*
X5623100Y-3618700D03*
Y-3522700D03*
Y-3400700D03*
Y-3304700D03*
X5527300Y-3305700D03*
Y-3401700D03*
X5718600Y-3305700D03*
Y-3401700D03*
X5599200Y-1450200D03*
Y-1354200D03*
X5500800Y-1450200D03*
Y-1354200D03*
X5457700Y-774200D03*
X5556900Y-775200D03*
X5457700Y-678200D03*
X5556900Y-679200D03*
X5924100Y-3523700D03*
Y-3619700D03*
X5910600Y-3305700D03*
Y-3401700D03*
X6010000Y-3400700D03*
Y-3304700D03*
X5815200Y-3305700D03*
Y-3401700D03*
X6518100Y-2956000D03*
X6373500D03*
X6614700Y-2957000D03*
X6518100Y-2860000D03*
X6373500D03*
X6614700Y-2861000D03*
X6712400Y-2957000D03*
Y-2861000D03*
X7251500Y-2940400D03*
X7154900D03*
X7251500Y-2844400D03*
X7154900D03*
X7346200Y-2939400D03*
X7542800Y-2940400D03*
X7442400D03*
X7346200Y-2843400D03*
X7542800Y-2844400D03*
X7442400D03*
X7525600Y-493000D03*
X7331300D03*
X7429400D03*
X7525600Y-397000D03*
Y-284500D03*
Y-188500D03*
X7331300Y-397000D03*
X7429400D03*
X7845000Y-7327000D03*
Y-7231000D03*
X7655000Y-7167000D03*
Y-7071000D03*
X7835400Y-2786900D03*
Y-2882900D03*
X7740100Y-2787700D03*
Y-2883700D03*
X7626200Y-493000D03*
X7730100D03*
X7832900D03*
Y-284500D03*
Y-188500D03*
X7626200Y-284500D03*
Y-188500D03*
Y-397000D03*
X7730100Y-284500D03*
Y-188500D03*
Y-397000D03*
X7832900D03*
X7933400Y-493000D03*
Y-284500D03*
Y-188500D03*
Y-397000D03*
G54D30*
X683300Y-4370000D03*
X803300D03*
X3533200Y-4352200D03*
X3855300Y-4653500D03*
X3735300D03*
X3653200Y-4352200D03*
X6000000Y-7215000D03*
X5880000D03*
X6589900Y-2632800D03*
X6486600D03*
X6366600D03*
X6928200Y-3617300D03*
Y-3224500D03*
X6709900Y-2632800D03*
X6933000D03*
X6813000D03*
X7210000Y-7215000D03*
X7090000D03*
X7048200Y-3617300D03*
Y-3224500D03*
X7157000Y-2632800D03*
X7037000D03*
X7726100Y-3620400D03*
X7846100D03*
X7726100Y-3224500D03*
X7846100D03*
X8440000Y-7135000D03*
X8320000D03*
G54D12*
X209070Y-5535830D03*
X488020Y-5256880D03*
G54D31*
X690200Y-3807700D03*
Y-3687700D03*
X1480400Y-3807700D03*
Y-3687700D03*
X2483700Y-3807700D03*
Y-3687700D03*
X3258500Y-3807700D03*
Y-3687700D03*
X3440000Y-6910000D03*
Y-6790000D03*
X3604100Y-4904800D03*
Y-4784800D03*
X5281900Y-1462200D03*
Y-1342200D03*
X5203300Y-786200D03*
Y-666200D03*
X5255200Y-518600D03*
Y-423600D03*
Y-328600D03*
X5545200Y-519600D03*
Y-329600D03*
X7115000Y-6064000D03*
Y-5874000D03*
X7405000Y-6065000D03*
Y-5875000D03*
Y-5970000D03*
X7795000Y-6064000D03*
Y-5874000D03*
X8085000Y-6065000D03*
Y-5875000D03*
Y-5970000D03*
X8230000Y-6130000D03*
X8430000D03*
G54D13*
X193500Y-5051700D03*
Y-5146200D03*
X170000Y-2283200D03*
X169000Y-2382600D03*
X170000Y-2480000D03*
X399000Y-5599100D03*
X303000D03*
X289500Y-5051700D03*
Y-5146200D03*
X390600Y-2768400D03*
X294600D03*
X392600Y-2283200D03*
X488600D03*
X266000D03*
X265000Y-2382600D03*
X266000Y-2480000D03*
X619500Y-7405600D03*
X523500D03*
X744500D03*
X670400Y-6384600D03*
X766400D03*
X765400Y-6256300D03*
X669400D03*
X746200Y-5563600D03*
Y-5657600D03*
X616800Y-2283200D03*
X712800D03*
X735300Y-1722400D03*
X609600D03*
X513600D03*
X840500Y-7405600D03*
X984500Y-6498400D03*
X888500D03*
X842200Y-5563600D03*
Y-5657600D03*
X919800Y-4370000D03*
X1015800D03*
X831300Y-1722400D03*
X1054800D03*
X958800D03*
X959800Y-1627800D03*
X1055800D03*
X1054800Y-1529200D03*
X958800D03*
X832600Y-1213500D03*
X928600D03*
X1282000Y-7830500D03*
X1378000D03*
X1376000Y-7630500D03*
X1280000D03*
X1282000Y-7730500D03*
X1378000D03*
X1282000Y-7530500D03*
X1378000D03*
X1413100Y-2768400D03*
X1317100D03*
X1191300Y-2480000D03*
X1287300D03*
X1286300Y-2382600D03*
X1190300D03*
X1402200Y-2283200D03*
X1191300D03*
X1287300D03*
X1586000Y-7840500D03*
X1490000D03*
X1602000Y-7730500D03*
X1698000D03*
X1602000Y-7630500D03*
X1698000D03*
X1492000Y-7530500D03*
X1588000D03*
X1699300Y-7414400D03*
X1498200Y-2283200D03*
X1636000D03*
X1732000D03*
X1630500Y-1722400D03*
X1534500D03*
X2021900Y-7771900D03*
X1795300Y-7414400D03*
X1855700Y-1722400D03*
X1759700D03*
X1981500D03*
X1981900Y-1529200D03*
X1982900Y-1627800D03*
X1854800Y-1211600D03*
X1950800D03*
X2117900Y-7771900D03*
X2338100Y-2768400D03*
X2219700Y-2480000D03*
X2315700D03*
X2314700Y-2382600D03*
X2218700D03*
X2219700Y-2283200D03*
X2315700D03*
X2077500Y-1722400D03*
X2077900Y-1529200D03*
X2078900Y-1627800D03*
X2526600Y-6690700D03*
X2430600D03*
X2526600Y-6788600D03*
X2430600D03*
X2434100Y-2768400D03*
X2440200Y-2283200D03*
X2536200D03*
X2660600D03*
X2658900Y-1722400D03*
X2562900D03*
X2823400Y-7563000D03*
X2919400D03*
X2823400Y-7763000D03*
X2919400D03*
X2917400Y-7663000D03*
X2821400D03*
X2824800Y-7446900D03*
X2920800D03*
X2904900Y-6973300D03*
X2905900Y-7069900D03*
X2904900Y-7171500D03*
X2905700Y-6747400D03*
X2756600Y-2283200D03*
X2881100Y-1722400D03*
X2785100D03*
X2883600Y-1211600D03*
X3231400Y-7393000D03*
X3000900Y-6973300D03*
X3001900Y-7069900D03*
X3211000Y-6925000D03*
X3000900Y-7171500D03*
X3001700Y-6747400D03*
X3241000Y-2382600D03*
X3242000Y-2480000D03*
Y-2283200D03*
X3103700Y-1722400D03*
X3007700D03*
X3103700Y-1529200D03*
X3007700D03*
X3008700Y-1627800D03*
X3104700D03*
X2979600Y-1211600D03*
X3327400Y-7393000D03*
X3307000Y-6925000D03*
X3433000Y-6680000D03*
X3529000D03*
X3545200Y-4455200D03*
X3471300Y-2768400D03*
X3375300D03*
X3337000Y-2382600D03*
X3338000Y-2480000D03*
X3464100Y-2283200D03*
X3560100D03*
X3338000D03*
X3877000Y-7295000D03*
X3781000D03*
X3753900Y-6680000D03*
X3657900D03*
X3869900D03*
X3843300Y-4550700D03*
X3747300D03*
X3641200Y-4455200D03*
X3693400Y-2283200D03*
X3789400D03*
X3808300Y-1722400D03*
X3681900D03*
X3585900D03*
X3965900Y-6680000D03*
X4129200Y-1722400D03*
X4033200D03*
X3904300D03*
X4129200Y-1529200D03*
X4033200D03*
X4034200Y-1627800D03*
X4130200D03*
X3906500Y-1212900D03*
X4002500D03*
X4642200Y-6789000D03*
X4738200D03*
X4620300Y-6060500D03*
X4716300D03*
X4620300Y-5854300D03*
X4716300D03*
X4620300Y-5957700D03*
X4716300D03*
X4620900Y-5544800D03*
X4716900D03*
X4620900Y-5140700D03*
X4716900D03*
X4620900Y-5234300D03*
X4716900D03*
X4620900Y-4831800D03*
X4716900D03*
X5053000Y-7215000D03*
X5034100Y-7392200D03*
X4916000Y-7393200D03*
X4820000D03*
X4953500Y-4372400D03*
X5049500D03*
X4969700Y-3590200D03*
X5065700D03*
X5047800Y-289300D03*
X4951800D03*
X4952800Y-393000D03*
X5048800D03*
X5149000Y-7215000D03*
X5130100Y-7392200D03*
X5309100Y-1667200D03*
X5405100D03*
X5404800Y-1570800D03*
X5308800D03*
X5711900Y-4372400D03*
X5726000Y-3516000D03*
X5617900Y-2216100D03*
X5521900D03*
X5515900Y-1973400D03*
X5611900D03*
X5515900Y-1666500D03*
X5611900D03*
X5515900Y-1777100D03*
X5611900D03*
X5515900Y-1570500D03*
X5611900D03*
X5466800Y-177100D03*
X5562800D03*
X6014800Y-4372400D03*
X5918800D03*
X5807900D03*
X5822000Y-3516000D03*
X5847100Y-2958700D03*
X5751100D03*
X6037100Y-2646800D03*
X5752100Y-2638400D03*
X5848100D03*
X5847100Y-2734500D03*
X5751100D03*
X5847100Y-2833400D03*
X5751100D03*
X6103000Y-7215000D03*
X6199000D03*
X6313000D03*
X6133000Y-6300000D03*
X6229000D03*
X6245900Y-4372400D03*
X6149900D03*
X6136000Y-3527800D03*
X6232000D03*
X6136000Y-3236700D03*
X6232000D03*
X6136000Y-3332000D03*
X6232000D03*
X6136000Y-3428700D03*
X6232000D03*
X6133100Y-2646800D03*
X6409000Y-7215000D03*
X6630500Y-5738600D03*
X6601900Y-2738000D03*
X6474600D03*
X6378600D03*
X6872000Y-6085000D03*
X6968000D03*
X6967000Y-5855000D03*
X6871000D03*
X6726500Y-5738600D03*
X6703000Y-4889600D03*
X6799000D03*
X6703000Y-4988300D03*
X6799000D03*
X6939200Y-3516500D03*
Y-3422300D03*
Y-3327300D03*
X6939400Y-3123300D03*
X6939200Y-3028800D03*
X6697900Y-2738000D03*
X6921000D03*
X6825000D03*
X7196500Y-7320700D03*
X7100500D03*
X7035200Y-3516500D03*
Y-3422300D03*
Y-3327300D03*
X7035400Y-3123300D03*
X7035200Y-3028800D03*
X7145000Y-2738000D03*
X7049000D03*
X7553000Y-6095000D03*
X7649000D03*
X7833100Y-3516800D03*
X7737100D03*
X7833100Y-3422300D03*
X7737100D03*
X7833100Y-3327300D03*
X7737100D03*
X7833100Y-3028800D03*
X7737100D03*
X7833100Y-3123100D03*
X7737100D03*
X8333000Y-7235000D03*
X8429000D03*
X8427000Y-7035000D03*
X8331000D03*
X8333000Y-6005000D03*
X8429000D03*
X8428000Y-5905000D03*
X8332000D03*
X8333000Y-5805000D03*
X8429000D03*
G54D40*
X2281000Y-7290300D03*
G54D22*
G01X866500Y-6384600D02*
X766400D01*
G01D02*
Y-6538700D01*
X803000Y-6575300D01*
X925200D01*
X966700Y-6616800D01*
Y-6719500D01*
G01X769700Y-6117300D02*
Y-6176360D01*
X765400Y-6180660D01*
Y-6256300D01*
G01X683700Y-5267900D02*
X752760D01*
X761760Y-5276900D01*
X836900D01*
G01X803300Y-4370000D02*
X919800D01*
G01X1224700Y-7676500D02*
X1221900D01*
G01X2917400Y-7663000D02*
X2972400D01*
X3025400Y-7610000D01*
G01X2919400Y-7763000D02*
X2924400D01*
X2976400Y-7815000D01*
X3025400D01*
G01X2919400Y-7563000D02*
X2924400D01*
X2978400Y-7509000D01*
X3025400D01*
G01X3170400Y-7658000D02*
X3081400D01*
X3025400Y-7714000D01*
G01D02*
Y-7610000D01*
G01X3179800Y-7070000D02*
X3049700D01*
X3049600Y-7069900D01*
X3001900D01*
G01X3307000Y-6925000D02*
Y-6977700D01*
X3321900Y-6992600D01*
Y-7118800D01*
X3275700Y-7165000D01*
X3179800D01*
G01X3459800Y-7260000D02*
X3600000D01*
G01D02*
Y-7130000D01*
X3540000Y-7070000D01*
X3459800D01*
G01X3600000Y-7260000D02*
X3635000Y-7295000D01*
X3781000D01*
G01X3753900Y-6680000D02*
X3869900D01*
G01X3916900Y-6863000D02*
Y-6770300D01*
X3869900Y-6723300D01*
Y-6680000D01*
G01X3657900D02*
Y-6727700D01*
X3726900Y-6796700D01*
Y-6863000D01*
G01X4668400Y-5640100D02*
X4638240D01*
X4620900Y-5622760D01*
Y-5544800D01*
G01X4668400Y-5044100D02*
X4650900D01*
X4620900Y-5074100D01*
Y-5140700D01*
G01X4668400Y-5329200D02*
X4650900D01*
X4620900Y-5299200D01*
Y-5234300D01*
G01X4665900Y-4736900D02*
X4650900D01*
X4620900Y-4766900D01*
Y-4831800D01*
G01X5034100Y-7392200D02*
Y-7430300D01*
X5021800Y-7442600D01*
Y-7504300D01*
G01X4820000Y-7393200D02*
Y-7425300D01*
X4847200Y-7452500D01*
Y-7504900D01*
G01X4997200Y-1221600D02*
X5099900D01*
X5113300Y-1235000D01*
X5189400D01*
G01X5069800Y-177100D02*
Y-240300D01*
G01X5047800Y-289300D02*
X5069800Y-267300D01*
Y-240300D01*
G01X5313000Y-7058000D02*
Y-7170700D01*
X5268700Y-7215000D01*
X5149000D01*
G01X5358300Y-1789700D02*
X5455600D01*
X5468200Y-1777100D01*
X5515900D01*
G01X5358300Y-1959700D02*
X5454500D01*
X5468200Y-1973400D01*
X5515900D01*
G01X5189400Y-1235000D02*
X5275700D01*
X5302800Y-1207900D01*
X5345500D01*
G01D02*
Y-1094000D01*
X5242100Y-990600D01*
X5189400D01*
G01X5521900Y-2216100D02*
Y-2168000D01*
X5502800Y-2148900D01*
Y-2098200D01*
G01X5611900Y-1570500D02*
Y-1666500D01*
G01X5535500Y-1207900D02*
Y-1265600D01*
X5557200Y-1287300D01*
X5586800D01*
X5599200Y-1299700D01*
Y-1354200D01*
G01X5536500Y-917900D02*
X5493800D01*
X5457700Y-881800D01*
Y-774200D01*
G01X5556900Y-679200D02*
Y-619300D01*
X5545200Y-607600D01*
Y-519600D01*
G01X6000000Y-7215000D02*
X6103000D01*
G01X5768000Y-7058000D02*
Y-7178000D01*
X5805000Y-7215000D01*
X5880000D01*
G01X5972000Y-2300000D02*
Y-2220000D01*
G01X6200300Y-6130200D02*
Y-6026600D01*
X6182500Y-6008800D01*
G01X6292000Y-1900000D02*
Y-1820000D01*
G01Y-1900000D02*
Y-1980000D01*
G01D02*
X6372000D01*
G01X6292000Y-1820000D02*
Y-1740000D01*
G01D02*
X6372000D01*
G01X6292000Y-1580000D02*
X6372000D01*
G01X6212000D02*
X6292000D01*
G01X6513000Y-7058000D02*
Y-7167000D01*
X6465000Y-7215000D01*
X6409000D01*
G01X6643000Y-7058000D02*
Y-6963940D01*
X6599060Y-6920000D01*
X6413000D01*
X6365000Y-6968000D01*
G01X6440100Y-5690300D02*
X6349600D01*
G01X6440100Y-5440300D02*
X6353500D01*
G01X6532000Y-1820000D02*
X6452000D01*
G01D02*
X6372000D01*
G01D02*
Y-1900000D01*
G01D02*
X6452000D01*
G01X6532000D02*
X6452000D01*
G01X6532000Y-1820000D02*
Y-1900000D01*
G01X6452000Y-1820000D02*
Y-1900000D01*
G01X6372000Y-1980000D02*
X6452000D01*
G01X6372000Y-1740000D02*
X6452000D01*
G01D02*
X6532000D01*
G01D02*
X6612000D01*
G01X6532000Y-1580000D02*
X6612000D01*
G01X6452000D02*
X6532000D01*
G01X6372000D02*
X6452000D01*
G01X6838000Y-7058000D02*
Y-6963940D01*
X6881940Y-6920000D01*
X7063000D01*
X7115000Y-6972000D01*
G01X6751000Y-5546000D02*
X6750600Y-5545600D01*
Y-5408200D01*
G01X6751000Y-5176000D02*
X6750600Y-5176400D01*
Y-5312200D01*
G01X7210000Y-7215000D02*
Y-7262450D01*
X7196500Y-7275950D01*
Y-7320700D01*
G01X6968000Y-7058000D02*
Y-7155700D01*
X7027300Y-7215000D01*
X7090000D01*
G01X7737100Y-3123100D02*
Y-3028800D01*
G01Y-3123100D02*
X7694900D01*
X7613000Y-3205000D01*
X7593000D01*
X145100Y-1518600D03*
X182100D03*
X304800Y-1458400D03*
X266700Y-1456800D03*
X224700Y-1459000D03*
X770700Y-5827300D03*
X616700Y-2697100D03*
X715700Y-2652100D03*
X685600Y-2727400D03*
X713000Y-2694400D03*
X515700Y-2552100D03*
X713200Y-1464600D03*
X519900Y-1324300D03*
X560100Y-1306900D03*
X513200Y-1364600D03*
X612200Y-1319600D03*
X960700Y-5827300D03*
X995200Y-2523200D03*
X995400Y-2562200D03*
X951200Y-2561100D03*
X907100Y-2561600D03*
X1028400Y-2486900D03*
X1066300Y-2486800D03*
X1232000Y-6388700D03*
Y-6488700D03*
X1332000Y-5088700D03*
X1232000D03*
Y-4988700D03*
X1332000D03*
X1232000Y-4788700D03*
Y-4888700D03*
X1332000D03*
Y-4788700D03*
X1232000Y-4488700D03*
Y-4388700D03*
X1332000D03*
X1402200Y-2283200D03*
X1327000Y-1457500D03*
X1285900Y-1455900D03*
X1242300Y-1460400D03*
X1202500Y-1516200D03*
X1166600Y-1517000D03*
X1532000Y-6488700D03*
X1632000Y-6388700D03*
X1532000Y-6188700D03*
Y-6088700D03*
X1432000D03*
X1532000Y-6288700D03*
X1632000Y-6188700D03*
X1532000Y-5688700D03*
X1632000Y-5788700D03*
X1432000Y-5688700D03*
X1532000Y-5788700D03*
Y-5488700D03*
Y-5388700D03*
X1432000D03*
Y-5488700D03*
X1532000Y-5188700D03*
X1432000D03*
X1532000Y-4788700D03*
Y-4988700D03*
X1632000Y-4788700D03*
X1432000Y-4988700D03*
Y-4788700D03*
X1632000Y-4888700D03*
Y-4688700D03*
Y-4588700D03*
X1636000Y-2697100D03*
X1699300Y-2723200D03*
X1535000Y-2552100D03*
X1543000Y-1325000D03*
X1581300Y-1306500D03*
X1534000Y-1364600D03*
X1633000Y-1319600D03*
X1931000Y-7565300D03*
X2006000Y-7640300D03*
X1931000Y-7415300D03*
Y-7365300D03*
Y-7265300D03*
Y-7515300D03*
Y-7465300D03*
X2006000Y-6940300D03*
X1931000Y-7015300D03*
Y-7065300D03*
Y-7115300D03*
Y-7165300D03*
Y-7215300D03*
X1832000Y-6388700D03*
Y-6488700D03*
X1732000Y-6188700D03*
X1932000D03*
X1732000Y-6288700D03*
X1932000D03*
X1732000Y-6088700D03*
X1832000Y-5988700D03*
X1732000D03*
X1932000Y-5688700D03*
X1732000Y-5388700D03*
X1932000D03*
X1832000D03*
X1932000Y-5288700D03*
X1732000Y-4788700D03*
X1832000Y-4688700D03*
Y-4588700D03*
X1735000Y-2652100D03*
X1731200Y-2696300D03*
X1926500Y-2562900D03*
X1970900Y-2563200D03*
X2017600Y-2523800D03*
X2016600Y-2563100D03*
X1734000Y-1464600D03*
X2106000Y-7640300D03*
X2156000D03*
X2256000Y-6940300D03*
X2206000D03*
X2156000D03*
X2106000D03*
X2056000D03*
X2306000D03*
X2132000Y-6488700D03*
Y-6388700D03*
X2332000D03*
Y-6488700D03*
X2232000D03*
Y-6388700D03*
X2132000Y-6188700D03*
X2232000Y-6288700D03*
X2132000Y-6088700D03*
Y-5988700D03*
Y-6288700D03*
X2232000Y-6188700D03*
Y-6088700D03*
X2032000Y-5688700D03*
X2332000D03*
X2232000D03*
X2132000D03*
X2332000Y-5588700D03*
X2232000D03*
X2132000D03*
X2332000Y-5488700D03*
X2232000D03*
X2132000D03*
X2332000Y-5388700D03*
X2232000D03*
X2132000D03*
X2032000Y-5488700D03*
Y-5588700D03*
Y-5388700D03*
Y-5088700D03*
X2232000D03*
X2332000Y-5288700D03*
X2232000D03*
X2132000D03*
X2032000D03*
Y-5188700D03*
X2132000D03*
Y-5088700D03*
X2232000Y-5188700D03*
X2332000D03*
Y-5088700D03*
Y-4788700D03*
X2132000Y-4988700D03*
X2232000D03*
X2032000D03*
X2332000Y-4888700D03*
X2232000Y-4788700D03*
Y-4888700D03*
X2032000Y-4588700D03*
X2232000Y-4688700D03*
X2032000D03*
X2232000Y-4588700D03*
X2132000D03*
X2232000Y-4388700D03*
X2047000Y-2486300D03*
X2084800Y-2486800D03*
X2080100Y-2553700D03*
X2230800Y-1521500D03*
X2193000Y-1522200D03*
X2314800Y-1456600D03*
X2274000Y-1461400D03*
X2631000Y-7565300D03*
X2556000Y-7640300D03*
X2631000Y-7465300D03*
Y-7415300D03*
Y-7315300D03*
Y-7265300D03*
Y-7515300D03*
Y-7365300D03*
Y-7015300D03*
X2556000Y-6940300D03*
X2631000Y-7065300D03*
Y-7215300D03*
Y-7165300D03*
Y-7115300D03*
X2506000Y-6940300D03*
X2456000D03*
X2406000D03*
X2356000D03*
X2430600Y-6690700D03*
Y-6788600D03*
X2526600Y-6690700D03*
Y-6788600D03*
X2632000Y-6388700D03*
Y-6488700D03*
X2532000Y-6388700D03*
Y-6488700D03*
X2432000Y-6388700D03*
Y-6488700D03*
Y-6188700D03*
X2632000D03*
X2432000Y-6288700D03*
X2632000D03*
Y-5988700D03*
X2532000Y-5788700D03*
X2632000Y-5688700D03*
X2532000D03*
X2432000D03*
X2632000Y-5788700D03*
X2432000Y-5588700D03*
Y-5488700D03*
Y-5388700D03*
X2632000Y-5488700D03*
X2532000Y-5388700D03*
Y-5488700D03*
X2632000Y-5388700D03*
X2532000Y-5588700D03*
X2632000D03*
X2432000Y-5088700D03*
Y-5288700D03*
X2632000D03*
X2432000Y-5188700D03*
X2532000D03*
Y-5288700D03*
Y-4788700D03*
Y-4688700D03*
X2559500Y-2552100D03*
X2354200Y-1457800D03*
X2609800Y-1307200D03*
X2570800Y-1325200D03*
X2562500Y-1364600D03*
X2904900Y-6973300D03*
X2932000Y-6388700D03*
Y-6488700D03*
X2832000Y-6388700D03*
Y-6488700D03*
X2732000Y-6388700D03*
Y-6488700D03*
X2932000Y-6188700D03*
Y-6088700D03*
X2832000Y-6188700D03*
Y-6088700D03*
Y-6288700D03*
X2732000Y-5988700D03*
X2832000D03*
X2932000Y-4788700D03*
X2832000D03*
X2932000Y-4888700D03*
Y-4688700D03*
X2732000D03*
Y-4588700D03*
X2932000D03*
X2717900Y-2723700D03*
X2749400Y-2693200D03*
X2660500Y-2697100D03*
X2759500Y-2652100D03*
X2762500Y-1464600D03*
X2661500Y-1319600D03*
X3232000Y-6388700D03*
X3132000D03*
Y-6488700D03*
X3032000Y-6388700D03*
Y-6488700D03*
X3232000D03*
X3132000Y-6288700D03*
X3232000Y-6088700D03*
X3132000Y-6188700D03*
X3232000D03*
Y-6288700D03*
X3032000Y-6188700D03*
Y-6088700D03*
X3232000Y-5988700D03*
X3132000Y-6088700D03*
X3032000Y-6288700D03*
Y-5688700D03*
X3132000D03*
X3032000Y-5388700D03*
Y-5488700D03*
X3132000Y-5388700D03*
Y-5488700D03*
X3232000Y-5188700D03*
Y-5088700D03*
X3132000Y-5188700D03*
Y-5088700D03*
X3232000Y-4988700D03*
Y-4888700D03*
X3032000Y-4788700D03*
Y-4988700D03*
X3132000Y-4788700D03*
Y-4988700D03*
Y-4688700D03*
Y-4588700D03*
X3111900Y-2487400D03*
X3073100Y-2487300D03*
X3036300Y-2564300D03*
X3038500Y-2523600D03*
X2994700Y-2561600D03*
X2950300Y-2562400D03*
X3254400Y-1521000D03*
X3217700Y-1518400D03*
X3332000Y-6388700D03*
Y-6488700D03*
Y-6088700D03*
Y-6188700D03*
Y-6288700D03*
Y-5988700D03*
Y-5688700D03*
Y-5888700D03*
Y-5788700D03*
Y-5088700D03*
Y-5188700D03*
Y-4888700D03*
Y-4788700D03*
Y-4988700D03*
Y-4488700D03*
Y-4688700D03*
Y-4588700D03*
Y-4388700D03*
X3374300Y-1456600D03*
X3333800Y-1456500D03*
X3294900Y-1461400D03*
X3833400Y-6388200D03*
X3769900D03*
X3833400Y-5890200D03*
X3769900D03*
X3642900D03*
X3691300Y-5470600D03*
Y-5085000D03*
X3749200Y-2724500D03*
X3780100Y-2692700D03*
X3693000Y-2697100D03*
X3792000Y-2652100D03*
X3592000Y-2552100D03*
X3785800Y-1464600D03*
X3638000Y-1306400D03*
X3596000Y-1322000D03*
X3585800Y-1364600D03*
X3684800Y-1319600D03*
X3960400Y-6388200D03*
X3896900D03*
Y-5890200D03*
X3960400D03*
X4142400Y-2486500D03*
X4107800Y-2486300D03*
X4072800Y-2565300D03*
X4073000Y-2527400D03*
X4030500Y-2559300D03*
X3986300Y-2564200D03*
X5050300Y-6130200D03*
X5100300D03*
X4859900Y-5740200D03*
X4878300Y-5940200D03*
X4968860Y-5839430D03*
X4859900Y-5690200D03*
Y-5490200D03*
Y-5390200D03*
Y-5640200D03*
Y-5590200D03*
Y-5440200D03*
Y-5540200D03*
Y-5340200D03*
Y-5190200D03*
Y-5140200D03*
Y-4990200D03*
Y-4940200D03*
X4877000Y-4890200D03*
X4882100Y-4790200D03*
X4833200Y-4840200D03*
X4834800Y-4740200D03*
X5050700Y-4659300D03*
X5100700Y-4550000D03*
X5094600Y-3009400D03*
Y-2709400D03*
Y-2759400D03*
X4997200Y-1821600D03*
Y-1721600D03*
Y-1421600D03*
Y-1321600D03*
X5000800Y-513300D03*
X5050800Y-661300D03*
X4950800Y-513300D03*
X5377900Y-7003000D03*
X5378000Y-7109900D03*
X5250300Y-6130200D03*
X5350300D03*
X5200300D03*
X5150300D03*
X5300300D03*
X5400300D03*
X5400700Y-4550000D03*
X5200700D03*
X5250700D03*
X5150700D03*
X5350700D03*
X5207100Y-3400700D03*
X5226600Y-3084400D03*
X5276600D03*
X5326600Y-2581400D03*
X5404800Y-1570800D03*
X5508100Y-7009000D03*
X5507600Y-7111600D03*
X5573000Y-7012000D03*
X5572800Y-7106700D03*
X5702700Y-7007700D03*
X5703000Y-7107600D03*
X5550300Y-6130200D03*
X5650300D03*
X5500300D03*
X5450300D03*
X5600300D03*
X5700300D03*
X5450700Y-4550000D03*
X5550700D03*
X5623100Y-3304700D03*
X5610600Y-2909400D03*
X5476600Y-3084400D03*
X5610600Y-2959400D03*
X5526600Y-3084400D03*
X5610600Y-2709400D03*
Y-2859400D03*
Y-2809400D03*
Y-2759400D03*
X5527900Y-2458000D03*
X5593400D03*
Y-2388000D03*
X5527900D03*
X5617900Y-2216100D03*
X5627800Y-2098200D03*
X5419800Y-2097800D03*
X5990400Y-6333400D03*
X5900300Y-6130200D03*
X5800300D03*
X6000300D03*
X5750300D03*
X5950300D03*
X5800700Y-4550000D03*
X5900700D03*
X5850700D03*
X5750700D03*
X5950700D03*
X6000700D03*
X5844400Y-3616100D03*
X5910600Y-3305700D03*
X6010000Y-3400700D03*
X5961800Y-2638600D03*
X5812000Y-2300000D03*
X5892000D03*
Y-2380000D03*
Y-2460000D03*
X5972000D03*
Y-2380000D03*
X5812000Y-2460000D03*
X5972000Y-2300000D03*
X5892000Y-2060000D03*
Y-2140000D03*
X5812000D03*
X5972000Y-2060000D03*
X5892000Y-2220000D03*
X5812000D03*
Y-2060000D03*
X5972000Y-2220000D03*
X5892000Y-1900000D03*
X5972000Y-1740000D03*
X5892000Y-1980000D03*
X5812000D03*
Y-1740000D03*
X5972000Y-1980000D03*
X5812000Y-1900000D03*
X5892000Y-1740000D03*
Y-1820000D03*
Y-1580000D03*
X5812000Y-1660000D03*
Y-1580000D03*
Y-1500000D03*
Y-1420000D03*
X5972000D03*
Y-1660000D03*
Y-1500000D03*
X5892000Y-1420000D03*
Y-1500000D03*
Y-1660000D03*
X5972000Y-1260000D03*
X5812000D03*
X5972000Y-1180000D03*
X5812000Y-1340000D03*
X5892000Y-1260000D03*
X5972000Y-1340000D03*
X5812000Y-1180000D03*
X5892000D03*
Y-1340000D03*
X6010000Y-860000D03*
X5850000D03*
X5930000Y-780000D03*
X6010000D03*
X5930000Y-860000D03*
X5850000Y-780000D03*
Y-700000D03*
X6010000D03*
X5930000D03*
Y-300000D03*
X6010000D03*
X5850000D03*
X6010000Y-220000D03*
X5930000Y-380000D03*
X5850000D03*
Y-220000D03*
X5930000D03*
X6010000Y-380000D03*
X6063500Y-6354800D03*
X6150300Y-6130200D03*
X6250300D03*
X6050300D03*
X6100300D03*
X6250700Y-4550000D03*
X6200700D03*
X6050700D03*
X6100700D03*
X6037100Y-2646800D03*
X6212000Y-2300000D03*
X6132000Y-2460000D03*
X6212000Y-2380000D03*
X6292000Y-2300000D03*
X6052000D03*
X6292000Y-2460000D03*
Y-2380000D03*
X6132000D03*
Y-2300000D03*
Y-2140000D03*
X6052000Y-2220000D03*
X6212000Y-2140000D03*
X6292000D03*
X6052000D03*
Y-2060000D03*
X6132000D03*
X6292000D03*
X6212000D03*
X6132000Y-2220000D03*
X6212000D03*
X6292000D03*
X6132000Y-1980000D03*
X6052000Y-1820000D03*
X6132000D03*
Y-1900000D03*
Y-1740000D03*
X6212000Y-1980000D03*
Y-1900000D03*
Y-1820000D03*
Y-1740000D03*
X6292000Y-1980000D03*
Y-1820000D03*
Y-1740000D03*
X6052000D03*
X6212000Y-1420000D03*
X6052000Y-1660000D03*
X6292000Y-1500000D03*
X6212000D03*
X6292000Y-1580000D03*
X6212000D03*
X6052000Y-1420000D03*
Y-1500000D03*
X6132000D03*
X6292000Y-1660000D03*
X6212000D03*
X6132000D03*
Y-1420000D03*
X6052000Y-1580000D03*
X6132000D03*
X6292000Y-1420000D03*
Y-1180000D03*
X6132000Y-1260000D03*
X6052000Y-1180000D03*
X6212000D03*
X6052000Y-1260000D03*
X6132000Y-1340000D03*
X6292000D03*
X6212000Y-1260000D03*
X6292000D03*
X6212000Y-1340000D03*
X6052000D03*
X6132000Y-1180000D03*
X6250000Y-780000D03*
Y-860000D03*
X6090000Y-780000D03*
X6330000Y-860000D03*
X6170000D03*
X6090000D03*
X6170000Y-780000D03*
X6330000D03*
Y-700000D03*
X6090000D03*
X6170000D03*
X6250000D03*
X6090000Y-380000D03*
X6250000Y-300000D03*
Y-380000D03*
X6330000D03*
X6090000Y-220000D03*
X6170000D03*
X6330000Y-300000D03*
X6170000D03*
X6090000D03*
X6330000Y-220000D03*
X6250000D03*
X6170000Y-380000D03*
X6577600Y-7004100D03*
X6577700Y-7111200D03*
X6578000Y-6463000D03*
X6513000D03*
X6440100Y-5690300D03*
Y-5940300D03*
Y-5890300D03*
Y-5740300D03*
X6441000Y-5789900D03*
X6440100Y-5840200D03*
Y-5640300D03*
Y-5490300D03*
Y-5590300D03*
Y-5540300D03*
Y-5090300D03*
Y-5140300D03*
Y-5190300D03*
Y-5240300D03*
Y-5290300D03*
Y-4840300D03*
Y-5040300D03*
Y-4990300D03*
Y-4940300D03*
Y-4790300D03*
Y-4740300D03*
X6389000Y-3455000D03*
Y-3405000D03*
Y-3355000D03*
X6515000Y-3127000D03*
X6615000D03*
X6389000Y-3205000D03*
X6465000Y-3127000D03*
X6518100Y-2860000D03*
X6589900Y-2632800D03*
X6366600D03*
X6612000Y-2380000D03*
Y-2460000D03*
X6452000Y-2300000D03*
X6612000D03*
X6532000Y-2380000D03*
Y-2460000D03*
X6372000Y-2380000D03*
Y-2460000D03*
X6452000Y-2380000D03*
Y-2460000D03*
Y-2140000D03*
X6372000D03*
X6452000Y-2220000D03*
X6612000Y-2140000D03*
X6532000D03*
Y-2220000D03*
X6612000Y-2060000D03*
X6532000D03*
X6452000D03*
X6372000D03*
Y-2220000D03*
X6532000Y-1980000D03*
X6612000Y-1900000D03*
Y-1820000D03*
Y-1980000D03*
X6372000Y-1820000D03*
Y-1900000D03*
X6452000D03*
Y-1820000D03*
X6532000Y-1900000D03*
Y-1820000D03*
X6452000Y-1980000D03*
X6372000D03*
Y-1740000D03*
X6532000D03*
X6452000D03*
X6612000D03*
X6372000Y-1420000D03*
X6452000D03*
X6532000Y-1580000D03*
X6452000D03*
X6612000D03*
X6372000D03*
X6532000Y-1500000D03*
X6452000D03*
X6612000Y-1660000D03*
X6532000D03*
X6452000D03*
X6372000D03*
X6612000Y-1500000D03*
Y-1420000D03*
X6372000Y-1500000D03*
X6532000Y-1420000D03*
X6372000Y-1340000D03*
X6532000Y-1260000D03*
X6452000D03*
X6612000Y-1340000D03*
X6452000D03*
X6372000Y-1260000D03*
X6612000Y-1180000D03*
X6532000Y-1340000D03*
X6612000Y-1260000D03*
X6532000Y-1180000D03*
X6452000D03*
X6372000D03*
X6410000Y-780000D03*
X6570000D03*
X6410000Y-860000D03*
X6490000Y-780000D03*
Y-860000D03*
X6570000D03*
X6490000Y-700000D03*
X6570000D03*
X6490000Y-380000D03*
X6570000Y-300000D03*
X6410000Y-220000D03*
Y-380000D03*
X6570000D03*
X6490000Y-300000D03*
Y-220000D03*
X6410000Y-300000D03*
X6570000Y-220000D03*
X6707400Y-7008800D03*
X6707500Y-7108200D03*
X6902700Y-7009400D03*
X6903200Y-7107700D03*
X6903000Y-6463000D03*
X6715000Y-3534000D03*
X6793000Y-3255000D03*
X6715000Y-3127000D03*
X6665000D03*
X6813000Y-2632800D03*
X6852000Y-2300000D03*
Y-2460000D03*
X6772000Y-2300000D03*
X6852000Y-2380000D03*
X6692000D03*
X6772000Y-2460000D03*
X6932000Y-2300000D03*
X6692000Y-2460000D03*
X6932000Y-2380000D03*
X6692000Y-2300000D03*
X6932000Y-2460000D03*
X6772000Y-2380000D03*
X6932000Y-2060000D03*
X6772000Y-2220000D03*
Y-2140000D03*
X6932000D03*
X6692000Y-2060000D03*
X6852000Y-2140000D03*
X6692000D03*
X6852000Y-2220000D03*
Y-2060000D03*
X6932000Y-2220000D03*
X6772000Y-2060000D03*
X6932000Y-1900000D03*
X6852000Y-1740000D03*
X6932000D03*
X6772000Y-1900000D03*
X6932000Y-1980000D03*
X6692000Y-1900000D03*
Y-1820000D03*
X6772000Y-1980000D03*
X6692000D03*
X6772000Y-1740000D03*
X6692000D03*
X6852000Y-1980000D03*
Y-1900000D03*
X6932000Y-1420000D03*
X6772000Y-1580000D03*
X6692000Y-1420000D03*
X6852000Y-1500000D03*
X6932000D03*
X6852000Y-1660000D03*
X6932000Y-1580000D03*
X6692000D03*
X6932000Y-1660000D03*
X6692000D03*
X6852000Y-1580000D03*
X6772000Y-1660000D03*
X6932000Y-1340000D03*
Y-1260000D03*
Y-1180000D03*
X6692000D03*
X6890000Y-780000D03*
X6650000D03*
X6810000Y-860000D03*
X6730000Y-780000D03*
X6650000Y-860000D03*
X6890000D03*
X6730000D03*
X6810000Y-780000D03*
Y-700000D03*
X6730000D03*
X6650000D03*
X6890000D03*
X6650000Y-380000D03*
X6890000Y-300000D03*
Y-380000D03*
X6810000Y-220000D03*
X6730000Y-300000D03*
X6890000Y-220000D03*
X6730000D03*
X6650000D03*
X6810000Y-300000D03*
X6730000Y-380000D03*
X6810000D03*
X7189000Y-3455000D03*
Y-3305000D03*
Y-3255000D03*
Y-3405000D03*
Y-3355000D03*
Y-3205000D03*
X7037000Y-2632800D03*
X7092000Y-2380000D03*
Y-2300000D03*
X7012000Y-2380000D03*
Y-2300000D03*
Y-2460000D03*
X7092000D03*
Y-2060000D03*
X7012000Y-2140000D03*
Y-2220000D03*
Y-2060000D03*
X7092000Y-2220000D03*
Y-2140000D03*
X7012000Y-1820000D03*
X7092000Y-1980000D03*
Y-1820000D03*
Y-1900000D03*
X7012000Y-1980000D03*
Y-1900000D03*
X7139700Y-1500000D03*
X7012000Y-1420000D03*
X7092000Y-1660000D03*
X7012000D03*
Y-1580000D03*
X7092000Y-1420000D03*
Y-1580000D03*
X7012000Y-1180000D03*
X7092000Y-1260000D03*
X7012000D03*
Y-1340000D03*
X7092000D03*
Y-1180000D03*
X6970000Y-860000D03*
X7050000D03*
Y-780000D03*
X6970000D03*
Y-700000D03*
X7050000D03*
X6970000Y-380000D03*
X7050000Y-300000D03*
X6970000Y-220000D03*
X7050000D03*
Y-380000D03*
X6970000Y-300000D03*
X7265000Y-3534000D03*
X7515000D03*
X7415000Y-3127000D03*
X7465000D03*
X7515000D03*
X7265000D03*
X7315000D03*
X7480000Y-655000D03*
X7280000D03*
X7331300Y-493000D03*
X7525600D03*
X7530000Y-655000D03*
X7429400Y-493000D03*
X7815950Y-6721310D03*
X7780600Y-6756660D03*
X7745240Y-6792020D03*
X7851310Y-6685950D03*
X7593000Y-3455000D03*
Y-3255000D03*
X7580000Y-2605000D03*
X7630000D03*
X7680000D03*
X7830000D03*
X7626200Y-493000D03*
X7630000Y-655000D03*
X7580000D03*
X7626200Y-284500D03*
X7730100D03*
X8073340Y-7049400D03*
X8108690Y-7014050D03*
X8144050Y-6978690D03*
X8033740Y-6619480D03*
X7922020Y-6615240D03*
X7886660Y-6650600D03*
X8015100Y-3283400D03*
X8142100D03*
X8080000Y-2605000D03*
X8130000D03*
X8180000D03*
X7880000D03*
X8030000D03*
X7930000Y-654800D03*
X8130000Y-655000D03*
X8180000D03*
X7880000D03*
X8080000D03*
X7933400Y-284500D03*
X8214760Y-6907980D03*
X8230000Y-655000D03*
X8430000D03*
G54D32*
X616700Y-2602100D03*
Y-2552100D03*
X612200Y-1414600D03*
Y-1464600D03*
X1636000Y-2602100D03*
Y-2552100D03*
X1633000Y-1414600D03*
Y-1464600D03*
X2660500Y-2602100D03*
Y-2552100D03*
X2661500Y-1414600D03*
Y-1464600D03*
X3693000Y-2602100D03*
Y-2552100D03*
X3684800Y-1414600D03*
Y-1464600D03*
G54D23*
X243800Y-848800D03*
X454700Y-3158000D03*
X751800Y-848800D03*
X962700Y-3158000D03*
X1474400D03*
X1265500Y-848800D03*
X1773500D03*
X1982400Y-3158000D03*
X2296000Y-848800D03*
X2498500Y-3158000D03*
X3006500D03*
X2804000Y-848800D03*
X3320700D03*
X3529300Y-3158000D03*
X3828700Y-848800D03*
X4037300Y-3158000D03*
G54D50*
X5025000Y-6968000D03*
X5175000D03*
X5905000Y-6972000D03*
X6055000D03*
X6365000Y-6968000D03*
X6215000D03*
X7115000Y-6972000D03*
X7265000D03*
G54D41*
X3179800Y-7260000D03*
Y-7070000D03*
Y-7165000D03*
X3459800Y-7260000D03*
Y-7070000D03*
Y-7165000D03*
G54D14*
X205180Y-5256880D03*
X488020Y-5539720D03*
G54D15*
X245500Y-4827800D03*
G54D33*
X616700Y-2697100D03*
Y-2407100D03*
X612200Y-1609600D03*
Y-1319600D03*
X1636000Y-2697100D03*
Y-2407100D03*
X1633000Y-1609600D03*
Y-1319600D03*
X2660500Y-2697100D03*
Y-2407100D03*
X2661500Y-1609600D03*
Y-1319600D03*
X3693000Y-2697100D03*
Y-2407100D03*
X3684800Y-1609600D03*
Y-1319600D03*
G54D60*
X5540000Y-6760000D03*
X6740000D03*
X6590000Y-3330000D03*
X7390000D03*
G54D24*
X204700Y-7239500D03*
X331700D03*
X458700D03*
X204700Y-6719500D03*
X331700D03*
X458700D03*
X585700Y-7239500D03*
X712700D03*
X585700Y-6719500D03*
X712700D03*
X839700Y-7239500D03*
X966700D03*
X1093700D03*
X839700Y-6719500D03*
X966700D03*
X1093700D03*
G54D51*
X5100300Y-6130200D03*
X5050300D03*
X5100700Y-4550000D03*
X5050700D03*
X5400300Y-6130200D03*
X5350300D03*
X5300300D03*
X5250300D03*
X5200300D03*
X5150300D03*
X5400700Y-4550000D03*
X5350700D03*
X5300700D03*
X5250700D03*
X5200700D03*
X5150700D03*
X5700300Y-6130200D03*
X5650300D03*
X5600300D03*
X5550300D03*
X5500300D03*
X5450300D03*
X5700700Y-4550000D03*
X5650700D03*
X5600700D03*
X5550700D03*
X5500700D03*
X5450700D03*
X6000300Y-6130200D03*
X5950300D03*
X5900300D03*
X5850300D03*
X5800300D03*
X5750300D03*
X6000700Y-4550000D03*
X5950700D03*
X5900700D03*
X5850700D03*
X5800700D03*
X5750700D03*
X6250300Y-6130200D03*
X6200300D03*
X6150300D03*
X6100300D03*
X6050300D03*
X6250700Y-4550000D03*
X6200700D03*
X6150700D03*
X6100700D03*
X6050700D03*
G54D42*
X3515900Y-6388200D03*
Y-5890200D03*
X3579400Y-6388200D03*
X3642900D03*
X3706400D03*
X3769900D03*
X3833400D03*
X3579400Y-5890200D03*
X3642900D03*
X3706400D03*
X3769900D03*
X3833400D03*
X3896900Y-6388200D03*
X3960400D03*
X3896900Y-5890200D03*
X3960400D03*
G54D34*
X515700Y-2602100D03*
X715700D03*
X515700Y-2652100D03*
X715700D03*
X515700Y-2452100D03*
X715700D03*
X515700Y-2502100D03*
X715700D03*
X515700Y-2552100D03*
X715700D03*
X713200Y-1564600D03*
X513200D03*
X713200Y-1514600D03*
X513200D03*
X713200Y-1464600D03*
X513200D03*
X713200Y-1414600D03*
X513200D03*
X713200Y-1364600D03*
X513200D03*
X1535000Y-2602100D03*
X1735000D03*
X1535000Y-2652100D03*
X1735000D03*
X1535000Y-2452100D03*
X1735000D03*
X1535000Y-2502100D03*
X1735000D03*
X1535000Y-2552100D03*
X1735000D03*
X1734000Y-1564600D03*
X1534000D03*
X1734000Y-1514600D03*
X1534000D03*
X1734000Y-1464600D03*
X1534000D03*
X1734000Y-1414600D03*
X1534000D03*
X1734000Y-1364600D03*
X1534000D03*
X2559500Y-2602100D03*
Y-2652100D03*
Y-2452100D03*
Y-2502100D03*
Y-2552100D03*
X2562500Y-1564600D03*
Y-1514600D03*
Y-1464600D03*
Y-1414600D03*
Y-1364600D03*
X2759500Y-2602100D03*
Y-2652100D03*
Y-2452100D03*
Y-2502100D03*
Y-2552100D03*
X2762500Y-1564600D03*
Y-1514600D03*
Y-1464600D03*
Y-1414600D03*
Y-1364600D03*
X3585800Y-1564600D03*
Y-1514600D03*
Y-1464600D03*
Y-1414600D03*
Y-1364600D03*
X3592000Y-2602100D03*
X3792000D03*
X3592000Y-2652100D03*
X3792000D03*
X3592000Y-2452100D03*
X3792000D03*
X3592000Y-2502100D03*
X3792000D03*
X3592000Y-2552100D03*
X3792000D03*
X3785800Y-1564600D03*
Y-1514600D03*
Y-1464600D03*
Y-1414600D03*
Y-1364600D03*
G54D61*
X5527900Y-2458000D03*
Y-2388000D03*
X5593400Y-2458000D03*
Y-2388000D03*
G54D70*
X8142100Y-3283400D03*
X8015100D03*
X8142100Y-2883400D03*
X8015100D03*
X8396100Y-3283400D03*
X8269100D03*
X8396100Y-2883400D03*
X8269100D03*
G54D16*
X221300Y-3334500D03*
Y-2984500D03*
X1003000Y-995100D03*
Y-645100D03*
X1255800Y-3819600D03*
X1256800Y-3334500D03*
X1255800Y-3469600D03*
X1256800Y-2984500D03*
X2027400Y-995100D03*
Y-645100D03*
X2283200Y-3819600D03*
X2284200Y-3334500D03*
X2283200Y-3469600D03*
X2284200Y-2984500D03*
X3303000Y-3334500D03*
Y-2984500D03*
X3056500Y-995100D03*
Y-645100D03*
X4082500Y-995100D03*
Y-645100D03*
X5358300Y-1959700D03*
Y-1789700D03*
G54D43*
X3561300Y-5470600D03*
Y-5085000D03*
X3756300Y-5470600D03*
X3691300D03*
X3626300D03*
X3756300Y-5085000D03*
X3691300D03*
X3626300D03*
G54D25*
X222700Y-6140300D03*
X349700D03*
X476700D03*
X222700Y-5740300D03*
X476700D03*
X7175000Y-5583000D03*
X7275000D03*
X7175000Y-4633000D03*
X7275000D03*
X7375000Y-5583000D03*
X7475000D03*
X7575000D03*
X7375000Y-4633000D03*
X7475000D03*
X7575000D03*
X7675000Y-5583000D03*
X7775000D03*
X7875000D03*
X7675000Y-4633000D03*
X7775000D03*
X7875000D03*
X7975000Y-5583000D03*
X8075000D03*
X8175000D03*
X7975000Y-4633000D03*
X8075000D03*
X8175000D03*
X8275000Y-5583000D03*
Y-4633000D03*
G54D52*
X4859900Y-5690200D03*
Y-5740200D03*
Y-5790200D03*
Y-5840200D03*
Y-5890200D03*
Y-5940200D03*
Y-5390200D03*
Y-5440200D03*
Y-5490200D03*
Y-5540200D03*
Y-5590200D03*
Y-5640200D03*
Y-5090200D03*
Y-5140200D03*
Y-5190200D03*
Y-5240200D03*
Y-5290200D03*
Y-5340200D03*
Y-4790200D03*
Y-4840200D03*
Y-4890200D03*
Y-4940200D03*
Y-4990200D03*
Y-5040200D03*
Y-4740200D03*
X6440100Y-5690300D03*
Y-5740300D03*
Y-5790300D03*
Y-5840300D03*
Y-5890300D03*
Y-5940300D03*
Y-5390300D03*
Y-5440300D03*
Y-5490300D03*
Y-5540300D03*
Y-5590300D03*
Y-5640300D03*
Y-5090300D03*
Y-5140300D03*
Y-5190300D03*
Y-5240300D03*
Y-5290300D03*
Y-5340300D03*
Y-4790300D03*
Y-4840300D03*
Y-4890300D03*
Y-4940300D03*
Y-4990300D03*
Y-5040300D03*
Y-4740300D03*
G54D80*
G01X447200Y-6383000D02*
X449200Y-6385000D01*
Y-6418100D01*
X420900Y-6446400D01*
Y-6504600D01*
G01X280900D02*
Y-6441300D01*
X252700Y-6413100D01*
Y-6383000D01*
G01X349900Y-6287000D02*
Y-6208200D01*
X349700Y-6208000D01*
Y-6140300D01*
G01X252700Y-6287000D02*
Y-6244000D01*
X222700Y-6214000D01*
Y-6140300D01*
G01X447200Y-6287000D02*
Y-6237500D01*
X476700Y-6208000D01*
Y-6140300D01*
G01X303000Y-5599100D02*
Y-5655800D01*
X387500Y-5740300D01*
X476700D01*
G01X683700Y-5427900D02*
X599840D01*
X488020Y-5539720D01*
G01X399000Y-5599100D02*
X428640D01*
X488020Y-5539720D01*
G01X289500Y-5146200D02*
Y-5051700D01*
G01D02*
Y-4974500D01*
X245500Y-4930500D01*
Y-4827800D01*
G01X729000Y-7549500D02*
X801700D01*
X840500Y-7510700D01*
Y-7405600D01*
G01X712700Y-7239500D02*
Y-7322900D01*
X744500Y-7354700D01*
Y-7405600D01*
G01X585700Y-7239500D02*
Y-7322300D01*
X619500Y-7356100D01*
Y-7405600D01*
G01X3170400Y-7785000D02*
X3101340D01*
X3071340Y-7815000D01*
X3025400D01*
G01X3170400Y-7531000D02*
X3101340D01*
X3079340Y-7509000D01*
X3025400D01*
G01X3916900Y-7103000D02*
Y-7212400D01*
X3877000Y-7252300D01*
Y-7295000D01*
G01X3641200Y-4455200D02*
Y-4411900D01*
X3653200Y-4399900D01*
Y-4352200D01*
G01X3855300Y-4653500D02*
Y-4605400D01*
X3843300Y-4593400D01*
Y-4550700D01*
G01X6217300Y-7504300D02*
X6164600D01*
G01X7093200D02*
X7040500D01*
G54D71*
G01X712700Y-6719500D02*
X697600D01*
X678800Y-6700700D01*
Y-6633000D01*
X623400Y-6577600D01*
X388400D01*
X367100Y-6556300D01*
Y-6525900D01*
X388400Y-6504600D01*
X420900D01*
G01X585700Y-6719500D02*
X623400D01*
X649700Y-6693200D01*
Y-6636010D01*
X620890Y-6607200D01*
X374600D01*
X333200Y-6565800D01*
Y-6514600D01*
X323200Y-6504600D01*
X280900D01*
G01X2256000Y-7640300D02*
Y-7698000D01*
X2270800Y-7712800D01*
Y-7763420D01*
X2202320Y-7831900D01*
X1909200D01*
X1850300Y-7773000D01*
Y-7714450D01*
X1804450Y-7668600D01*
X1736100D01*
X1698000Y-7630500D01*
G01X2306000Y-7640300D02*
Y-7698010D01*
X2291210Y-7712800D01*
Y-7771880D01*
X2210780Y-7852310D01*
X1900740D01*
X1829890Y-7781460D01*
Y-7722910D01*
X1795990Y-7689010D01*
X1739490D01*
X1698000Y-7730500D01*
G01X2406000Y-7640300D02*
Y-7698000D01*
X2420800Y-7712800D01*
Y-7792300D01*
X2442780Y-7814280D01*
X2651120D01*
X2713900Y-7751500D01*
Y-7682300D01*
X2723900Y-7672300D01*
X2742300D01*
X2752300Y-7682300D01*
Y-7696900D01*
X2818400Y-7763000D01*
X2823400D01*
G01X2456000Y-7640300D02*
Y-7698010D01*
X2441210Y-7712800D01*
Y-7783840D01*
X2451240Y-7793870D01*
X2642660D01*
X2693490Y-7743040D01*
Y-7673840D01*
X2715440Y-7651890D01*
X2749210D01*
X2758900Y-7642200D01*
Y-7622500D01*
X2818400Y-7563000D01*
X2823400D01*
G01X5064900Y-3390200D02*
X5061620D01*
X5030020Y-3358600D01*
Y-3267040D01*
X4906520Y-3143540D01*
X4883700D01*
X4873700Y-3133540D01*
Y-3114000D01*
X4863700Y-3104000D01*
X4771000D01*
G01Y-3004000D02*
X4863700D01*
X4878700Y-3019000D01*
Y-3054700D01*
X4906200Y-3082200D01*
X5011200D01*
X5090100Y-3161100D01*
Y-3238600D01*
X5133400Y-3281900D01*
Y-3544800D01*
X5207300Y-3618700D01*
X5331300D01*
G01X4966400Y-3391200D02*
X4999000Y-3358600D01*
X4999100D01*
X5009100Y-3348600D01*
Y-3275710D01*
X4897850Y-3164460D01*
X4883700D01*
X4873700Y-3174460D01*
Y-3194000D01*
X4863700Y-3204000D01*
X4771000D01*
G01X5726000Y-3516000D02*
X5765990Y-3555990D01*
Y-3606040D01*
X5678340Y-3693690D01*
X5054550D01*
X5027910Y-3667050D01*
Y-3652900D01*
X5037910Y-3642900D01*
X5055700D01*
X5065700Y-3632900D01*
Y-3590200D01*
G01X5822000Y-3516000D02*
X5786400Y-3551600D01*
Y-3614500D01*
X5686800Y-3714100D01*
X5046090D01*
X5007500Y-3675510D01*
Y-3652900D01*
X4997500Y-3642900D01*
X4979700D01*
X4969700Y-3632900D01*
Y-3590200D01*
G01X5326600Y-3084400D02*
Y-3192100D01*
X5368000Y-3233500D01*
X5403600D01*
X5428100Y-3258000D01*
Y-3305700D01*
G01X5376600Y-3084400D02*
Y-3127100D01*
X5391400Y-3141900D01*
Y-3164510D01*
X5429100Y-3202210D01*
X5718150D01*
X5755520Y-3239580D01*
Y-3268780D01*
X5718600Y-3305700D01*
G01X5426600Y-3084400D02*
Y-3127110D01*
X5411810Y-3141900D01*
Y-3156050D01*
X5437560Y-3181800D01*
X5726610D01*
X5775930Y-3231120D01*
Y-3266430D01*
X5815200Y-3305700D01*
G01X5990400Y-6333400D02*
Y-6344800D01*
X6000400Y-6354800D01*
X6063500D01*
G01X5844400Y-3616100D02*
Y-3648800D01*
X5825000Y-3668200D01*
Y-3823900D01*
G01X6232000Y-3527800D02*
Y-3580700D01*
X6228000Y-3584700D01*
Y-3627400D01*
G01X6185300Y-546800D02*
X6338900D01*
X6410000Y-617900D01*
Y-700000D01*
G01X7175000Y-4633000D02*
X7214800Y-4593200D01*
Y-4538700D01*
X7182200Y-4506100D01*
X6654800D01*
X6549800Y-4401100D01*
Y-4294470D01*
X6549730Y-4294400D01*
Y-4294280D01*
X6549800Y-4294210D01*
Y-4197500D01*
X6526200Y-4173900D01*
X6455000D01*
G01X7275000Y-4633000D02*
X7235210Y-4593210D01*
Y-4530240D01*
X7190660Y-4485690D01*
X6663260D01*
X6570210Y-4392640D01*
Y-4197190D01*
X6593500Y-4173900D01*
X6665000D01*
G01X6875000Y-3823900D02*
X6960000D01*
X6969700Y-3814200D01*
Y-3739100D01*
X6938800Y-3708200D01*
X6671400D01*
X6629800Y-3666600D01*
Y-3601500D01*
X6615000Y-3586700D01*
Y-3534000D01*
G01X6665000Y-3823900D02*
X6583010D01*
X6570510Y-3811400D01*
Y-3714440D01*
X6550210Y-3694140D01*
Y-3601500D01*
X6565000Y-3586710D01*
Y-3534000D01*
G01X6455000Y-3823900D02*
X6528000D01*
X6550100Y-3801800D01*
Y-3722900D01*
X6529800Y-3702600D01*
Y-3601500D01*
X6515000Y-3586700D01*
Y-3534000D01*
G01X7475000Y-4633000D02*
X7514800Y-4593200D01*
Y-4559400D01*
X7357300Y-4401900D01*
X7050900D01*
X6969800Y-4320800D01*
Y-4201200D01*
X6942500Y-4173900D01*
X6875000D01*
G01X7085000Y-3823900D02*
X7001520D01*
X6990110Y-3812490D01*
Y-3730640D01*
X6947260Y-3687790D01*
X6679860D01*
X6650210Y-3658140D01*
Y-3601500D01*
X6665000Y-3586710D01*
Y-3534000D01*
G01X6692000Y-2220000D02*
X6729700Y-2257700D01*
Y-2483800D01*
X6803100Y-2557200D01*
X6826200D01*
X6836200Y-2547200D01*
Y-2527600D01*
X6846200Y-2517600D01*
X6866200D01*
X6876200Y-2527600D01*
Y-2547200D01*
X6886200Y-2557200D01*
X6906200D01*
X6916200Y-2547200D01*
Y-2527600D01*
X6926200Y-2517600D01*
X6946200D01*
X6956200Y-2527600D01*
Y-2547200D01*
X6966200Y-2557200D01*
X6986200D01*
X6996200Y-2547200D01*
Y-2527600D01*
X7006200Y-2517600D01*
X7026200D01*
X7036200Y-2527600D01*
Y-2547200D01*
X7046200Y-2557200D01*
X7066200D01*
X7076200Y-2547200D01*
Y-2527600D01*
X7086200Y-2517600D01*
X7106200D01*
X7116200Y-2527600D01*
Y-2547200D01*
X7126200Y-2557200D01*
X7146200D01*
X7156200Y-2547200D01*
Y-2527600D01*
X7166200Y-2517600D01*
X7199900D01*
X7232100Y-2549800D01*
Y-2719500D01*
X7268500Y-2755900D01*
X7510500D01*
X7542800Y-2788200D01*
Y-2844400D01*
G01X7575000Y-4633000D02*
X7535210Y-4593210D01*
Y-4550940D01*
X7365760Y-4381490D01*
X7059360D01*
X6990210Y-4312340D01*
Y-4204900D01*
X7021210Y-4173900D01*
X7085000D01*
G01X7092000Y-1500000D02*
X7139700D01*
G01X7875000Y-4633000D02*
X7835210Y-4593210D01*
Y-4523640D01*
X7618860Y-4307290D01*
X7447460D01*
X7408900Y-4268730D01*
Y-4200090D01*
X7435090Y-4173900D01*
X7503400D01*
G01X7775000Y-4633000D02*
X7814800Y-4593200D01*
Y-4532100D01*
X7610400Y-4327700D01*
X7439000D01*
X7388490Y-4277190D01*
Y-4200090D01*
X7362300Y-4173900D01*
X7293400D01*
G01X7922600Y-3823900D02*
X7839900D01*
X7828210Y-3812210D01*
Y-3713540D01*
X7796670Y-3682000D01*
X7516560D01*
X7450210Y-3615650D01*
Y-3601500D01*
X7465000Y-3586710D01*
Y-3534000D01*
G01X7293400Y-3823900D02*
X7362800D01*
X7387800Y-3798900D01*
Y-3734200D01*
X7329800Y-3676200D01*
Y-3601500D01*
X7315000Y-3586700D01*
Y-3534000D01*
G01X7503400Y-3823900D02*
X7433210D01*
X7408210Y-3798900D01*
Y-3725740D01*
X7350210Y-3667740D01*
Y-3601500D01*
X7365000Y-3586710D01*
Y-3534000D01*
G01X7712600Y-3823900D02*
X7797400D01*
X7807800Y-3813500D01*
Y-3722000D01*
X7788210Y-3702410D01*
X7508100D01*
X7429800Y-3624110D01*
Y-3601500D01*
X7415000Y-3586700D01*
Y-3534000D01*
G01X8175000Y-4633000D02*
X8134610Y-4592610D01*
Y-4553250D01*
X7962160Y-4380800D01*
X7872510D01*
X7827810Y-4336100D01*
Y-4190490D01*
X7844400Y-4173900D01*
X7922600D01*
G01X8075000Y-4633000D02*
X8114200Y-4593800D01*
Y-4561710D01*
X7953700Y-4401210D01*
X7864050D01*
X7807400Y-4344560D01*
Y-4191700D01*
X7789600Y-4173900D01*
X7712600D01*
G54D62*
X6024900Y-3629900D03*
Y-3539900D03*
G54D53*
X5094600Y-2909400D03*
Y-2959400D03*
Y-3009400D03*
Y-2659400D03*
Y-2709400D03*
Y-2759400D03*
Y-2809400D03*
Y-2859400D03*
X5610600Y-2909400D03*
Y-2959400D03*
Y-3009400D03*
Y-2659400D03*
Y-2709400D03*
Y-2759400D03*
Y-2809400D03*
Y-2859400D03*
G54D35*
X858000Y-4175300D03*
Y-3825300D03*
X1663600Y-4175300D03*
Y-3825300D03*
X2673400Y-4175300D03*
Y-3825300D03*
X3437100Y-4175300D03*
Y-3825300D03*
X4979800Y-4175900D03*
Y-3825900D03*
X5399400Y-4173900D03*
X5190400D03*
X5399400Y-3823900D03*
X5190400D03*
X5611700Y-4175900D03*
Y-3825900D03*
X6033500Y-4173900D03*
X5825000D03*
X6033500Y-3823900D03*
X5825000D03*
X6245200Y-4175900D03*
Y-3825900D03*
X6665000Y-4173900D03*
X6455000D03*
X6665000Y-3823900D03*
X6455000D03*
X6875000Y-4173900D03*
Y-3823900D03*
X7293400Y-4173900D03*
X7085000D03*
X7293400Y-3823900D03*
X7085000D03*
X7503400Y-4173900D03*
Y-3823900D03*
X7922600Y-4173900D03*
X7712600D03*
X7922600Y-3823900D03*
X7712600D03*
G54D44*
X3726900Y-7103000D03*
Y-6863000D03*
X3916900Y-7103000D03*
Y-6863000D03*
X4126300Y-7407100D03*
X4128800Y-7201800D03*
X4128200Y-6992500D03*
X4127500Y-6786000D03*
Y-6578800D03*
X4124300Y-6371100D03*
Y-6161100D03*
Y-5955300D03*
X4125000Y-5747300D03*
Y-5336400D03*
Y-5541400D03*
Y-5130000D03*
Y-4920000D03*
Y-4710000D03*
X4476300Y-7407100D03*
X4478800Y-7201800D03*
X4478200Y-6992500D03*
X4477500Y-6786000D03*
Y-6578800D03*
X4474300Y-6371100D03*
Y-6161100D03*
Y-5955300D03*
X4475000Y-5747300D03*
Y-5336400D03*
Y-5541400D03*
Y-5130000D03*
Y-4920000D03*
Y-4710000D03*
X6010100Y-3065900D03*
Y-2825900D03*
X6200100Y-3065900D03*
Y-2825900D03*
G54D17*
G01X1129000Y-7803500D02*
X1198060D01*
X1225060Y-7830500D01*
X1282000D01*
G01X1129000Y-7549500D02*
X1213940D01*
X1232940Y-7530500D01*
X1282000D01*
G01X1378000Y-7830500D02*
X1430940D01*
X1440940Y-7840500D01*
X1490000D01*
G01X1378000Y-7830500D02*
Y-7730500D01*
G01X1484000Y-7732500D02*
X1429060D01*
X1427060Y-7730500D01*
X1378000D01*
G01Y-7530500D02*
X1492000D01*
G01X1484000Y-7636500D02*
X1439940D01*
X1433940Y-7630500D01*
X1376000D01*
G01X1378000Y-7530500D02*
Y-7584440D01*
X1376000Y-7586440D01*
Y-7630500D01*
G01X1306700Y-7021200D02*
Y-7046500D01*
X1228800Y-7124400D01*
Y-7156500D01*
G01X1326100D02*
X1370160D01*
X1378460Y-7164800D01*
X1422600D01*
G01X1490000Y-7840500D02*
Y-7787560D01*
X1484000Y-7781560D01*
Y-7732500D01*
G01X1602000Y-7730500D02*
X1530060D01*
X1528060Y-7732500D01*
X1484000D01*
G01X1492000Y-7530500D02*
Y-7574560D01*
X1484000Y-7582560D01*
Y-7636500D01*
G01D02*
X1546940D01*
X1552940Y-7630500D01*
X1602000D01*
G01X1552600Y-7292800D02*
Y-7233860D01*
X1542600Y-7223860D01*
Y-7164800D01*
G01X1641600Y-7251700D02*
X1627350D01*
X1586250Y-7292800D01*
X1552600D01*
G01X1422600Y-7164800D02*
Y-7110300D01*
X1496700Y-7036200D01*
Y-7021200D01*
G01D02*
X1560900D01*
X1586600Y-7046900D01*
X1662700D01*
G01X3179800Y-7260000D02*
Y-7346400D01*
X3226400Y-7393000D01*
X3231400D01*
G01X3570400Y-7785000D02*
X3477400D01*
X3390400Y-7698000D01*
Y-7451000D01*
X3332400Y-7393000D01*
X3327400D01*
G01X5281900Y-1462200D02*
X5216200D01*
X5211100Y-1467300D01*
X5210800D01*
X5156500Y-1521600D01*
X4997200D01*
G01X5508000Y-6463000D02*
Y-6564700D01*
X5507900Y-6564800D01*
Y-6570700D01*
G01X6708000Y-6463000D02*
Y-6570700D01*
X150900Y-3484700D03*
X167000Y-3315000D03*
X168800Y-2966700D03*
X147000Y-2594500D03*
X169000Y-2382600D03*
X170000Y-2480000D03*
X171300Y-2171500D03*
X171100Y-2066300D03*
X170000Y-2283200D03*
X171900Y-1830100D03*
X171100Y-1935200D03*
X163400Y-1709600D03*
Y-1369600D03*
Y-1465600D03*
X164900Y-1285400D03*
X164200Y-538500D03*
X458700Y-7239500D03*
X204700D03*
X331700D03*
Y-6719500D03*
X458700D03*
X349900Y-6383000D03*
X222700Y-5740300D03*
X209070Y-5535830D03*
X488020Y-5256880D03*
X193500Y-5051700D03*
X275000Y-3353200D03*
X221300Y-3334500D03*
X450000Y-3267300D03*
X397000Y-3314400D03*
X393600Y-3214600D03*
X274300Y-3002500D03*
X221300Y-2984500D03*
X393500Y-2998000D03*
X450800Y-3043100D03*
X454700Y-3158000D03*
X396100Y-3105600D03*
X294600Y-2768400D03*
X390600D03*
X189200Y-2118900D03*
X392600Y-2283200D03*
X189200Y-1882500D03*
X260900Y-1710600D03*
X359800Y-1709600D03*
X240200Y-1370500D03*
X444200Y-1018000D03*
X444300Y-948000D03*
X444200Y-878300D03*
X482500Y-982600D03*
X482000Y-914800D03*
X482100Y-845000D03*
X481800Y-776000D03*
X444400Y-809000D03*
X482100Y-706300D03*
X445100Y-738900D03*
X444400Y-673800D03*
X250100Y-562500D03*
X349100Y-565000D03*
X451800Y-552500D03*
X712700Y-7239500D03*
X585700D03*
X670400Y-6384600D03*
X669400Y-6256300D03*
X746200Y-5657600D03*
Y-5563600D03*
X574300Y-5080500D03*
Y-4953500D03*
X574000Y-4826700D03*
X574300Y-4572500D03*
X574200Y-4699500D03*
X683300Y-4370000D03*
X528800Y-3845800D03*
X568500Y-3771900D03*
X575500Y-3690500D03*
X555500Y-3613700D03*
X677200Y-3583600D03*
X695100Y-3531500D03*
X739200Y-3325000D03*
X661400D03*
X739100Y-3255100D03*
X661500Y-3255000D03*
X699700Y-3289600D03*
X699200Y-3221800D03*
X712600Y-3477600D03*
X508300Y-3314700D03*
X512600Y-3210800D03*
X739000Y-3185100D03*
X661400Y-3185300D03*
X699300Y-3152000D03*
X699000Y-3083000D03*
X699300Y-3013300D03*
X739200Y-3115900D03*
X661600Y-3116000D03*
X739100Y-3046100D03*
X662300Y-3045900D03*
X739600Y-2979100D03*
X661600Y-2980800D03*
X511200Y-2999400D03*
X512600Y-3104800D03*
X662000Y-2685800D03*
X712800Y-2283200D03*
X488600D03*
X539200Y-2118900D03*
X685200Y-2119900D03*
X612300Y-2088800D03*
X612100Y-2147600D03*
X666800Y-2066500D03*
X557800Y-2065300D03*
X557100Y-2172200D03*
X666300Y-2173000D03*
X513600Y-1722400D03*
X735300D03*
X685200Y-1883500D03*
X539200Y-1882500D03*
X612500Y-1860800D03*
X612800Y-1922500D03*
X556300Y-1829900D03*
X557600Y-1936100D03*
X666300Y-1937200D03*
X667200Y-1830300D03*
X572800Y-1348800D03*
X522000Y-1018000D03*
X521900Y-948100D03*
X521800Y-878100D03*
X522000Y-808900D03*
X751800Y-848800D03*
X687700Y-758400D03*
X683400Y-1020400D03*
X747200Y-976200D03*
X692000Y-927200D03*
X521900Y-739100D03*
X522400Y-672100D03*
X525300Y-489000D03*
X679400Y-513200D03*
X694200Y-464400D03*
X682500Y-678700D03*
X746900Y-717000D03*
X557900Y-400900D03*
X539500Y-172100D03*
X562500Y-242700D03*
X564300Y-314700D03*
X710100Y-413200D03*
X749400Y-243400D03*
X689700Y-176400D03*
X691400Y-318100D03*
X839700Y-7239500D03*
X966700D03*
X1093700D03*
X839700Y-6719500D03*
X1093700D03*
X888500Y-6498400D03*
X1006500Y-6384600D03*
X984500Y-6498400D03*
X866500Y-6256300D03*
X1006500D03*
X959700Y-6117300D03*
X865700Y-5827300D03*
X1007500Y-5512100D03*
Y-5672100D03*
X951800Y-5394900D03*
X836900Y-5416900D03*
X842200Y-5563600D03*
Y-5657600D03*
X1048700Y-5394900D03*
X951800Y-5298900D03*
X1048700D03*
X974300Y-5080500D03*
Y-4953500D03*
Y-4826500D03*
X974500Y-4572500D03*
X974200Y-4699500D03*
X1015800Y-4370000D03*
X858000Y-4175300D03*
X809400Y-4142100D03*
X902900Y-4142800D03*
X810300Y-4209400D03*
X906700Y-4209200D03*
X1019200Y-4187600D03*
X1027700Y-3583000D03*
X1045100Y-3531500D03*
X1028900Y-3677700D03*
X1063500Y-3479600D03*
X1063600Y-2731900D03*
X979900Y-2648000D03*
X1062900Y-2649700D03*
X965400Y-2295500D03*
X1062900Y-2553700D03*
Y-2296500D03*
X870100D03*
X1052800Y-2173300D03*
X1053300Y-2066700D03*
X1035200Y-2119900D03*
X1052200Y-1935200D03*
X1052600Y-1830900D03*
X1035200Y-1883500D03*
X1054800Y-1722400D03*
X831300D03*
X1055800Y-1627800D03*
X1054800Y-1529200D03*
X1077800Y-1416700D03*
X928600Y-1213500D03*
X832600D03*
X1055300Y-1012700D03*
X951100Y-977400D03*
X1003000Y-995100D03*
X807900Y-755600D03*
X810500Y-1020400D03*
X804100Y-933000D03*
X1044200Y-464400D03*
X1003000Y-645100D03*
X1058000Y-625100D03*
X947800Y-660400D03*
X1064200Y-519400D03*
X816000Y-680900D03*
X915800Y-164900D03*
X1047900D03*
X915800Y-304900D03*
X1047900D03*
X1064300Y-409300D03*
X806200Y-175800D03*
X802000Y-316000D03*
X1221900Y-7676500D03*
X1412600Y-7292800D03*
X1326100Y-7252500D03*
X1228800D03*
X1402700Y-6731200D03*
X1307700D03*
X1159200Y-4187600D03*
X1357900D03*
X1305500Y-3834900D03*
X1206100Y-3835100D03*
X1255800Y-3819600D03*
X1410900Y-3211100D03*
X1255800Y-3469600D03*
X1202700Y-3451100D03*
X1308400Y-3487600D03*
X1256800Y-3334500D03*
X1204100Y-3316500D03*
X1308700Y-3351800D03*
X1309900Y-3003000D03*
X1203000Y-2965500D03*
X1256800Y-2984500D03*
X1411300Y-3005300D03*
X1317100Y-2768400D03*
X1168300Y-2594500D03*
X1190300Y-2382600D03*
X1191300Y-2480000D03*
X1190300Y-2172100D03*
Y-2066100D03*
X1208300Y-2118900D03*
X1191300Y-2283200D03*
X1191200Y-1934900D03*
X1190200Y-1829400D03*
X1208300Y-1882500D03*
X1281800Y-1710600D03*
X1182400Y-1709600D03*
X1382600D03*
X1263100Y-1369900D03*
X1182400Y-1369600D03*
Y-1465600D03*
X1382600Y-1613600D03*
X1180500Y-1285200D03*
X1210000Y-524500D03*
X1287800D03*
X1361900Y-522800D03*
X1210100Y-454500D03*
X1248300Y-489100D03*
X1287700Y-454600D03*
X1362000Y-452800D03*
X1400200Y-487400D03*
X1210200Y-180300D03*
X1210900Y-245400D03*
X1210200Y-315500D03*
X1210000Y-384800D03*
X1288200Y-178600D03*
X1287700Y-245600D03*
X1287800Y-315400D03*
X1247900Y-212800D03*
X1247600Y-282500D03*
X1247900Y-351500D03*
X1247800Y-421300D03*
X1287600Y-384600D03*
X1362100Y-178600D03*
X1362800Y-243700D03*
X1362100Y-313800D03*
X1361900Y-383100D03*
X1399800Y-211100D03*
X1399500Y-280800D03*
X1399800Y-349800D03*
X1399700Y-419600D03*
X1586000Y-7840500D03*
X1588000Y-7530500D03*
X1699300Y-7414400D03*
X1552600Y-7292800D03*
X1641600Y-7251700D03*
Y-7155700D03*
X1542600Y-7164800D03*
X1647900Y-6811300D03*
X1662700Y-6906900D03*
X1497700Y-6731200D03*
X1647900Y-6715300D03*
X1663600Y-4175300D03*
X1615000Y-4140700D03*
X1712600Y-4140500D03*
X1618300Y-4206700D03*
X1711600Y-4208700D03*
X1497900Y-4187600D03*
X1420400Y-3531000D03*
X1688900Y-3531500D03*
X1670900Y-3584700D03*
X1560400Y-3531000D03*
X1681700Y-3317400D03*
X1681800Y-3247400D03*
X1720000Y-3282000D03*
X1719500Y-3214200D03*
X1414700Y-3307200D03*
X1530300Y-3305100D03*
X1471900Y-3253700D03*
X1706900Y-3477900D03*
X1681700Y-3177700D03*
X1719600Y-3144400D03*
X1719300Y-3075400D03*
X1719600Y-3005700D03*
X1681900Y-3108400D03*
X1682600Y-3038300D03*
X1681900Y-2973200D03*
X1528700Y-3007400D03*
X1471500Y-3047100D03*
X1413800Y-3103800D03*
X1528700Y-3102200D03*
X1474400Y-3158000D03*
X1537000Y-3205300D03*
X1676800Y-2676400D03*
X1413100Y-2768400D03*
X1498200Y-2283200D03*
X1689700Y-2172600D03*
X1690700Y-2067700D03*
X1576000Y-2171400D03*
X1575600Y-2066400D03*
X1633200Y-2151600D03*
X1633500Y-2094000D03*
X1707900Y-2119900D03*
X1558300Y-2118900D03*
X1534500Y-1722400D03*
X1707900Y-1883500D03*
X1558300Y-1882500D03*
X1578300Y-1827400D03*
Y-1937400D03*
X1687900Y-1938500D03*
X1687800Y-1828500D03*
X1633000Y-1860900D03*
X1633100Y-1919200D03*
X1593400Y-1349300D03*
X1469000Y-807400D03*
X1546600Y-807300D03*
X1506400Y-774400D03*
X1506700Y-843400D03*
X1506600Y-913200D03*
X1507100Y-981000D03*
X1468800Y-876700D03*
X1546400Y-876500D03*
X1468900Y-946400D03*
X1546500Y-946500D03*
X1468800Y-1016400D03*
X1546600D03*
X1698700Y-1025600D03*
X1713500Y-923500D03*
X1715000Y-784200D03*
X1469000Y-672200D03*
X1547000Y-670500D03*
X1469700Y-737300D03*
X1546500Y-737500D03*
X1506700Y-704700D03*
X1439700Y-522800D03*
X1439600Y-452900D03*
X1702400Y-514200D03*
X1718100Y-464400D03*
X1702000Y-680300D03*
X1440100Y-176900D03*
X1439600Y-243900D03*
X1439700Y-313700D03*
X1439500Y-382900D03*
X1705800Y-184600D03*
X1713700Y-322400D03*
X2021900Y-7771900D03*
X1795300Y-7414400D03*
X1786500Y-6929900D03*
Y-7025900D03*
X2025600Y-6812200D03*
X1916400Y-6746800D03*
X2025600Y-6716200D03*
X1756400Y-6746800D03*
X1967500Y-4187600D03*
X1827500D03*
X2012700Y-3862500D03*
X2013100Y-3768600D03*
X1977400Y-3810700D03*
X1975200Y-3726900D03*
X2021100Y-3584100D03*
X1854700Y-3677700D03*
X1759500Y-3317400D03*
X1759400Y-3247500D03*
X1759300Y-3177500D03*
X1759500Y-3108300D03*
X1759400Y-3038500D03*
X1759900Y-2971500D03*
X1986500Y-2645500D03*
X1981700Y-2295500D03*
X1884000Y-2296500D03*
X1732000Y-2283200D03*
X1759700Y-1722400D03*
X1855700D03*
X1981500D03*
X1950800Y-1211600D03*
X1854800D03*
X1974400Y-976900D03*
X2027400Y-995100D03*
X1773500Y-848800D03*
X1843800Y-1022800D03*
X1772200Y-980400D03*
X1830400Y-924200D03*
X1834700Y-779900D03*
X2027400Y-645100D03*
X1972200Y-662700D03*
X1839500Y-682000D03*
X1772400Y-732600D03*
X1734000Y-413500D03*
X1938800Y-164900D03*
Y-304900D03*
X1759700Y-244300D03*
X1817300Y-184200D03*
X1821000Y-316500D03*
X2117900Y-7771900D03*
X2090900Y-7375700D03*
X2214500Y-7461300D03*
X2320100Y-7383200D03*
X2244600Y-7382800D03*
X2196100Y-7324500D03*
X2193200Y-7259800D03*
X2121300Y-7450100D03*
X2074700Y-7290500D03*
X2281200Y-7499900D03*
X2072800Y-7499800D03*
X2281000Y-7290300D03*
X2207400Y-7129700D03*
X2091400Y-7211200D03*
X2317200Y-7202200D03*
X2245000Y-7201000D03*
X2127500Y-7137900D03*
X2282000Y-7087500D03*
X2077500Y-7086100D03*
X2097000Y-3862600D03*
X2333000Y-3835300D03*
X2232500Y-3835900D03*
X2055000Y-3810600D03*
X2052000Y-3727100D03*
X2038900Y-3531500D03*
X2283200Y-3819600D03*
X2056500Y-3480000D03*
X2283200Y-3469600D03*
X2230800Y-3451800D03*
X2335700Y-3487700D03*
X2284200Y-3334500D03*
X2231800Y-3316800D03*
X2336000Y-3351700D03*
X2335900Y-3001800D03*
X2232000Y-2966700D03*
X2284200Y-2984500D03*
X2080100Y-2735900D03*
Y-2649700D03*
X2196700Y-2594500D03*
X2218700Y-2382600D03*
X2219700Y-2480000D03*
X2080100Y-2296500D03*
X2221200Y-2170200D03*
X2221600Y-2066700D03*
X2076000Y-2172600D03*
X2075800Y-2067200D03*
X2238800Y-2118900D03*
X2057900Y-2119900D03*
X2219700Y-2283200D03*
X2221300Y-1933600D03*
X2221400Y-1830300D03*
X2075400Y-1935800D03*
X2075200Y-1831900D03*
X2057900Y-1883500D03*
X2238800Y-1882500D03*
X2311100Y-1710600D03*
X2077500Y-1722400D03*
X2212500Y-1709600D03*
X2286900Y-1370500D03*
X2212500Y-1369600D03*
X2078900Y-1627800D03*
X2212500Y-1465600D03*
X2100900Y-1416700D03*
X2077900Y-1529200D03*
X2213800Y-1288500D03*
X2079900Y-1012800D03*
X2303200Y-515300D03*
X2225400D03*
X2303100Y-445400D03*
X2263700Y-479900D03*
X2225500Y-445300D03*
X2068100Y-464400D03*
X2088200Y-519400D03*
X2082400Y-625100D03*
X2303000Y-375400D03*
X2263200Y-412100D03*
X2263300Y-342300D03*
X2263000Y-273300D03*
X2263300Y-203600D03*
X2303200Y-306200D03*
X2303100Y-236400D03*
X2303600Y-169400D03*
X2225400Y-375600D03*
X2225600Y-306300D03*
X2226300Y-236200D03*
X2225600Y-171100D03*
X2072100Y-164900D03*
Y-304900D03*
X2088100Y-409400D03*
X2506000Y-7716100D03*
X2356000D03*
X2473800Y-7375700D03*
X2352300Y-7464600D03*
X2369000Y-7327500D03*
X2367700Y-7259800D03*
X2441300Y-7450600D03*
X2472800Y-7291100D03*
X2491300Y-7501600D03*
X2348600Y-7132200D03*
X2473000Y-7214500D03*
X2440100Y-7132600D03*
X2484500Y-7088900D03*
X2632000Y-6088700D03*
X2366800Y-4187600D03*
X2506800D03*
X2624500Y-4208600D03*
Y-4140200D03*
X2451300Y-3531000D03*
X2591300D03*
X2428800Y-3326600D03*
X2559200Y-3324200D03*
X2495400Y-3280600D03*
X2441100Y-3236700D03*
X2554500Y-3238300D03*
X2498500Y-3158000D03*
X2427200Y-2988700D03*
X2565400Y-2989500D03*
X2494900Y-3040700D03*
X2434800Y-3085700D03*
X2559200Y-3085100D03*
X2338100Y-2768400D03*
X2434100D03*
X2536200Y-2283200D03*
X2588800Y-2118900D03*
X2605200Y-2067200D03*
X2605000Y-2170800D03*
X2440200Y-2283200D03*
X2562900Y-1722400D03*
X2588800Y-1882500D03*
X2608900Y-1827400D03*
X2608800Y-1937500D03*
X2410700Y-1709600D03*
X2621100Y-1347200D03*
X2505300Y-809000D03*
X2505100Y-878300D03*
X2505200Y-948000D03*
X2505100Y-1018000D03*
X2582900Y-808900D03*
X2542700Y-776000D03*
X2543000Y-845000D03*
X2542900Y-914800D03*
X2543400Y-982600D03*
X2582700Y-878100D03*
X2582800Y-948100D03*
X2582900Y-1018000D03*
X2505300Y-673800D03*
X2506000Y-738900D03*
X2583300Y-672100D03*
X2582800Y-739100D03*
X2543000Y-706300D03*
X2455100Y-513600D03*
X2377300D03*
X2455000Y-443700D03*
X2415600Y-478200D03*
X2377400Y-443600D03*
X2454900Y-373700D03*
X2415100Y-410400D03*
X2415200Y-340600D03*
X2414900Y-271600D03*
X2415200Y-201900D03*
X2455100Y-304500D03*
X2455000Y-234700D03*
X2455500Y-167700D03*
X2377300Y-373900D03*
X2377500Y-304600D03*
X2378200Y-234500D03*
X2377500Y-169400D03*
X2821400Y-7663000D03*
X2920800Y-7446900D03*
X2824800D03*
X2780300Y-6979200D03*
X2904900Y-7171500D03*
X2780300Y-7075200D03*
X2905900Y-7069900D03*
X2650600Y-6793900D03*
X2905700Y-6747400D03*
X2883600Y-6859600D03*
X2650600Y-6697900D03*
X2839600Y-4187600D03*
X2673400Y-4175300D03*
X2721800Y-4208900D03*
X2721200Y-4139500D03*
X2861600Y-3677700D03*
X2721100Y-3531500D03*
X2702700Y-3584500D03*
X2743100Y-3221800D03*
X2743600Y-3289600D03*
X2705400Y-3255000D03*
X2783000Y-3255100D03*
X2705300Y-3325000D03*
X2783100D03*
X2739000Y-3478700D03*
X2705500Y-2980800D03*
X2783500Y-2979100D03*
X2706200Y-3045900D03*
X2783000Y-3046100D03*
X2705500Y-3116000D03*
X2783100Y-3115900D03*
X2743200Y-3013300D03*
X2742900Y-3083000D03*
X2743200Y-3152000D03*
X2705300Y-3185300D03*
X2782900Y-3185100D03*
X2701400Y-2677800D03*
X2899500Y-2296500D03*
X2756600Y-2283200D03*
X2734900Y-2119900D03*
X2661700Y-2085100D03*
X2661900Y-2152300D03*
X2719500Y-2069200D03*
Y-2169400D03*
X2785100Y-1722400D03*
X2734900Y-1883500D03*
X2661900Y-1857400D03*
X2662000Y-1915600D03*
X2714800Y-1828500D03*
X2714900Y-1938600D03*
X2881100Y-1722400D03*
X2883600Y-1211600D03*
X2804000Y-848800D03*
X2729100Y-1022900D03*
X2871700Y-1023100D03*
X2801400Y-976900D03*
X2738600Y-924000D03*
X2864900Y-925000D03*
X2742100Y-784500D03*
X2855500Y-785500D03*
X2708300Y-514400D03*
X2723300Y-464400D03*
X2729400Y-676900D03*
X2875400Y-675600D03*
X2799300Y-724000D03*
X2739300Y-413300D03*
X2944500Y-164900D03*
Y-304900D03*
X2777100Y-233700D03*
X2739500Y-172700D03*
X2820100Y-171900D03*
X2739900Y-313000D03*
X2821700Y-310900D03*
X3211000Y-6925000D03*
X3000900Y-6973300D03*
X3001700Y-6747400D03*
X3023600Y-6859600D03*
X3189000Y-6810000D03*
Y-6680000D03*
X3232000Y-4388700D03*
X2979600Y-4187600D03*
X3142600D03*
X3124500Y-3863500D03*
X3040200Y-3863000D03*
X3040600Y-3769100D03*
X3002700Y-3727400D03*
X3079500Y-3727600D03*
X3082500Y-3811100D03*
X3004900Y-3811200D03*
X3088000Y-3583700D03*
X3071100Y-3531500D03*
X3261300D03*
X3243900Y-3583000D03*
X3088600Y-3479000D03*
X3250500Y-3316500D03*
X3250400Y-2966300D03*
X3100300Y-2736700D03*
X3009400Y-2649200D03*
X3099300Y-2649700D03*
X3219000Y-2594500D03*
X3241000Y-2382600D03*
X2999300Y-2295500D03*
X3242000Y-2480000D03*
X3099300Y-2553700D03*
Y-2296500D03*
X3242600Y-2172600D03*
X3243000Y-2065400D03*
X3102600Y-2172200D03*
X3102900Y-2067300D03*
X3261200Y-2118900D03*
X3084900Y-2119900D03*
X3242000Y-2283200D03*
X3242900Y-1935200D03*
X3242800Y-1829200D03*
X3103400Y-1937500D03*
X3103500Y-1829800D03*
X3261200Y-1882500D03*
X3084900Y-1883500D03*
X3103700Y-1722400D03*
X3234900Y-1709600D03*
X3007700Y-1722400D03*
X3234900Y-1369600D03*
X3104700Y-1627800D03*
X3234900Y-1465600D03*
X3103700Y-1529200D03*
X3126700Y-1416700D03*
X3233100Y-1289700D03*
X2979600Y-1211600D03*
X3109100Y-1013000D03*
X3003700Y-977000D03*
X3056500Y-995100D03*
X3245300Y-515300D03*
X3261600Y-464400D03*
X3056500Y-645100D03*
X3002900Y-663500D03*
X3110800Y-625500D03*
X3073300Y-464400D03*
X3093300Y-519300D03*
X3078700Y-164900D03*
X3093400Y-409400D03*
X3078700Y-304900D03*
X3459800Y-7165000D03*
X3440000Y-6910000D03*
X3433000Y-6680000D03*
X3329000D03*
X3440000Y-6790000D03*
X3529000Y-6680000D03*
X3515900Y-6388200D03*
X3535000Y-5729000D03*
X3561300Y-5470600D03*
X3545200Y-4455200D03*
X3533200Y-4352200D03*
X3437100Y-4175300D03*
X3282600Y-4187600D03*
X3387400Y-4140200D03*
X3484700Y-4139900D03*
X3389200Y-4207300D03*
X3483500Y-4207000D03*
X3303000Y-3334200D03*
X3459800Y-3324200D03*
X3523300Y-3278700D03*
X3472900Y-3222300D03*
X3278900Y-3479300D03*
X3354400Y-3351900D03*
X3355100Y-3002100D03*
X3303000Y-2984500D03*
X3529300Y-3158000D03*
X3466200Y-2993100D03*
X3526300Y-3044600D03*
X3465400Y-3092400D03*
X3375300Y-2768400D03*
X3471300D03*
X3560100Y-2283200D03*
X3464100D03*
X3336900Y-1710600D03*
X3438500Y-1709600D03*
X3318500Y-1369900D03*
X3567100Y-984300D03*
X3566600Y-916500D03*
X3566700Y-846700D03*
X3566400Y-777700D03*
X3528800Y-1019700D03*
X3528900Y-949700D03*
X3528800Y-880000D03*
X3529000Y-810700D03*
X3529700Y-740600D03*
X3278000Y-413000D03*
X3476200Y-165000D03*
X3478000Y-304900D03*
X3312600Y-238600D03*
X3271700Y-176000D03*
X3353900Y-174700D03*
X3274600Y-309600D03*
X3358900Y-310000D03*
X3708300Y-7558500D03*
X3764500Y-7528000D03*
X3685800Y-7616100D03*
X3578100Y-7602300D03*
X3570400Y-7531000D03*
X3709000Y-7496100D03*
X3709600Y-7432400D03*
X3764700Y-7466600D03*
X3832800Y-7424000D03*
X3824800Y-7497500D03*
X3760700Y-7151400D03*
X3692500Y-7151800D03*
X3760500Y-7054800D03*
X3692300Y-7055800D03*
X3726900Y-7103000D03*
X3781900Y-6541300D03*
X3626300Y-5085000D03*
X3736800Y-5294600D03*
X3586400Y-5263500D03*
X3660900Y-5278500D03*
X3604100Y-4904800D03*
Y-4784800D03*
X3735300Y-4653500D03*
X3747300Y-4550700D03*
X3760200Y-3844000D03*
X3737600Y-3763600D03*
X3731400Y-3678000D03*
X3745100Y-3589500D03*
X3594000Y-3582600D03*
X3611300Y-3531500D03*
X3617500Y-3677700D03*
X3775200Y-3228200D03*
X3775700Y-3296000D03*
X3737500Y-3261400D03*
X3815100Y-3261500D03*
X3737400Y-3331400D03*
X3815200D03*
X3786900Y-3505200D03*
X3863900Y-3458600D03*
X3628500Y-3479800D03*
X3589700Y-3322600D03*
X3585000Y-3226400D03*
X3737600Y-2987200D03*
X3815600Y-2985500D03*
X3738300Y-3052300D03*
X3815100Y-3052500D03*
X3737600Y-3122400D03*
X3815200Y-3122300D03*
X3775300Y-3019700D03*
X3775000Y-3089400D03*
X3775300Y-3158400D03*
X3737400Y-3191700D03*
X3815000Y-3191500D03*
X3588300Y-2996500D03*
X3585600Y-3095800D03*
X3734400Y-2677500D03*
X3789400Y-2283200D03*
X3611200Y-2118900D03*
X3759600Y-2119900D03*
X3685400Y-2091500D03*
X3685500Y-2149700D03*
X3628800Y-2066100D03*
X3629300Y-2172000D03*
X3741500Y-2066600D03*
X3741800Y-2172500D03*
X3808300Y-1722400D03*
X3585900D03*
X3611200Y-1882500D03*
X3759600Y-1883500D03*
X3685400Y-1854900D03*
Y-1911700D03*
X3628900Y-1829200D03*
X3629200Y-1935100D03*
X3741400Y-1830100D03*
X3741500Y-1936700D03*
X3645500Y-1348100D03*
X3606600Y-1019700D03*
X3606500Y-949800D03*
X3606400Y-879800D03*
X3606600Y-810600D03*
X3828700Y-848800D03*
X3757000Y-1022200D03*
X3764400Y-783100D03*
X3763600Y-926900D03*
X3823900Y-974500D03*
X3606500Y-740800D03*
X3762100Y-459200D03*
X3838900Y-506000D03*
X3611600Y-464400D03*
X3755700Y-675800D03*
X3826400Y-732800D03*
X3631600Y-519300D03*
X3757100Y-146500D03*
X3733300Y-216200D03*
X3733400Y-298600D03*
X3733700Y-384500D03*
X3613300Y-165000D03*
X3615100Y-304900D03*
X3591700Y-409200D03*
X4126200Y-7442400D03*
X4095600Y-7249800D03*
X4099400Y-7157400D03*
X4129100Y-7201900D03*
X4128200Y-6992500D03*
X3965900Y-6680000D03*
X4127500Y-6786000D03*
X3916900Y-6863000D03*
X4124300Y-6371100D03*
X4127500Y-6578800D03*
X4124300Y-6161100D03*
X4125000Y-5710100D03*
X4124300Y-5955300D03*
X4124900Y-5578700D03*
X4124400Y-5378500D03*
X4126200Y-5164400D03*
X4124900Y-4957100D03*
X3954100Y-4890400D03*
X3958300Y-3438600D03*
X4057600Y-3437700D03*
X4141200Y-3470900D03*
X4136100Y-2736500D03*
X4044000Y-2649200D03*
X4134500Y-2649700D03*
X4035500Y-2295500D03*
X4134500Y-2553700D03*
Y-2296500D03*
X3937400D03*
X4127600Y-2173100D03*
X4127200Y-2067200D03*
X4109600Y-2119900D03*
X4127600Y-1936200D03*
Y-1829900D03*
X4109600Y-1883500D03*
X4129200Y-1722400D03*
X3904300D03*
X4130200Y-1627800D03*
X4152200Y-1416700D03*
X4129200Y-1529200D03*
X4002500Y-1212900D03*
X3906500D03*
X4133500Y-1011400D03*
X4030200Y-977500D03*
X4082500Y-995100D03*
X3901400Y-1021700D03*
X3890400Y-785100D03*
X3884900Y-926400D03*
X4143700Y-518900D03*
X4082500Y-645100D03*
X3902800Y-673300D03*
X4137700Y-625100D03*
X4027400Y-665100D03*
X4476100Y-7357300D03*
X4478200Y-6992500D03*
X4478800Y-7201800D03*
X4477500Y-6786000D03*
Y-6578800D03*
X4474300Y-6371100D03*
X4474800Y-6162100D03*
X4474300Y-5955300D03*
X4474000Y-5707200D03*
D03*
X4474300Y-5578900D03*
X4475300Y-5298100D03*
X4475700Y-5168000D03*
X4474600Y-4950100D03*
X4475100Y-4680200D03*
X4477940Y-3307030D03*
X4477500Y-2204300D03*
X4476600Y-1891200D03*
X4439300Y-1838600D03*
X4440000Y-1942700D03*
X4763900Y-6919100D03*
Y-7199100D03*
X4668900Y-6919100D03*
X4738200Y-6789000D03*
X4642200D03*
X4763900Y-6659100D03*
X4668900D03*
X4763900Y-6379100D03*
X4668900D03*
X4620300Y-6060500D03*
Y-5854300D03*
Y-5957700D03*
X4668400Y-5760100D03*
Y-5449200D03*
Y-4924100D03*
X4665900Y-4616900D03*
X4771000Y-2904000D03*
Y-2604000D03*
Y-2804000D03*
Y-2704000D03*
Y-2304000D03*
Y-2404000D03*
Y-2504000D03*
X4721200Y-1907600D03*
X4669300Y-1880500D03*
X4669200Y-1934900D03*
X4772300Y-1881400D03*
X4770500Y-1931400D03*
X4513700Y-1839300D03*
X4512500Y-1942100D03*
X4721200Y-838600D03*
X4671300Y-814600D03*
X4769300Y-815000D03*
X4671700Y-861800D03*
X4769400Y-862300D03*
X4916000Y-7393200D03*
X5101800Y-7504300D03*
X4927200Y-7504900D03*
X4858900Y-6919100D03*
X5025200Y-7049000D03*
X5025000Y-6968000D03*
X5053000Y-7215000D03*
X5019500Y-6634900D03*
X5024900Y-6875500D03*
X4858900Y-6659100D03*
X5006200Y-6445500D03*
Y-6349500D03*
X4858900Y-6379100D03*
X5007000Y-5887700D03*
X5049500Y-4372400D03*
X4953500D03*
X4949900Y-4176500D03*
X4979800Y-3825900D03*
X5089900Y-3310800D03*
X5018200Y-2117600D03*
X4997200Y-1621600D03*
Y-1121600D03*
Y-1021600D03*
Y-921600D03*
X5000800Y-661300D03*
X4929800Y-180200D03*
X4951800Y-289300D03*
X4952800Y-393000D03*
X5048800D03*
X5047800Y-289300D03*
X5069800Y-240300D03*
X5226900Y-7623400D03*
Y-7783400D03*
X5397800D03*
Y-7623400D03*
X5399600Y-7699200D03*
X5130100Y-7392200D03*
X5149000Y-7215000D03*
X5378000Y-7058000D03*
X5175000Y-6968000D03*
X5179500Y-6634900D03*
X5300000Y-6300000D03*
X5378000Y-6463000D03*
X5313000D03*
X5200300Y-6250600D03*
X5150300Y-6222900D03*
X5152100Y-4372400D03*
X5292100D03*
X5220000Y-4171900D03*
X5419100Y-4173700D03*
X5224100Y-3823500D03*
X5331300Y-3618700D03*
X5231900Y-2957400D03*
X5352800Y-2935300D03*
X5152300Y-2809400D03*
X5176600Y-2639100D03*
X5376600D03*
X5351600Y-2834400D03*
X5228900Y-2714800D03*
X5349400Y-2735600D03*
X5269200Y-2836100D03*
X5294800Y-2097800D03*
X5178200Y-2117600D03*
X5405100Y-1667200D03*
X5189400Y-1095000D03*
X5402200Y-1354200D03*
X5281900Y-1342200D03*
X5203300Y-786200D03*
X5346500Y-917900D03*
X5189400Y-894600D03*
X5339800Y-797200D03*
Y-657200D03*
X5203300Y-666200D03*
X5255200Y-518600D03*
X5227500Y-177100D03*
X5255200Y-423600D03*
X5367500Y-177100D03*
X5255200Y-328600D03*
X5569800Y-7783400D03*
Y-7623400D03*
X5571000Y-7701100D03*
X5508000Y-7058000D03*
X5573000D03*
X5703000D03*
X5476600Y-6708400D03*
X5590000Y-6819200D03*
X5475600Y-6821300D03*
X5592100Y-6696000D03*
X5540000Y-6760000D03*
X5703000Y-6463000D03*
X5573000D03*
X5507900Y-6570700D03*
X5711900Y-4372400D03*
X5574200Y-4190900D03*
X5426500Y-3823700D03*
X5428100Y-3619700D03*
X5527300Y-3618700D03*
X5623100D03*
X5644800Y-3825700D03*
X5527300Y-3401700D03*
X5552900Y-3009400D03*
X5469800Y-2958300D03*
X5465500Y-2716500D03*
X5430000Y-2834800D03*
X5521900Y-2216100D03*
X5515900Y-1777100D03*
Y-1973400D03*
X5611900D03*
Y-1777100D03*
X5599200Y-1450200D03*
X5515900Y-1666500D03*
X5611900D03*
X5515900Y-1570500D03*
X5440500Y-1207900D03*
X5500800Y-1354200D03*
X5556900Y-775200D03*
X5457700Y-678200D03*
X5562800Y-177100D03*
X5545200Y-329600D03*
X5466800Y-177100D03*
X5545200Y-329600D03*
X5742900Y-7783400D03*
Y-7623400D03*
X5743700Y-7701900D03*
X5915200Y-7783400D03*
Y-7623400D03*
X5915700Y-7701200D03*
X5905000Y-6972000D03*
X5880000Y-7215000D03*
X6020000Y-6690000D03*
X5880000D03*
X5768000Y-6463000D03*
X6020000Y-6560000D03*
Y-6430000D03*
X5880000Y-6560000D03*
Y-6430000D03*
X5780000Y-6300000D03*
X6014800Y-4372400D03*
X5864700Y-4187700D03*
X6033500Y-3823900D03*
X5924100Y-3619700D03*
X6024900Y-3629900D03*
Y-3539900D03*
X5751100Y-2958700D03*
X6010100Y-3065900D03*
X5978500Y-3021600D03*
Y-3112600D03*
X5847100Y-2833400D03*
X5752100Y-2638400D03*
X5847100Y-2734500D03*
X5751100D03*
Y-2833400D03*
X5812000Y-2460000D03*
Y-2380000D03*
Y-2300000D03*
X5892000Y-2460000D03*
Y-2380000D03*
Y-2300000D03*
X5972000Y-2460000D03*
Y-2380000D03*
Y-2300000D03*
X5812000Y-2220000D03*
Y-2140000D03*
Y-2060000D03*
Y-1980000D03*
X5892000Y-2220000D03*
Y-2140000D03*
Y-2060000D03*
Y-1980000D03*
X5972000Y-2220000D03*
Y-2140000D03*
Y-2060000D03*
Y-1980000D03*
X5767100Y-2021500D03*
X5812000Y-1900000D03*
Y-1820000D03*
Y-1740000D03*
X5892000Y-1900000D03*
Y-1820000D03*
Y-1740000D03*
X5972000Y-1900000D03*
Y-1820000D03*
Y-1740000D03*
X5812000Y-1660000D03*
Y-1580000D03*
Y-1500000D03*
Y-1420000D03*
X5892000Y-1660000D03*
Y-1580000D03*
Y-1500000D03*
Y-1420000D03*
X5972000Y-1660000D03*
Y-1580000D03*
Y-1500000D03*
Y-1420000D03*
X5812000Y-1340000D03*
Y-1260000D03*
Y-1180000D03*
X5892000Y-1340000D03*
Y-1260000D03*
Y-1180000D03*
X5972000Y-1340000D03*
Y-1260000D03*
Y-1180000D03*
X6261400Y-7623400D03*
Y-7783400D03*
X6087300D03*
Y-7623400D03*
X6088400Y-7701900D03*
X6297300Y-7504300D03*
X6164600D03*
X6199000Y-7215000D03*
X6214500Y-7050000D03*
X6215000Y-6968000D03*
X6056800Y-7055100D03*
X6055000Y-6972000D03*
X6313000Y-7215000D03*
X6109000Y-6690000D03*
X6214000Y-6881900D03*
X6054700Y-6893800D03*
X6249000Y-6690000D03*
X6229000Y-6300000D03*
X6110000Y-6560000D03*
Y-6430000D03*
X6133000Y-6300000D03*
X6250000Y-6430000D03*
Y-6560000D03*
X6182500Y-6008800D03*
X6149900Y-4372400D03*
X6245900D03*
X6228000Y-3627400D03*
X6138000D03*
X6136000Y-3527800D03*
X6245200Y-3825900D03*
X6232000Y-3236700D03*
Y-3332000D03*
X6136000D03*
Y-3236700D03*
Y-3428700D03*
X6040700Y-3020300D03*
X6042400Y-3113400D03*
X6133100Y-2646800D03*
X6200100Y-2825900D03*
X6167000Y-2777500D03*
X6229400Y-2779500D03*
X6167500Y-2871300D03*
X6232500Y-2872000D03*
X6052000Y-2460000D03*
Y-2380000D03*
Y-2300000D03*
X6132000Y-2460000D03*
Y-2380000D03*
Y-2300000D03*
X6212000Y-2460000D03*
Y-2380000D03*
Y-2300000D03*
X6292000Y-2460000D03*
Y-2380000D03*
Y-2300000D03*
X6052000Y-2220000D03*
Y-2140000D03*
Y-2060000D03*
Y-1980000D03*
X6132000Y-2220000D03*
Y-2140000D03*
Y-2060000D03*
Y-1980000D03*
X6212000Y-2220000D03*
Y-2140000D03*
Y-2060000D03*
Y-1980000D03*
X6292000Y-2220000D03*
Y-2140000D03*
Y-2060000D03*
Y-1980000D03*
X6052000Y-1900000D03*
Y-1820000D03*
Y-1740000D03*
X6132000Y-1900000D03*
Y-1820000D03*
Y-1740000D03*
X6212000Y-1900000D03*
Y-1820000D03*
Y-1740000D03*
X6292000Y-1900000D03*
Y-1820000D03*
Y-1740000D03*
X6052000Y-1660000D03*
Y-1580000D03*
Y-1500000D03*
Y-1420000D03*
X6132000Y-1660000D03*
Y-1580000D03*
Y-1500000D03*
Y-1420000D03*
X6212000Y-1660000D03*
Y-1580000D03*
Y-1500000D03*
Y-1420000D03*
X6292000Y-1660000D03*
Y-1580000D03*
Y-1500000D03*
Y-1420000D03*
X6052000Y-1340000D03*
Y-1260000D03*
Y-1180000D03*
X6132000Y-1340000D03*
Y-1260000D03*
Y-1180000D03*
X6212000Y-1340000D03*
Y-1260000D03*
Y-1180000D03*
X6292000Y-1340000D03*
Y-1260000D03*
Y-1180000D03*
X6185300Y-546800D03*
X6435000Y-7783400D03*
Y-7623400D03*
X6610300Y-7783400D03*
Y-7623400D03*
X6409000Y-7215000D03*
X6578000Y-7058000D03*
X6643000D03*
X6360500Y-6406000D03*
X6500000Y-6300000D03*
X6360500Y-6546000D03*
X6349600Y-5690300D03*
X6608500Y-5855000D03*
X6630500Y-5738600D03*
X6353500Y-5440300D03*
X6455000Y-3823900D03*
X6590000Y-3330000D03*
X6508300Y-3249900D03*
X6511600Y-3407200D03*
X6583900Y-3259200D03*
X6589400Y-3402700D03*
X6517900Y-3331600D03*
X6614700Y-2957000D03*
X6518100Y-2956000D03*
X6614700Y-2861000D03*
X6373500Y-2860000D03*
X6601900Y-2738000D03*
X6378600D03*
X6372000Y-2460000D03*
Y-2380000D03*
Y-2300000D03*
X6452000Y-2460000D03*
Y-2380000D03*
Y-2300000D03*
X6532000Y-2460000D03*
Y-2380000D03*
Y-2300000D03*
X6612000Y-2460000D03*
Y-2380000D03*
Y-2300000D03*
X6372000Y-2220000D03*
Y-2140000D03*
Y-2060000D03*
Y-1980000D03*
X6452000Y-2220000D03*
Y-2140000D03*
Y-2060000D03*
Y-1980000D03*
X6532000Y-2220000D03*
Y-2140000D03*
Y-2060000D03*
Y-1980000D03*
X6612000Y-2220000D03*
Y-2140000D03*
Y-2060000D03*
Y-1980000D03*
X6372000Y-1900000D03*
Y-1820000D03*
Y-1740000D03*
X6452000Y-1900000D03*
Y-1820000D03*
Y-1740000D03*
X6532000Y-1900000D03*
Y-1820000D03*
Y-1740000D03*
X6612000Y-1900000D03*
Y-1820000D03*
Y-1740000D03*
X6372000Y-1660000D03*
Y-1580000D03*
Y-1500000D03*
Y-1420000D03*
X6452000Y-1660000D03*
Y-1580000D03*
Y-1500000D03*
Y-1420000D03*
X6532000Y-1660000D03*
Y-1580000D03*
Y-1500000D03*
Y-1420000D03*
X6612000Y-1660000D03*
Y-1580000D03*
Y-1500000D03*
Y-1420000D03*
X6372000Y-1340000D03*
Y-1260000D03*
Y-1180000D03*
X6452000Y-1340000D03*
Y-1260000D03*
Y-1180000D03*
X6532000Y-1340000D03*
Y-1260000D03*
Y-1180000D03*
X6612000Y-1340000D03*
Y-1260000D03*
Y-1180000D03*
X6650000Y-300000D03*
X6708000Y-7058000D03*
X6903000D03*
X6838000D03*
X6673400Y-6706600D03*
X6678600Y-6820300D03*
X6795100Y-6821100D03*
X6798200Y-6698900D03*
X6740000Y-6760000D03*
X6708000Y-6570700D03*
X6773000Y-6463000D03*
X6680000Y-6144400D03*
Y-5984400D03*
X6872000Y-6085000D03*
X6748500Y-5855000D03*
X6871000D03*
X6850000Y-5970000D03*
X6726500Y-5738600D03*
X6750600Y-5408200D03*
Y-5312200D03*
X6811000Y-4776900D03*
X6799000Y-4988300D03*
Y-4889600D03*
X6821000Y-4646300D03*
X6681000D03*
X6928200Y-3617300D03*
X6875000Y-3823900D03*
X6665000D03*
X6939200Y-3516500D03*
X6928200Y-3224500D03*
X6666700Y-3250600D03*
X6667800Y-3410200D03*
X6660800Y-3331600D03*
X6712400Y-2957000D03*
Y-2861000D03*
X6825000Y-2738000D03*
X6692000Y-2460000D03*
Y-2380000D03*
Y-2300000D03*
X6772000Y-2460000D03*
Y-2380000D03*
Y-2300000D03*
X6852000Y-2460000D03*
Y-2380000D03*
Y-2300000D03*
X6932000Y-2460000D03*
Y-2380000D03*
Y-2300000D03*
X6692000Y-2220000D03*
Y-2140000D03*
Y-2060000D03*
Y-1980000D03*
X6772000Y-2220000D03*
Y-2140000D03*
Y-2060000D03*
Y-1980000D03*
X6852000Y-2220000D03*
Y-2140000D03*
Y-2060000D03*
Y-1980000D03*
X6932000Y-2220000D03*
Y-2140000D03*
Y-2060000D03*
Y-1980000D03*
X6692000Y-1900000D03*
Y-1820000D03*
Y-1740000D03*
X6772000Y-1900000D03*
Y-1820000D03*
Y-1740000D03*
X6852000Y-1900000D03*
Y-1820000D03*
Y-1740000D03*
X6932000Y-1900000D03*
Y-1820000D03*
Y-1740000D03*
X6692000Y-1660000D03*
Y-1580000D03*
Y-1500000D03*
Y-1420000D03*
X6772000Y-1660000D03*
Y-1580000D03*
Y-1500000D03*
Y-1420000D03*
X6852000Y-1660000D03*
Y-1580000D03*
Y-1500000D03*
Y-1420000D03*
X6932000Y-1660000D03*
Y-1580000D03*
Y-1500000D03*
Y-1420000D03*
X6692000Y-1340000D03*
Y-1260000D03*
Y-1180000D03*
X6772000Y-1340000D03*
Y-1260000D03*
Y-1180000D03*
X6852000Y-1340000D03*
Y-1260000D03*
Y-1180000D03*
X6932000Y-1340000D03*
Y-1260000D03*
Y-1180000D03*
X7136500Y-7623400D03*
Y-7783400D03*
X6961900D03*
Y-7623400D03*
X7100500Y-7320700D03*
X7173200Y-7504300D03*
X7040500D03*
X7265700Y-7054600D03*
X7265000Y-6972000D03*
X6968000Y-7058000D03*
X7264200Y-6888100D03*
X7080000Y-6690000D03*
X7220000D03*
X6968000Y-6463000D03*
X6980000Y-6300000D03*
X7080000Y-6560000D03*
Y-6430000D03*
X7220000Y-6560000D03*
Y-6430000D03*
X7115000Y-6064000D03*
X6968000Y-6085000D03*
X6990000Y-5970000D03*
X7175000Y-5583000D03*
X7085000Y-3823900D03*
X7035200Y-3516500D03*
Y-3028800D03*
X7035400Y-3123300D03*
X7154900Y-2844400D03*
X7251500D03*
X7049000Y-2738000D03*
X7012000Y-2460000D03*
Y-2380000D03*
Y-2300000D03*
X7092000Y-2460000D03*
Y-2380000D03*
Y-2300000D03*
X7012000Y-2220000D03*
Y-2140000D03*
Y-2060000D03*
Y-1980000D03*
X7092000Y-2220000D03*
Y-2140000D03*
Y-2060000D03*
Y-1980000D03*
X7012000Y-1900000D03*
Y-1820000D03*
Y-1740000D03*
X7092000Y-1900000D03*
Y-1820000D03*
Y-1740000D03*
X7012000Y-1660000D03*
Y-1580000D03*
Y-1500000D03*
Y-1420000D03*
X7092000Y-1660000D03*
Y-1580000D03*
Y-1500000D03*
Y-1420000D03*
X7012000Y-1340000D03*
Y-1260000D03*
Y-1180000D03*
X7092000Y-1340000D03*
Y-1260000D03*
Y-1180000D03*
X7311800Y-7783400D03*
Y-7623400D03*
X7486300Y-7783400D03*
X7449000Y-6690000D03*
X7309000D03*
X7565000Y-6404600D03*
X7450000Y-6430000D03*
X7310000Y-6560000D03*
Y-6430000D03*
X7565000Y-6544600D03*
X7450000Y-6560000D03*
X7405000Y-6065000D03*
X7556000Y-6194000D03*
X7553000Y-6095000D03*
X7530000Y-5980000D03*
Y-5850000D03*
X7405000Y-5875000D03*
Y-5970000D03*
X7475000Y-5583000D03*
X7575000D03*
X7275000D03*
X7375000D03*
Y-4633000D03*
X7293400Y-3823900D03*
X7503400D03*
X7386200Y-3330600D03*
X7312900Y-3256100D03*
X7463300Y-3257400D03*
X7462000Y-3408900D03*
X7387400Y-3256200D03*
X7390900Y-3407100D03*
X7462400Y-3332200D03*
X7312100Y-3332600D03*
X7313900Y-3405500D03*
X7346200Y-2939400D03*
X7542800Y-2940400D03*
X7442400D03*
X7346200Y-2843400D03*
X7442400Y-2844400D03*
X7429400Y-397000D03*
X7525600Y-188500D03*
Y-397000D03*
X7331300D03*
X7838500Y-7783400D03*
X7662900D03*
X7845000Y-7327000D03*
X7655000Y-7167000D03*
X7854130Y-7011220D03*
X7761150Y-7033500D03*
X7667000Y-6936500D03*
X7868100Y-6849700D03*
X7670000Y-5980000D03*
Y-5850000D03*
X7875000Y-5583000D03*
X7775000D03*
X7675000D03*
Y-4633000D03*
X7726100Y-3620400D03*
X7712600Y-3823900D03*
X7737100Y-3516800D03*
X7726100Y-3224500D03*
X7833100Y-3516800D03*
Y-3028800D03*
Y-3123100D03*
X7835400Y-2882900D03*
X7740100Y-2883700D03*
X7835400Y-2786900D03*
X7740100Y-2787700D03*
X7730100Y-493000D03*
X7832900D03*
X7626200Y-397000D03*
X7832900D03*
Y-188500D03*
X7730100Y-397000D03*
X7626200Y-188500D03*
X7730100D03*
X8012800Y-7783400D03*
X7979900Y-6967000D03*
X7924850Y-7081930D03*
X7980000Y-6850000D03*
X7979800Y-6736900D03*
X8091300Y-6850000D03*
X7934600Y-6806100D03*
X8023600Y-6802800D03*
X7938400Y-6897700D03*
X8023600Y-6898600D03*
X8188000Y-6420000D03*
X8085000Y-6065000D03*
X8188000Y-6260000D03*
X8085000Y-5970000D03*
X8175000Y-5583000D03*
X8075000D03*
X7975000D03*
Y-4633000D03*
X7922600Y-3823900D03*
X8142100Y-2883400D03*
X8015100D03*
X7933400Y-493000D03*
Y-188500D03*
Y-397000D03*
X8333000Y-7235000D03*
X8320000Y-7135000D03*
X8427000Y-7035000D03*
X8206980Y-6792720D03*
X8450000Y-6660000D03*
X8201650Y-6628350D03*
X8450000Y-6400000D03*
Y-6530000D03*
X8230000Y-6130000D03*
X8450000Y-6270000D03*
X8429000Y-6005000D03*
X8455500Y-5692300D03*
X8428000Y-5905000D03*
X8429000Y-5805000D03*
X8405000Y-5667000D03*
X8455100Y-5641000D03*
X8275000Y-5583000D03*
X8405000Y-4952000D03*
X8352700Y-4924300D03*
X8457300Y-4924500D03*
X8353900Y-4978000D03*
X8457300Y-4978500D03*
X8337700Y-4600400D03*
G54D26*
X729000Y-7803500D03*
Y-7549500D03*
X1129000Y-7803500D03*
Y-7676500D03*
Y-7549500D03*
X3170400Y-7531000D03*
Y-7658000D03*
Y-7785000D03*
X3570400Y-7531000D03*
Y-7785000D03*
G54D72*
G01X966700Y-6719500D02*
Y-6817200D01*
X905500Y-6878400D01*
X265900D01*
X204700Y-6817200D01*
Y-6719500D01*
G01X515700Y-2602100D02*
X458000D01*
X362200Y-2697900D01*
X177600D01*
G01X265000Y-2382600D02*
X368100D01*
X437600Y-2452100D01*
X515700D01*
G01X287000Y-2594500D02*
X354400D01*
X446800Y-2502100D01*
X515700D01*
G01X513200Y-1514600D02*
X433900D01*
X407800Y-1540700D01*
X282100D01*
X260900Y-1561900D01*
Y-1614600D01*
G01X729000Y-7803500D02*
X645900D01*
X609500Y-7767100D01*
Y-7561300D01*
X523500Y-7475300D01*
Y-7405600D01*
G01X965400Y-2391500D02*
Y-2444200D01*
X944600Y-2465000D01*
X832000D01*
X794900Y-2502100D01*
X715700D01*
G01X1049300Y-1282900D02*
X907800D01*
X776100Y-1414600D01*
X713200D01*
G01X937800Y-1416700D02*
X891000D01*
X793100Y-1514600D01*
X713200D01*
G01X959800Y-1627800D02*
X834100D01*
X770900Y-1564600D01*
X713200D01*
G01X1535000Y-2602100D02*
X1465300D01*
X1369500Y-2697900D01*
X1200200D01*
G01X1286300Y-2382600D02*
X1407800D01*
X1477300Y-2452100D01*
X1535000D01*
G01X1308300Y-2594500D02*
X1351000D01*
X1443400Y-2502100D01*
X1535000D01*
G01X1281800Y-1614600D02*
Y-1561900D01*
X1303700Y-1540000D01*
X1429400D01*
X1454800Y-1514600D01*
X1534000D01*
G01X1981700Y-2391500D02*
Y-2444200D01*
X1953500Y-2472400D01*
X1843900D01*
X1814200Y-2502100D01*
X1735000D01*
G01X1982900Y-1627800D02*
X1854900D01*
X1791700Y-1564600D01*
X1734000D01*
G01X1960900Y-1416700D02*
X1904900D01*
X1807000Y-1514600D01*
X1734000D01*
G01X2073400Y-1282900D02*
X1926200D01*
X1794500Y-1414600D01*
X1734000D01*
G01X2206000Y-7640300D02*
Y-7732860D01*
X2166960Y-7771900D01*
X2117900D01*
G01X2220100Y-2697900D02*
X2389900D01*
X2485600Y-2602200D01*
X2501700D01*
X2501800Y-2602100D01*
X2559500D01*
G01X2314700Y-2382600D02*
X2432300D01*
X2501800Y-2452100D01*
X2559500D01*
G01X2562500Y-1514600D02*
X2483100D01*
X2457200Y-1540500D01*
X2332500D01*
X2311100Y-1561900D01*
Y-1614600D01*
G01X2506000Y-7640300D02*
Y-7716100D01*
G01X2356000Y-7640300D02*
Y-7716100D01*
G01X2336700Y-2594500D02*
X2382100D01*
X2474600Y-2502000D01*
X2501350D01*
X2501450Y-2502100D01*
X2559500D01*
G01X2999300Y-2391500D02*
Y-2444200D01*
X2974400Y-2469100D01*
X2871600D01*
X2838600Y-2502100D01*
X2759500D01*
G01X2881100Y-1722400D02*
X3007700D01*
G01X2986700Y-1416700D02*
X2938500D01*
X2840600Y-1514600D01*
X2762500D01*
G01X3102300Y-1282900D02*
X2956800D01*
X2825100Y-1414600D01*
X2762500D01*
G01X3008700Y-1627800D02*
X2883400D01*
X2820200Y-1564600D01*
X2762500D01*
G01X3592000Y-2602100D02*
X3534300D01*
X3438500Y-2697900D01*
X3258700D01*
G01X3337000Y-2382600D02*
X3464800D01*
X3534300Y-2452100D01*
X3592000D01*
G01Y-2502100D02*
X3518700D01*
X3426300Y-2594500D01*
X3359000D01*
G01X3336900Y-1614600D02*
Y-1561900D01*
X3359200Y-1539600D01*
X3481400D01*
X3506400Y-1514600D01*
X3585800D01*
G01X3792000Y-2502100D02*
X3871400D01*
X3900100Y-2473400D01*
X4006300D01*
X4035500Y-2444200D01*
Y-2391500D01*
G01X4034200Y-1627800D02*
X3906700D01*
X3843500Y-1564600D01*
X3785800D01*
G01X4012200Y-1416700D02*
X3969500D01*
X3871600Y-1514600D01*
X3785800D01*
G01X4128000Y-1282900D02*
X3990000D01*
X3858300Y-1414600D01*
X3785800D01*
G01X4668900Y-7199100D02*
Y-7323100D01*
X4739000Y-7393200D01*
X4820000D01*
G01X5050300Y-6130200D02*
Y-6052500D01*
X5039800Y-6042000D01*
X5038900D01*
X5019500Y-6022600D01*
X4919800D01*
X4881900Y-6060500D01*
X4716300D01*
G01X4859900Y-5790200D02*
X4776200D01*
X4760500Y-5805900D01*
Y-5841800D01*
X4748000Y-5854300D01*
X4716300D01*
G01X4858900Y-7199100D02*
Y-7281800D01*
X4886700Y-7309600D01*
X4999200D01*
X5034100Y-7344500D01*
Y-7392200D01*
G01X4968860Y-5839430D02*
Y-5818460D01*
X4940600Y-5790200D01*
X4859900D01*
G01X5050700Y-4550000D02*
Y-4659300D01*
G01X5067600Y-2412800D02*
Y-2493000D01*
X5094600Y-2520000D01*
Y-2659400D01*
G01Y-2809400D02*
X5152300D01*
G01X5309100Y-1667200D02*
X5217400D01*
X5171800Y-1621600D01*
X4997200D01*
G01Y-1021600D02*
X5094900D01*
X5120100Y-996400D01*
Y-602600D01*
X5050800Y-533300D01*
Y-513300D01*
G01X4950800Y-661300D02*
Y-742500D01*
X4997200Y-788900D01*
Y-921600D01*
G01X5150300Y-6222900D02*
Y-6130200D01*
G01X5176600Y-3084400D02*
Y-3226500D01*
X5207100Y-3257000D01*
Y-3304700D01*
G01Y-3400700D02*
X5254800D01*
X5269400Y-3386100D01*
Y-3324900D01*
X5288600Y-3305700D01*
X5331300D01*
G01X5176600Y-2581400D02*
Y-2639100D01*
G01X5376600Y-2581400D02*
Y-2639100D01*
G01X5276600Y-2581400D02*
Y-2520900D01*
X5288700Y-2508800D01*
Y-2412800D01*
G01X5226600Y-2581400D02*
Y-2523000D01*
X5207600Y-2504000D01*
Y-2412800D01*
G01X5308800Y-1570800D02*
Y-1613500D01*
X5309100Y-1613800D01*
Y-1667200D01*
G01X5807900Y-4372400D02*
Y-4420100D01*
X5785600Y-4442400D01*
X5723800D01*
X5700700Y-4465500D01*
Y-4550000D01*
G01X5539200Y-4340600D02*
Y-4422400D01*
X5554200Y-4437400D01*
X5576070D01*
X5600700Y-4462030D01*
Y-4550000D01*
G01X5610600Y-3009400D02*
X5552900D01*
G01X5426600Y-2581400D02*
Y-2472600D01*
X5428700Y-2470500D01*
Y-2412800D01*
G01X5807900Y-4372400D02*
X5918800D01*
G01X5961800Y-2638600D02*
X5929100D01*
X5928900Y-2638400D01*
X5848100D01*
G01X6373500Y-2956000D02*
X6325800D01*
X6308500Y-2938700D01*
Y-2701000D01*
X6254300Y-2646800D01*
X6133100D01*
G01X6373500Y-2956000D02*
Y-3008700D01*
X6316300Y-3065900D01*
X6200100D01*
G01X6939400Y-3123300D02*
X6880400D01*
X6865500Y-3138200D01*
Y-3185200D01*
X6845700Y-3205000D01*
X6793000D01*
G01X7889490Y-7046580D02*
X7845000Y-7091070D01*
Y-7231000D01*
G01X7655000Y-7071000D02*
Y-7018300D01*
X7683300Y-6990000D01*
X7733930D01*
X7783420Y-6940510D01*
G01X7818780Y-6975870D02*
X7761150Y-7033500D01*
G01X7667000Y-6936500D02*
X7716720D01*
X7748070Y-6905150D01*
G01X8085000Y-6065000D02*
X8004200D01*
X7934300Y-5995100D01*
Y-5925900D01*
X7882400Y-5874000D01*
X7795000D01*
G01X8037980Y-7084760D02*
X8088220Y-7135000D01*
X8320000D01*
G01X8179400Y-6943340D02*
X8271060Y-7035000D01*
X8331000D01*
G01X8201650Y-6628350D02*
X8173540Y-6656460D01*
Y-6691820D01*
X8139810Y-6725550D01*
G01X8069100Y-6654840D02*
X8193940Y-6530000D01*
X8310000D01*
G01X8175160Y-6760900D02*
X8276060Y-6660000D01*
X8310000D01*
G54D18*
X177600Y-2837900D03*
Y-2697900D03*
X836900Y-5416900D03*
Y-5276900D03*
X1028900Y-3817700D03*
Y-3677700D03*
X1049300Y-1142900D03*
Y-1282900D03*
X1047900Y-304900D03*
Y-164900D03*
X915800Y-304900D03*
Y-164900D03*
X1200200Y-2837900D03*
Y-2697900D03*
X1662700Y-7046900D03*
Y-6906900D03*
X1854700Y-3817700D03*
Y-3677700D03*
X1938800Y-304900D03*
Y-164900D03*
X2220100Y-2837900D03*
Y-2697900D03*
X2073400Y-1142900D03*
Y-1282900D03*
X2072100Y-304900D03*
Y-164900D03*
X2861600Y-3817700D03*
Y-3677700D03*
X2944500Y-304900D03*
Y-164900D03*
X3258700Y-2837900D03*
Y-2697900D03*
X3102300Y-1142900D03*
Y-1282900D03*
X3078700Y-304900D03*
Y-164900D03*
X3476200Y-305000D03*
Y-165000D03*
X3617500Y-3817700D03*
Y-3677700D03*
X3613300Y-305000D03*
Y-165000D03*
X3954100Y-4750400D03*
Y-4890400D03*
X4128000Y-1142900D03*
Y-1282900D03*
X4969900Y-3007900D03*
Y-2867900D03*
Y-2647300D03*
Y-2787300D03*
X5189400Y-1095000D03*
Y-1235000D03*
X5339800Y-797200D03*
Y-657200D03*
X6360500Y-6546000D03*
Y-6406000D03*
X7565000Y-6544600D03*
Y-6404600D03*
G54D27*
X769700Y-6117300D03*
X770700Y-5827300D03*
X959700Y-6117300D03*
X865700Y-5827300D03*
X960700D03*
X1422600Y-7164800D03*
X1306700Y-7021200D03*
X1307700Y-6731200D03*
X1402700D03*
X1542600Y-7164800D03*
X1496700Y-7021200D03*
X1497700Y-6731200D03*
X5345500Y-1207900D03*
X5346500Y-917900D03*
X5535500Y-1207900D03*
X5440500D03*
X5536500Y-917900D03*
X6691000Y-4776900D03*
X6811000D03*
G54D54*
X5050800Y-513300D03*
Y-661300D03*
X5000800Y-513300D03*
Y-661300D03*
X4950800Y-513300D03*
Y-661300D03*
X6465000Y-3534000D03*
X6515000D03*
X6565000D03*
X6615000D03*
X6465000Y-3127000D03*
X6515000D03*
X6565000D03*
X6615000D03*
X6665000Y-3534000D03*
X6715000D03*
X6665000Y-3127000D03*
X6715000D03*
X7265000Y-3534000D03*
Y-3127000D03*
X7315000Y-3534000D03*
X7365000D03*
X7415000D03*
X7465000D03*
X7515000D03*
X7315000Y-3127000D03*
X7365000D03*
X7415000D03*
X7465000D03*
X7515000D03*
G54D45*
X4495000Y-3290000D03*
Y-2221000D03*
X4721200Y-1907600D03*
Y-838600D03*
G54D36*
X1232000Y-6488700D03*
Y-6388700D03*
Y-6288700D03*
X1332000Y-6488700D03*
Y-6388700D03*
Y-6288700D03*
X1232000Y-6188700D03*
Y-6088700D03*
Y-5988700D03*
X1332000Y-6188700D03*
Y-6088700D03*
Y-5988700D03*
X1232000Y-5888700D03*
Y-5788700D03*
Y-5688700D03*
X1332000Y-5888700D03*
Y-5788700D03*
Y-5688700D03*
X1232000Y-5588700D03*
Y-5488700D03*
Y-5388700D03*
X1332000Y-5588700D03*
Y-5488700D03*
Y-5388700D03*
X1232000Y-5288700D03*
Y-5188700D03*
Y-5088700D03*
X1332000Y-5288700D03*
Y-5188700D03*
Y-5088700D03*
X1232000Y-4988700D03*
Y-4888700D03*
Y-4788700D03*
X1332000Y-4988700D03*
Y-4888700D03*
Y-4788700D03*
X1232000Y-4688700D03*
Y-4588700D03*
Y-4488700D03*
X1332000Y-4688700D03*
Y-4588700D03*
Y-4488700D03*
X1232000Y-4388700D03*
X1332000D03*
X1432000Y-6488700D03*
Y-6388700D03*
Y-6288700D03*
X1532000Y-6488700D03*
Y-6388700D03*
Y-6288700D03*
X1632000Y-6488700D03*
Y-6388700D03*
Y-6288700D03*
X1732000Y-6488700D03*
Y-6388700D03*
Y-6288700D03*
X1432000Y-6188700D03*
Y-6088700D03*
Y-5988700D03*
X1532000Y-6188700D03*
Y-6088700D03*
Y-5988700D03*
X1632000Y-6188700D03*
Y-6088700D03*
Y-5988700D03*
X1732000Y-6188700D03*
Y-6088700D03*
Y-5988700D03*
X1432000Y-5888700D03*
Y-5788700D03*
Y-5688700D03*
X1532000Y-5888700D03*
Y-5788700D03*
Y-5688700D03*
X1632000Y-5888700D03*
Y-5788700D03*
Y-5688700D03*
X1732000Y-5888700D03*
Y-5788700D03*
Y-5688700D03*
X1432000Y-5588700D03*
Y-5488700D03*
Y-5388700D03*
X1532000Y-5588700D03*
Y-5488700D03*
Y-5388700D03*
X1632000Y-5588700D03*
Y-5488700D03*
Y-5388700D03*
X1732000Y-5588700D03*
Y-5488700D03*
Y-5388700D03*
X1432000Y-5288700D03*
Y-5188700D03*
Y-5088700D03*
X1532000Y-5288700D03*
Y-5188700D03*
Y-5088700D03*
X1632000Y-5288700D03*
Y-5188700D03*
Y-5088700D03*
X1732000Y-5288700D03*
Y-5188700D03*
Y-5088700D03*
X1432000Y-4988700D03*
Y-4888700D03*
Y-4788700D03*
X1532000Y-4988700D03*
Y-4888700D03*
Y-4788700D03*
X1632000Y-4988700D03*
Y-4888700D03*
Y-4788700D03*
X1732000Y-4988700D03*
Y-4888700D03*
Y-4788700D03*
X1432000Y-4688700D03*
Y-4588700D03*
Y-4488700D03*
X1532000Y-4688700D03*
Y-4588700D03*
Y-4488700D03*
X1632000Y-4688700D03*
Y-4588700D03*
Y-4488700D03*
X1732000Y-4688700D03*
Y-4588700D03*
Y-4488700D03*
X1432000Y-4388700D03*
X1532000D03*
X1632000D03*
X1732000D03*
X1832000Y-6488700D03*
Y-6388700D03*
Y-6288700D03*
X1932000Y-6488700D03*
Y-6388700D03*
Y-6288700D03*
X2032000Y-6488700D03*
Y-6388700D03*
Y-6288700D03*
X1832000Y-6188700D03*
Y-6088700D03*
Y-5988700D03*
X1932000Y-6188700D03*
Y-6088700D03*
Y-5988700D03*
X2032000Y-6188700D03*
Y-6088700D03*
Y-5988700D03*
X1832000Y-5888700D03*
Y-5788700D03*
Y-5688700D03*
X1932000Y-5888700D03*
Y-5788700D03*
Y-5688700D03*
X2032000Y-5888700D03*
Y-5788700D03*
Y-5688700D03*
X1832000Y-5588700D03*
Y-5488700D03*
Y-5388700D03*
X1932000Y-5588700D03*
Y-5488700D03*
Y-5388700D03*
X2032000Y-5588700D03*
Y-5488700D03*
Y-5388700D03*
X1832000Y-5288700D03*
Y-5188700D03*
Y-5088700D03*
X1932000Y-5288700D03*
Y-5188700D03*
Y-5088700D03*
X2032000Y-5288700D03*
Y-5188700D03*
Y-5088700D03*
X1832000Y-4988700D03*
Y-4888700D03*
Y-4788700D03*
X1932000Y-4988700D03*
Y-4888700D03*
Y-4788700D03*
X2032000Y-4988700D03*
Y-4888700D03*
Y-4788700D03*
X1832000Y-4688700D03*
Y-4588700D03*
Y-4488700D03*
X1932000Y-4688700D03*
Y-4588700D03*
Y-4488700D03*
X2032000Y-4688700D03*
Y-4588700D03*
Y-4488700D03*
X1832000Y-4388700D03*
X1932000D03*
X2032000D03*
X2132000Y-6488700D03*
Y-6388700D03*
Y-6288700D03*
X2232000Y-6488700D03*
Y-6388700D03*
Y-6288700D03*
X2332000Y-6488700D03*
Y-6388700D03*
Y-6288700D03*
X2132000Y-6188700D03*
Y-6088700D03*
Y-5988700D03*
X2232000Y-6188700D03*
Y-6088700D03*
Y-5988700D03*
X2332000Y-6188700D03*
Y-6088700D03*
Y-5988700D03*
X2132000Y-5888700D03*
Y-5788700D03*
Y-5688700D03*
X2232000Y-5888700D03*
Y-5788700D03*
Y-5688700D03*
X2332000Y-5888700D03*
Y-5788700D03*
Y-5688700D03*
X2132000Y-5588700D03*
Y-5488700D03*
Y-5388700D03*
X2232000Y-5588700D03*
Y-5488700D03*
Y-5388700D03*
X2332000Y-5588700D03*
Y-5488700D03*
Y-5388700D03*
X2132000Y-5288700D03*
Y-5188700D03*
Y-5088700D03*
X2232000Y-5288700D03*
Y-5188700D03*
Y-5088700D03*
X2332000Y-5288700D03*
Y-5188700D03*
Y-5088700D03*
X2132000Y-4988700D03*
Y-4888700D03*
Y-4788700D03*
X2232000Y-4988700D03*
Y-4888700D03*
Y-4788700D03*
X2332000Y-4988700D03*
Y-4888700D03*
Y-4788700D03*
X2132000Y-4688700D03*
Y-4588700D03*
Y-4488700D03*
X2232000Y-4688700D03*
Y-4588700D03*
Y-4488700D03*
X2332000Y-4688700D03*
Y-4588700D03*
Y-4488700D03*
X2132000Y-4388700D03*
X2232000D03*
X2332000D03*
X2432000Y-6488700D03*
Y-6388700D03*
Y-6288700D03*
X2532000Y-6488700D03*
Y-6388700D03*
Y-6288700D03*
X2632000Y-6488700D03*
Y-6388700D03*
Y-6288700D03*
X2432000Y-6188700D03*
Y-6088700D03*
Y-5988700D03*
X2532000Y-6188700D03*
Y-6088700D03*
Y-5988700D03*
X2632000Y-6188700D03*
Y-6088700D03*
Y-5988700D03*
X2432000Y-5888700D03*
Y-5788700D03*
Y-5688700D03*
X2532000Y-5888700D03*
Y-5788700D03*
Y-5688700D03*
X2632000Y-5888700D03*
Y-5788700D03*
Y-5688700D03*
X2432000Y-5588700D03*
Y-5488700D03*
Y-5388700D03*
X2532000Y-5588700D03*
Y-5488700D03*
Y-5388700D03*
X2632000Y-5588700D03*
Y-5488700D03*
Y-5388700D03*
X2432000Y-5288700D03*
Y-5188700D03*
Y-5088700D03*
X2532000Y-5288700D03*
Y-5188700D03*
Y-5088700D03*
X2632000Y-5288700D03*
Y-5188700D03*
Y-5088700D03*
X2432000Y-4988700D03*
Y-4888700D03*
Y-4788700D03*
X2532000Y-4988700D03*
Y-4888700D03*
Y-4788700D03*
X2632000Y-4988700D03*
Y-4888700D03*
Y-4788700D03*
X2432000Y-4688700D03*
Y-4588700D03*
Y-4488700D03*
X2532000Y-4688700D03*
Y-4588700D03*
Y-4488700D03*
X2632000Y-4688700D03*
Y-4588700D03*
Y-4488700D03*
X2432000Y-4388700D03*
X2532000D03*
X2632000D03*
X2732000Y-6488700D03*
Y-6388700D03*
Y-6288700D03*
X2832000Y-6488700D03*
Y-6388700D03*
Y-6288700D03*
X2932000Y-6488700D03*
Y-6388700D03*
Y-6288700D03*
X2732000Y-6188700D03*
Y-6088700D03*
Y-5988700D03*
X2832000Y-6188700D03*
Y-6088700D03*
Y-5988700D03*
X2932000Y-6188700D03*
Y-6088700D03*
Y-5988700D03*
X2732000Y-5888700D03*
Y-5788700D03*
Y-5688700D03*
X2832000Y-5888700D03*
Y-5788700D03*
Y-5688700D03*
X2932000Y-5888700D03*
Y-5788700D03*
Y-5688700D03*
X2732000Y-5588700D03*
Y-5488700D03*
Y-5388700D03*
X2832000Y-5588700D03*
Y-5488700D03*
Y-5388700D03*
X2932000Y-5588700D03*
Y-5488700D03*
Y-5388700D03*
X2732000Y-5288700D03*
Y-5188700D03*
Y-5088700D03*
X2832000Y-5288700D03*
Y-5188700D03*
Y-5088700D03*
X2932000Y-5288700D03*
Y-5188700D03*
Y-5088700D03*
X2732000Y-4988700D03*
Y-4888700D03*
Y-4788700D03*
X2832000Y-4988700D03*
Y-4888700D03*
Y-4788700D03*
X2932000Y-4988700D03*
Y-4888700D03*
Y-4788700D03*
X2732000Y-4688700D03*
Y-4588700D03*
Y-4488700D03*
X2832000Y-4688700D03*
Y-4588700D03*
Y-4488700D03*
X2932000Y-4688700D03*
Y-4588700D03*
Y-4488700D03*
X2732000Y-4388700D03*
X2832000D03*
X2932000D03*
X3032000Y-6488700D03*
Y-6388700D03*
Y-6288700D03*
X3132000Y-6488700D03*
Y-6388700D03*
Y-6288700D03*
X3232000Y-6488700D03*
Y-6388700D03*
Y-6288700D03*
X3032000Y-6188700D03*
Y-6088700D03*
Y-5988700D03*
X3132000Y-6188700D03*
Y-6088700D03*
Y-5988700D03*
X3232000Y-6188700D03*
Y-6088700D03*
Y-5988700D03*
X3032000Y-5888700D03*
Y-5788700D03*
Y-5688700D03*
X3132000Y-5888700D03*
Y-5788700D03*
Y-5688700D03*
X3232000Y-5888700D03*
Y-5788700D03*
Y-5688700D03*
X3032000Y-5588700D03*
Y-5488700D03*
Y-5388700D03*
X3132000Y-5588700D03*
Y-5488700D03*
Y-5388700D03*
X3232000Y-5588700D03*
Y-5488700D03*
Y-5388700D03*
X3032000Y-5288700D03*
Y-5188700D03*
Y-5088700D03*
X3132000Y-5288700D03*
Y-5188700D03*
Y-5088700D03*
X3232000Y-5288700D03*
Y-5188700D03*
Y-5088700D03*
X3032000Y-4988700D03*
Y-4888700D03*
Y-4788700D03*
X3132000Y-4988700D03*
Y-4888700D03*
Y-4788700D03*
X3232000Y-4988700D03*
Y-4888700D03*
Y-4788700D03*
X3032000Y-4688700D03*
Y-4588700D03*
Y-4488700D03*
X3132000Y-4688700D03*
Y-4588700D03*
Y-4488700D03*
X3232000Y-4688700D03*
Y-4588700D03*
Y-4488700D03*
X3032000Y-4388700D03*
X3132000D03*
X3232000D03*
X3332000Y-6488700D03*
Y-6388700D03*
Y-6288700D03*
Y-6188700D03*
Y-6088700D03*
Y-5988700D03*
Y-5888700D03*
Y-5788700D03*
Y-5688700D03*
Y-5588700D03*
Y-5488700D03*
Y-5388700D03*
Y-5288700D03*
Y-5188700D03*
Y-5088700D03*
Y-4988700D03*
Y-4888700D03*
Y-4788700D03*
Y-4688700D03*
Y-4588700D03*
Y-4488700D03*
Y-4388700D03*
G54D63*
G01X3000900Y-7171500D02*
X3095600D01*
X3102100Y-7165000D01*
X3179800D01*
G01X3433000Y-6680000D02*
Y-6724060D01*
X3440000Y-6731060D01*
Y-6790000D01*
G01X3329000Y-6680000D02*
X3433000D01*
G01X5500800Y-1450200D02*
X5402200D01*
G01X5404800Y-1570800D02*
Y-1500500D01*
X5402200Y-1497900D01*
Y-1450200D01*
G01D02*
X5357600D01*
X5345600Y-1462200D01*
X5281900D01*
G01X5815200Y-3401700D02*
X5910600D01*
G01X6232000Y-3428700D02*
Y-3332000D01*
G01X6939200Y-3028800D02*
Y-3080400D01*
X6939400Y-3080600D01*
Y-3123300D01*
X6010000Y-780000D03*
Y-860000D03*
X5930000Y-780000D03*
Y-860000D03*
X5850000Y-780000D03*
Y-860000D03*
X6010000Y-700000D03*
X5930000D03*
X5850000D03*
X6010000Y-220000D03*
Y-300000D03*
Y-380000D03*
X5930000Y-220000D03*
Y-300000D03*
Y-380000D03*
X5850000Y-220000D03*
Y-300000D03*
Y-380000D03*
X6330000Y-780000D03*
Y-860000D03*
X6250000Y-780000D03*
Y-860000D03*
X6170000Y-780000D03*
Y-860000D03*
X6090000Y-780000D03*
Y-860000D03*
X6330000Y-700000D03*
X6250000D03*
X6170000D03*
X6090000D03*
X6330000Y-220000D03*
Y-300000D03*
Y-380000D03*
X6250000Y-220000D03*
Y-300000D03*
Y-380000D03*
X6170000Y-220000D03*
Y-300000D03*
Y-380000D03*
X6090000Y-220000D03*
Y-300000D03*
Y-380000D03*
X6650000Y-780000D03*
Y-860000D03*
X6570000Y-780000D03*
Y-860000D03*
X6490000Y-780000D03*
Y-860000D03*
X6410000Y-780000D03*
Y-860000D03*
X6650000Y-700000D03*
X6570000D03*
X6490000D03*
X6410000D03*
X6650000Y-220000D03*
Y-300000D03*
Y-380000D03*
X6570000Y-220000D03*
Y-300000D03*
Y-380000D03*
X6490000Y-220000D03*
Y-300000D03*
Y-380000D03*
X6410000Y-220000D03*
Y-300000D03*
Y-380000D03*
X6970000Y-780000D03*
Y-860000D03*
X6890000Y-780000D03*
Y-860000D03*
X6810000Y-780000D03*
Y-860000D03*
X6730000Y-780000D03*
Y-860000D03*
X6970000Y-700000D03*
X6890000D03*
X6810000D03*
X6730000D03*
X6970000Y-220000D03*
Y-300000D03*
Y-380000D03*
X6890000Y-220000D03*
Y-300000D03*
Y-380000D03*
X6810000Y-220000D03*
Y-300000D03*
Y-380000D03*
X6730000Y-220000D03*
Y-300000D03*
Y-380000D03*
X7050000Y-780000D03*
Y-860000D03*
Y-700000D03*
Y-220000D03*
Y-300000D03*
Y-380000D03*
G54D73*
G01X974300Y-4572500D02*
X974500D01*
G54D19*
X147000Y-2594500D03*
X420900Y-6504600D03*
X280900D03*
X287000Y-2594500D03*
X548100Y-2827900D03*
X688100D03*
X684200Y-1187400D03*
X544200D03*
X1006500Y-6384600D03*
X866500D03*
X1006500Y-6256300D03*
X866500D03*
X1019200Y-4187600D03*
X937800Y-1416700D03*
X1077800D03*
X1412600Y-7292800D03*
X1357900Y-4187600D03*
X1159200D03*
X1308300Y-2594500D03*
X1168300D03*
X1552600Y-7292800D03*
X1497900Y-4187600D03*
X1560400Y-3531000D03*
X1420400D03*
X1567500Y-2827900D03*
X1707500D03*
X1701500Y-1187400D03*
X1561500D03*
X1827500Y-4187600D03*
X1967500D03*
X1960900Y-1416700D03*
X2336700Y-2594500D03*
X2196700D03*
X2100900Y-1416700D03*
X2506800Y-4187600D03*
X2366800D03*
X2591300Y-3531000D03*
X2451300D03*
X2592000Y-2827900D03*
X2590000Y-1187400D03*
X2883600Y-6859600D03*
X2839600Y-4187600D03*
X2732000Y-2827900D03*
X2730000Y-1187400D03*
X3189000Y-6810000D03*
Y-6680000D03*
X3023600Y-6859600D03*
X2979600Y-4187600D03*
X3142600D03*
X3219000Y-2594500D03*
X2986700Y-1416700D03*
X3126700D03*
X3329000Y-6810000D03*
Y-6680000D03*
X3282600Y-4187600D03*
X3359000Y-2594500D03*
X3641900Y-6541300D03*
X3781900D03*
X3622900Y-2827900D03*
X3762900D03*
X3753300Y-1187400D03*
X3613300D03*
X4012200Y-1416700D03*
X4152200D03*
X5067600Y-2412800D03*
X5069800Y-177100D03*
X4929800D03*
X5300000Y-6300000D03*
X5292100Y-4372400D03*
X5152100D03*
X5288700Y-2412800D03*
X5207600D03*
X5367500Y-177100D03*
X5227500D03*
X5640000Y-6300000D03*
X5440000D03*
X5428700Y-2412800D03*
X5880000Y-6690000D03*
X6020000D03*
X5880000Y-6560000D03*
X6020000D03*
X5780000Y-6300000D03*
X5880000Y-6430000D03*
X6020000D03*
X6249000Y-6690000D03*
X6109000D03*
X6110000Y-6560000D03*
X6250000D03*
Y-6430000D03*
X6110000D03*
X6640000Y-6300000D03*
X6500000D03*
X6608500Y-5855000D03*
X6840000Y-6300000D03*
X6850000Y-5970000D03*
X6748500Y-5855000D03*
X6681000Y-4646300D03*
X6821000D03*
X7080000Y-6690000D03*
X7220000D03*
X7080000Y-6560000D03*
X7220000D03*
X7080000Y-6430000D03*
X7220000D03*
X6980000Y-6300000D03*
X6990000Y-5970000D03*
X7449000Y-6690000D03*
X7309000D03*
X7310000Y-6560000D03*
X7450000D03*
Y-6430000D03*
X7310000D03*
X7530000Y-5980000D03*
Y-5850000D03*
X7670000Y-5980000D03*
Y-5850000D03*
X8450000Y-6660000D03*
X8310000D03*
X8450000Y-6270000D03*
X8310000D03*
X8450000Y-6530000D03*
X8310000D03*
X8450000Y-6400000D03*
X8310000D03*
G54D37*
X2006000Y-7640300D03*
Y-6940300D03*
X2306000Y-7640300D03*
X2256000D03*
X2206000D03*
X2156000D03*
X2106000D03*
X2056000D03*
X2306000Y-6940300D03*
X2256000D03*
X2206000D03*
X2156000D03*
X2106000D03*
X2056000D03*
X2556000Y-7640300D03*
X2506000D03*
X2456000D03*
X2406000D03*
X2356000D03*
X2556000Y-6940300D03*
X2506000D03*
X2456000D03*
X2406000D03*
X2356000D03*
X7530000Y-2605000D03*
X7480000D03*
X7430000D03*
X7380000D03*
X7330000D03*
X7280000D03*
X7530000Y-655000D03*
X7480000D03*
X7430000D03*
X7380000D03*
X7330000D03*
X7280000D03*
X7880000Y-2605000D03*
X7830000D03*
X7780000D03*
X7730000D03*
X7680000D03*
X7630000D03*
X7580000D03*
X7880000Y-655000D03*
X7830000D03*
X7780000D03*
X7730000D03*
X7680000D03*
X7630000D03*
X7580000D03*
X8180000Y-2605000D03*
X8130000D03*
X8080000D03*
X8030000D03*
X7980000D03*
X7930000D03*
X8180000Y-655000D03*
X8130000D03*
X8080000D03*
X8030000D03*
X7980000D03*
X7930000D03*
X8430000Y-2605000D03*
X8380000D03*
X8330000D03*
X8280000D03*
X8230000D03*
X8430000Y-655000D03*
X8380000D03*
X8330000D03*
X8280000D03*
X8230000D03*
G54D64*
X6228000Y-3627400D03*
X6138000D03*
X7556000Y-6194000D03*
X7646000D03*
G54D55*
X5378000Y-7058000D03*
X5313000D03*
X5378000Y-6463000D03*
X5313000D03*
X5703000Y-7058000D03*
X5638000D03*
X5573000D03*
X5508000D03*
X5443000D03*
X5703000Y-6463000D03*
X5638000D03*
X5573000D03*
X5508000D03*
X5443000D03*
X5768000Y-7058000D03*
Y-6463000D03*
X6643000Y-7058000D03*
X6578000D03*
X6513000D03*
X6643000Y-6463000D03*
X6578000D03*
X6513000D03*
X6968000Y-7058000D03*
X6903000D03*
X6838000D03*
X6773000D03*
X6708000D03*
X6968000Y-6463000D03*
X6903000D03*
X6838000D03*
X6773000D03*
X6708000D03*
G54D46*
X4763900Y-7199100D03*
X4668900D03*
X4763900Y-6919100D03*
X4668900D03*
X4763900Y-6659100D03*
X4668900D03*
X4763900Y-6379100D03*
X4668900D03*
X4858900Y-7199100D03*
Y-6919100D03*
Y-6659100D03*
Y-6379100D03*
G54D28*
X683700Y-5427900D03*
Y-5267900D03*
X1007500Y-5672100D03*
Y-5512100D03*
X3796800Y-4765800D03*
Y-4925800D03*
X5058500Y-7783400D03*
Y-7623400D03*
X4889900Y-7783400D03*
Y-7623400D03*
X5397800Y-7783400D03*
Y-7623400D03*
X5226900Y-7783400D03*
Y-7623400D03*
X5569800Y-7783400D03*
Y-7623400D03*
X5742900Y-7783400D03*
Y-7623400D03*
X5915200Y-7783400D03*
Y-7623400D03*
X6261400Y-7783400D03*
Y-7623400D03*
X6087300Y-7783400D03*
Y-7623400D03*
X6435000Y-7783400D03*
Y-7623400D03*
X6610300Y-7783400D03*
Y-7623400D03*
X6680000Y-5984400D03*
Y-6144400D03*
X6961900Y-7783400D03*
Y-7623400D03*
X6785300Y-7783400D03*
Y-7623400D03*
X7136500Y-7783400D03*
Y-7623400D03*
X7486300Y-7783400D03*
Y-7623400D03*
X7311800Y-7783400D03*
Y-7623400D03*
X7662900Y-7783400D03*
Y-7623400D03*
X7838500Y-7783400D03*
Y-7623400D03*
X8012800Y-7783400D03*
Y-7623400D03*
X8188000Y-6420000D03*
Y-6260000D03*
G54D74*
G01X4716900Y-5544800D02*
X4721900D01*
X4752900Y-5513800D01*
Y-5319500D01*
X4782200Y-5290200D01*
X4859900D01*
G01Y-5090200D02*
X4772400D01*
X4721900Y-5140700D01*
X4716900D01*
G01X4859900Y-5240200D02*
X4770500D01*
X4764600Y-5234300D01*
X4716900D01*
G01X4859900Y-5040200D02*
X4782200D01*
X4748600Y-5006600D01*
Y-4858500D01*
X4721900Y-4831800D01*
X4716900D01*
G01X4771000Y-2604000D02*
X4877500D01*
X4971300Y-2510200D01*
Y-2468400D01*
X5026900Y-2412800D01*
X5067600D01*
G01X5428700D02*
Y-2347600D01*
X5299300Y-2218200D01*
X4949500D01*
X4863700Y-2304000D01*
X4771000D01*
G01X5288700Y-2412800D02*
Y-2321000D01*
X5234300Y-2266600D01*
X5004100D01*
X4866700Y-2404000D01*
X4771000D01*
G01Y-2504000D02*
X4863700D01*
X5047100Y-2320600D01*
X5179000D01*
X5207600Y-2349200D01*
Y-2412800D01*
G01X5407000Y-4389800D02*
X5351000Y-4445800D01*
X5333600D01*
X5300700Y-4478700D01*
Y-4550000D01*
G01X5610600Y-2659400D02*
X5656300D01*
X5676900Y-2680000D01*
Y-2714800D01*
X5696600Y-2734500D01*
X5751100D01*
G01X5527900Y-2458000D02*
Y-2487400D01*
X5476600Y-2538700D01*
Y-2581400D01*
G01X5526600D02*
Y-2566400D01*
X5593400Y-2499600D01*
Y-2458000D01*
G01X5900700Y-4550000D02*
Y-4472300D01*
X5925200Y-4447800D01*
X6056500D01*
X6082400Y-4421900D01*
Y-4318000D01*
X6102500Y-4297900D01*
X6208600D01*
X6245200Y-4261300D01*
Y-4175900D01*
G01X6010100Y-2825900D02*
Y-2921600D01*
X5997200Y-2934500D01*
X5926500D01*
X5902300Y-2958700D01*
X5847100D01*
G01X6010100Y-2825900D02*
Y-2716500D01*
X6037100Y-2689500D01*
Y-2646800D01*
G01X6389000Y-3255000D02*
X6299030D01*
X6280730Y-3236700D01*
X6232000D01*
G01X6389000Y-3305000D02*
X6336300D01*
X6336000Y-3304700D01*
X6316300D01*
X6289000Y-3332000D01*
X6232000D01*
G01X6440100Y-5390300D02*
X6542600D01*
X6560500Y-5408200D01*
X6750600D01*
G01X6440100Y-5340300D02*
X6537000D01*
X6565100Y-5312200D01*
X6750600D01*
G01X6518100Y-2860000D02*
X6475400D01*
X6443400Y-2892000D01*
Y-3007500D01*
X6469600Y-3033700D01*
X6534300D01*
X6565000Y-3064400D01*
Y-3127000D01*
G01X6939200Y-3327300D02*
X6890140D01*
X6862440Y-3355000D01*
X6793000D01*
G01X6939200Y-3422300D02*
X6882600D01*
X6865300Y-3405000D01*
X6793000D01*
G01X7048200Y-3617300D02*
X7087260D01*
X7108000Y-3596560D01*
Y-3446040D01*
X7084260Y-3422300D01*
X7035200D01*
G01X7154900Y-2940400D02*
Y-3138200D01*
X7189000Y-3172300D01*
Y-3205000D01*
G01X7251500Y-2940400D02*
Y-3060800D01*
X7265000Y-3074300D01*
Y-3127000D01*
G01X7346200Y-2939400D02*
Y-3055500D01*
X7365000Y-3074300D01*
Y-3127000D01*
G01X7833100Y-3422300D02*
X7882160D01*
X7908700Y-3448840D01*
Y-3596860D01*
X7885160Y-3620400D01*
X7846100D01*
G01X7593000Y-3355000D02*
X7660340D01*
X7688040Y-3327300D01*
X7737100D01*
G01X7593000Y-3405000D02*
X7670740D01*
X7688040Y-3422300D01*
X7737100D01*
G54D38*
X1931000Y-7565300D03*
Y-7265300D03*
Y-7315300D03*
Y-7365300D03*
Y-7415300D03*
Y-7465300D03*
Y-7515300D03*
Y-7015300D03*
Y-7065300D03*
Y-7115300D03*
Y-7165300D03*
Y-7215300D03*
X2631000Y-7565300D03*
Y-7265300D03*
Y-7315300D03*
Y-7365300D03*
Y-7415300D03*
Y-7465300D03*
Y-7515300D03*
Y-7015300D03*
Y-7065300D03*
Y-7115300D03*
Y-7165300D03*
Y-7215300D03*
G54D47*
X4668400Y-5760100D03*
Y-5640100D03*
Y-5449200D03*
Y-5329200D03*
Y-5044100D03*
Y-4924100D03*
X4665900Y-4736900D03*
Y-4616900D03*
G54D56*
X5407000Y-4389800D03*
X5539200Y-4340600D03*
X5888400Y-6298100D03*
G54D65*
X6751000Y-5546000D03*
Y-5176000D03*
G54D29*
X574300Y-5080500D03*
Y-4953500D03*
Y-4826500D03*
Y-4699500D03*
Y-4572500D03*
X974300Y-5080500D03*
Y-4953500D03*
Y-4826500D03*
Y-4699500D03*
Y-4572500D03*
X3660900Y-5278500D03*
G54D75*
G01X515700Y-2652100D02*
Y-2698500D01*
X445800Y-2768400D01*
X390600D01*
G01X513200Y-1564600D02*
X467300D01*
X418300Y-1613600D01*
X359800D01*
G01X715700Y-2452100D02*
X765800D01*
X825400Y-2392500D01*
X870100D01*
G01X1534000Y-1564600D02*
X1481600D01*
X1432600Y-1613600D01*
X1382600D01*
G01X1413100Y-2768400D02*
X1468300D01*
X1535000Y-2701700D01*
Y-2652100D01*
G01X1735000Y-2452100D02*
X1782000D01*
X1841600Y-2392500D01*
X1884000D01*
G01X2559500Y-2652100D02*
Y-2698200D01*
X2489300Y-2768400D01*
X2434100D01*
G01X2562500Y-1564600D02*
X2514700D01*
X2465700Y-1613600D01*
X2410700D01*
G01X2759500Y-2452100D02*
X2805400D01*
X2865000Y-2392500D01*
X2899500D01*
G01X3592000Y-2652100D02*
Y-2702900D01*
X3526500Y-2768400D01*
X3471300D01*
G01X3585800Y-1564600D02*
X3537600D01*
X3488600Y-1613600D01*
X3438500D01*
G01X3792000Y-2452100D02*
X3835000D01*
X3894600Y-2392500D01*
X3937400D01*
G01X5007000Y-5887700D02*
X5004500Y-5890200D01*
X5004490D01*
X4997760Y-5896930D01*
X4945040D01*
X4938310Y-5890200D01*
X4859900D01*
G01X5850300Y-6130200D02*
Y-6224400D01*
X5888400Y-6262500D01*
Y-6298100D01*
G01X8333000Y-5805000D02*
X8250400D01*
X8180400Y-5875000D01*
X8085000D01*
G01X8332000Y-5905000D02*
Y-5959940D01*
X8333000Y-5960940D01*
Y-6005000D01*
G01X8430000Y-6130000D02*
X8415000D01*
X8372180Y-6087180D01*
X8353080D01*
X8333000Y-6067100D01*
Y-6005000D01*
G01Y-5805000D02*
Y-5859940D01*
X8332000Y-5860940D01*
Y-5905000D01*
G54D66*
X6389000Y-3255000D03*
Y-3305000D03*
Y-3355000D03*
Y-3405000D03*
Y-3455000D03*
Y-3205000D03*
X6793000Y-3255000D03*
Y-3305000D03*
Y-3355000D03*
Y-3405000D03*
Y-3455000D03*
Y-3205000D03*
X7189000Y-3255000D03*
Y-3305000D03*
Y-3355000D03*
Y-3405000D03*
Y-3455000D03*
Y-3205000D03*
X7593000Y-3255000D03*
Y-3305000D03*
Y-3355000D03*
Y-3405000D03*
Y-3455000D03*
Y-3205000D03*
G54D57*
X5351600Y-2834400D03*
G54D48*
X4771000Y-3204000D03*
Y-3104000D03*
Y-3004000D03*
Y-2904000D03*
Y-2804000D03*
Y-2704000D03*
Y-2604000D03*
Y-2504000D03*
Y-2404000D03*
Y-2304000D03*
X4997200Y-1821600D03*
Y-1721600D03*
Y-1621600D03*
Y-1521600D03*
Y-1421600D03*
Y-1321600D03*
Y-1221600D03*
Y-1121600D03*
Y-1021600D03*
Y-921600D03*
G54D39*
X1756400Y-6746800D03*
X1916400D03*
X3810000Y-5681500D03*
X3650000D03*
X5019500Y-6634900D03*
X5018200Y-2117600D03*
X5179500Y-6634900D03*
X5178200Y-2117600D03*
G54D76*
G01X1932000Y-5688700D02*
Y-5685450D01*
X2028750Y-5588700D01*
X2032000D01*
G01X2332000Y-5688700D02*
X2232000D01*
G01D02*
X2132000D01*
G01X2032000Y-5488700D02*
Y-5588700D01*
G01Y-5488700D02*
Y-5388700D01*
G01D02*
Y-5288700D01*
G01Y-5188700D02*
X2132000D01*
G01D02*
X2232000D01*
G01D02*
X2332000D01*
G01X2032000Y-5288700D02*
Y-5188700D01*
G01X2132000Y-5088700D02*
Y-5188700D01*
G01X2232000Y-4988700D02*
X2235250D01*
X2332000Y-5085450D01*
Y-5088700D01*
G01X2032000Y-4988700D02*
X2132000Y-5088700D01*
G01X2532000Y-5588700D02*
Y-5688700D01*
G01D02*
X2432000D01*
G01D02*
X2332000D01*
G01X2632000Y-5788700D02*
X2532000Y-5688700D01*
G01Y-5288700D02*
Y-5388700D01*
G01D02*
X2632000D01*
G01X2532000D02*
Y-5488700D01*
G01D02*
Y-5588700D01*
G01D02*
X2632000D01*
G01X2332000Y-5188700D02*
X2432000D01*
G01D02*
X2532000D01*
G01D02*
Y-5288700D01*
G01X2332000Y-5088700D02*
Y-5188700D01*
G01X5175000Y-6968000D02*
X5213800Y-6929200D01*
X5422500D01*
X5443000Y-6949700D01*
Y-7058000D01*
G01X5905000Y-6972000D02*
X5861700Y-6928700D01*
X5666600D01*
X5638000Y-6957300D01*
Y-7058000D01*
G01X5627800Y-2098200D02*
X5690400D01*
X5767100Y-2021500D01*
G01X6612000Y-1820000D02*
Y-1900000D01*
G01D02*
Y-1980000D01*
G01D02*
X6532000D01*
G54D49*
X5021800Y-7504300D03*
X5101800D03*
X4847200Y-7504900D03*
X4927200D03*
X6297300Y-7504300D03*
X6217300D03*
X7173200D03*
X7093200D03*
G54D58*
X5376600Y-3084400D03*
X5326600D03*
X5276600D03*
X5226600D03*
X5176600D03*
X5376600Y-2581400D03*
X5326600D03*
X5276600D03*
X5226600D03*
X5176600D03*
X5526600Y-3084400D03*
X5476600D03*
X5426600D03*
X5526600Y-2581400D03*
X5476600D03*
X5426600D03*
G54D67*
X7980000Y-6850000D03*
G54D77*
G01X6010100Y-3065900D02*
X5792500D01*
X5751100Y-3024500D01*
Y-2958700D01*
G54D59*
X5294800Y-2097800D03*
X5502800Y-2098200D03*
X5627800D03*
X5419800Y-2097800D03*
G54D68*
X7889490Y-7046580D03*
X7854130Y-7011220D03*
X7818780Y-6975870D03*
X7783420Y-6940510D03*
X7748070Y-6905150D03*
X7924850Y-7081930D03*
X8206980Y-6792720D03*
X8175160Y-6760900D03*
X8139810Y-6725550D03*
X8104450Y-6690190D03*
X8069100Y-6654840D03*
X8033740Y-6619480D03*
G54D78*
G01X163400Y-1613600D02*
X212200D01*
X213200Y-1614600D01*
X260900D01*
G01X266000Y-2480000D02*
Y-2431300D01*
X265000Y-2430300D01*
Y-2382600D01*
G01X266000Y-2283200D02*
X392600D01*
G01X1062900Y-2392500D02*
X1014100D01*
X1013100Y-2391500D01*
X965400D01*
G01X831300Y-1722400D02*
X958800D01*
G01Y-1529200D02*
Y-1579100D01*
X959800Y-1580100D01*
Y-1627800D01*
G01X1280000Y-7630500D02*
X1253400D01*
X1224700Y-7659200D01*
Y-7676500D01*
G01X1129000D02*
X1221900D01*
G01X1282000Y-7730500D02*
X1249200D01*
X1224700Y-7706000D01*
Y-7676500D01*
G01X1286300Y-2382600D02*
Y-2431300D01*
X1287300Y-2432300D01*
Y-2480000D01*
G01Y-2283200D02*
X1402200D01*
G01X1182400Y-1613600D02*
X1233100D01*
X1234100Y-1614600D01*
X1281800D01*
G01X2080100Y-2392500D02*
X2030400D01*
X2029400Y-2391500D01*
X1981700D01*
G01X1855700Y-1722400D02*
X1981500D01*
G01X1981900Y-1529200D02*
Y-1579100D01*
X1982900Y-1580100D01*
Y-1627800D01*
G01X2315700Y-2480000D02*
Y-2431300D01*
X2314700Y-2430300D01*
Y-2382600D01*
G01X2315700Y-2283200D02*
X2440200D01*
G01X2212500Y-1613600D02*
X2262400D01*
X2263400Y-1614600D01*
X2311100D01*
G01X3099300Y-2392500D02*
X3048000D01*
X3047000Y-2391500D01*
X2999300D01*
G01X3008700Y-1627800D02*
Y-1577900D01*
X3007700Y-1576900D01*
Y-1529200D01*
G01X3234900Y-1613600D02*
X3288200D01*
X3289200Y-1614600D01*
X3336900D01*
G01X3329000Y-6810000D02*
X3330000Y-6811000D01*
Y-6880000D01*
X3307000Y-6903000D01*
Y-6925000D01*
G01D02*
X3364300D01*
X3379300Y-6910000D01*
X3440000D01*
G01X3337000Y-2382600D02*
Y-2431300D01*
X3338000Y-2432300D01*
Y-2480000D01*
G01Y-2283200D02*
X3464100D01*
G01X4035500Y-2391500D02*
X4083200D01*
X4084200Y-2392500D01*
X4134500D01*
G01X4033200Y-1722400D02*
X3904300D01*
G01X4033200Y-1529200D02*
Y-1579100D01*
X4034200Y-1580100D01*
Y-1627800D01*
G01X5064900Y-3486200D02*
Y-3533900D01*
X5065700Y-3534700D01*
Y-3590200D01*
G01X4969700D02*
Y-3538200D01*
X4966400Y-3534900D01*
Y-3487200D01*
G01X5331300Y-3522700D02*
X5384400D01*
X5385400Y-3523700D01*
X5428100D01*
G01X5331300Y-3522700D02*
Y-3401700D01*
G01D02*
X5428100D01*
G01Y-3523700D02*
X5483600D01*
X5484600Y-3522700D01*
X5527300D01*
G01X5428100Y-3523700D02*
Y-3401700D01*
G01X5726000Y-3516000D02*
X5672500D01*
X5665800Y-3522700D01*
X5623100D01*
G01D02*
Y-3400700D01*
G01Y-3304700D02*
X5571000D01*
X5570000Y-3305700D01*
X5527300D01*
G01X5726000Y-3516000D02*
Y-3456800D01*
X5718600Y-3449400D01*
Y-3401700D01*
G01D02*
X5666800D01*
X5665800Y-3400700D01*
X5623100D01*
G01X5822000Y-3516000D02*
X5873700D01*
X5881400Y-3523700D01*
X5924100D01*
G01D02*
Y-3462900D01*
X5910600Y-3449400D01*
Y-3401700D01*
G01Y-3305700D02*
X5966300D01*
X5967300Y-3304700D01*
X6010000D01*
G01X5822000Y-3516000D02*
Y-3456200D01*
X5815200Y-3449400D01*
Y-3401700D01*
G01X6360500Y-6546000D02*
X6301700D01*
X6287700Y-6560000D01*
X6250000D01*
G01X6474600Y-2738000D02*
Y-2692500D01*
X6486600Y-2680500D01*
Y-2632800D01*
G01X6697900Y-2738000D02*
Y-2692500D01*
X6709900Y-2680500D01*
Y-2632800D01*
G01X6921000Y-2738000D02*
Y-2692500D01*
X6933000Y-2680500D01*
Y-2632800D01*
G01X6967000Y-5855000D02*
X7038300D01*
X7057300Y-5874000D01*
X7115000D01*
G01X7048200Y-3224500D02*
Y-3273900D01*
X7035200Y-3286900D01*
Y-3327300D01*
G01X7145000Y-2738000D02*
Y-2692500D01*
X7157000Y-2680500D01*
Y-2632800D01*
G01X7525600Y-284500D02*
X7626200D01*
G01X7795000Y-6064000D02*
X7729060D01*
X7698060Y-6095000D01*
X7649000D01*
G01X7646000Y-6194000D02*
Y-6142060D01*
X7649000Y-6139060D01*
Y-6095000D01*
G01X7846100Y-3224500D02*
Y-3273900D01*
X7833100Y-3286900D01*
Y-3327300D01*
G01X7730100Y-284500D02*
X7832900D01*
G01X8188000Y-6420000D02*
X8242300D01*
X8263520Y-6398780D01*
X8308780D01*
X8310000Y-6400000D01*
G01X8440000Y-7135000D02*
Y-7180000D01*
X8429000Y-7191000D01*
Y-7235000D01*
G01X8310000Y-6530000D02*
Y-6660000D01*
G01Y-6400000D02*
Y-6270000D01*
G54D69*
X7886660Y-6650600D03*
X7851310Y-6685950D03*
X7815950Y-6721310D03*
X7780600Y-6756660D03*
X7745240Y-6792020D03*
X8179400Y-6943340D03*
X8144050Y-6978690D03*
X8108690Y-7014050D03*
X8073340Y-7049400D03*
X8037980Y-7084760D03*
X7922020Y-6615240D03*
X8214760Y-6907980D03*
G54D79*
G01X3025400Y-7714000D02*
Y-7719000D01*
G01Y-7610000D02*
Y-7605000D01*
G01X5200300Y-6250600D02*
Y-6130200D01*
G01X6033500Y-4173900D02*
Y-4258700D01*
X5995700Y-4296500D01*
X5661800D01*
X5631000Y-4327300D01*
Y-4411600D01*
X5650700Y-4431300D01*
Y-4550000D01*
G01X6614700Y-2956000D02*
Y-2957000D01*
G01X8337700Y-4600400D02*
X8305100Y-4633000D01*
X8275000D01*
M02*
